<?xml version="1.0" encoding="UTF-8" standalone="no"?>
<svg width="215px" height="80px" viewBox="0 0 215 80" version="1.1" xmlns="http://www.w3.org/2000/svg" xmlns:xlink="http://www.w3.org/1999/xlink">
    <!-- Generator: Sketch 3.7.2 (28276) - http://www.bohemiancoding.com/sketch -->
    <title>Fill 2</title>
    <desc>Created with Sketch.</desc>
    <defs></defs>
    <g id="Page-1" stroke="none" stroke-width="1" fill="none" fill-rule="evenodd">
        <g id="Sladostory_logo-1" transform="translate(0.000000, -284.000000)" fill="#F0C97D">
            <path d="M181.315,362.468 C162.234,365.538 139.485,360.786 119.086,356.284 L123.201,355.568 C138.662,359.173 171.426,365.621 185.394,359.343 C192.579,356.113 199.804,341.538 202.46,334.097 C201.664,334.761 201.659,334.735 200.633,335.214 C199.665,335.666 198.486,335.863 197.292,335.863 C196.673,335.863 194.361,335.477 193.874,335.345 C190.341,334.383 192.581,326.346 194.714,320.284 C194.329,320.494 193.954,320.665 193.583,320.792 C192.81,321.056 192.11,321.22 191.494,321.322 C189.425,321.664 187.64,321.569 186.236,320.494 C186.917,319.231 188.755,312.975 187.606,313.188 C187.134,313.275 185.061,316.391 184.639,317.053 C182.205,320.875 181.608,323.131 179.789,327.775 C178.751,330.427 177.909,332.989 177.157,335.863 C173.843,335.027 171.924,334.334 172.361,330.333 C172.41,329.889 172.478,329.424 172.565,328.943 C171.739,329.229 170.75,329.326 169.51,329.326 C168.561,329.326 167.248,328.705 166.66,328.343 C164.648,331.018 161.38,336.544 157.606,335.803 C155.303,335.353 152.454,334.79 151.697,331.981 C150.604,333.117 149.353,334.012 147.745,334.852 C143.99,336.816 140.35,335.957 138.331,332.494 C137.841,331.653 138.093,330.21 138.331,329.118 C139.757,322.581 144.903,313.161 148.707,304.72 C141.539,304.169 136.564,305.021 136.48,310.995 C145.799,315.235 138.008,319.606 136.442,316.119 C136.065,315.361 135.559,314.042 135.381,311.894 C135.311,311.877 135.244,311.868 135.182,311.868 C134.469,311.868 134.001,312.154 133.925,312.748 C133.396,316.93 142.72,338.304 126.377,335.804 C122.672,335.237 119.162,333.318 119.399,329.325 L119.345,329.326 C118.396,329.326 117.083,328.705 116.495,328.343 C114.483,331.018 111.215,336.544 107.441,335.803 C105.288,335.382 102.658,334.863 101.706,332.501 C101.352,332.821 101.008,333.135 100.664,333.43 C99.437,334.481 97.879,335.321 96.286,335.651 C94.137,336.096 91.439,336.188 90.149,334.139 C89.738,333.485 89.477,332.968 89.341,332.151 C86.355,336.531 82.185,336.996 79.185,333.377 C78.825,332.944 78.553,332.422 78.359,331.831 C77.937,332.394 77.479,332.907 76.78,333.432 C75.896,334.184 74.923,334.758 73.862,335.156 C72.774,335.611 71.725,335.82 70.545,335.82 C69.292,335.82 68.493,335.703 67.76,334.626 C67.318,333.976 66.835,332.938 66.968,331.522 C64.959,334.03 63.581,335.82 60.066,335.82 C58.652,335.82 56.193,334.906 55.551,334.041 C55.097,333.429 54.802,332.625 54.644,331.682 C53.707,333.464 51.885,334.847 50.115,335.445 C49.484,335.659 48.426,335.82 47.773,335.82 C43.6,335.82 40.587,333.934 41.658,329.035 C41.863,328.101 42.113,327.265 42.398,326.401 L37.508,331.53 C30.628,340.006 12.291,340.834 3.413,330.036 C-4.756,320.101 6.799,307.443 20.838,315.947 C30.413,321.747 22.541,331.305 12.944,325.679 C12.944,325.541 24.76,319.264 17.126,316.029 C9.491,312.794 5.765,332.477 16.362,335.505 C33.745,340.471 36.761,324.193 25.845,310.715 C12.167,293.827 19.112,279.54 36.666,286.449 C52.469,292.669 50.818,305.789 36.757,301.848 C42.776,297.974 42.028,291.58 39.725,289.938 C31.224,283.615 23.92,292.675 29.559,302.699 C32.56,308.034 33.735,309.211 36.467,313.346 C40.266,319.095 41.064,323.565 39.685,327.481 L43.179,324.121 C45.923,316.267 49.386,307.778 52.621,300.113 C53.859,297.178 54.947,292.339 58.714,293.109 C68.531,295.117 64.293,306.519 54.089,315.329 C51.409,321.952 47.095,333.25 47.981,333.969 C50.089,335.681 53.878,330.562 54.661,327.571 C54.701,327.254 54.749,326.933 54.805,326.608 L54.805,326.607 C55.758,321.057 58.835,314.449 62.071,311.896 C63.177,311.023 64.669,310.648 66.05,310.57 C68.058,310.456 72.029,312.244 72.107,315.024 C72.384,314.381 72.459,314.356 72.87,313.224 C73.28,312.091 72.835,310.885 72.776,310.57 C73.618,310.747 75.756,311.566 76.532,312.057 C77.424,312.619 78.146,313.437 78.29,314.511 C78.82,318.449 67.793,337.808 74.79,333.034 C75.824,332.33 77.193,330.701 77.973,329.367 C77.822,323.415 81.987,314.349 85.408,311.716 C85.932,311.313 86.547,310.997 87.231,310.754 C87.916,310.512 88.594,310.431 89.254,310.39 C91.805,310.234 94.995,311.514 95.15,314.336 C96.243,312.143 99.399,304.847 101.048,298.918 C101.725,296.481 102.375,294.424 101.263,292.418 C103.058,292.89 107.698,293.817 108.26,295.892 C108.512,296.822 108.592,297.902 108.26,299.076 C105.634,308.36 96.722,325.504 95.523,331.706 C95.392,332.381 95.301,333.96 96.286,333.96 C96.684,333.96 97.084,333.871 97.48,333.695 C98.934,333.053 99.945,332.006 100.928,330.776 C101.042,330.634 101.16,330.487 101.278,330.335 C100.785,324.195 104.512,316.354 108.782,312.511 C111.313,310.231 114.341,310.275 117.265,311.785 C118.983,311.514 119.993,310.767 121.651,313.05 C122.225,313.841 122.405,314.816 122.465,315.899 C122.709,320.413 120.29,323.822 118.124,327.427 C118.35,327.787 118.844,327.967 119.608,327.969 C120.159,325.624 121.315,324.009 123.826,323.556 C125.046,323.335 127.101,324.115 128.569,324.954 C128.317,324.954 128.063,324.997 127.815,325.079 C125.775,325.758 124.605,330.28 124.605,332.101 C124.605,333.379 124.806,334.367 126.305,334.367 C132.034,334.367 128.824,319.055 128.506,316.345 C128.284,314.461 128.311,311.497 130.454,310.751 C131.417,310.458 132.486,310.323 133.659,310.343 C134.168,310.352 134.735,310.432 135.318,310.569 C135.316,310.464 135.322,310.358 135.316,310.25 C134.865,302.541 141.146,301.502 150.046,301.642 C150.723,300.02 151.322,298.456 151.802,296.98 C152.111,296.031 152.743,294.058 151.82,292.365 C153.616,292.109 157.64,293.823 158.51,295.929 C158.782,296.589 158.763,297.51 158.476,298.682 C158.212,299.761 157.855,300.829 157.427,301.893 C168.048,302.3 180.429,302.433 189.623,295.679 C190.286,296.608 192.988,299.991 190.37,301.912 C180.876,308.879 167.119,306.963 155.881,305.519 C152.103,314.103 148.274,321.086 144.903,331.07 C144.657,331.798 143.944,334.11 145.954,333.574 C148.906,332.788 150.441,328.467 151.473,325.925 C151.606,325.597 151.781,325.288 151.925,324.968 C153.054,320.162 155.858,315.291 158.947,312.511 C161.438,310.269 164.492,310.268 167.43,311.785 C169.148,311.514 170.158,310.767 171.816,313.05 C174.711,317.03 170.467,323.801 168.289,327.427 C168.515,327.789 169.013,327.969 169.781,327.969 C170.731,327.969 171.622,327.687 172.358,327.02 C173.176,326.277 173.402,325.146 173.721,324.409 C174.763,321.127 176.151,317.866 177.29,314.614 C178.033,312.493 177.359,310.471 177.447,310.428 C179.225,310.428 184.505,312.777 183.811,315.56 C184.685,314.359 185.586,313.105 186.282,312.409 C187.388,311.303 188,310.859 189.106,310.975 C190.253,311.095 192.772,311.535 193.251,312.766 C194.056,314.842 193.538,317.87 192.422,319.73 C192.908,319.642 193.462,319.487 194.081,319.266 C194.559,319.095 194.961,318.872 195.311,318.626 C196.083,316.523 196.763,314.818 197.039,313.99 C197.479,312.664 197.809,311.976 197.389,310.553 C199.116,310.867 202.691,312.48 203.319,314.171 C204.68,317.839 198.81,327.626 198.289,332.06 C197.969,334.776 199.444,334.284 200.069,334.053 C203.771,332.69 207.582,317.872 208.576,313.98 C209.074,312.031 208.409,311.04 208.216,310.554 C209.862,310.554 214.194,311.798 214.788,313.783 C214.921,314.225 214.964,314.738 214.854,315.309 C211.517,332.556 200.904,359.317 181.315,362.468 L181.315,362.468 Z M180.965,359.777 C180.965,358.868 179.815,356.852 178.156,356.239 C168.683,352.742 153.948,351.691 136.601,351.701 C114.293,351.714 75.23,358.566 53.647,361.146 C38.248,362.987 35.474,358.469 39.297,349.333 C38.609,349.64 37.95,350.689 37.745,351.406 C34.859,361.495 34.665,365.426 53.673,362.698 C88.978,357.63 113.259,353.514 136.47,353.03 C151.973,352.708 169.862,355.217 180.965,359.777 L180.965,359.777 Z M53.528,358.497 L53.528,355.884 C53.751,355.857 53.964,355.83 54.197,355.762 L55.693,358.228 L57.625,357.988 L57.625,357.714 L55.78,354.929 C57.13,353.891 57.091,352.604 57.091,351.204 C56.489,351.279 55.897,351.353 55.305,351.427 C55.305,352.709 55.392,354.009 53.654,354.225 L53.528,354.241 L53.528,351.648 C52.925,351.722 52.343,351.795 51.76,351.867 L51.76,358.717 C52.343,358.645 52.925,358.572 53.528,358.497 L53.528,358.497 Z M68.977,352.992 C68.977,348.256 62.018,349.223 62.018,353.959 C62.018,358.705 68.977,357.737 68.977,352.992 L68.977,352.992 Z M63.801,353.711 C63.801,351.246 67.203,350.772 67.203,353.238 C67.203,355.724 63.801,356.197 63.801,353.711 L63.801,353.711 Z M79.743,348.03 C79.152,348.115 78.561,348.199 77.97,348.283 L77.97,350.769 L75.878,351.068 L75.878,348.583 C75.287,348.667 74.686,348.753 74.105,348.836 L74.105,355.685 C74.686,355.603 75.287,355.517 75.878,355.432 L75.878,352.683 L77.97,352.384 L77.97,355.133 C78.561,355.049 79.152,354.964 79.743,354.88 L79.743,348.03 L79.743,348.03 Z M85.876,354.017 L89.89,353.465 L89.89,354.218 L91.315,354.022 L91.315,351.732 L90.607,351.83 L88.203,346.739 L87.457,346.842 L85.13,352.584 L84.442,352.678 L84.442,354.968 L85.876,354.771 L85.876,354.017 L85.876,354.017 Z M87.825,349.717 L88.804,352.058 L86.885,352.322 L87.825,349.717 L87.825,349.717 Z M100.058,348.728 L100.058,352.095 C100.659,352.017 101.261,351.94 101.853,351.864 L101.853,344.985 L101.222,345.066 L97.787,348.887 L97.787,345.536 C97.194,345.612 96.602,345.688 96.01,345.764 L96.01,352.614 L96.631,352.534 L100.058,348.728 L100.058,348.728 Z M108.412,345.782 L108.412,351.067 C108.986,351.004 109.56,350.94 110.134,350.877 L110.134,345.593 L111.797,345.409 L111.797,343.843 L106.739,344.401 L106.739,345.967 L108.412,345.782 L108.412,345.782 Z M120.962,342.936 C119.364,343.081 118.282,343.18 116.704,343.323 L116.704,350.173 C118.282,350.03 119.452,349.923 121.05,349.777 L121.05,348.221 C120.027,348.315 119.442,348.368 118.439,348.459 L118.439,347.256 L120.758,347.045 L120.758,345.489 L118.439,345.7 L118.439,344.731 C119.442,344.64 119.949,344.594 120.962,344.501 L120.962,342.936 L120.962,342.936 Z M128.139,349.28 L128.139,347.529 L129.399,347.455 C132.672,347.263 132.672,342.174 129.399,342.356 C128.393,342.415 127.377,342.475 126.391,342.533 L126.391,349.383 C126.967,349.349 127.553,349.314 128.139,349.28 L128.139,349.28 Z M129.389,345.88 L128.139,345.953 L128.139,343.996 C128.54,343.972 128.979,343.937 129.389,343.922 C130.405,343.873 130.347,345.823 129.389,345.88 L129.389,345.88 Z M136.61,345.575 C136.62,347.904 138.381,349.088 140.123,349.088 C141.581,349.096 143.117,348.34 143.371,346.404 C142.775,346.401 142.236,346.398 141.649,346.395 C141.464,347.128 140.867,347.496 140.123,347.493 C139.086,347.477 138.42,346.593 138.42,345.585 C138.42,344.45 139.096,343.681 140.123,343.686 C140.857,343.69 141.375,344.006 141.62,344.702 C142.217,344.705 142.745,344.708 143.342,344.711 C143.078,342.88 141.542,342.099 140.123,342.091 C138.381,342.082 136.62,343.246 136.61,345.575 L136.61,345.575 Z M150.348,349.249 L150.348,346.636 C150.572,346.646 150.788,346.657 151.022,346.629 L152.528,349.351 L154.473,349.443 L154.473,349.169 L152.615,346.068 C153.974,345.261 153.935,343.967 153.935,342.568 C153.329,342.54 152.733,342.511 152.137,342.483 C152.137,343.765 152.224,345.081 150.475,344.998 L150.348,344.992 L150.348,342.399 C149.742,342.37 149.155,342.343 148.569,342.315 L148.569,349.164 C149.155,349.192 149.742,349.22 150.348,349.249 L150.348,349.249 Z M163.648,350.24 L165.352,350.411 L165.352,350.157 L162.276,343.164 L161.526,343.089 L158.459,349.464 L158.459,349.718 L160.163,349.889 L160.562,349.069 L163.249,349.339 L163.648,350.24 L163.648,350.24 Z M162.684,347.785 L161.127,347.628 L161.896,345.905 L162.684,347.785 L162.684,347.785 Z M169.39,350.743 L169.39,350.998 L171.3,351.426 L172.445,349.667 L173.333,349.866 L173.333,351.881 C173.906,352.01 174.489,352.141 175.043,352.265 L175.043,345.415 C174.078,345.199 173.085,344.976 172.111,344.758 C169.486,344.179 169.008,347.311 170.698,348.864 L169.39,350.743 L169.39,350.743 Z M172.111,348.017 C171.185,347.809 171.138,346.115 172.111,346.323 C172.513,346.404 172.932,346.507 173.333,346.597 L173.333,348.29 L172.111,348.017 L172.111,348.017 Z M54.797,313.593 L54.824,313.593 L54.826,313.59 C64.293,302.567 62.743,295.793 61.523,298.334 C60.716,300.015 59.094,303.847 58.001,306.323 C56.382,309.99 56.129,310.365 54.797,313.593 L54.797,313.593 Z M70.053,319.773 C74.6,304.972 59.067,321.149 61.1,333.16 C61.648,336.393 65.997,330.422 66.838,328.706 C67.885,326.573 69.287,322.268 70.053,319.773 L70.053,319.773 Z M86.757,321.597 C86.244,322.958 85.786,324.385 85.405,325.752 C84.511,328.951 84.51,331.658 84.635,332.671 C84.952,335.238 87.618,332.507 89.358,329.171 C98.008,312.584 91.306,309.517 86.757,321.597 L86.757,321.597 Z M118.757,313.413 C117.937,313.413 117.1,313.891 116.452,314.362 C111.32,318.089 107.225,326.511 107.533,332.435 C107.556,332.864 107.635,333.214 107.771,333.486 C109.349,336.637 114.074,328.636 114.87,326.885 C114.463,326.207 114.144,325.535 114.055,324.851 C113.047,316.901 117.197,314.962 118.757,313.413 L118.757,313.413 Z M136.455,312.039 C136.296,311.935 136.904,315.515 138.412,314.79 C139.542,314.247 137.842,312.965 136.722,312.214 C136.63,312.154 136.604,312.134 136.455,312.039 L136.455,312.039 Z M168.922,313.413 C168.102,313.413 167.265,313.891 166.617,314.362 C161.485,318.089 157.39,326.511 157.699,332.435 C157.721,332.864 157.801,333.214 157.936,333.486 C159.572,336.755 164.385,328.315 165.035,326.885 C164.628,326.207 164.309,325.535 164.22,324.851 C163.212,316.901 167.362,314.962 168.922,313.413 L168.922,313.413 Z M183.43,347.393 C181.665,338.027 148.388,337.574 120.019,339.469 C89.182,341.53 75.759,344.944 58.449,346.697 C51.799,347.37 46.017,348.152 47.495,346.206 C51.126,341.427 62.197,340.056 78.691,343.191 L82.515,342.719 C67.869,339.202 46.96,337.983 39.987,346.513 C37.286,349.818 40.322,350.235 53.808,348.912 C72.354,347.092 90.897,342.492 120.023,340.82 C149.957,339.101 172.715,339.858 183.43,347.393 L183.43,347.393 Z" id="Fill-2"></path>
        </g>
    </g>
</svg>