<?xml version="1.0" standalone="no"?>
<!DOCTYPE svg PUBLIC "-//W3C//DTD SVG 1.1//EN" "http://www.w3.org/Graphics/SVG/1.1/DTD/svg11.dtd" >
<svg xmlns="http://www.w3.org/2000/svg">
<metadata></metadata>
<defs>
<font id="muller_narrowlight_italic" horiz-adv-x="972" >
<font-face units-per-em="2048" ascent="1638" descent="-410" />
<missing-glyph horiz-adv-x="411" />
<glyph horiz-adv-x="0" />
<glyph horiz-adv-x="682" />
<glyph unicode=" "  horiz-adv-x="411" />
<glyph unicode="&#x09;" horiz-adv-x="411" />
<glyph unicode="&#xa0;" horiz-adv-x="411" />
<glyph unicode="!" horiz-adv-x="411" d="M59 74q4 35 28.5 54t57.5 19q36 0 58 -24.5t16 -65.5q-6 -35 -30.5 -54t-57.5 -19q-36 0 -57.5 24.5t-14.5 65.5zM137 387l158 1047h121l-176 -1047h-103z" />
<glyph unicode="&#x22;" horiz-adv-x="557" d="M188 989l70 445h117l-99 -445h-88zM422 989l70 445h116l-100 -445h-86z" />
<glyph unicode="#" horiz-adv-x="1146" d="M35 367l16 102h189l159 457h-172l15 102h194l129 367h113l-127 -367h342l127 367h115l-129 -367h170l-17 -102h-190l-158 -457h172l-16 -102h-193l-129 -367h-115l129 367h-342l-129 -367h-112l127 367h-168zM354 469h342l160 457h-342z" />
<glyph unicode="$" horiz-adv-x="917" d="M27 70l18 112q140 -90 334 -90q137 0 228.5 62t109.5 178q9 60 -6 109t-48 84.5t-78 66.5t-96.5 58.5t-102.5 56t-95.5 64t-76.5 77t-45.5 101t-2.5 130.5q23 149 128.5 235t258.5 97l37 229h102l-37 -225q137 -12 260 -88l-18 -115q-133 88 -285 88q-127 0 -217 -58.5 t-108 -172.5q-9 -56 6.5 -103.5t49 -82t79 -65t96.5 -58.5t102 -57t95 -65t76 -78.5t45.5 -102.5t1.5 -131q-25 -161 -134.5 -249.5t-273.5 -99.5l-37 -225h-102l37 225q-181 13 -301 93z" />
<glyph unicode="%" horiz-adv-x="1329" d="M115 0l1054 1434h117l-1055 -1434h-116zM158 1155q24 135 111.5 218t213.5 83q128 0 196.5 -88.5t45.5 -228.5q-22 -135 -109.5 -218t-214.5 -83q-128 0 -196.5 88.5t-46.5 228.5zM266 1143q-15 -92 23.5 -147.5t116.5 -55.5q80 0 136.5 55.5t73.5 155.5q15 92 -23 147.5 t-116 55.5q-81 0 -137.5 -55.5t-73.5 -155.5zM676 295q22 135 110.5 218t214.5 83q127 0 196 -88.5t46 -228.5q-22 -136 -109 -219t-214 -83q-128 0 -197 89t-47 229zM784 283q-15 -92 23.5 -147.5t116.5 -55.5q81 0 137.5 55.5t73.5 155.5q14 93 -24 148t-116 55 q-83 0 -139.5 -55.5t-71.5 -155.5z" />
<glyph unicode="&#x26;" horiz-adv-x="1167" d="M43 344q12 74 47.5 139t89 117.5t103.5 89.5t116 76q-17 23 -28.5 40t-28 43.5t-25.5 47.5t-20.5 52t-14 57t-5 62t5.5 67q22 132 125.5 226.5t265.5 94.5q139 0 219 -88t61 -219q-12 -72 -47.5 -133.5t-97.5 -114.5t-112 -86t-134 -82l283 -393q95 147 117 317h120 q-32 -225 -168 -413l177 -244h-129l-119 162q-182 -185 -436 -185q-100 0 -176.5 30.5t-120.5 82t-62 117t-6 137.5zM164 336q-16 -105 48 -176.5t200 -71.5q215 0 366 164l-311 424q-60 -35 -103 -65.5t-88.5 -72.5t-73.5 -93t-38 -109zM395 1076q0 -23 3.5 -44t8.5 -40 t13.5 -38.5t16.5 -35.5t19.5 -34.5t20.5 -31t21 -29.5q146 86 198 127q123 95 140 201q12 84 -33.5 139.5t-134.5 55.5q-112 0 -184 -68t-85 -156q-4 -23 -4 -46z" />
<glyph unicode="'" horiz-adv-x="323" d="M188 989l70 445h117l-99 -445h-88z" />
<glyph unicode="(" horiz-adv-x="503" d="M101.5 134q-36.5 244 0.5 489q41 255 153.5 496.5t279.5 434.5h116q-166 -211 -274 -450.5t-146 -482.5q-40 -250 -8.5 -496.5t129.5 -450.5h-110q-104 216 -140.5 460z" />
<glyph unicode=")" horiz-adv-x="503" d="M-109 -326q165 212 273.5 452.5t144.5 481.5q41 250 10 496t-131 450h111q104 -214 141 -459.5t0 -488.5q-41 -256 -154 -498t-280 -434h-115z" />
<glyph unicode="*" horiz-adv-x="704" d="M178 1198l51 102l189 -86l26 220h105l-45 -220l217 86l22 -102l-223 -65l119 -177l-96 -59l-94 190l-158 -190l-82 61l170 177z" />
<glyph unicode="+" horiz-adv-x="864" d="M98 664l17 106h305l49 309h111l-50 -309h308l-17 -106h-305l-49 -310h-111l50 310h-308z" />
<glyph unicode="," horiz-adv-x="327" d="M-37 -301l107 459h123l-136 -459h-94z" />
<glyph unicode="-" horiz-adv-x="770" d="M100 449l17 110h557l-19 -110h-555z" />
<glyph unicode="." horiz-adv-x="331" d="M31 74q6 35 30.5 54t55.5 19q37 0 58.5 -24.5t14.5 -65.5q-6 -35 -30.5 -54t-55.5 -19q-37 0 -58 24.5t-15 65.5z" />
<glyph unicode="/" horiz-adv-x="696" d="M-37 -119l754 1671h86l-754 -1671h-86z" />
<glyph unicode="0" horiz-adv-x="1097" d="M106.5 414q-10.5 133 16.5 288q20 126 52 232t80.5 196t110 152.5t143.5 97.5t179 35q93 0 164 -35.5t114.5 -100.5t67 -155.5t22 -200t-19.5 -235.5q-115 -711 -565 -711q-113 0 -193.5 55t-120.5 152t-50.5 230zM244 698q-46 -299 13 -452.5t220 -153.5 q169 0 280.5 151.5t157.5 448.5q46 301 -13 454.5t-220 153.5q-169 0 -280.5 -152.5t-157.5 -449.5z" />
<glyph unicode="1" horiz-adv-x="716" d="M-2 0l18 117h265l180 1136l-277 -110l21 123l311 127h88l-203 -1276h240l-18 -117h-625z" />
<glyph unicode="2" horiz-adv-x="905" d="M-8 0l12 80q13 81 45.5 155t71 129t96.5 111.5t106 93.5t115 84q81 57 127.5 93.5t101.5 90.5t84.5 110t39.5 120q17 108 -42 172t-180 64q-171 0 -352 -111l21 127q172 96 348 96q171 0 260 -97.5t63 -260.5q-7 -48 -24 -93t-36 -80t-52.5 -74t-58.5 -64.5t-70.5 -62.5 t-72.5 -56.5t-79 -57.5q-153 -114 -212 -170q-139 -133 -169 -282h637l-18 -117h-762z" />
<glyph unicode="3" horiz-adv-x="917" d="M6 45l17 111q133 -67 290 -64q153 0 258 71.5t129 211.5q22 136 -53 211.5t-201 75.5h-155l18 114h152q114 0 195.5 76.5t99.5 187.5q18 117 -51 190t-209 73q-135 0 -287 -68l18 117q129 63 289 63q181 0 281.5 -109t72.5 -274q-15 -103 -83 -191t-160 -122 q89 -25 149 -121.5t39 -239.5q-30 -182 -168 -281.5t-336 -99.5q-178 0 -305 68z" />
<glyph unicode="4" horiz-adv-x="1024" d="M6 326l14 90l797 977h125l-154 -955h183l-17 -112h-182l-51 -326h-119l51 326h-647zM172 438h498l121 748z" />
<glyph unicode="5" horiz-adv-x="915" d="M18 51l19 113q125 -74 289 -74q151 0 256 80.5t129 232.5q23 146 -51.5 228t-223.5 82q-135 0 -289 -56l150 736h625l-21 -117h-504l-100 -481q88 26 174 26q184 0 287 -116.5t73 -309.5q-31 -194 -166.5 -306t-336.5 -112q-183 0 -310 74z" />
<glyph unicode="6" horiz-adv-x="1015" d="M111 631q63 396 227 590t405 194q139 0 248 -69l-18 -111q-106 68 -232 68q-73 0 -136.5 -22.5t-112 -64t-88 -94.5t-69 -120.5t-50 -135t-35.5 -143.5q162 133 348 133q76 0 142.5 -26.5t118 -78t74 -138t5.5 -195.5q-32 -201 -152 -321t-311 -120q-146 0 -239.5 87 t-123.5 233.5t-1 333.5zM225 582q-18 -149 2.5 -257.5t84 -170.5t165.5 -62q141 0 229.5 90.5t112.5 241.5q24 156 -41 237.5t-190 81.5q-188 0 -363 -161z" />
<glyph unicode="7" horiz-adv-x="843" d="M152 1276l20 117h770l-16 -109l-639 -1284h-125l635 1276h-645z" />
<glyph unicode="8" horiz-adv-x="1050" d="M63 365q39 237 306 403q-83 57 -122 131.5t-20 181.5q10 63 41.5 121.5t83.5 106.5t131.5 77t173.5 29q179 0 278 -106t75 -254q-14 -98 -85 -192.5t-180 -172.5q53 -30 90 -60t68 -72.5t41.5 -98t-0.5 -123.5q-11 -67 -43.5 -128t-89 -114.5t-147.5 -85t-205 -31.5 q-107 0 -190.5 31.5t-131.5 85.5t-67.5 124t-6.5 147zM182 356q-18 -118 54.5 -191t220.5 -73q159 0 254.5 71.5t113.5 184.5q8 51 -5 94.5t-31 70.5t-67 59.5t-75 46t-92 44.5q-63 30 -94 46q-246 -150 -279 -353zM344 1071q-10 -62 5 -110t66.5 -88t84 -58.5t114.5 -56.5 q23 -11 35 -17q211 142 242 324q15 103 -48.5 170.5t-185.5 67.5q-127 0 -212 -67t-101 -165z" />
<glyph unicode="9" horiz-adv-x="1015" d="M90 47l16 111q106 -68 232 -68q361 0 477 520q3 9 8 29.5t8 30.5q-165 -133 -350 -133q-75 0 -141 26.5t-117.5 78t-74.5 138t-7 195.5q31 200 154 320t311 120q150 0 243 -87.5t121 -232.5t-1 -333q-61 -395 -226.5 -590t-406.5 -195q-139 0 -246 70zM260 969 q-24 -155 42 -237.5t192 -82.5q183 0 362 162q26 227 -37.5 358t-214.5 131q-142 0 -231 -90t-113 -241z" />
<glyph unicode=":" horiz-adv-x="389" d="M49 74q4 35 28.5 54t57.5 19q36 0 58 -24.5t16 -65.5q-6 -35 -30.5 -54t-57.5 -19q-36 0 -57.5 24.5t-14.5 65.5zM166 819q6 35 30.5 54.5t55.5 19.5q37 0 59 -24.5t15 -65.5q-6 -35 -30.5 -54.5t-55.5 -19.5q-37 0 -58.5 24.5t-15.5 65.5z" />
<glyph unicode=";" horiz-adv-x="372" d="M-31 -301l107 459h123l-136 -459h-94zM172 899q6 35 30.5 54.5t55.5 19.5q37 0 58.5 -24.5t15.5 -65.5q-6 -35 -30.5 -54.5t-55.5 -19.5q-37 0 -59 24.5t-15 65.5z" />
<glyph unicode="&#x3c;" horiz-adv-x="806" d="M86 659l18 115l674 322l-20 -125l-551 -258l469 -260l-17 -115z" />
<glyph unicode="=" horiz-adv-x="884" d="M113 475l18 111h647l-16 -111h-649zM172 848l18 110h648l-17 -110h-649z" />
<glyph unicode="&#x3e;" horiz-adv-x="802" d="M96 338l21 129l551 258l-469 258l16 113l573 -322l-18 -115z" />
<glyph unicode="?" horiz-adv-x="806" d="M168 1221l20 129q156 106 347 106q156 0 244.5 -94.5t66.5 -231.5q-10 -62 -36.5 -121t-61 -106.5t-74.5 -93.5t-80 -90.5t-74.5 -89t-59.5 -97t-34 -106.5h-115q14 87 57.5 167.5t97.5 142t108 121t96 129.5t53 142q15 94 -41 153.5t-168 59.5q-185 0 -346 -120zM229 74 q4 35 28.5 54t57.5 19q36 0 58 -24.5t16 -65.5q-6 -35 -30.5 -54t-57.5 -19q-36 0 -57.5 24.5t-14.5 65.5z" />
<glyph unicode="@" horiz-adv-x="1771" d="M78 500q24 150 78 288.5t140.5 260.5t196.5 212.5t254.5 142.5t305.5 52q178 0 315.5 -72.5t217 -195.5t109 -285t1.5 -342q-44 -274 -140.5 -408.5t-267.5 -134.5q-105 0 -159 52t-60 143q-113 -150 -272 -150q-149 0 -222.5 118.5t-44.5 312.5q31 192 132.5 304.5 t250.5 112.5q76 0 135 -39t87 -108l20 129h115l-90 -561q-16 -107 8.5 -159t107.5 -52q216 0 283 450q18 106 12 204.5t-28.5 184t-69 155.5t-109.5 120.5t-151 78t-193 27.5q-136 0 -259.5 -45.5t-219 -124.5t-171 -186t-123.5 -230.5t-70 -256.5q-64 -403 104 -629.5 t516 -226.5q209 0 430 75l-18 -118q-200 -72 -422 -72q-188 0 -338.5 64t-250.5 185t-138 307t-2 417zM645 485q-23 -145 23.5 -230t146.5 -85q147 0 250 156l53 327q-52 152 -188 152q-106 0 -183.5 -85t-101.5 -235z" />
<glyph unicode="A" horiz-adv-x="1118" d="M-63 0l708 1434h133l254 -1434h-121l-65 383h-592l-191 -383h-126zM307 496h520l-110 632q-4 24 -8 51.5t-8 61t-7 53.5q-40 -93 -76 -170z" />
<glyph unicode="B" horiz-adv-x="1114" d="M78 0l227 1434h397q192 0 298 -96q83 -76 83 -204q0 -34 -6 -71q-20 -127 -94.5 -209t-167.5 -109q34 -7 65.5 -23t64.5 -44.5t53.5 -69t30.5 -96.5q4 -25 4 -53q0 -36 -7 -76q-62 -383 -543 -383h-405zM219 117h256q51 0 90.5 3t88.5 12.5t86.5 29.5t72.5 50t58.5 79 t33.5 112q5 32 5 61q0 34 -8 64q-14 54 -41.5 83.5t-71 47.5t-82.5 23.5t-84 5.5h-314zM328 803h313q120 0 206 64.5t107 189.5q6 34 6 63q0 86 -54 134q-72 62 -212 63h-286z" />
<glyph unicode="C" d="M105 399q-9 58 -9 125q0 91 17 197q29 173 94 313t154.5 232t200 141t231.5 49q153 0 262 -74l-19 -106q-95 65 -231 65q-211 0 -365 -162.5t-204 -465.5q-17 -100 -17 -186q1 -163 63 -271q94 -164 296 -164q150 0 294 72l-20 -119q-133 -68 -283 -68q-122 0 -218.5 48 t-160.5 141.5t-85 232.5z" />
<glyph unicode="D" horiz-adv-x="1165" d="M78 0l227 1434h332q122 0 216 -35.5t152.5 -99.5t92.5 -154t36 -200v-22q0 -100 -16 -214q-20 -129 -52.5 -232t-88 -194t-131.5 -152t-185 -96t-245 -35h-338zM219 117h209q252 0 386 149.5t181 450.5q16 104 16 190q0 161 -56 259q-87 152 -332 151h-215z" />
<glyph unicode="E" horiz-adv-x="970" d="M78 0l227 1434h735l-18 -117h-612l-86 -537h553l-19 -116h-553l-86 -547h629l-19 -117h-751z" />
<glyph unicode="F" horiz-adv-x="950" d="M78 0l227 1434h744l-19 -117h-622l-89 -559h564l-19 -117h-563l-102 -641h-121z" />
<glyph unicode="G" horiz-adv-x="1101" d="M102 440q-4 38 -4 79q0 94 19 206q27 174 93.5 314t159 230.5t206 138.5t237.5 48q190 0 295 -76l-18 -114q-112 75 -271 75q-214 0 -373.5 -164t-205.5 -460q-15 -109 -15 -197q0 -49 5 -92q13 -119 64.5 -193.5t122 -108.5t161.5 -34q77 0 135.5 15t120.5 51l94 598 h121l-107 -670q-153 -109 -377 -109q-92 0 -169 26t-141.5 81.5t-102.5 143.5t-50 212z" />
<glyph unicode="H" horiz-adv-x="1220" d="M78 0l227 1434h121l-102 -656h663l105 656h120l-227 -1434h-121l105 662h-666l-104 -662h-121z" />
<glyph unicode="I" horiz-adv-x="434" d="M78 0l227 1434h121l-227 -1434h-121z" />
<glyph unicode="J" horiz-adv-x="831" d="M-31 35l19 115q111 -58 248 -58q122 0 205.5 71t103.5 199l151 955h-336l19 117h457l-170 -1084q-30 -186 -145.5 -279.5t-284.5 -93.5q-148 0 -267 58z" />
<glyph unicode="K" horiz-adv-x="1071" d="M78 0l227 1434h121l-100 -643h184l541 643h149l-590 -705l383 -729h-133l-354 676h-201l-106 -676h-121z" />
<glyph unicode="L" horiz-adv-x="919" d="M78 0l227 1434h121l-207 -1317h623l-21 -117h-743z" />
<glyph unicode="M" horiz-adv-x="1433" d="M78 0l227 1434h119l299 -865l565 865h139l-227 -1434h-121l140 883q34 216 63 336l-551 -840h-59l-291 840q-12 -140 -43 -345l-139 -874h-121z" />
<glyph unicode="N" horiz-adv-x="1220" d="M78 0l227 1434h111l493 -1213q11 132 43 330l140 883h120l-227 -1434h-111l-493 1212q-9 -114 -41 -327l-141 -885h-121z" />
<glyph unicode="O" horiz-adv-x="1198" d="M117 725q56 349 217.5 540t413.5 191q244 0 352 -198q72 -131 71 -330q0 -101 -18 -219q-57 -353 -212.5 -542.5t-410.5 -189.5q-246 1 -357 199q-74 133 -74 333q0 100 18 216zM240 717q-18 -118 -18 -214q0 -153 46 -251q74 -160 262 -160q195 0 324 160.5t176 464.5 q18 118 18 214q0 152 -46 250q-74 160 -263 160q-195 0 -322 -159.5t-177 -464.5z" />
<glyph unicode="P" horiz-adv-x="1067" d="M78 0l227 1434h371q95 0 175.5 -29.5t140 -85t85.5 -145.5q15 -53 15 -114q0 -42 -7 -89q-35 -224 -176.5 -336.5t-371.5 -112.5h-254l-84 -522h-121zM301 639h254q166 0 273.5 87t134.5 253q6 39 6 74q1 109 -61 176q-82 88 -240 88h-260z" />
<glyph unicode="Q" horiz-adv-x="1198" d="M117 725q56 349 217.5 540t413.5 191q243 0 352 -198q72 -131 72 -330q0 -101 -19 -219q-64 -395 -244 -578l97 -168l-99 -63l-90 157q-129 -80 -287 -80q-246 0 -357 199q-74 132 -74 333q0 100 18 216zM240 717q-18 -118 -18 -214q0 -152 46 -251q74 -160 262 -160 q125 0 228 70l-150 260l99 63l137 -239q136 157 186 471q18 118 18 214q0 152 -46 250q-74 160 -263 160q-195 0 -322 -159.5t-177 -464.5z" />
<glyph unicode="R" horiz-adv-x="1122" d="M78 0l227 1434h424q89 0 164.5 -28t130 -81t78.5 -137q14 -51 14 -109q0 -38 -6 -80q-25 -158 -122 -263t-253 -140l277 -596h-131l-267 580h-34h-289l-92 -580h-121zM311 694h295q148 0 253 82t128 232q6 37 6 69q0 99 -55 159q-73 80 -217 81h-313z" />
<glyph unicode="S" horiz-adv-x="964" d="M25 78l20 117q82 -55 166.5 -79t191.5 -24q150 0 248.5 66t118.5 184q3 22 3 42q1 52 -21 95q-30 60 -88 100.5t-130 76.5t-143 76t-127.5 88t-84.5 123q-18 49 -18 107q0 31 5 64q18 114 89.5 193.5t169 114t214.5 34.5q186 0 332 -94l-19 -115q-140 94 -311 94 q-146 0 -241 -59.5t-113 -173.5q-3 -20 -3 -39q0 -36 11 -68q17 -49 54 -84.5t86.5 -67.5t105 -61t111.5 -59.5t104.5 -69t83.5 -83.5t50 -108q8 -35 8 -74q0 -31 -5 -64q-19 -118 -88.5 -198.5t-170.5 -117.5t-228 -37q-118 0 -209 23.5t-172 77.5z" />
<glyph unicode="T" horiz-adv-x="960" d="M152 1317l18 117h915l-18 -117h-397l-209 -1317h-121l209 1317h-397z" />
<glyph unicode="U" horiz-adv-x="1193" d="M135 434l158 1000h121l-158 -1002q-8 -49 -8 -91q0 -249 280 -249q163 0 265 85.5t129 262.5l157 994h121l-160 -1008q-19 -122 -66 -210.5t-117.5 -139.5t-153 -75t-181.5 -24q-97 0 -173.5 26t-132.5 79.5t-78 143.5q-12 48 -12 104q0 49 9 104z" />
<glyph unicode="V" horiz-adv-x="1091" d="M160 1434h119l180 -1125q16 -106 22 -172q50 133 68 172l541 1125h135l-693 -1434h-135z" />
<glyph unicode="W" horiz-adv-x="1613" d="M172 1434h121l82 -1248l532 1221h78l143 -1221l480 1248h129l-563 -1434h-125l-138 1151l-503 -1151h-127z" />
<glyph unicode="X" horiz-adv-x="1050" d="M-78 0l582 748l-322 686h119l277 -588l458 588h138l-543 -701l342 -733h-121l-297 635l-494 -635h-139z" />
<glyph unicode="Y" horiz-adv-x="1069" d="M158 1434h118l285 -711l500 711h141l-592 -824l-98 -610h-121l98 610z" />
<glyph unicode="Z" horiz-adv-x="927" d="M-41 0l16 106l881 1211h-661l20 117h805l-14 -107l-883 -1210h706l-18 -117h-852z" />
<glyph unicode="[" horiz-adv-x="536" d="M18 -328l299 1884h340l-20 -116h-217l-264 -1651h219l-17 -117h-340z" />
<glyph unicode="\" horiz-adv-x="671" d="M215 1552h82l229 -1671h-80z" />
<glyph unicode="]" horiz-adv-x="536" d="M-82 -328l21 117h217l264 1651h-219l16 116h340l-299 -1884h-340z" />
<glyph unicode="^" horiz-adv-x="884" d="M115 784l430 650h102l225 -650h-118l-172 510l-336 -510h-131z" />
<glyph unicode="_" horiz-adv-x="772" d="M-123 -287l17 111h772l-19 -111h-770z" />
<glyph unicode="`" horiz-adv-x="444" d="M279 1860h131l147 -277h-115z" />
<glyph unicode="a" d="M76 500q17 109 53.5 199.5t91.5 160t132 108t169 38.5q105 0 173.5 -51t99.5 -136l24 164h107l-156 -983h-106l26 156q-122 -179 -311 -179q-121 0 -198.5 70.5t-102.5 186.5q-13 61 -13 131q0 64 11 135zM193 492q-11 -68 -11 -126q0 -101 32 -171q50 -111 183 -111 q189 0 303 211l64 397q-22 98 -81.5 152.5t-143.5 54.5q-141 0 -228 -109t-118 -298z" />
<glyph unicode="b" d="M47 0l227 1434h117l-94 -588q50 70 126 115t175 45q120 0 196.5 -70t101.5 -188q13 -60 13 -127q0 -65 -12 -138q-23 -147 -78 -258t-151 -179.5t-222 -68.5q-105 0 -171 52t-97 135l-24 -164h-107zM209 291q51 -207 227 -207q141 0 227 109.5t117 300.5q11 69 11 127 q1 99 -31 169q-50 110 -185 109q-184 0 -303 -213z" />
<glyph unicode="c" horiz-adv-x="778" d="M74 500q37 233 170 369.5t331 136.5q122 0 211 -56l-16 -104q-76 53 -186 53q-155 0 -257.5 -109t-133.5 -298q-9 -59 -8 -110q1 -114 43 -188q62 -108 212 -108q124 0 228 55l-17 -112q-102 -52 -221 -52q-201 1 -297 143q-69 103 -69 255q0 59 10 125z" />
<glyph unicode="d" d="M76 500q17 109 53.5 199.5t91 160t131.5 108t168 38.5q104 0 171 -48.5t95 -121.5l95 598h116l-227 -1434h-106l24 156q-113 -179 -307 -179q-123 0 -201 70.5t-102 186.5q-13 60 -13 129q0 65 11 137zM182 330q6 -75 28.5 -129.5t70 -85.5t116.5 -31q185 0 303 211 l64 397q-22 97 -82.5 152t-149.5 55q-135 0 -222 -108.5t-117 -298.5q-12 -65 -12 -123q0 -20 1 -39z" />
<glyph unicode="e" horiz-adv-x="897" d="M74 500q37 233 165.5 369.5t309.5 136.5q128 0 206.5 -76t92.5 -203q4 -34 4 -70q0 -101 -29 -223h-639q-2 -26 -2 -51q0 -138 63 -211q74 -86 224 -86q134 0 250 55l-19 -112q-112 -52 -241 -52q-220 0 -321 141q-74 103 -74 260q0 57 10 122zM201 537h528q12 66 12 122 q1 83 -27 140q-46 96 -169 96q-63 0 -117.5 -25.5t-91 -63t-65.5 -88t-44.5 -94t-25.5 -87.5z" />
<glyph unicode="f" horiz-adv-x="557" d="M88 879l16 104h144l28 184q24 143 106.5 216t201.5 73q93 0 159 -37l-16 -102q-58 33 -127 33q-82 0 -138 -46.5t-69 -136.5l-28 -184h253l-16 -104h-254l-139 -879h-117l139 879h-143z" />
<glyph unicode="g" horiz-adv-x="970" d="M16 -418l19 107q99 -54 235 -54q159 0 255.5 84.5t121.5 237.5l29 184q-110 -164 -297 -164q-121 0 -198 70t-103 187q-13 62 -13 132q0 64 11 134q36 225 152.5 365.5t297.5 140.5q198 0 269 -189l24 166h107l-164 -1034q-33 -196 -154 -309t-338 -113q-152 0 -254 55z M190 279q13 -90 66 -142.5t141 -52.5q183 0 303 209l64 399q-20 98 -79 152.5t-146 54.5q-136 0 -225 -110.5t-119 -299.5q-10 -69 -10 -128q0 -44 5 -82z" />
<glyph unicode="h" horiz-adv-x="946" d="M47 0l227 1434h117l-92 -576q112 148 301 148q132 0 206 -94q55 -71 55 -176q0 -34 -5 -72l-104 -664h-117l104 666q5 33 5 62q0 72 -34 113q-48 58 -143 58q-91 0 -170.5 -62t-124.5 -151l-108 -686h-117z" />
<glyph unicode="i" horiz-adv-x="376" d="M53 0l156 983h115l-156 -983h-115zM236 1288q6 34 29 53t54 19q35 0 57 -24q18 -20 18 -50q0 -6 -1 -12q-6 -35 -30 -52.5t-56 -17.5q-37 0 -57 22q-16 17 -15 45q0 8 1 17z" />
<glyph unicode="j" horiz-adv-x="387" d="M-231 -455l16 105q43 -17 90 -17q132 0 158 174l186 1176h117l-193 -1208q-41 -248 -252 -248q-75 0 -122 18zM246 1288q4 34 28.5 53t55.5 19q36 0 58 -24q16 -18 16 -46q0 -7 -1 -16q-6 -35 -30 -52.5t-56 -17.5q-36 0 -57 22q-16 17 -16 44q0 8 2 18z" />
<glyph unicode="k" horiz-adv-x="849" d="M47 0l227 1434h117l-139 -877h149l365 426h143l-413 -487l274 -496h-133l-244 449h-157l-72 -449h-117z" />
<glyph unicode="l" horiz-adv-x="376" d="M53 0l238 1495h115l-238 -1495h-115z" />
<glyph unicode="m" horiz-adv-x="1437" d="M47 0l156 983h106l-20 -127q116 150 280 150q86 0 143 -41.5t79 -114.5q132 156 307 156q140 0 208 -94q50 -69 50 -168q0 -35 -6 -74l-107 -670h-117l107 672q6 36 6 66q0 64 -27 104q-40 58 -133 57q-148 0 -264 -180q0 -22 -6 -49l-107 -670h-114l106 672q5 35 5 65 q1 65 -25 105q-38 58 -127 57q-82 0 -151 -50t-120 -134l-112 -715h-117z" />
<glyph unicode="n" horiz-adv-x="946" d="M47 0l156 983h106l-22 -137q53 74 133.5 117t179.5 43q134 0 207 -94q55 -71 55 -176q0 -34 -6 -72l-104 -664h-117l104 666q5 33 5 61q0 71 -34 113q-48 58 -141 58.5t-172.5 -61.5t-124.5 -151l-108 -686h-117z" />
<glyph unicode="o" horiz-adv-x="948" d="M76 500q39 239 161 372.5t308 133.5q189 0 277 -138q61 -96 61 -246q0 -65 -11 -139q-39 -242 -157.5 -374t-311.5 -132q-189 1 -277 139q-61 97 -62 245q0 65 12 139zM193 483q-11 -70 -12 -127q-1 -102 35 -168q54 -102 187 -102q140 0 231 106.5t122 307.5 q11 68 11 126q0 104 -36 170q-56 104 -186 103q-138 0 -229 -107.5t-123 -308.5z" />
<glyph unicode="p" d="M-25 -451l228 1434h106l-24 -156q113 179 307 179q123 0 201 -70.5t103 -187.5q12 -60 12 -128q0 -65 -11 -137q-17 -109 -53.5 -199.5t-91 -160t-131.5 -108t-168 -38.5q-104 0 -171.5 48.5t-95.5 121.5l-94 -598h-117zM209 291q22 -98 82 -152.5t149 -54.5 q135 0 222.5 109t117.5 299q11 68 11 126q0 99 -31 170q-50 111 -185 111q-185 0 -303 -211z" />
<glyph unicode="q" d="M76 500q17 109 53 199.5t91 160t133 108t173 38.5q105 0 171.5 -52t97.5 -135l24 164h107l-228 -1434h-116l94 588q-50 -70 -126 -115t-175 -45q-120 0 -196.5 70t-101.5 187q-13 60 -13 128q0 66 12 138zM193 489q-11 -69 -11 -128q0 -99 31 -167q49 -110 184 -110 q184 0 303 213l64 395q-51 207 -227 207q-141 0 -227 -109.5t-117 -300.5z" />
<glyph unicode="r" horiz-adv-x="606" d="M47 0l156 983h106l-30 -186q113 207 364 207h23l-21 -117q-14 1 -27 1q-109 0 -198 -64q-100 -72 -160 -228l-96 -596h-117z" />
<glyph unicode="s" horiz-adv-x="772" d="M6 55l19 111q113 -82 282 -82q107 0 175 38t81 116q2 13 2 25q0 35 -17 63q-23 38 -65.5 64.5t-95 51t-105 52.5t-93.5 62t-62 88q-14 35 -14 77q0 22 4 45q18 115 114.5 177.5t233.5 62.5q152 0 266 -68l-18 -109q-106 72 -242 72q-96 0 -162.5 -39.5t-79.5 -113.5 q-2 -12 -2 -24q-1 -36 17 -64q24 -38 66.5 -64t95.5 -50t105 -51.5t93 -61.5q42 -35 62 -89q13 -35 14 -77q0 -22 -4 -46q-14 -85 -69 -141.5t-129.5 -79.5t-168.5 -23q-193 0 -303 78z" />
<glyph unicode="t" horiz-adv-x="591" d="M82 879l14 104h150l43 264l121 27l-48 -291h271l-15 -104h-272l-100 -623q-4 -29 -4 -52q0 -51 19 -79q28 -41 97 -41q66 2 142 33l-17 -111q-73 -29 -143 -29h-7q-110 0 -167 66q-43 50 -43 135q0 32 6 68l100 633h-147z" />
<glyph unicode="u" horiz-adv-x="946" d="M90 319l105 664h116l-104 -666q-5 -33 -5 -61q0 -72 34 -114q48 -58 141 -58t172.5 62t124.5 151l108 686h117l-156 -983h-106l22 137q-53 -74 -133.5 -117t-179.5 -43q-134 1 -207 95q-55 71 -55 175q0 34 6 72z" />
<glyph unicode="v" horiz-adv-x="860" d="M102 983h119l129 -721q15 -99 17 -139q25 76 57 139l356 721h133l-499 -983h-123z" />
<glyph unicode="w" horiz-adv-x="1306" d="M106 983h115l84 -823l367 809h100l111 -805l340 819h131l-428 -983h-119l-107 788l-356 -788h-119z" />
<glyph unicode="x" horiz-adv-x="833" d="M-66 0l422 510l-241 473h116l181 -352q9 -16 16 -33q3 5 23 33l282 352h146l-396 -479l258 -504h-123l-186 373q-6 13 -20 49q-12 -21 -33 -45l-307 -377h-138z" />
<glyph unicode="y" horiz-adv-x="882" d="M-31 -451l17 105q16 -2 32 -2q60 0 111 33q44 30 81 88t120 223l-236 987h119l190 -840l398 840h133l-557 -1139q-91 -190 -195 -256q-69 -43 -158 -43q-26 0 -55 4z" />
<glyph unicode="z" horiz-adv-x="753" d="M-33 0l17 100l626 779h-479l16 104h619l-16 -100l-627 -779h524l-16 -104h-664z" />
<glyph unicode="{" horiz-adv-x="530" d="M45 557l18 115q29 0 50.5 2.5t46 12.5t42 27.5t31.5 49t21 74.5l82 508q40 263 307 208l-16 -114q-85 17 -126 -19.5t-55 -130.5l-69 -454q-32 -194 -156 -224q114 -43 84 -227l-76 -471q-12 -83 16 -111.5t117 -15.5l-16 -117q-139 -23 -200 36.5t-42 184.5l80 508 q8 51 0.5 84t-30.5 48.5t-48 20.5t-61 5z" />
<glyph unicode="|" horiz-adv-x="417" d="M39 -205l295 1864h121l-295 -1864h-121z" />
<glyph unicode="}" horiz-adv-x="530" d="M-74 -326l17 115q85 -17 125.5 19.5t54.5 130.5l70 454q32 193 155 223q-114 43 -84 228l76 471q12 83 -16 111.5t-117 15.5l16 117q139 23 200 -37t42 -185l-80 -508q-8 -51 -0.5 -84t30.5 -48t47.5 -20t61.5 -5l-18 -115q-29 0 -50.5 -2.5t-46 -12.5t-42 -27.5 t-31.5 -49t-21 -74.5l-82 -508q-40 -264 -307 -209z" />
<glyph unicode="~" horiz-adv-x="905" d="M139 612q7 104 57 160.5t128 56.5q53 0 113.5 -29.5t115.5 -59t94 -29.5q83 0 98 106h95q-6 -101 -55.5 -158t-129.5 -57q-39 0 -87 18.5t-85 41t-79 41t-72 18.5q-41 0 -66 -28.5t-33 -80.5h-94z" />
<glyph unicode="&#xa2;" horiz-adv-x="811" d="M80 500q34 214 149 346.5t289 154.5l33 207h102l-32 -204q101 -6 172 -54l-17 -104q-79 53 -186 53q-155 0 -257.5 -109t-133.5 -298q-30 -190 33 -298t214 -108q124 0 228 55l-19 -112q-88 -46 -198 -52l-31 -202h-102l32 211q-164 28 -237 164.5t-39 349.5z" />
<glyph unicode="&#xa3;" horiz-adv-x="999" d="M-12 0l18 117h37q66 0 109 49.5t57 136.5q23 132 51 315h-143l18 115h141l46 277q16 105 57 184t99.5 126.5t128.5 71t151 23.5q152 0 256 -78l-21 -110q-49 40 -100.5 58t-124.5 18q-135 0 -218.5 -80t-107.5 -224l-43 -266h451l-19 -115h-450l-51 -323 q-20 -135 -101 -178h652l-19 -117h-874z" />
<glyph unicode="&#xa5;" horiz-adv-x="1077" d="M158 293l16 102h287l22 152h-284l14 102h268l-288 744h126l248 -670l457 670h143l-526 -744h268l-14 -102h-289l-24 -152h288l-16 -102h-289l-47 -293h-121l47 293h-286z" />
<glyph unicode="&#xa8;" horiz-adv-x="630" d="M256 1720q5 31 31.5 54.5t58.5 23.5q38 0 61 -28t17 -64q-6 -33 -32.5 -55.5t-59.5 -22.5q-37 0 -59.5 27.5t-16.5 64.5zM592 1720q6 31 33 54.5t59 23.5q38 0 61 -28t17 -64q-6 -32 -33 -55t-59 -23q-37 0 -60.5 27.5t-17.5 64.5z" />
<glyph unicode="&#xa9;" horiz-adv-x="1411" d="M121 725q34 220 139 386.5t258.5 255.5t333.5 89q281 0 423 -203.5t87 -543.5q-52 -333 -253.5 -532.5t-479.5 -199.5q-281 0 -422 204t-86 544zM170 717q-51 -316 74 -504t385 -188t447.5 189.5t234.5 502.5q51 316 -74 504t-385 188q-258 0 -445.5 -189.5 t-236.5 -502.5zM455 725q29 186 136.5 295.5t262.5 109.5q103 0 168 -40l-14 -84q-58 34 -146 34q-120 0 -203 -86.5t-108 -238.5q-25 -151 26 -235.5t171 -84.5q96 0 178 37l-15 -90q-70 -39 -172 -39q-164 0 -239.5 114t-44.5 308z" />
<glyph unicode="&#xab;" horiz-adv-x="800" d="M70 479v25l264 350h131l-281 -369l156 -356h-119zM379 479v25l264 350h131l-278 -369l153 -356h-117z" />
<glyph unicode="&#xad;" horiz-adv-x="770" d="M100 449l17 110h557l-19 -110h-555z" />
<glyph unicode="&#xae;" horiz-adv-x="1411" d="M121 725q34 220 139 386.5t258.5 255.5t333.5 89q281 0 423 -203.5t87 -543.5q-52 -333 -253.5 -532.5t-479.5 -199.5q-281 0 -422 204t-86 544zM170 717q-51 -316 74 -504t385 -188t447.5 189.5t234.5 502.5q51 316 -74 504t-385 188q-258 0 -445.5 -189.5 t-236.5 -502.5zM471 315l127 805h250q108 0 168 -71t41 -179q-12 -89 -63.5 -149t-135.5 -82l148 -324h-93l-139 312h-166l-49 -312h-88zM621 713h165q74 0 124 44.5t63 123.5q10 73 -26.5 114t-110.5 41h-164z" />
<glyph unicode="&#xb4;" horiz-adv-x="448" d="M236 1583l219 277h149l-248 -277h-120z" />
<glyph unicode="&#xb8;" horiz-adv-x="499" d="M-88 -446l16 94q65 -27 135 -27q65 0 105 24.5t47 69.5q7 51 -48.5 67.5t-129.5 -3.5l82 221h100l-51 -143q43 1 77.5 -13.5t55.5 -50.5t14 -90q-13 -85 -81.5 -130.5t-163.5 -45.5q-89 0 -158 27z" />
<glyph unicode="&#xbb;" horiz-adv-x="800" d="M27 129l278 369l-153 356h116l154 -350v-25l-264 -350h-131zM336 129l280 369l-155 356h119l151 -350v-25l-264 -350h-131z" />
<glyph unicode="&#x2c6;" horiz-adv-x="653" d="M236 1585l256 264h102l172 -264h-123l-111 164l-163 -164h-133z" />
<glyph unicode="&#x2da;" horiz-adv-x="524" d="M260 1743q13 88 75 141t148 53q89 0 139 -57t35 -151q-15 -88 -77 -141.5t-148 -53.5q-89 0 -138 57.5t-34 151.5zM348 1731q-9 -51 17 -83t71 -32q52 0 88 34t45 91q7 52 -18 83t-72 31q-53 0 -88.5 -33t-42.5 -91z" />
<glyph unicode="&#x2dc;" horiz-adv-x="638" d="M240 1595q4 90 46.5 138.5t108.5 48.5q46 0 91 -23t81 -46t58 -23q58 0 65 84h88q-4 -91 -46 -140t-107 -49q-35 0 -71.5 14.5t-61 32.5t-52 32.5t-47.5 14.5q-57 0 -67 -84h-86z" />
<glyph unicode="&#x401;" horiz-adv-x="970" d="M78 0l227 1434h735l-18 -117h-612l-86 -537h553l-19 -116h-553l-86 -547h629l-19 -117h-751zM463 1720q5 31 31.5 54.5t58.5 23.5q38 0 61 -28t17 -64q-6 -33 -32.5 -55.5t-59.5 -22.5q-37 0 -59.5 27.5t-16.5 64.5zM799 1720q6 31 33 54.5t59 23.5q38 0 61 -28t17 -64 q-6 -32 -33 -55t-59 -23q-37 0 -60.5 27.5t-17.5 64.5z" />
<glyph unicode="&#x402;" horiz-adv-x="1169" d="M147 1317l21 117h913l-18 -117h-430l-66 -412q138 101 291 101q138 0 212 -92t50 -244l-71 -445q-18 -123 -84.5 -185.5t-167.5 -62.5q-62 0 -123 21l18 108q41 -16 90 -16q125 0 152 164l63 410q19 113 -25 170t-145 57q-142 0 -282 -133l-121 -758h-121l207 1317h-363z " />
<glyph unicode="&#x403;" horiz-adv-x="923" d="M78 0l227 1434h744l-19 -117h-622l-209 -1317h-121zM569 1583l222 277h147l-246 -277h-123z" />
<glyph unicode="&#x404;" d="M105 390.5q-19 138.5 10 324.5q56 348 239.5 544.5t436.5 196.5q153 0 266 -74l-17 -106q-103 65 -237 65q-205 0 -350 -146t-203 -421h479l-18 -115h-482q-35 -276 53.5 -421.5t286.5 -145.5q161 0 305 72l-18 -119q-133 -68 -295 -68q-122 0 -217 45.5t-157.5 137.5 t-81.5 230.5z" />
<glyph unicode="&#x405;" horiz-adv-x="964" d="M25 78l20 117q82 -55 166.5 -79t191.5 -24q150 0 248.5 66t118.5 184q12 77 -18.5 137t-88 100.5t-129.5 76.5t-143 76t-127.5 88t-84.5 123t-13 171q18 114 89.5 193.5t169 114t214.5 34.5q186 0 332 -94l-19 -115q-140 94 -311 94q-146 0 -241 -59.5t-113 -173.5 q-9 -58 8 -107t54 -84.5t86.5 -67.5t105 -61t111.5 -59.5t104.5 -69t83.5 -83.5t50 -108t3 -138q-19 -118 -88.5 -198.5t-170.5 -117.5t-228 -37q-118 0 -209 23.5t-172 77.5z" />
<glyph unicode="&#x406;" horiz-adv-x="434" d="M78 0l227 1434h121l-227 -1434h-121z" />
<glyph unicode="&#x407;" horiz-adv-x="434" d="M78 0l227 1434h121l-227 -1434h-121zM158 1720q5 31 31.5 54.5t58.5 23.5q38 0 61 -28t17 -64q-6 -33 -33 -55.5t-60 -22.5q-37 0 -59 27.5t-16 64.5zM494 1720q6 31 33 54.5t59 23.5q38 0 61 -28t17 -64q-6 -32 -33.5 -55t-59.5 -23q-37 0 -60 27.5t-17 64.5z" />
<glyph unicode="&#x408;" horiz-adv-x="831" d="M-31 35l19 115q111 -58 248 -58q122 0 205.5 71t103.5 199l151 955h-336l19 117h457l-170 -1084q-30 -186 -145.5 -279.5t-284.5 -93.5q-148 0 -267 58z" />
<glyph unicode="&#x409;" horiz-adv-x="1824" d="M-82 2l16 102q60 -17 117.5 1t100.5 67q47 50 87 139t89 285t75.5 317t94.5 454q9 44 14 67h705l-97 -619h260q91 0 167 -26.5t130.5 -77.5t78 -131.5t7.5 -180.5q-64 -397 -508 -397l-387 -2l209 1317h-469q-108 -535 -152 -711q-97 -379 -211 -511q-11 -12 -22 -23 q-120 -117 -305 -70zM1010 117h266q152 0 247.5 75t118.5 218q23 137 -48.5 212.5t-221.5 75.5h-272z" />
<glyph unicode="&#x40a;" horiz-adv-x="1779" d="M78 0l227 1434h121l-96 -619h622l99 619h120l-96 -619h260q91 0 167 -26.5t130.5 -77.5t78 -131.5t7.5 -180.5q-64 -397 -508 -397l-387 -2l111 698h-625l-110 -698h-121zM965 117h266q152 0 247.5 75t118.5 218q23 137 -48.5 212.5t-221.5 75.5h-272z" />
<glyph unicode="&#x40b;" horiz-adv-x="1173" d="M147 1317l21 117h913l-18 -117h-430l-66 -412q138 101 291 101q138 0 212 -92t50 -244l-106 -670h-121l104 664q19 113 -25 170t-145 57q-142 0 -282 -133l-121 -758h-121l207 1317h-363z" />
<glyph unicode="&#x40c;" horiz-adv-x="1071" d="M78 0l227 1434h121l-100 -643h184l541 643h149l-590 -705l383 -729h-133l-354 676h-201l-106 -676h-121zM623 1583l221 277h147l-246 -277h-122z" />
<glyph unicode="&#x40e;" horiz-adv-x="1015" d="M61 2l19 111q80 -26 143 -13q71 10 121.5 65.5t116.5 174.5l-314 1094h119l269 -959l487 959h137l-596 -1147q-84 -160 -160.5 -226.5t-169.5 -74.5q-95 -11 -172 16zM434 1655l17 102q101 -61 223 -61q131 0 256 67l-19 -112q-109 -66 -241 -66q-141 0 -236 70z" />
<glyph unicode="&#x40f;" horiz-adv-x="1200" d="M78 0l227 1434h121l-207 -1317h643l209 1317h121l-227 -1434h-385l-56 -348h-114l55 348h-387z" />
<glyph unicode="&#x410;" horiz-adv-x="1118" d="M-63 0l708 1434h133l254 -1434h-121l-65 383h-592l-191 -383h-126zM307 496h520l-110 632q-4 24 -8 51.5t-8 61t-7 53.5q-40 -93 -76 -170z" />
<glyph unicode="&#x411;" horiz-adv-x="1097" d="M78 0l227 1434h807l-20 -117h-684l-76 -481h307q202 0 312 -113t79 -313q-32 -200 -166.5 -305t-351.5 -105h-434zM219 117h311q163 0 259.5 77t119.5 224q24 143 -46 222t-230 79h-320z" />
<glyph unicode="&#x412;" horiz-adv-x="1114" d="M78 0l227 1434h397q192 0 297.5 -96.5t77.5 -274.5q-20 -127 -94.5 -209t-167.5 -109q34 -7 65.5 -23t64.5 -44.5t53.5 -69t30.5 -97t-3 -128.5q-62 -383 -543 -383h-405zM219 117h256q51 0 90.5 3t88.5 12.5t86.5 29.5t72.5 50t58.5 79t33.5 112q11 72 -2.5 125.5 t-41.5 83t-71.5 47.5t-82.5 23.5t-84 5.5h-314zM328 803h313q120 0 206 64.5t107 189.5q24 135 -47.5 197.5t-212.5 62.5h-286z" />
<glyph unicode="&#x413;" horiz-adv-x="923" d="M78 0l227 1434h744l-19 -117h-622l-209 -1317h-121z" />
<glyph unicode="&#x414;" horiz-adv-x="1271" d="M-117 -348l74 465h145q208 405 353 1317h768l-209 -1317h153l-73 -465h-115l53 348h-979l-53 -348h-117zM236 117h657l188 1200h-524q-123 -775 -321 -1200z" />
<glyph unicode="&#x415;" horiz-adv-x="970" d="M78 0l227 1434h735l-18 -117h-612l-86 -537h553l-19 -116h-553l-86 -547h629l-19 -117h-751z" />
<glyph unicode="&#x416;" horiz-adv-x="1552" d="M-76 0l565 739l-309 695h127l281 -643h176l102 643h121l-102 -643h157l484 643h149l-534 -703l329 -731h-133l-299 676h-172l-106 -676h-121l106 676h-165l-512 -676h-144z" />
<glyph unicode="&#x417;" horiz-adv-x="976" d="M-25 57l19 117q160 -82 350 -82q55 0 106.5 8t105 29.5t95 54t73 86t42.5 121.5q13 82 -8 143t-65.5 93t-94 46.5t-102.5 14.5h-203l20 115h185q118 0 207.5 73t109.5 197q11 71 -6 124t-56.5 83.5t-92.5 45.5t-121 15q-164 0 -349 -84l19 121q169 78 346 78 q90 0 165.5 -24t130 -70t78.5 -120t9 -167q-19 -124 -93.5 -212.5t-160.5 -117.5q27 -9 54.5 -25t61 -46.5t54 -72t33 -100t-1.5 -130.5q-13 -86 -51.5 -154.5t-90.5 -112.5t-118.5 -73.5t-131.5 -41.5t-133 -12q-220 0 -385 80z" />
<glyph unicode="&#x418;" horiz-adv-x="1220" d="M78 0l227 1434h121l-141 -891q-24 -165 -62 -328l854 1219h135l-227 -1434h-121l142 893q35 215 61 326l-854 -1219h-135z" />
<glyph unicode="&#x419;" horiz-adv-x="1220" d="M78 0l227 1434h121l-141 -891q-24 -165 -62 -328l854 1219h135l-227 -1434h-121l142 893q35 215 61 326l-854 -1219h-135zM543 1645l16 98q100 -68 229 -68q140 0 263 72l-17 -107q-104 -69 -250 -69q-150 0 -241 74z" />
<glyph unicode="&#x41a;" horiz-adv-x="1071" d="M78 0l227 1434h121l-100 -643h184l541 643h149l-590 -705l383 -729h-133l-354 676h-201l-106 -676h-121z" />
<glyph unicode="&#x41b;" horiz-adv-x="1257" d="M-82 2l16 102q60 -17 117.5 1t100.5 67q47 50 87 139t89 285t75.5 317t94.5 454q9 44 14 67h739l-227 -1434h-121l207 1317h-502q-8 -37 -22 -110q-36 -180 -54.5 -268t-50 -229t-55 -217.5t-56.5 -168.5t-68 -149.5t-75 -96.5q-58 -57 -137.5 -77.5t-171.5 1.5z" />
<glyph unicode="&#x41c;" horiz-adv-x="1433" d="M78 0l227 1434h119l299 -865l565 865h139l-227 -1434h-121l140 883q34 216 63 336l-551 -840h-59l-291 840q-12 -140 -43 -345l-139 -874h-121z" />
<glyph unicode="&#x41d;" horiz-adv-x="1220" d="M78 0l227 1434h121l-102 -656h663l105 656h120l-227 -1434h-121l105 662h-666l-104 -662h-121z" />
<glyph unicode="&#x41e;" horiz-adv-x="1198" d="M117 725q56 349 217.5 540t413.5 191q243 0 351.5 -198t53.5 -549q-57 -353 -212.5 -542.5t-410.5 -189.5q-246 0 -357 198.5t-56 549.5zM240 717q-47 -304 27.5 -464.5t262.5 -160.5q195 0 324 160.5t176 464.5t-27.5 464t-263.5 160q-195 0 -322 -159.5t-177 -464.5z " />
<glyph unicode="&#x41f;" horiz-adv-x="1220" d="M78 0l227 1434h907l-227 -1434h-121l209 1317h-665l-209 -1317h-121z" />
<glyph unicode="&#x420;" horiz-adv-x="1067" d="M78 0l227 1434h371q95 0 175.5 -29.5t140 -85t85.5 -145.5t8 -203q-35 -224 -176.5 -336.5t-371.5 -112.5h-254l-84 -522h-121zM301 639h254q166 0 273.5 87t134.5 253q26 162 -55.5 250t-239.5 88h-260z" />
<glyph unicode="&#x421;" d="M105 399q-21 139 8 322q29 173 94 313t154.5 232t200 141t231.5 49q153 0 262 -74l-19 -106q-95 65 -231 65q-211 0 -365 -162.5t-204 -465.5q-49 -294 45.5 -457.5t296.5 -163.5q150 0 294 72l-20 -119q-133 -68 -283 -68q-122 0 -218.5 48t-160.5 141.5t-85 232.5z" />
<glyph unicode="&#x422;" horiz-adv-x="960" d="M152 1317l18 117h915l-18 -117h-397l-209 -1317h-121l209 1317h-397z" />
<glyph unicode="&#x423;" horiz-adv-x="1015" d="M61 2l19 111q80 -26 143 -13q71 10 121.5 65.5t116.5 174.5l-314 1094h119l269 -959l487 959h137l-596 -1147q-84 -160 -160.5 -226.5t-169.5 -74.5q-95 -11 -172 16z" />
<glyph unicode="&#x424;" horiz-adv-x="1382" d="M78 725q42 259 222.5 421t461.5 179l31 182h120l-30 -182q258 -22 395 -190t96 -426q-40 -259 -218.5 -419.5t-463.5 -180.5l-30 -183h-121l28 183q-258 24 -394 191t-97 425zM201 717q-32 -205 69 -343t318 -151l155 985q-222 -13 -365.5 -147.5t-176.5 -343.5zM709 223 q229 13 370 147.5t174 346.5q19 99 1.5 185.5t-62.5 152t-129 106t-199 47.5z" />
<glyph unicode="&#x425;" horiz-adv-x="1050" d="M-78 0l582 748l-322 686h119l277 -588l458 588h138l-543 -701l342 -733h-121l-297 635l-494 -635h-139z" />
<glyph unicode="&#x426;" horiz-adv-x="1243" d="M78 0l227 1434h121l-207 -1317h643l209 1317h121l-207 -1317h156l-74 -465h-117l58 348h-930z" />
<glyph unicode="&#x427;" horiz-adv-x="1128" d="M152 911l81 523h121l-84 -537q-21 -133 46.5 -200.5t207.5 -69.5q191 -3 363 94l112 713h121l-227 -1434h-121l94 592q-164 -82 -362 -82q-189 3 -285.5 109t-66.5 292z" />
<glyph unicode="&#x428;" horiz-adv-x="1773" d="M78 0l227 1434h121l-207 -1317h549l207 1317h123l-209 -1317h549l209 1317h120l-227 -1434h-1462z" />
<glyph unicode="&#x429;" horiz-adv-x="1777" d="M78 0l227 1434h121l-207 -1317h529l206 1317h123l-209 -1317h529l209 1317h120l-208 -1317h157l-73 -465h-117l55 348h-1462z" />
<glyph unicode="&#x42a;" horiz-adv-x="1234" d="M143 1317l21 117h438l-86 -551h250q101 0 182.5 -28t139.5 -82.5t82.5 -141.5t7.5 -197q-35 -217 -176 -325.5t-371 -108.5h-377l209 1317h-320zM395 117h254q165 0 273.5 82t132.5 243q26 159 -51.5 242.5t-245.5 83.5h-260z" />
<glyph unicode="&#x42b;" horiz-adv-x="1492" d="M78 0l227 1434h121l-86 -551h250q101 0 182.5 -28t139.5 -82.5t82 -141.5t7 -197q-35 -217 -175.5 -325.5t-370.5 -108.5h-377zM219 117h254q165 0 273.5 82t132.5 243q26 159 -51.5 242.5t-245.5 83.5h-260zM1137 0l227 1434h121l-228 -1434h-120z" />
<glyph unicode="&#x42c;" horiz-adv-x="1058" d="M78 0l227 1434h121l-86 -551h250q101 0 182.5 -28t139.5 -82.5t82 -141.5t7 -197q-35 -217 -175.5 -325.5t-370.5 -108.5h-377zM219 117h254q165 0 273.5 82t132.5 243q26 159 -51.5 242.5t-245.5 83.5h-260z" />
<glyph unicode="&#x42d;" horiz-adv-x="976" d="M-20 47l16 117q129 -72 278 -72q197 0 334 143t191 424h-482l19 115h479q30 278 -65.5 422.5t-284.5 144.5q-145 0 -283 -69l19 114q126 70 276 70q119 0 213.5 -48t158.5 -143.5t86 -237t-5 -329.5q-58 -368 -228.5 -544.5t-425.5 -176.5q-182 0 -296 70z" />
<glyph unicode="&#x42e;" horiz-adv-x="1607" d="M78 0l227 1434h121l-104 -660h219q62 326 219.5 504t396.5 178q243 0 352 -198t54 -549q-57 -353 -212.5 -542.5t-410.5 -189.5q-233 0 -343.5 180.5t-72.5 501.5h-221l-104 -659h-121zM649 717q-47 -304 28 -464.5t263 -160.5q195 0 324 160.5t176 464.5t-27.5 464 t-263.5 160q-195 0 -322.5 -159.5t-177.5 -464.5z" />
<glyph unicode="&#x42f;" horiz-adv-x="1126" d="M-37 0l443 604q-131 41 -194.5 148t-39.5 262q34 209 170.5 314.5t341.5 105.5h436l-227 -1434h-123l92 580h-272q-42 0 -60 2l-421 -582h-146zM293 1006q-24 -149 55 -230.5t219 -81.5h316l96 623h-313q-142 0 -245 -78.5t-128 -232.5z" />
<glyph unicode="&#x430;" d="M76 500q17 109 53.5 199.5t91.5 160t132 108t169 38.5q105 0 173.5 -51t99.5 -136l24 164h107l-156 -983h-106l26 156q-122 -179 -311 -179q-121 0 -198.5 70.5t-102.5 187t-2 265.5zM193 492q-29 -186 21.5 -297t182.5 -111q189 0 303 211l64 397q-22 98 -81.5 152.5 t-143.5 54.5q-141 0 -228 -109t-118 -298z" />
<glyph unicode="&#x431;" d="M98 553q38 253 124 404.5t224 234.5q59 36 245 117.5t272 148.5l-23 -137q-71 -53 -227 -122t-217 -107q-82 -51 -146 -142.5t-96 -204.5q124 197 336 197q168 0 252 -134t49 -353q-34 -227 -150 -352.5t-305 -125.5q-194 0 -288 148.5t-50 427.5zM207 485 q-29 -179 29.5 -288t199.5 -109q145 0 229.5 99t110.5 272q28 167 -25 269.5t-188 102.5q-132 0 -223 -94.5t-133 -251.5z" />
<glyph unicode="&#x432;" horiz-adv-x="903" d="M47 0l156 983h372q128 0 205.5 -72.5t57.5 -195.5q-12 -78 -59.5 -135t-121.5 -82q73 -19 115.5 -81t26.5 -159q-21 -125 -109.5 -191.5t-243.5 -66.5h-399zM180 102h260q219 0 246 174q14 92 -37.5 131t-140.5 39h-272zM252 549h248q91 0 149.5 41.5t71.5 124.5 q12 84 -34 125t-134 41h-250z" />
<glyph unicode="&#x433;" horiz-adv-x="733" d="M47 0l156 983h581l-18 -109h-463l-139 -874h-117z" />
<glyph unicode="&#x434;" horiz-adv-x="1032" d="M-106 -272l59 376h121q89 170 150.5 380.5t105.5 498.5h608l-137 -879h135l-59 -376h-115l43 272h-756l-43 -272h-112zM201 104h483l123 775h-381q-82 -472 -225 -775z" />
<glyph unicode="&#x435;" horiz-adv-x="897" d="M74 500q37 233 165.5 369.5t309.5 136.5q128 0 206.5 -76t93 -203t-25.5 -293h-639q-13 -176 61 -262t224 -86q134 0 250 55l-19 -112q-112 -52 -241 -52q-220 0 -321 141t-64 382zM201 537h528q31 166 -15.5 262t-168.5 96q-63 0 -117.5 -25.5t-91 -63t-65.5 -88 t-44.5 -94t-25.5 -87.5z" />
<glyph unicode="&#x436;" horiz-adv-x="1234" d="M-61 0l403 500l-225 483h125l192 -426h137l68 426h115l-68 -426h125l324 426h143l-379 -489l242 -494h-127l-211 449h-133l-72 -449h-115l72 449h-117l-356 -449h-143z" />
<glyph unicode="&#x437;" horiz-adv-x="782" d="M-16 39l16 108q113 -63 276 -63q48 0 92.5 10t85.5 31t70 59.5t37 89.5q7 48 -7 83t-43.5 53.5t-63.5 27t-74 8.5h-150l17 109h145q86 0 146.5 44t72.5 126q14 86 -42.5 130t-155.5 44q-144 0 -281 -63l18 112q139 60 285 60q144 0 228 -78t63 -207q-12 -84 -59.5 -144 t-112.5 -81q58 -20 99.5 -88t27.5 -160q-21 -133 -130.5 -203t-271.5 -70q-175 0 -288 62z" />
<glyph unicode="&#x438;" horiz-adv-x="968" d="M47 0l156 983h116l-90 -565q-19 -124 -43 -225l617 790h117l-156 -983h-115l90 565q22 143 45 226l-618 -791h-119z" />
<glyph unicode="&#x439;" horiz-adv-x="968" d="M47 0l156 983h116l-90 -565q-19 -124 -43 -225l617 790h117l-156 -983h-115l90 565q22 143 45 226l-618 -791h-119zM362 1192l19 108q95 -63 215 -63q123 0 250 68l-19 -115q-106 -60 -235 -60q-142 0 -230 62z" />
<glyph unicode="&#x43a;" horiz-adv-x="849" d="M47 0l156 983h116l-67 -426h149l365 426h143l-413 -487l274 -496h-133l-244 449h-157l-72 -449h-117z" />
<glyph unicode="&#x43b;" horiz-adv-x="970" d="M-66 2l17 98q95 -17 153 33q67 60 117.5 246t132.5 604h570l-156 -983h-117l140 874h-345q-81 -402 -120 -537q-63 -214 -148 -294q-103 -81 -244 -41z" />
<glyph unicode="&#x43c;" horiz-adv-x="1153" d="M47 0l156 983h114l236 -588l418 588h133l-156 -983h-110l100 625q16 106 45 194l-399 -561h-86l-224 555q-3 -90 -18 -197l-98 -616h-111z" />
<glyph unicode="&#x43d;" horiz-adv-x="954" d="M47 0l156 983h116l-69 -438h471l70 438h116l-155 -983h-117l70 438h-472l-69 -438h-117z" />
<glyph unicode="&#x43e;" horiz-adv-x="948" d="M76 500q39 239 161 372.5t308 133.5q189 0 277 -138t50 -385q-39 -242 -157.5 -374t-311.5 -132q-190 0 -277.5 138.5t-49.5 384.5zM193 483q-31 -192 23.5 -294.5t186.5 -102.5q140 0 231 106.5t122 307.5q31 192 -25 295.5t-186 103.5q-138 0 -229 -107.5t-123 -308.5z " />
<glyph unicode="&#x43f;" horiz-adv-x="954" d="M47 0l156 983h704l-155 -983h-117l139 879h-471l-139 -879h-117z" />
<glyph unicode="&#x440;" d="M-25 -451l228 1434h106l-24 -156q113 179 307 179q123 0 201 -70.5t102.5 -187t1.5 -265.5q-17 -109 -53.5 -199.5t-91 -160t-131.5 -108t-168 -38.5q-104 0 -171.5 48.5t-95.5 121.5l-94 -598h-117zM209 291q22 -98 82 -152.5t149 -54.5q135 0 222.5 109t117.5 299 q29 184 -20.5 295.5t-184.5 111.5q-185 0 -303 -211z" />
<glyph unicode="&#x441;" horiz-adv-x="778" d="M74 500q37 233 170 369.5t331 136.5q122 0 211 -56l-16 -104q-76 53 -186 53q-155 0 -257.5 -109t-133.5 -298q-28 -190 34.5 -298t212.5 -108q124 0 228 55l-17 -112q-102 -52 -221 -52q-201 0 -297 142.5t-59 380.5z" />
<glyph unicode="&#x442;" horiz-adv-x="745" d="M86 879l16 104h697l-17 -104h-288l-142 -879h-114l139 879h-291z" />
<glyph unicode="&#x443;" horiz-adv-x="882" d="M-31 -451l17 105q79 -11 143 31q44 30 81 88t120 223l-236 987h119l190 -840l398 840h133l-557 -1139q-91 -190 -195 -256q-90 -56 -213 -39z" />
<glyph unicode="&#x444;" horiz-adv-x="1198" d="M74 506q35 222 182 354t367 146l67 428h117l-70 -433q202 -22 312.5 -162.5t76.5 -361.5q-37 -223 -183.5 -354.5t-367.5 -145.5l-67 -428h-117l70 433q-131 15 -226.5 80.5t-140 181t-20.5 262.5zM184 492q-27 -179 53 -287.5t238 -122.5l131 817q-171 -15 -281.5 -120 t-140.5 -287zM594 84q170 15 280.5 120.5t139.5 287.5q29 181 -48 288t-243 121z" />
<glyph unicode="&#x445;" horiz-adv-x="833" d="M-66 0l422 510l-241 473h116l181 -352q9 -16 16 -33q3 5 23 33l282 352h146l-396 -479l258 -504h-123l-186 373q-6 13 -20 49q-12 -21 -33 -45l-307 -377h-138z" />
<glyph unicode="&#x446;" horiz-adv-x="980" d="M47 0l156 983h116l-137 -874h451l137 874h117l-139 -874h137l-60 -381h-114l43 272h-707z" />
<glyph unicode="&#x447;" horiz-adv-x="884" d="M94 643l53 340h117l-53 -340q-18 -106 34 -156.5t156 -50.5q124 0 242 53l78 494h117l-156 -983h-117l60 379q-113 -49 -246 -49q-68 0 -124.5 19t-97.5 56.5t-58.5 98.5t-4.5 139z" />
<glyph unicode="&#x448;" horiz-adv-x="1349" d="M47 0l156 983h116l-137 -874h375l137 874h117l-137 -874h375l137 874h117l-156 -983h-1100z" />
<glyph unicode="&#x449;" horiz-adv-x="1361" d="M47 0l156 983h116l-137 -874h359l137 874h117l-140 -874h359l139 874h115l-138 -874h136l-60 -381h-114l43 272h-1088z" />
<glyph unicode="&#x44a;" horiz-adv-x="1032" d="M84 881l14 102h377l-55 -358h242q106 0 177 -46t97 -117.5t12 -156.5q-10 -62 -35.5 -114.5t-70 -96.5t-115 -69t-160.5 -25h-362l139 881h-260zM338 104h227q117 0 186 56.5t83 154.5q16 94 -33 149.5t-166 55.5h-232z" />
<glyph unicode="&#x44b;" horiz-adv-x="1251" d="M47 0l156 983h116l-55 -358h240q159 0 235 -93.5t54 -226.5q-10 -62 -35.5 -114.5t-70 -96.5t-115.5 -69t-162 -25h-363zM182 104h228q116 0 184.5 56.5t83.5 154.5q14 94 -35 149.5t-164 55.5h-233zM932 0l155 983h117l-155 -983h-117z" />
<glyph unicode="&#x44c;" horiz-adv-x="876" d="M47 0l156 983h116l-55 -358h240q159 0 235 -93.5t54 -226.5q-10 -62 -35.5 -114.5t-70 -96.5t-115.5 -69t-162 -25h-363zM182 104h228q116 0 184.5 56.5t83.5 154.5q14 94 -35 149.5t-164 55.5h-233z" />
<glyph unicode="&#x44d;" horiz-adv-x="798" d="M-18 31l18 108q91 -53 209 -53q149 0 249 91t138 261h-387l18 107h387q17 170 -54 262t-218 92q-107 0 -221 -57l18 112q101 52 230 52q192 0 292.5 -140.5t63.5 -382.5q-38 -241 -171 -373.5t-337 -132.5q-146 0 -235 54z" />
<glyph unicode="&#x44e;" horiz-adv-x="1298" d="M47 0l156 983h116l-69 -438h192q43 220 160 340.5t293 120.5q190 0 278.5 -138.5t49.5 -384.5q-37 -242 -156 -374t-311 -132q-176 0 -264 121.5t-66 339.5h-193l-69 -438h-117zM543 483q-29 -192 26 -294.5t187 -102.5q139 0 230 107t122 307q30 192 -26.5 295.5 t-186.5 103.5q-138 0 -228 -107t-124 -309z" />
<glyph unicode="&#x44f;" horiz-adv-x="890" d="M-43 0l342 377q-101 28 -153 112t-33 193q21 133 117 217t253 84h361l-156 -983h-117l60 365h-162q-27 0 -39 2l-328 -367h-145zM227 674q-15 -93 34.5 -149t150.5 -56h235l66 410h-232q-103 0 -172 -55t-82 -150z" />
<glyph unicode="&#x451;" horiz-adv-x="897" d="M74 500q37 233 165.5 369.5t309.5 136.5q128 0 206.5 -76t93 -203t-25.5 -293h-639q-13 -176 61 -262t224 -86q134 0 250 55l-19 -112q-112 -52 -241 -52q-220 0 -321 141t-64 382zM201 537h528q31 166 -15.5 262t-168.5 96q-63 0 -117.5 -25.5t-91 -63t-65.5 -88 t-44.5 -94t-25.5 -87.5zM334 1270q5 31 31.5 54.5t58.5 23.5q38 0 61 -28.5t17 -64.5q-6 -33 -32.5 -55t-59.5 -22q-37 0 -59.5 27.5t-16.5 64.5zM670 1270q6 31 33 54.5t59 23.5q38 0 61 -28.5t17 -64.5q-6 -32 -33 -54.5t-59 -22.5q-37 0 -60.5 27.5t-17.5 64.5z" />
<glyph unicode="&#x452;" horiz-adv-x="944" d="M47 0l186 1174h-124l14 90h123l28 170h115l-27 -170h359l-14 -90h-359l-51 -316q115 148 303 148q133 0 206.5 -95t47.5 -247l-141 -889q-18 -122 -84.5 -185t-167.5 -63q-77 0 -123 18l16 103q51 -15 90 -15q65 0 105.5 43.5t52.5 130.5l137 859q19 116 -29 174.5 t-143 58.5q-93 0 -172.5 -62t-124.5 -151l-108 -686h-115z" />
<glyph unicode="&#x453;" horiz-adv-x="733" d="M47 0l156 983h581l-18 -109h-463l-139 -874h-117zM381 1133l221 276h148l-246 -276h-123z" />
<glyph unicode="&#x454;" horiz-adv-x="798" d="M74 500q37 232 174.5 369t341.5 137q125 0 217 -56l-16 -104q-82 53 -193 53q-148 0 -251 -94.5t-142 -259.5h385l-19 -107h-385q-14 -167 54.5 -259.5t214.5 -92.5q129 0 233 55l-18 -112q-99 -52 -226 -52q-209 0 -308.5 142.5t-61.5 380.5z" />
<glyph unicode="&#x455;" horiz-adv-x="772" d="M6 55l19 111q113 -82 282 -82q107 0 175 38t81 116q8 49 -15 87.5t-65.5 65t-95 51t-105 52.5t-93.5 62t-62 88t-10 122q18 115 114.5 177.5t233.5 62.5q152 0 266 -68l-18 -109q-106 72 -242 72q-96 0 -162.5 -39.5t-79.5 -113.5q-8 -49 15.5 -87.5t66 -64.5t95.5 -50 t105 -51.5t93.5 -61.5t62 -88.5t9.5 -123.5q-14 -85 -69 -141.5t-129.5 -79.5t-168.5 -23q-193 0 -303 78z" />
<glyph unicode="&#x456;" horiz-adv-x="376" d="M53 0l156 983h115l-156 -983h-115zM236 1288q6 34 29 53t54 19q35 0 56.5 -23.5t17.5 -62.5q-6 -35 -30 -52.5t-56 -17.5q-36 0 -56.5 22t-14.5 62z" />
<glyph unicode="&#x457;" horiz-adv-x="376" d="M53 0l156 983h115l-156 -983h-115zM57 1270q5 31 31.5 54.5t58.5 23.5q38 0 61 -28.5t17 -64.5q-6 -33 -32.5 -55t-59.5 -22q-37 0 -59.5 27.5t-16.5 64.5zM393 1270q6 31 33 54.5t59 23.5q38 0 61 -28.5t17 -64.5q-6 -32 -33 -54.5t-59 -22.5q-37 0 -60.5 27.5 t-17.5 64.5z" />
<glyph unicode="&#x458;" horiz-adv-x="387" d="M-231 -455l16 105q43 -17 90 -17q132 0 158 174l186 1176h117l-193 -1208q-41 -248 -252 -248q-75 0 -122 18zM246 1288q4 34 28.5 53t55.5 19q36 0 57.5 -23.5t15.5 -62.5q-6 -35 -30 -52.5t-56 -17.5q-36 0 -57 22.5t-14 61.5z" />
<glyph unicode="&#x459;" horiz-adv-x="1433" d="M-66 2l17 98q95 -17 153 33q67 60 117.5 246t132.5 604h549l-63 -399h237q148 0 220 -85t51 -214q-20 -127 -110 -206t-249 -79h-358l139 874h-324q-81 -402 -120 -537q-63 -214 -148 -294q-103 -81 -244 -41zM764 104h225q100 0 164.5 48.5t79.5 140.5q14 90 -31.5 138 t-148.5 48h-230z" />
<glyph unicode="&#x45a;" horiz-adv-x="1417" d="M47 0l156 983h116l-63 -399h451l63 399h117l-64 -399h238q148 0 219.5 -85t50.5 -214q-20 -127 -109.5 -206t-248.5 -79h-359l76 479h-450l-76 -479h-117zM748 104h225q100 0 164.5 48.5t79.5 140.5q14 90 -32 138t-149 48h-229z" />
<glyph unicode="&#x45b;" horiz-adv-x="946" d="M47 0l186 1174h-122l12 90h125l26 170h117l-26 -170h356l-12 -90h-361l-49 -316q112 148 301 148q133 0 206.5 -94.5t49.5 -247.5l-104 -664h-117l104 666q19 117 -28.5 175t-143.5 58q-91 0 -170.5 -62t-124.5 -151l-108 -686h-117z" />
<glyph unicode="&#x45c;" horiz-adv-x="849" d="M47 0l156 983h116l-67 -426h149l365 426h143l-413 -487l274 -496h-133l-244 449h-157l-72 -449h-117zM428 1133l221 276h148l-246 -276h-123z" />
<glyph unicode="&#x45e;" horiz-adv-x="882" d="M-31 -451l17 105q79 -11 143 31q44 30 81 88t120 223l-236 987h119l190 -840l398 840h133l-557 -1139q-91 -190 -195 -256q-90 -56 -213 -39zM299 1204l16 103q103 -62 224 -62q129 0 256 68l-19 -113q-107 -65 -241 -65q-142 0 -236 69z" />
<glyph unicode="&#x45f;" horiz-adv-x="933" d="M47 0l156 983h116l-137 -874h451l137 874h117l-156 -983h-285l-43 -272h-112l41 272h-285z" />
<glyph unicode="&#x490;" horiz-adv-x="923" d="M78 0l227 1434h629l45 286h115l-64 -403h-622l-209 -1317h-121z" />
<glyph unicode="&#x491;" horiz-adv-x="733" d="M47 0l156 983h469l37 246h114l-57 -355h-463l-139 -874h-117z" />
<glyph unicode="&#x2000;" horiz-adv-x="968" />
<glyph unicode="&#x2001;" horiz-adv-x="1937" />
<glyph unicode="&#x2002;" horiz-adv-x="968" />
<glyph unicode="&#x2003;" horiz-adv-x="1937" />
<glyph unicode="&#x2004;" horiz-adv-x="645" />
<glyph unicode="&#x2005;" horiz-adv-x="484" />
<glyph unicode="&#x2006;" horiz-adv-x="322" />
<glyph unicode="&#x2007;" horiz-adv-x="322" />
<glyph unicode="&#x2008;" horiz-adv-x="242" />
<glyph unicode="&#x2009;" horiz-adv-x="387" />
<glyph unicode="&#x200a;" horiz-adv-x="107" />
<glyph unicode="&#x2010;" horiz-adv-x="770" d="M100 449l17 110h557l-19 -110h-555z" />
<glyph unicode="&#x2011;" horiz-adv-x="770" d="M100 449l17 110h557l-19 -110h-555z" />
<glyph unicode="&#x2012;" horiz-adv-x="770" d="M100 449l17 110h557l-19 -110h-555z" />
<glyph unicode="&#x2013;" horiz-adv-x="952" d="M100 449l17 110h739l-16 -110h-740z" />
<glyph unicode="&#x2014;" horiz-adv-x="1310" d="M100 449l17 110h1097l-16 -110h-1098z" />
<glyph unicode="&#x2018;" horiz-adv-x="344" d="M168 977l133 457h96l-106 -457h-123z" />
<glyph unicode="&#x2019;" horiz-adv-x="339" d="M176 977l107 457h123l-134 -457h-96z" />
<glyph unicode="&#x201a;" horiz-adv-x="327" d="M-37 -301l107 459h123l-136 -459h-94z" />
<glyph unicode="&#x201c;" horiz-adv-x="610" d="M168 977l133 457h96l-106 -457h-123zM434 977l133 457h97l-107 -457h-123z" />
<glyph unicode="&#x201d;" horiz-adv-x="606" d="M176 977l107 457h123l-134 -457h-96zM442 977l107 457h123l-133 -457h-97z" />
<glyph unicode="&#x201e;" horiz-adv-x="593" d="M-37 -301l107 459h123l-136 -459h-94zM229 -301l107 459h123l-135 -459h-95z" />
<glyph unicode="&#x2022;" horiz-adv-x="557" d="M180 725q9 57 50 89t94 32q59 0 93 -36.5t25 -100.5q-9 -57 -50 -89t-95 -32q-58 0 -92 36.5t-25 100.5z" />
<glyph unicode="&#x2026;" horiz-adv-x="960" d="M31 74q6 35 30.5 54t55.5 19q37 0 58.5 -24.5t14.5 -65.5q-6 -35 -30.5 -54t-55.5 -19q-37 0 -58 24.5t-15 65.5zM346 74q4 35 28.5 54t57.5 19q36 0 58 -24.5t16 -65.5q-6 -35 -30.5 -54t-57.5 -19q-36 0 -57.5 24.5t-14.5 65.5zM659 74q6 35 30.5 54t55.5 19 q37 0 58.5 -24.5t15.5 -65.5q-6 -35 -30.5 -54t-55.5 -19q-37 0 -59 24.5t-15 65.5z" />
<glyph unicode="&#x202f;" horiz-adv-x="387" />
<glyph unicode="&#x2039;" horiz-adv-x="491" d="M70 479v25l264 350h131l-281 -369l156 -356h-119z" />
<glyph unicode="&#x203a;" horiz-adv-x="489" d="M27 129l278 369l-153 356h116l154 -350v-25l-264 -350h-131z" />
<glyph unicode="&#x205f;" horiz-adv-x="484" />
<glyph unicode="&#x20ac;" horiz-adv-x="1050" d="M61 504l17 102h129q4 56 10 88q10 53 21 92h-132l17 103h141q81 250 242 388t364 138q139 0 234 -59l-17 -109q-90 53 -215 53q-166 0 -291.5 -108t-193.5 -303h432l-16 -103h-445q-10 -38 -20 -94q-9 -66 -10 -86h446l-16 -102h-434q2 -195 88 -303.5t247 -108.5 q143 0 265 70l-19 -121q-117 -64 -256 -64q-196 0 -321 136.5t-125 390.5h-142z" />
<glyph unicode="&#x2122;" horiz-adv-x="1095" d="M193 1366l10 68h362l-10 -68h-145l-72 -451h-72l72 451h-145zM567 915l82 519h64l123 -287l213 287h71l-82 -519h-73l63 388l-186 -250h-33l-109 250l-61 -388h-72z" />
<glyph unicode="&#x25fc;" horiz-adv-x="983" d="M0 0v983h983v-983h-983z" />
</font>
</defs>
</svg>
