<?xml version="1.0" standalone="no"?>
<!DOCTYPE svg PUBLIC "-//W3C//DTD SVG 1.1//EN" "http://www.w3.org/Graphics/SVG/1.1/DTD/svg11.dtd" >
<svg xmlns="http://www.w3.org/2000/svg">
<metadata></metadata>
<defs>
<font id="muller_narrowextrabold" horiz-adv-x="1026" >
<font-face units-per-em="2048" ascent="1638" descent="-410" />
<missing-glyph horiz-adv-x="315" />
<glyph horiz-adv-x="0" />
<glyph horiz-adv-x="682" />
<glyph unicode=" "  horiz-adv-x="315" />
<glyph unicode="&#x09;" horiz-adv-x="315" />
<glyph unicode="&#xa0;" horiz-adv-x="315" />
<glyph unicode="!" horiz-adv-x="538" d="M84 158q0 89 54 135.5t130 46.5q78 0 132.5 -46.5t54.5 -135.5q0 -90 -55 -137.5t-132 -47.5q-76 0 -130 47.5t-54 137.5zM86 1434h367l-33 -936h-301z" />
<glyph unicode="&#x22;" horiz-adv-x="837" d="M78 891v543h307l-41 -543h-266zM473 891v543h307l-41 -543h-266z" />
<glyph unicode="#" horiz-adv-x="1296" d="M45 307v258h180l51 264h-129v258h179l59 308h305l-59 -308h186l60 308h307l-60 -308h117l14 -258h-180l-51 -264h129v-258h-180l-58 -307h-307l60 307h-187l-59 -307h-305l59 307h-131zM530 565h187l51 264h-186z" />
<glyph unicode="$" horiz-adv-x="1034" d="M53 993q0 166 88 269t230 141v244h301v-238q100 -14 241 -86v-344q-174 115 -348 115q-151 0 -151 -101q0 -34 32 -61t83.5 -48t113 -43.5t123.5 -57.5t113.5 -81.5t83.5 -122.5t32 -173q0 -174 -89 -277.5t-234 -138.5v-244h-301v234q-170 19 -297 81v357 q84 -51 188.5 -81t192.5 -30q174 0 174 105q0 36 -32 62.5t-82.5 46.5t-112 41.5t-123 55.5t-112 79.5t-82.5 121.5t-32 174z" />
<glyph unicode="%" horiz-adv-x="1544" d="M39 1090q0 170 97 264t253 94q153 0 250.5 -94.5t97.5 -263.5q0 -170 -97.5 -264.5t-250.5 -94.5q-156 0 -253 94.5t-97 264.5zM217 0l899 1434h211l-899 -1434h-211zM307 1090q0 -55 20.5 -87t61.5 -32q40 0 60 32t20 87t-20 86.5t-60 31.5q-41 0 -61.5 -31.5 t-20.5 -86.5zM807 344q0 169 97.5 263.5t250.5 94.5q155 0 252.5 -94t97.5 -264t-97.5 -264t-252.5 -94q-153 0 -250.5 94.5t-97.5 263.5zM1075 344q0 -119 80 -119t80 119t-80 119t-80 -119z" />
<glyph unicode="&#x26;" horiz-adv-x="1296" d="M37 354q0 235 242 410q-65 78 -102.5 152.5t-37.5 162.5q0 161 120 272t321 111q175 0 286 -100.5t111 -259.5q0 -227 -275 -408l166 -192q39 91 39 200h324q0 -110 -39 -226.5t-113 -217.5l224 -258h-363l-68 78q-165 -107 -378 -107q-216 0 -336.5 106t-120.5 277z M377 391q0 -60 41 -94.5t114 -34.5q81 0 142 45l-209 240q-43 -38 -65.5 -74t-22.5 -82zM461 1069q0 -75 67 -164q125 84 125 174q0 46 -23 72.5t-63 26.5q-54 0 -80 -32.5t-26 -76.5z" />
<glyph unicode="'" horiz-adv-x="452" d="M78 891v543h321l-55 -543h-266z" />
<glyph unicode="(" horiz-adv-x="618" d="M55 614q0 259 78 509t201 433h278q-101 -198 -158 -446t-57 -496t57 -496t158 -446h-278q-123 183 -201 433t-78 509z" />
<glyph unicode=")" horiz-adv-x="616" d="M4 -328q101 198 158 446t57 496t-57 496t-158 446h277q124 -182 202 -432t78 -510t-78 -510t-202 -432h-277z" />
<glyph unicode="*" horiz-adv-x="755" d="M43 1104l82 217l160 -80l-25 193h236l-25 -193l162 80l82 -217l-191 -41l140 -145l-189 -136l-96 174l-96 -174l-191 136l139 145z" />
<glyph unicode="+" horiz-adv-x="962" d="M49 571v291h287v289h291v-289h288v-291h-288v-286h-291v286h-287z" />
<glyph unicode="," horiz-adv-x="479" d="M53 -311l29 571h338l-101 -571h-266z" />
<glyph unicode="-" horiz-adv-x="739" d="M84 352v291h571v-291h-571z" />
<glyph unicode="." horiz-adv-x="473" d="M51 158q0 89 54.5 135.5t130.5 46.5q77 0 131.5 -46.5t54.5 -135.5q0 -90 -54.5 -137.5t-131.5 -47.5q-76 0 -130.5 48t-54.5 137z" />
<glyph unicode="/" horiz-adv-x="804" d="M31 -121l493 1675h248l-491 -1675h-250z" />
<glyph unicode="0" horiz-adv-x="1189" d="M61 696q0 350 134 537.5t399 187.5q266 0 399 -187.5t133 -537.5t-133 -537.5t-399 -187.5q-265 0 -399 187.5t-134 537.5zM430 696q0 -192 38.5 -283t125.5 -91q89 0 127.5 91t38.5 283t-38.5 283.5t-127.5 91.5q-87 0 -125.5 -91.5t-38.5 -283.5z" />
<glyph unicode="1" horiz-adv-x="870" d="M74 0v336h217v665l-217 -94v357l297 129h274v-1057h199v-336h-770z" />
<glyph unicode="2" horiz-adv-x="1001" d="M57 0v205q0 77 19.5 146.5t41 113.5t71 98t74 75t84.5 70l18 15q52 43 80 67.5t59 58t44 63.5t13 63q0 48 -36.5 76t-92.5 28q-152 0 -336 -116v354q189 104 393 104q70 0 134.5 -16.5t120.5 -51.5t97.5 -85t65 -120.5t23.5 -154.5q0 -119 -45.5 -205t-130.5 -167 q-45 -44 -125.5 -107.5t-120.5 -104t-41 -73.5h465v-336h-875z" />
<glyph unicode="3" horiz-adv-x="997" d="M72 25v342q137 -48 297 -45q95 0 152 32t57 95q0 110 -138 110h-192v313h162q56 0 92.5 28t36.5 77q0 50 -40 80t-122 30q-153 0 -303 -61v328q162 67 356 67q129 0 231.5 -42.5t166 -131t63.5 -211.5q0 -101 -45 -179.5t-121 -119.5q95 -35 157 -124.5t62 -225.5 q0 -87 -30 -158t-80.5 -118t-118 -79.5t-139.5 -46.5t-148 -14q-194 0 -356 54z" />
<glyph unicode="4" horiz-adv-x="1140" d="M35 207v297l581 889h338v-867h140v-325h-138v-201h-329v207h-592zM375 512h256v395z" />
<glyph unicode="5" horiz-adv-x="1001" d="M68 16v336q139 -47 311 -47q101 0 154 37.5t53 110.5q0 72 -63.5 106.5t-170.5 34.5q-128 0 -254 -29l45 828h748v-328h-416l-10 -188q80 0 158 -17q151 -26 241 -127.5t90 -281.5q0 -99 -30.5 -180.5t-82 -136t-120 -92t-142 -54.5t-151.5 -17q-206 0 -360 45z" />
<glyph unicode="6" horiz-adv-x="1110" d="M59 653q0 160 32.5 290t88.5 218t133.5 147.5t165 86t185.5 26.5q93 0 157.5 -14t151.5 -53v-322q-116 55 -242 55q-121 0 -191 -59.5t-98 -185.5q92 53 222 53q175 3 289 -112t114 -330q0 -225 -130.5 -353.5t-330.5 -128.5q-115 0 -207 34t-155 95t-105 147t-61 187 t-19 219zM424 559q9 -135 49.5 -197.5t118.5 -62.5q68 0 101.5 44t33.5 114q0 155 -137 155q-86 0 -166 -53z" />
<glyph unicode="7" horiz-adv-x="942" d="M31 1057v336h878v-254l-362 -1139h-375l342 1057h-483z" />
<glyph unicode="8" horiz-adv-x="1138" d="M53 379q0 110 54.5 201.5t138.5 154.5q-148 120 -148 303q0 74 29 141.5t84.5 122t148 87t209.5 32.5q116 0 207.5 -31.5t148 -86t86 -123t29.5 -146.5q0 -92 -39.5 -166t-113.5 -145q196 -120 196 -344q0 -78 -29.5 -149t-89 -130t-161.5 -94t-234 -35 q-131 0 -232.5 34.5t-162 93t-91 130t-30.5 150.5zM414 418q0 -59 41 -96t114 -37q75 0 115.5 32.5t40.5 88.5q0 29 -16 54.5t-46.5 46.5t-64 38.5t-78.5 38.5q-12 5 -18 8q-88 -85 -88 -174zM436 1004q0 -31 14.5 -56t46.5 -46t61.5 -34.5t78.5 -33.5q68 78 68 153 q0 55 -34.5 88t-101.5 33q-64 0 -98.5 -29t-34.5 -75z" />
<glyph unicode="9" horiz-adv-x="1107" d="M43 940q0 225 129.5 353t331.5 128q115 0 206.5 -34t154.5 -95t104.5 -147t60.5 -187t19 -219q0 -160 -32 -289.5t-87.5 -217.5t-132 -147.5t-162.5 -86.5t-182 -27q-94 0 -158.5 14.5t-151.5 55.5v319q122 -55 242 -55q117 0 186 60t97 186q-95 -53 -224 -53 q-174 -3 -287.5 112t-113.5 330zM381 936q0 -77 36 -116.5t103 -39.5q84 0 166 54q-9 135 -49.5 197.5t-118.5 62.5q-68 0 -102.5 -44.5t-34.5 -113.5z" />
<glyph unicode=":" horiz-adv-x="509" d="M70 158q0 89 54 135.5t130 46.5q77 0 131.5 -46.5t54.5 -135.5q0 -90 -54.5 -137.5t-131.5 -47.5q-76 0 -130 47.5t-54 137.5zM70 766q0 88 54 135t130 47q77 0 131.5 -47t54.5 -135q0 -91 -54.5 -138.5t-131.5 -47.5q-76 0 -130 47.5t-54 138.5z" />
<glyph unicode=";" horiz-adv-x="532" d="M80 -311l26 571h340l-100 -571h-266zM82 801q0 90 54.5 137t131.5 47t131 -47t54 -137t-54 -137.5t-131 -47.5t-131.5 47.5t-54.5 137.5z" />
<glyph unicode="&#x3c;" horiz-adv-x="833" d="M47 557v322l690 292v-321l-381 -133l381 -133v-322z" />
<glyph unicode="=" horiz-adv-x="940" d="M100 352v297h742v-297h-742zM100 784v297h742v-297h-742z" />
<glyph unicode="&#x3e;" horiz-adv-x="833" d="M96 262v322l381 133l-381 133v321l690 -292v-322z" />
<glyph unicode="?" horiz-adv-x="866" d="M49 1024v338q93 52 173 76t186 24q63 0 122 -12.5t114 -40t95.5 -67.5t65 -99.5t24.5 -132.5q0 -80 -28.5 -156.5t-69 -135t-81 -113.5t-69 -114.5t-28.5 -115.5h-307q0 76 22 145.5t54 120t63.5 96.5t53.5 94.5t22 94.5q0 49 -34.5 74.5t-98.5 25.5q-65 0 -140.5 -28.5 t-138.5 -73.5zM215 158q0 89 54 135.5t130 46.5q78 0 132.5 -46.5t54.5 -135.5q0 -90 -55 -137.5t-132 -47.5q-76 0 -130 47.5t-54 137.5z" />
<glyph unicode="@" horiz-adv-x="1886" d="M45 492q0 150 38 292t115.5 265t185 215t257 145t322.5 53q127 0 239.5 -28.5t199 -78.5t158 -118.5t121 -147.5t83.5 -167t49.5 -175.5t15.5 -173.5q0 -278 -114.5 -419.5t-330.5 -141.5q-107 0 -188 46.5t-123 127.5q-47 -66 -98.5 -95.5t-126.5 -29.5 q-103 0 -176.5 60t-106.5 154.5t-33 211.5t33 211.5t106.5 154.5t176.5 60q129 0 209 -106v82h282v-516q0 -103 78 -103q33 0 54.5 20.5t31.5 65t13.5 93t3.5 124.5q0 115 -33.5 218t-99 187.5t-175 134.5t-249.5 50q-181 0 -320 -88.5t-213 -240.5t-74 -342 q0 -314 169 -492t460 -178q230 0 432 57v-278q-205 -78 -440 -78q-195 0 -363 62.5t-295.5 181t-200.5 305t-73 420.5zM840 487q0 -85 26 -129.5t74 -44.5q32 0 51.5 14t40.5 42v237q-20 28 -40 42t-52 14q-48 0 -74 -45t-26 -130z" />
<glyph unicode="A" horiz-adv-x="1249" d="M-8 0l454 1434h357l454 -1434h-368l-60 215h-407l-60 -215h-370zM494 506h262l-68 246q-42 158 -63 309q-22 -159 -62 -309z" />
<glyph unicode="B" horiz-adv-x="1193" d="M100 0v1434h588q189 0 302.5 -98.5t113.5 -268.5q0 -215 -158 -309q85 -40 147 -129t62 -223q0 -105 -41.5 -186t-111.5 -127.5t-152.5 -69.5t-173.5 -23h-576zM455 297h176q72 0 118 33.5t46 113.5q0 78 -45 113t-113 35h-182v-295zM455 864h170q61 0 97 36.5t36 100.5 q0 70 -37 105t-105 35h-161v-277z" />
<glyph unicode="C" horiz-adv-x="1030" d="M47 707q1 179 51.5 323.5t138.5 238t205 143.5t254 50q135 0 273 -55v-342q-86 47 -221 47q-151 0 -241.5 -104.5t-90.5 -300.5q0 -190 85 -289t236 -99q118 0 242 54v-350q-136 -52 -285 -52q-106 0 -201 28t-177 87t-141.5 144.5t-93.5 207.5t-34 269z" />
<glyph unicode="D" horiz-adv-x="1230" d="M100 0v1434h469q132 0 236 -36.5t173.5 -100t115.5 -155t66 -196.5t20 -229t-20 -229t-66 -196.5t-115.5 -155t-173.5 -100t-236 -36.5h-469zM455 336h114q132 0 194 89t62 292t-62 292t-194 89h-114v-762z" />
<glyph unicode="E" horiz-adv-x="1019" d="M100 0v1434h846v-316h-491v-244h444v-307h-444v-248h503v-319h-858z" />
<glyph unicode="F" horiz-adv-x="1011" d="M100 0v1434h858v-336h-503v-262h465v-336h-465v-500h-355z" />
<glyph unicode="G" horiz-adv-x="1146" d="M47 705q0 175 51.5 318t143 239t217.5 148t274 52q160 0 309 -57v-336q-122 49 -266 49q-165 0 -262.5 -108.5t-97.5 -311.5q0 -169 53 -260t143 -114q29 -7 58.5 -7t60.5 7v456h344v-717q-162 -92 -387 -92q-104 0 -196.5 25.5t-175 82t-141.5 140.5t-93.5 208.5 t-34.5 277.5z" />
<glyph unicode="H" horiz-adv-x="1239" d="M100 0v1434h355v-549h329v549h353v-1434h-353v549h-329v-549h-355z" />
<glyph unicode="I" horiz-adv-x="555" d="M100 0v1434h355v-1434h-355z" />
<glyph unicode="J" horiz-adv-x="890" d="M39 20v330q91 -43 215 -43q92 0 141 45t49 150v596h-276v336h629v-1014q0 -97 -25.5 -174t-68.5 -127.5t-103 -84.5t-125.5 -48.5t-138.5 -14.5q-164 0 -297 49z" />
<glyph unicode="K" horiz-adv-x="1189" d="M100 0v1434h355v-562h88l235 562h410l-338 -717l350 -717h-409l-246 559h-90v-559h-355z" />
<glyph unicode="L" horiz-adv-x="968" d="M100 0v1434h355v-1098h489v-336h-844z" />
<glyph unicode="M" horiz-adv-x="1486" d="M100 0v1434h306l337 -639l338 639h305v-1434h-346v424q0 200 35 405l-270 -516h-121l-270 516q32 -188 32 -405v-424h-346z" />
<glyph unicode="N" horiz-adv-x="1267" d="M100 0v1434h322l424 -811q-33 200 -33 374v437h352v-1434h-319l-426 811q35 -184 35 -375v-436h-355z" />
<glyph unicode="O" horiz-adv-x="1263" d="M51 717q0 170 34 304.5t103 234t181.5 153t261.5 53.5t261 -53.5t181 -153t103 -234t34 -304.5q0 -169 -34 -303.5t-103 -234.5t-181 -154t-261 -54t-261.5 54t-181.5 154t-103 234.5t-34 303.5zM420 717q0 -201 51.5 -298t159.5 -97q110 0 161.5 97t51.5 298t-51.5 298 t-161.5 97q-108 0 -159.5 -97t-51.5 -298z" />
<glyph unicode="P" horiz-adv-x="1157" d="M100 0v1434h529q105 0 193.5 -30.5t156 -90t105.5 -156t38 -221.5t-38 -221.5t-105.5 -156t-156 -90t-193.5 -30.5h-174v-438h-355zM455 760h143q81 0 125.5 46t44.5 130q0 85 -43.5 130.5t-126.5 45.5h-143v-352z" />
<glyph unicode="Q" horiz-adv-x="1263" d="M59 717q0 170 34 304.5t103 234t181.5 153t261.5 53.5t261.5 -53.5t181.5 -153t103 -234t34 -304.5q0 -345 -138 -537l133 -180l-276 -199l-145 197q-71 -27 -154 -27q-149 0 -261.5 54t-181.5 154t-103 234.5t-34 303.5zM428 717q0 -201 51.5 -298t159.5 -97t160.5 97.5 t52.5 297.5t-52.5 297.5t-160.5 97.5t-159.5 -97t-51.5 -298z" />
<glyph unicode="R" horiz-adv-x="1202" d="M100 0v1434h533q105 0 195.5 -30.5t160.5 -89t110 -152t40 -212.5q0 -151 -57.5 -258.5t-163.5 -163.5l268 -528h-383l-228 467h-120v-467h-355zM455 782h163q76 0 121 42.5t45 119.5t-45 119.5t-121 42.5h-163v-324z" />
<glyph unicode="S" horiz-adv-x="1075" d="M47 1022q0 112 40 198.5t110.5 138t159.5 77.5t194 26q117 0 209 -24t188 -76v-344q-199 117 -373 117q-167 0 -167 -107q0 -37 35 -66t90.5 -51.5t123 -47.5t135 -61.5t123 -84.5t90.5 -126.5t35 -178.5q0 -115 -43 -202.5t-116.5 -138t-163 -75.5t-191.5 -25 q-243 0 -440 92v359q85 -53 193 -84t210 -31q183 0 183 111q0 39 -34.5 68.5t-89.5 51.5t-121.5 45.5t-133.5 58.5t-122 81.5t-89.5 123t-34.5 175.5z" />
<glyph unicode="T" horiz-adv-x="1052" d="M23 1098v336h1007v-336h-328v-1098h-352v1098h-327z" />
<glyph unicode="U" horiz-adv-x="1247" d="M90 459v975h354v-945q0 -95 45 -138.5t134 -43.5q90 0 135 43.5t45 138.5v945h352v-975q0 -245 -140 -366.5t-392 -121.5q-251 0 -392 121.5t-141 366.5z" />
<glyph unicode="V" horiz-adv-x="1222" d="M0 1434h377l182 -752q30 -137 53 -307q18 151 52 307l182 752h377l-418 -1434h-387z" />
<glyph unicode="W" horiz-adv-x="1720" d="M4 1434h381l150 -887l206 880h240l205 -880l149 887h383l-348 -1434h-334l-176 748l-176 -748h-334z" />
<glyph unicode="X" horiz-adv-x="1187" d="M-20 0l380 737l-350 697h387l197 -430l197 430h387l-353 -697l383 -737h-395l-219 463l-219 -463h-395z" />
<glyph unicode="Y" horiz-adv-x="1202" d="M-2 1434h385l219 -539l217 539h387l-428 -891v-543h-352v543z" />
<glyph unicode="Z" horiz-adv-x="1028" d="M37 0v225l483 873h-457v336h906v-226l-482 -864h500v-344h-950z" />
<glyph unicode="[" horiz-adv-x="661" d="M113 -328v1884h501v-307h-178v-1269h178v-308h-501z" />
<glyph unicode="\" horiz-adv-x="804" d="M31 1554h250l493 -1675h-250z" />
<glyph unicode="]" horiz-adv-x="661" d="M49 -20h176v1269h-176v307h502v-1884h-502v308z" />
<glyph unicode="^" horiz-adv-x="1062" d="M41 692l319 742h345l317 -742h-354l-136 402l-137 -402h-354z" />
<glyph unicode="_" horiz-adv-x="806" d="M0 -111h807v-290h-807v290z" />
<glyph unicode="`" horiz-adv-x="653" d="M61 1862h359l172 -314h-309z" />
<glyph unicode="a" horiz-adv-x="974" d="M35 281q0 150 99.5 230.5t266.5 80.5q71 0 148 -19v43q0 119 -152 119q-154 0 -301 -59v276q171 60 336 60q219 0 333 -95.5t114 -320.5v-307q0 -62 55 -62q13 0 33 4v-225q-80 -22 -160 -22q-132 0 -197 71q-103 -84 -260 -84q-135 0 -225 80t-90 230zM354 287 q0 -54 26 -79.5t66 -25.5q63 0 103 37v170q-42 10 -72 10q-123 0 -123 -112z" />
<glyph unicode="b" d="M80 0v1434h336v-519q86 97 221 97q171 0 255.5 -139t84.5 -381q0 -84 -10.5 -157t-36 -141t-64.5 -116.5t-100 -77.5t-139 -29q-87 0 -149 37t-95 88v-96h-303zM416 336q42 -76 112 -76q64 0 91.5 57t27.5 175t-27.5 174.5t-91.5 56.5q-70 0 -112 -76v-311z" />
<glyph unicode="c" horiz-adv-x="804" d="M43 479q0 128 37 230.5t103 168t153.5 100t191.5 34.5q126 0 217 -43v-275q-72 35 -159 35q-93 0 -149 -61.5t-56 -175.5q0 -113 53.5 -172.5t143.5 -59.5q98 0 178 39v-287q-96 -41 -244 -41q-97 0 -181.5 32.5t-149 94.5t-101.5 160t-37 221z" />
<glyph unicode="d" d="M49 492q0 242 84.5 381t255.5 139q135 0 221 -97v519h336v-1434h-303v96q-33 -51 -94.5 -88t-149.5 -37q-78 0 -139 29t-100 77.5t-64.5 116.5t-36 141t-10.5 157zM379 492q0 -118 27.5 -175t91.5 -57q70 0 112 76v311q-42 76 -112 76q-64 0 -91.5 -56.5t-27.5 -174.5z " />
<glyph unicode="e" horiz-adv-x="964" d="M45 492q0 245 119.5 382.5t333.5 137.5t331 -166q97 -138 97 -374q0 -48 -4 -101h-529q20 -81 75 -117.5t148 -36.5q134 0 248 43v-235q-123 -54 -299 -54q-248 0 -384 137t-136 384zM379 573h235q-2 87 -27.5 131t-80.5 44q-115 0 -127 -175z" />
<glyph unicode="f" horiz-adv-x="696" d="M35 694v289h121v109q0 84 22 149.5t57 106t84 67t98.5 37t104.5 10.5q110 0 193 -35v-272q-49 19 -103 19q-120 0 -120 -103v-88h182v-289h-182v-694h-336v694h-121z" />
<glyph unicode="g" d="M49 492q0 106 17.5 194.5t56 164t108.5 118.5t166 43q89 0 150.5 -36.5t95.5 -90.5v98h303v-995q0 -219 -131.5 -343t-380.5 -124q-187 0 -305 53v279q111 -43 254 -43q227 0 227 178v80q-90 -97 -221 -97q-172 0 -256 139.5t-84 381.5zM379 492q0 -118 27.5 -175 t91.5 -57q70 0 112 76v311q-40 76 -112 76q-64 0 -91.5 -56.5t-27.5 -174.5z" />
<glyph unicode="h" horiz-adv-x="1013" d="M80 0v1434h336v-506q91 84 229 84q56 0 107.5 -19.5t94 -56.5t68 -97t25.5 -134v-705h-336v621q0 79 -78 79q-66 0 -110 -69v-631h-336z" />
<glyph unicode="i" horiz-adv-x="497" d="M59 1288q0 90 54.5 135t136.5 45q81 0 134.5 -45t53.5 -135t-53.5 -137t-134.5 -47t-136 47t-55 137zM82 0v983h336v-983h-336z" />
<glyph unicode="j" horiz-adv-x="507" d="M-82 -180q38 -10 72 -10q49 0 74.5 25t25.5 81v1067h336v-1120q0 -173 -94.5 -257.5t-243.5 -84.5q-105 0 -170 26v273zM68 1288q0 90 54 135t136 45q83 0 137 -45t54 -135t-54.5 -137t-136.5 -47q-81 0 -135.5 47t-54.5 137z" />
<glyph unicode="k" horiz-adv-x="1011" d="M80 0v1434h336v-801h73l152 350h373l-250 -489l260 -494h-375l-162 344h-71v-344h-336z" />
<glyph unicode="l" horiz-adv-x="497" d="M82 0v1495h336v-1495h-336z" />
<glyph unicode="m" horiz-adv-x="1486" d="M80 0v983h303v-88q40 51 104.5 84t145.5 33q150 0 227 -115q106 115 264 115q142 0 215.5 -87t73.5 -223v-702h-328v621q0 79 -71 79q-58 0 -103 -61v-639h-329v621q0 79 -70 79q-57 0 -102 -63v-637h-330z" />
<glyph unicode="n" horiz-adv-x="1013" d="M80 0v983h303v-88q98 117 262 117q56 0 107.5 -19.5t94 -56.5t68 -97t25.5 -134v-705h-336v621q0 79 -78 79q-66 0 -110 -69v-631h-336z" />
<glyph unicode="o" horiz-adv-x="1011" d="M45 492q0 243 120.5 381.5t340.5 138.5t339.5 -137.5t119.5 -382.5q0 -244 -120 -382.5t-339 -138.5t-340 138.5t-121 382.5zM383 492q0 -121 28.5 -176.5t94.5 -55.5t94.5 55.5t28.5 176.5t-28.5 177t-94.5 56t-94.5 -56t-28.5 -177z" />
<glyph unicode="p" d="M80 -451v1434h303v-96q33 51 95 88t149 37q78 0 139 -29t100 -77t64.5 -116t36 -141t10.5 -157q0 -158 -35 -272.5t-112.5 -181.5t-192.5 -67q-135 0 -221 97v-519h-336zM416 336q42 -76 112 -76q64 0 91.5 57t27.5 175t-27.5 174.5t-91.5 56.5q-70 0 -112 -76v-311z" />
<glyph unicode="q" d="M49 492q0 84 10.5 157t36 141t64.5 116t100 77t139 29q88 0 149.5 -37t94.5 -88v96h303v-1434h-336v519q-86 -97 -221 -97q-115 0 -192.5 67t-112.5 181.5t-35 272.5zM379 492q0 -118 27.5 -175t91.5 -57q70 0 112 76v311q-42 76 -112 76q-64 0 -91.5 -56.5t-27.5 -174.5 z" />
<glyph unicode="r" horiz-adv-x="706" d="M80 0v983h303v-137q76 160 262 159q19 0 39 -1v-342q-26 3 -49 3q-152 0 -219 -139v-526h-336z" />
<glyph unicode="s" horiz-adv-x="856" d="M53 698q0 145 102.5 229.5t297.5 84.5q160 0 299 -62v-266q-125 70 -250 70q-113 0 -113 -62q0 -23 23.5 -40.5t61.5 -30t83.5 -27t91 -38t83.5 -55.5t61.5 -86.5t23.5 -125.5q0 -82 -32 -145t-87 -100q-56 -38 -124 -56q-65 -18 -138 -17h-8q-233 3 -365 72v281 q59 -37 138 -58.5t157 -21.5q123 0 123 59q0 22 -23.5 38.5t-61.5 29t-83.5 26t-91 36.5t-83.5 54.5t-61.5 86t-23.5 124.5z" />
<glyph unicode="t" horiz-adv-x="724" d="M27 694v289h123v229l335 78v-307h195v-289h-195v-325q0 -57 23 -83t74 -26q52 0 98 21v-275q-77 -35 -199 -35q-45 0 -87.5 8.5t-88 32t-79 59.5t-55 97t-21.5 139v387h-123z" />
<glyph unicode="u" horiz-adv-x="1013" d="M74 279v704h336v-621q0 -79 77 -79q67 0 111 69v631h336v-983h-303v90q-97 -119 -262 -119q-55 0 -106.5 20t-94 57t-68.5 97t-26 134z" />
<glyph unicode="v" horiz-adv-x="1019" d="M4 983h371l100 -436q22 -106 35 -242q11 119 37 242l100 436h369l-336 -983h-338z" />
<glyph unicode="w" horiz-adv-x="1415" d="M10 983h357l92 -565l123 565h252l122 -565l93 565h356l-262 -983h-324l-110 502l-113 -502h-324z" />
<glyph unicode="x" horiz-adv-x="983" d="M2 0l254 502l-242 481h365l86 -215l11 -41q11 -41 16 -63q11 52 28 104l86 215h363l-242 -481l254 -502h-371l-80 197q-22 60 -38 127q-14 -58 -39 -127l-80 -197h-371z" />
<glyph unicode="y" horiz-adv-x="1028" d="M-2 983h367l161 -565l127 565h369l-350 -1100q-60 -191 -180 -280q-97 -69 -225 -69q-61 0 -128 15v275q16 -3 32 -3q31 0 60 11q56 14 97 68q29 34 51 88z" />
<glyph unicode="z" horiz-adv-x="837" d="M47 0v229l320 471h-301v283h706v-240l-309 -454h328v-289h-744z" />
<glyph unicode="{" horiz-adv-x="708" d="M20 461v307q41 0 63.5 3t46 15t33 38.5t9.5 70.5v369q0 176 134 258.5t351 33.5v-307q-91 15 -126 -18t-35 -125v-266q0 -102 -51.5 -162.5t-112.5 -63.5q62 -3 113 -63t51 -162v-266q0 -92 35 -125t126 -18v-308q-216 -49 -350.5 34t-134.5 259v369q0 43 -10 69.5 t-32.5 38.5t-46 15.5t-63.5 3.5z" />
<glyph unicode="|" horiz-adv-x="575" d="M113 -205v1864h352v-1864h-352z" />
<glyph unicode="}" horiz-adv-x="708" d="M51 -20q91 -15 125.5 17.5t34.5 125.5v266q0 102 52 162t112 63q-60 3 -112 63.5t-52 162.5v266q0 93 -34.5 125.5t-125.5 17.5v307q215 49 349.5 -33.5t134.5 -258.5v-369q0 -44 10 -70.5t33 -38.5t45.5 -15t62.5 -3v-307q-40 0 -62.5 -3.5t-45.5 -15.5t-33 -38.5 t-10 -69.5v-369q0 -176 -134.5 -259t-349.5 -34v308z" />
<glyph unicode="~" horiz-adv-x="946" d="M82 532q-23 174 33 268.5t180 94.5q69 0 133 -22t112 -44t78 -22t43 16.5t13 57.5h198q25 -173 -31.5 -268t-181.5 -95q-67 0 -131.5 22t-113.5 44t-78 22t-41 -17t-14 -57h-199z" />
<glyph unicode="&#xa2;" horiz-adv-x="831" d="M47 479q0 199 86 331t238 177v236h258v-217q64 -9 121 -37v-275q-72 35 -160 35q-93 0 -149 -61.5t-56 -175.5q0 -113 52.5 -172.5t142.5 -59.5q100 0 180 39v-287q-65 -27 -131 -35v-217h-258v232q-148 41 -236 166.5t-88 320.5z" />
<glyph unicode="&#xa3;" horiz-adv-x="1030" d="M51 0v336h39q109 0 109 145v82h-115v262h115v156q0 111 35 197t97 138t143.5 78.5t178.5 26.5q150 0 277 -59v-336q-99 61 -207 61q-158 0 -158 -161v-101h295v-262h-295v-82q0 -109 -51 -145h465v-336h-928z" />
<glyph unicode="&#xa5;" horiz-adv-x="1208" d="M33 1393h389l182 -498l182 498h388l-318 -648h182v-200h-258v-92h258v-201h-258v-252h-352v252h-258v201h258v92h-258v200h182z" />
<glyph unicode="&#xa8;" horiz-adv-x="878" d="M61 1706q0 70 49.5 120t120.5 50t120.5 -50t49.5 -120t-49.5 -120t-120.5 -50t-120.5 50t-49.5 120zM477 1706q0 70 49.5 120t120.5 50t120.5 -50t49.5 -120t-49.5 -120t-120.5 -50t-120.5 50t-49.5 120z" />
<glyph unicode="&#xa9;" horiz-adv-x="1396" d="M55 717q0 176 51 318t139.5 233.5t204.5 140.5t248 49q133 0 249 -49t204 -140.5t139 -233.5t51 -318t-51 -318t-139 -234t-204 -141t-249 -49q-132 0 -248 49t-204.5 140.5t-139.5 234t-51 318.5zM199 717q0 -294 136.5 -448t362.5 -154q227 0 364.5 154t137.5 448 t-137.5 448t-364.5 154q-226 0 -362.5 -154t-136.5 -448zM367 705q0 200 111.5 312.5t285.5 112.5q104 0 178 -43v-225q-59 35 -129 35q-78 0 -124 -45.5t-46 -134.5q0 -87 44 -130.5t118 -43.5q90 0 145 37v-236q-78 -41 -200 -41q-169 0 -276 107.5t-107 294.5z" />
<glyph unicode="&#xab;" horiz-adv-x="1071" d="M45 465v53l209 373h326l-228 -399l228 -400h-326zM492 465v53l208 373h326l-225 -399l225 -400h-326z" />
<glyph unicode="&#xad;" horiz-adv-x="739" d="M84 352v291h571v-291h-571z" />
<glyph unicode="&#xae;" horiz-adv-x="1396" d="M55 717q0 176 51 318t139.5 233.5t204.5 140.5t248 49q133 0 249 -49t204 -140.5t139 -233.5t51 -318t-51 -318t-139 -234t-204 -141t-249 -49q-132 0 -248 49t-204.5 140.5t-139.5 234t-51 318.5zM199 717q0 -294 136.5 -448t362.5 -154q227 0 364.5 154t137.5 448 t-137.5 448t-364.5 154q-226 0 -362.5 -154t-136.5 -448zM432 315v803h307q135 0 210 -69.5t75 -200.5q0 -161 -119 -230l121 -303h-217l-109 260h-45v-260h-223zM655 754h66q80 0 80 84q0 80 -80 80h-66v-164z" />
<glyph unicode="&#xb4;" horiz-adv-x="653" d="M61 1548l170 314h361l-221 -314h-310z" />
<glyph unicode="&#xb8;" horiz-adv-x="591" d="M61 -240q61 -24 132 -24q40 0 65 13.5t25 37.5q0 29 -46 40t-118 -1l43 174h248l-27 -98q64 -13 105.5 -56t41.5 -116q0 -98 -78 -153.5t-182 -55.5q-72 0 -117 7.5t-92 27.5v204z" />
<glyph unicode="&#xbb;" horiz-adv-x="1071" d="M47 92l225 400l-225 399h324l211 -373v-53l-211 -373h-324zM494 92l225 400l-225 399h323l211 -373v-53l-211 -373h-323z" />
<glyph unicode="&#x2c6;" horiz-adv-x="854" d="M61 1542l207 320h318l207 -320h-283l-82 119l-84 -119h-283z" />
<glyph unicode="&#x2da;" horiz-adv-x="659" d="M61 1765q0 118 76 187t193 69q118 0 193 -68.5t75 -187.5q0 -120 -75 -189t-193 -69q-117 0 -193 69t-76 189zM264 1765q0 -34 17.5 -52.5t48.5 -18.5t48 18.5t17 52.5t-17 52t-48 18t-48.5 -18.5t-17.5 -51.5z" />
<glyph unicode="&#x2dc;" horiz-adv-x="802" d="M78 1538q-37 149 14 236.5t160 87.5q53 0 102.5 -19t88.5 -38t67 -19q15 0 25 5.5t15 17t7 19t4 23.5h164q38 -150 -13.5 -237.5t-160.5 -87.5q-54 0 -103.5 19.5t-88 39t-66.5 19.5q-6 0 -11.5 -1.5t-9.5 -3t-7.5 -5l-6 -6t-4.5 -7.5l-3 -7.5t-2.5 -9.5t-2 -9t-1.5 -9 t-1 -8h-166z" />
<glyph unicode="&#x401;" horiz-adv-x="1019" d="M100 0v1434h846v-316h-491v-244h444v-307h-444v-248h503v-319h-858zM145 1706q0 70 49.5 120t120.5 50t120.5 -50t49.5 -120t-49.5 -120t-120.5 -50t-120.5 50t-49.5 120zM561 1706q0 70 49.5 120t120.5 50t120.5 -50t49.5 -120t-49.5 -120t-120.5 -50t-120.5 50 t-49.5 120z" />
<glyph unicode="&#x402;" horiz-adv-x="1271" d="M23 1098v336h1007v-336h-344v-201q103 57 223 57q85 0 156 -36t116.5 -110.5t45.5 -174.5v-348q0 -88 -25.5 -151.5t-71 -97.5t-97.5 -49.5t-115 -15.5q-68 0 -138 17v278q34 -3 49 4q25 3 35 20t10 52v193q0 83 -83 83q-50 0 -105 -38v-580h-352v1098h-311z" />
<glyph unicode="&#x403;" horiz-adv-x="964" d="M100 0v1434h844v-336h-489v-1098h-355zM315 1548l170 314h359l-221 -314h-308z" />
<glyph unicode="&#x404;" horiz-adv-x="1034" d="M49 707q0 182 50.5 327t138.5 238t205.5 141.5t254.5 48.5q135 0 273 -55v-342q-86 47 -221 47q-229 0 -295 -233h348v-322h-357q53 -238 291 -238q116 0 244 54v-350q-136 -52 -287 -52q-107 0 -201.5 27t-176.5 85t-141 143t-92.5 208t-33.5 273z" />
<glyph unicode="&#x405;" horiz-adv-x="1075" d="M47 1022q0 112 40 198.5t110.5 138t159.5 77.5t194 26q117 0 209 -24t188 -76v-344q-199 117 -373 117q-167 0 -167 -107q0 -37 35 -66t90.5 -51.5t123 -47.5t135 -61.5t123 -84.5t90.5 -126.5t35 -178.5q0 -115 -43 -202.5t-116.5 -138t-163 -75.5t-191.5 -25 q-243 0 -440 92v359q85 -53 193 -84t210 -31q183 0 183 111q0 39 -34.5 68.5t-89.5 51.5t-121.5 45.5t-133.5 58.5t-122 81.5t-89.5 123t-34.5 175.5z" />
<glyph unicode="&#x406;" horiz-adv-x="555" d="M100 0v1434h355v-1434h-355z" />
<glyph unicode="&#x407;" horiz-adv-x="555" d="M-119 1706q0 70 49.5 120t120.5 50t120.5 -50t49.5 -120t-49.5 -120t-120.5 -50t-120.5 50t-49.5 120zM100 0v1434h355v-1434h-355zM297 1706q0 70 49.5 120t120.5 50t120.5 -50t49.5 -120t-49.5 -120t-120.5 -50t-120.5 50t-49.5 120z" />
<glyph unicode="&#x408;" horiz-adv-x="890" d="M39 20v330q91 -43 215 -43q92 0 141 45t49 150v596h-276v336h629v-1014q0 -97 -25.5 -174t-68.5 -127.5t-103 -84.5t-125.5 -48.5t-138.5 -14.5q-164 0 -297 49z" />
<glyph unicode="&#x409;" horiz-adv-x="1849" d="M6 0v317q58 -13 100.5 -0.5t69.5 62.5q40 66 62 316t38 739h910v-527h176q205 0 331 -117.5t126 -336.5q0 -217 -126 -334t-331 -119h-531v1098h-210q-18 -400 -49 -622t-109 -335q-135 -208 -457 -141zM1186 322h137q141 0 141 131q0 66 -37 99.5t-104 33.5h-137v-264z " />
<glyph unicode="&#x40a;" horiz-adv-x="1775" d="M100 0v1434h355v-527h303v527h352v-527h178q205 0 330 -117.5t125 -336.5q0 -218 -125 -334.5t-330 -118.5h-530v571h-303v-571h-355zM1110 322h139q142 0 142 131q0 66 -38 99.5t-104 33.5h-139v-264z" />
<glyph unicode="&#x40b;" horiz-adv-x="1282" d="M23 1098v336h1007v-336h-344v-201q103 57 223 57q85 0 156 -36t116.5 -110.5t45.5 -174.5v-633h-353v535q0 83 -83 83q-50 0 -105 -38v-580h-352v1098h-311z" />
<glyph unicode="&#x40c;" horiz-adv-x="1189" d="M100 0v1434h355v-562h88l235 562h410l-338 -717l350 -717h-409l-246 559h-90v-559h-355zM406 1548l169 314h359l-221 -314h-307z" />
<glyph unicode="&#x40e;" horiz-adv-x="1177" d="M-8 1434h375l247 -643l191 643h377l-387 -1082q-41 -112 -92 -189.5t-108.5 -118t-114 -57t-122.5 -16.5q-96 0 -192 29v313q86 -20 153 -8q41 4 70 28t57 70zM291 1612v239q123 -63 297 -63q175 0 295 63v-239q-129 -72 -295 -72q-168 0 -297 72z" />
<glyph unicode="&#x40f;" horiz-adv-x="1247" d="M100 0v1434h355v-1098h338v1098h352v-1434h-346v-309h-350v309h-349z" />
<glyph unicode="&#x410;" horiz-adv-x="1249" d="M-8 0l454 1434h357l454 -1434h-368l-60 215h-407l-60 -215h-370zM494 506h262l-68 246q-42 158 -63 309q-22 -159 -62 -309z" />
<glyph unicode="&#x411;" horiz-adv-x="1144" d="M100 0v1434h920v-328h-565v-201h217q196 0 320 -119.5t124 -332.5q0 -214 -123.5 -333.5t-320.5 -119.5h-572zM455 307h166q69 0 106 38.5t37 107.5q0 68 -37.5 106.5t-105.5 38.5h-166v-291z" />
<glyph unicode="&#x412;" horiz-adv-x="1193" d="M100 0v1434h588q189 0 302.5 -98.5t113.5 -268.5q0 -215 -158 -309q85 -40 147 -129t62 -223q0 -105 -41.5 -186t-111.5 -127.5t-152.5 -69.5t-173.5 -23h-576zM455 297h176q72 0 118 33.5t46 113.5q0 78 -45 113t-113 35h-182v-295zM455 864h170q61 0 97 36.5t36 100.5 q0 70 -37 105t-105 35h-161v-277z" />
<glyph unicode="&#x413;" horiz-adv-x="964" d="M100 0v1434h844v-336h-489v-1098h-355z" />
<glyph unicode="&#x414;" horiz-adv-x="1406" d="M16 -309v645h148q113 420 110 1098h936v-1098h162v-645h-350v309h-655v-309h-351zM532 336h326v762h-242q-9 -426 -84 -762z" />
<glyph unicode="&#x415;" horiz-adv-x="1019" d="M100 0v1434h846v-316h-491v-244h444v-307h-444v-248h503v-319h-858z" />
<glyph unicode="&#x416;" horiz-adv-x="1769" d="M-8 0l327 723l-313 711h404l213 -576h86v576h352v-576h88l213 576h401l-311 -711l326 -723h-404l-225 551h-88v-551h-352v551h-88l-226 -551h-403z" />
<glyph unicode="&#x417;" horiz-adv-x="1069" d="M51 31v352q182 -76 369 -76q237 0 237 139q0 67 -43 97t-112 30h-232v322h201q137 0 137 115q0 122 -188 125q-175 0 -354 -76v330q190 73 391 73q237 0 374.5 -101.5t137.5 -303.5q0 -109 -51.5 -183.5t-129.5 -115.5q96 -36 167 -127t71 -228q0 -92 -31.5 -167 t-84 -123.5t-123 -81t-145 -46.5t-153.5 -14q-242 0 -438 60z" />
<glyph unicode="&#x418;" horiz-adv-x="1267" d="M102 0v1434h353v-437q0 -174 -33 -374l426 811h319v-1434h-352v436q0 201 33 375l-426 -811h-320z" />
<glyph unicode="&#x419;" horiz-adv-x="1267" d="M100 0v1434h355v-437q0 -190 -35 -374l426 811h319v-1434h-352v436q0 175 33 375l-424 -811h-322zM309 1597v250q135 -69 324 -69q187 0 325 69v-250q-67 -44 -142 -65t-183 -21q-196 0 -324 86z" />
<glyph unicode="&#x41a;" horiz-adv-x="1189" d="M100 0v1434h355v-562h88l235 562h410l-338 -717l350 -717h-409l-246 559h-90v-559h-355z" />
<glyph unicode="&#x41b;" horiz-adv-x="1312" d="M6 0v317q58 -13 100.5 -0.5t69.5 62.5q40 66 62 316t38 739h936v-1434h-354v1098h-237q-18 -400 -49 -622t-109 -335q-135 -208 -457 -141z" />
<glyph unicode="&#x41c;" horiz-adv-x="1486" d="M100 0v1434h306l337 -639l338 639h305v-1434h-346v424q0 200 35 405l-270 -516h-121l-270 516q32 -188 32 -405v-424h-346z" />
<glyph unicode="&#x41d;" horiz-adv-x="1239" d="M100 0v1434h355v-549h329v549h353v-1434h-353v549h-329v-549h-355z" />
<glyph unicode="&#x41e;" horiz-adv-x="1263" d="M51 717q0 170 34 304.5t103 234t181.5 153t261.5 53.5t261 -53.5t181 -153t103 -234t34 -304.5q0 -169 -34 -303.5t-103 -234.5t-181 -154t-261 -54t-261.5 54t-181.5 154t-103 234.5t-34 303.5zM420 717q0 -201 51.5 -298t159.5 -97q110 0 161.5 97t51.5 298t-51.5 298 t-161.5 97q-108 0 -159.5 -97t-51.5 -298z" />
<glyph unicode="&#x41f;" horiz-adv-x="1253" d="M100 0v1434h1051v-1434h-352v1098h-344v-1098h-355z" />
<glyph unicode="&#x420;" horiz-adv-x="1157" d="M100 0v1434h529q105 0 193.5 -30.5t156 -90t105.5 -156t38 -221.5t-38 -221.5t-105.5 -156t-156 -90t-193.5 -30.5h-174v-438h-355zM455 760h143q81 0 125.5 46t44.5 130q0 85 -43.5 130.5t-126.5 45.5h-143v-352z" />
<glyph unicode="&#x421;" horiz-adv-x="1030" d="M47 707q1 179 51.5 323.5t138.5 238t205 143.5t254 50q135 0 273 -55v-342q-86 47 -221 47q-151 0 -241.5 -104.5t-90.5 -300.5q0 -190 85 -289t236 -99q118 0 242 54v-350q-136 -52 -285 -52q-106 0 -201 28t-177 87t-141.5 144.5t-93.5 207.5t-34 269z" />
<glyph unicode="&#x422;" horiz-adv-x="1052" d="M23 1098v336h1007v-336h-328v-1098h-352v1098h-327z" />
<glyph unicode="&#x423;" horiz-adv-x="1177" d="M-8 1434h375l247 -643l191 643h377l-387 -1082q-41 -112 -92 -189.5t-108.5 -118t-114 -57t-122.5 -16.5q-96 0 -192 29v313q86 -20 153 -8q41 4 70 28t57 70z" />
<glyph unicode="&#x424;" horiz-adv-x="1548" d="M27 717q0 257 162.5 428.5t418.5 191.5v176h338v-176q254 -23 415 -193.5t161 -426.5t-161 -427t-415 -194v-176h-338v176q-258 21 -419.5 188.5t-161.5 432.5zM387 717q0 -135 57 -218t172 -96v627q-229 -25 -229 -313zM940 403q113 15 167 96.5t54 217.5 q0 285 -221 313v-627z" />
<glyph unicode="&#x425;" horiz-adv-x="1187" d="M-20 0l380 737l-350 697h387l197 -430l197 430h387l-353 -697l383 -737h-395l-219 463l-219 -463h-395z" />
<glyph unicode="&#x426;" horiz-adv-x="1333" d="M100 0v1434h355v-1098h338v1098h352v-1098h141v-645h-336v309h-850z" />
<glyph unicode="&#x427;" horiz-adv-x="1204" d="M74 848v586h352v-523q0 -69 38.5 -104t110.5 -35q94 0 177 47v615h352v-1434h-352v485q-130 -49 -267 -49q-88 1 -161.5 26t-130 74t-88 129t-31.5 183z" />
<glyph unicode="&#x428;" horiz-adv-x="1802" d="M100 0v1434h355v-1098h270v1098h352v-1098h273v1098h352v-1434h-1602z" />
<glyph unicode="&#x429;" horiz-adv-x="1863" d="M100 0v1434h355v-1098h258v1098h352v-1098h258v1098h352v-1098h142v-645h-336v309h-1381z" />
<glyph unicode="&#x42a;" horiz-adv-x="1339" d="M23 1098v336h630v-480h160q104 0 193 -29.5t156.5 -87t106 -150t38.5 -210.5t-38.5 -210.5t-106 -150t-156.5 -87t-193 -29.5h-512v1098h-278zM653 322h133q77 0 122.5 40t45.5 115q0 74 -46 115t-122 41h-133v-311z" />
<glyph unicode="&#x42b;" horiz-adv-x="1695" d="M100 0v1434h355v-480h159q104 0 193 -29.5t156.5 -87t106 -150t38.5 -210.5t-38.5 -210.5t-106 -150t-156.5 -87t-193 -29.5h-514zM455 322h131q78 0 123 40t45 115q0 74 -46 115t-122 41h-131v-311zM1241 0v1434h354v-1434h-354z" />
<glyph unicode="&#x42c;" horiz-adv-x="1140" d="M100 0v1434h355v-480h159q104 0 193 -29.5t156.5 -87t106 -150t38.5 -210.5t-38.5 -210.5t-106 -150t-156.5 -87t-193 -29.5h-514zM455 322h131q78 0 123 40t45 115q0 74 -46 115t-122 41h-131v-311z" />
<glyph unicode="&#x42d;" horiz-adv-x="1034" d="M53 23v350q128 -54 244 -54q238 0 291 238h-357v322h349q-66 233 -295 233q-136 0 -222 -47v342q138 55 273 55q137 0 254.5 -48.5t205.5 -141.5t138.5 -238t50.5 -327q0 -150 -33.5 -273t-92.5 -208t-141 -143t-176.5 -85t-201.5 -27q-151 0 -287 52z" />
<glyph unicode="&#x42e;" horiz-adv-x="1781" d="M100 0v1434h355v-549h143q30 273 166.5 425t384.5 152q149 0 261.5 -53.5t181.5 -153t103 -234t34 -304.5q0 -169 -34 -303.5t-103 -234.5t-181.5 -154t-261.5 -54q-248 0 -384.5 152.5t-166.5 425.5h-143v-549h-355zM938 717q0 -201 51.5 -298t159.5 -97q110 0 161.5 97 t51.5 298t-51.5 298t-161.5 97q-108 0 -159.5 -97t-51.5 -298z" />
<glyph unicode="&#x42f;" horiz-adv-x="1210" d="M16 0l281 526q-108 54 -166.5 161.5t-58.5 262.5q0 120 39.5 214t109.5 152t159.5 88t194.5 30h533v-1434h-352v467h-101h-12l-240 -467h-387zM424 944q0 -78 45.5 -120t120.5 -42h166v324h-166q-75 0 -120.5 -42t-45.5 -120z" />
<glyph unicode="&#x430;" horiz-adv-x="974" d="M35 281q0 150 99.5 230.5t266.5 80.5q71 0 148 -19v43q0 119 -152 119q-154 0 -301 -59v276q171 60 336 60q219 0 333 -95.5t114 -320.5v-307q0 -62 55 -62q13 0 33 4v-225q-80 -22 -160 -22q-132 0 -197 71q-103 -84 -260 -84q-135 0 -225 80t-90 230zM354 287 q0 -54 26 -79.5t66 -25.5q63 0 103 37v170q-42 10 -72 10q-123 0 -123 -112z" />
<glyph unicode="&#x431;" horiz-adv-x="1019" d="M53 567q0 261 81.5 429.5t250.5 254.5q89 45 255.5 102t248.5 109v-313q-42 -35 -180 -82.5t-183 -71.5q-116 -60 -125 -164q84 91 224 91q151 0 249.5 -127.5t98.5 -348.5q0 -229 -120 -352t-323 -123q-477 0 -477 596zM397 446q0 -198 121 -198q69 0 98 48t29 150 q0 103 -27.5 151t-93.5 48q-127 0 -127 -199z" />
<glyph unicode="&#x432;" horiz-adv-x="972" d="M80 0v983h506q86 0 151 -22t102 -59.5t54.5 -81.5t17.5 -95q0 -165 -137 -227q74 -29 117 -88t43 -144q0 -55 -17 -100.5t-54 -84t-103.5 -60t-157.5 -21.5h-522zM397 586h111q39 0 62.5 23t23.5 65t-24.5 65t-61.5 23h-111v-176zM399 221h117q94 0 94 88q0 90 -94 90 h-117v-178z" />
<glyph unicode="&#x433;" horiz-adv-x="776" d="M80 0v983h672v-289h-336v-694h-336z" />
<glyph unicode="&#x434;" horiz-adv-x="1120" d="M14 -260v534h111q82 280 82 709h764v-709h114v-534h-319v260h-432v-260h-320zM451 274h206v443h-149q-11 -242 -57 -443z" />
<glyph unicode="&#x435;" horiz-adv-x="964" d="M45 492q0 245 119.5 382.5t333.5 137.5t331 -166.5t93 -474.5h-529q20 -81 75 -117.5t148 -36.5q134 0 248 43v-235q-123 -54 -299 -54q-248 0 -384 137t-136 384zM379 573h235q-2 87 -27.5 131t-80.5 44q-115 0 -127 -175z" />
<glyph unicode="&#x436;" horiz-adv-x="1464" d="M14 0l226 487l-220 496h361l121 -350h67v350h326v-350h68l122 350h359l-217 -496l225 -487h-365l-126 344h-66v-344h-326v344h-65l-125 -344h-365z" />
<glyph unicode="&#x437;" horiz-adv-x="837" d="M47 18v263q51 -19 74.5 -26.5t70 -15.5t97.5 -8q84 0 127 18t43 60t-31 57t-86 15h-154v235h154q100 0 100 68q0 35 -36 53.5t-101 18.5q-68 0 -119 -12.5t-120 -38.5v262q72 26 138 36.5t167 10.5q107 0 188 -25.5t125.5 -68.5t66 -93t21.5 -106q0 -82 -41.5 -138 t-101.5 -77q75 -27 120.5 -88t45.5 -146q0 -59 -25 -111t-76 -95t-138.5 -68t-201.5 -25q-113 0 -174.5 9.5t-132.5 35.5z" />
<glyph unicode="&#x438;" d="M80 0v983h336v-221q0 -127 -19 -236l316 457h233v-983h-336v221q0 127 19 236l-316 -457h-233z" />
<glyph unicode="&#x439;" d="M80 0v983h336v-221q0 -127 -19 -236l316 457h233v-983h-336v221q0 127 19 236l-316 -457h-233zM211 1151v250q132 -70 303 -70q168 0 303 70v-250q-136 -76 -303 -76t-303 76z" />
<glyph unicode="&#x43a;" horiz-adv-x="1011" d="M80 0v983h336v-350h73l152 350h373l-250 -489l260 -494h-375l-162 344h-71v-344h-336z" />
<glyph unicode="&#x43b;" horiz-adv-x="1069" d="M20 0v293q82 -17 115 33q30 55 43 195.5t25 461.5h786v-983h-336v694h-127q-8 -239 -32.5 -377.5t-83.5 -216.5q-58 -78 -149.5 -103t-240.5 3z" />
<glyph unicode="&#x43c;" horiz-adv-x="1224" d="M80 0v983h305l227 -412l230 412h303v-983h-320v252q0 155 29 268l-190 -346h-101l-192 346q28 -110 28 -268v-252h-319z" />
<glyph unicode="&#x43d;" horiz-adv-x="1028" d="M80 0v983h336v-348h196v348h336v-983h-336v348h-196v-348h-336z" />
<glyph unicode="&#x43e;" horiz-adv-x="1011" d="M45 492q0 243 120.5 381.5t340.5 138.5t339.5 -137.5t119.5 -382.5q0 -244 -120 -382.5t-339 -138.5t-340 138.5t-121 382.5zM383 492q0 -121 28.5 -176.5t94.5 -55.5t94.5 55.5t28.5 176.5t-28.5 177t-94.5 56t-94.5 -56t-28.5 -177z" />
<glyph unicode="&#x43f;" horiz-adv-x="1019" d="M80 0v983h860v-983h-336v694h-188v-694h-336z" />
<glyph unicode="&#x440;" d="M80 -451v1434h303v-96q33 51 95 88t149 37q78 0 139 -29t100 -77t64.5 -116t36 -141t10.5 -157q0 -158 -35 -272.5t-112.5 -181.5t-192.5 -67q-135 0 -221 97v-519h-336zM416 336q42 -76 112 -76q64 0 91.5 57t27.5 175t-27.5 174.5t-91.5 56.5q-70 0 -112 -76v-311z" />
<glyph unicode="&#x441;" horiz-adv-x="804" d="M43 479q0 128 37 230.5t103 168t153.5 100t191.5 34.5q126 0 217 -43v-275q-72 35 -159 35q-93 0 -149 -61.5t-56 -175.5q0 -113 53.5 -172.5t143.5 -59.5q98 0 178 39v-287q-96 -41 -244 -41q-97 0 -181.5 32.5t-149 94.5t-101.5 160t-37 221z" />
<glyph unicode="&#x442;" horiz-adv-x="823" d="M29 694v289h768v-289h-217v-694h-336v694h-215z" />
<glyph unicode="&#x443;" horiz-adv-x="1028" d="M-2 983h367l161 -565l127 565h369l-350 -1100q-60 -191 -180 -280q-143 -102 -353 -54v275q49 -8 92 8q56 14 97 68q29 34 51 88z" />
<glyph unicode="&#x444;" horiz-adv-x="1372" d="M43 492q0 94 27.5 175.5t74 140t109 102.5t131 69t141.5 33v422h322v-422q91 -10 175 -47.5t153.5 -100t111 -159t41.5 -213.5t-41.5 -213.5t-111 -159t-153.5 -100.5t-175 -48v-422h-322v422q-92 10 -176.5 48t-154 100.5t-111 159t-41.5 213.5zM373 492q0 -104 41 -165 t118 -67v463q-77 -6 -118 -66.5t-41 -164.5zM840 260q77 6 119 67t42 165t-42 164.5t-119 66.5v-463z" />
<glyph unicode="&#x445;" horiz-adv-x="983" d="M2 0l254 502l-242 481h365l86 -215l11 -41q11 -41 16 -63q11 52 28 104l86 215h363l-242 -481l254 -502h-371l-80 197q-22 60 -38 127q-14 -58 -39 -127l-80 -197h-371z" />
<glyph unicode="&#x446;" horiz-adv-x="1077" d="M80 0v983h336v-709h176v709h336v-709h114v-534h-319v260h-643z" />
<glyph unicode="&#x447;" horiz-adv-x="985" d="M55 569v414h336v-360q0 -39 23 -58.5t59 -19.5q52 0 96 26v412h336v-983h-336v295q-54 -22 -97.5 -30.5t-109.5 -8.5q-60 0 -113.5 18t-97.5 54t-70 98t-26 143z" />
<glyph unicode="&#x448;" horiz-adv-x="1480" d="M80 0v983h336v-709h157v709h336v-709h156v709h336v-983h-1321z" />
<glyph unicode="&#x449;" horiz-adv-x="1540" d="M80 0v983h336v-709h151v709h336v-709h150v709h336v-709h114v-534h-319v260h-1104z" />
<glyph unicode="&#x44a;" horiz-adv-x="1134" d="M29 696v287h538v-274h168q88 0 159 -29.5t114.5 -80t66.5 -113t23 -132.5q0 -164 -92.5 -259t-270.5 -95h-504v696h-202zM567 238h88q107 0 107 116q0 117 -107 117h-88v-233z" />
<glyph unicode="&#x44b;" horiz-adv-x="1472" d="M80 0v983h336v-274h168q117 0 201.5 -51.5t123.5 -130.5t39 -173q0 -164 -92.5 -259t-271.5 -95h-504zM416 238h88q106 0 106 116q0 117 -106 117h-88v-233zM1057 0v983h336v-983h-336z" />
<glyph unicode="&#x44c;" horiz-adv-x="985" d="M80 0v983h336v-274h168q117 0 201.5 -51.5t123.5 -130.5t39 -173q0 -164 -92.5 -259t-271.5 -95h-504zM416 238h88q106 0 106 116q0 117 -106 117h-88v-233z" />
<glyph unicode="&#x44d;" horiz-adv-x="843" d="M51 12v273q93 -39 185 -39q165 0 208 137h-270v217h275q-45 141 -220 141q-87 0 -168 -34v262q102 43 234 43q108 0 198 -32t159 -95.5t108 -168t39 -239.5q0 -131 -37.5 -229.5t-105 -158t-155 -89t-192.5 -29.5q-151 0 -258 41z" />
<glyph unicode="&#x44e;" horiz-adv-x="1439" d="M80 0v983h336v-346h88q33 178 143 276.5t287 98.5q219 0 339 -139.5t120 -380.5t-120.5 -381t-338.5 -140q-177 0 -287 98.5t-143 276.5h-88v-346h-336zM811 492q0 -121 28.5 -176.5t94.5 -55.5q65 0 94 56t29 176t-29 176.5t-94 56.5q-66 0 -94.5 -56t-28.5 -177z" />
<glyph unicode="&#x44f;" horiz-adv-x="1005" d="M16 0l209 346q-77 42 -117 119t-40 172q0 71 22 132.5t66 110t115 76t163 27.5h492v-983h-330v289h-45h-10l-154 -289h-371zM397 623q0 -109 105 -109h94v217h-94q-105 0 -105 -108z" />
<glyph unicode="&#x451;" horiz-adv-x="964" d="M45 492q0 245 119.5 382.5t333.5 137.5t331 -166.5t93 -474.5h-529q20 -81 75 -117.5t148 -36.5q134 0 248 43v-235q-123 -54 -299 -54q-248 0 -384 137t-136 384zM104 1255q0 71 50 120.5t120 49.5t120 -49.5t50 -120.5t-50 -120.5t-120 -49.5t-120 49.5t-50 120.5z M379 573h235q-2 87 -27.5 131t-80.5 44q-115 0 -127 -175zM520 1255q0 71 50 120.5t120 49.5t120 -49.5t50 -120.5t-50 -120.5t-120 -49.5t-120 49.5t-50 120.5z" />
<glyph unicode="&#x452;" horiz-adv-x="1013" d="M-37 1116v197h117v121h336v-121h274v-197h-274v-188q91 84 229 84q56 0 107.5 -19.5t94 -56.5t68 -97t25.5 -134v-842q0 -173 -94.5 -257.5t-243.5 -84.5q-75 0 -141 16v277q50 -9 80 0q63 11 63 102v705q0 79 -78 79q-66 0 -110 -69v-631h-336v1116h-117z" />
<glyph unicode="&#x453;" horiz-adv-x="776" d="M80 0v983h672v-289h-336v-694h-336zM203 1098l170 313h358l-221 -313h-307z" />
<glyph unicode="&#x454;" horiz-adv-x="843" d="M45 477q0 135 39 239.5t108.5 168t160 95.5t198.5 32q129 0 231 -43v-262q-81 34 -168 34q-172 0 -217 -141h273v-217h-271q46 -137 209 -137q95 0 185 39v-273q-107 -41 -256 -41q-106 0 -193.5 29.5t-155.5 89t-105.5 158t-37.5 229.5z" />
<glyph unicode="&#x455;" horiz-adv-x="856" d="M53 698q0 145 102.5 229.5t297.5 84.5q160 0 299 -62v-266q-125 70 -250 70q-113 0 -113 -62q0 -23 23.5 -40.5t61.5 -30t83.5 -27t91 -38t83.5 -55.5t61.5 -86.5t23.5 -125.5q0 -82 -32 -145t-87.5 -100t-123.5 -55.5t-146 -17.5q-233 3 -365 72v281q59 -37 138 -58.5 t157 -21.5q123 0 123 59q0 22 -23.5 38.5t-61.5 29t-83.5 26t-91 36.5t-83.5 54.5t-61.5 86t-23.5 124.5z" />
<glyph unicode="&#x456;" horiz-adv-x="497" d="M59 1288q0 90 54.5 135t136.5 45q81 0 134.5 -45t53.5 -135t-53.5 -137t-134.5 -47t-136 47t-55 137zM82 0v983h336v-983h-336z" />
<glyph unicode="&#x457;" horiz-adv-x="497" d="M-123 1255q0 71 49.5 120.5t120.5 49.5t120.5 -49.5t49.5 -120.5t-49.5 -120.5t-120.5 -49.5t-120.5 49.5t-49.5 120.5zM82 0v983h336v-983h-336zM293 1255q0 71 49.5 120.5t120.5 49.5t120.5 -49.5t49.5 -120.5t-49.5 -120.5t-120.5 -49.5t-120.5 49.5t-49.5 120.5z" />
<glyph unicode="&#x458;" horiz-adv-x="507" d="M-82 -180q38 -10 72 -10q49 0 74.5 25t25.5 81v1067h336v-1120q0 -173 -94.5 -257.5t-243.5 -84.5q-105 0 -170 26v273zM68 1288q0 90 54 135t136 45q83 0 137 -45t54 -135t-54.5 -137t-136.5 -47q-81 0 -135.5 47t-54.5 137z" />
<glyph unicode="&#x459;" horiz-adv-x="1529" d="M20 0v293q45 -9 71 -0.5t46 41.5q31 51 42.5 181.5t23.5 467.5h774v-330h166q172 0 262 -91t90 -236q0 -148 -89.5 -237t-262.5 -89h-502v694h-115q-8 -239 -32.5 -377.5t-83.5 -216.5q-58 -78 -149.5 -103t-240.5 3zM977 238h88q92 0 92 88q0 90 -92 90h-88v-178z" />
<glyph unicode="&#x45a;" horiz-adv-x="1486" d="M80 0v983h336v-330h182v330h336v-330h168q171 0 260.5 -91t89.5 -236q0 -148 -89 -237t-261 -89h-504v393h-182v-393h-336zM934 238h88q94 0 94 88q0 90 -94 90h-88v-178z" />
<glyph unicode="&#x45b;" horiz-adv-x="1013" d="M-37 1116v197h117v121h336v-121h274v-197h-274v-188q91 84 229 84q56 0 107.5 -19.5t94 -56.5t68 -97t25.5 -134v-705h-336v621q0 79 -78 79q-66 0 -110 -69v-631h-336v1116h-117z" />
<glyph unicode="&#x45c;" horiz-adv-x="1011" d="M80 0v983h336v-350h73l152 350h373l-250 -489l260 -494h-375l-162 344h-71v-344h-336zM322 1098l170 313h358l-221 -313h-307z" />
<glyph unicode="&#x45e;" horiz-adv-x="1028" d="M-2 983h367l161 -565l127 565h369l-350 -1100q-60 -191 -180 -280q-143 -102 -353 -54v275q49 -8 92 8q56 14 97 68q29 34 51 88zM219 1159v240q125 -64 297 -64q173 0 295 64v-240q-129 -72 -295 -72q-168 0 -297 72z" />
<glyph unicode="&#x45f;" horiz-adv-x="1007" d="M80 0v983h336v-709h176v709h336v-983h-264v-260h-320v260h-264z" />
<glyph unicode="&#x490;" horiz-adv-x="964" d="M100 0v1434h494l2 286h348v-622h-489v-1098h-355z" />
<glyph unicode="&#x491;" horiz-adv-x="776" d="M80 0v983h352v246h320v-535h-336v-694h-336z" />
<glyph unicode="&#x2000;" horiz-adv-x="1010" />
<glyph unicode="&#x2001;" horiz-adv-x="2021" />
<glyph unicode="&#x2002;" horiz-adv-x="1010" />
<glyph unicode="&#x2003;" horiz-adv-x="2021" />
<glyph unicode="&#x2004;" horiz-adv-x="673" />
<glyph unicode="&#x2005;" horiz-adv-x="505" />
<glyph unicode="&#x2006;" horiz-adv-x="336" />
<glyph unicode="&#x2007;" horiz-adv-x="336" />
<glyph unicode="&#x2008;" horiz-adv-x="252" />
<glyph unicode="&#x2009;" horiz-adv-x="404" />
<glyph unicode="&#x200a;" horiz-adv-x="112" />
<glyph unicode="&#x2010;" horiz-adv-x="739" d="M84 352v291h571v-291h-571z" />
<glyph unicode="&#x2011;" horiz-adv-x="739" d="M84 352v291h571v-291h-571z" />
<glyph unicode="&#x2012;" horiz-adv-x="739" d="M84 352v291h571v-291h-571z" />
<glyph unicode="&#x2013;" horiz-adv-x="935" d="M84 352v291h770v-291h-770z" />
<glyph unicode="&#x2014;" horiz-adv-x="1339" d="M84 352v291h1171v-291h-1171z" />
<glyph unicode="&#x2018;" horiz-adv-x="479" d="M45 862l100 572h267l-27 -572h-340z" />
<glyph unicode="&#x2019;" horiz-adv-x="473" d="M70 862l26 572h340l-100 -572h-266z" />
<glyph unicode="&#x201a;" horiz-adv-x="479" d="M53 -311l29 571h338l-101 -571h-266z" />
<glyph unicode="&#x201c;" horiz-adv-x="866" d="M45 862l100 572h252l-26 -572h-326zM446 862l101 572h252l-27 -572h-326z" />
<glyph unicode="&#x201d;" horiz-adv-x="860" d="M70 862l26 572h326l-100 -572h-252zM471 862l27 572h325l-100 -572h-252z" />
<glyph unicode="&#x201e;" horiz-adv-x="864" d="M53 -311l29 571h324l-101 -571h-252zM455 -311l28 571h324l-100 -571h-252z" />
<glyph unicode="&#x2022;" horiz-adv-x="710" d="M96 719q0 83 38.5 142t95 84.5t124.5 25.5q107 0 182.5 -64.5t75.5 -187.5t-75.5 -187.5t-182.5 -64.5q-68 0 -124.5 25.5t-95 84.5t-38.5 142z" />
<glyph unicode="&#x2026;" horiz-adv-x="1439" d="M51 158q0 89 54.5 135.5t130.5 46.5q77 0 131.5 -46.5t54.5 -135.5q0 -90 -54.5 -137.5t-131.5 -47.5q-76 0 -130.5 48t-54.5 137zM535 158q0 89 54 135.5t130 46.5q77 0 131.5 -46.5t54.5 -135.5q0 -90 -54.5 -137.5t-131.5 -47.5q-76 0 -130 47.5t-54 137.5zM1018 158 q0 89 54 135.5t130 46.5q78 0 132.5 -46.5t54.5 -135.5q0 -90 -55 -137.5t-132 -47.5q-76 0 -130 47.5t-54 137.5z" />
<glyph unicode="&#x202f;" horiz-adv-x="404" />
<glyph unicode="&#x2039;" horiz-adv-x="624" d="M45 465v53l209 373h326l-228 -399l228 -400h-326z" />
<glyph unicode="&#x203a;" horiz-adv-x="624" d="M47 92l225 400l-225 399h324l211 -373v-53l-211 -373h-324z" />
<glyph unicode="&#x205f;" horiz-adv-x="505" />
<glyph unicode="&#x20ac;" horiz-adv-x="1103" d="M47 487v172h109q-2 8 -2 27q0 33 2 47h-109v172h127q52 247 209 381.5t381 134.5q138 0 258 -49v-342q-80 41 -193 41q-186 0 -258 -166h287v-172h-334q-2 -14 -2 -47v-27h336v-172h-299q63 -168 244 -168q116 0 229 52v-351q-126 -49 -264 -49q-230 0 -390 131t-206 385 h-125z" />
<glyph unicode="&#x2122;" horiz-adv-x="1169" d="M47 1264v170h412v-170h-113v-351h-186v351h-113zM524 913v521h156l123 -209l125 209h155v-521h-172v256l-88 -145h-41l-86 145v-256h-172z" />
<glyph unicode="&#x25fc;" horiz-adv-x="983" d="M0 0v983h983v-983h-983z" />
</font>
</defs>
</svg>
