<?xml version="1.0" standalone="no"?>
<!DOCTYPE svg PUBLIC "-//W3C//DTD SVG 1.1//EN" "http://www.w3.org/Graphics/SVG/1.1/DTD/svg11.dtd" >
<svg xmlns="http://www.w3.org/2000/svg">
<metadata></metadata>
<defs>
<font id="muller_narrowextrabold_italic" horiz-adv-x="1009" >
<font-face units-per-em="2048" ascent="1638" descent="-410" />
<missing-glyph horiz-adv-x="317" />
<glyph horiz-adv-x="0" />
<glyph horiz-adv-x="682" />
<glyph unicode=" "  horiz-adv-x="317" />
<glyph unicode="&#x09;" horiz-adv-x="317" />
<glyph unicode="&#xa0;" horiz-adv-x="317" />
<glyph unicode="!" horiz-adv-x="536" d="M35 178q13 81 69.5 121.5t128.5 40.5q81 0 131.5 -52.5t36.5 -148.5q-14 -84 -69.5 -125t-128.5 -41q-80 0 -131 53.5t-37 151.5zM121 498l117 936h366l-182 -936h-301z" />
<glyph unicode="&#x22;" horiz-adv-x="835" d="M139 891l86 543h307l-126 -543h-267zM535 891l86 543h307l-127 -543h-266z" />
<glyph unicode="#" horiz-adv-x="1314" d="M16 307l41 258h185l92 264h-131l41 258h178l108 308h314l-107 -308h178l107 308h315l-108 -308h123l-27 -258h-184l-92 -264h131l-41 -258h-178l-109 -307h-313l106 307h-178l-107 -307h-315l109 307h-138zM555 565h178l92 264h-176z" />
<glyph unicode="$" horiz-adv-x="1036" d="M6 66l57 348q157 -107 355 -107q178 0 194 99q5 31 -15.5 56t-58 44t-85.5 41t-97.5 47t-95 62.5t-77.5 87t-45.5 121t1.5 163.5q25 158 129 254.5t250 126.5l37 238h301l-39 -242q106 -18 223 -86l-43 -334q-152 109 -323 109q-162 0 -176 -95q-4 -29 17.5 -53.5t59 -43 t86 -41t98.5 -48t95.5 -64.5t78 -89.5t46 -123t-1.5 -165.5q-13 -85 -49 -153t-88 -113.5t-113 -75t-133 -43.5l-39 -240h-301l39 234q-168 22 -287 86z" />
<glyph unicode="%" horiz-adv-x="1542" d="M135 0l1122 1434h222l-1123 -1434h-221zM137 1108q26 161 130.5 250.5t250.5 89.5q71 0 133.5 -25.5t107.5 -72.5t64.5 -119.5t5.5 -159.5q-26 -162 -129.5 -251t-259.5 -89q-150 0 -240.5 102t-62.5 275zM401 1087q-9 -55 6 -85.5t52 -30.5q40 0 67.5 31t36.5 90 q9 55 -5.5 85.5t-49.5 30.5q-86 0 -107 -121zM786 362q26 161 130.5 250.5t250.5 89.5q150 0 244 -102t68 -274q-26 -162 -129.5 -251t-259.5 -89q-72 0 -133 25.5t-104.5 72t-62 119t-4.5 159.5zM1051 342q-10 -55 5 -86t52 -31q40 0 67.5 31t36.5 90q9 56 -5.5 86.5 t-51.5 30.5q-83 0 -104 -121z" />
<glyph unicode="&#x26;" horiz-adv-x="1290" d="M23 391q37 232 303 387q-51 79 -75 159t-7 177q11 70 46 131.5t91.5 110.5t141.5 77.5t188 28.5q175 0 281.5 -107.5t80.5 -271.5q-39 -230 -330 -397l127 -178q59 101 74 194h322q-18 -115 -73.5 -232t-143.5 -218l178 -252h-340l-56 74q-181 -103 -389 -103 q-223 0 -335.5 120.5t-83.5 299.5zM358 385q-8 -54 26 -88.5t103 -34.5q95 0 177 45l-175 240q-117 -76 -131 -162zM561 1067q-12 -74 31 -154q156 85 170 170q5 40 -16 67.5t-62 27.5q-52 0 -83.5 -31.5t-39.5 -79.5z" />
<glyph unicode="'" horiz-adv-x="448" d="M139 891l86 543h322l-141 -543h-267z" />
<glyph unicode="(" horiz-adv-x="612" d="M58 277q-11 176 18 356q42 261 157 506.5t267 416.5h282q-137 -210 -233 -456.5t-135 -497.5q-40 -250 -23 -493t86 -437h-270q-62 128 -100 278.5t-49 326.5z" />
<glyph unicode=")" horiz-adv-x="612" d="M-131 -328q137 211 233.5 457.5t135.5 497.5q39 250 22 492t-86 437h268q97 -195 133.5 -436t-0.5 -524q-42 -262 -156.5 -508t-266.5 -416h-283z" />
<glyph unicode="*" horiz-adv-x="755" d="M137 1104l111 217l151 -80l7 193h235l-57 -193l172 80l53 -217l-195 -41l117 -145l-203 -136l-67 174l-125 -174l-176 136l159 145z" />
<glyph unicode="+" horiz-adv-x="962" d="M61 571l45 291h289l45 289h291l-47 -289h289l-45 -291h-289l-45 -286h-291l45 286h-287z" />
<glyph unicode="," horiz-adv-x="475" d="M-66 -311l119 571h340l-190 -571h-269z" />
<glyph unicode="-" horiz-adv-x="733" d="M59 352l45 291h572l-45 -291h-572z" />
<glyph unicode="." horiz-adv-x="468" d="M8 178q14 81 71 121.5t128 40.5q81 0 131.5 -52.5t36.5 -148.5q-13 -83 -69.5 -124.5t-129.5 -41.5q-80 0 -131 53.5t-37 151.5z" />
<glyph unicode="/" horiz-adv-x="817" d="M-59 -121l749 1675h258l-749 -1675h-258z" />
<glyph unicode="0" horiz-adv-x="1181" d="M94 715q55 345 212 525.5t419 180.5q251 0 367 -197t61 -546q-56 -349 -207 -528t-424 -179q-257 0 -370 196.5t-58 547.5zM459 696q-58 -374 96 -374q89 0 146.5 92.5t86.5 281.5q58 375 -98 375q-173 0 -231 -375z" />
<glyph unicode="1" horiz-adv-x="866" d="M-6 0l53 336h219l107 661l-234 -94l54 361l317 129h276l-168 -1057h199l-53 -336h-770z" />
<glyph unicode="2" horiz-adv-x="999" d="M-20 0l34 213q13 82 41.5 153t60 120t82 99t89 80t98.5 72q14 10 53.5 36.5t53.5 36.5t43.5 32t41.5 34.5t29 31.5t24.5 36.5t10.5 36.5q7 47 -20.5 72.5t-83.5 25.5q-157 0 -367 -121l59 363q193 100 396 100q87 0 162.5 -29t131 -83t80.5 -140.5t9 -193.5 q-18 -115 -77.5 -200.5t-164.5 -166.5q-47 -37 -138 -100t-133 -100.5t-53 -71.5h467l-53 -336h-876z" />
<glyph unicode="3" horiz-adv-x="993" d="M-4 29l53 336q130 -46 275 -43q102 0 169.5 31t77.5 96q7 54 -22.5 82t-91.5 28h-201l49 313h158q61 0 103.5 28.5t49.5 80.5q6 48 -31 77t-120 29q-138 0 -309 -65l53 336q87 34 165 48.5t187 14.5q85 0 164 -27t140.5 -76t92 -127.5t15.5 -172.5q-15 -95 -69.5 -171.5 t-137.5 -119.5q81 -31 129.5 -125.5t26.5 -234.5q-17 -105 -70.5 -184t-132.5 -124t-170 -66.5t-195 -21.5q-195 0 -358 58z" />
<glyph unicode="4" horiz-adv-x="1138" d="M-10 207l47 311l706 875h351l-138 -867h142l-51 -325h-138l-30 -201h-332l35 207h-592zM377 512h256l63 399z" />
<glyph unicode="5" horiz-adv-x="995" d="M-12 20l53 330q125 -45 291 -45q220 0 243 150q10 67 -43 103t-153 36q-128 0 -266 -31l170 832h747l-53 -330l-410 2l-37 -190q57 0 136 -21q147 -33 223.5 -145t50.5 -279q-19 -120 -73 -210.5t-134 -144t-174.5 -80t-202.5 -26.5q-200 0 -368 49z" />
<glyph unicode="6" horiz-adv-x="1105" d="M73.5 450q-3.5 105 12.5 224q25 157 76 283.5t118.5 212t152.5 143t174.5 83t187.5 25.5q179 0 313 -71l-51 -314q-105 51 -219 51q-232 0 -328 -231q89 39 190 39q78 2 147.5 -27t123 -85t77 -150.5t5.5 -212.5q-33 -212 -170.5 -330.5t-341.5 -118.5 q-112 0 -199.5 35.5t-143 99t-88.5 151.5t-36.5 193zM434 553q-18 -254 125 -254q69 0 110 43t52 117q10 73 -17.5 113t-87.5 40q-93 0 -182 -59z" />
<glyph unicode="7" horiz-adv-x="940" d="M90 0l502 1057h-475l55 336h877l-39 -254l-543 -1139h-377z" />
<glyph unicode="8" horiz-adv-x="1134" d="M39 399q16 107 85 197.5t163 151.5q-133 126 -101 309q11 72 46 135t94.5 115.5t154.5 83t215 30.5q112 0 201 -33.5t141.5 -90t74.5 -129t9 -152.5q-14 -89 -65 -161t-137 -144q83 -61 122 -145t19 -208q-10 -60 -33.5 -113.5t-68.5 -104.5t-106 -87.5t-151.5 -59 t-199.5 -22.5q-129 0 -227.5 36.5t-152.5 97.5t-75 136.5t-8 157.5zM399 420q-11 -60 28 -97.5t112 -37.5q75 0 120 30t54 86q4 31 -6.5 56.5t-39 49t-54 39.5t-70.5 40q-10 5 -15 8q-116 -81 -129 -174zM512 1004q-8 -59 33.5 -96.5t128.5 -76.5q97 73 112 158 q6 49 -25.5 84t-96.5 35q-61 0 -103 -27.5t-49 -76.5z" />
<glyph unicode="9" horiz-adv-x="1105" d="M63 43l52 315q103 -53 217 -53q198 0 293 174q22 29 37 58q-89 -39 -191 -39q-62 -1 -119 16.5t-107 54.5t-83 94t-46 134.5t3 175.5q32 211 170.5 329.5t341.5 118.5q112 0 200 -35.5t143 -98.5t88 -151t36 -193t-13 -224q-25 -157 -76 -283.5t-118.5 -212t-152 -143 t-174 -83.5t-187.5 -26q-178 0 -314 72zM451 934q-12 -73 16 -113.5t88 -40.5q91 0 182 60q18 254 -125 254q-70 0 -110 -42.5t-51 -117.5z" />
<glyph unicode=":" horiz-adv-x="507" d="M18 178q13 80 70 121t127 41q82 0 132 -52.5t36 -148.5q-13 -83 -69 -124.5t-128 -41.5q-81 0 -131.5 53.5t-36.5 151.5zM115 784q13 81 70 122.5t128 41.5q81 0 131.5 -53t36.5 -150q-14 -82 -70 -123.5t-128 -41.5q-80 0 -131 53t-37 151z" />
<glyph unicode=";" horiz-adv-x="530" d="M-51 -311l119 571h340l-191 -571h-268zM133 821q13 81 69.5 122.5t127.5 41.5q82 0 132 -53.5t36 -149.5q-13 -83 -69 -124.5t-128 -41.5q-81 0 -131.5 53.5t-36.5 151.5z" />
<glyph unicode="&#x3c;" horiz-adv-x="831" d="M57 557l49 322l736 292l-51 -333l-406 -131l363 -138l-50 -307z" />
<glyph unicode="=" horiz-adv-x="940" d="M78 352l47 297h741l-47 -297h-741zM145 784l48 297h741l-47 -297h-742z" />
<glyph unicode="&#x3e;" horiz-adv-x="833" d="M61 262l52 338l405 135l-362 133l49 303l641 -292l-49 -322z" />
<glyph unicode="?" horiz-adv-x="868" d="M133 1018l55 348q172 96 359 96q60 0 117.5 -13.5t110.5 -43t90.5 -71.5t54 -105t4.5 -137q-12 -78 -52 -152.5t-89.5 -132t-98.5 -111.5t-87 -111t-46 -110h-305q12 79 45 151t72.5 124.5t78.5 99t68.5 92t36.5 86.5q9 50 -19.5 74t-85.5 24q-72 0 -156.5 -30.5 t-152.5 -77.5zM166 178q13 81 69 121.5t127 40.5q81 0 131.5 -52.5t36.5 -148.5q-13 -83 -68.5 -124.5t-127.5 -41.5q-82 0 -133 53.5t-35 151.5z" />
<glyph unicode="@" horiz-adv-x="1886" d="M46 157.5q-27 157.5 3 352.5q24 148 83 287t153 259.5t214 211t274.5 142.5t324.5 52q92 0 176.5 -16.5t153 -47t129 -74t106 -96.5t82.5 -114.5t58.5 -128.5t35 -139t12 -145.5t-11.5 -147.5q-42 -271 -169.5 -406t-330.5 -135q-122 0 -199.5 48t-107.5 126 q-89 -125 -237 -125q-105 0 -171.5 63t-87 162t-1.5 220q28 175 123 291t243 116q131 0 203 -118l16 94h283l-84 -524q-7 -47 5 -71t52 -24q33 0 59 23.5t44.5 69t31 94.5t23.5 116q14 101 9 190t-39.5 162.5t-90.5 126.5t-141.5 82t-194.5 29q-132 0 -256 -52.5t-219 -142 t-160.5 -213t-87.5 -261.5q-50 -315 96 -493.5t431 -178.5q218 0 440 59l-45 -282q-200 -76 -438 -76q-146 0 -276.5 40t-238 120t-179 198.5t-98.5 276zM838 483q-12 -79 5 -124.5t62 -45.5q64 0 109 64l39 237q-28 48 -78 48q-51 0 -87.5 -45t-49.5 -134z" />
<glyph unicode="A" horiz-adv-x="1251" d="M-84 0l680 1434h358l228 -1434h-359l-22 215h-412l-94 -215h-379zM508 506h264l-31 250q-16 184 -18 305q-38 -139 -107 -309z" />
<glyph unicode="B" horiz-adv-x="1191" d="M23 0l227 1434h567q179 0 291 -108q90 -86 89 -213q0 -32 -5 -66q-17 -108 -74.5 -186.5t-132.5 -121.5q75 -35 124 -127q34 -65 34 -149q0 -36 -6 -76q-16 -103 -66.5 -180t-125 -121t-161 -65t-186.5 -21h-575zM424 297h156q175 0 200 149q2 16 2 30q0 48 -28 78 q-38 38 -101 38h-182zM514 864h156q62 0 108.5 36t57.5 104q2 15 2 28q0 44 -25 72q-33 37 -94 37h-162z" />
<glyph unicode="C" horiz-adv-x="1024" d="M75 454q-8 51 -8 108q0 78 15 167q28 176 98 316t169.5 230.5t223 138.5t261.5 48q156 0 278 -61l-55 -334q-74 45 -191 45q-160 0 -272.5 -100t-144.5 -299q-9 -56 -9 -104q0 -115 50 -187q70 -102 221 -103q115 0 247 56l-57 -357q-127 -47 -268 -47q-103 0 -195.5 30 t-169 90t-126 150.5t-67.5 212.5z" />
<glyph unicode="D" horiz-adv-x="1228" d="M23 0l227 1434h461q100 0 183.5 -26t142.5 -73.5t102 -114t63 -148.5t24 -176q1 -17 1 -35q0 -79 -15 -163q-20 -125 -52.5 -224.5t-89.5 -190.5t-135 -151.5t-193 -96t-259 -35.5h-460zM428 336h111q125 0 206 89t113 294q14 82 14 145q0 89 -28 143q-46 91 -172 91 h-123z" />
<glyph unicode="E" horiz-adv-x="1017" d="M23 0l227 1434h846l-49 -316h-494l-39 -244h447l-50 -307h-446l-39 -248h506l-51 -319h-858z" />
<glyph unicode="F" horiz-adv-x="1013" d="M23 0l227 1434h858l-53 -336h-506l-41 -262h467l-55 -336h-465l-80 -500h-352z" />
<glyph unicode="G" horiz-adv-x="1144" d="M75 442q-7 50 -7 105q0 83 16 180q55 345 267.5 540t518.5 195q174 0 314 -61l-51 -328q-107 45 -244 45q-172 0 -288.5 -105t-149.5 -313q-12 -66 -12 -121q0 -41 7 -75q16 -80 50.5 -122.5t87.5 -57.5q28 -7 57 -7t59 7l72 456h352l-116 -721q-169 -88 -385 -88 q-103 0 -193 27t-166.5 84.5t-123.5 146.5t-65 213z" />
<glyph unicode="H" horiz-adv-x="1236" d="M23 0l227 1434h352l-88 -549h332l88 549h352l-227 -1434h-352l86 549h-330l-88 -549h-352z" />
<glyph unicode="I" horiz-adv-x="552" d="M23 0l227 1434h352l-227 -1434h-352z" />
<glyph unicode="J" horiz-adv-x="888" d="M-35 25l51 321q82 -39 199 -39q200 0 234 203l92 588h-277l53 336h629l-160 -1022q-36 -219 -170 -330t-350 -111q-173 0 -301 54z" />
<glyph unicode="K" horiz-adv-x="1189" d="M23 0l227 1434h352l-88 -562h84l336 562h409l-469 -752l246 -682h-375l-192 559h-90l-88 -559h-352z" />
<glyph unicode="L" horiz-adv-x="964" d="M23 0l227 1434h352l-174 -1098h492l-54 -336h-843z" />
<glyph unicode="M" horiz-adv-x="1486" d="M23 0l227 1434h278l236 -639l440 639h332l-227 -1434h-346l67 434q38 227 100 402l-358 -523h-125l-184 508q0 -230 -29 -405l-65 -416h-346z" />
<glyph unicode="N" horiz-adv-x="1265" d="M23 0l227 1434h311l309 -803q-1 32 -1 63q0 153 24 312l70 428h352l-228 -1434h-311l-307 803v-36q0 -170 -25 -339l-69 -428h-352z" />
<glyph unicode="O" horiz-adv-x="1259" d="M88 735q27 168 81 300t136 228t198 147.5t259 51.5q190 0 311.5 -95t163.5 -267q23 -92 22 -201q0 -94 -16 -201q-27 -168 -79.5 -299.5t-134 -228.5t-197.5 -148t-261 -51q-191 0 -313 95q-122 94 -164 266q-23 92 -23 202q0 94 17 201zM453 700q-14 -88 -15 -156 q0 -222 154 -222q226 0 287 411q14 88 14 156q0 223 -154 223q-113 0 -183.5 -102t-102.5 -310z" />
<glyph unicode="P" horiz-adv-x="1155" d="M23 0l227 1434h491q75 0 146.5 -19.5t133.5 -61.5t105 -101q44 -60 62 -146q10 -46 10 -95q0 -45 -8 -93q-39 -242 -186 -361t-377 -119h-183l-69 -438h-352zM496 760h131q82 0 137 45t70 133q3 18 3 35q0 53 -29 91q-38 48 -114 48h-143z" />
<glyph unicode="Q" horiz-adv-x="1259" d="M98 735q27 168 80.5 300t135.5 228.5t198 147.5t260 51q190 0 311.5 -95t162.5 -267q22 -90 22 -197q0 -96 -17 -205q-55 -350 -215 -530l101 -168l-303 -199l-115 193q-71 -23 -137 -23q-191 0 -313.5 95t-164.5 266q-23 92 -23 201q0 94 17 202zM461 700 q-14 -88 -14 -155q0 -223 155 -223q114 0 184.5 101.5t102.5 309.5q14 88 14 155q0 224 -155 224q-223 0 -287 -412z" />
<glyph unicode="R" horiz-adv-x="1198" d="M23 0l227 1434h512q102 0 190 -32t152 -92q66 -60 94 -158q17 -60 17 -129q0 -44 -7 -91q-50 -305 -284 -408l182 -524h-361l-155 467h-17h-124l-74 -467h-352zM500 782h147q80 0 136 40.5t69 121.5q3 16 3 32q0 51 -29 85q-37 45 -111 45h-164z" />
<glyph unicode="S" horiz-adv-x="1064" d="M14 68l58 350q79 -52 176.5 -81.5t193.5 -29.5q83 0 142.5 26.5t66.5 78.5q1 7 1 13q0 31 -24 59q-29 32 -79 58.5t-111.5 56t-121.5 70t-106 91.5q-46 52 -68 132q-13 47 -13 102q0 38 6 79q16 99 65.5 175t123.5 122t163.5 69t190.5 23q218 0 403 -104l-51 -334 q-174 111 -358 111q-163 0 -180 -99q-4 -31 14 -57.5t51 -46.5t77.5 -41.5t93 -43t96 -51.5t88.5 -67t69.5 -89t38.5 -117q5 -29 5 -62q0 -41 -7 -90q-17 -106 -66.5 -184.5t-125.5 -125t-168 -68.5t-203 -22q-248 0 -441 97z" />
<glyph unicode="T" horiz-adv-x="1050" d="M117 1098l53 336h1008l-54 -336h-327l-174 -1098h-353l174 1098h-327z" />
<glyph unicode="U" horiz-adv-x="1245" d="M86 467l154 967h352l-152 -953q-4 -26 -4 -48q0 -55 26 -85q37 -42 122 -41q189 0 219 191l147 936h355l-158 -985q-38 -247 -185 -362.5t-409 -115.5q-244 -1 -374 131q-101 102 -101 267q0 46 8 98z" />
<glyph unicode="V" horiz-adv-x="1220" d="M145 1434h357l67 -752q11 -120 17 -309q53 204 94 309l293 752h397l-645 -1434h-387z" />
<glyph unicode="W" horiz-adv-x="1716" d="M150 1434h364l21 -891l333 884h236l67 -884l302 891h391l-574 -1434h-332l-57 774l-295 -774h-336z" />
<glyph unicode="X" horiz-adv-x="1183" d="M-100 0l499 748l-237 686h364l133 -433l267 433h403l-469 -709l268 -725h-380l-150 463l-295 -463h-403z" />
<glyph unicode="Y" horiz-adv-x="1198" d="M143 1434h365l135 -539l303 539h406l-570 -891l-86 -543h-354l88 543z" />
<glyph unicode="Z" horiz-adv-x="1026" d="M-43 0l35 221l604 877h-440l55 336h905l-35 -220l-600 -870h482l-56 -344h-950z" />
<glyph unicode="[" horiz-adv-x="657" d="M-18 -328l299 1884h499l-49 -307h-176l-203 -1269h178l-49 -308h-499z" />
<glyph unicode="\" horiz-adv-x="798" d="M197 1554h239l236 -1675h-240z" />
<glyph unicode="]" horiz-adv-x="657" d="M-84 -328l49 308h178l201 1269h-176l47 307h502l-299 -1884h-502z" />
<glyph unicode="^" horiz-adv-x="1064" d="M76 692l436 742h344l201 -742h-338l-78 402l-197 -402h-368z" />
<glyph unicode="_" horiz-adv-x="806" d="M-141 -401l45 290h809l-47 -290h-807z" />
<glyph unicode="`" horiz-adv-x="653" d="M279 1862h356l125 -314h-303z" />
<glyph unicode="a" horiz-adv-x="1019" d="M38 309q-3 29 -3 58q0 70 14 143q37 233 139.5 367.5t264.5 134.5q167 0 245 -135l19 106h303l-156 -983h-303l17 96q-94 -125 -250 -125q-93 0 -158 45.5t-94.5 120.5t-37.5 172zM377 489q-8 -50 -8 -91q1 -46 11 -78q20 -60 79 -60q72 0 121 72l51 319q-12 33 -38 52.5 t-58 19.5q-64 0 -101.5 -56.5t-56.5 -177.5z" />
<glyph unicode="b" horiz-adv-x="1021" d="M0 0l227 1434h336l-80 -508q89 86 222 86q158 0 232 -150q49 -99 49 -237q0 -71 -13 -152q-13 -83 -32 -151t-52 -135.5t-76.5 -113t-109 -74t-146.5 -28.5q-91 0 -150 43.5t-85 98.5l-19 -113h-303zM389 332q29 -72 98 -72q64 0 100.5 56.5t55.5 179.5q9 54 9 95 q0 132 -91 132q-69 0 -121 -72z" />
<glyph unicode="c" horiz-adv-x="802" d="M45 506q39 243 188.5 374.5t364.5 131.5q131 0 223 -45l-43 -271q-57 33 -141 33q-96 0 -167 -60.5t-89 -176.5q-5 -29 -4 -54q0 -70 34 -116q47 -62 140 -62t176 45l-47 -291q-98 -43 -221 -43q-98 0 -181 34.5t-143 99.5q-59 65 -85 169q-14 57 -14 121q0 53 9 111z " />
<glyph unicode="d" horiz-adv-x="1019" d="M36 348q1 78 13 162q37 233 139.5 367.5t264.5 134.5q150 0 219 -103l84 525h336l-228 -1434h-303l17 96q-97 -125 -248 -125q-75 0 -132.5 29.5t-91 80.5t-52.5 120q-18 66 -18 139v8zM377 489q-9 -54 -9 -96q0 -133 91 -133q72 0 121 72l51 319q-12 33 -38 52.5 t-61 19.5q-62 0 -99 -56.5t-56 -177.5z" />
<glyph unicode="e" horiz-adv-x="954" d="M47 518q37 234 169 364t335 130q134 0 228 -74q93 -74 129 -216q15 -60 15 -131q0 -99 -28 -220h-526q15 -154 186 -154q138 0 266 45l-37 -239q-125 -52 -292 -52q-237 0 -361 146q-94 110 -94 283q0 56 10 118zM385 573h240q3 27 3 50q0 125 -87 125q-110 0 -156 -175z " />
<glyph unicode="f" horiz-adv-x="692" d="M66 694l45 289h120l19 117q14 88 45.5 155t70.5 105.5t89.5 62t94 31.5t91.5 8q126 0 219 -41l-43 -266q-47 19 -108 19q-53 0 -86.5 -26.5t-40.5 -78.5l-15 -86h183l-45 -289h-183l-110 -694h-336l110 694h-120z" />
<glyph unicode="g" horiz-adv-x="1021" d="M-18 -422l43 272q98 -40 235 -40q118 0 187 48t81 132l11 61q-97 -80 -220 -80q-108 0 -178 69t-91 188q-11 58 -11 126q0 72 12 156q12 82 31.5 151t53 135.5t77 113t106.5 74.5t140 28q90 0 152.5 -44t88.5 -100l19 115h303l-160 -1003q-36 -228 -181.5 -343.5 t-389.5 -115.5q-186 0 -309 57zM379 487q-8 -50 -8 -90q0 -45 11 -77q20 -60 79 -60q69 0 121 72l51 319q-12 33 -37.5 52.5t-58.5 19.5q-63 0 -101 -57t-57 -179z" />
<glyph unicode="h" d="M0 0l227 1434h336l-78 -498q102 76 224 76q129 0 206 -92q58 -69 58 -174q0 -34 -6 -72l-107 -674h-336l99 618q2 12 2 22q1 26 -13 40q-18 20 -53 20q-37 0 -69.5 -23t-53.5 -56l-100 -621h-336z" />
<glyph unicode="i" horiz-adv-x="495" d="M2 0l156 983h336l-156 -983h-336zM186 1307q14 82 70 121.5t133 39.5q87 0 137 -51q39 -40 38 -107q0 -19 -3 -40q-13 -84 -68.5 -125t-132.5 -41q-88 0 -138 52q-40 41 -39 111q0 19 3 40z" />
<glyph unicode="j" horiz-adv-x="503" d="M-233 -451l43 269q42 -8 72 -8h12q89 6 106 116l166 1057h336l-178 -1130q-53 -332 -377 -332q-101 0 -180 28zM195 1307q14 82 70 121.5t132 39.5q87 0 137 -50q40 -41 40 -110q0 -18 -3 -38q-14 -84 -69.5 -125t-132.5 -41q-87 0 -137 52q-40 42 -40 111q0 19 3 40z " />
<glyph unicode="k" d="M0 0l227 1434h336l-127 -801h74l213 350h375l-334 -512l172 -471h-352l-119 344h-74l-55 -344h-336z" />
<glyph unicode="l" horiz-adv-x="495" d="M2 0l238 1495h335l-237 -1495h-336z" />
<glyph unicode="m" horiz-adv-x="1482" d="M0 0l156 983h303l-13 -80q45 49 111.5 79t142.5 30q70 0 124.5 -30.5t84.5 -82.5q125 113 283 113q136 0 204 -94q52 -72 53 -165q0 -29 -5 -59l-111 -694h-327l98 618q2 12 2 22q0 60 -62 60q-63 0 -112 -69l-6 -39l-95 -592h-327l96 618q2 14 2 25q0 57 -57 57 q-67 0 -115 -71l-100 -629h-330z" />
<glyph unicode="n" d="M0 0l156 983h303l-13 -80q115 109 263 109q131 0 207 -92q57 -69 57 -173q0 -34 -6 -73l-107 -674h-336l99 618q2 12 2 22q0 26 -13 40q-18 20 -51 20q-74 0 -125 -79l-100 -621h-336z" />
<glyph unicode="o" horiz-adv-x="1005" d="M45 510q38 238 175 370t349 132q209 0 319 -146q81 -107 81 -268q0 -59 -11 -125q-38 -242 -168 -372t-354 -130q-218 0 -324 144q-78 105 -77 268q0 60 10 127zM377 483q-6 -46 -6 -82q0 -141 92 -141q127 0 164 240q8 51 8 91q0 134 -92 134q-125 0 -166 -242z" />
<glyph unicode="p" horiz-adv-x="1021" d="M-72 -451l228 1434h303l-15 -96q93 125 248 125q75 0 132.5 -29.5t90.5 -80.5t52 -120q18 -64 18 -136q0 -5 -1 -11q-1 -78 -13 -162q-35 -232 -138 -367t-264 -135q-148 0 -221 103l-84 -525h-336zM389 332q12 -33 38.5 -52.5t61.5 -19.5q61 0 98 56t56 178q9 54 9 96 q0 133 -91 133q-68 0 -121 -70z" />
<glyph unicode="q" horiz-adv-x="1021" d="M51 510q13 83 31.5 151t51 135.5t76 113t109 74t146.5 28.5q91 0 150 -43.5t85 -98.5l19 113h303l-227 -1434h-336l80 508q-89 -86 -222 -86q-158 0 -232 150q-48 97 -48 232q0 73 14 157zM379 487q-9 -55 -9 -96q0 -131 91 -131q69 0 121 72l51 319q-29 72 -98 72 q-64 0 -100.5 -56.5t-55.5 -179.5z" />
<glyph unicode="r" horiz-adv-x="706" d="M0 0l156 983h303l-21 -125q96 145 278 145q23 0 48 -2l-55 -339q-23 3 -44 3q-156 0 -247 -159l-82 -506h-336z" />
<glyph unicode="s" horiz-adv-x="849" d="M-10 43l43 274q128 -73 284 -73q121 0 129 59q4 24 -16.5 43t-55.5 35t-78 34t-84 44.5t-73 62.5t-47 92q-9 33 -9 70q0 27 5 57q23 132 128 201.5t284 69.5t321 -66l-43 -258q-46 28 -117 47t-131 19q-45 0 -74.5 -15.5t-35.5 -44.5q-4 -24 17 -43t56.5 -33.5t78.5 -31 t84.5 -42.5t73.5 -60q34 -34 48 -91q8 -31 7 -67q0 -30 -5 -62q-13 -80 -51.5 -138t-97.5 -92q-59 -32 -129 -48q-65 -15 -142 -15h-10q-225 3 -360 72z" />
<glyph unicode="t" horiz-adv-x="716" d="M55 694l45 289h123l37 227l348 80l-49 -307h195l-45 -289h-195l-53 -334q-3 -18 -3 -33q0 -31 12 -45q18 -22 62 -22q45 0 111 25l-45 -283q-91 -31 -190 -31q-39 0 -75.5 6.5t-75 21.5t-66 40.5t-49.5 63.5q-24 39 -28 91q-2 18 -1 36q0 39 6 85l59 379h-123z" />
<glyph unicode="u" d="M43 309l107 674h335l-98 -618q-2 -12 -2 -22q0 -27 13 -41q18 -20 51 -19q71 0 126 79l99 621h336l-156 -983h-303l12 80q-119 -109 -262 -109q-129 -1 -206 91q-58 69 -58 175q0 34 6 72z" />
<glyph unicode="v" horiz-adv-x="1015" d="M80 983h348l39 -444q6 -77 6 -152q0 -41 -2 -82q30 131 68 234l176 444h377l-492 -983h-340z" />
<glyph unicode="w" horiz-adv-x="1409" d="M84 983h340l6 -567l211 567h250l39 -565l178 565h371l-416 -983h-326l-32 502l-191 -502h-324z" />
<glyph unicode="x" horiz-adv-x="976" d="M-80 0l338 504l-166 479h342l62 -229q4 -21 12 -92q17 50 35 92l129 229h375l-320 -483l172 -500h-352l-60 219q0 1 -7 42t-9 63q-11 -32 -43 -103l-129 -221h-379z" />
<glyph unicode="y" horiz-adv-x="1024" d="M-16 -451l45 287q27 -5 52 -5q60 0 109 30q53 38 105 143l-221 979h354l76 -569l211 569h381l-518 -1110q-85 -190 -224 -279q-102 -64 -227 -64q-68 0 -143 19z" />
<glyph unicode="z" horiz-adv-x="833" d="M-33 0l37 229l385 471h-291l43 283h707l-39 -240l-371 -454h320l-47 -289h-744z" />
<glyph unicode="{" horiz-adv-x="702" d="M14 461l49 307q41 0 64.5 3.5t48 16t39 41t21.5 74.5l59 369q30 186 171.5 259t356.5 23l-47 -305q-89 17 -130 -17.5t-56 -133.5l-41 -267q-19 -108 -75 -161t-124 -56q57 -7 99 -72t28 -161l-43 -275q-13 -88 16 -114.5t123 -11.5l-49 -310q-219 -46 -341 44t-95 259 l59 371q6 40 0 64t-27 35.5t-43.5 14.5t-62.5 3z" />
<glyph unicode="|" horiz-adv-x="573" d="M2 -205l295 1864h352l-295 -1864h-352z" />
<glyph unicode="}" horiz-adv-x="702" d="M-82 -326l49 306q88 -17 129 18t56 133l43 266q17 108 72.5 161t123.5 56q-57 7 -98 72.5t-27 161.5l41 274q15 88 -15 115t-124 12l49 310q219 46 341 -44.5t95 -259.5l-59 -370q-6 -40 0 -64t27 -35.5t43.5 -14.5t62.5 -3l-49 -307q-32 0 -51.5 -2t-42 -9t-36 -21.5 t-25 -40t-17.5 -62.5l-60 -369q-29 -186 -171 -259.5t-357 -23.5z" />
<glyph unicode="~" horiz-adv-x="944" d="M88 532q3 180 68.5 271.5t185.5 91.5q65 0 129 -22t112.5 -44t78.5 -22q32 0 51 20t22 54h193q-1 -178 -67 -270.5t-187 -92.5q-63 0 -127 22t-114 44t-79 22q-64 0 -71 -74h-195z" />
<glyph unicode="&#xa2;" horiz-adv-x="827" d="M49 506q30 198 137 324t267 165l34 228h258l-32 -222q57 -8 110 -34l-41 -271q-57 33 -143 33q-95 0 -165.5 -60.5t-88.5 -176.5q-17 -109 29.5 -170.5t140.5 -61.5q93 0 176 45l-47 -291q-65 -28 -135 -37l-35 -217h-258l39 240q-139 50 -208.5 181t-37.5 325z" />
<glyph unicode="&#xa3;" horiz-adv-x="1030" d="M-25 0l56 336h32q41 0 72.5 26.5t46.5 71.5q21 70 31 129h-115l41 262h113l29 164q18 116 64.5 201.5t115.5 135t149.5 72.5t175.5 23q158 0 285 -65l-53 -326q-82 57 -187 57q-84 0 -134 -46.5t-62 -125.5l-14 -90h297l-41 -262h-299l-15 -90q-13 -104 -67 -137h460 l-53 -336h-928z" />
<glyph unicode="&#xa5;" horiz-adv-x="1210" d="M129 252l33 201h258l14 92h-258l31 200h184l-215 648h367l104 -498l260 498h410l-422 -648h180l-31 -200h-258l-14 -92h258l-33 -201h-258l-41 -252h-352l41 252h-258z" />
<glyph unicode="&#xa8;" horiz-adv-x="878" d="M256 1724q11 63 63.5 107.5t116.5 44.5q76 0 121.5 -55.5t34.5 -132.5q-11 -65 -62.5 -108.5t-117.5 -43.5q-77 0 -122.5 55t-33.5 133zM672 1724q11 63 62.5 107.5t117.5 44.5q76 0 121.5 -55.5t32.5 -132.5q-9 -64 -61.5 -108t-117.5 -44q-76 0 -121.5 55t-33.5 133z " />
<glyph unicode="&#xa9;" horiz-adv-x="1394" d="M92 414q-28 145 0 321q27 169 100 307.5t174 228.5t222 138.5t248 48.5q138 0 249.5 -51t185.5 -148.5t102 -239t-1 -321.5q-53 -336 -261 -529.5t-482 -193.5q-138 0 -249.5 52t-185.5 147t-102 240zM231 715q-44 -279 63.5 -439.5t334.5 -160.5q231 0 396.5 164.5 t209.5 439.5q43 279 -64 439.5t-335 160.5q-230 0 -396 -165t-209 -439zM408 723q21 129 86 222t157.5 139t202.5 46t184 -47l-32 -217q-44 31 -113 31q-73 0 -133 -45t-74 -137q-13 -82 21.5 -127t107.5 -45q87 0 154 39l-37 -240q-79 -39 -178 -39q-183 0 -279.5 112 t-66.5 308z" />
<glyph unicode="&#xab;" horiz-adv-x="1085" d="M45 465l4 53l268 373h336l-299 -410l156 -389h-315zM492 442l4 54l276 395h340l-311 -424l151 -375h-311z" />
<glyph unicode="&#xad;" horiz-adv-x="733" d="M59 352l45 291h572l-45 -291h-572z" />
<glyph unicode="&#xae;" horiz-adv-x="1394" d="M92 414q-28 145 0 321q27 169 100 307.5t174 228.5t222 138.5t248 48.5q138 0 249.5 -51t185.5 -148.5t102 -239t-1 -321.5q-53 -336 -261 -529.5t-482 -193.5q-138 0 -249.5 52t-185.5 147t-102 240zM231 715q-44 -279 63.5 -439.5t334.5 -160.5q231 0 396.5 164.5 t209.5 439.5q43 279 -64 439.5t-335 160.5q-230 0 -396 -165t-209 -439zM403 315l127 803h299q124 0 195 -81t51 -208q-26 -166 -155 -225l67 -289h-225l-51 260h-45l-39 -260h-224zM694 754h64q39 0 63.5 23t30.5 65q6 36 -10 56t-54 20h-67z" />
<glyph unicode="&#xb4;" horiz-adv-x="659" d="M229 1548l211 314h375l-266 -314h-320z" />
<glyph unicode="&#xb8;" horiz-adv-x="591" d="M-86 -442l31 200q55 -22 121 -22q97 0 108 49q5 29 -39 40t-119 -1l68 176h244l-37 -100q59 -15 93.5 -62.5t23.5 -126.5q-14 -92 -93.5 -141t-187.5 -49q-118 0 -213 37z" />
<glyph unicode="&#xbb;" horiz-adv-x="1085" d="M-27 92l312 424l-150 375h311l148 -350l-2 -54l-279 -395h-340zM432 92l299 410l-156 389h318l147 -373l-2 -53l-270 -373h-336z" />
<glyph unicode="&#x2c6;" horiz-adv-x="854" d="M227 1542l258 320h318l155 -320h-276l-59 119l-103 -119h-293z" />
<glyph unicode="&#x2da;" horiz-adv-x="659" d="M266 1786q18 107 95.5 171t199.5 64q121 0 188 -76.5t48 -197.5q-18 -108 -96 -174t-199 -66q-122 0 -189 78.5t-47 200.5zM469 1763q-4 -32 9 -50.5t40 -18.5q30 0 51 19t27 54q4 32 -10 50t-41 18q-29 0 -49.5 -19t-26.5 -53z" />
<glyph unicode="&#x2dc;" horiz-adv-x="804" d="M248 1538q-17 153 43.5 238.5t165.5 85.5q49 0 96.5 -19t84.5 -38t58 -19q64 0 68 65h176q14 -156 -45.5 -240.5t-165.5 -84.5q-48 0 -95.5 19.5t-84 39t-57.5 19.5q-59 0 -68 -66h-176z" />
<glyph unicode="&#x401;" horiz-adv-x="1017" d="M23 0l227 1434h846l-49 -316h-494l-39 -244h447l-50 -307h-446l-39 -248h506l-51 -319h-858zM340 1724q11 63 63.5 107.5t118.5 44.5q75 0 120.5 -55.5t33.5 -132.5q-11 -65 -62.5 -108.5t-117.5 -43.5q-75 0 -121.5 55t-34.5 133zM756 1724q11 63 63.5 107.5t116.5 44.5 q77 0 122 -55t32 -133q-9 -64 -61.5 -108t-117.5 -44q-76 0 -121.5 55t-33.5 133z" />
<glyph unicode="&#x402;" horiz-adv-x="1267" d="M115 1098l53 336h1008l-54 -336h-344l-30 -203q112 59 235 59q134 0 209 -93.5t53 -235.5l-57 -351q-13 -89 -44.5 -150t-79 -93.5t-100.5 -46t-120 -13.5q-74 0 -148 19l45 276q30 -6 54 4q44 8 53 80l31 191q11 77 -64 77q-62 0 -121 -49l-90 -569h-352l174 1098h-311z " />
<glyph unicode="&#x403;" horiz-adv-x="962" d="M23 0l227 1434h844l-54 -336h-491l-174 -1098h-352zM479 1548l211 314h375l-266 -314h-320z" />
<glyph unicode="&#x404;" horiz-adv-x="1028" d="M75 450q-18 122 7 275q56 350 261.5 543.5t490.5 193.5q156 0 278 -61l-55 -334q-74 45 -191 45q-118 0 -208.5 -58.5t-143.5 -174.5h348l-51 -322h-354q9 -118 74 -178t178 -60q117 0 249 56l-55 -357q-130 -47 -274 -47q-102 0 -193.5 29.5t-168 88.5t-125.5 149 t-67 212z" />
<glyph unicode="&#x405;" horiz-adv-x="1064" d="M14 68l58 350q79 -52 176.5 -81.5t193.5 -29.5q83 0 142.5 26.5t66.5 78.5q6 39 -23 71.5t-79 59t-111.5 56t-121.5 70t-106.5 92t-68 132t-6.5 180.5q16 99 65.5 175t123.5 122t163.5 69t190.5 23q218 0 403 -104l-51 -334q-174 111 -358 111q-163 0 -180 -99 q-4 -31 14 -57.5t51 -46.5t77.5 -41.5t93 -43t96 -51.5t88.5 -67t69.5 -89t39 -117t-2.5 -152q-17 -106 -66.5 -184.5t-125.5 -125t-168 -68.5t-203 -22q-248 0 -441 97z" />
<glyph unicode="&#x406;" horiz-adv-x="552" d="M23 0l227 1434h352l-227 -1434h-352z" />
<glyph unicode="&#x407;" horiz-adv-x="552" d="M23 0l227 1434h352l-227 -1434h-352zM76 1724q11 63 63.5 107.5t118.5 44.5q75 0 120.5 -55.5t33.5 -132.5q-10 -64 -62.5 -108t-118.5 -44q-75 0 -121 55t-34 133zM492 1724q11 63 63.5 107.5t116.5 44.5q77 0 121.5 -55t31.5 -133q-9 -64 -61 -108t-117 -44 q-76 0 -121.5 55t-33.5 133z" />
<glyph unicode="&#x408;" horiz-adv-x="888" d="M-35 25l51 321q82 -39 199 -39q200 0 234 203l92 588h-277l53 336h629l-160 -1022q-36 -219 -170 -330t-350 -111q-173 0 -301 54z" />
<glyph unicode="&#x409;" horiz-adv-x="1841" d="M-74 0l51 322q62 -11 104.5 4t80.5 69q49 65 107 301t155 738h907l-82 -527h168q90 0 167 -31t133 -88.5t80.5 -149t6.5 -204.5q-67 -431 -532 -434h-520l174 1098h-211q-91 -436 -129 -576q-76 -278 -172 -399q-73 -98 -202.5 -130t-285.5 7zM1155 322h125 q150 0 172 133q9 60 -22.5 95.5t-94.5 35.5h-137z" />
<glyph unicode="&#x40a;" horiz-adv-x="1769" d="M23 0l227 1434h352l-84 -527h305l84 527h353l-84 -527h170q91 0 168.5 -31t133.5 -88.5t80.5 -149t6.5 -204.5q-70 -431 -533 -434h-522l90 571h-305l-90 -571h-352zM1083 322h125q150 0 172 133q9 61 -21.5 96t-94.5 35h-140z" />
<glyph unicode="&#x40b;" horiz-adv-x="1273" d="M115 1098l53 336h1008l-54 -336h-344l-30 -203q112 59 235 59q134 0 209 -93.5t53 -235.5l-100 -625h-352l86 541q11 77 -64 77q-62 0 -121 -49l-90 -569h-352l174 1098h-311z" />
<glyph unicode="&#x40c;" horiz-adv-x="1189" d="M23 0l227 1434h352l-88 -562h84l336 562h409l-469 -752l246 -682h-375l-192 559h-90l-88 -559h-352zM571 1548l211 314h375l-266 -314h-320z" />
<glyph unicode="&#x40e;" horiz-adv-x="1173" d="M80 4l49 322q92 -34 170 -4q65 12 123 104l-287 1008h365l149 -635l277 635h399l-553 -1090q-47 -92 -96.5 -159t-95.5 -107.5t-98 -65t-98.5 -33t-102.5 -8.5q-100 0 -201 33zM438 1616l37 231q121 -59 273 -59q176 0 321 65l-41 -247q-132 -66 -291 -66q-183 0 -299 76 z" />
<glyph unicode="&#x40f;" horiz-adv-x="1245" d="M23 0l227 1434h352l-174 -1098h340l174 1098h352l-227 -1434h-348l-47 -309h-350l49 309h-348z" />
<glyph unicode="&#x410;" horiz-adv-x="1251" d="M-84 0l680 1434h358l228 -1434h-359l-22 215h-412l-94 -215h-379zM508 506h264l-31 250q-16 184 -18 305q-38 -139 -107 -309z" />
<glyph unicode="&#x411;" horiz-adv-x="1142" d="M23 0l227 1434h917l-51 -328h-565l-33 -201h211q88 0 164 -32t130 -90.5t77.5 -149.5t5.5 -201q-32 -209 -167.5 -320.5t-352.5 -111.5h-563zM424 307h154q72 0 118 37t58 109q8 65 -21.5 105t-95.5 40h-168z" />
<glyph unicode="&#x412;" horiz-adv-x="1191" d="M23 0l227 1434h567q179 0 291 -107.5t84 -279.5q-17 -108 -74.5 -186.5t-132.5 -121.5q75 -35 124 -127.5t28 -224.5q-16 -103 -66.5 -180t-125 -121t-161 -65t-186.5 -21h-575zM424 297h156q175 0 200 149q11 71 -26.5 108.5t-100.5 37.5h-182zM514 864h156 q62 0 108.5 36t57.5 104q10 63 -23 100t-94 37h-162z" />
<glyph unicode="&#x413;" horiz-adv-x="962" d="M23 0l227 1434h844l-54 -336h-491l-174 -1098h-352z" />
<glyph unicode="&#x414;" horiz-adv-x="1404" d="M-113 -309l103 645h147q188 458 285 1098h936l-174 -1098h162l-103 -645h-350l49 309h-655l-49 -309h-351zM510 336h321l119 756h-237q-83 -456 -203 -756z" />
<glyph unicode="&#x415;" horiz-adv-x="1017" d="M23 0l227 1434h846l-49 -316h-494l-39 -244h447l-50 -307h-446l-39 -248h506l-51 -319h-858z" />
<glyph unicode="&#x416;" horiz-adv-x="1771" d="M-84 0l440 731l-198 703h381l139 -576h92l90 576h354l-92 -576h82l307 576h408l-438 -746l223 -688h-383l-162 551h-84l-88 -551h-354l88 551h-84l-313 -551h-408z" />
<glyph unicode="&#x417;" horiz-adv-x="1064" d="M-23 33l56 346q165 -72 336 -72q259 0 280 144q10 63 -26 92.5t-105 29.5h-237l53 322h192q142 0 162 121q9 59 -31 88t-125 31q-172 0 -378 -78l53 336q191 69 389 69q110 0 200 -26t154 -77t92 -133.5t11 -187.5q-30 -192 -211 -288q36 -15 68 -43.5t60.5 -74.5 t38 -107t-0.5 -140q-18 -112 -74.5 -195t-140 -129.5t-176.5 -68t-197 -21.5q-249 0 -443 62z" />
<glyph unicode="&#x418;" horiz-adv-x="1265" d="M23 0l227 1434h352l-70 -445q-29 -190 -92 -377l543 822h332l-228 -1434h-352l70 446q29 188 92 375l-543 -821h-331z" />
<glyph unicode="&#x419;" horiz-adv-x="1265" d="M23 0l227 1434h352l-70 -445q-29 -190 -92 -377l543 822h332l-228 -1434h-352l70 446q29 188 92 375l-543 -821h-331zM481 1602l41 241q127 -65 299 -65q196 0 350 75l-43 -262q-69 -42 -143.5 -61t-177.5 -19q-200 0 -326 91z" />
<glyph unicode="&#x41a;" horiz-adv-x="1189" d="M23 0l227 1434h352l-88 -562h84l336 562h409l-469 -752l246 -682h-375l-192 559h-90l-88 -559h-352z" />
<glyph unicode="&#x41b;" horiz-adv-x="1308" d="M-74 0l51 322q62 -11 104.5 4t80.5 69q49 65 107 301t155 738h934l-228 -1434h-352l174 1098h-237q-90 -432 -125 -564q-76 -284 -174 -407q-73 -98 -203 -131.5t-287 4.5z" />
<glyph unicode="&#x41c;" horiz-adv-x="1486" d="M23 0l227 1434h278l236 -639l440 639h332l-227 -1434h-346l67 434q38 227 100 402l-358 -523h-125l-184 508q0 -230 -29 -405l-65 -416h-346z" />
<glyph unicode="&#x41d;" horiz-adv-x="1236" d="M23 0l227 1434h352l-88 -549h332l88 549h352l-227 -1434h-352l86 549h-330l-88 -549h-352z" />
<glyph unicode="&#x41e;" horiz-adv-x="1259" d="M88 735q27 168 81 300t136 228t198 147.5t259 51.5q190 0 311.5 -95t163.5 -266.5t6 -402.5q-27 -168 -79.5 -299.5t-134 -228.5t-197.5 -148t-261 -51q-191 0 -313 95t-164 266.5t-6 402.5zM453 700q-61 -378 139 -378q226 0 287 411q61 379 -140 379 q-113 0 -183.5 -102t-102.5 -310z" />
<glyph unicode="&#x41f;" horiz-adv-x="1251" d="M23 0l227 1434h1050l-227 -1434h-352l172 1098h-344l-174 -1098h-352z" />
<glyph unicode="&#x420;" horiz-adv-x="1155" d="M23 0l227 1434h491q75 0 146.5 -19.5t133.5 -61.5t105.5 -101t61.5 -145.5t2 -188.5q-39 -242 -186 -361t-377 -119h-183l-69 -438h-352zM496 760h131q82 0 137 45t70 133q12 77 -26 125.5t-114 48.5h-143z" />
<glyph unicode="&#x421;" horiz-adv-x="1024" d="M75 454.5q-18 121.5 7 274.5q28 176 98 316t169.5 230.5t223 138.5t261.5 48q156 0 278 -61l-55 -334q-74 45 -191 45q-160 0 -272.5 -100t-144.5 -299q-29 -189 40.5 -291.5t221.5 -102.5q115 0 247 56l-57 -357q-127 -47 -268 -47q-103 0 -195.5 30t-169 90t-126 151 t-67.5 212.5z" />
<glyph unicode="&#x422;" horiz-adv-x="1050" d="M117 1098l53 336h1008l-54 -336h-327l-174 -1098h-353l174 1098h-327z" />
<glyph unicode="&#x423;" horiz-adv-x="1173" d="M80 4l49 322q92 -34 170 -4q65 12 123 104l-287 1008h365l149 -635l277 635h399l-553 -1090q-47 -92 -96.5 -159t-95.5 -107.5t-98 -65t-98.5 -33t-102.5 -8.5q-100 0 -201 33z" />
<glyph unicode="&#x424;" horiz-adv-x="1544" d="M63 735q41 264 219 423t459 179l29 176h338l-29 -176q109 -15 203 -65.5t162.5 -129.5t98.5 -194.5t9 -249.5q-41 -260 -219.5 -419.5t-449.5 -182.5l-29 -176h-338l29 176q-112 14 -208 64.5t-165 130t-99.5 195t-9.5 249.5zM426 717q-23 -131 20 -217t154 -99l98 627 q-107 -13 -178.5 -95.5t-93.5 -215.5zM924 406q218 28 268 311q12 84 2.5 149.5t-52.5 110t-118 55.5z" />
<glyph unicode="&#x425;" horiz-adv-x="1183" d="M-100 0l499 748l-237 686h364l133 -433l267 433h403l-469 -709l268 -725h-380l-150 463l-295 -463h-403z" />
<glyph unicode="&#x426;" horiz-adv-x="1333" d="M23 0l227 1434h352l-174 -1098h340l174 1098h352l-174 -1098h142l-103 -645h-336l49 309h-849z" />
<glyph unicode="&#x427;" horiz-adv-x="1198" d="M127 856l90 578h352l-84 -531q-9 -64 22.5 -97.5t98.5 -33.5q100 0 193 51l96 611h352l-227 -1434h-352l75 481q-116 -45 -256 -45q-82 1 -154 29.5t-123.5 80.5t-75 133t-7.5 177z" />
<glyph unicode="&#x428;" horiz-adv-x="1802" d="M23 0l227 1434h352l-174 -1098h272l174 1098h353l-174 -1098h272l174 1098h352l-227 -1434h-1601z" />
<glyph unicode="&#x429;" horiz-adv-x="1861" d="M23 0l227 1434h352l-174 -1098h260l172 1098h352l-172 -1098h258l175 1098h352l-174 -1098h141l-104 -645h-336l51 309h-1380z" />
<glyph unicode="&#x42a;" horiz-adv-x="1331" d="M115 1098l53 336h631l-76 -480h151q97 0 180 -31t145 -90.5t89 -156t8 -217.5q-36 -231 -184.5 -345t-388.5 -114h-506l174 1098h-276zM623 322h116q81 0 136.5 38.5t66.5 118.5q11 69 -26 111.5t-113 42.5h-131z" />
<glyph unicode="&#x42b;" horiz-adv-x="1687" d="M23 0l227 1434h352l-76 -480h154q97 0 180 -31t144.5 -90.5t88.5 -156t9 -217.5q-37 -231 -186 -345t-388 -114h-505zM426 322h119q79 0 134.5 38.5t68.5 118.5q11 69 -27 111.5t-113 42.5h-133zM1157 0l227 1434h353l-228 -1434h-352z" />
<glyph unicode="&#x42c;" horiz-adv-x="1134" d="M23 0l227 1434h352l-76 -480h154q97 0 180 -31t144.5 -90.5t88.5 -156t9 -217.5q-37 -231 -186 -345t-388 -114h-505zM426 322h119q79 0 134.5 38.5t68.5 118.5q11 69 -27 111.5t-113 42.5h-133z" />
<glyph unicode="&#x42d;" horiz-adv-x="1030" d="M-20 25l53 344q109 -50 225 -50q244 0 340 238h-356l51 322h348q-13 116 -78.5 174.5t-167.5 58.5q-136 0 -243 -51l57 350q134 51 266 51q105 0 197 -31.5t166 -94.5t121.5 -156t63 -216.5t-8.5 -275.5q-29 -184 -97.5 -323t-167.5 -224.5t-219 -127.5t-260 -42 q-158 0 -290 54z" />
<glyph unicode="&#x42e;" horiz-adv-x="1771" d="M23 0l227 1434h352l-88 -549h135q71 277 226.5 427t400.5 150q190 0 311.5 -95t163 -266.5t4.5 -402.5q-27 -168 -79.5 -299.5t-133.5 -228.5t-196.5 -148t-260.5 -51q-240 0 -364 153t-119 425h-139l-88 -549h-352zM965 700q-61 -378 141 -378q114 0 184.5 101.5 t102.5 309.5q61 379 -142 379q-222 0 -286 -412z" />
<glyph unicode="&#x42f;" horiz-adv-x="1206" d="M-63 0l368 543q-95 61 -139.5 170.5t-20.5 255.5q37 232 189 348.5t383 116.5h538l-227 -1434h-352l74 467h-86h-21l-307 -467h-399zM498 942q-12 -71 26.5 -115.5t108.5 -44.5h168l49 324h-152q-78 0 -132.5 -40.5t-67.5 -123.5z" />
<glyph unicode="&#x430;" horiz-adv-x="1019" d="M37.5 309q-8.5 97 11.5 201q37 233 139.5 367.5t264.5 134.5q167 0 245 -135l19 106h303l-156 -983h-303l17 96q-94 -125 -250 -125q-93 0 -158 45.5t-94.5 120.5t-38 172zM377 489q-18 -108 2.5 -168.5t79.5 -60.5q72 0 121 72l51 319q-12 33 -38 52.5t-58 19.5 q-64 0 -101.5 -56.5t-56.5 -177.5z" />
<glyph unicode="&#x431;" horiz-adv-x="1015" d="M56 349.5q-11 102.5 12 236.5q41 261 141.5 424.5t284.5 249.5q99 46 277 101t271 107l-53 -329q-42 -29 -104.5 -54.5t-146.5 -52.5t-124 -43q-59 -24 -103.5 -66.5t-59.5 -86.5q102 86 229 86q70 0 129 -33t100 -96.5t56.5 -155.5t-2.5 -209q-34 -224 -164.5 -340.5 t-325.5 -116.5q-85 0 -154.5 21t-127 66.5t-91 117t-44.5 174zM389 438q-14 -91 9.5 -140.5t80.5 -49.5q66 0 104 52t56 153q29 192 -88 192q-129 0 -162 -207z" />
<glyph unicode="&#x432;" horiz-adv-x="970" d="M0 0l156 983h499q79 0 139.5 -24t95 -63t49 -88.5t5.5 -102.5q-27 -152 -170 -216q66 -25 100.5 -88t20.5 -155q-6 -41 -19.5 -74.5t-41.5 -66.5t-68 -55.5t-104 -36t-146 -13.5h-516zM354 221h105q50 0 81.5 19t41.5 73q6 42 -17.5 64t-62.5 22h-119zM412 586h100 q97 0 113 90q6 40 -14.5 63t-57.5 23h-113z" />
<glyph unicode="&#x433;" horiz-adv-x="772" d="M0 0l156 983h671l-45 -289h-336l-110 -694h-336z" />
<glyph unicode="&#x434;" horiz-adv-x="1118" d="M-104 -260l84 534h104q132 285 201 709h764l-113 -709h115l-84 -534h-322l41 260h-430l-41 -260h-319zM416 274h205l71 443h-149q-50 -258 -127 -443z" />
<glyph unicode="&#x435;" horiz-adv-x="954" d="M47 518q37 234 169 364t335 130q134 0 228 -73.5t129.5 -216t-13.5 -351.5h-526q15 -154 186 -154q138 0 266 45l-37 -239q-125 -52 -292 -52q-237 0 -361 146t-84 401zM385 573h240q19 175 -84 175q-110 0 -156 -175z" />
<glyph unicode="&#x436;" horiz-adv-x="1486" d="M-68 0l306 494l-138 489h355l73 -350h74l55 350h330l-55 -350h65l177 350h372l-297 -514l146 -469h-353l-86 344h-69l-56 -344h-329l53 344h-61l-189 -344h-373z" />
<glyph unicode="&#x437;" horiz-adv-x="833" d="M-29 23l39 256q116 -48 242 -48q163 0 176 84q7 39 -18.5 52.5t-81.5 13.5h-160l37 235h147q108 0 119 68q6 36 -25 54t-94 18q-120 0 -256 -54l43 267q123 45 299 45q103 0 180 -27.5t118.5 -72.5t58 -99.5t6.5 -112.5q-11 -75 -55 -127t-105 -77q60 -25 93 -89.5 t20 -154.5q-9 -56 -38 -104t-82 -89t-143 -64.5t-208 -23.5q-191 0 -312 50z" />
<glyph unicode="&#x438;" horiz-adv-x="1024" d="M0 0l156 983h336l-35 -229q-25 -147 -56 -234l377 463h244l-156 -983h-336l39 231q21 141 56 232l-379 -463h-246z" />
<glyph unicode="&#x439;" horiz-adv-x="1024" d="M0 0l156 983h336l-35 -229q-25 -147 -56 -234l377 463h244l-156 -983h-336l39 231q21 141 56 232l-379 -463h-246zM315 1157l39 240q124 -66 277 -66q174 0 330 76l-43 -260q-135 -72 -300 -72q-179 0 -303 82z" />
<glyph unicode="&#x43a;" d="M0 0l156 983h336l-56 -350h74l213 350h375l-334 -512l172 -471h-352l-119 344h-74l-55 -344h-336z" />
<glyph unicode="&#x43b;" horiz-adv-x="1067" d="M-59 2l47 291q85 -21 127 39q39 57 73 197.5t91 453.5h786l-156 -983h-336l111 694h-129q-49 -254 -92 -394.5t-109 -215.5q-134 -143 -413 -82z" />
<glyph unicode="&#x43c;" horiz-adv-x="1222" d="M0 0l156 983h282l162 -418l295 418h326l-156 -983h-317l40 262q23 152 70 266l-248 -354h-106l-131 336q8 -116 -15 -266l-39 -244h-319z" />
<glyph unicode="&#x43d;" horiz-adv-x="1024" d="M0 0l156 983h336l-54 -348h197l53 348h336l-156 -983h-336l56 348h-195l-57 -348h-336z" />
<glyph unicode="&#x43e;" horiz-adv-x="1005" d="M45 510q38 238 175 370t349 132q208 0 318.5 -145.5t70.5 -393.5q-38 -242 -168 -372t-354 -130q-217 0 -323.5 144t-67.5 395zM377 483q-30 -223 86 -223q127 0 164 240q35 225 -84 225q-125 0 -166 -242z" />
<glyph unicode="&#x43f;" horiz-adv-x="1017" d="M0 0l156 983h860l-156 -983h-336l111 694h-189l-110 -694h-336z" />
<glyph unicode="&#x440;" horiz-adv-x="1021" d="M-72 -451l228 1434h303l-15 -96q93 125 248 125q75 0 132.5 -29.5t90.5 -80.5t52 -120t17.5 -147t-13.5 -162q-35 -232 -138 -367t-264 -135q-148 0 -221 103l-84 -525h-336zM389 332q12 -33 38.5 -52.5t61.5 -19.5q61 0 98 56t56 178q37 229 -82 229q-68 0 -121 -70z " />
<glyph unicode="&#x441;" horiz-adv-x="802" d="M45 506q39 243 188.5 374.5t364.5 131.5q131 0 223 -45l-43 -271q-57 33 -141 33q-96 0 -167 -60.5t-89 -176.5q-17 -108 30 -170t140 -62t176 45l-47 -291q-98 -43 -221 -43q-98 0 -181 34.5t-143 99.5t-85.5 169t-4.5 232z" />
<glyph unicode="&#x442;" horiz-adv-x="817" d="M57 694l45 289h768l-45 -289h-217l-110 -694h-336l110 694h-215z" />
<glyph unicode="&#x443;" horiz-adv-x="1024" d="M-16 -451l45 287q92 -18 161 25q53 38 105 143l-221 979h354l76 -569l211 569h381l-518 -1110q-85 -190 -224 -279q-157 -99 -370 -45z" />
<glyph unicode="&#x444;" horiz-adv-x="1368" d="M45 514q19 119 69.5 211.5t126 151.5t167 92.5t198.5 42.5l68 422h321l-69 -426q61 -9 121 -33.5t117.5 -69.5t98 -104.5t58.5 -146t2 -185.5q-19 -119 -69.5 -211.5t-125.5 -151.5t-166 -92.5t-198 -42.5l-68 -422h-321l67 426q-61 9 -121 33.5t-117.5 70t-97.5 105 t-58 145.5t-3 185zM373 498q-17 -107 15 -169.5t106 -68.5l73 463q-81 -7 -130 -65.5t-64 -159.5zM803 260q162 16 196 232q15 100 -16 163t-106 70z" />
<glyph unicode="&#x445;" horiz-adv-x="976" d="M-80 0l338 504l-166 479h342l62 -229q4 -21 12 -92q17 50 35 92l129 229h375l-320 -483l172 -500h-352l-60 219q0 1 -7 42t-9 63q-11 -32 -43 -103l-129 -221h-379z" />
<glyph unicode="&#x446;" horiz-adv-x="1075" d="M0 0l156 983h336l-111 -709h174l113 709h336l-113 -709h115l-84 -534h-320l41 260h-643z" />
<glyph unicode="&#x447;" horiz-adv-x="978" d="M63 580l66 403h336l-57 -360q-11 -78 67 -78q49 0 103 30l65 408h336l-156 -983h-336l45 287q-95 -31 -188 -31q-130 0 -217.5 85t-63.5 239z" />
<glyph unicode="&#x448;" horiz-adv-x="1478" d="M0 0l156 983h336l-111 -709h156l112 709h336l-113 -709h158l111 709h336l-156 -983h-1321z" />
<glyph unicode="&#x449;" horiz-adv-x="1536" d="M0 0l156 983h336l-111 -709h149l113 709h336l-113 -709h152l110 709h336l-110 -709h114l-86 -534h-319l41 260h-1104z" />
<glyph unicode="&#x44a;" horiz-adv-x="1128" d="M55 696l47 287h539l-43 -274h160q108 0 186 -53t110.5 -138t16.5 -182q-26 -162 -125.5 -249t-294.5 -87h-501l110 696h-205zM524 238h76q117 0 133 118q9 54 -12 84.5t-72 30.5h-88z" />
<glyph unicode="&#x44b;" horiz-adv-x="1468" d="M0 0l156 983h336l-43 -274h161q81 0 146.5 -31t105 -83t56 -119.5t4.5 -139.5q-12 -79 -40.5 -138.5t-77.5 -105t-124.5 -69t-175.5 -23.5h-504zM375 238h76q117 0 135 118q8 54 -13 84.5t-71 30.5h-90zM977 0l156 983h335l-155 -983h-336z" />
<glyph unicode="&#x44c;" horiz-adv-x="978" d="M0 0l156 983h336l-43 -274h161q81 0 146.5 -31t105 -83t56 -119.5t4.5 -139.5q-12 -79 -40.5 -138.5t-77.5 -105t-124.5 -69t-175.5 -23.5h-504zM375 238h76q117 0 135 118q8 54 -13 84.5t-71 30.5h-90z" />
<glyph unicode="&#x44d;" horiz-adv-x="839" d="M-27 20l43 263q82 -37 164 -37q179 0 246 137h-270l34 217h273q-21 141 -182 141q-94 0 -189 -36l45 270q107 37 236 37q74 0 142 -21t127 -64t98 -109t55 -155.5t-2 -203.5q-20 -127 -71 -222.5t-124 -152.5t-158 -85t-182 -28q-168 0 -285 49z" />
<glyph unicode="&#x44e;" horiz-adv-x="1435" d="M0 0l156 983h336l-54 -346h84q56 180 178.5 277.5t298.5 97.5q208 0 318.5 -145.5t71.5 -393.5q-38 -242 -168.5 -372t-354.5 -130q-173 0 -273.5 98t-109.5 277h-90l-57 -346h-336zM807 483q-34 -223 86 -223q123 0 164 240q17 111 -4.5 168t-79.5 57q-125 0 -166 -242z " />
<glyph unicode="&#x44f;" horiz-adv-x="1003" d="M-63 0l266 371q-63 45 -92.5 121t-16.5 163q11 69 38.5 126t75.5 103.5t123.5 72.5t172.5 26h497l-155 -983h-328l47 289h-39h-14l-197 -289h-378zM418 621q-9 -50 15 -78.5t69 -28.5h98l35 217h-86q-116 0 -131 -110z" />
<glyph unicode="&#x451;" horiz-adv-x="954" d="M47 518q37 234 169 364t335 130q134 0 228 -73.5t129.5 -216t-13.5 -351.5h-526q15 -154 186 -154q138 0 266 45l-37 -239q-125 -52 -292 -52q-237 0 -361 146t-84 401zM209 1274q11 63 63.5 107t118.5 44q75 0 120.5 -55.5t33.5 -132.5q-11 -65 -62.5 -108.5 t-117.5 -43.5q-75 0 -121.5 55.5t-34.5 133.5zM385 573h240q19 175 -84 175q-110 0 -156 -175zM625 1274q10 63 62.5 107t117.5 44q77 0 121.5 -55t31.5 -133q-9 -64 -61 -108t-117 -44q-76 0 -121.5 55.5t-33.5 133.5z" />
<glyph unicode="&#x452;" d="M0 0l178 1116h-117l31 197h117l18 121h336l-18 -121h274l-31 -197h-276l-29 -180q107 76 226 76q129 0 206 -91.5t52 -246.5l-129 -821q-28 -173 -127.5 -252.5t-251.5 -79.5q-99 0 -178 28l41 269q53 -10 86 -8q89 6 106 116l109 692q7 43 -11.5 62.5t-52.5 19.5 q-70 0 -125 -79l-98 -621h-336z" />
<glyph unicode="&#x453;" horiz-adv-x="772" d="M0 0l156 983h671l-45 -289h-336l-110 -694h-336zM293 1098l211 313h375l-267 -313h-319z" />
<glyph unicode="&#x454;" horiz-adv-x="839" d="M43 496q21 130 73.5 230.5t129 162.5t170 93.5t202.5 31.5q135 0 238 -47l-41 -256q-65 32 -147 32q-180 0 -256 -143h274l-35 -217h-274q25 -137 180 -137q106 0 203 43l-45 -281q-105 -37 -250 -37q-101 0 -184.5 32t-145 94.5t-87 165t-5.5 233.5z" />
<glyph unicode="&#x455;" horiz-adv-x="849" d="M-10 43l43 274q128 -73 284 -73q121 0 129 59q4 24 -16.5 43t-55.5 35t-78 34t-84 44.5t-73 62t-47 92t-4 127.5q23 132 128 201.5t284 69.5t321 -66l-43 -258q-46 28 -117 47t-131 19q-45 0 -74.5 -15.5t-35.5 -44.5q-4 -24 17 -43t56.5 -33.5t78.5 -31t84.5 -42.5 t74 -60t47 -91t2.5 -129q-13 -80 -51.5 -138t-97.5 -91.5t-128.5 -49t-152.5 -14.5q-225 3 -360 72z" />
<glyph unicode="&#x456;" horiz-adv-x="495" d="M2 0l156 983h336l-156 -983h-336zM186 1307q14 82 70 121.5t133 39.5q87 0 136.5 -51t35.5 -147q-13 -84 -68.5 -125t-132.5 -41q-87 0 -137.5 52.5t-36.5 150.5z" />
<glyph unicode="&#x457;" horiz-adv-x="495" d="M0 1274q11 63 63.5 107t118.5 44q75 0 120.5 -55.5t33.5 -132.5q-11 -65 -62.5 -108.5t-117.5 -43.5q-75 0 -121.5 55.5t-34.5 133.5zM2 0l156 983h336l-156 -983h-336zM416 1274q10 63 62.5 107t117.5 44q77 0 122 -55t32 -133q-9 -64 -61.5 -108t-117.5 -44 q-76 0 -121.5 55.5t-33.5 133.5z" />
<glyph unicode="&#x458;" horiz-adv-x="503" d="M-233 -451l43 269q50 -10 84 -8q89 6 106 116l166 1057h336l-178 -1130q-53 -332 -377 -332q-101 0 -180 28zM195 1307q14 82 70 121.5t132 39.5q87 0 137 -50.5t37 -147.5q-14 -84 -69.5 -125t-132.5 -41q-87 0 -137.5 52.5t-36.5 150.5z" />
<glyph unicode="&#x459;" horiz-adv-x="1511" d="M-72 2l45 283q49 -8 84 2.5t60 44.5q38 53 70.5 190t91.5 461h761l-53 -330h160q161 0 243 -99t60 -247q-49 -307 -406 -307h-495l108 694h-114q-49 -255 -92 -395t-111 -215q-132 -144 -412 -82zM922 238h79q104 0 117 92q5 39 -13.5 62.5t-62.5 23.5h-92z" />
<glyph unicode="&#x45a;" horiz-adv-x="1480" d="M0 0l156 983h336l-52 -330h183l51 330h336l-52 -330h160q161 0 243 -99t60 -247q-49 -307 -407 -307h-496l64 393h-183l-63 -393h-336zM891 238h82q101 0 117 92q5 39 -13.5 62.5t-62.5 23.5h-92z" />
<glyph unicode="&#x45b;" d="M0 0l178 1116h-117l31 197h117l18 121h336l-18 -121h274l-31 -197h-274l-29 -180q102 76 224 76q129 0 206 -91.5t52 -246.5l-107 -674h-336l99 618q7 43 -11.5 62.5t-52.5 19.5q-37 0 -69.5 -23t-53.5 -56l-100 -621h-336z" />
<glyph unicode="&#x45c;" d="M0 0l156 983h336l-56 -350h74l213 350h375l-334 -512l172 -471h-352l-119 344h-74l-55 -344h-336zM412 1098l211 313h374l-266 -313h-319z" />
<glyph unicode="&#x45e;" horiz-adv-x="1024" d="M-16 -451l45 287q92 -18 161 25q53 38 105 143l-221 979h354l76 -569l211 569h381l-518 -1110q-85 -190 -224 -279q-157 -99 -370 -45zM301 1163l37 232q123 -60 272 -60q175 0 322 66l-41 -248q-132 -66 -291 -66q-183 0 -299 76z" />
<glyph unicode="&#x45f;" horiz-adv-x="1003" d="M0 0l156 983h336l-111 -709h174l113 709h336l-156 -983h-262l-41 -260h-322l41 260h-264z" />
<glyph unicode="&#x490;" horiz-adv-x="962" d="M23 0l227 1434h493l45 286h351l-99 -622h-491l-174 -1098h-352z" />
<glyph unicode="&#x491;" horiz-adv-x="772" d="M0 0l156 983h352l39 246h319l-84 -535h-336l-110 -694h-336z" />
<glyph unicode="&#x2000;" horiz-adv-x="1010" />
<glyph unicode="&#x2001;" horiz-adv-x="2021" />
<glyph unicode="&#x2002;" horiz-adv-x="1010" />
<glyph unicode="&#x2003;" horiz-adv-x="2021" />
<glyph unicode="&#x2004;" horiz-adv-x="673" />
<glyph unicode="&#x2005;" horiz-adv-x="505" />
<glyph unicode="&#x2006;" horiz-adv-x="336" />
<glyph unicode="&#x2007;" horiz-adv-x="336" />
<glyph unicode="&#x2008;" horiz-adv-x="252" />
<glyph unicode="&#x2009;" horiz-adv-x="404" />
<glyph unicode="&#x200a;" horiz-adv-x="112" />
<glyph unicode="&#x2010;" horiz-adv-x="733" d="M59 352l45 291h572l-45 -291h-572z" />
<glyph unicode="&#x2011;" horiz-adv-x="733" d="M59 352l45 291h572l-45 -291h-572z" />
<glyph unicode="&#x2012;" horiz-adv-x="733" d="M59 352l45 291h572l-45 -291h-572z" />
<glyph unicode="&#x2013;" horiz-adv-x="931" d="M59 352l45 291h770l-45 -291h-770z" />
<glyph unicode="&#x2014;" horiz-adv-x="1333" d="M59 352l45 291h1172l-45 -291h-1172z" />
<glyph unicode="&#x2018;" horiz-adv-x="477" d="M102 862l193 572h268l-119 -572h-342z" />
<glyph unicode="&#x2019;" horiz-adv-x="473" d="M125 862l119 572h342l-193 -572h-268z" />
<glyph unicode="&#x201a;" horiz-adv-x="475" d="M-66 -311l119 571h340l-190 -571h-269z" />
<glyph unicode="&#x201c;" horiz-adv-x="864" d="M102 862l193 572h254l-119 -572h-328zM504 862l192 572h254l-119 -572h-327z" />
<glyph unicode="&#x201d;" horiz-adv-x="860" d="M125 862l119 572h327l-192 -572h-254zM526 862l119 572h328l-193 -572h-254z" />
<glyph unicode="&#x201e;" horiz-adv-x="862" d="M-66 -311l119 571h326l-191 -571h-254zM336 -311l119 571h325l-190 -571h-254z" />
<glyph unicode="&#x2022;" horiz-adv-x="706" d="M133 737q18 115 98.5 174.5t182.5 59.5q53 0 98 -17t78.5 -49t48 -85t4.5 -120q-19 -117 -99.5 -175t-183.5 -58q-110 0 -178.5 70t-48.5 200z" />
<glyph unicode="&#x2026;" horiz-adv-x="1435" d="M8 178q14 81 71 121.5t128 40.5q81 0 131.5 -52.5t36.5 -148.5q-13 -83 -69.5 -124.5t-129.5 -41.5q-80 0 -131 53.5t-37 151.5zM492 178q14 81 70.5 121.5t127.5 40.5q81 0 131.5 -52.5t36.5 -148.5q-13 -83 -69.5 -124.5t-129.5 -41.5q-80 0 -130.5 53.5t-36.5 151.5z M975 178q14 81 71 121.5t128 40.5q81 0 131 -52.5t36 -148.5q-13 -83 -69 -124.5t-129 -41.5q-80 0 -131 53.5t-37 151.5z" />
<glyph unicode="&#x202f;" horiz-adv-x="404" />
<glyph unicode="&#x2039;" horiz-adv-x="634" d="M45 465l4 53l268 373h336l-299 -410l156 -389h-315z" />
<glyph unicode="&#x203a;" horiz-adv-x="634" d="M-20 92l301 410l-158 389h317l148 -373l-2 -53l-269 -373h-337z" />
<glyph unicode="&#x205f;" horiz-adv-x="505" />
<glyph unicode="&#x20ac;" horiz-adv-x="1099" d="M43 487l27 172h108q5 36 8 46q0 5 2 14.5t2 13.5h-108l27 172h127q84 248 258 382t401 134q142 0 264 -51l-53 -332q-73 33 -172 33q-191 0 -295 -166h281l-27 -172h-334q-4 -15 -8 -45q-4 -20 -4 -29h334l-27 -172h-293q43 -168 215 -168q107 0 236 56l-58 -359 q-119 -45 -258 -45q-107 0 -198 32t-162 94.5t-114 162.5t-50 227h-129z" />
<glyph unicode="&#x2122;" horiz-adv-x="1167" d="M168 1264l27 170h411l-26 -170h-113l-55 -351h-187l54 351h-111zM590 913l82 521h147l88 -209l160 209h164l-82 -521h-172l43 256l-113 -145h-41l-61 145l-43 -256h-172z" />
<glyph unicode="&#x25fc;" horiz-adv-x="983" d="M0 0v983h983v-983h-983z" />
</font>
</defs>
</svg>
