<?xml version="1.0" encoding="UTF-8"?>
<svg width="101px" height="82px" viewBox="0 0 101 82" version="1.1" xmlns="http://www.w3.org/2000/svg" xmlns:xlink="http://www.w3.org/1999/xlink">
    <!-- Generator: Sketch 49.1 (51147) - http://www.bohemiancoding.com/sketch -->
    <title>icon-ufo</title>
    <desc>Created with Sketch.</desc>
    <defs></defs>
    <g id="Page-1" stroke="none" stroke-width="1" fill="none" fill-rule="evenodd">
        <g id="icon-ufo" fill="#1F2B6C" fill-rule="nonzero">
            <path d="M50.73,31.03 C44.74,31.03 39.73,35.28 38.63,40.92 C46.676871,40.0559382 54.793129,40.0559382 62.84,40.92 C61.6816898,35.1579045 56.617363,31.0143644 50.74,31.02 L50.73,31.03 Z M50.73,27.14 C59.06,27.14 65.93,33.4 66.86,41.43 C80.14,43.36 92,47.63 100.2,53.66 C100.698684,54.0232576 100.993646,54.6030379 100.993646,55.22 C100.993646,55.8369621 100.698684,56.4167424 100.2,56.78 C94.82,60.73 87.88,63.92 80,66.2 L88.89,75.04 C89.3794539,75.5330265 89.5687014,76.2497223 89.3864548,76.9201151 C89.2042082,77.5905078 88.6781552,78.1127488 88.0064548,78.2901151 C87.3347544,78.4674813 86.6194539,78.2730265 86.13,77.78 L75.63,67.35 C68.0527686,69.1094624 60.3081605,70.0482027 52.53,70.15 C52.63,70.39 52.69,70.65 52.69,70.92 L52.69,80.07 C52.69,81.13 51.81,82 50.73,82 C49.6624607,82.0000142 48.7955028,81.1375251 48.79,80.07 L48.79,70.92 C48.79,70.65 48.84,70.4 48.94,70.16 C35.76,70.16 44.77,70.16 48.94,70.16 L48.94,70.15 C40.89,70.02 33.04,69.05 25.84,67.35 L15.34,77.78 C14.5771392,78.5309692 13.3528608,78.5309692 12.59,77.78 C12.2248114,77.4176338 12.0194116,76.9244628 12.0194116,76.41 C12.0194116,75.8955372 12.2248114,75.4023662 12.59,75.04 L21.48,66.2 C14.08,64.06 7.51,61.12 2.29,57.5 C0.26,58.8 0.99,58.34 2.29,57.5 C1.94666469,57.2647602 1.60663153,57.0247368 1.27,56.78 C0.771315633,56.4167424 0.476353818,55.8369621 0.476353818,55.22 C0.476353818,54.6030379 0.771315633,54.0232576 1.27,53.66 C9.47,47.64 21.33,43.36 34.61,41.43 C35.587772,33.2710107 42.5126352,27.1322828 50.73,27.14 Z M52.83,53.08 C52.83,54.2342751 51.8942751,55.17 50.74,55.17 C49.5857249,55.17 48.65,54.2342751 48.65,53.08 C48.65,51.9284863 49.5834863,50.995 50.735,50.995 C51.8865137,50.995 52.82,51.9284863 52.82,53.08 L52.83,53.08 Z M34.65,55.55 C34.65,56.71 33.71,57.63 32.56,57.63 C32.0075339,57.6326754 31.4769218,57.4143924 31.0862647,57.0237353 C30.6956076,56.6330782 30.4773246,56.1024661 30.48,55.55 C30.48,54.42 31.41,53.49 32.56,53.49 C33.71,53.49 34.65,54.42 34.65,55.55 Z M69.72,55.55 C69.72,56.71 68.79,57.63 67.63,57.63 C66.4867706,57.63 65.56,56.7032294 65.56,55.56 C65.56,54.4167706 66.4867706,53.49 67.63,53.49 C68.79,53.49 69.72,54.42 69.72,55.55 Z M5.86,55.22 C16.74,62.19 33.24,66.3 50.73,66.3 C68.23,66.3 84.73,62.19 95.61,55.22 C84.73,48.25 68.23,44.14 50.73,44.14 C33.24,44.14 16.73,48.24 5.86,55.22 Z M79.61,38.42 C78.77,38.42 77.99,37.87 77.74,37.02 C74.1002464,25.1076279 63.1159985,16.9627351 50.66,16.94 C38.7172845,16.9265219 28.0544107,24.4193521 24.02,35.66 C23.79135,36.3173687 23.2293667,36.8028191 22.5457437,36.9334867 C21.8621208,37.0641544 21.1607167,36.8201878 20.7057437,36.2934867 C20.2507707,35.7667857 20.11135,35.0373687 20.34,34.38 C24.9324272,21.587957 37.0685896,13.0622228 50.66,13.08 C64.8,13.08 77.46,22.47 81.48,35.92 C81.6578097,36.5097152 81.5450163,37.1488275 81.1760848,37.6420515 C80.8071533,38.1352754 80.2259256,38.4239988 79.61,38.42 Z M97.09,38.42 C96.25,38.42 95.47,37.87 95.22,37.02 C89.42,17.52 71.03,3.87 50.52,3.87 C30.7960953,3.84552096 13.1863323,16.2231948 6.53,34.79 C6.35805766,35.2756789 5.99998231,35.6730144 5.53474422,35.8943777 C5.06950612,36.115741 4.53532154,36.1429485 4.05,35.97 C3.56154493,35.8045173 3.16019958,35.4494878 2.93635667,34.9848727 C2.71251375,34.5202576 2.68499561,33.9851251 2.86,33.5 C10.0743627,13.390606 29.1456733,-0.0173458643 50.51,5.45696821e-12 C72.75,5.45696821e-12 92.66,14.77 98.96,35.92 C99.1378097,36.5097152 99.0250163,37.1488275 98.6560848,37.6420515 C98.2871533,38.1352754 97.7059256,38.4239988 97.09,38.42 Z" id="zl54a"></path>
        </g>
    </g>
</svg>