<?xml version="1.0" encoding="UTF-8"?>
<svg width="45px" height="78px" viewBox="0 0 45 78" version="1.1" xmlns="http://www.w3.org/2000/svg" xmlns:xlink="http://www.w3.org/1999/xlink">
    <!-- Generator: Sketch 49.1 (51147) - http://www.bohemiancoding.com/sketch -->
    <title>icon-hand</title>
    <desc>Created with Sketch.</desc>
    <defs></defs>
    <g id="Page-1" stroke="none" stroke-width="1" fill="none" fill-rule="evenodd">
        <g id="icon-hand" fill="#1F2B6C" fill-rule="nonzero">
            <path d="M45,57.35 C45.0387555,68.5552655 35.995197,77.6748955 24.79,77.73 L21.19,77.73 C9.99493363,77.6639206 0.962257588,68.555227 0.99,57.36 L0.99,7.61 C0.99,3.81 4.04,0.74 7.79,0.74 C11.5692468,0.75653539 14.6210706,3.83073329 14.61,7.61 L14.61,24.91 C16.2247791,23.9785437 18.1539203,23.7597084 19.9363076,24.3058015 C21.7186949,24.8518947 23.1941501,26.1138404 24.01,27.79 C26.1130297,26.2531035 28.9147921,26.0699563 31.2,27.32 L31.13,19.42 C31.13,15.62 34.18,12.54 37.93,12.54 C41.69,12.54 44.74,15.62 44.74,19.4 L45,57.35 Z M27.97,52.05 C29.8162461,52.0389858 31.3055441,50.5362707 31.3,48.69 L31.3000154,47.94 L25.03,50.26 C25.6017369,51.3561625 26.7337016,52.0453519 27.97,52.05 Z M24.75,32.51 L24.75,35.81 L27.67,35.06 C28.8458357,34.7194288 30.0941643,34.7194288 31.27,35.06 L31.25,32.81 C30.9952275,31.1933533 29.6065715,29.9994479 27.97,29.99 C26.4478278,29.9981073 25.1236907,31.0343885 24.75,32.51 Z M14.61,37.41 L14.65,37.41 C14.62,37.61 14.61,37.81 14.61,38.01 L14.6099846,38.41 L21.16,36.73 L21.16,33.36 C21.16,32.94 21.2,32.52 21.28,32.12 L21.28,30.89 C21.28,29.04 19.78,27.53 17.94,27.53 C16.0937539,27.5410142 14.6044559,29.0437293 14.61,30.89 L14.61,37.41 Z M4.46,36.67 L4.45998462,43.75 C5.7026862,42.1921562 7.23393855,40.8883848 8.97,39.91 L9.39,39.75 L11.09,39.31 C11.12,39.16 11.13,39.01 11.13,38.86 L11.13,7.61 C11.13,5.75 9.63,4.24 7.8,4.24 C5.948231,4.25101433 4.45445593,5.75820655 4.46,7.61 L4.46,36.67 Z M41.52,57.36 L41.27,19.42 C41.27,17.55 39.77,16.03 37.93,16.03 C36.0821445,16.046491 34.5944266,17.5520793 34.6,19.4 L34.72,32.5 C34.76,32.78 34.78,33.07 34.78,33.36 L34.78,37.5 C36.5533458,39.8718459 36.5533458,43.1281541 34.78,45.5 L34.78,48.7 C34.7785562,50.6332528 33.9590755,52.4756088 32.5242808,53.7713066 C31.0894861,55.0670043 29.1733915,55.6950217 27.25,55.5 C27.82,56.81 28.25,58.21 28.49,59.67 C28.5784947,60.1755754 28.4392615,60.6944296 28.1095427,61.0877784 C27.7798238,61.4811272 27.2932606,61.7088372 26.78,61.71 C25.95,61.71 25.21,61.11 25.07,60.26 C24.82,58.76 24.34,57.36 23.69,56.08 L21.69,53.56 L20.79,52.44 L20.43,51.99 L20.23,51.84 C19.2741656,51.0952059 18.2035092,50.5109045 17.06,50.11 C16.48,49.91 16.06,49.44 15.92,48.88 C15.7569902,48.2641653 15.9435508,47.6084817 16.4063429,47.1707054 C16.869135,46.7329291 17.534164,46.5830549 18.14,46.78 C19.06,47.08 19.94,47.49 20.77,47.98 L20.91,48.06 L21.16,47.96 L24.63,46.68 L24.73,46.65 L30.34,44.57 C32.0261102,44.0681399 32.9909162,42.299329 32.5,40.61 C32.5,40.56 32.46,40.51 32.45,40.46 C31.9155258,38.8580167 30.2128058,37.9625449 28.59,38.43 L24.75,39.42 L24.63,39.45 L23.65,39.7 L21.28,40.31 L21.17,40.34 L14.61,42.02 L12.65,42.52 L11.14,42.92 L10.48,43.08 C6.6990338,45.2841983 4.43310396,49.3859153 4.58,53.76 L4.58,54.06 C4.59,54.33 4.55,54.57 4.46,54.8 L4.46,57.36 C4.46,66.67 11.96,74.24 21.19,74.24 L24.79,74.24 C34.02,74.24 41.52,66.67 41.52,57.36 Z" id="hepya"></path>
        </g>
    </g>
</svg>