<?xml version="1.0" encoding="UTF-8"?>
<svg width="60px" height="71px" viewBox="0 0 60 71" version="1.1" xmlns="http://www.w3.org/2000/svg" xmlns:xlink="http://www.w3.org/1999/xlink">
    <!-- Generator: Sketch 49.1 (51147) - http://www.bohemiancoding.com/sketch -->
    <title>icon-rock</title>
    <desc>Created with Sketch.</desc>
    <defs></defs>
    <g id="Page-1" stroke="none" stroke-width="1" fill="none" fill-rule="evenodd">
        <g id="icon-rock" transform="translate(0.000000, -1.000000)" fill="#1F2B6C" fill-rule="nonzero">
            <path d="M22.96,65.33 L21.34,63.18 L1.44,36.73 C-0.0959255854,34.8722248 -0.430853045,32.2984315 0.578467665,30.1094437 C1.58778838,27.9204558 3.76262997,26.5038923 6.17280251,26.4656241 C8.58297505,26.4273558 10.8016929,27.7741591 11.88,29.93 L18.38,37.25 L18.38,7.45 C18.3744508,3.89002263 21.2500567,0.996528098 24.81,0.98 C28.3699465,0.991021559 31.2500171,3.88003643 31.25,7.44 L31.26,22.33 C32.7763233,21.4902678 34.5696898,21.3057911 36.2252104,21.819248 C37.8807311,22.3327048 39.2549693,23.4996084 40.03,25.05 C42.0235817,23.5748341 44.6971474,23.406513 46.86,24.62 L46.86,10.41 C46.86,6.9 49.92,3.93 53.53,3.93 C57.08,3.93 59.96,6.83 59.96,10.41 L59.96,52.77 C59.96,63.37 51.4,71.98 40.86,71.98 L37.47,71.98 C32.0779655,71.9734789 26.9407108,69.6846031 23.33,65.68 C23.18877,65.5838374 23.0638544,65.465674 22.96,65.33 Z M27.99,26.05 L27.97,7.45 C27.9726564,6.60926246 27.6412201,5.80190456 27.0486042,5.20553797 C26.4559883,4.60917137 25.6507376,4.27264799 24.81,4.27 C23.0631639,4.27551055 21.6499913,5.69315516 21.65,7.44 L21.65,42.25 L21.44,42.25 C21.34,42.43 21.22,42.59 21.06,42.73 C20.39,43.35 19.36,43.29 18.76,42.61 L18.43,42.25 L18.38,42.25 L18.38,42.19 L9.38,32.06 C8.49614006,31.0321064 7.03277122,30.7246759 5.81,31.31 C4.373843,32.0084242 3.72969662,33.7042381 4.34,35.18 L24.21,61.52 C24.29,61.6 24.37,61.7 24.44,61.8 C27.386195,66.0981836 32.2590147,68.6710923 37.47,68.68 L40.87,68.68 C49.59,68.68 56.69,61.55 56.69,52.77 L56.69,10.41 C56.6926564,9.56926246 56.3612201,8.76190456 55.7686042,8.16553797 C55.1759883,7.56917137 54.3707376,7.23264799 53.53,7.23 C51.73,7.23 50.13,8.71 50.13,10.41 L50.13,29.87 L50.15,30.21 L50.15,40.45 C50.15,41.35 49.41,42.1 48.51,42.1 C47.61,42.1 46.87,41.35 46.87,40.45 L46.87,35.43 L46.87,30.05 C46.7849637,28.404561 45.4276319,27.1131191 43.78,27.11 C42.1510321,27.1227051 40.8097935,28.3940421 40.71,30.02 L40.71,38.35 C40.6989542,39.2585084 39.9535084,39.9860456 39.045,39.9749999 C38.1364916,39.9639542 37.4089544,39.2185084 37.42,38.31 L37.42,30.21 L37.43,29.86 L37.43,27.92 C37.5459912,26.7451979 36.9846655,25.6064851 35.9822199,24.9830137 C34.9797743,24.3595423 33.7102257,24.3595423 32.7077801,24.9830137 C31.7053345,25.6064851 31.1440088,26.7451979 31.26,27.92 L31.26,37.12 C31.3081065,37.7346537 31.0074234,38.3243565 30.4816958,38.6464184 C29.9559681,38.9684803 29.2940319,38.9684803 28.7683042,38.6464184 C28.2425766,38.3243565 27.9418935,37.7346537 27.99,37.12 L27.99,27.92 L27.99,27.66 L27.99,26.05 Z" id="msg7a"></path>
        </g>
    </g>
</svg>