<?xml version="1.0" encoding="UTF-8" standalone="no"?>
<!DOCTYPE svg  PUBLIC '-//W3C//DTD SVG 1.1//EN'  'http://www.w3.org/Graphics/SVG/1.1/DTD/svg11.dtd'>
<svg xmlns="http://www.w3.org/2000/svg" version="1.1">
<defs>
<font id="ScaniaSansCYCondensed-Regular" horiz-adv-x="560">
<font-face font-weight="400" font-family="Scania Sans CY Condensed" cap-height="710" panose-1="0 0 5 6 0 0 0 0 0 0" underline-thickness="50" descent="-250" font-stretch="condensed" units-per-em="1000" underline-position="-150" x-height="524" ascent="750" unicode-range="U+0020-FB02" bbox="-377 -200 921 932"/>
<missing-glyph/>
<glyph d="M214.5 658q-15.5 -9 -22 -30.5t-6.5 -61.5v-42h103v-63h-103v-461h-82v461h-79v63h79v41q0 95 33 134.5t107 39.5q21 0 45 -3v-69h-30q-29 0 -44.5 -9zM381 524h82v-524h-82v524zM381 736h82v-105h-82v105z" unicode="fi" glyph-name="fi" horiz-adv-x="537"/>
<glyph d="M214.5 658q-15.5 -9 -22 -30.5t-6.5 -61.5v-42h103v-63h-103v-461h-82v461h-79v63h79v41q0 95 33 134.5t107 39.5q21 0 45 -3v-69h-30q-29 0 -44.5 -9zM381 736h82v-736h-82v736z" unicode="fl" glyph-name="fl" horiz-adv-x="537"/>
<glyph unicode=" " glyph-name="space" horiz-adv-x="220"/>
<glyph d="M85 449v261h86v-261l-14 -261h-58zM82 102h93v-102h-93v102z" unicode="!" glyph-name="exclam" horiz-adv-x="257"/>
<glyph d="M55 710h74v-260h-74v260zM248 710h74v-260h-74v260z" unicode='&quot;' glyph-name="quotedbl" horiz-adv-x="377"/>
<glyph d="M405 463l-30 -229h73l-11 -66h-71l-22 -168h-67l22 168h-125l-22 -168h-67l22 168h-73l11 66h71l30 229h-73l11 66h71l24 181h66l-24 -181h125l24 181h67l-24 -181h74l-11 -66h-71zM338 463h-125l-30 -229h125z" unicode="#" glyph-name="numbersign" horiz-adv-x="521"/>
<glyph d="M487.5 88q-23.5 -43 -69 -70.5t-110.5 -30.5v-83h-52v83q-104 9 -156 69.5t-53 153.5h83q3 -57 34 -99.5t92 -52.5v277l-32 13q-59 24 -93.5 47.5t-52.5 57.5t-18 84t24.5 91.5t69 67t102.5 28.5v76h52v-78q88 -10 137 -62.5t53 -124.5h-82q-5 42 -31.5 74.5t-76.5 42.5 v-254l35 -15q60 -25 95.5 -50t54 -61t18.5 -90q0 -51 -23.5 -94zM256 419v235q-53 -4 -84 -36t-31 -71v-12q0 -42 25.5 -65.5t85.5 -48.5zM430 185q0 47 -25.5 73.5t-86.5 51.5l-10 4v-258q59 4 90.5 37.5t31.5 79.5v12z" unicode="$" glyph-name="dollar"/>
<glyph d="M567 710h66l-400 -710h-66zM490.5 36q-38.5 45 -38.5 121q0 74 38.5 119t100.5 45t100.5 -45t38.5 -119q0 -76 -38.5 -121t-100.5 -45t-100.5 45zM642 73q20 25 20 69v29q0 45 -20 69t-51 24t-51 -24t-20 -69v-29q0 -44 20 -69t51 -25t51 25zM108.5 435 q-38.5 45 -38.5 121q0 74 38.5 119t100.5 45t100.5 -45t38.5 -119q0 -76 -38.5 -121t-100.5 -45t-100.5 45zM260 472q20 25 20 69v29q0 45 -20 69t-51 24t-51 -24t-20 -69v-29q0 -44 20 -69t51 -25t51 25z" unicode="%" glyph-name="percent" horiz-adv-x="800"/>
<glyph d="M472 0l-38 50q-72 -64 -170 -64q-101 0 -158.5 53t-57.5 142q0 72 37 122t97 81q-31 42 -48 83t-17 92q0 41 18 78.5t53 61t84 23.5t83.5 -23t51.5 -59.5t17 -77.5q0 -73 -34.5 -118.5t-91.5 -79.5l140 -183q28 65 31 153h77q-3 -128 -58 -218l89 -116h-105zM196 556 q0 -35 16 -68.5t43 -69.5q48 26 71 56.5t23 81.5v12q0 39 -21 64t-57 25t-55.5 -24t-19.5 -65v-12zM391 107l-166 221l-1 2q-44 -30 -69 -62.5t-25 -77.5v-15q0 -53 37 -86t99 -33q76 0 125 51z" unicode="&amp;" glyph-name="ampersand" horiz-adv-x="581"/>
<glyph d="M55 710h74v-260h-74v260z" unicode="&apos;" glyph-name="quotesingle" horiz-adv-x="184"/>
<glyph d="M88 81.5q-27 107.5 -27 228.5t27 228.5t71 197.5h80q-48 -102 -72 -200t-24 -207v-39q0 -108 24 -206t72 -200h-80q-44 90 -71 197.5z" unicode="(" glyph-name="parenleft" horiz-adv-x="271"/>
<glyph d="M32 -116q48 102 72 200t24 206v39q0 109 -24 207t-72 200h80q44 -90 71 -197.5t27 -228.5t-27 -228.5t-71 -197.5h-80z" unicode=")" glyph-name="parenright" horiz-adv-x="271"/>
<glyph d="M244 546l142 -72l-27 -47l-132 87l8 -159h-54l8 158l-132 -86l-27 47l141 72l-141 71l27 47l133 -86l-9 158h54l-9 -159l133 87l27 -47z" unicode="*" glyph-name="asterisk" horiz-adv-x="416"/>
<glyph d="M510 287h-195v-195h-70v195h-195v70h195v195h70v-195h195v-70z" unicode="+" glyph-name="plus"/>
<glyph d="M96 0h-41v102h99v-102l-48 -148h-51z" unicode="," glyph-name="comma" horiz-adv-x="209"/>
<glyph d="M45 349h252v-74h-252v74z" unicode="-" glyph-name="hyphen" horiz-adv-x="342"/>
<glyph d="M55 102h93v-102h-93v102z" unicode="." glyph-name="period" horiz-adv-x="203"/>
<glyph d="M276 710h81l-248 -710h-81z" unicode="/" glyph-name="slash" horiz-adv-x="384"/>
<glyph d="M108 85q-57 99 -57 270t57 270t172 99t172 -99t57 -270t-57 -270t-172 -99t-172 99zM387 128q34 72 34 197v60q0 125 -34 197t-107 72t-107 -72t-34 -197v-60q0 -125 34 -197t107 -72t107 72z" unicode="0" glyph-name="zero"/>
<glyph d="M293 710v-710h-84v594l-159 -135v90l175 161h68z" unicode="1" glyph-name="one" horiz-adv-x="440"/>
<glyph d="M190.5 137.5q-25.5 -30.5 -41.5 -65.5h345v-72h-426v44q0 28 7 50q14 41 47 82.5t88 88.5l98 84q51 44 74.5 77t23.5 83v26q0 57 -31.5 88t-85.5 31q-62 0 -93 -41t-36 -102h-88q4 58 30 106.5t74 77.5t113 29q98 0 151.5 -56.5t53.5 -144.5q0 -54 -19.5 -97t-48 -74 t-72.5 -68l-100 -84q-38 -32 -63.5 -62.5z" unicode="2" glyph-name="two"/>
<glyph d="M463 297.5q28 -43.5 28 -105.5q0 -55 -24.5 -102t-72.5 -75.5t-114 -28.5q-108 0 -163 57.5t-59 141.5h89q6 -63 40 -96t95 -33q57 0 89.5 34.5t32.5 89.5v26q0 53 -33 84.5t-87 31.5h-58v71h55q52 0 81.5 32t29.5 91v26q0 51 -29 81.5t-83 30.5q-55 0 -86 -33t-40 -89 h-87q4 47 29 91t71.5 72.5t112.5 28.5q63 0 108 -26t68 -69.5t23 -96.5q0 -61 -25.5 -104t-68.5 -65q50 -22 78 -65.5z" unicode="3" glyph-name="three"/>
<glyph d="M529 229v-72h-85v-157h-84v157h-311v72l280 481h115v-481h85zM360 229v395l-230 -395h230z" unicode="4" glyph-name="four"/>
<glyph d="M454.5 390.5q54.5 -63.5 54.5 -169.5q0 -66 -26.5 -119.5t-75.5 -84.5t-116 -31q-106 0 -160 53t-62 132h90q11 -58 43 -86.5t90 -28.5t93.5 42t35.5 112v20q0 73 -34 113t-98 40q-46 0 -79.5 -22t-48.5 -56h-77l40 405h349v-72h-277l-26 -234q52 50 131 50 q99 0 153.5 -63.5z" unicode="5" glyph-name="five"/>
<glyph d="M456 385q53 -62 53 -162q0 -67 -26.5 -121t-75 -85t-112.5 -31q-117 0 -178 90t-61 259q0 184 61 286.5t183 102.5q62 0 106 -24.5t66.5 -63t25.5 -80.5h-88q-20 98 -113 98q-77 0 -115 -76t-38 -183v-32q22 39 64 61.5t96 22.5q99 0 152 -62zM423 231q0 69 -36 107.5 t-96 38.5q-59 0 -95.5 -40t-36.5 -110v-21q0 -69 36.5 -109.5t94.5 -40.5q59 0 96 42.5t37 111.5v21z" unicode="6" glyph-name="six" horiz-adv-x="556"/>
<glyph d="M497 710v-70l-271 -640h-85l269 638h-348v72h435z" unicode="7" glyph-name="seven"/>
<glyph d="M479 311.5q27 -46.5 27 -106.5q0 -61 -26.5 -111t-77.5 -79t-122 -29q-72 0 -123 29t-77 79t-26 111q0 60 27 106.5t77 71.5q-41 23 -63 62t-22 91t26 95t73 68t108 25t108 -25t73 -68t26 -95t-22 -91t-63 -62q50 -25 77 -71.5zM159 520q0 -47 34 -77.5t87 -30.5t87 30.5 t34 77.5v16q0 56 -31 86t-90 30t-90 -30t-31 -86v-16zM420 214q0 55 -37 94.5t-103 39.5t-103 -39.5t-37 -94.5v-18q0 -59 39.5 -99t100.5 -40t100.5 40t39.5 99v18z" unicode="8" glyph-name="eight"/>
<glyph d="M439 634q61 -90 61 -259q0 -184 -61 -286.5t-183 -102.5q-62 0 -106 24.5t-66.5 63t-25.5 80.5h88q20 -98 113 -98q77 0 115 76t38 183v32q-22 -39 -64 -61.5t-96 -22.5q-99 0 -152 62t-53 162q0 67 26.5 121t75 85t112.5 31q117 0 178 -90zM397 504q0 69 -36.5 109.5 t-94.5 40.5q-59 0 -96 -42.5t-37 -111.5v-21q0 -69 36 -107.5t96 -38.5q59 0 95.5 40t36.5 110v21z" unicode="9" glyph-name="nine" horiz-adv-x="556"/>
<glyph d="M71 524h93v-102h-93v102zM71 102h93v-102h-93v102z" unicode=":" glyph-name="colon" horiz-adv-x="236"/>
<glyph d="M74 524h93v-102h-93v102zM112 0h-41v102h99v-102l-48 -148h-51z" unicode=";" glyph-name="semicolon" horiz-adv-x="242"/>
<glyph d="M50 275v70l460 216v-79l-371 -172l371 -172v-79z" unicode="&lt;" glyph-name="less"/>
<glyph d="M50 253h460v-70h-460v70zM50 462h460v-70h-460v70z" unicode="=" glyph-name="equal"/>
<glyph d="M50 138l371 172l-371 172v79l460 -216v-70l-460 -216v79z" unicode="&gt;" glyph-name="greater"/>
<glyph d="M169 212q0 38 14 65t53 64l46 45q38 37 54 67.5t16 68.5v15q0 53 -29.5 84t-82.5 31q-58 0 -85.5 -32.5t-35.5 -88.5h-89q7 87 59 140t150 53t149 -53.5t51 -140.5q0 -58 -24.5 -101.5t-83.5 -102.5l-42 -42q-20 -20 -25 -39t-6 -57h-89v24zM168 102h93v-102h-93v102z " unicode="?" glyph-name="question" horiz-adv-x="469"/>
<glyph d="M718 670q98 -52 150.5 -144t52.5 -208q0 -79 -25 -142.5t-71.5 -100.5t-108.5 -37q-60 0 -96.5 34t-42.5 79q-27 -60 -70 -86.5t-94 -26.5q-78 0 -116.5 50.5t-38.5 131.5q0 76 30.5 144t84 109t118.5 41q49 0 82 -22t41 -58l14 72h74l-55 -281q-5 -28 -5 -45 q0 -76 78 -76q35 0 63 23.5t44.5 66.5t16.5 100v48q0 86 -44.5 159t-125.5 116t-186 43q-106 0 -188.5 -50.5t-128 -133.5t-45.5 -177v-48q0 -91 45.5 -174t128.5 -135t189 -52h148v-62h-148q-134 0 -234 60.5t-153.5 162.5t-53.5 224q0 125 53.5 227t153.5 161t233 59 q132 0 230 -52zM509.5 148q37.5 40 56.5 96.5t19 103.5q0 48 -23.5 72.5t-68.5 24.5q-49 0 -85 -33t-55 -85t-19 -107q0 -50 20.5 -81t63.5 -31q54 0 91.5 40z" unicode="@" glyph-name="at" horiz-adv-x="969"/>
<glyph d="M411 186h-248l-51 -186h-85l203 710h116l204 -710h-88zM391 261l-103 379l-104 -379h207z" unicode="A" glyph-name="A" horiz-adv-x="577"/>
<glyph d="M509 308q32 -43 32 -108q0 -60 -25 -105.5t-66.5 -70t-90.5 -24.5h-277v710h255q47 0 89.5 -22t69 -64t26.5 -101t-27 -97.5t-64 -55.5q46 -19 78 -62zM168 636v-238h155q46 0 79.5 28t33.5 84v18q0 55 -33 81.5t-80 26.5h-155zM454 206q0 60 -34 89t-81 29h-171v-250 h171q47 0 81 28t34 87v17z" unicode="B" glyph-name="B" horiz-adv-x="588"/>
<glyph d="M117 85.5q-69 99.5 -69 269.5t69 269.5t202 99.5q112 0 178.5 -67t81.5 -175h-87q-17 83 -59 125.5t-114 42.5q-87 0 -134.5 -69.5t-47.5 -188.5v-74q0 -119 47.5 -188.5t134.5 -69.5q75 0 118.5 48t56.5 131h88q-15 -118 -81.5 -185.5t-181.5 -67.5q-133 0 -202 99.5z " unicode="C" glyph-name="C" horiz-adv-x="625"/>
<glyph d="M504 614.5q69 -95.5 69 -259.5t-69 -259.5t-198 -95.5h-224v710h224q129 0 198 -95.5zM436 140.5q47 66.5 47 176.5v76q0 110 -47 176.5t-130 66.5h-138v-562h138q83 0 130 66.5z" unicode="D" glyph-name="D" horiz-adv-x="621"/>
<glyph d="M168 636v-244h307v-75h-307v-243h324v-74h-410v710h410v-74h-324z" unicode="E" glyph-name="E" horiz-adv-x="539"/>
<glyph d="M168 636v-244h307v-75h-307v-317h-86v710h410v-74h-324z" unicode="F" glyph-name="F" horiz-adv-x="535"/>
<glyph d="M589 361v-60q0 -33 -4 -57q-21 -129 -84.5 -193.5t-177.5 -64.5q-133 0 -204 99t-71 270t71 270t202 99q105 0 173.5 -62t83.5 -164h-87q-33 152 -170 152q-87 0 -135.5 -69t-48.5 -188v-76q0 -118 49.5 -187.5t138.5 -69.5q80 0 125.5 59.5t53.5 167.5h-192v74h277z" unicode="G" glyph-name="G" horiz-adv-x="638"/>
<glyph d="M539 710v-710h-86v317h-285v-317h-86v710h86v-318h285v318h86z" unicode="H" glyph-name="H" horiz-adv-x="621"/>
<glyph d="M87 710h86v-710h-86v710z" unicode="I" glyph-name="I" horiz-adv-x="260"/>
<glyph d="M78.5 33.5q-47.5 47.5 -50.5 125.5h86q9 -99 97 -99q47 0 70 32t23 100v519h86v-526q0 -91 -46 -145t-133 -54q-85 0 -132.5 47.5z" unicode="J" glyph-name="J" horiz-adv-x="472"/>
<glyph d="M287 358l-119 -153v-205h-86v710h86v-387l296 387h96l-216 -279l220 -431h-94z" unicode="K" glyph-name="K" horiz-adv-x="582"/>
<glyph d="M82 710h86v-636h297v-74h-383v710z" unicode="L" glyph-name="L" horiz-adv-x="499"/>
<glyph d="M670 710v-710h-84v619l-162 -619h-91l-167 620v-620h-84v710h132l165 -614l160 614h131z" unicode="M" glyph-name="M" horiz-adv-x="752"/>
<glyph d="M557 710v-710h-112l-279 602v-602h-84v710h115l276 -597v597h84z" unicode="N" glyph-name="N" horiz-adv-x="639"/>
<glyph d="M117 85q-69 99 -69 270t69.5 270t202.5 99t202.5 -99.5t69.5 -269.5q0 -171 -69.5 -270t-202.5 -99q-134 0 -203 99zM455 130.5q47 70.5 47 186.5v76q0 116 -47 186.5t-135 70.5t-135 -70.5t-47 -186.5v-76q0 -117 47 -187t135 -70t135 70.5z" unicode="O" glyph-name="O" horiz-adv-x="640"/>
<glyph d="M438.5 682q46.5 -28 72.5 -78t26 -114q0 -63 -26 -113t-72.5 -78t-105.5 -28h-165v-271h-86v710h251q59 0 105.5 -28zM450 502q0 64 -37.5 99t-95.5 35h-149v-291h149q58 0 95.5 35t37.5 99v23z" unicode="P" glyph-name="P" horiz-adv-x="576"/>
<glyph d="M558 150q-34 -86 -101 -128l47 -96h-90l-33 66q-28 -6 -61 -6q-134 0 -203 99t-69 270t69.5 270t202.5 99t202.5 -99.5t69.5 -269.5q0 -119 -34 -205zM347 62l-65 133h90l50 -101q39 32 59.5 90t20.5 133v76q0 116 -47 186.5t-135 70.5t-135 -70.5t-47 -186.5v-76 q0 -117 47 -187t135 -70q11 0 27 2z" unicode="Q" glyph-name="Q" horiz-adv-x="640"/>
<glyph d="M294 275h-126v-275h-86v710h251q59 0 105.5 -27.5t72.5 -77t26 -113.5q0 -81 -41.5 -136t-111.5 -71l169 -285h-95zM168 349h149q58 0 95.5 34t37.5 98v23q0 64 -37.5 98t-95.5 34h-149v-287z" unicode="R" glyph-name="R" horiz-adv-x="593"/>
<glyph d="M102.5 48q-61.5 62 -62.5 163h88q3 -64 43 -107.5t117 -43.5q67 0 102.5 33t35.5 81v12q0 46 -25 72.5t-84 49.5l-100 39q-59 23 -94 46.5t-52.5 57.5t-17.5 85q0 53 27 96t76 67.5t112 24.5q73 0 124 -26t76.5 -69t27.5 -95h-87q-6 49 -41 82.5t-103 33.5 q-59 0 -92.5 -31t-33.5 -73v-12q0 -41 25.5 -65t82.5 -47l97 -38q61 -24 96.5 -48.5t53.5 -60.5t18 -92q0 -55 -26 -100t-77 -71t-123 -26q-122 0 -183.5 62z" unicode="S" glyph-name="S" horiz-adv-x="551"/>
<glyph d="M220 636h-190v74h468v-74h-192v-636h-86v636z" unicode="T" glyph-name="T" horiz-adv-x="528"/>
<glyph d="M145.5 47q-63.5 61 -63.5 180v483h85v-475q0 -82 32 -128t113 -46h8q79 0 112 46t33 128v475h85v-483q0 -118 -63.5 -179.5t-170.5 -61.5t-170.5 61z" unicode="U" glyph-name="U" horiz-adv-x="632"/>
<glyph d="M542 710l-197 -710h-120l-198 710h86l173 -628l171 628h85z" unicode="V" glyph-name="V" horiz-adv-x="569"/>
<glyph d="M756 710l-138 -710h-106l-116 608l-121 -608h-103l-137 710h85l109 -602l119 602h96l120 -607l110 607h82z" unicode="W" glyph-name="W" horiz-adv-x="791"/>
<glyph d="M412 0l-149 296l-150 -296h-86l188 370l-179 340h91l139 -269l138 269h90l-182 -340l189 -370h-89z" unicode="X" glyph-name="X" horiz-adv-x="528"/>
<glyph d="M302 276v-276h-87v281l-202 429h87l161 -348l158 348h86z" unicode="Y" glyph-name="Y" horiz-adv-x="518"/>
<glyph d="M507 638l-367 -564h367v-74h-460v71l366 565h-360v74h454v-72z" unicode="Z" glyph-name="Z" horiz-adv-x="554"/>
<glyph d="M82 743h172v-61h-95v-748h95v-61h-172v870z" unicode="[" glyph-name="bracketleft" horiz-adv-x="294"/>
<glyph d="M276 0l-248 710h81l248 -710h-81z" unicode="\" glyph-name="backslash" horiz-adv-x="384"/>
<glyph d="M40 -127v61h95v748h-95v61h172v-870h-172z" unicode="]" glyph-name="bracketright" horiz-adv-x="294"/>
<glyph d="M242 710h75l193 -430h-73l-157 365l-159 -365h-71z" unicode="^" glyph-name="asciicircum"/>
<glyph d="M19 -124h394v-76h-394v76z" unicode="_" glyph-name="underscore" horiz-adv-x="432"/>
<glyph d="M125 615l-70 131h97l44 -131h-71z" unicode="`" glyph-name="grave" horiz-adv-x="251"/>
<glyph d="M381 492q47 -46 47 -121v-371h-78v56q-17 -32 -51 -51t-84 -19q-75 0 -121 41t-46 120q0 77 51 117t137 40h110v64q0 104 -99 104q-45 0 -70 -24.5t-30 -63.5h-84q4 72 55.5 113t128.5 41q87 0 134 -46zM315 84q31 29 31 83v73h-109q-45 0 -75 -22.5t-30 -59.5v-19 q0 -41 27 -62.5t72 -21.5q53 0 84 29z" unicode="a" glyph-name="a" horiz-adv-x="498"/>
<glyph d="M428.5 464.5q50.5 -73.5 50.5 -202.5t-50.5 -202.5t-139.5 -73.5q-88 0 -137 76v-62h-78v736h82v-268q48 70 133 70q89 0 139.5 -73.5zM394 284q0 91 -31.5 137.5t-89.5 46.5q-53 0 -85 -37t-32 -107v-123q0 -68 32.5 -106.5t84.5 -38.5q58 0 89.5 47.5t31.5 138.5v42z " unicode="b" glyph-name="b" horiz-adv-x="523"/>
<glyph d="M96.5 61.5q-52.5 75.5 -52.5 200.5t52.5 200.5t151.5 75.5q81 0 133 -50t59 -131h-81q-10 55 -37 82.5t-74 27.5q-60 0 -89.5 -47t-29.5 -136v-43q0 -89 29.5 -136.5t89.5 -47.5q49 0 75.5 29t36.5 87h83q-27 -187 -195 -187q-99 0 -151.5 75.5z" unicode="c" glyph-name="c" horiz-adv-x="487"/>
<glyph d="M449 736v-736h-78v62q-49 -76 -137 -76q-89 0 -139.5 73.5t-50.5 202.5t50.5 202.5t139.5 73.5q85 0 133 -70v268h82zM334.5 94.5q32.5 38.5 32.5 106.5v123q0 70 -32 107t-85 37q-58 0 -89.5 -46.5t-31.5 -137.5v-42q0 -91 31.5 -138.5t89.5 -47.5q52 0 84.5 38.5z" unicode="d" glyph-name="d" horiz-adv-x="523"/>
<glyph d="M129 242v-1q0 -91 32 -138t93 -47q47 0 75 23.5t41 72.5h82q-17 -80 -66.5 -123t-131.5 -43q-101 0 -155.5 75.5t-54.5 200.5t54.5 200.5t155.5 75.5q84 0 135 -49t66 -138q5 -29 5 -62v-47h-331zM164.5 427.5q-31.5 -40.5 -35.5 -121.5h251q-8 162 -126 162 q-58 0 -89.5 -40.5z" unicode="e" glyph-name="e" horiz-adv-x="504"/>
<glyph d="M214.5 658q-15.5 -9 -22 -30.5t-6.5 -61.5v-42h103v-63h-103v-461h-82v461h-79v63h79v41q0 95 33 134.5t107 39.5q21 0 45 -3v-69h-30q-29 0 -44.5 -9z" unicode="f" glyph-name="f" horiz-adv-x="307"/>
<glyph d="M448 524v-515q0 -91 -48.5 -143t-145.5 -52q-86 0 -138 41t-57 112h83q6 -38 33.5 -62t79.5 -24q58 0 84.5 29.5t26.5 98.5v62q-48 -65 -129 -65q-90 0 -141.5 70.5t-51.5 195.5q0 124 50.5 195t139.5 71q88 0 137 -73v59h77zM334.5 111.5q32.5 35.5 32.5 99.5v123 q0 65 -32 99.5t-85 34.5q-58 0 -89.5 -44t-31.5 -130v-42q0 -86 31.5 -131t89.5 -45q52 0 84.5 35.5z" unicode="g" glyph-name="g" horiz-adv-x="518"/>
<glyph d="M401.5 489q43.5 -49 43.5 -141v-348h-82v326q0 75 -26 107t-76 32q-105 0 -105 -139v-326h-82v736h82v-268q18 32 50.5 51t78.5 19q73 0 116.5 -49z" unicode="h" glyph-name="h" horiz-adv-x="515"/>
<glyph d="M74 524h82v-524h-82v524zM74 736h82v-105h-82v105z" unicode="i" glyph-name="i" horiz-adv-x="230"/>
<glyph d="M74 736h82v-105h-82v105zM16 -172v70h13q26 0 35.5 20t9.5 70v536h82v-540q0 -85 -24.5 -121.5t-86.5 -36.5q-17 0 -29 2z" unicode="j" glyph-name="j" horiz-adv-x="230"/>
<glyph d="M232 245l-76 -97v-148h-82v736h82v-476l199 264h92l-163 -211l172 -313h-90z" unicode="k" glyph-name="k" horiz-adv-x="471"/>
<glyph d="M74 736h82v-736h-82v736z" unicode="l" glyph-name="l" horiz-adv-x="230"/>
<glyph d="M654.5 490q39.5 -48 39.5 -142v-348h-82v326q0 75 -23.5 107t-68.5 32q-95 0 -95 -139v-326h-82v326q0 75 -23.5 107t-68.5 32q-95 0 -95 -139v-326h-82v524h78v-62q15 34 47 55t77 21t78 -20.5t51 -60.5q18 36 52.5 58.5t80.5 22.5q77 0 116.5 -48z" unicode="m" glyph-name="m" horiz-adv-x="764"/>
<glyph d="M401.5 489q43.5 -49 43.5 -141v-348h-82v326q0 75 -26 107t-76 32q-105 0 -105 -139v-326h-82v524h78v-64q16 35 50 56.5t83 21.5q73 0 116.5 -49z" unicode="n" glyph-name="n" horiz-adv-x="515"/>
<glyph d="M97.5 61q-53.5 75 -53.5 201q0 125 53.5 200.5t157.5 75.5q103 0 156.5 -75.5t53.5 -200.5q0 -126 -53.5 -201t-156.5 -75q-104 0 -157.5 75zM348 103q32 47 32 138v43q0 91 -31.5 137.5t-93.5 46.5t-94 -46.5t-32 -137.5v-43q0 -91 32 -138t94 -47q61 0 93 47z" unicode="o" glyph-name="o" horiz-adv-x="509"/>
<glyph d="M428.5 464.5q50.5 -73.5 50.5 -202.5t-50.5 -202.5t-139.5 -73.5q-84 0 -133 70v-228h-82v696h78v-62q49 76 137 76q89 0 139.5 -73.5zM394 284q0 91 -31.5 137.5t-89.5 46.5q-53 0 -85 -37t-32 -107v-123q0 -68 32.5 -106.5t84.5 -38.5q58 0 89.5 47.5t31.5 138.5v42z " unicode="p" glyph-name="p" horiz-adv-x="523"/>
<glyph d="M449 524v-696h-82v228q-49 -70 -133 -70q-89 0 -139.5 73.5t-50.5 202.5t50.5 202.5t139.5 73.5q88 0 137 -76v62h78zM334.5 94.5q32.5 38.5 32.5 106.5v123q0 70 -32 107t-85 37q-58 0 -89.5 -46.5t-31.5 -137.5v-42q0 -91 31.5 -138.5t89.5 -47.5q52 0 84.5 38.5z" unicode="q" glyph-name="q" horiz-adv-x="523"/>
<glyph d="M323 524v-75h-36q-73 0 -102 -51.5t-29 -140.5v-257h-82v524h78v-106q13 48 46 79t85 31q24 0 40 -4z" unicode="r" glyph-name="r" horiz-adv-x="343"/>
<glyph d="M96 32q-51 46 -52 121h82q2 -45 31 -72t83 -27q45 0 72 21t27 59v9q0 30 -16 45.5t-56 28.5l-83 28q-72 24 -102.5 55t-30.5 89q0 40 20.5 74t59.5 54t92 20q91 0 136.5 -42t47.5 -106h-82q-7 80 -103 80q-41 0 -65 -21t-24 -53v-9q0 -27 18 -42.5t58 -28.5l79 -27 q70 -24 101.5 -57t31.5 -91q0 -43 -21 -78t-62 -55.5t-99 -20.5q-92 0 -143 46z" unicode="s" glyph-name="s" horiz-adv-x="460"/>
<glyph d="M186 461v-308q0 -48 16.5 -67t58.5 -19h28v-67q-22 -4 -49 -4q-72 0 -104 36.5t-32 120.5v308h-79v63h79v134h82v-134h103v-63h-103z" unicode="t" glyph-name="t" horiz-adv-x="318"/>
<glyph d="M435 524v-524h-78v66q-15 -36 -48 -57.5t-82 -21.5q-73 0 -115 47t-42 139v351h82v-327q0 -73 25.5 -105.5t73.5 -32.5q102 0 102 138v327h82z" unicode="u" glyph-name="u" horiz-adv-x="509"/>
<glyph d="M434 524l-151 -524h-100l-152 524h86l117 -439l115 439h85z" unicode="v" glyph-name="v" horiz-adv-x="465"/>
<glyph d="M673 524l-124 -524h-106l-88 417l-88 -417h-107l-123 524h86l95 -449l93 449h90l94 -450l97 450h81z" unicode="w" glyph-name="w" horiz-adv-x="710"/>
<glyph d="M342 0l-111 220l-112 -220h-83l143 273l-135 251h87l101 -199l101 199h86l-131 -251l139 -273h-85z" unicode="x" glyph-name="x" horiz-adv-x="463"/>
<glyph d="M430 524l-217 -696h-80l56 182l-158 514h85l115 -392l118 392h81z" unicode="y" glyph-name="y" horiz-adv-x="461"/>
<glyph d="M416 458l-270 -388h270v-70h-365v66l270 387h-260v71h355v-66z" unicode="z" glyph-name="z" horiz-adv-x="467"/>
<glyph d="M154.5 347.5q-10.5 -28.5 -45.5 -37.5v-4q35 -9 45.5 -37.5t10.5 -84.5v-167q0 -47 11 -65t38 -18h35v-61h-65q-37 0 -58 16t-30 52.5t-9 99.5v150q0 48 -13 67.5t-42 19.5v60q29 0 42 19.5t13 67.5v150q0 63 9 99.5t30 52.5t58 16h65v-61h-35q-27 0 -38 -18t-11 -65 v-167q0 -56 -10.5 -84.5z" unicode="{" glyph-name="braceleft" horiz-adv-x="285"/>
<glyph d="M123 800h78v-940h-78v940z" unicode="|" glyph-name="bar" horiz-adv-x="324"/>
<glyph d="M120 599q0 47 -11 65t-38 18h-35v61h65q37 0 58 -16t30 -52.5t9 -99.5v-150q0 -48 13 -67.5t42 -19.5v-60q-29 0 -42 -19.5t-13 -67.5v-150q0 -63 -9 -99.5t-30 -52.5t-58 -16h-65v61h35q27 0 38 18t11 65v167q0 56 10.5 84.5t45.5 37.5v4q-35 9 -45.5 37.5t-10.5 84.5 v167z" unicode="}" glyph-name="braceright" horiz-adv-x="285"/>
<glyph d="M333.5 279.5q-28.5 11.5 -68.5 33.5q-35 19 -56.5 28t-40.5 9q-23 0 -34.5 -23t-13.5 -59h-63q1 79 32.5 117t80.5 38q31 0 62 -12t73 -35q33 -18 52.5 -26t35.5 -8q22 0 33.5 22t13.5 59h63q-1 -78 -32 -116.5t-80 -38.5q-29 0 -57.5 11.5z" unicode="~" glyph-name="asciitilde"/>
<glyph unicode=" " glyph-name="uni00A0" horiz-adv-x="220"/>
<glyph d="M175 422h-93v102h93v-102zM172 75v-261h-86v261l14 261h58z" unicode="¡" glyph-name="exclamdown" horiz-adv-x="257"/>
<glyph d="M307 -13v-83h-52v83q-87 10 -133 84t-46 191q0 116 46 190.5t133 84.5v95h52v-96q71 -8 115 -57t50 -122h-81q-17 94 -84 107v-404q36 7 56 35.5t29 77.5h83q-26 -171 -168 -186zM184.5 115.5q23.5 -46.5 70.5 -56.5v406q-94 -19 -94 -181v-43q0 -79 23.5 -125.5z" unicode="¢" glyph-name="cent"/>
<glyph d="M203 137q-19 -42 -46 -65h351v-72h-437v68q32 16 55 57t23 102q0 33 -9 74h-77v68h56q-11 35 -17 64.5t-6 63.5q0 64 26 115.5t74.5 81.5t112.5 30t110 -29t71 -72.5t30 -89.5h-85q-10 52 -42.5 86.5t-88.5 34.5q-57 0 -89 -41.5t-32 -105.5v-18q0 -29 4.5 -54.5 t13.5 -65.5h176v-68h-161q6 -46 6 -74q0 -48 -19 -90z" unicode="£" glyph-name="sterling"/>
<glyph d="M342 359h110v-55h-131v-80h131v-55h-131v-169h-83v169h-133v55h133v80h-133v55h114l-170 351h90l143 -311l142 311h87z" unicode="¥" glyph-name="yen"/>
<glyph d="M409.5 67.5q16.5 -28.5 16.5 -71.5q0 -41 -20.5 -77.5t-59 -58.5t-89.5 -22q-84 0 -130.5 46t-48.5 113h82q5 -39 29.5 -64t71.5 -25q38 0 61 22.5t23 58.5v5q0 32 -20.5 51.5t-62.5 37.5l-89 39q-69 30 -99 70.5t-30 96.5q0 48 28 88t76 60q-34 23 -50.5 51.5 t-16.5 71.5q0 41 20.5 77.5t59 58.5t89.5 22q84 0 130.5 -46t48.5 -113h-82q-5 39 -29.5 64t-71.5 25q-38 0 -61 -22.5t-23 -58.5v-5q0 -32 20.5 -51.5t62.5 -37.5l89 -39q69 -30 99 -70.5t30 -96.5q0 -48 -28 -88t-76 -60q34 -23 50.5 -51.5zM292 154l10 -4q39 13 59.5 41 t20.5 68v5q0 35 -19 58.5t-61 41.5l-87 38l-8 4q-36 -15 -59 -44.5t-23 -65.5v-5q0 -35 19 -57.5t61 -41.5z" unicode="§" glyph-name="section" horiz-adv-x="502"/>
<glyph d="M55 736h78v-105h-78v105zM212 736h78v-105h-78v105z" unicode="¨" glyph-name="dieresis" horiz-adv-x="345"/>
<glyph d="M225 33.5q-83 46.5 -130 130t-47 191.5t47 191.5t130 130t187 46.5t186.5 -46.5t129.5 -130t47 -191.5t-47 -191.5t-129.5 -130t-186.5 -46.5t-187 46.5zM567 82.5q69 39.5 108.5 110.5t39.5 162t-39.5 162t-108.5 110.5t-155 39.5t-155.5 -39.5t-109 -110.5t-39.5 -162 t39.5 -162t109 -110.5t155.5 -39.5t155 39.5zM311 169q-45 27 -69.5 75.5t-24.5 110.5t24.5 110.5t69.5 75.5t105 27q67 0 119.5 -34t61.5 -105h-71q-11 34 -39 56t-71 22q-58 0 -92.5 -40t-34.5 -112q0 -71 35 -111.5t92 -40.5q47 0 71.5 22t38.5 65h71q-10 -75 -61 -111.5 t-120 -36.5q-60 0 -105 27z" unicode="©" glyph-name="copyright" horiz-adv-x="823"/>
<glyph d="M168 45l-125 228l125 228h85l-124 -228l124 -228h-85zM371 45l-125 228l125 228h85l-124 -228l124 -228h-85z" unicode="«" glyph-name="guillemotleft" horiz-adv-x="499"/>
<glyph d="M377.5 694.5q50.5 -28.5 79 -78.5t28.5 -112t-28.5 -112t-79 -78.5t-112.5 -28.5t-112.5 28.5t-79.5 78.5t-29 112t29 112t79.5 78.5t112.5 28.5t112.5 -28.5zM357 346.5q40 23.5 62 64.5t22 93t-22 93t-62 64.5t-92 23.5t-92.5 -23.5t-63 -64.5t-22.5 -93t22.5 -93 t63 -64.5t92.5 -23.5t92 23.5zM349.5 505.5q-12.5 -17.5 -34.5 -24.5l56 -80h-53l-49 74l-6 -1h-33v-73h-47v217h101q35 0 56.5 -21t21.5 -51q0 -23 -12.5 -40.5zM230 511h49q15 0 24.5 10t9.5 24v3q0 14 -9.5 23.5t-24.5 9.5h-49v-70z" unicode="®" glyph-name="registered" horiz-adv-x="529"/>
<glyph d="M55 713h228v-69h-228v69z" unicode="¯" glyph-name="macron" horiz-adv-x="338"/>
<glyph d="M121.5 435q-35.5 21 -56.5 56.5t-21 77.5t21 77.5t56.5 56.5t77.5 21q43 0 79 -21t57 -56.5t21 -77.5t-21 -77.5t-56.5 -56.5t-78.5 -21t-78.5 21zM268.5 501q27.5 28 27.5 68t-27.5 68t-68.5 28t-68.5 -28t-27.5 -68t27.5 -68t68.5 -28t68.5 28z" unicode="°" glyph-name="degree" horiz-adv-x="400"/>
<glyph d="M50 114h460v-70h-460v70zM510 387h-195v-195h-70v195h-195v70h195v195h70v-195h195v-70z" unicode="±" glyph-name="plusminus"/>
<glyph d="M86 442h205v-52h-266v33q0 20 4 33q16 44 85 102l54 45q29 25 43 45t14 47v15q0 31 -16.5 47.5t-44.5 16.5q-33 0 -50 -22.5t-20 -57.5h-67q3 56 38.5 93t97.5 37q61 0 95 -34t34 -88q0 -47 -22 -77.5t-67 -67.5l-56 -47q-45 -37 -61 -68z" unicode="²" glyph-name="uni00B2" horiz-adv-x="337"/>
<glyph d="M292.5 570.5q17.5 -26.5 17.5 -63.5q0 -52 -34.5 -88.5t-96.5 -36.5q-69 0 -103 35.5t-36 87.5h68q8 -73 72 -73q29 0 46.5 19t17.5 49v15q0 30 -18.5 46.5t-48.5 16.5h-35v52h33q29 0 45 17.5t16 49.5v16q0 28 -15 44.5t-43 16.5t-44.5 -18t-21.5 -50h-67q3 47 37 82.5 t96 35.5q59 0 92 -33t33 -82q0 -37 -16 -62t-43 -38q31 -12 48.5 -38.5z" unicode="³" glyph-name="uni00B3" horiz-adv-x="336"/>
<glyph d="M99 746h97l-70 -131h-71z" unicode="´" glyph-name="acute" horiz-adv-x="251"/>
<glyph d="M257 250h-62q-44 0 -77.5 29.5t-51.5 82t-18 119.5t18 119t51.5 81t77.5 29h132v-810h-70v350zM391 710h69v-810h-69v810z" unicode="¶" glyph-name="paragraph" horiz-adv-x="542"/>
<glyph d="M55 361h93v-102h-93v102z" unicode="·" glyph-name="periodcentered" horiz-adv-x="203"/>
<glyph d="M200.5 -64q23.5 -18 23.5 -52q0 -38 -26 -58t-60 -20q-22 0 -44.5 7t-38.5 20l22 40q30 -21 60 -21q17 0 26.5 8.5t9.5 22.5t-11 21.5t-29 7.5h-25l-21 22l38 94l38 -18l-22 -54q36 -2 59.5 -20z" unicode="¸" glyph-name="cedilla" horiz-adv-x="279"/>
<glyph d="M196 810v-426h-64v342l-93 -77v67l103 94h54z" unicode="¹" glyph-name="uni00B9" horiz-adv-x="273"/>
<glyph d="M167 273l-124 228h85l125 -228l-125 -228h-85zM371 273l-124 228h85l125 -228l-125 -228h-85z" unicode="»" glyph-name="guillemotright" horiz-adv-x="500"/>
<glyph d="M196 710v-426h-64v342l-93 -77v67l103 94h54zM545 710h66l-400 -710h-66zM738 144v-52h-49v-92h-63v92h-182v52l161 282h84v-282h49zM626 144v217l-124 -217h124z" unicode="¼" glyph-name="onequarter" horiz-adv-x="777"/>
<glyph d="M196 710v-426h-64v342l-93 -77v67l103 94h54zM545 710h66l-400 -710h-66zM544 52h205v-52h-266v33q0 20 4 33q16 44 85 102l54 45q29 25 43 45t14 47v15q0 31 -16.5 47.5t-44.5 16.5q-33 0 -50 -22.5t-20 -57.5h-67q3 56 38.5 93t97.5 37q61 0 95 -34t34 -88 q0 -47 -22 -77.5t-67 -67.5l-56 -47q-45 -37 -61 -68z" unicode="½" glyph-name="onehalf" horiz-adv-x="795"/>
<glyph d="M292.5 470.5q17.5 -26.5 17.5 -63.5q0 -52 -34.5 -88.5t-96.5 -36.5q-69 0 -103 35.5t-36 87.5h68q8 -73 72 -73q29 0 46.5 19t17.5 49v15q0 30 -18.5 46.5t-48.5 16.5h-35v52h33q29 0 45 17.5t16 49.5v16q0 28 -15 44.5t-43 16.5t-44.5 -18t-21.5 -50h-67q3 47 37 82.5 t96 35.5q59 0 92 -33t33 -82q0 -37 -16 -62t-43 -38q31 -12 48.5 -38.5zM608 710h66l-400 -710h-66zM801 144v-52h-49v-92h-63v92h-182v52l161 282h84v-282h49zM689 144v217l-124 -217h124z" unicode="¾" glyph-name="threequarters" horiz-adv-x="840"/>
<glyph d="M301 422h-93v102h93v-102zM300 312q0 -38 -14 -65t-53 -64l-46 -45q-38 -37 -54 -67.5t-16 -68.5v-15q0 -53 29.5 -84t82.5 -31q58 0 85.5 32.5t35.5 88.5h89q-7 -87 -59 -140t-150 -53t-149 53.5t-51 140.5q0 58 24.5 101.5t83.5 102.5l42 42q20 20 25 39t6 57h89v-24z " unicode="¿" glyph-name="questiondown" horiz-adv-x="469"/>
<glyph d="M411 186h-248l-51 -186h-85l203 710h116l204 -710h-88zM391 261l-103 379l-104 -379h207zM250 801l-70 131h97l44 -131h-71z" unicode="À" glyph-name="Agrave" horiz-adv-x="577"/>
<glyph d="M411 186h-248l-51 -186h-85l203 710h116l204 -710h-88zM391 261l-103 379l-104 -379h207zM297 932h97l-70 -131h-71z" unicode="Á" glyph-name="Aacute" horiz-adv-x="577"/>
<glyph d="M411 186h-248l-51 -186h-85l203 710h116l204 -710h-88zM391 261l-103 379l-104 -379h207zM346 801l-57 93l-58 -93h-63l64 131h114l63 -131h-63z" unicode="Â" glyph-name="Acircumflex" horiz-adv-x="577"/>
<glyph d="M411 186h-248l-51 -186h-85l203 710h116l204 -710h-88zM391 261l-103 379l-104 -379h207zM317.5 815.5q-15.5 6.5 -37.5 19.5q-3 2 -18.5 10t-25.5 8q-14 0 -21.5 -10t-8.5 -34h-43q0 52 20.5 79.5t49.5 27.5q18 0 34 -7t35 -19q3 -2 12.5 -7.5t17.5 -8t14 -2.5 q13 0 18.5 10t7.5 34h43q0 -52 -18.5 -79.5t-47.5 -27.5q-16 0 -31.5 6.5z" unicode="Ã" glyph-name="Atilde" horiz-adv-x="577"/>
<glyph d="M411 186h-248l-51 -186h-85l203 710h116l204 -710h-88zM391 261l-103 379l-104 -379h207zM171 922h78v-105h-78v105zM328 922h78v-105h-78v105z" unicode="Ä" glyph-name="Adieresis" horiz-adv-x="577"/>
<glyph d="M411 186h-248l-51 -186h-85l202 708q-28 15 -44 41t-16 60q0 51 34.5 83t85.5 32t85.5 -32t34.5 -83q0 -35 -17 -61.5t-45 -40.5l203 -707h-88zM226 804q0 -28 18 -45t45 -17t45 17t18 45v10q0 28 -18 44.5t-45 16.5t-45 -16.5t-18 -44.5v-10zM391 261l-103 379 l-104 -379h207z" unicode="Å" glyph-name="Aring" horiz-adv-x="577"/>
<glyph d="M439 636v-244h307v-75h-307v-243h324v-74h-410v186h-181l-75 -186h-87l292 710h461v-74h-324zM353 261v377l-151 -377h151z" unicode="Æ" glyph-name="AE" horiz-adv-x="810"/>
<glyph d="M504.5 58q-62.5 -67 -170.5 -72l-12 -30q36 -2 59.5 -20t23.5 -52q0 -38 -26 -58t-60 -20q-22 0 -44.5 7t-38.5 20l22 40q30 -21 60 -21q17 0 26.5 8.5t9.5 22.5t-11 21.5t-29 7.5h-25l-21 22l22 53q-119 12 -180.5 110t-61.5 258q0 170 69 269.5t202 99.5 q112 0 178.5 -67t81.5 -175h-87q-17 83 -59 125.5t-114 42.5q-87 0 -134.5 -69.5t-47.5 -188.5v-74q0 -119 47.5 -188.5t134.5 -69.5q75 0 118.5 48t56.5 131h88q-15 -114 -77.5 -181z" unicode="Ç" glyph-name="Ccedilla" horiz-adv-x="625"/>
<glyph d="M168 636v-244h307v-75h-307v-243h324v-74h-410v710h410v-74h-324zM254 801l-70 131h97l44 -131h-71z" unicode="È" glyph-name="Egrave" horiz-adv-x="539"/>
<glyph d="M168 636v-244h307v-75h-307v-243h324v-74h-410v710h410v-74h-324zM301 932h97l-70 -131h-71z" unicode="É" glyph-name="Eacute" horiz-adv-x="539"/>
<glyph d="M168 636v-244h307v-75h-307v-243h324v-74h-410v710h410v-74h-324zM350 801l-57 93l-58 -93h-63l64 131h114l63 -131h-63z" unicode="Ê" glyph-name="Ecircumflex" horiz-adv-x="539"/>
<glyph d="M168 636v-244h307v-75h-307v-243h324v-74h-410v710h410v-74h-324zM175 922h78v-105h-78v105zM332 922h78v-105h-78v105z" unicode="Ë" glyph-name="Edieresis" horiz-adv-x="539"/>
<glyph d="M87 710h86v-710h-86v710zM91 801l-70 131h97l44 -131h-71z" unicode="Ì" glyph-name="Igrave" horiz-adv-x="260"/>
<glyph d="M87 710h86v-710h-86v710zM138 932h97l-70 -131h-71z" unicode="Í" glyph-name="Iacute" horiz-adv-x="260"/>
<glyph d="M87 710h86v-710h-86v710zM187 801l-57 93l-58 -93h-63l64 131h114l63 -131h-63z" unicode="Î" glyph-name="Icircumflex" horiz-adv-x="260"/>
<glyph d="M87 710h86v-710h-86v710zM12 922h78v-105h-78v105zM169 922h78v-105h-78v105z" unicode="Ï" glyph-name="Idieresis" horiz-adv-x="260"/>
<glyph d="M564 614.5q69 -95.5 69 -259.5t-69 -259.5t-198 -95.5h-224v320h-80v69h80v321h224q129 0 198 -95.5zM496 140.5q47 66.5 47 176.5v76q0 110 -47 176.5t-130 66.5h-138v-247h128v-69h-128v-246h138q83 0 130 66.5z" unicode="Ð" glyph-name="Eth" horiz-adv-x="681"/>
<glyph d="M557 710v-710h-112l-279 602v-602h-84v710h115l276 -597v597h84zM348.5 815.5q-15.5 6.5 -37.5 19.5q-3 2 -18.5 10t-25.5 8q-14 0 -21.5 -10t-8.5 -34h-43q0 52 20.5 79.5t49.5 27.5q18 0 34 -7t35 -19q3 -2 12.5 -7.5t17.5 -8t14 -2.5q13 0 18.5 10t7.5 34h43 q0 -52 -18.5 -79.5t-47.5 -27.5q-16 0 -31.5 6.5z" unicode="Ñ" glyph-name="Ntilde" horiz-adv-x="639"/>
<glyph d="M117 85q-69 99 -69 270t69.5 270t202.5 99t202.5 -99.5t69.5 -269.5q0 -171 -69.5 -270t-202.5 -99q-134 0 -203 99zM455 130.5q47 70.5 47 186.5v76q0 116 -47 186.5t-135 70.5t-135 -70.5t-47 -186.5v-76q0 -117 47 -187t135 -70t135 70.5zM281 801l-70 131h97l44 -131 h-71z" unicode="Ò" glyph-name="Ograve" horiz-adv-x="640"/>
<glyph d="M117 85q-69 99 -69 270t69.5 270t202.5 99t202.5 -99.5t69.5 -269.5q0 -171 -69.5 -270t-202.5 -99q-134 0 -203 99zM455 130.5q47 70.5 47 186.5v76q0 116 -47 186.5t-135 70.5t-135 -70.5t-47 -186.5v-76q0 -117 47 -187t135 -70t135 70.5zM328 932h97l-70 -131h-71z " unicode="Ó" glyph-name="Oacute" horiz-adv-x="640"/>
<glyph d="M117 85q-69 99 -69 270t69.5 270t202.5 99t202.5 -99.5t69.5 -269.5q0 -171 -69.5 -270t-202.5 -99q-134 0 -203 99zM455 130.5q47 70.5 47 186.5v76q0 116 -47 186.5t-135 70.5t-135 -70.5t-47 -186.5v-76q0 -117 47 -187t135 -70t135 70.5zM377 801l-57 93l-58 -93h-63 l64 131h114l63 -131h-63z" unicode="Ô" glyph-name="Ocircumflex" horiz-adv-x="640"/>
<glyph d="M117 85q-69 99 -69 270t69.5 270t202.5 99t202.5 -99.5t69.5 -269.5q0 -171 -69.5 -270t-202.5 -99q-134 0 -203 99zM455 130.5q47 70.5 47 186.5v76q0 116 -47 186.5t-135 70.5t-135 -70.5t-47 -186.5v-76q0 -117 47 -187t135 -70t135 70.5zM348.5 815.5 q-15.5 6.5 -37.5 19.5q-3 2 -18.5 10t-25.5 8q-14 0 -21.5 -10t-8.5 -34h-43q0 52 20.5 79.5t49.5 27.5q18 0 34 -7t35 -19q3 -2 12.5 -7.5t17.5 -8t14 -2.5q13 0 18.5 10t7.5 34h43q0 -52 -18.5 -79.5t-47.5 -27.5q-16 0 -31.5 6.5z" unicode="Õ" glyph-name="Otilde" horiz-adv-x="640"/>
<glyph d="M117 85q-69 99 -69 270t69.5 270t202.5 99t202.5 -99.5t69.5 -269.5q0 -171 -69.5 -270t-202.5 -99q-134 0 -203 99zM455 130.5q47 70.5 47 186.5v76q0 116 -47 186.5t-135 70.5t-135 -70.5t-47 -186.5v-76q0 -117 47 -187t135 -70t135 70.5zM202 922h78v-105h-78v105z M359 922h78v-105h-78v105z" unicode="Ö" glyph-name="Odieresis" horiz-adv-x="640"/>
<glyph d="M329 322l138 -138l-49 -49l-138 138l-138 -138l-49 49l138 138l-138 138l49 49l138 -138l138 138l49 -49z" unicode="×" glyph-name="multiply"/>
<glyph d="M575 505.5q17 -67.5 17 -150.5q0 -171 -69.5 -270t-202.5 -99q-94 0 -157 51l-32 -51h-79l63 102q-67 97 -67 267q0 171 69.5 270t202.5 99q94 0 157 -51l32 51h79l-63 -103q33 -48 50 -115.5zM164 168l271 436q-46 46 -115 46q-88 0 -135 -70.5t-47 -186.5v-76 q0 -86 26 -149zM455 130.5q47 70.5 47 186.5v76q0 88 -27 149l-270 -436q44 -46 115 -46q88 0 135 70.5z" unicode="Ø" glyph-name="Oslash" horiz-adv-x="640"/>
<glyph d="M145.5 47q-63.5 61 -63.5 180v483h85v-475q0 -82 32 -128t113 -46h8q79 0 112 46t33 128v475h85v-483q0 -118 -63.5 -179.5t-170.5 -61.5t-170.5 61zM277 801l-70 131h97l44 -131h-71z" unicode="Ù" glyph-name="Ugrave" horiz-adv-x="632"/>
<glyph d="M145.5 47q-63.5 61 -63.5 180v483h85v-475q0 -82 32 -128t113 -46h8q79 0 112 46t33 128v475h85v-483q0 -118 -63.5 -179.5t-170.5 -61.5t-170.5 61zM324 932h97l-70 -131h-71z" unicode="Ú" glyph-name="Uacute" horiz-adv-x="632"/>
<glyph d="M145.5 47q-63.5 61 -63.5 180v483h85v-475q0 -82 32 -128t113 -46h8q79 0 112 46t33 128v475h85v-483q0 -118 -63.5 -179.5t-170.5 -61.5t-170.5 61zM373 801l-57 93l-58 -93h-63l64 131h114l63 -131h-63z" unicode="Û" glyph-name="Ucircumflex" horiz-adv-x="632"/>
<glyph d="M145.5 47q-63.5 61 -63.5 180v483h85v-475q0 -82 32 -128t113 -46h8q79 0 112 46t33 128v475h85v-483q0 -118 -63.5 -179.5t-170.5 -61.5t-170.5 61zM198 922h78v-105h-78v105zM355 922h78v-105h-78v105z" unicode="Ü" glyph-name="Udieresis" horiz-adv-x="632"/>
<glyph d="M302 276v-276h-87v281l-202 429h87l161 -348l158 348h86zM267 932h97l-70 -131h-71z" unicode="Ý" glyph-name="Yacute" horiz-adv-x="518"/>
<glyph d="M438.5 563.5q46.5 -28.5 72.5 -80t26 -116.5q0 -64 -26 -115t-72.5 -80t-105.5 -29h-165v-143h-86v710h86v-118h165q59 0 105.5 -28.5zM450 379q0 66 -37.5 102.5t-95.5 36.5h-149v-301h149q58 0 95.5 36.5t37.5 102.5v23z" unicode="Þ" glyph-name="Thorn" horiz-adv-x="576"/>
<glyph d="M455.5 327.5q31.5 -44.5 31.5 -112.5q0 -101 -58 -159t-161 -58q-29 0 -51 2v68h51q59 0 96.5 39.5t37.5 100.5v18q0 52 -34.5 88t-86.5 36h-55v68h52q47 0 74.5 32.5t27.5 89.5v18q0 49 -28 81t-83 32t-84 -37.5t-29 -94.5v-539h-82v537q0 55 22.5 101.5t66.5 74.5 t107 28q61 0 105 -25t66.5 -68.5t22.5 -97.5q0 -59 -25.5 -99.5t-68.5 -60.5q54 -18 85.5 -62.5z" unicode="ß" glyph-name="germandbls" horiz-adv-x="536"/>
<glyph d="M381 492q47 -46 47 -121v-371h-78v56q-17 -32 -51 -51t-84 -19q-75 0 -121 41t-46 120q0 77 51 117t137 40h110v64q0 104 -99 104q-45 0 -70 -24.5t-30 -63.5h-84q4 72 55.5 113t128.5 41q87 0 134 -46zM315 84q31 29 31 83v73h-109q-45 0 -75 -22.5t-30 -59.5v-19 q0 -41 27 -62.5t72 -21.5q53 0 84 29zM218 615l-70 131h97l44 -131h-71z" unicode="à" glyph-name="agrave" horiz-adv-x="498"/>
<glyph d="M381 492q47 -46 47 -121v-371h-78v56q-17 -32 -51 -51t-84 -19q-75 0 -121 41t-46 120q0 77 51 117t137 40h110v64q0 104 -99 104q-45 0 -70 -24.5t-30 -63.5h-84q4 72 55.5 113t128.5 41q87 0 134 -46zM315 84q31 29 31 83v73h-109q-45 0 -75 -22.5t-30 -59.5v-19 q0 -41 27 -62.5t72 -21.5q53 0 84 29zM265 746h97l-70 -131h-71z" unicode="á" glyph-name="aacute" horiz-adv-x="498"/>
<glyph d="M381 492q47 -46 47 -121v-371h-78v56q-17 -32 -51 -51t-84 -19q-75 0 -121 41t-46 120q0 77 51 117t137 40h110v64q0 104 -99 104q-45 0 -70 -24.5t-30 -63.5h-84q4 72 55.5 113t128.5 41q87 0 134 -46zM315 84q31 29 31 83v73h-109q-45 0 -75 -22.5t-30 -59.5v-19 q0 -41 27 -62.5t72 -21.5q53 0 84 29zM314 615l-57 93l-58 -93h-63l64 131h114l63 -131h-63z" unicode="â" glyph-name="acircumflex" horiz-adv-x="498"/>
<glyph d="M381 492q47 -46 47 -121v-371h-78v56q-17 -32 -51 -51t-84 -19q-75 0 -121 41t-46 120q0 77 51 117t137 40h110v64q0 104 -99 104q-45 0 -70 -24.5t-30 -63.5h-84q4 72 55.5 113t128.5 41q87 0 134 -46zM315 84q31 29 31 83v73h-109q-45 0 -75 -22.5t-30 -59.5v-19 q0 -41 27 -62.5t72 -21.5q53 0 84 29zM285.5 629.5q-15.5 6.5 -37.5 19.5q-3 2 -18.5 10t-25.5 8q-14 0 -21.5 -10t-8.5 -34h-43q0 52 20.5 79.5t49.5 27.5q18 0 34 -7t35 -19q3 -2 12.5 -7.5t17.5 -8t14 -2.5q13 0 18.5 10t7.5 34h43q0 -52 -18.5 -79.5t-47.5 -27.5 q-16 0 -31.5 6.5z" unicode="ã" glyph-name="atilde" horiz-adv-x="498"/>
<glyph d="M381 492q47 -46 47 -121v-371h-78v56q-17 -32 -51 -51t-84 -19q-75 0 -121 41t-46 120q0 77 51 117t137 40h110v64q0 104 -99 104q-45 0 -70 -24.5t-30 -63.5h-84q4 72 55.5 113t128.5 41q87 0 134 -46zM315 84q31 29 31 83v73h-109q-45 0 -75 -22.5t-30 -59.5v-19 q0 -41 27 -62.5t72 -21.5q53 0 84 29zM139 736h78v-105h-78v105zM296 736h78v-105h-78v105z" unicode="ä" glyph-name="adieresis" horiz-adv-x="498"/>
<glyph d="M381 492q47 -46 47 -121v-371h-78v56q-17 -32 -51 -51t-84 -19q-75 0 -121 41t-46 120q0 77 51 117t137 40h110v64q0 104 -99 104q-45 0 -70 -24.5t-30 -63.5h-84q4 72 55.5 113t128.5 41q87 0 134 -46zM315 84q31 29 31 83v73h-109q-45 0 -75 -22.5t-30 -59.5v-19 q0 -41 27 -62.5t72 -21.5q53 0 84 29zM172 620.5q-35 32.5 -35 83.5t34.5 83t85.5 32t85.5 -32t34.5 -83t-35 -83.5t-85 -32.5t-85 32.5zM302 653.5q18 17.5 18 45.5v10q0 28 -18 45t-45 17t-45 -17t-18 -45v-10q0 -28 18 -45.5t45 -17.5t45 17.5z" unicode="å" glyph-name="aring" horiz-adv-x="498"/>
<glyph d="M431 242v-1q0 -91 32 -138t93 -47q47 0 75 23.5t41 72.5h82q-17 -80 -66.5 -123t-131.5 -43q-54 0 -95.5 22.5t-68.5 64.5q-26 -44 -69.5 -65.5t-98.5 -21.5q-81 0 -128.5 40.5t-47.5 120.5q0 77 51 117t137 40h110v64q0 104 -99 104q-45 0 -70 -24.5t-30 -63.5h-84 q4 72 55.5 113t128.5 41q111 0 154 -74q55 74 155 74q84 0 135 -49t66 -138q5 -29 5 -62v-47h-331zM466.5 427.5q-31.5 -40.5 -35.5 -121.5h251q-8 162 -126 162q-58 0 -89.5 -40.5zM315 84q31 29 31 83v73h-109q-45 0 -75 -22.5t-30 -59.5v-19q0 -41 27 -62.5t72 -21.5 q53 0 84 29z" unicode="æ" glyph-name="ae" horiz-adv-x="806"/>
<glyph d="M263 -14l-12 -30q36 -2 59.5 -20t23.5 -52q0 -38 -26 -58t-60 -20q-22 0 -44.5 7t-38.5 20l22 40q30 -21 60 -21q17 0 26.5 8.5t9.5 22.5t-11 21.5t-29 7.5h-25l-21 22l22 54q-85 11 -130 85t-45 189q0 125 52.5 200.5t151.5 75.5q81 0 133 -50t59 -131h-81 q-10 55 -37 82.5t-74 27.5q-60 0 -89.5 -47t-29.5 -136v-43q0 -89 29.5 -136.5t89.5 -47.5q49 0 75.5 29t36.5 87h83q-26 -178 -180 -187z" unicode="ç" glyph-name="ccedilla" horiz-adv-x="487"/>
<glyph d="M129 242v-1q0 -91 32 -138t93 -47q47 0 75 23.5t41 72.5h82q-17 -80 -66.5 -123t-131.5 -43q-101 0 -155.5 75.5t-54.5 200.5t54.5 200.5t155.5 75.5q84 0 135 -49t66 -138q5 -29 5 -62v-47h-331zM164.5 427.5q-31.5 -40.5 -35.5 -121.5h251q-8 162 -126 162 q-58 0 -89.5 -40.5zM223 615l-70 131h97l44 -131h-71z" unicode="è" glyph-name="egrave" horiz-adv-x="504"/>
<glyph d="M129 242v-1q0 -91 32 -138t93 -47q47 0 75 23.5t41 72.5h82q-17 -80 -66.5 -123t-131.5 -43q-101 0 -155.5 75.5t-54.5 200.5t54.5 200.5t155.5 75.5q84 0 135 -49t66 -138q5 -29 5 -62v-47h-331zM164.5 427.5q-31.5 -40.5 -35.5 -121.5h251q-8 162 -126 162 q-58 0 -89.5 -40.5zM270 746h97l-70 -131h-71z" unicode="é" glyph-name="eacute" horiz-adv-x="504"/>
<glyph d="M129 242v-1q0 -91 32 -138t93 -47q47 0 75 23.5t41 72.5h82q-17 -80 -66.5 -123t-131.5 -43q-101 0 -155.5 75.5t-54.5 200.5t54.5 200.5t155.5 75.5q84 0 135 -49t66 -138q5 -29 5 -62v-47h-331zM164.5 427.5q-31.5 -40.5 -35.5 -121.5h251q-8 162 -126 162 q-58 0 -89.5 -40.5zM319 615l-57 93l-58 -93h-63l64 131h114l63 -131h-63z" unicode="ê" glyph-name="ecircumflex" horiz-adv-x="504"/>
<glyph d="M129 242v-1q0 -91 32 -138t93 -47q47 0 75 23.5t41 72.5h82q-17 -80 -66.5 -123t-131.5 -43q-101 0 -155.5 75.5t-54.5 200.5t54.5 200.5t155.5 75.5q84 0 135 -49t66 -138q5 -29 5 -62v-47h-331zM164.5 427.5q-31.5 -40.5 -35.5 -121.5h251q-8 162 -126 162 q-58 0 -89.5 -40.5zM144 736h78v-105h-78v105zM301 736h78v-105h-78v105z" unicode="ë" glyph-name="edieresis" horiz-adv-x="504"/>
<glyph d="M74 524h82v-524h-82v524zM76 615l-70 131h97l44 -131h-71z" unicode="ì" glyph-name="igrave" horiz-adv-x="230"/>
<glyph d="M74 524h82v-524h-82v524zM123 746h97l-70 -131h-71z" unicode="í" glyph-name="iacute" horiz-adv-x="230"/>
<glyph d="M74 524h82v-524h-82v524zM172 615l-57 93l-58 -93h-63l64 131h114l63 -131h-63z" unicode="î" glyph-name="icircumflex" horiz-adv-x="230"/>
<glyph d="M74 524h82v-524h-82v524zM-3 736h78v-105h-78v105zM154 736h78v-105h-78v105z" unicode="ï" glyph-name="idieresis" horiz-adv-x="230"/>
<glyph d="M440 464.5q25 -85.5 25 -169.5q0 -154 -54.5 -231.5t-156.5 -77.5q-65 0 -112.5 34t-72.5 95t-25 140q0 78 25 138t71 93.5t107 33.5q86 0 121 -69q-21 69 -67 142l-113 -44l-17 51l99 37q-46 63 -96 99h101q36 -29 68 -71l72 27l16 -48l-59 -23q43 -71 68 -156.5z M380 276q0 84 -33.5 129.5t-92.5 45.5q-58 0 -91.5 -45.5t-33.5 -129.5v-42q0 -85 32 -131.5t93 -46.5t93.5 47t32.5 131v42z" unicode="ð" glyph-name="eth" horiz-adv-x="509"/>
<glyph d="M401.5 489q43.5 -49 43.5 -141v-348h-82v326q0 75 -26 107t-76 32q-105 0 -105 -139v-326h-82v524h78v-64q16 35 50 56.5t83 21.5q73 0 116.5 -49zM287.5 629.5q-15.5 6.5 -37.5 19.5q-3 2 -18.5 10t-25.5 8q-14 0 -21.5 -10t-8.5 -34h-43q0 52 20.5 79.5t49.5 27.5 q18 0 34 -7t35 -19q3 -2 12.5 -7.5t17.5 -8t14 -2.5q13 0 18.5 10t7.5 34h43q0 -52 -18.5 -79.5t-47.5 -27.5q-16 0 -31.5 6.5z" unicode="ñ" glyph-name="ntilde" horiz-adv-x="515"/>
<glyph d="M97.5 61q-53.5 75 -53.5 201q0 125 53.5 200.5t157.5 75.5q103 0 156.5 -75.5t53.5 -200.5q0 -126 -53.5 -201t-156.5 -75q-104 0 -157.5 75zM348 103q32 47 32 138v43q0 91 -31.5 137.5t-93.5 46.5t-94 -46.5t-32 -137.5v-43q0 -91 32 -138t94 -47q61 0 93 47zM216 615 l-70 131h97l44 -131h-71z" unicode="ò" glyph-name="ograve" horiz-adv-x="509"/>
<glyph d="M97.5 61q-53.5 75 -53.5 201q0 125 53.5 200.5t157.5 75.5q103 0 156.5 -75.5t53.5 -200.5q0 -126 -53.5 -201t-156.5 -75q-104 0 -157.5 75zM348 103q32 47 32 138v43q0 91 -31.5 137.5t-93.5 46.5t-94 -46.5t-32 -137.5v-43q0 -91 32 -138t94 -47q61 0 93 47zM263 746 h97l-70 -131h-71z" unicode="ó" glyph-name="oacute" horiz-adv-x="509"/>
<glyph d="M97.5 61q-53.5 75 -53.5 201q0 125 53.5 200.5t157.5 75.5q103 0 156.5 -75.5t53.5 -200.5q0 -126 -53.5 -201t-156.5 -75q-104 0 -157.5 75zM348 103q32 47 32 138v43q0 91 -31.5 137.5t-93.5 46.5t-94 -46.5t-32 -137.5v-43q0 -91 32 -138t94 -47q61 0 93 47zM312 615 l-57 93l-58 -93h-63l64 131h114l63 -131h-63z" unicode="ô" glyph-name="ocircumflex" horiz-adv-x="509"/>
<glyph d="M97.5 61q-53.5 75 -53.5 201q0 125 53.5 200.5t157.5 75.5q103 0 156.5 -75.5t53.5 -200.5q0 -126 -53.5 -201t-156.5 -75q-104 0 -157.5 75zM348 103q32 47 32 138v43q0 91 -31.5 137.5t-93.5 46.5t-94 -46.5t-32 -137.5v-43q0 -91 32 -138t94 -47q61 0 93 47z M283.5 629.5q-15.5 6.5 -37.5 19.5q-3 2 -18.5 10t-25.5 8q-14 0 -21.5 -10t-8.5 -34h-43q0 52 20.5 79.5t49.5 27.5q18 0 34 -7t35 -19q3 -2 12.5 -7.5t17.5 -8t14 -2.5q13 0 18.5 10t7.5 34h43q0 -52 -18.5 -79.5t-47.5 -27.5q-16 0 -31.5 6.5z" unicode="õ" glyph-name="otilde" horiz-adv-x="509"/>
<glyph d="M97.5 61q-53.5 75 -53.5 201q0 125 53.5 200.5t157.5 75.5q103 0 156.5 -75.5t53.5 -200.5q0 -126 -53.5 -201t-156.5 -75q-104 0 -157.5 75zM348 103q32 47 32 138v43q0 91 -31.5 137.5t-93.5 46.5t-94 -46.5t-32 -137.5v-43q0 -91 32 -138t94 -47q61 0 93 47zM137 736 h78v-105h-78v105zM294 736h78v-105h-78v105z" unicode="ö" glyph-name="odieresis" horiz-adv-x="509"/>
<glyph d="M50 357h460v-70h-460v70zM238 569h93v-102h-93v102zM238 176h93v-102h-93v102z" unicode="÷" glyph-name="divide"/>
<glyph d="M416 456q49 -71 49 -194q0 -126 -53.5 -201t-156.5 -75q-70 0 -121 38l-25 -38h-69l53 82q-49 71 -49 194q0 125 53.5 200.5t157.5 75.5q71 0 120 -38l24 38h70zM142 143l192 295q-30 30 -79 30q-62 0 -94 -46.5t-32 -137.5v-43q0 -59 13 -98zM367 382l-192 -295 q30 -31 80 -31q61 0 93 47t32 138v43q0 59 -13 98z" unicode="ø" glyph-name="oslash" horiz-adv-x="509"/>
<glyph d="M435 524v-524h-78v66q-15 -36 -48 -57.5t-82 -21.5q-73 0 -115 47t-42 139v351h82v-327q0 -73 25.5 -105.5t73.5 -32.5q102 0 102 138v327h82zM215 615l-70 131h97l44 -131h-71z" unicode="ù" glyph-name="ugrave" horiz-adv-x="509"/>
<glyph d="M435 524v-524h-78v66q-15 -36 -48 -57.5t-82 -21.5q-73 0 -115 47t-42 139v351h82v-327q0 -73 25.5 -105.5t73.5 -32.5q102 0 102 138v327h82zM262 746h97l-70 -131h-71z" unicode="ú" glyph-name="uacute" horiz-adv-x="509"/>
<glyph d="M435 524v-524h-78v66q-15 -36 -48 -57.5t-82 -21.5q-73 0 -115 47t-42 139v351h82v-327q0 -73 25.5 -105.5t73.5 -32.5q102 0 102 138v327h82zM311 615l-57 93l-58 -93h-63l64 131h114l63 -131h-63z" unicode="û" glyph-name="ucircumflex" horiz-adv-x="509"/>
<glyph d="M435 524v-524h-78v66q-15 -36 -48 -57.5t-82 -21.5q-73 0 -115 47t-42 139v351h82v-327q0 -73 25.5 -105.5t73.5 -32.5q102 0 102 138v327h82zM136 736h78v-105h-78v105zM293 736h78v-105h-78v105z" unicode="ü" glyph-name="udieresis" horiz-adv-x="509"/>
<glyph d="M430 524l-217 -696h-80l56 182l-158 514h85l115 -392l118 392h81zM239 746h97l-70 -131h-71z" unicode="ý" glyph-name="yacute" horiz-adv-x="461"/>
<glyph d="M428.5 464.5q50.5 -73.5 50.5 -202.5t-50.5 -202.5t-139.5 -73.5q-84 0 -133 70v-228h-82v908h82v-268q48 70 133 70q89 0 139.5 -73.5zM394 284q0 91 -31.5 137.5t-89.5 46.5q-53 0 -85 -37t-32 -107v-123q0 -68 32.5 -106.5t84.5 -38.5q58 0 89.5 47.5t31.5 138.5v42z " unicode="þ" glyph-name="thorn" horiz-adv-x="523"/>
<glyph d="M419.5 489q43.5 -49 43.5 -141v-348h-82v326q0 75 -26 107t-76 32q-105 0 -105 -139v-326h-82v610h-62v60h62v66h82v-66h114v-60h-114v-142q18 32 50.5 51t78.5 19q73 0 116.5 -49z" unicode="ħ" glyph-name="hbar" horiz-adv-x="533"/>
<glyph d="M74 524h82v-524h-82v524z" unicode="ı" glyph-name="dotlessi" horiz-adv-x="230"/>
<glyph d="M-126 615l-70 131h97l44 -131h-71z" unicode="̀" glyph-name="gravecomb" horiz-adv-x="0"/>
<glyph d="M-152 746h97l-70 -131h-71z" unicode="́" glyph-name="acutecomb" horiz-adv-x="0"/>
<glyph d="M-118 615l-57 93l-58 -93h-63l64 131h114l63 -131h-63z" unicode="̂" glyph-name="uni0302" horiz-adv-x="0"/>
<glyph d="M-152.5 629.5q-15.5 6.5 -37.5 19.5q-3 2 -18.5 10t-25.5 8q-14 0 -21.5 -10t-8.5 -34h-43q0 52 20.5 79.5t49.5 27.5q18 0 34 -7t35 -19q3 -2 12.5 -7.5t17.5 -8t14 -2.5q13 0 18.5 10t7.5 34h43q0 -52 -18.5 -79.5t-47.5 -27.5q-16 0 -31.5 6.5z" unicode="̃" glyph-name="tildecomb" horiz-adv-x="0"/>
<glyph d="M-283 713h228v-69h-228v69z" unicode="̄" glyph-name="uni0304" horiz-adv-x="0"/>
<glyph d="M-137 736h82v-105h-82v105z" unicode="̇" glyph-name="uni0307" horiz-adv-x="0"/>
<glyph d="M-290 736h78v-105h-78v105zM-133 736h78v-105h-78v105z" unicode="̈" glyph-name="uni0308" horiz-adv-x="0"/>
<glyph d="M-260 620.5q-35 32.5 -35 83.5t34.5 83t85.5 32t85.5 -32t34.5 -83t-35 -83.5t-85 -32.5t-85 32.5zM-130 653.5q18 17.5 18 45.5v10q0 28 -18 45t-45 17t-45 -17t-18 -45v-10q0 -28 18 -45.5t45 -17.5t45 17.5z" unicode="̊" glyph-name="uni030A" horiz-adv-x="0"/>
<glyph d="M-78.5 -64q23.5 -18 23.5 -52q0 -38 -26 -58t-60 -20q-22 0 -44.5 7t-38.5 20l22 40q30 -21 60 -21q17 0 26.5 8.5t9.5 22.5t-11 21.5t-29 7.5h-25l-21 22l38 94l38 -18l-22 -54q36 -2 59.5 -20z" unicode="̧" glyph-name="uni0327" horiz-adv-x="0"/>
<glyph d="M168 636v-244h307v-75h-307v-243h324v-74h-410v710h410v-74h-324zM254 801l-70 131h97l44 -131h-71z" unicode="Ѐ" glyph-name="uni0400" horiz-adv-x="539"/>
<glyph d="M168 636v-244h307v-75h-307v-243h324v-74h-410v710h410v-74h-324zM175 922h78v-105h-78v105zM332 922h78v-105h-78v105z" unicode="Ё" glyph-name="uni0401" horiz-adv-x="539"/>
<glyph d="M553.5 411.5q43.5 -27.5 67.5 -78t24 -118.5q0 -100 -50 -163.5t-140 -63.5q-34 0 -62 5v74q28 -4 54 -4q54 0 82 40.5t28 114.5q0 57 -30.5 100.5t-91.5 43.5q-37 0 -72.5 -9t-80.5 -26v-327h-86v636h-166v74h444v-74h-192v-230q101 33 170 33q58 0 101.5 -27.5z" unicode="Ђ" glyph-name="uni0402" horiz-adv-x="684"/>
<glyph d="M82 710h367v-74h-281v-636h-86v710zM278 932h97l-70 -131h-71z" unicode="Ѓ" glyph-name="uni0403" horiz-adv-x="461"/>
<glyph d="M578 216q-19 -108 -84.5 -169t-174.5 -61q-133 0 -202 99.5t-69 269.5t69 269.5t202 99.5q107 0 172 -61t85 -161h-89q-19 73 -59.5 110.5t-108.5 37.5q-85 0 -132.5 -68t-49.5 -184h290v-75h-290v-5q0 -119 47.5 -188.5t134.5 -69.5q69 0 112 41.5t59 114.5h88z" unicode="Є" glyph-name="uni0404" horiz-adv-x="621"/>
<glyph d="M102.5 48q-61.5 62 -62.5 163h88q3 -64 43 -107.5t117 -43.5q67 0 102.5 33t35.5 81v12q0 46 -25 72.5t-84 49.5l-100 39q-59 23 -94 46.5t-52.5 57.5t-17.5 85q0 53 27 96t76 67.5t112 24.5q73 0 124 -26t76.5 -69t27.5 -95h-87q-6 49 -41 82.5t-103 33.5 q-59 0 -92.5 -31t-33.5 -73v-12q0 -41 25.5 -65t82.5 -47l97 -38q61 -24 96.5 -48.5t53.5 -60.5t18 -92q0 -55 -26 -100t-77 -71t-123 -26q-122 0 -183.5 62z" unicode="Ѕ" glyph-name="uni0405" horiz-adv-x="551"/>
<glyph d="M87 710h86v-710h-86v710z" unicode="І" glyph-name="uni0406" horiz-adv-x="260"/>
<glyph d="M87 710h86v-710h-86v710zM12 922h78v-105h-78v105zM169 922h78v-105h-78v105z" unicode="Ї" glyph-name="uni0407" horiz-adv-x="260"/>
<glyph d="M78.5 33.5q-47.5 47.5 -50.5 125.5h86q9 -99 97 -99q47 0 70 32t23 100v519h86v-526q0 -91 -46 -145t-133 -54q-85 0 -132.5 47.5z" unicode="Ј" glyph-name="uni0408" horiz-adv-x="472"/>
<glyph d="M777.5 392q46.5 -27 72.5 -74.5t26 -108.5q0 -60 -26 -107.5t-72.5 -74.5t-105.5 -27h-243v636h-221v-298q0 -169 -36 -259t-120 -90q-21 0 -38 4v73q9 -2 26 -2q45 0 64.5 69t19.5 201v376h391v-291h157q59 0 105.5 -27zM789 220q0 60 -37.5 92.5t-95.5 32.5h-141v-271 h141q58 0 95.5 32.5t37.5 92.5v21z" unicode="Љ" glyph-name="uni0409" horiz-adv-x="906"/>
<glyph d="M786.5 392q46.5 -27 72.5 -74.5t26 -108.5q0 -60 -26 -107.5t-72.5 -74.5t-105.5 -27h-243v345h-270v-345h-86v710h86v-291h270v291h86v-291h157q59 0 105.5 -27zM798 220q0 60 -37.5 92.5t-95.5 32.5h-141v-271h141q58 0 95.5 32.5t37.5 92.5v21z" unicode="Њ" glyph-name="uni040A" horiz-adv-x="915"/>
<glyph d="M596.5 381.5q48.5 -57.5 48.5 -182.5v-199h-86v202q0 78 -30 118.5t-96 40.5q-63 0 -151 -33v-328h-86v636h-166v74h444v-74h-192v-231q51 16 91.5 25t79.5 9q95 0 143.5 -57.5z" unicode="Ћ" glyph-name="uni040B" horiz-adv-x="684"/>
<glyph d="M287 358l-119 -153v-205h-86v710h86v-387l296 387h96l-216 -279l220 -431h-94zM299 932h97l-70 -131h-71z" unicode="Ќ" glyph-name="uni040C" horiz-adv-x="582"/>
<glyph d="M557 710v-710h-84v602l-279 -602h-112v710h84v-597l276 597h115zM281 796l-70 131h97l44 -131h-71z" unicode="Ѝ" glyph-name="uni040D" horiz-adv-x="639"/>
<glyph d="M519 710l-312 -710h-88l113 257l-210 453h94l158 -357l156 357h89zM384 911q0 -50 -32.5 -79t-80.5 -29q-49 0 -81.5 28.5t-32.5 79.5v21h63v-12q0 -30 14.5 -45.5t36.5 -15.5q21 0 35.5 15.5t14.5 45.5v12h63v-21z" unicode="Ў" glyph-name="uni040E" horiz-adv-x="529"/>
<glyph d="M534 710v-710h-184v-132h-84v132h-184v710h86v-636h280v636h86z" unicode="Џ" glyph-name="uni040F" horiz-adv-x="616"/>
<glyph d="M411 186h-248l-51 -186h-85l203 710h116l204 -710h-88zM391 261l-103 379l-104 -379h207z" unicode="А" glyph-name="uni0410" horiz-adv-x="577"/>
<glyph d="M445.5 401.5q46.5 -27.5 72.5 -76.5t26 -111q0 -61 -26 -110t-72.5 -76.5t-105.5 -27.5h-258v710h407v-74h-321v-207h172q59 0 105.5 -27.5zM457 226q0 61 -38 95t-95 34h-156v-281h156q57 0 95 34t38 95v23z" unicode="Б" glyph-name="uni0411" horiz-adv-x="584"/>
<glyph d="M509 308q32 -43 32 -108q0 -60 -25 -105.5t-66.5 -70t-90.5 -24.5h-277v710h255q47 0 89.5 -22t69 -64t26.5 -101t-27 -97.5t-64 -55.5q46 -19 78 -62zM168 636v-238h155q46 0 79.5 28t33.5 84v18q0 55 -33 81.5t-80 26.5h-155zM454 206q0 60 -34 89t-81 29h-171v-250 h171q47 0 81 28t34 87v17z" unicode="В" glyph-name="uni0412" horiz-adv-x="588"/>
<glyph d="M82 710h367v-74h-281v-636h-86v710z" unicode="Г" glyph-name="uni0413" horiz-adv-x="461"/>
<glyph d="M590 74v-206h-84v132h-400v-132h-84v206h39q27 49 41 98t19.5 116.5t5.5 176.5v245h382v-636h81zM423 636h-212v-188q0 -112 -14.5 -215t-43.5 -159h270v562z" unicode="Д" glyph-name="uni0414" horiz-adv-x="618"/>
<glyph d="M168 636v-244h307v-75h-307v-243h324v-74h-410v710h410v-74h-324z" unicode="Е" glyph-name="uni0415" horiz-adv-x="539"/>
<glyph d="M545 350l-95 -142v-208h-86v208l-95 142l-160 -350h-91l200 426l-191 284h96l241 -370v370h86v-370l241 370h96l-191 -284l200 -426h-91z" unicode="Ж" glyph-name="uni0416" horiz-adv-x="814"/>
<glyph d="M505.5 300.5q29.5 -41.5 29.5 -101.5q0 -62 -29.5 -110t-85.5 -75.5t-132 -27.5q-85 0 -139.5 30.5t-79.5 78.5t-26 103h90q14 -140 157 -140q71 0 113.5 36.5t42.5 91.5v21q0 53 -36 83t-101 30h-103v71h100q60 0 93 32t33 91v20q0 50 -35 84t-102 34q-66 0 -105 -34.5 t-51 -97.5h-87q5 53 32.5 99.5t80 75.5t129.5 29q73 0 124 -26.5t76.5 -72t25.5 -101.5q0 -59 -26.5 -100.5t-71.5 -62.5q54 -19 83.5 -60.5z" unicode="З" glyph-name="uni0417" horiz-adv-x="582"/>
<glyph d="M557 710v-710h-84v602l-279 -602h-112v710h84v-597l276 597h115z" unicode="И" glyph-name="uni0418" horiz-adv-x="639"/>
<glyph d="M557 710v-710h-84v602l-279 -602h-112v710h84v-597l276 597h115zM433 906q0 -50 -32.5 -79t-80.5 -29q-49 0 -81.5 28.5t-32.5 79.5v21h63v-12q0 -30 14.5 -45.5t36.5 -15.5q21 0 35.5 15.5t14.5 45.5v12h63v-21z" unicode="Й" glyph-name="uni0419" horiz-adv-x="639"/>
<glyph d="M287 358l-119 -153v-205h-86v710h86v-387l296 387h96l-216 -279l220 -431h-94z" unicode="К" glyph-name="uni041A" horiz-adv-x="582"/>
<glyph d="M530 0h-86v636h-236v-298q0 -169 -36 -259t-120 -90q-21 0 -38 4v73q9 -2 26 -2q45 0 64.5 69t19.5 201v376h406v-710z" unicode="Л" glyph-name="uni041B" horiz-adv-x="612"/>
<glyph d="M670 710v-710h-84v619l-162 -619h-91l-167 620v-620h-84v710h132l165 -614l160 614h131z" unicode="М" glyph-name="uni041C" horiz-adv-x="752"/>
<glyph d="M539 710v-710h-86v317h-285v-317h-86v710h86v-318h285v318h86z" unicode="Н" glyph-name="uni041D" horiz-adv-x="621"/>
<glyph d="M117 85q-69 99 -69 270t69.5 270t202.5 99t202.5 -99.5t69.5 -269.5q0 -171 -69.5 -270t-202.5 -99q-134 0 -203 99zM455 130.5q47 70.5 47 186.5v76q0 116 -47 186.5t-135 70.5t-135 -70.5t-47 -186.5v-76q0 -117 47 -187t135 -70t135 70.5z" unicode="О" glyph-name="uni041E" horiz-adv-x="640"/>
<glyph d="M534 0h-86v636h-280v-636h-86v710h452v-710z" unicode="П" glyph-name="uni041F" horiz-adv-x="616"/>
<glyph d="M438.5 682q46.5 -28 72.5 -78t26 -114q0 -63 -26 -113t-72.5 -78t-105.5 -28h-165v-271h-86v710h251q59 0 105.5 -28zM450 502q0 64 -37.5 99t-95.5 35h-149v-291h149q58 0 95.5 35t37.5 99v23z" unicode="Р" glyph-name="uni0420" horiz-adv-x="567"/>
<glyph d="M117 85.5q-69 99.5 -69 269.5t69 269.5t202 99.5q112 0 178.5 -67t81.5 -175h-87q-17 83 -59 125.5t-114 42.5q-87 0 -134.5 -69.5t-47.5 -188.5v-74q0 -119 47.5 -188.5t134.5 -69.5q75 0 118.5 48t56.5 131h88q-15 -118 -81.5 -185.5t-181.5 -67.5q-133 0 -202 99.5z " unicode="С" glyph-name="uni0421" horiz-adv-x="625"/>
<glyph d="M220 636h-190v74h468v-74h-192v-636h-86v636z" unicode="Т" glyph-name="uni0422" horiz-adv-x="528"/>
<glyph d="M519 710l-312 -710h-88l113 257l-210 453h94l158 -357l156 357h89z" unicode="У" glyph-name="uni0423" horiz-adv-x="529"/>
<glyph d="M547.5 629.5q62.5 -37.5 97 -103t34.5 -151.5t-34.5 -151.5t-97 -103t-145.5 -41.5v-79h-86v79q-83 4 -145.5 41.5t-97 103t-34.5 151.5t34.5 151.5t97 103t145.5 41.5v79h86v-79q83 -4 145.5 -41.5zM316 599q-89 -7 -138 -62.5t-49 -141.5v-40q0 -86 49 -141.5 t138 -62.5v448zM589 395q0 86 -49 141.5t-138 62.5v-448q89 7 138 62.5t49 141.5v40z" unicode="Ф" glyph-name="uni0424" horiz-adv-x="718"/>
<glyph d="M412 0l-149 296l-150 -296h-86l188 370l-179 340h91l139 -269l138 269h90l-182 -340l189 -370h-89z" unicode="Х" glyph-name="uni0425" horiz-adv-x="528"/>
<glyph d="M605 74v-206h-84v132h-439v710h86v-636h280v636h86v-636h71z" unicode="Ц" glyph-name="uni0426" horiz-adv-x="633"/>
<glyph d="M494 710v-710h-86v295q-51 -16 -91.5 -25t-79.5 -9q-95 0 -143.5 57.5t-48.5 182.5v209h86v-212q0 -78 30 -118.5t96 -40.5q63 0 151 33v338h86z" unicode="Ч" glyph-name="uni0427" horiz-adv-x="576"/>
<glyph d="M724 710v-710h-642v710h86v-636h192v636h86v-636h192v636h86z" unicode="Ш" glyph-name="uni0428" horiz-adv-x="806"/>
<glyph d="M795 74v-206h-84v132h-629v710h86v-636h192v636h86v-636h192v636h86v-636h71z" unicode="Щ" glyph-name="uni0429" horiz-adv-x="823"/>
<glyph d="M567.5 411q46.5 -28 72.5 -78t26 -114q0 -63 -26 -113t-72.5 -78t-105.5 -28h-258v636h-174v74h260v-271h172q59 0 105.5 -28zM579 231q0 64 -37.5 99t-95.5 35h-156v-291h156q58 0 95.5 35t37.5 99v23z" unicode="Ъ" glyph-name="uni042A" horiz-adv-x="696"/>
<glyph d="M420.5 411q46.5 -28 72.5 -78t26 -114q0 -63 -26 -113t-72.5 -78t-105.5 -28h-233v710h86v-271h147q59 0 105.5 -28zM670 710v-710h-86v710h86zM432 231q0 64 -37.5 99t-95.5 35h-131v-291h131q58 0 95.5 35t37.5 99v23z" unicode="Ы" glyph-name="uni042B" horiz-adv-x="752"/>
<glyph d="M445.5 411q46.5 -28 72.5 -78t26 -114q0 -63 -26 -113t-72.5 -78t-105.5 -28h-258v710h86v-271h172q59 0 105.5 -28zM457 231q0 64 -37.5 99t-95.5 35h-156v-291h156q58 0 95.5 35t37.5 99v23z" unicode="Ь" glyph-name="uni042C" horiz-adv-x="574"/>
<glyph d="M504 624.5q69 -99.5 69 -269.5t-69 -269.5t-202 -99.5q-109 0 -174.5 61t-84.5 169h88q16 -73 59 -114.5t112 -41.5q87 0 134.5 69.5t47.5 188.5v5h-290v75h290q-2 116 -49.5 184t-132.5 68q-68 0 -108.5 -37.5t-59.5 -110.5h-89q20 100 85 161t172 61q133 0 202 -99.5z " unicode="Э" glyph-name="uni042D" horiz-adv-x="621"/>
<glyph d="M715.5 624.5q66.5 -99.5 66.5 -269.5q0 -171 -66.5 -270t-193.5 -99q-120 0 -184.5 88.5t-71.5 243.5h-98v-318h-86v710h86v-318h98q7 155 71.5 243.5t184.5 88.5q127 0 193.5 -99.5zM648 130.5q44 70.5 44 186.5v76q0 116 -44 186.5t-126 70.5t-126 -70.5t-44 -186.5 v-76q0 -118 43.5 -187.5t126.5 -69.5q82 0 126 70.5z" unicode="Ю" glyph-name="uni042E" horiz-adv-x="830"/>
<glyph d="M511 0h-86v275h-126l-164 -275h-95l169 285q-70 16 -111.5 71t-41.5 136q0 64 26 113.5t72.5 77t105.5 27.5h251v-710zM425 349v287h-149q-58 0 -95.5 -34t-37.5 -98v-23q0 -64 37.5 -98t95.5 -34h149z" unicode="Я" glyph-name="uni042F" horiz-adv-x="593"/>
<glyph d="M381 492q47 -46 47 -121v-371h-78v56q-17 -32 -51 -51t-84 -19q-75 0 -121 41t-46 120q0 77 51 117t137 40h110v64q0 104 -99 104q-45 0 -70 -24.5t-30 -63.5h-84q4 72 55.5 113t128.5 41q87 0 134 -46zM315 84q31 29 31 83v73h-109q-45 0 -75 -22.5t-30 -59.5v-19 q0 -41 27 -62.5t72 -21.5q53 0 84 29z" unicode="а" glyph-name="uni0430" horiz-adv-x="498"/>
<glyph d="M367.5 458q43.5 -32 66.5 -89t23 -130q0 -113 -55 -183t-156 -70q-105 0 -153.5 79t-48.5 229v13q0 137 28.5 226.5t90.5 136.5q32 25 65.5 35.5t84.5 19.5q68 12 103 25v-75q-30 -10 -59.5 -16.5t-35.5 -7.5q-42 -8 -67.5 -16t-48.5 -28q-68 -57 -77 -195q44 78 136 78 q60 0 103.5 -32zM372 249q0 80 -32.5 125.5t-87.5 45.5q-56 0 -89.5 -47t-33.5 -124v-19q0 -81 32.5 -127.5t89.5 -46.5q56 0 88.5 46.5t32.5 127.5v19z" unicode="б" glyph-name="uni0431" horiz-adv-x="501"/>
<glyph d="M438 224.5q21 -29.5 21 -71.5q0 -66 -44 -109.5t-122 -43.5h-219v524h218q49 0 84 -20t53.5 -53t18.5 -72q0 -40 -18.5 -68t-50.5 -43q38 -14 59 -43.5zM156 461v-166h133q33 0 53 20.5t20 56.5v12q0 32 -20 54.5t-53 22.5h-133zM373 159q0 33 -23 53t-60 20h-134v-169 h133q38 0 61 24t23 58v14z" unicode="в" glyph-name="uni0432" horiz-adv-x="503"/>
<glyph d="M379 453h-223v-453h-82v524h305v-71z" unicode="г" glyph-name="uni0433" horiz-adv-x="399"/>
<glyph d="M513 71v-193h-74v122h-340v-122h-74v194h35q33 51 45 121t12 176v155h332v-453h64zM367 453h-170v-87q0 -84 -12.5 -167t-36.5 -127h219v381z" unicode="д" glyph-name="uni0434" horiz-adv-x="538"/>
<glyph d="M129 242v-1q0 -91 32 -138t93 -47q47 0 75 23.5t41 72.5h82q-17 -80 -66.5 -123t-131.5 -43q-101 0 -155.5 75.5t-54.5 200.5t54.5 200.5t155.5 75.5q84 0 135 -49t66 -138q5 -29 5 -62v-47h-331zM164.5 427.5q-31.5 -40.5 -35.5 -121.5h251q-8 162 -126 162 q-58 0 -89.5 -40.5z" unicode="е" glyph-name="uni0435" horiz-adv-x="504"/>
<glyph d="M436 251l-63 -85v-166h-80v166l-62 84l-127 -250h-89l166 317l-153 207h94l171 -243v243h80v-244l172 244h94l-154 -208l167 -316h-89z" unicode="ж" glyph-name="uni0436" horiz-adv-x="667"/>
<glyph d="M402.5 224.5q22.5 -31.5 22.5 -76.5q0 -46 -22.5 -83t-65 -58t-100.5 -21q-65 0 -108 23.5t-63.5 60t-21.5 78.5h87q6 -46 32.5 -71.5t73.5 -25.5t75.5 25.5t28.5 62.5v16q0 36 -25 57t-70 21h-54v64h53q40 0 62 20t22 60v14q0 35 -24 59t-68 24q-43 0 -68.5 -24.5 t-33.5 -68.5h-86q7 66 53 111.5t136 45.5q56 0 95.5 -20.5t60 -55t20.5 -75.5q0 -44 -20 -73t-54 -43q40 -15 62.5 -46.5z" unicode="з" glyph-name="uni0437" horiz-adv-x="469"/>
<glyph d="M463 524v-524h-80v428l-204 -428h-105v524h80v-421l202 421h107z" unicode="и" glyph-name="uni0438" horiz-adv-x="537"/>
<glyph d="M463 524v-524h-80v428l-204 -428h-105v524h80v-421l202 421h107zM382 725q0 -50 -32.5 -79t-80.5 -29q-49 0 -81.5 28.5t-32.5 79.5v21h63v-12q0 -30 14.5 -45.5t36.5 -15.5q21 0 35.5 15.5t14.5 45.5v12h63v-21z" unicode="й" glyph-name="uni0439" horiz-adv-x="537"/>
<glyph d="M232 245l-76 -97v-148h-82v524h82v-264l199 264h92l-163 -211l172 -313h-90z" unicode="к" glyph-name="uni043A" horiz-adv-x="471"/>
<glyph d="M447 0h-82v453h-171v-193q0 -134 -31.5 -201t-106.5 -67q-19 0 -36 3v67q8 -1 24 -1q39 0 54.5 44.5t15.5 147.5v271h333v-524z" unicode="л" glyph-name="uni043B" horiz-adv-x="521"/>
<glyph d="M575 524v-524h-80v443l-127 -443h-83l-131 447v-447h-80v524h131l123 -429l119 429h128z" unicode="м" glyph-name="uni043C" horiz-adv-x="649"/>
<glyph d="M445 524v-524h-82v235h-207v-235h-82v524h82v-218h207v218h82z" unicode="н" glyph-name="uni043D" horiz-adv-x="519"/>
<glyph d="M97.5 61q-53.5 75 -53.5 201q0 125 53.5 200.5t157.5 75.5q103 0 156.5 -75.5t53.5 -200.5q0 -126 -53.5 -201t-156.5 -75q-104 0 -157.5 75zM348 103q32 47 32 138v43q0 91 -31.5 137.5t-93.5 46.5t-94 -46.5t-32 -137.5v-43q0 -91 32 -138t94 -47q61 0 93 47z" unicode="о" glyph-name="uni043E" horiz-adv-x="509"/>
<glyph d="M435 0h-82v453h-197v-453h-82v524h361v-524z" unicode="п" glyph-name="uni043F" horiz-adv-x="509"/>
<glyph d="M428.5 464.5q50.5 -73.5 50.5 -202.5t-50.5 -202.5t-139.5 -73.5q-84 0 -133 70v-228h-82v696h78v-62q49 76 137 76q89 0 139.5 -73.5zM394 284q0 91 -31.5 137.5t-89.5 46.5q-53 0 -85 -37t-32 -107v-123q0 -68 32.5 -106.5t84.5 -38.5q58 0 89.5 47.5t31.5 138.5v42z " unicode="р" glyph-name="uni0440" horiz-adv-x="523"/>
<glyph d="M96.5 61.5q-52.5 75.5 -52.5 200.5t52.5 200.5t151.5 75.5q81 0 133 -50t59 -131h-81q-10 55 -37 82.5t-74 27.5q-60 0 -89.5 -47t-29.5 -136v-43q0 -89 29.5 -136.5t89.5 -47.5q49 0 75.5 29t36.5 87h83q-27 -187 -195 -187q-99 0 -151.5 75.5z" unicode="с" glyph-name="uni0441" horiz-adv-x="487"/>
<glyph d="M381 453h-137v-453h-82v453h-137v71h356v-71z" unicode="т" glyph-name="uni0442" horiz-adv-x="406"/>
<glyph d="M424 524l-217 -696h-80l56 182l-158 514h85l115 -392l118 392h81z" unicode="у" glyph-name="uni0443" horiz-adv-x="449"/>
<glyph d="M529 457.5q62 -74.5 62 -195.5q0 -122 -61.5 -195.5t-171.5 -80.5v-158h-82v158q-109 7 -170.5 81t-61.5 195t61.5 195.5t170.5 80.5v172h82v-172q109 -6 171 -80.5zM276 468q-70 -8 -108.5 -56.5t-38.5 -137.5v-23q0 -89 39 -138t108 -57v412zM506 274q0 89 -39 137.5 t-109 56.5v-412q70 8 109 57t39 138v23z" unicode="ф" glyph-name="uni0444" horiz-adv-x="635"/>
<glyph d="M342 0l-111 220l-112 -220h-83l143 273l-135 251h87l101 -199l101 199h86l-131 -251l139 -273h-85z" unicode="х" glyph-name="uni0445" horiz-adv-x="463"/>
<glyph d="M499 71v-193h-74v122h-351v524h82v-453h197v453h82v-453h64z" unicode="ц" glyph-name="uni0446" horiz-adv-x="524"/>
<glyph d="M430 524v-524h-82v226q-82 -32 -146 -32q-79 0 -117.5 43.5t-38.5 138.5v148h82v-151q0 -64 22.5 -88t65.5 -24q57 0 132 30v233h82z" unicode="ч" glyph-name="uni0447" horiz-adv-x="504"/>
<glyph d="M614 524v-524h-540v524h82v-452h147v452h82v-452h147v452h82z" unicode="ш" glyph-name="uni0448" horiz-adv-x="688"/>
<glyph d="M678 71v-193h-74v122h-530v524h82v-452h147v452h82v-452h147v452h82v-453h64z" unicode="щ" glyph-name="uni0449" horiz-adv-x="703"/>
<glyph d="M445.5 314q36.5 -22 57.5 -60.5t21 -86.5q0 -47 -21 -85.5t-58 -60t-81 -21.5h-216v461h-123v63h205v-188h134q45 0 81.5 -22zM439 176q0 41 -27.5 65t-66.5 24h-115v-194h115q39 0 66.5 24t27.5 65v16z" unicode="ъ" glyph-name="uni044A" horiz-adv-x="554"/>
<glyph d="M361.5 314q36.5 -22 57.5 -60.5t21 -86.5q0 -47 -21 -85.5t-58 -60t-81 -21.5h-206v524h82v-188h124q45 0 81.5 -22zM585 524v-524h-82v524h82zM355 176q0 41 -27.5 65t-66.5 24h-105v-194h105q39 0 66.5 24t27.5 65v16z" unicode="ы" glyph-name="uni044B" horiz-adv-x="659"/>
<glyph d="M371.5 314q36.5 -22 57.5 -60.5t21 -86.5q0 -47 -21 -85.5t-58 -60t-81 -21.5h-216v524h82v-188h134q45 0 81.5 -22zM365 176q0 41 -27.5 65t-66.5 24h-115v-194h115q39 0 66.5 24t27.5 65v16z" unicode="ь" glyph-name="uni044C" horiz-adv-x="480"/>
<glyph d="M385.5 462.5q52.5 -75.5 52.5 -200.5t-52.5 -200.5t-151.5 -75.5q-161 0 -193 172h84q12 -50 38 -75.5t71 -25.5q59 0 88.5 46t30.5 132h-173v68h173q-6 164 -119 164q-42 0 -68 -22t-38 -66h-83q13 72 63.5 115.5t125.5 43.5q99 0 151.5 -75.5z" unicode="э" glyph-name="uni044D" horiz-adv-x="475"/>
<glyph d="M580.5 462.5q50.5 -75.5 50.5 -200.5t-50.5 -200.5t-146.5 -75.5q-91 0 -140 67t-54 182h-84v-235h-82v524h82v-218h85q8 107 56.5 169.5t136.5 62.5q96 0 146.5 -75.5zM546 284q0 184 -112 184q-56 0 -85 -46.5t-29 -137.5v-43q0 -91 29 -138t85 -47q55 0 83.5 47 t28.5 138v43z" unicode="ю" glyph-name="uni044E" horiz-adv-x="675"/>
<glyph d="M443 0h-82v188h-108l-117 -188h-93l127 200q-49 16 -78.5 58.5t-29.5 98.5q0 47 21 85.5t58 60t81 21.5h221v-524zM361 461h-120q-39 0 -66.5 -26t-27.5 -70v-18q0 -44 27.5 -70t66.5 -26h120v210z" unicode="я" glyph-name="uni044F" horiz-adv-x="517"/>
<glyph d="M129 242v-1q0 -91 32 -138t93 -47q47 0 75 23.5t41 72.5h82q-17 -80 -66.5 -123t-131.5 -43q-101 0 -155.5 75.5t-54.5 200.5t54.5 200.5t155.5 75.5q84 0 135 -49t66 -138q5 -29 5 -62v-47h-331zM164.5 427.5q-31.5 -40.5 -35.5 -121.5h251q-8 162 -126 162 q-58 0 -89.5 -40.5zM134 736h78v-105h-78v105zM291 736h78v-105h-78v105z" unicode="ё" glyph-name="uni0451" horiz-adv-x="504"/>
<glyph d="M396.5 489q43.5 -49 43.5 -141v-364q0 -85 -24.5 -121.5t-86.5 -36.5q-17 0 -29 2v70h13q26 0 35.5 20t9.5 70v338q0 75 -26 107t-76 32q-105 0 -105 -139v-326h-82v610h-62v60h62v66h82v-66h114v-60h-114v-142q18 32 50.5 51t78.5 19q73 0 116.5 -49z" unicode="ђ" glyph-name="uni0452" horiz-adv-x="514"/>
<glyph d="M379 453h-223v-453h-82v524h305v-71zM235 745h97l-70 -131h-71z" unicode="ѓ" glyph-name="uni0453" horiz-adv-x="399"/>
<glyph d="M434 158q-32 -172 -193 -172q-99 0 -151.5 75.5t-52.5 200.5t52.5 200.5t151.5 75.5q75 0 125.5 -43.5t63.5 -115.5h-83q-12 44 -38 66t-68 22q-113 0 -119 -164h173v-68h-173q1 -86 30.5 -132t88.5 -46q45 0 71 25.5t38 75.5h84z" unicode="є" glyph-name="uni0454" horiz-adv-x="475"/>
<glyph d="M96 32q-51 46 -52 121h82q2 -45 31 -72t83 -27q45 0 72 21t27 59v9q0 30 -16 45.5t-56 28.5l-83 28q-72 24 -102.5 55t-30.5 89q0 40 20.5 74t59.5 54t92 20q91 0 136.5 -42t47.5 -106h-82q-7 80 -103 80q-41 0 -65 -21t-24 -53v-9q0 -27 18 -42.5t58 -28.5l79 -27 q70 -24 101.5 -57t31.5 -91q0 -43 -21 -78t-62 -55.5t-99 -20.5q-92 0 -143 46z" unicode="ѕ" glyph-name="uni0455" horiz-adv-x="460"/>
<glyph d="M74 524h82v-524h-82v524zM74 736h82v-105h-82v105z" unicode="і" glyph-name="uni0456" horiz-adv-x="230"/>
<glyph d="M74 524h82v-524h-82v524zM-3 736h78v-105h-78v105zM154 736h78v-105h-78v105z" unicode="ї" glyph-name="uni0457" horiz-adv-x="230"/>
<glyph d="M74 736h82v-105h-82v105zM16 -172v70h13q26 0 35.5 20t9.5 70v536h82v-540q0 -85 -24.5 -121.5t-86.5 -36.5q-17 0 -29 2z" unicode="ј" glyph-name="uni0458" horiz-adv-x="230"/>
<glyph d="M681 275.5q44 -45.5 44 -115.5t-44 -115t-114 -45h-212v460h-161v-200q0 -134 -31.5 -201t-106.5 -67q-19 0 -36 3v67q8 -1 24 -1q39 0 54.5 44.5t15.5 147.5v271h323v-203h130q70 0 114 -45.5zM640 168q0 38 -25.5 60t-66.5 22h-111v-179h111q41 0 66.5 22t25.5 60v15z " unicode="љ" glyph-name="uni0459" horiz-adv-x="755"/>
<glyph d="M680 275.5q44 -45.5 44 -115.5t-44 -115t-114 -45h-213v250h-197v-250h-82v524h82v-203h197v203h82v-203h131q70 0 114 -45.5zM639 168q0 38 -25.5 60t-66.5 22h-112v-179h112q41 0 66.5 22t25.5 60v15z" unicode="њ" glyph-name="uni045A" horiz-adv-x="754"/>
<glyph d="M396.5 489q43.5 -49 43.5 -141v-348h-82v326q0 75 -26 107t-76 32q-105 0 -105 -139v-326h-82v610h-62v60h62v66h82v-66h114v-60h-114v-142q18 32 50.5 51t78.5 19q73 0 116.5 -49z" unicode="ћ" glyph-name="uni045B" horiz-adv-x="510"/>
<glyph d="M232 245l-76 -97v-148h-82v524h82v-264l199 264h92l-163 -211l172 -313h-90zM256 746h97l-70 -131h-71z" unicode="ќ" glyph-name="uni045C" horiz-adv-x="471"/>
<glyph d="M424 524l-217 -696h-80l56 182l-158 514h85l115 -392l118 392h81zM338 725q0 -50 -32.5 -79t-80.5 -29q-49 0 -81.5 28.5t-32.5 79.5v21h63v-12q0 -30 14.5 -45.5t36.5 -15.5q21 0 35.5 15.5t14.5 45.5v12h63v-21z" unicode="ў" glyph-name="uni045E" horiz-adv-x="449"/>
<glyph d="M435 524v-524h-143v-122h-74v122h-144v524h82v-453h197v453h82z" unicode="џ" glyph-name="uni045F" horiz-adv-x="509"/>
<glyph d="M449 862v-226h-281v-636h-86v710h283v152h84z" unicode="Ґ" glyph-name="uni0490" horiz-adv-x="461"/>
<glyph d="M379 680v-227h-223v-453h-82v524h231v156h74z" unicode="ґ" glyph-name="uni0491" horiz-adv-x="399"/>
<glyph d="M272 710h66l-400 -710h-66z" unicode="⁄" glyph-name="fraction" horiz-adv-x="210"/>
<glyph d="M50 357h460v-70h-460v70z" unicode="−" glyph-name="minus"/>
<glyph d="M108.5 435q-38.5 45 -38.5 121q0 74 38.5 119t100.5 45t100.5 -45t38.5 -119q0 -76 -38.5 -121t-100.5 -45t-100.5 45zM260 472q20 25 20 69v29q0 45 -20 69t-51 24t-51 -24t-20 -69v-29q0 -44 20 -69t51 -25t51 25z" glyph-name="zero.pcnt" horiz-adv-x="418"/>
<glyph d="M86 52h205v-52h-266v33q0 20 4 33q16 44 85 102l54 45q29 25 43 45t14 47v15q0 31 -16.5 47.5t-44.5 16.5q-33 0 -50 -22.5t-20 -57.5h-67q3 56 38.5 93t97.5 37q61 0 95 -34t34 -88q0 -47 -22 -77.5t-67 -67.5l-56 -47q-45 -37 -61 -68z" glyph-name="two.dnom" horiz-adv-x="337"/>
<glyph d="M320 144v-52h-49v-92h-63v92h-182v52l161 282h84v-282h49zM208 144v217l-124 -217h124z" glyph-name="four.dnom" horiz-adv-x="359"/>
<glyph d="M196 710v-426h-64v342l-93 -77v67l103 94h54z" glyph-name="one.numr" horiz-adv-x="273"/>
<glyph d="M86 342h205v-52h-266v33q0 20 4 33q16 44 85 102l54 45q29 25 43 45t14 47v15q0 31 -16.5 47.5t-44.5 16.5q-33 0 -50 -22.5t-20 -57.5h-67q3 56 38.5 93t97.5 37q61 0 95 -34t34 -88q0 -47 -22 -77.5t-67 -67.5l-56 -47q-45 -37 -61 -68z" glyph-name="two.numr" horiz-adv-x="337"/>
<glyph d="M292.5 470.5q17.5 -26.5 17.5 -63.5q0 -52 -34.5 -88.5t-96.5 -36.5q-69 0 -103 35.5t-36 87.5h68q8 -73 72 -73q29 0 46.5 19t17.5 49v15q0 30 -18.5 46.5t-48.5 16.5h-35v52h33q29 0 45 17.5t16 49.5v16q0 28 -15 44.5t-43 16.5t-44.5 -18t-21.5 -50h-67q3 47 37 82.5 t96 35.5q59 0 92 -33t33 -82q0 -37 -16 -62t-43 -38q31 -12 48.5 -38.5z" glyph-name="three.numr" horiz-adv-x="336"/>
<glyph d="M-150 725q0 -50 -32.5 -79t-80.5 -29q-49 0 -81.5 28.5t-32.5 79.5v21h63v-12q0 -30 14.5 -45.5t36.5 -15.5q21 0 35.5 15.5t14.5 45.5v12h63v-21z" glyph-name="brevecombcy" horiz-adv-x="0"/>
</font>
</defs>
</svg>
