<?xml version="1.0" encoding="UTF-8" standalone="no"?>
<!DOCTYPE svg  PUBLIC '-//W3C//DTD SVG 1.1//EN'  'http://www.w3.org/Graphics/SVG/1.1/DTD/svg11.dtd'>
<svg version="1.1" xmlns="http://www.w3.org/2000/svg">
<defs>
<font id="ScaniaSansCYCondensed-Bold" horiz-adv-x="560">
<font-face unicode-range="U+0020-FB02" units-per-em="1000" font-weight="700" descent="-250" underline-position="-150" underline-thickness="50" cap-height="710" font-family="Scania Sans CY Condensed" x-height="531" bbox="-385 -201 944 932" font-stretch="condensed" panose-1="0 0 8 6 0 0 0 0 0 0" ascent="750"/>
<missing-glyph/>
<glyph horiz-adv-x="583" glyph-name="fi" d="M232 623.5q-12 -16.5 -12 -64.5v-28h85v-91h-85v-440h-128v440h-71v91h71v35q0 94 36.5 134t120.5 40q34 0 56 -4v-96h-27q-34 0 -46 -16.5zM389 531h128v-531h-128v531zM389 736h128v-116h-128v116z" unicode="fi"/>
<glyph horiz-adv-x="583" glyph-name="fl" d="M232 623.5q-12 -16.5 -12 -64.5v-28h85v-91h-85v-440h-128v440h-71v91h71v35q0 94 36.5 134t120.5 40q34 0 56 -4v-96h-27q-34 0 -46 -16.5zM389 736h128v-736h-128v736z" unicode="fl"/>
<glyph horiz-adv-x="213" glyph-name="space" unicode=" "/>
<glyph horiz-adv-x="292" glyph-name="exclam" d="M78 456v254h135v-254l-20 -244h-95zM75 136h142v-136h-142v136z" unicode="!"/>
<glyph horiz-adv-x="404" glyph-name="quotedbl" d="M48 710h117v-284h-117v284zM239 710h117v-284h-117v284z" unicode='&quot;'/>
<glyph horiz-adv-x="574" glyph-name="numbersign" d="M452 452l-28 -207h77l-17 -87h-72l-21 -158h-104l21 158h-94l-21 -158h-105l22 158h-77l16 87h73l28 207h-77l15 87h74l24 171h103l-23 -171h94l23 171h104l-23 -171h76l-15 -87h-73zM348 452h-94l-28 -207h94z" unicode="#"/>
<glyph glyph-name="dollar" d="M471 51q-56 -57 -158 -63v-84h-63v85q-110 9 -164.5 70.5t-54.5 157.5h130q2 -47 24.5 -80.5t64.5 -45.5v222l-50 20q-82 32 -119 76.5t-37 117.5q0 82 56 136t150 60v77h63v-78q99 -10 148.5 -65t51.5 -134h-130q-2 33 -20 58t-50 36v-201l46 -19q89 -36 128.5 -80.5 t39.5 -122.5q0 -86 -56 -143zM189.5 478.5q19.5 -19.5 60.5 -36.5v181q-37 -5 -58.5 -28.5t-21.5 -53.5v-12q0 -31 19.5 -50.5zM400 191q0 37 -21.5 58.5t-65.5 39.5v-202q40 6 63.5 31t23.5 61v12z" unicode="$"/>
<glyph horiz-adv-x="879" glyph-name="percent" d="M595 710h89l-400 -710h-89zM549 39.5q-44 50.5 -44 131.5q0 80 44 130.5t116 50.5q71 0 115.5 -50.5t44.5 -130.5q0 -81 -44.5 -131.5t-115.5 -50.5q-72 0 -116 50.5zM712 90q19 22 19 65v32q0 43 -19 64t-48 21q-28 0 -47 -21.5t-19 -63.5v-32q0 -43 19 -65t47 -22 q29 0 48 22zM99 411.5q-44 50.5 -44 131.5q0 80 44 130.5t116 50.5q71 0 115.5 -50.5t44.5 -130.5q0 -81 -44.5 -131.5t-115.5 -50.5q-72 0 -116 50.5zM262 462q19 22 19 65v32q0 43 -19 64t-48 21q-28 0 -47 -21.5t-19 -63.5v-32q0 -43 19 -65t47 -22q29 0 48 22z" unicode="%"/>
<glyph horiz-adv-x="625" glyph-name="ampersand" d="M471 0l-28 36q-70 -50 -162 -50q-112 0 -176 53t-64 145q0 132 132 199q-28 41 -42.5 80.5t-14.5 86.5q0 43 19 83t59 65.5t100 25.5q55 0 93 -24t57 -62.5t19 -82.5q0 -126 -127 -192l113 -139q14 51 16 117h123q-6 -125 -60 -214l102 -127h-159zM236 545q0 -48 46 -112 q36 20 52 47t16 65v13q0 35 -15.5 55.5t-41.5 20.5q-27 0 -42 -20t-15 -56v-13zM383 113l-154 196l-2 2q-61 -47 -61 -108v-13q0 -50 32.5 -81t91.5 -31q53 0 93 35z" unicode="&amp;"/>
<glyph horiz-adv-x="212" glyph-name="quotesingle" d="M48 710h117v-284h-117v284z" unicode="&apos;"/>
<glyph horiz-adv-x="316" glyph-name="parenleft" d="M85.5 81q-28.5 108 -28.5 229t28.5 229t74.5 197h129q-50 -102 -75 -200t-25 -207v-39q0 -108 25 -206t75 -200h-128q-47 89 -75.5 197z" unicode="("/>
<glyph horiz-adv-x="316" glyph-name="parenright" d="M27 -116q50 103 75 201t25 205v39q0 108 -25 206t-75 201h128q46 -89 74.5 -197t28.5 -229q0 -122 -28.5 -230t-75.5 -196h-127z" unicode=")"/>
<glyph horiz-adv-x="409" glyph-name="asterisk" d="M259 545l127 -64l-34 -60l-121 78l8 -144h-69l8 143l-121 -78l-34 60l127 65l-127 65l34 60l121 -78l-8 144h69l-8 -143l121 78l34 -60z" unicode="*"/>
<glyph glyph-name="plus" d="M517 269h-184v-184h-106v184h-184v106h184v184h106v-184h184v-106z" unicode="+"/>
<glyph horiz-adv-x="242" glyph-name="comma" d="M105 0h-57v136h147v-136l-66 -149h-81z" unicode=","/>
<glyph horiz-adv-x="352" glyph-name="hyphen" d="M41 368h269v-112h-269v112z" unicode="-"/>
<glyph horiz-adv-x="238" glyph-name="period" d="M48 136h142v-136h-142v136z" unicode="."/>
<glyph horiz-adv-x="411" glyph-name="slash" d="M270 710h127l-256 -710h-127z" unicode="/"/>
<glyph glyph-name="zero" d="M95 83.5q-62 97.5 -62 271.5t62 271.5t185 97.5t185 -97.5t62 -271.5t-62 -271.5t-185 -97.5t-185 97.5zM363.5 149q24.5 61 24.5 175v62q0 114 -24.5 175t-83.5 61t-83.5 -61t-24.5 -175v-62q0 -114 24.5 -175t83.5 -61t83.5 61z" unicode="0"/>
<glyph horiz-adv-x="455" glyph-name="one" d="M330 710v-710h-131v545l-151 -123v138l167 150h115z" unicode="1"/>
<glyph glyph-name="two" d="M213.5 150.5q-22.5 -21.5 -39.5 -44.5h333v-106h-461v68q0 22 2 34.5t7 25.5q15 40 50 78t99 91l79 65q44 36 67.5 70t23.5 74v25q0 45 -23 68t-63 23q-46 0 -70.5 -33.5t-28.5 -86.5h-141q6 98 67.5 160t172.5 62q70 0 121 -26.5t77.5 -73t26.5 -106.5 q0 -56 -20.5 -98.5t-51 -72.5t-86.5 -76l-86 -72q-33 -27 -55.5 -48.5z" unicode="2"/>
<glyph glyph-name="three" d="M480.5 302.5q29.5 -42.5 29.5 -104.5q0 -58 -26.5 -106t-78.5 -77t-124 -29q-82 0 -136 29t-79.5 77t-26.5 106h143q6 -56 30.5 -83t69.5 -27q41 0 65 27t24 73v25q0 44 -27 68t-74 24h-57v102h55q42 0 66.5 26.5t24.5 74.5v24q0 42 -21 66t-59 24q-39 0 -62.5 -26 t-30.5 -76h-141q8 85 64.5 144.5t169.5 59.5q68 0 117 -25.5t75 -69.5t26 -99q0 -60 -26.5 -101t-70.5 -63q51 -21 80.5 -63.5z" unicode="3"/>
<glyph glyph-name="four" d="M538 253v-105h-77v-148h-131v148h-293v105l256 457h168v-457h77zM330 253v316l-177 -316h177z" unicode="4"/>
<glyph glyph-name="five" d="M469 398.5q54 -63.5 54 -173.5q0 -68 -27.5 -122t-80.5 -85.5t-127 -31.5q-120 0 -180.5 59.5t-62.5 149.5h145q5 -55 29.5 -81t69.5 -26q43 0 69 33t26 90v25q0 61 -25.5 92.5t-71.5 31.5q-35 0 -60 -18.5t-36 -47.5h-131l41 416h385v-106h-271l-20 -179q47 37 114 37 q106 0 160 -63.5z" unicode="5"/>
<glyph horiz-adv-x="559" glyph-name="six" d="M473.5 389.5q54.5 -61.5 54.5 -164.5q0 -68 -28 -122.5t-80 -85.5t-121 -31q-125 0 -192 91t-67 260q0 183 66 285t195 102q68 0 116.5 -25t74.5 -66.5t29 -92.5h-137q-16 82 -88 82q-59 0 -87.5 -63t-28.5 -151v-20q21 30 57 46.5t82 16.5q100 0 154.5 -61.5zM393 232 q0 55 -27 86t-72 31q-46 0 -73.5 -31.5t-27.5 -86.5v-24q0 -53 27.5 -86t71.5 -33q45 0 73 34t28 87v23z" unicode="6"/>
<glyph glyph-name="seven" d="M509 710v-103l-254 -607h-137l252 604h-320v106h459z" unicode="7"/>
<glyph glyph-name="eight" d="M497.5 311q25.5 -44 25.5 -102q0 -63 -28.5 -113.5t-83.5 -80t-132 -29.5q-76 0 -131 29.5t-83.5 80t-28.5 113.5q0 58 25.5 102.5t73.5 70.5q-39 23 -60 61t-21 87q0 55 28 99.5t79 69.5t118 25q68 0 119 -25t79 -69.5t28 -99.5q0 -100 -81 -148q48 -27 73.5 -71z M192 512q0 -39 24 -63.5t63 -24.5t63.5 25t24.5 63v17q0 45 -22.5 70.5t-65.5 25.5q-42 0 -64.5 -25.5t-22.5 -70.5v-17zM384 219q0 49 -27 80t-78 31t-77.5 -31t-26.5 -80v-19q0 -51 28.5 -82.5t75.5 -31.5q48 0 76.5 31.5t28.5 82.5v19z" unicode="8"/>
<glyph horiz-adv-x="559" glyph-name="nine" d="M452 633q67 -91 67 -260q0 -183 -66.5 -285t-195.5 -102q-68 0 -116 25t-74 66.5t-29 92.5h137q16 -82 88 -82q59 0 87.5 63t28.5 151v20q-21 -30 -57 -46.5t-82 -16.5q-100 0 -154.5 61.5t-54.5 164.5q0 68 28 122.5t80 85.5t121 31q125 0 192 -91zM366 503 q0 53 -27.5 86t-71.5 33q-45 0 -73 -34t-28 -87v-23q0 -55 27 -86t72 -31q46 0 73.5 31.5t27.5 86.5v24z" unicode="9"/>
<glyph horiz-adv-x="266" glyph-name="colon" d="M61 531h143v-136h-143v136zM61 136h143v-136h-143v136z" unicode=":"/>
<glyph horiz-adv-x="271" glyph-name="semicolon" d="M64 531h142v-136h-142v136zM119 0h-58v136h148v-136l-66 -149h-82z" unicode=";"/>
<glyph glyph-name="less" d="M43 261v98l474 212v-117l-333 -144l333 -144v-117z" unicode="&lt;"/>
<glyph glyph-name="equal" d="M43 267h474v-106h-474v106zM43 487h474v-106h-474v106z" unicode="="/>
<glyph glyph-name="greater" d="M43 166l333 144l-333 144v117l474 -212v-98l-474 -212v117z" unicode="&gt;"/>
<glyph horiz-adv-x="500" glyph-name="question" d="M162 234q0 41 16 70.5t57 64.5l46 39q35 30 49 55.5t14 58.5v13q0 40 -22.5 63.5t-64.5 23.5q-87 0 -96 -104h-138q6 92 63 149t168 57t167.5 -54t56.5 -142q0 -62 -26 -105t-91 -101l-31 -28q-18 -17 -23 -36.5t-5 -47.5h-140v24zM161 136h143v-136h-143v136z" unicode="?"/>
<glyph horiz-adv-x="986" glyph-name="at" d="M733 671q101 -51 156 -141.5t55 -207.5q0 -81 -26.5 -145.5t-76.5 -101.5t-117 -37q-63 0 -99 26t-49 65q-24 -44 -65 -67.5t-89 -23.5q-82 0 -123.5 53t-41.5 134q0 77 27.5 143.5t78.5 106.5t116 40q46 0 75 -20t41 -51l11 62h112l-49 -251q-6 -31 -6 -55q0 -78 66 -78 q29 0 54 22t40 62t15 93v48q0 80 -42 145.5t-119.5 103t-178.5 37.5q-103 0 -181.5 -45.5t-121 -122t-42.5 -166.5v-48q0 -86 42.5 -163t121.5 -124t182 -47h145v-89h-145q-137 0 -241 60t-160 162.5t-56 224.5q0 127 56 228.5t159.5 160t240.5 58.5q134 0 235 -51z M510.5 167.5q28.5 32.5 42.5 80t14 90.5q0 38 -17.5 58t-51.5 20q-59 0 -90.5 -57.5t-31.5 -133.5q0 -38 17 -64t49 -26q40 0 68.5 32.5z" unicode="@"/>
<glyph horiz-adv-x="628" glyph-name="A" d="M427 159h-230l-41 -159h-133l195 710h192l195 -710h-137zM400 266l-88 340l-87 -340h175z" unicode="A"/>
<glyph horiz-adv-x="618" glyph-name="B" d="M542.5 309q33.5 -43 33.5 -108q0 -60 -26 -106t-70.5 -70.5t-98.5 -24.5h-306v710h285q51 0 96 -22t73 -64.5t28 -101.5q0 -58 -28 -97t-68 -55q48 -18 81.5 -61zM210 606v-194h117q41 0 68.5 22t27.5 68v17q0 45 -27 66t-69 21h-117zM441 214q0 50 -28.5 73t-71.5 23 h-131v-206h131q43 0 71.5 22.5t28.5 71.5v16z" unicode="B"/>
<glyph horiz-adv-x="643" glyph-name="C" d="M115 84q-73 98 -73 271q0 172 73 270.5t212 98.5q123 0 195 -69t83 -191h-139q-12 77 -45 115t-94 38q-71 0 -107 -59t-36 -167v-72q0 -108 36 -167t107 -59q122 0 141 165h138q-8 -129 -80.5 -200.5t-198.5 -71.5q-139 0 -212 98z" unicode="C"/>
<glyph horiz-adv-x="639" glyph-name="D" d="M524 614q73 -96 73 -259t-73 -259t-208 -96h-241v710h241q135 0 208 -96zM455 392q0 101 -35.5 156.5t-103.5 55.5h-106v-498h106q68 0 103.5 55.5t35.5 156.5v74z" unicode="D"/>
<glyph horiz-adv-x="553" glyph-name="E" d="M210 604v-196h283v-107h-283v-195h300v-106h-435v710h435v-106h-300z" unicode="E"/>
<glyph horiz-adv-x="553" glyph-name="F" d="M210 604v-196h283v-107h-283v-301h-135v710h435v-106h-300z" unicode="F"/>
<glyph horiz-adv-x="648" glyph-name="G" d="M605 381v-94q0 -42 -6 -68q-23 -117 -89.5 -175t-182.5 -58q-139 0 -212 99.5t-73 269.5t73.5 269.5t212.5 99.5q114 0 186.5 -61t86.5 -170h-140q-24 124 -133 124q-72 0 -108 -59.5t-36 -165.5v-74q0 -107 36 -166t110 -59q130 0 144 182h-167v106h298z" unicode="G"/>
<glyph horiz-adv-x="648" glyph-name="H" d="M573 710v-710h-134v301h-229v-301h-135v710h135v-302h229v302h134z" unicode="H"/>
<glyph horiz-adv-x="293" glyph-name="I" d="M79 710h135v-710h-135v710z" unicode="I"/>
<glyph horiz-adv-x="522" glyph-name="J" d="M78.5 41q-53.5 55 -57.5 147h133q6 -95 82 -95q40 0 58.5 28.5t18.5 89.5v500h134v-504q0 -104 -54.5 -162.5t-158.5 -58.5q-102 0 -155.5 55z" unicode="J"/>
<glyph horiz-adv-x="616" glyph-name="K" d="M306 321l-96 -127v-194h-135v710h135v-332l242 332h147l-205 -272l211 -438h-145z" unicode="K"/>
<glyph horiz-adv-x="521" glyph-name="L" d="M75 710h135v-604h268v-106h-403v710z" unicode="L"/>
<glyph horiz-adv-x="802" glyph-name="M" d="M727 710v-710h-131v562l-130 -562h-123l-138 573v-573h-130v710h209l121 -521l118 521h204z" unicode="M"/>
<glyph horiz-adv-x="665" glyph-name="N" d="M590 710v-710h-159l-227 522v-522h-129v710h163l223 -515v515h129z" unicode="N"/>
<glyph horiz-adv-x="656" glyph-name="O" d="M115 83.5q-73 97.5 -73 271.5t73 271.5t213 97.5t213 -97.5t73 -271.5t-73 -271.5t-213 -97.5t-213 97.5zM436.5 152.5q35.5 59.5 35.5 165.5v74q0 106 -35.5 165.5t-108.5 59.5t-108.5 -59.5t-35.5 -165.5v-74q0 -107 35.5 -166t108.5 -59t108.5 59.5z" unicode="O"/>
<glyph horiz-adv-x="606" glyph-name="P" d="M470 682q48 -28 75 -79.5t27 -117.5t-27 -117t-75 -79t-107 -28h-153v-261h-135v710h288q59 0 107 -28zM437 495q0 54 -28 81.5t-74 27.5h-125v-237h125q46 0 74 27.5t28 80.5v20z" unicode="P"/>
<glyph horiz-adv-x="656" glyph-name="Q" d="M582.5 159.5q-31.5 -82.5 -93.5 -126.5l50 -97h-137l-28 53q-21 -3 -46 -3q-140 0 -213 97.5t-73 271.5t73 271.5t213 97.5t213 -97.5t73 -271.5q0 -113 -31.5 -195.5zM217.5 156q33.5 -59 102.5 -63l-62 120h138l35 -69q41 59 41 174v74q0 106 -35.5 165.5t-108.5 59.5 t-108.5 -59.5t-35.5 -165.5v-74q0 -103 33.5 -162z" unicode="Q"/>
<glyph horiz-adv-x="625" glyph-name="R" d="M299 262h-89v-262h-135v710h288q59 0 107 -28t75 -79t27 -118q0 -77 -37 -131t-99 -75l156 -279h-150zM210 368h125q46 0 74 27.5t28 80.5v20q0 53 -28 80.5t-74 27.5h-125v-236z" unicode="R"/>
<glyph horiz-adv-x="577" glyph-name="S" d="M97.5 49.5q-65.5 62.5 -65.5 167.5h137q2 -58 35 -92.5t95 -34.5q48 0 77.5 25t29.5 65v12q0 36 -21.5 57t-66.5 38l-114 44q-86 34 -123.5 76.5t-37.5 117.5q0 59 29 104t82.5 70t123.5 25q124 0 185 -57t62 -146h-136q-3 45 -32.5 72t-81.5 27q-44 0 -70 -23.5 t-26 -56.5v-12q0 -31 20.5 -51t62.5 -36l108 -42q91 -36 131.5 -80.5t40.5 -124.5q0 -61 -28.5 -107.5t-83.5 -73t-133 -26.5q-134 0 -199.5 62.5z" unicode="S"/>
<glyph horiz-adv-x="547" glyph-name="T" d="M205 604h-175v106h487v-106h-177v-604h-135v604z" unicode="T"/>
<glyph horiz-adv-x="638" glyph-name="U" d="M139.5 46q-64.5 60 -64.5 184v480h134v-477q0 -66 24 -102t83 -36h7q57 0 81.5 36.5t24.5 101.5v477h134v-480q0 -124 -65.5 -184t-178.5 -60q-115 0 -179.5 60z" unicode="U"/>
<glyph horiz-adv-x="615" glyph-name="V" d="M592 710l-188 -710h-191l-190 710h137l150 -589l148 589h134z" unicode="V"/>
<glyph horiz-adv-x="864" glyph-name="W" d="M832 710l-129 -710h-172l-100 513l-103 -513h-166l-130 710h134l91 -545l106 545h139l106 -555l93 555h131z" unicode="W"/>
<glyph horiz-adv-x="590" glyph-name="X" d="M425 0l-130 264l-132 -264h-137l190 370l-181 340h139l123 -241l121 241h138l-182 -340l189 -370h-138z" unicode="X"/>
<glyph horiz-adv-x="574" glyph-name="Y" d="M354 282v-282h-135v288l-208 422h136l143 -295l140 295h134z" unicode="Y"/>
<glyph horiz-adv-x="571" glyph-name="Z" d="M525 606l-337 -500h337v-106h-479v107l333 497h-329v106h475v-104z" unicode="Z"/>
<glyph horiz-adv-x="325" glyph-name="bracketleft" d="M75 753h210v-87h-95v-716h95v-87h-210v890z" unicode="["/>
<glyph horiz-adv-x="411" glyph-name="backslash" d="M270 0l-256 710h127l256 -710h-127z" unicode="\"/>
<glyph horiz-adv-x="325" glyph-name="bracketright" d="M40 -137v87h95v716h-95v87h211v-890h-211z" unicode="]"/>
<glyph glyph-name="asciicircum" d="M226 710h107l192 -430h-112l-132 309l-141 -309h-105z" unicode="^"/>
<glyph horiz-adv-x="462" glyph-name="underscore" d="M27 -105h408v-95h-408v95z" unicode="_"/>
<glyph horiz-adv-x="286" glyph-name="grave" d="M130 611l-82 135h146l44 -135h-108z" unicode="`"/>
<glyph horiz-adv-x="520" glyph-name="a" d="M406.5 499q50.5 -46 50.5 -124v-375h-121v58q-17 -33 -49 -52t-79 -19q-74 0 -121 42.5t-47 120.5q0 81 52.5 124.5t149.5 43.5h87v56q0 80 -70 80q-33 0 -50.5 -19t-19.5 -51h-131q4 76 58.5 118.5t143.5 42.5q96 0 146.5 -46zM306 106.5q23 24.5 23 73.5v52h-85 q-34 0 -56 -18t-22 -50v-15q0 -33 21.5 -50t55.5 -17q40 0 63 24.5z" unicode="a"/>
<glyph horiz-adv-x="547" glyph-name="b" d="M457.5 470.5q50.5 -74.5 50.5 -204.5t-50.5 -205t-144.5 -75q-80 0 -125 65v-51h-121v736h128v-247q45 56 118 56q94 0 144.5 -74.5zM376 287q0 158 -93 158q-44 0 -67 -30.5t-23 -90.5v-116q0 -59 23 -90.5t67 -31.5q45 0 69 40t24 119v42z" unicode="b"/>
<glyph horiz-adv-x="511" glyph-name="c" d="M96.5 62q-57.5 76 -57.5 203q0 126 58 203t163 77q92 0 149 -52.5t64 -145.5h-128q-7 50 -27 73.5t-59 23.5q-88 0 -88 -155v-47q0 -77 22.5 -116t65.5 -39q40 0 60 25t28 81h128q-10 -102 -65 -154.5t-150 -52.5q-106 0 -163.5 76z" unicode="c"/>
<glyph horiz-adv-x="547" glyph-name="d" d="M480 736v-736h-121v51q-48 -65 -126 -65q-93 0 -143.5 75t-50.5 205t50.5 204.5t143.5 74.5q74 0 119 -56v247h128zM331 117.5q23 31.5 23 90.5v116q0 121 -91 121q-92 0 -92 -158v-42q0 -79 23.5 -119t68.5 -40t68 31.5z" unicode="d"/>
<glyph horiz-adv-x="530" glyph-name="e" d="M491 234h-323q1 -78 27 -113.5t74 -35.5q35 0 56.5 17.5t31.5 57.5h126q-17 -85 -72.5 -129t-144.5 -44q-109 0 -168 76t-59 202q0 127 59.5 203.5t167.5 76.5q89 0 143.5 -47t74.5 -133q7 -34 7 -71v-60zM198.5 416q-25.5 -32 -29.5 -96h197q-7 128 -99 128 q-43 0 -68.5 -32z" unicode="e"/>
<glyph horiz-adv-x="322" glyph-name="f" d="M232 623.5q-12 -16.5 -12 -64.5v-28h85v-91h-85v-440h-128v440h-71v91h71v35q0 94 36.5 134t120.5 40q34 0 56 -4v-96h-27q-34 0 -46 -16.5z" unicode="f"/>
<glyph horiz-adv-x="542" glyph-name="g" d="M480 531v-512q0 -99 -54.5 -152t-161.5 -53q-100 0 -155.5 42t-57.5 120h128q2 -32 24.5 -51.5t62.5 -19.5q46 0 66 25.5t20 82.5v53q-45 -53 -119 -53q-93 1 -143.5 72t-50.5 194q0 124 50.5 195t143.5 71q78 0 125 -60v46h122zM330.5 141.5q23.5 28.5 23.5 80.5v116 q0 51 -23 79t-68 28t-68.5 -36.5t-23.5 -107.5v-42q0 -72 23.5 -109t68.5 -37q44 0 67.5 28.5z" unicode="g"/>
<glyph horiz-adv-x="542" glyph-name="h" d="M438 496.5q42 -48.5 42 -136.5v-360h-128v328q0 62 -19.5 86t-58.5 24t-59 -24t-20 -86v-328h-128v736h128v-260q17 32 50 50.5t80 18.5q71 0 113 -48.5z" unicode="h"/>
<glyph horiz-adv-x="261" glyph-name="i" d="M67 531h128v-531h-128v531zM67 736h128v-116h-128v116z" unicode="i"/>
<glyph horiz-adv-x="261" glyph-name="j" d="M67 736h128v-116h-128v116zM20 -172v98h8q23 0 31 17t8 63v525h128v-531q0 -95 -31.5 -134.5t-105.5 -39.5q-20 0 -38 2z" unicode="j"/>
<glyph horiz-adv-x="517" glyph-name="k" d="M255 222l-60 -76v-146h-128v736h128v-422l165 217h139l-162 -206l171 -324h-138z" unicode="k"/>
<glyph horiz-adv-x="261" glyph-name="l" d="M67 736h128v-736h-128v736z" unicode="l"/>
<glyph horiz-adv-x="803" glyph-name="m" d="M698 497q42 -48 42 -137v-360h-128v328q0 63 -17 86.5t-55 23.5q-36 0 -54.5 -24t-18.5 -86v-328h-128v328q0 63 -17 86.5t-55 23.5q-36 0 -54 -24t-18 -86v-328h-128v531h121v-68q14 37 48 59.5t83 22.5q46 0 79 -20.5t50 -60.5q18 37 52 59t83 22q73 0 115 -48z" unicode="m"/>
<glyph horiz-adv-x="542" glyph-name="n" d="M438 496.5q42 -48.5 42 -136.5v-360h-128v328q0 62 -19.5 86t-58.5 24t-59 -24t-20 -86v-328h-128v531h121v-69q15 37 50 60t87 23q71 0 113 -48.5z" unicode="n"/>
<glyph horiz-adv-x="538" glyph-name="o" d="M98.5 62q-59.5 76 -59.5 203t59.5 203.5t170.5 76.5q110 0 170 -76.5t60 -203.5t-60 -203t-170 -76q-111 0 -170.5 76zM342.5 125q24.5 38 24.5 117v47q0 79 -24.5 117t-73.5 38t-73.5 -38t-24.5 -117v-47q0 -79 24.5 -117t73.5 -38t73.5 38z" unicode="o"/>
<glyph horiz-adv-x="547" glyph-name="p" d="M457.5 470.5q50.5 -74.5 50.5 -204.5t-50.5 -205t-144.5 -75q-73 0 -118 56v-214h-128v703h121v-51q45 65 125 65q94 0 144.5 -74.5zM376 287q0 158 -93 158q-44 0 -67 -30.5t-23 -90.5v-116q0 -59 23 -90.5t67 -31.5q45 0 69 40t24 119v42z" unicode="p"/>
<glyph horiz-adv-x="547" glyph-name="q" d="M480 531v-703h-128v214q-45 -56 -119 -56q-93 0 -143.5 75t-50.5 205t50.5 204.5t143.5 74.5q78 0 126 -65v51h121zM331 117.5q23 31.5 23 90.5v116q0 121 -91 121q-92 0 -92 -158v-42q0 -79 23.5 -119t68.5 -40t68 31.5z" unicode="q"/>
<glyph horiz-adv-x="381" glyph-name="r" d="M361 531v-122h-39q-72 0 -99.5 -41t-27.5 -133v-235h-128v531h121v-107q13 49 46 80.5t84 31.5q25 0 43 -5z" unicode="r"/>
<glyph horiz-adv-x="492" glyph-name="s" d="M91 34q-56 48 -56 129h126q2 -40 25 -62.5t66 -22.5q36 0 56.5 16t20.5 45v9q0 23 -13.5 35.5t-47.5 23.5l-85 25q-73 23 -106.5 56.5t-33.5 93.5q0 46 23 82.5t67 58t106 21.5q102 0 153.5 -46.5t53.5 -116.5h-127q-2 33 -22.5 52.5t-58.5 19.5q-32 0 -51 -16t-19 -41 v-9q0 -22 15.5 -35t45.5 -21l81 -24q73 -22 108.5 -57.5t35.5 -98.5q0 -78 -56 -121.5t-149 -43.5q-102 0 -158 48z" unicode="s"/>
<glyph horiz-adv-x="335" glyph-name="t" d="M220 440v-276q0 -39 15.5 -54.5t52.5 -15.5h17v-94q-26 -4 -58 -4q-84 0 -119.5 38.5t-35.5 131.5v274h-71v91h71v134h128v-134h85v-91h-85z" unicode="t"/>
<glyph horiz-adv-x="538" glyph-name="u" d="M471 531v-531h-121v68q-14 -37 -46.5 -59t-83.5 -22q-72 0 -114.5 46t-42.5 133v365h128v-329q0 -60 18.5 -84.5t56.5 -24.5t57.5 24.5t19.5 84.5v329h128z" unicode="u"/>
<glyph horiz-adv-x="497" glyph-name="v" d="M476 531l-155 -531h-145l-155 531h131l99 -378l98 378h127z" unicode="v"/>
<glyph horiz-adv-x="738" glyph-name="w" d="M714 531l-125 -531h-147l-72 353l-73 -353h-149l-124 531h132l74 -390l77 390h127l77 -383l77 383h126z" unicode="w"/>
<glyph horiz-adv-x="502" glyph-name="x" d="M338 0l-91 198l-92 -198h-128l140 277l-132 254h135l81 -178l81 178h134l-130 -254l139 -277h-137z" unicode="x"/>
<glyph horiz-adv-x="487" glyph-name="y" d="M466 531l-215 -703h-122l54 177l-162 526h129l95 -341l97 341h124z" unicode="y"/>
<glyph horiz-adv-x="483" glyph-name="z" d="M435 434l-239 -334h239v-100h-388v96l239 335h-229v100h378v-97z" unicode="z"/>
<glyph horiz-adv-x="335" glyph-name="braceleft" d="M196 348.5q-13 -29.5 -50 -38.5v-4q37 -9 50 -38.5t13 -83.5v-151q0 -46 11.5 -64.5t38.5 -18.5h37v-87h-89q-59 0 -87 38.5t-28 129.5v150q0 45 -13 64t-40 19v88q27 0 40 19t13 64v150q0 91 28 129.5t87 38.5h89v-87h-37q-27 0 -38.5 -18.5t-11.5 -64.5v-151 q0 -54 -13 -83.5z" unicode="{"/>
<glyph horiz-adv-x="346" glyph-name="bar" d="M112 800h122v-940h-122v940z" unicode="|"/>
<glyph horiz-adv-x="335" glyph-name="braceright" d="M127 583q0 46 -11.5 64.5t-39.5 18.5h-36v87h88q59 0 87 -38.5t28 -129.5v-150q0 -45 13 -64t40 -19v-88q-27 0 -40 -19t-13 -64v-150q0 -91 -28 -129.5t-87 -38.5h-88v87h36q28 0 39.5 18.5t11.5 64.5v151q0 54 13 83.5t49 38.5v4q-36 9 -49 38.5t-13 83.5v151z" unicode="}"/>
<glyph glyph-name="asciitilde" d="M328 273.5q-30 10.5 -71 30.5q-29 14 -46.5 21t-32.5 7q-20 0 -30 -18.5t-12 -47.5h-81q1 80 33.5 121t82.5 41q34 0 63 -10.5t69 -30.5q27 -14 45.5 -21t34.5 -7q35 0 40 66h82q-1 -79 -33.5 -120.5t-81.5 -41.5q-32 0 -62 10.5z" unicode="~"/>
<glyph horiz-adv-x="213" glyph-name="uni00A0" unicode=" "/>
<glyph horiz-adv-x="292" glyph-name="exclamdown" d="M217 395h-142v136h142v-136zM214 75v-254h-135v254l20 244h95z" unicode="¡"/>
<glyph glyph-name="cent" d="M442 47.5q-47 -51.5 -128 -59.5v-84h-61v84q-92 11 -141.5 85.5t-49.5 191.5t49.5 192t141.5 86v88h61v-88q79 -8 127 -59.5t55 -136.5h-128q-5 39 -18 61.5t-36 30.5v-347q24 9 37 33t19 68h128q-9 -94 -56 -145.5zM253 92v347q-59 -23 -59 -150v-47q0 -125 59 -150z " unicode="¢"/>
<glyph glyph-name="sterling" d="M215.5 163q-19.5 -34 -49.5 -57h355v-106h-476v98q29 14 50.5 47.5t21.5 80.5q0 33 -6 61h-76v87h52q-19 67 -19 120q0 63 27 115.5t78.5 83.5t122.5 31q75 0 125.5 -31.5t76 -79.5t29.5 -97h-137q-5 45 -27 75.5t-68 30.5q-45 0 -68.5 -34.5t-23.5 -88.5v-17 q0 -44 15 -108h161v-87h-146q2 -30 2 -49q0 -41 -19.5 -75z" unicode="£"/>
<glyph glyph-name="yen" d="M377 379h90v-69h-124v-65h124v-69h-124v-176h-128v176h-121v69h121v65h-121v69h92l-166 331h138l125 -268l125 268h133z" unicode="¥"/>
<glyph horiz-adv-x="532" glyph-name="section" d="M446 82q14 -29 14 -69q0 -45 -21 -84t-64.5 -63t-106.5 -24q-100 0 -150 49t-53 122h129q2 -36 21.5 -57t53.5 -21q29 0 48 18.5t19 47.5v5q0 25 -16.5 42.5t-51.5 31.5l-91 35q-73 29 -107.5 66.5t-34.5 98.5q0 50 24.5 89t68.5 60q-31 23 -45 52t-14 68q0 45 21 83.5 t64.5 62.5t106.5 24q100 0 150 -48.5t54 -121.5h-130q-2 36 -21.5 57t-53.5 21q-29 0 -48 -18.5t-19 -47.5v-5q0 -25 16.5 -42.5t51.5 -31.5l91 -35q73 -29 107.5 -66.5t34.5 -98.5q0 -50 -24.5 -89t-68.5 -60q31 -22 45 -51zM310 178q4 -2 7 -2q25 8 39.5 30.5t14.5 53.5v5 q0 31 -18 52.5t-62 38.5l-72 27l-7 3q-24 -10 -39 -32.5t-15 -52.5v-5q0 -31 18 -52t62 -38z" unicode="§"/>
<glyph horiz-adv-x="389" glyph-name="dieresis" d="M48 736h115v-116h-115v116zM226 736h115v-116h-115v116z" unicode="¨"/>
<glyph horiz-adv-x="829" glyph-name="copyright" d="M222.5 33.5q-84.5 46.5 -132.5 130t-48 191.5t48 191.5t132.5 130t192.5 46.5q107 0 191.5 -46.5t132.5 -130t48 -191.5t-47.5 -191.5t-132 -130t-192.5 -46.5t-192.5 46.5zM571.5 87.5q69.5 38.5 109 108t39.5 159.5q0 89 -39.5 159t-109 108.5t-156.5 38.5 q-88 0 -157.5 -38.5t-109 -108t-39.5 -159.5t39.5 -159.5t109 -108t157.5 -38.5q87 0 156.5 38.5zM309 168.5q-47 27.5 -73 76t-26 110.5t26 110.5t73 76t109 27.5q71 0 127 -34.5t65 -105.5h-88q-11 29 -37.5 48.5t-67.5 19.5q-55 0 -87 -37.5t-32 -104.5q0 -66 33 -104 t86 -38q45 0 67.5 19.5t37.5 57.5h88q-11 -75 -64.5 -112t-127.5 -37q-62 0 -109 27.5z" unicode="©"/>
<glyph horiz-adv-x="551" glyph-name="guillemotleft" d="M169 45l-129 228l129 228h131l-128 -228l128 -228h-131zM379 45l-129 228l129 228h132l-129 -228l129 -228h-132z" unicode="«"/>
<glyph horiz-adv-x="519" glyph-name="registered" d="M372.5 694.5q50.5 -28.5 79 -78.5t28.5 -112t-28.5 -112t-79 -78.5t-112.5 -28.5t-112.5 28.5t-79.5 78.5t-29 112t29 112t79.5 78.5t112.5 28.5t112.5 -28.5zM384.5 376.5q47.5 49.5 47.5 127.5t-47.5 127.5t-124.5 49.5q-51 0 -90.5 -22.5t-61.5 -63t-22 -91.5 t22 -91.5t61.5 -63t90.5 -22.5q77 0 124.5 49.5zM350.5 505.5q-12.5 -17.5 -34.5 -24.5l56 -80h-61l-48 73h-38v-73h-55v217h115q35 0 56.5 -21t21.5 -51q0 -23 -12.5 -40.5zM225 516h50q15 0 24 8t9 21v3q0 13 -8.5 20.5t-24.5 7.5h-50v-60z" unicode="®"/>
<glyph horiz-adv-x="349" glyph-name="macron" d="M48 718h254v-90h-254v90z" unicode="¯"/>
<glyph horiz-adv-x="390" glyph-name="degree" d="M116.5 435q-35.5 21 -56.5 56.5t-21 77.5t21 77.5t56.5 56.5t77.5 21q43 0 79 -21t57 -56.5t21 -77.5t-21 -77.5t-56.5 -56.5t-78.5 -21t-78.5 21zM254 510q24 24 24 59t-24 59t-59 24q-36 0 -60 -24t-24 -59t24 -59t60 -24q35 0 59 24z" unicode="°"/>
<glyph glyph-name="plusminus" d="M43 132h474v-106h-474v106zM517 369h-184v-184h-106v184h-184v106h184v184h106v-184h184v-106z" unicode="±"/>
<glyph horiz-adv-x="361" glyph-name="uni00B2" d="M156.5 489.5q-17.5 -14.5 -29.5 -27.5h196v-72h-287v47q0 23 6 39q10 24 31.5 46t62.5 55l41 33q53 43 53 83v14q0 24 -11.5 36t-30.5 12q-23 0 -36.5 -18.5t-15.5 -47.5h-99q4 61 42 98t108 37q65 0 103 -34.5t38 -90.5q0 -34 -12.5 -59t-31 -43t-56.5 -48l-48 -40 q-6 -5 -23.5 -19.5z" unicode="²"/>
<glyph horiz-adv-x="341" glyph-name="uni00B3" d="M304 574q18 -25 18 -62q0 -55 -37.5 -92t-104.5 -37q-77 0 -114 37.5t-36 92.5h100q4 -31 16 -46t34 -15q20 0 32.5 15t12.5 39v14q0 24 -15 36.5t-41 12.5h-34v70h33q23 0 36 14.5t13 40.5v14q0 22 -10.5 35t-28.5 13q-19 0 -31 -14t-16 -42h-99q5 53 39.5 89t106.5 36 q63 0 99.5 -33t36.5 -83q0 -35 -16 -59.5t-43 -37.5q31 -13 49 -38z" unicode="³"/>
<glyph horiz-adv-x="286" glyph-name="acute" d="M92 746h146l-82 -135h-108z" unicode="´"/>
<glyph horiz-adv-x="573" glyph-name="paragraph" d="M258 250h-64q-45 0 -79.5 29.5t-53.5 82t-19 119.5t19 119t53.5 81t79.5 29h159v-810h-95v350zM405 710h94v-810h-94v810z" unicode="¶"/>
<glyph horiz-adv-x="238" glyph-name="periodcentered" d="M48 395h142v-136h-142v136z" unicode="·"/>
<glyph horiz-adv-x="281" glyph-name="cedilla" d="M210.5 -62.5q23.5 -19.5 23.5 -53.5q0 -41 -28.5 -63t-65.5 -22q-27 0 -52.5 8t-39.5 22l24 48q30 -22 65 -22q36 0 36 27q0 26 -41 26h-20l-28 26l37 97l49 -16l-21 -55q38 -3 61.5 -22.5z" unicode="¸"/>
<glyph horiz-adv-x="286" glyph-name="uni00B9" d="M215 810v-426h-91v313l-89 -70v96l99 87h81z" unicode="¹"/>
<glyph horiz-adv-x="552" glyph-name="guillemotright" d="M168 273l-128 228h132l128 -228l-128 -228h-132zM380 273l-129 228h132l129 -228l-129 -228h-132z" unicode="»"/>
<glyph horiz-adv-x="834" glyph-name="onequarter" d="M215 710v-426h-91v313l-89 -70v96l99 87h81zM562 710h89l-400 -710h-89zM789 158v-71h-43v-87h-92v87h-170v71l146 268h116v-268h43zM654 158v168l-92 -168h92z" unicode="¼"/>
<glyph horiz-adv-x="837" glyph-name="onehalf" d="M215 710v-426h-91v313l-89 -70v96l99 87h81zM562 710h89l-400 -710h-89zM632.5 99.5q-17.5 -14.5 -29.5 -27.5h196v-72h-287v47q0 23 6 39q10 24 31.5 46t62.5 55l41 33q53 43 53 83v14q0 24 -11.5 36t-30.5 12q-23 0 -36.5 -18.5t-15.5 -47.5h-99q4 61 42 98t108 37 q65 0 103 -34.5t38 -90.5q0 -34 -12.5 -59t-31 -43t-56.5 -48l-48 -40q-6 -5 -23.5 -19.5z" unicode="½"/>
<glyph horiz-adv-x="889" glyph-name="threequarters" d="M304 473q18 -25 18 -62q0 -55 -37.5 -92t-104.5 -37q-77 0 -114 37.5t-36 92.5h100q4 -31 16 -46t34 -15q20 0 32.5 15t12.5 39v14q0 24 -15 36.5t-41 12.5h-34v70h33q23 0 36 14.5t13 40.5v14q0 22 -10.5 35t-28.5 13q-19 0 -31 -14t-16 -42h-99q5 53 39.5 89t106.5 36 q63 0 99.5 -33t36.5 -83q0 -35 -16 -59.5t-43 -37.5q31 -13 49 -38zM617 710h89l-400 -710h-89zM844 158v-71h-43v-87h-92v87h-170v71l146 268h116v-268h43zM709 158v168l-92 -168h92z" unicode="¾"/>
<glyph horiz-adv-x="500" glyph-name="questiondown" d="M339 395h-143v136h143v-136zM338 298q0 -42 -15.5 -71.5t-57.5 -64.5l-45 -38q-36 -30 -50 -55.5t-14 -59.5v-12q0 -40 22.5 -63.5t64.5 -23.5q87 0 96 103h139q-6 -92 -63.5 -149t-168.5 -57t-167 54.5t-56 142.5q0 62 26 105t90 100l31 29q19 17 23.5 36.5t4.5 47.5 h140v-24z" unicode="¿"/>
<glyph horiz-adv-x="628" glyph-name="Agrave" d="M427 159h-230l-41 -159h-133l195 710h192l195 -710h-137zM400 266l-88 340l-87 -340h175zM263 790l-82 135h146l44 -135h-108z" unicode="À"/>
<glyph horiz-adv-x="628" glyph-name="Aacute" d="M427 159h-230l-41 -159h-133l195 710h192l195 -710h-137zM400 266l-88 340l-87 -340h175zM302 925h146l-82 -135h-108z" unicode="Á"/>
<glyph horiz-adv-x="628" glyph-name="Acircumflex" d="M427 159h-230l-41 -159h-133l195 710h192l195 -710h-137zM400 266l-88 340l-87 -340h175zM368 790l-55 85l-55 -85h-94l66 135h166l66 -135h-94z" unicode="Â"/>
<glyph horiz-adv-x="628" glyph-name="Atilde" d="M427 159h-230l-41 -159h-133l195 710h192l195 -710h-137zM400 266l-88 340l-87 -340h175zM342 798.5q-16 6.5 -37 17.5q-11 7 -22.5 12t-20.5 5q-14 0 -21.5 -9.5t-8.5 -31.5h-56q0 59 22.5 88.5t58.5 29.5q20 0 36 -6.5t36 -18.5q14 -8 24 -12.5t19 -4.5q13 0 19 10 t6 32h57q0 -60 -20.5 -89t-56.5 -29q-19 0 -35 6.5z" unicode="Ã"/>
<glyph horiz-adv-x="628" glyph-name="Adieresis" d="M427 159h-230l-41 -159h-133l195 710h192l195 -710h-137zM400 266l-88 340l-87 -340h175zM167 915h115v-116h-115v116zM345 915h115v-116h-115v116z" unicode="Ä"/>
<glyph horiz-adv-x="628" glyph-name="Aring" d="M427 159h-230l-41 -159h-133l194 705q-44 37 -44 97q0 58 40 94t101 36t101.5 -36t40.5 -94q0 -60 -45 -97l194 -705h-137zM248 797q0 -28 19 -45t47 -17q27 0 46.5 17t19.5 45v10q0 28 -19.5 44.5t-46.5 16.5q-28 0 -47 -16.5t-19 -44.5v-10zM400 266l-88 340l-87 -340 h175z" unicode="Å"/>
<glyph horiz-adv-x="854" glyph-name="AE" d="M509 604v-196h284v-107h-284v-195h301v-106h-435v159h-172l-60 -159h-135l277 710h525v-106h-301zM375 266v344l-131 -344h131z" unicode="Æ"/>
<glyph horiz-adv-x="643" glyph-name="Ccedilla" d="M530.5 63q-67.5 -71 -184.5 -77l-11 -26q38 -3 61.5 -22.5t23.5 -53.5q0 -41 -28.5 -63t-65.5 -22q-27 0 -52.5 8t-39.5 22l24 48q30 -22 65 -22q36 0 36 27q0 26 -41 26h-20l-28 26l21 54q-122 13 -185.5 109.5t-63.5 257.5q0 172 73 270.5t212 98.5q123 0 195 -69 t83 -191h-139q-12 77 -45 115t-94 38q-71 0 -107 -59t-36 -167v-72q0 -108 36 -167t107 -59q122 0 141 165h138q-8 -124 -75.5 -195z" unicode="Ç"/>
<glyph horiz-adv-x="553" glyph-name="Egrave" d="M210 604v-196h283v-107h-283v-195h300v-106h-435v710h435v-106h-300zM251 790l-82 135h146l44 -135h-108z" unicode="È"/>
<glyph horiz-adv-x="553" glyph-name="Eacute" d="M210 604v-196h283v-107h-283v-195h300v-106h-435v710h435v-106h-300zM290 925h146l-82 -135h-108z" unicode="É"/>
<glyph horiz-adv-x="553" glyph-name="Ecircumflex" d="M210 604v-196h283v-107h-283v-195h300v-106h-435v710h435v-106h-300zM356 790l-55 85l-55 -85h-94l66 135h166l66 -135h-94z" unicode="Ê"/>
<glyph horiz-adv-x="553" glyph-name="Edieresis" d="M210 604v-196h283v-107h-283v-195h300v-106h-435v710h435v-106h-300zM155 915h115v-116h-115v116zM333 915h115v-116h-115v116z" unicode="Ë"/>
<glyph horiz-adv-x="293" glyph-name="Igrave" d="M79 710h135v-710h-135v710zM95 790l-82 135h146l44 -135h-108z" unicode="Ì"/>
<glyph horiz-adv-x="293" glyph-name="Iacute" d="M79 710h135v-710h-135v710zM134 925h146l-82 -135h-108z" unicode="Í"/>
<glyph horiz-adv-x="293" glyph-name="Icircumflex" d="M79 710h135v-710h-135v710zM200 790l-55 85l-55 -85h-94l66 135h166l66 -135h-94z" unicode="Î"/>
<glyph horiz-adv-x="293" glyph-name="Idieresis" d="M79 710h135v-710h-135v710zM-1 915h115v-116h-115v116zM177 915h115v-116h-115v116z" unicode="Ï"/>
<glyph horiz-adv-x="711" glyph-name="Eth" d="M596 614q73 -96 73 -259t-73 -259t-208 -96h-242v304h-71v103h71v303h242q135 0 208 -96zM527 392q0 101 -35.5 156.5t-103.5 55.5h-107v-197h102v-103h-102v-198h107q68 0 103.5 55.5t35.5 156.5v74z" unicode="Ð"/>
<glyph horiz-adv-x="665" glyph-name="Ntilde" d="M590 710v-710h-159l-227 522v-522h-129v710h163l223 -515v515h129zM361 798.5q-16 6.5 -37 17.5q-11 7 -22.5 12t-20.5 5q-14 0 -21.5 -9.5t-8.5 -31.5h-56q0 59 22.5 88.5t58.5 29.5q20 0 36 -6.5t36 -18.5q14 -8 24 -12.5t19 -4.5q13 0 19 10t6 32h57q0 -60 -20.5 -89 t-56.5 -29q-19 0 -35 6.5z" unicode="Ñ"/>
<glyph horiz-adv-x="656" glyph-name="Ograve" d="M115 83.5q-73 97.5 -73 271.5t73 271.5t213 97.5t213 -97.5t73 -271.5t-73 -271.5t-213 -97.5t-213 97.5zM436.5 152.5q35.5 59.5 35.5 165.5v74q0 106 -35.5 165.5t-108.5 59.5t-108.5 -59.5t-35.5 -165.5v-74q0 -107 35.5 -166t108.5 -59t108.5 59.5zM277 790l-82 135 h146l44 -135h-108z" unicode="Ò"/>
<glyph horiz-adv-x="656" glyph-name="Oacute" d="M115 83.5q-73 97.5 -73 271.5t73 271.5t213 97.5t213 -97.5t73 -271.5t-73 -271.5t-213 -97.5t-213 97.5zM436.5 152.5q35.5 59.5 35.5 165.5v74q0 106 -35.5 165.5t-108.5 59.5t-108.5 -59.5t-35.5 -165.5v-74q0 -107 35.5 -166t108.5 -59t108.5 59.5zM316 925h146 l-82 -135h-108z" unicode="Ó"/>
<glyph horiz-adv-x="656" glyph-name="Ocircumflex" d="M115 83.5q-73 97.5 -73 271.5t73 271.5t213 97.5t213 -97.5t73 -271.5t-73 -271.5t-213 -97.5t-213 97.5zM436.5 152.5q35.5 59.5 35.5 165.5v74q0 106 -35.5 165.5t-108.5 59.5t-108.5 -59.5t-35.5 -165.5v-74q0 -107 35.5 -166t108.5 -59t108.5 59.5zM382 790l-55 85 l-55 -85h-94l66 135h166l66 -135h-94z" unicode="Ô"/>
<glyph horiz-adv-x="656" glyph-name="Otilde" d="M115 83.5q-73 97.5 -73 271.5t73 271.5t213 97.5t213 -97.5t73 -271.5t-73 -271.5t-213 -97.5t-213 97.5zM436.5 152.5q35.5 59.5 35.5 165.5v74q0 106 -35.5 165.5t-108.5 59.5t-108.5 -59.5t-35.5 -165.5v-74q0 -107 35.5 -166t108.5 -59t108.5 59.5zM356 798.5 q-16 6.5 -37 17.5q-11 7 -22.5 12t-20.5 5q-14 0 -21.5 -9.5t-8.5 -31.5h-56q0 59 22.5 88.5t58.5 29.5q20 0 36 -6.5t36 -18.5q14 -8 24 -12.5t19 -4.5q13 0 19 10t6 32h57q0 -60 -20.5 -89t-56.5 -29q-19 0 -35 6.5z" unicode="Õ"/>
<glyph horiz-adv-x="656" glyph-name="Odieresis" d="M115 83.5q-73 97.5 -73 271.5t73 271.5t213 97.5t213 -97.5t73 -271.5t-73 -271.5t-213 -97.5t-213 97.5zM436.5 152.5q35.5 59.5 35.5 165.5v74q0 106 -35.5 165.5t-108.5 59.5t-108.5 -59.5t-35.5 -165.5v-74q0 -107 35.5 -166t108.5 -59t108.5 59.5zM181 915h115v-116 h-115v116zM359 915h115v-116h-115v116z" unicode="Ö"/>
<glyph glyph-name="multiply" d="M354 322l131 -131l-74 -74l-131 131l-131 -131l-74 74l131 131l-131 131l74 74l131 -131l131 131l74 -74z" unicode="×"/>
<glyph horiz-adv-x="656" glyph-name="Oslash" d="M547 617q67 -94 67 -262q0 -174 -73 -271.5t-213 -97.5q-89 0 -154 42l-26 -42h-106l67 106q-67 97 -67 263q0 174 73 271.5t213 97.5q89 0 154 -42l26 42h107zM192 224l226 358q-35 35 -90 35q-73 0 -108.5 -59.5t-35.5 -165.5v-74q0 -49 8 -94zM464 485l-226 -357 q33 -35 90 -35q73 0 108.5 59.5t35.5 165.5v74q0 48 -8 93z" unicode="Ø"/>
<glyph horiz-adv-x="638" glyph-name="Ugrave" d="M139.5 46q-64.5 60 -64.5 184v480h134v-477q0 -66 24 -102t83 -36h7q57 0 81.5 36.5t24.5 101.5v477h134v-480q0 -124 -65.5 -184t-178.5 -60q-115 0 -179.5 60zM268 790l-82 135h146l44 -135h-108z" unicode="Ù"/>
<glyph horiz-adv-x="638" glyph-name="Uacute" d="M139.5 46q-64.5 60 -64.5 184v480h134v-477q0 -66 24 -102t83 -36h7q57 0 81.5 36.5t24.5 101.5v477h134v-480q0 -124 -65.5 -184t-178.5 -60q-115 0 -179.5 60zM307 925h146l-82 -135h-108z" unicode="Ú"/>
<glyph horiz-adv-x="638" glyph-name="Ucircumflex" d="M139.5 46q-64.5 60 -64.5 184v480h134v-477q0 -66 24 -102t83 -36h7q57 0 81.5 36.5t24.5 101.5v477h134v-480q0 -124 -65.5 -184t-178.5 -60q-115 0 -179.5 60zM373 790l-55 85l-55 -85h-94l66 135h166l66 -135h-94z" unicode="Û"/>
<glyph horiz-adv-x="638" glyph-name="Udieresis" d="M139.5 46q-64.5 60 -64.5 184v480h134v-477q0 -66 24 -102t83 -36h7q57 0 81.5 36.5t24.5 101.5v477h134v-480q0 -124 -65.5 -184t-178.5 -60q-115 0 -179.5 60zM172 915h115v-116h-115v116zM350 915h115v-116h-115v116z" unicode="Ü"/>
<glyph horiz-adv-x="574" glyph-name="Yacute" d="M354 282v-282h-135v288l-208 422h136l143 -295l140 295h134zM275 925h146l-82 -135h-108z" unicode="Ý"/>
<glyph horiz-adv-x="606" glyph-name="Thorn" d="M470 563q48 -29 75 -81t27 -120q0 -67 -27 -119t-75 -81t-107 -29h-153v-133h-135v710h135v-118h153q59 0 107 -29zM437 372q0 56 -28 85t-74 29h-125v-247h125q46 0 74 29t28 84v20z" unicode="Þ"/>
<glyph horiz-adv-x="548" glyph-name="germandbls" d="M471.5 329.5q28.5 -44.5 28.5 -110.5q0 -101 -56.5 -160.5t-161.5 -59.5q-24 0 -44 2v100h40q40 0 65.5 30.5t25.5 79.5v20q0 45 -26 73.5t-66 28.5h-34v100h31q35 0 57 24.5t22 69.5v21q0 44 -20.5 68t-57.5 24q-36 0 -58 -29.5t-22 -78.5v-532h-128v536q0 89 52 147.5 t155 58.5q100 0 152 -53.5t52 -139.5q0 -56 -23.5 -95t-62.5 -60q51 -20 79.5 -64.5z" unicode="ß"/>
<glyph horiz-adv-x="520" glyph-name="agrave" d="M406.5 499q50.5 -46 50.5 -124v-375h-121v58q-17 -33 -49 -52t-79 -19q-74 0 -121 42.5t-47 120.5q0 81 52.5 124.5t149.5 43.5h87v56q0 80 -70 80q-33 0 -50.5 -19t-19.5 -51h-131q4 76 58.5 118.5t143.5 42.5q96 0 146.5 -46zM306 106.5q23 24.5 23 73.5v52h-85 q-34 0 -56 -18t-22 -50v-15q0 -33 21.5 -50t55.5 -17q40 0 63 24.5zM214 611l-82 135h146l44 -135h-108z" unicode="à"/>
<glyph horiz-adv-x="520" glyph-name="aacute" d="M406.5 499q50.5 -46 50.5 -124v-375h-121v58q-17 -33 -49 -52t-79 -19q-74 0 -121 42.5t-47 120.5q0 81 52.5 124.5t149.5 43.5h87v56q0 80 -70 80q-33 0 -50.5 -19t-19.5 -51h-131q4 76 58.5 118.5t143.5 42.5q96 0 146.5 -46zM306 106.5q23 24.5 23 73.5v52h-85 q-34 0 -56 -18t-22 -50v-15q0 -33 21.5 -50t55.5 -17q40 0 63 24.5zM253 746h146l-82 -135h-108z" unicode="á"/>
<glyph horiz-adv-x="520" glyph-name="acircumflex" d="M406.5 499q50.5 -46 50.5 -124v-375h-121v58q-17 -33 -49 -52t-79 -19q-74 0 -121 42.5t-47 120.5q0 81 52.5 124.5t149.5 43.5h87v56q0 80 -70 80q-33 0 -50.5 -19t-19.5 -51h-131q4 76 58.5 118.5t143.5 42.5q96 0 146.5 -46zM306 106.5q23 24.5 23 73.5v52h-85 q-34 0 -56 -18t-22 -50v-15q0 -33 21.5 -50t55.5 -17q40 0 63 24.5zM319 611l-55 85l-55 -85h-94l66 135h166l66 -135h-94z" unicode="â"/>
<glyph horiz-adv-x="520" glyph-name="atilde" d="M406.5 499q50.5 -46 50.5 -124v-375h-121v58q-17 -33 -49 -52t-79 -19q-74 0 -121 42.5t-47 120.5q0 81 52.5 124.5t149.5 43.5h87v56q0 80 -70 80q-33 0 -50.5 -19t-19.5 -51h-131q4 76 58.5 118.5t143.5 42.5q96 0 146.5 -46zM306 106.5q23 24.5 23 73.5v52h-85 q-34 0 -56 -18t-22 -50v-15q0 -33 21.5 -50t55.5 -17q40 0 63 24.5zM293 619.5q-16 6.5 -37 17.5q-11 7 -22.5 12t-20.5 5q-14 0 -21.5 -9.5t-8.5 -31.5h-56q0 59 22.5 88.5t58.5 29.5q20 0 36 -6.5t36 -18.5q14 -8 24 -12.5t19 -4.5q13 0 19 10t6 32h57q0 -60 -20.5 -89 t-56.5 -29q-19 0 -35 6.5z" unicode="ã"/>
<glyph horiz-adv-x="520" glyph-name="adieresis" d="M406.5 499q50.5 -46 50.5 -124v-375h-121v58q-17 -33 -49 -52t-79 -19q-74 0 -121 42.5t-47 120.5q0 81 52.5 124.5t149.5 43.5h87v56q0 80 -70 80q-33 0 -50.5 -19t-19.5 -51h-131q4 76 58.5 118.5t143.5 42.5q96 0 146.5 -46zM306 106.5q23 24.5 23 73.5v52h-85 q-34 0 -56 -18t-22 -50v-15q0 -33 21.5 -50t55.5 -17q40 0 63 24.5zM118 736h115v-116h-115v116zM296 736h115v-116h-115v116z" unicode="ä"/>
<glyph horiz-adv-x="520" glyph-name="aring" d="M406.5 499q50.5 -46 50.5 -124v-375h-121v58q-17 -33 -49 -52t-79 -19q-74 0 -121 42.5t-47 120.5q0 81 52.5 124.5t149.5 43.5h87v56q0 80 -70 80q-33 0 -50.5 -19t-19.5 -51h-131q4 76 58.5 118.5t143.5 42.5q96 0 146.5 -46zM306 106.5q23 24.5 23 73.5v52h-85 q-34 0 -56 -18t-22 -50v-15q0 -33 21.5 -50t55.5 -17q40 0 63 24.5zM173 623.5q-37 34.5 -37 88.5q0 55 36.5 88.5t92.5 33.5t93 -33.5t37 -88.5q0 -54 -37 -88.5t-93 -34.5q-55 0 -92 34.5zM309.5 662.5q18.5 16.5 18.5 44.5v10q0 28 -18.5 44t-44.5 16t-44.5 -16 t-18.5 -44v-10q0 -28 18.5 -44.5t44.5 -16.5t44.5 16.5z" unicode="å"/>
<glyph horiz-adv-x="822" glyph-name="ae" d="M783 234h-323q3 -149 100 -149q35 0 57 17.5t32 57.5h126q-17 -85 -72.5 -129t-145.5 -44q-101 0 -163 70q-29 -34 -70.5 -52t-92.5 -18q-88 0 -139.5 43t-51.5 120q0 81 52.5 124.5t149.5 43.5h87v56q0 80 -70 80q-33 0 -50.5 -19t-19.5 -51h-131q4 76 58.5 118.5 t142.5 42.5q98 0 149 -56q58 56 149 56q90 0 144.5 -47t74.5 -133q7 -34 7 -71v-60zM490.5 416q-25.5 -32 -29.5 -96h197q-7 128 -99 128q-43 0 -68.5 -32zM306 106.5q23 24.5 23 73.5v52h-85q-34 0 -56 -18t-22 -50v-15q0 -33 21.5 -50t55.5 -17q40 0 63 24.5z" unicode="æ"/>
<glyph horiz-adv-x="511" glyph-name="ccedilla" d="M415.5 44q-50.5 -52 -136.5 -57l-11 -27q38 -3 61.5 -22.5t23.5 -53.5q0 -41 -28 -63t-65 -22q-27 0 -53 8t-40 22l24 48q32 -22 66 -22q16 0 26 6.5t10 20.5q0 26 -42 26h-20l-27 26l21 54q-90 13 -138 87.5t-48 189.5q0 126 58 203t163 77q92 0 149 -52.5t64 -145.5 h-128q-7 50 -27 73.5t-59 23.5q-88 0 -88 -155v-47q0 -77 22.5 -116t65.5 -39q40 0 60 25t28 81h128q-9 -97 -59.5 -149z" unicode="ç"/>
<glyph horiz-adv-x="530" glyph-name="egrave" d="M491 234h-323q1 -78 27 -113.5t74 -35.5q35 0 56.5 17.5t31.5 57.5h126q-17 -85 -72.5 -129t-144.5 -44q-109 0 -168 76t-59 202q0 127 59.5 203.5t167.5 76.5q89 0 143.5 -47t74.5 -133q7 -34 7 -71v-60zM198.5 416q-25.5 -32 -29.5 -96h197q-7 128 -99 128 q-43 0 -68.5 -32zM227 611l-82 135h146l44 -135h-108z" unicode="è"/>
<glyph horiz-adv-x="530" glyph-name="eacute" d="M491 234h-323q1 -78 27 -113.5t74 -35.5q35 0 56.5 17.5t31.5 57.5h126q-17 -85 -72.5 -129t-144.5 -44q-109 0 -168 76t-59 202q0 127 59.5 203.5t167.5 76.5q89 0 143.5 -47t74.5 -133q7 -34 7 -71v-60zM198.5 416q-25.5 -32 -29.5 -96h197q-7 128 -99 128 q-43 0 -68.5 -32zM266 746h146l-82 -135h-108z" unicode="é"/>
<glyph horiz-adv-x="530" glyph-name="ecircumflex" d="M491 234h-323q1 -78 27 -113.5t74 -35.5q35 0 56.5 17.5t31.5 57.5h126q-17 -85 -72.5 -129t-144.5 -44q-109 0 -168 76t-59 202q0 127 59.5 203.5t167.5 76.5q89 0 143.5 -47t74.5 -133q7 -34 7 -71v-60zM198.5 416q-25.5 -32 -29.5 -96h197q-7 128 -99 128 q-43 0 -68.5 -32zM332 611l-55 85l-55 -85h-94l66 135h166l66 -135h-94z" unicode="ê"/>
<glyph horiz-adv-x="530" glyph-name="edieresis" d="M491 234h-323q1 -78 27 -113.5t74 -35.5q35 0 56.5 17.5t31.5 57.5h126q-17 -85 -72.5 -129t-144.5 -44q-109 0 -168 76t-59 202q0 127 59.5 203.5t167.5 76.5q89 0 143.5 -47t74.5 -133q7 -34 7 -71v-60zM198.5 416q-25.5 -32 -29.5 -96h197q-7 128 -99 128 q-43 0 -68.5 -32zM131 736h115v-116h-115v116zM309 736h115v-116h-115v116z" unicode="ë"/>
<glyph horiz-adv-x="261" glyph-name="igrave" d="M67 531h128v-531h-128v531zM80 611l-82 135h146l44 -135h-108z" unicode="ì"/>
<glyph horiz-adv-x="261" glyph-name="iacute" d="M67 531h128v-531h-128v531zM119 746h146l-82 -135h-108z" unicode="í"/>
<glyph horiz-adv-x="261" glyph-name="icircumflex" d="M67 531h128v-531h-128v531zM185 611l-55 85l-55 -85h-94l66 135h166l66 -135h-94z" unicode="î"/>
<glyph horiz-adv-x="261" glyph-name="idieresis" d="M67 531h128v-531h-128v531zM-16 736h115v-116h-115v116zM162 736h115v-116h-115v116z" unicode="ï"/>
<glyph horiz-adv-x="534" glyph-name="eth" d="M468.5 466.5q26.5 -87.5 26.5 -173.5q0 -306 -229 -306q-107 0 -167 74t-60 196q0 79 26.5 140.5t75 95.5t111.5 34q44 0 75 -23q-20 43 -44 80l-105 -39l-20 62l87 32q-55 70 -95 97h160q27 -24 51 -55l68 25l20 -61l-51 -19q44 -72 70.5 -159.5zM363 278 q0 75 -24.5 114t-71.5 39q-46 0 -71 -39t-25 -114v-42q0 -73 24.5 -110.5t71.5 -37.5q46 0 71 37.5t25 110.5v42z" unicode="ð"/>
<glyph horiz-adv-x="542" glyph-name="ntilde" d="M438 496.5q42 -48.5 42 -136.5v-360h-128v328q0 62 -19.5 86t-58.5 24t-59 -24t-20 -86v-328h-128v531h121v-69q15 37 50 60t87 23q71 0 113 -48.5zM308 619.5q-16 6.5 -37 17.5q-11 7 -22.5 12t-20.5 5q-14 0 -21.5 -9.5t-8.5 -31.5h-56q0 59 22.5 88.5t58.5 29.5 q20 0 36 -6.5t36 -18.5q14 -8 24 -12.5t19 -4.5q13 0 19 10t6 32h57q0 -60 -20.5 -89t-56.5 -29q-19 0 -35 6.5z" unicode="ñ"/>
<glyph horiz-adv-x="538" glyph-name="ograve" d="M98.5 62q-59.5 76 -59.5 203t59.5 203.5t170.5 76.5q110 0 170 -76.5t60 -203.5t-60 -203t-170 -76q-111 0 -170.5 76zM342.5 125q24.5 38 24.5 117v47q0 79 -24.5 117t-73.5 38t-73.5 -38t-24.5 -117v-47q0 -79 24.5 -117t73.5 -38t73.5 38zM218 611l-82 135h146 l44 -135h-108z" unicode="ò"/>
<glyph horiz-adv-x="538" glyph-name="oacute" d="M98.5 62q-59.5 76 -59.5 203t59.5 203.5t170.5 76.5q110 0 170 -76.5t60 -203.5t-60 -203t-170 -76q-111 0 -170.5 76zM342.5 125q24.5 38 24.5 117v47q0 79 -24.5 117t-73.5 38t-73.5 -38t-24.5 -117v-47q0 -79 24.5 -117t73.5 -38t73.5 38zM257 746h146l-82 -135h-108z " unicode="ó"/>
<glyph horiz-adv-x="538" glyph-name="ocircumflex" d="M98.5 62q-59.5 76 -59.5 203t59.5 203.5t170.5 76.5q110 0 170 -76.5t60 -203.5t-60 -203t-170 -76q-111 0 -170.5 76zM342.5 125q24.5 38 24.5 117v47q0 79 -24.5 117t-73.5 38t-73.5 -38t-24.5 -117v-47q0 -79 24.5 -117t73.5 -38t73.5 38zM323 611l-55 85l-55 -85h-94 l66 135h166l66 -135h-94z" unicode="ô"/>
<glyph horiz-adv-x="538" glyph-name="otilde" d="M98.5 62q-59.5 76 -59.5 203t59.5 203.5t170.5 76.5q110 0 170 -76.5t60 -203.5t-60 -203t-170 -76q-111 0 -170.5 76zM342.5 125q24.5 38 24.5 117v47q0 79 -24.5 117t-73.5 38t-73.5 -38t-24.5 -117v-47q0 -79 24.5 -117t73.5 -38t73.5 38zM297 619.5q-16 6.5 -37 17.5 q-11 7 -22.5 12t-20.5 5q-14 0 -21.5 -9.5t-8.5 -31.5h-56q0 59 22.5 88.5t58.5 29.5q20 0 36 -6.5t36 -18.5q14 -8 24 -12.5t19 -4.5q13 0 19 10t6 32h57q0 -60 -20.5 -89t-56.5 -29q-19 0 -35 6.5z" unicode="õ"/>
<glyph horiz-adv-x="538" glyph-name="odieresis" d="M98.5 62q-59.5 76 -59.5 203t59.5 203.5t170.5 76.5q110 0 170 -76.5t60 -203.5t-60 -203t-170 -76q-111 0 -170.5 76zM342.5 125q24.5 38 24.5 117v47q0 79 -24.5 117t-73.5 38t-73.5 -38t-24.5 -117v-47q0 -79 24.5 -117t73.5 -38t73.5 38zM122 736h115v-116h-115v116z M300 736h115v-116h-115v116z" unicode="ö"/>
<glyph glyph-name="divide" d="M43 375h474v-106h-474v106zM209 583h142v-136h-142v136zM209 188h142v-136h-142v136z" unicode="÷"/>
<glyph horiz-adv-x="538" glyph-name="oslash" d="M445 460q54 -74 54 -195q0 -127 -60 -203t-170 -76q-71 0 -121 32l-21 -32h-91l56 84q-53 74 -53 195q0 127 59.5 203.5t170.5 76.5q70 0 120 -32l21 32h92zM174 192l155 231q-24 21 -60 21q-49 0 -73.5 -38t-24.5 -117v-47q0 -27 3 -50zM364 339l-155 -231 q23 -21 60 -21q49 0 73.5 38t24.5 117v47q0 28 -3 50z" unicode="ø"/>
<glyph horiz-adv-x="538" glyph-name="ugrave" d="M471 531v-531h-121v68q-14 -37 -46.5 -59t-83.5 -22q-72 0 -114.5 46t-42.5 133v365h128v-329q0 -60 18.5 -84.5t56.5 -24.5t57.5 24.5t19.5 84.5v329h128zM217 611l-82 135h146l44 -135h-108z" unicode="ù"/>
<glyph horiz-adv-x="538" glyph-name="uacute" d="M471 531v-531h-121v68q-14 -37 -46.5 -59t-83.5 -22q-72 0 -114.5 46t-42.5 133v365h128v-329q0 -60 18.5 -84.5t56.5 -24.5t57.5 24.5t19.5 84.5v329h128zM256 746h146l-82 -135h-108z" unicode="ú"/>
<glyph horiz-adv-x="538" glyph-name="ucircumflex" d="M471 531v-531h-121v68q-14 -37 -46.5 -59t-83.5 -22q-72 0 -114.5 46t-42.5 133v365h128v-329q0 -60 18.5 -84.5t56.5 -24.5t57.5 24.5t19.5 84.5v329h128zM322 611l-55 85l-55 -85h-94l66 135h166l66 -135h-94z" unicode="û"/>
<glyph horiz-adv-x="538" glyph-name="udieresis" d="M471 531v-531h-121v68q-14 -37 -46.5 -59t-83.5 -22q-72 0 -114.5 46t-42.5 133v365h128v-329q0 -60 18.5 -84.5t56.5 -24.5t57.5 24.5t19.5 84.5v329h128zM121 736h115v-116h-115v116zM299 736h115v-116h-115v116z" unicode="ü"/>
<glyph horiz-adv-x="487" glyph-name="yacute" d="M466 531l-215 -703h-122l54 177l-162 526h129l95 -341l97 341h124zM232 746h146l-82 -135h-108z" unicode="ý"/>
<glyph horiz-adv-x="547" glyph-name="thorn" d="M457.5 470.5q50.5 -74.5 50.5 -204.5t-50.5 -205t-144.5 -75q-73 0 -118 56v-214h-128v908h128v-247q45 56 118 56q94 0 144.5 -74.5zM376 287q0 158 -93 158q-44 0 -67 -30.5t-23 -90.5v-116q0 -59 23 -90.5t67 -31.5q45 0 69 40t24 119v42z" unicode="þ"/>
<glyph horiz-adv-x="568" glyph-name="hbar" d="M463 496.5q42 -48.5 42 -136.5v-360h-128v328q0 62 -19.5 86t-58.5 24t-59 -24t-20 -86v-328h-128v595h-62v75h62v66h128v-66h113v-75h-113v-119q17 32 50 50.5t80 18.5q71 0 113 -48.5z" unicode="ħ"/>
<glyph horiz-adv-x="261" glyph-name="dotlessi" d="M67 531h128v-531h-128v531z" unicode="ı"/>
<glyph horiz-adv-x="0" glyph-name="gravecomb" d="M-156 611l-82 135h146l44 -135h-108z" unicode="̀"/>
<glyph horiz-adv-x="0" glyph-name="acutecomb" d="M-194 746h146l-82 -135h-108z" unicode="́"/>
<glyph horiz-adv-x="0" glyph-name="uni0302" d="M-142 611l-55 85l-55 -85h-94l66 135h166l66 -135h-94z" unicode="̂"/>
<glyph horiz-adv-x="0" glyph-name="tildecomb" d="M-159 619.5q-16 6.5 -37 17.5q-11 7 -22.5 12t-20.5 5q-14 0 -21.5 -9.5t-8.5 -31.5h-56q0 59 22.5 88.5t58.5 29.5q20 0 36 -6.5t36 -18.5q14 -8 24 -12.5t19 -4.5q13 0 19 10t6 32h57q0 -60 -20.5 -89t-56.5 -29q-19 0 -35 6.5z" unicode="̃"/>
<glyph horiz-adv-x="0" glyph-name="uni0304" d="M-301 718h254v-90h-254v90z" unicode="̄"/>
<glyph horiz-adv-x="0" glyph-name="uni0307" d="M-175 736h128v-116h-128v116z" unicode="̇"/>
<glyph horiz-adv-x="0" glyph-name="uni0308" d="M-341 736h115v-116h-115v116zM-163 736h115v-116h-115v116z" unicode="̈"/>
<glyph horiz-adv-x="0" glyph-name="uni030A" d="M-269 623.5q-37 34.5 -37 88.5q0 55 36.5 88.5t92.5 33.5t93 -33.5t37 -88.5q0 -54 -37 -88.5t-93 -34.5q-55 0 -92 34.5zM-132.5 662.5q18.5 16.5 18.5 44.5v10q0 28 -18.5 44t-44.5 16t-44.5 -16t-18.5 -44v-10q0 -28 18.5 -44.5t44.5 -16.5t44.5 16.5z" unicode="̊"/>
<glyph horiz-adv-x="0" glyph-name="uni0327" d="M-70.5 -62.5q23.5 -19.5 23.5 -53.5q0 -41 -28.5 -63t-65.5 -22q-27 0 -52.5 8t-39.5 22l24 48q30 -22 65 -22q36 0 36 27q0 26 -41 26h-20l-28 26l37 97l49 -16l-21 -55q38 -3 61.5 -22.5z" unicode="̧"/>
<glyph horiz-adv-x="553" glyph-name="uni0400" d="M210 604v-196h283v-107h-283v-195h300v-106h-435v710h435v-106h-300zM251 790l-82 135h146l44 -135h-108z" unicode="Ѐ"/>
<glyph horiz-adv-x="553" glyph-name="uni0401" d="M210 604v-196h283v-107h-283v-195h300v-106h-435v710h435v-106h-300zM155 915h115v-116h-115v116zM333 915h115v-116h-115v116z" unicode="Ё"/>
<glyph horiz-adv-x="701" glyph-name="uni0402" d="M617.5 374.5q49.5 -60.5 49.5 -161.5q0 -66 -25.5 -116.5t-70 -78.5t-100.5 -28q-42 0 -88 7v100q26 -7 64 -7q39 0 62.5 32t23.5 86q0 51 -23.5 85.5t-67.5 34.5q-29 0 -57.5 -7.5t-68.5 -22.5v-298h-135v604h-151v106h463v-106h-177v-198q92 29 158 29 q94 0 143.5 -60.5z" unicode="Ђ"/>
<glyph horiz-adv-x="483" glyph-name="uni0403" d="M75 710h387v-106h-252v-604h-135v710zM262 925h146l-82 -135h-108z" unicode="Ѓ"/>
<glyph horiz-adv-x="641" glyph-name="uni0404" d="M604 238q-13 -120 -84.5 -186t-192.5 -66q-139 0 -212 98t-73 271q0 172 73 270.5t212 98.5q119 0 190.5 -64.5t85.5 -179.5h-140q-13 69 -45 103t-91 34q-68 0 -103.5 -53.5t-39.5 -151.5h198v-106h-198q2 -102 38 -157.5t105 -55.5q114 0 139 145h138z" unicode="Є"/>
<glyph horiz-adv-x="577" glyph-name="uni0405" d="M97.5 49.5q-65.5 62.5 -65.5 167.5h137q2 -58 35 -92.5t95 -34.5q48 0 77.5 25t29.5 65v12q0 36 -21.5 57t-66.5 38l-114 44q-86 34 -123.5 76.5t-37.5 117.5q0 59 29 104t82.5 70t123.5 25q124 0 185 -57t62 -146h-136q-3 45 -32.5 72t-81.5 27q-44 0 -70 -23.5 t-26 -56.5v-12q0 -31 20.5 -51t62.5 -36l108 -42q91 -36 131.5 -80.5t40.5 -124.5q0 -61 -28.5 -107.5t-83.5 -73t-133 -26.5q-134 0 -199.5 62.5z" unicode="Ѕ"/>
<glyph horiz-adv-x="293" glyph-name="uni0406" d="M79 710h135v-710h-135v710z" unicode="І"/>
<glyph horiz-adv-x="293" glyph-name="uni0407" d="M79 710h135v-710h-135v710zM-1 915h115v-116h-115v116zM177 915h115v-116h-115v116z" unicode="Ї"/>
<glyph horiz-adv-x="522" glyph-name="uni0408" d="M78.5 41q-53.5 55 -57.5 147h133q6 -95 82 -95q40 0 58.5 28.5t18.5 89.5v500h134v-504q0 -104 -54.5 -162.5t-158.5 -58.5q-102 0 -155.5 55z" unicode="Ј"/>
<glyph horiz-adv-x="942" glyph-name="uni0409" d="M818 402q48 -27 75 -75.5t27 -112.5q0 -62 -27.5 -111t-75 -76t-106.5 -27h-278v603h-170v-203q0 -148 -20 -237.5t-63 -131t-114 -41.5q-27 0 -50 5v107q8 -2 27 -2q35 0 54 28.5t26.5 86.5t7.5 156v339h437v-281h143q59 0 107 -27zM785 224q0 49 -28 74t-74 25h-115 v-217h115q46 0 74 25.5t28 74.5v18z" unicode="Љ"/>
<glyph horiz-adv-x="932" glyph-name="uni040A" d="M807.5 402q47.5 -27 74.5 -75.5t27 -112.5q0 -62 -27 -111t-74.5 -76t-106.5 -27h-277v323h-214v-323h-135v710h135v-281h214v281h134v-281h143q59 0 106.5 -27zM774 224q0 49 -27.5 74t-74.5 25h-114v-217h114q46 0 74 25.5t28 74.5v18z" unicode="Њ"/>
<glyph horiz-adv-x="703" glyph-name="uni040B" d="M625 380.5q44 -55.5 44 -171.5v-209h-135v214q0 114 -91 114q-46 0 -127 -27v-301h-135v604h-151v106h463v-106h-177v-198q90 30 164 30q101 0 145 -55.5z" unicode="Ћ"/>
<glyph horiz-adv-x="616" glyph-name="uni040C" d="M306 321l-96 -127v-194h-135v710h135v-332l242 332h147l-205 -272l211 -438h-145zM304 925h146l-82 -135h-108z" unicode="Ќ"/>
<glyph horiz-adv-x="665" glyph-name="uni040D" d="M590 710v-710h-129v522l-227 -522h-159v710h129v-515l223 515h163zM282 786l-82 135h146l44 -135h-108z" unicode="Ѝ"/>
<glyph horiz-adv-x="557" glyph-name="uni040E" d="M549 710l-294 -710h-130l100 244l-208 466h145l127 -311l127 311h133zM409 901q0 -54 -38 -84.5t-93 -30.5t-92.5 30.5t-37.5 84.5v21h83v-12q0 -27 13.5 -41.5t33.5 -14.5t33.5 14.5t13.5 41.5v12h84v-21z" unicode="Ў"/>
<glyph horiz-adv-x="643" glyph-name="uni040F" d="M568 710v-710h-183v-132h-126v132h-184v710h135v-603h224v603h134z" unicode="Џ"/>
<glyph horiz-adv-x="628" glyph-name="uni0410" d="M427 159h-230l-41 -159h-133l195 710h192l195 -710h-137zM400 266l-88 340l-87 -340h175z" unicode="А"/>
<glyph horiz-adv-x="614" glyph-name="uni0411" d="M478.5 406q47.5 -27 74.5 -76.5t27 -113.5q0 -63 -27 -112.5t-74.5 -76.5t-106.5 -27h-297v710h447v-106h-312v-171h162q59 0 106.5 -27zM445 226q0 49 -27.5 75t-74.5 26h-133v-220h133q46 0 74 25.5t28 74.5v19z" unicode="Б"/>
<glyph horiz-adv-x="618" glyph-name="uni0412" d="M542.5 309q33.5 -43 33.5 -108q0 -60 -26 -106t-70.5 -70.5t-98.5 -24.5h-306v710h285q51 0 96 -22t73 -64.5t28 -101.5q0 -58 -28 -97t-68 -55q48 -18 81.5 -61zM210 606v-194h117q41 0 68.5 22t27.5 68v17q0 45 -27 66t-69 21h-117zM441 214q0 50 -28.5 73t-71.5 23 h-131v-206h131q43 0 71.5 22.5t28.5 71.5v16z" unicode="В"/>
<glyph horiz-adv-x="483" glyph-name="uni0413" d="M75 710h387v-106h-252v-604h-135v710z" unicode="Г"/>
<glyph horiz-adv-x="683" glyph-name="uni0414" d="M669 107v-239h-127v132h-400v-132h-126v239h55q39 71 51.5 153t12.5 206v244h433v-603h101zM433 603h-167v-128q0 -253 -60 -368h227v496z" unicode="Д"/>
<glyph horiz-adv-x="553" glyph-name="uni0415" d="M210 604v-196h283v-107h-283v-195h300v-106h-435v710h435v-106h-300z" unicode="Е"/>
<glyph horiz-adv-x="894" glyph-name="uni0416" d="M598 310l-83 -120v-190h-135v190l-84 120l-138 -310h-147l203 430l-194 280h147l213 -330v330h135v-330l213 330h146l-193 -280l202 -430h-147z" unicode="Ж"/>
<glyph horiz-adv-x="606" glyph-name="uni0417" d="M533.5 305.5q30.5 -41.5 30.5 -104.5q0 -62 -30.5 -111t-89.5 -77t-142 -28q-137 0 -200.5 63.5t-64.5 156.5h144q16 -118 126 -118q52 0 84 30.5t32 75.5v18q0 45 -28.5 69t-79.5 24h-102v103h99q47 0 73 25.5t26 74.5v18q0 43 -28 70.5t-77 27.5q-50 0 -80 -28.5 t-41 -81.5h-141q4 55 31.5 103t84.5 78.5t144 30.5q79 0 134.5 -26.5t83.5 -72.5t28 -103t-28 -96.5t-75 -60.5q56 -19 86.5 -60.5z" unicode="З"/>
<glyph horiz-adv-x="665" glyph-name="uni0418" d="M590 710v-710h-129v522l-227 -522h-159v710h129v-515l223 515h163z" unicode="И"/>
<glyph horiz-adv-x="665" glyph-name="uni0419" d="M590 710v-710h-129v522l-227 -522h-159v710h129v-515l223 515h163zM463 897q0 -54 -38 -84.5t-93 -30.5t-92.5 30.5t-37.5 84.5v21h83v-12q0 -27 13.5 -41.5t33.5 -14.5t33.5 14.5t13.5 41.5v12h84v-21z" unicode="Й"/>
<glyph horiz-adv-x="616" glyph-name="uni041A" d="M306 321l-96 -127v-194h-135v710h135v-332l242 332h147l-205 -272l211 -438h-145z" unicode="К"/>
<glyph horiz-adv-x="658" glyph-name="uni041B" d="M583 0h-135v603h-185v-203q0 -148 -20 -237.5t-63 -131t-114 -41.5q-27 0 -50 5v107q8 -2 27 -2q35 0 54 28.5t26.5 86.5t7.5 156v339h452v-710z" unicode="Л"/>
<glyph horiz-adv-x="802" glyph-name="uni041C" d="M727 710v-710h-131v562l-130 -562h-123l-138 573v-573h-130v710h209l121 -521l118 521h204z" unicode="М"/>
<glyph horiz-adv-x="648" glyph-name="uni041D" d="M573 710v-710h-134v301h-229v-301h-135v710h135v-302h229v302h134z" unicode="Н"/>
<glyph horiz-adv-x="656" glyph-name="uni041E" d="M115 83.5q-73 97.5 -73 271.5t73 271.5t213 97.5t213 -97.5t73 -271.5t-73 -271.5t-213 -97.5t-213 97.5zM436.5 152.5q35.5 59.5 35.5 165.5v74q0 106 -35.5 165.5t-108.5 59.5t-108.5 -59.5t-35.5 -165.5v-74q0 -107 35.5 -166t108.5 -59t108.5 59.5z" unicode="О"/>
<glyph horiz-adv-x="643" glyph-name="uni041F" d="M568 0h-134v603h-224v-603h-135v710h493v-710z" unicode="П"/>
<glyph horiz-adv-x="594" glyph-name="uni0420" d="M470 682q48 -28 75 -79.5t27 -117.5t-27 -117t-75 -79t-107 -28h-153v-261h-135v710h288q59 0 107 -28zM437 495q0 54 -28 81.5t-74 27.5h-125v-237h125q46 0 74 27.5t28 80.5v20z" unicode="Р"/>
<glyph horiz-adv-x="643" glyph-name="uni0421" d="M115 84q-73 98 -73 271q0 172 73 270.5t212 98.5q123 0 195 -69t83 -191h-139q-12 77 -45 115t-94 38q-71 0 -107 -59t-36 -167v-72q0 -108 36 -167t107 -59q122 0 141 165h138q-8 -129 -80.5 -200.5t-198.5 -71.5q-139 0 -212 98z" unicode="С"/>
<glyph horiz-adv-x="547" glyph-name="uni0422" d="M205 604h-175v106h487v-106h-177v-604h-135v604z" unicode="Т"/>
<glyph horiz-adv-x="557" glyph-name="uni0423" d="M549 710l-294 -710h-130l100 244l-208 466h145l127 -311l127 311h133z" unicode="У"/>
<glyph horiz-adv-x="744" glyph-name="uni0424" d="M639.5 587.5q70.5 -78.5 70.5 -212.5t-70.5 -212.5t-202.5 -90.5v-72h-130v72q-132 12 -202.5 90.5t-70.5 212.5t70.5 212.5t202.5 90.5v72h130v-72q132 -12 202.5 -90.5zM307 572q-65 -6 -98.5 -56t-33.5 -124v-34q0 -74 33.5 -124t98.5 -56v394zM569 392 q0 74 -33.5 124t-98.5 56v-394q65 6 98.5 56t33.5 124v34z" unicode="Ф"/>
<glyph horiz-adv-x="590" glyph-name="uni0425" d="M425 0l-130 264l-132 -264h-137l190 370l-181 340h139l123 -241l121 241h138l-182 -340l189 -370h-138z" unicode="Х"/>
<glyph horiz-adv-x="673" glyph-name="uni0426" d="M658 107v-239h-126v132h-457v710h134v-603h224v603h135v-603h90z" unicode="Ц"/>
<glyph horiz-adv-x="602" glyph-name="uni0427" d="M527 710v-710h-135v274q-92 -29 -164 -29q-100 0 -144 55.5t-44 170.5v239h135v-243q0 -115 91 -115q47 0 126 28v330h135z" unicode="Ч"/>
<glyph horiz-adv-x="850" glyph-name="uni0428" d="M775 710v-710h-700v710h135v-603h148v603h135v-603h148v603h134z" unicode="Ш"/>
<glyph horiz-adv-x="880" glyph-name="uni0429" d="M865 107v-239h-126v132h-664v710h135v-603h148v603h135v-603h148v603h134v-603h90z" unicode="Щ"/>
<glyph horiz-adv-x="713" glyph-name="uni042A" d="M588.5 421q47.5 -28 74.5 -79t27 -118q0 -65 -27 -116t-74.5 -79.5t-106.5 -28.5h-293v604h-159v106h294v-261h158q59 0 106.5 -28zM555 235q0 53 -27.5 80.5t-74.5 27.5h-129v-237h129q46 0 74 27.5t28 81.5v20z" unicode="Ъ"/>
<glyph horiz-adv-x="820" glyph-name="uni042B" d="M447 421q48 -28 75 -79t27 -118q0 -65 -27.5 -116t-75 -79.5t-106.5 -28.5h-265v710h135v-261h130q59 0 107 -28zM745 710v-710h-135v710h135zM413 235q0 53 -27.5 80.5t-73.5 27.5h-102v-237h102q46 0 73.5 27.5t27.5 81.5v20z" unicode="Ы"/>
<glyph horiz-adv-x="598" glyph-name="uni042C" d="M474 421q48 -28 75 -79t27 -118q0 -65 -27.5 -116t-75 -79.5t-106.5 -28.5h-292v710h135v-261h157q59 0 107 -28zM441 235q0 53 -28 80.5t-74 27.5h-129v-237h129q46 0 74 27.5t28 81.5v20z" unicode="Ь"/>
<glyph horiz-adv-x="641" glyph-name="uni042D" d="M526 625.5q73 -98.5 73 -270.5q0 -173 -73 -271t-212 -98q-121 0 -192.5 66t-84.5 186h138q25 -145 139 -145q69 0 105 55.5t38 157.5h-198v106h198q-4 98 -39.5 151.5t-103.5 53.5q-59 0 -91 -34t-45 -103h-140q14 115 85.5 179.5t190.5 64.5q139 0 212 -98.5z" unicode="Э"/>
<glyph horiz-adv-x="872" glyph-name="uni042E" d="M760 626.5q70 -97.5 70 -271.5t-70 -271.5t-202 -97.5q-121 0 -189 83t-78 233h-81v-302h-135v710h135v-302h81q10 150 78 233t189 83q132 0 202 -97.5zM688 392q0 106 -31.5 165.5t-98.5 59.5q-68 0 -99.5 -59t-31.5 -166v-74q0 -225 131 -225q67 0 98.5 59.5 t31.5 165.5v74z" unicode="Ю"/>
<glyph horiz-adv-x="625" glyph-name="uni042F" d="M550 0h-135v262h-89l-143 -262h-150l156 279q-62 21 -99 75t-37 131q0 67 27 118t75 79t107 28h288v-710zM415 368v236h-125q-46 0 -74 -27.5t-28 -80.5v-20q0 -53 28 -80.5t74 -27.5h125z" unicode="Я"/>
<glyph horiz-adv-x="520" glyph-name="uni0430" d="M406.5 499q50.5 -46 50.5 -124v-375h-121v58q-17 -33 -49 -52t-79 -19q-74 0 -121 42.5t-47 120.5q0 81 52.5 124.5t149.5 43.5h87v56q0 80 -70 80q-33 0 -50.5 -19t-19.5 -51h-131q4 76 58.5 118.5t143.5 42.5q96 0 146.5 -46zM306 106.5q23 24.5 23 73.5v52h-85 q-34 0 -56 -18t-22 -50v-15q0 -33 21.5 -50t55.5 -17q40 0 63 24.5z" unicode="а"/>
<glyph horiz-adv-x="543" glyph-name="uni0431" d="M451.5 416q52.5 -67 52.5 -178q0 -117 -59.5 -184.5t-174.5 -67.5q-117 0 -174 75.5t-57 230.5v18q0 142 32.5 232.5t102.5 133.5q33 20 69.5 29.5t98.5 19.5q74 11 119 25v-111q-23 -8 -50.5 -13t-52.5 -9q-50 -8 -77 -15.5t-50 -24.5q-27 -21 -40.5 -54t-18.5 -91 q40 51 127 51q100 0 152.5 -67zM373 248q0 65 -27 100t-75 35q-47 0 -74 -36t-27 -99v-25q0 -65 27 -101t75 -36q47 0 74 36t27 101v25z" unicode="б"/>
<glyph horiz-adv-x="526" glyph-name="uni0432" d="M464.5 228q22.5 -31 22.5 -77q0 -68 -44 -109.5t-131 -41.5h-245v531h242q82 0 125 -39.5t43 -102.5q0 -41 -20.5 -70t-54.5 -44q40 -16 62.5 -47zM195 442v-131h95q24 0 40.5 16t16.5 44v13q0 25 -15.5 41.5t-36.5 16.5h-100zM356 166q0 27 -18.5 42.5t-46.5 15.5h-96 v-135h101q26 0 43 19t17 46v12z" unicode="в"/>
<glyph horiz-adv-x="415" glyph-name="uni0433" d="M398 431h-203v-431h-128v531h331v-100z" unicode="г"/>
<glyph horiz-adv-x="608" glyph-name="uni0434" d="M590 100v-222h-120v122h-329v-122h-120v222h51q33 53 44 118.5t11 137.5v175h382v-431h81zM381 431h-131v-53q0 -86 -10.5 -154.5t-40.5 -123.5h182v331z" unicode="д"/>
<glyph horiz-adv-x="530" glyph-name="uni0435" d="M491 234h-323q1 -78 27 -113.5t74 -35.5q35 0 56.5 17.5t31.5 57.5h126q-17 -85 -72.5 -129t-144.5 -44q-109 0 -168 76t-59 202q0 127 59.5 203.5t167.5 76.5q89 0 143.5 -47t74.5 -133q7 -34 7 -71v-60zM198.5 416q-25.5 -32 -29.5 -96h197q-7 128 -99 128 q-43 0 -68.5 -32z" unicode="е"/>
<glyph horiz-adv-x="737" glyph-name="uni0436" d="M484 226l-53 -70v-156h-125v156l-53 70l-113 -226h-131l171 323l-157 208h143l140 -205v205h125v-205l139 205h144l-157 -208l171 -323h-132z" unicode="ж"/>
<glyph horiz-adv-x="491" glyph-name="uni0437" d="M429 229q23 -31 23 -78q0 -73 -52.5 -119t-151.5 -46q-110 0 -161 48.5t-52 120.5h132q12 -77 85 -77q35 0 55.5 19.5t20.5 48.5v14q0 30 -20.5 45.5t-55.5 15.5h-61v90h59q31 0 48.5 16.5t17.5 48.5v14q0 29 -19 46t-50 17q-64 0 -78 -72h-130q5 68 54.5 116t153.5 48 q93 0 144 -44t51 -112q0 -42 -21 -70.5t-56 -43.5q41 -15 64 -46z" unicode="з"/>
<glyph horiz-adv-x="572" glyph-name="uni0438" d="M505 531v-531h-125v363l-162 -363h-151v531h125v-358l159 358h154z" unicode="и"/>
<glyph horiz-adv-x="572" glyph-name="uni0439" d="M505 531v-531h-125v363l-162 -363h-151v531h125v-358l159 358h154zM416 722q0 -54 -38 -84.5t-93 -30.5t-92.5 30.5t-37.5 84.5v21h83v-12q0 -27 13.5 -41.5t33.5 -14.5t33.5 14.5t13.5 41.5v12h84v-21z" unicode="й"/>
<glyph horiz-adv-x="517" glyph-name="uni043A" d="M255 221l-60 -75v-146h-128v531h128v-217l165 217h139l-163 -206l172 -325h-138z" unicode="к"/>
<glyph horiz-adv-x="562" glyph-name="uni043B" d="M495 0h-128v431h-123v-145q0 -152 -41.5 -222.5t-129.5 -70.5q-33 0 -53 5v97q9 -1 28 -1q41 0 57 41t16 140v256h374v-531z" unicode="л"/>
<glyph horiz-adv-x="705" glyph-name="uni043C" d="M639 531v-531h-125v417l-109 -417h-99l-114 422v-422h-125v531h200l90 -357l87 357h195z" unicode="м"/>
<glyph horiz-adv-x="546" glyph-name="uni043D" d="M480 531v-531h-128v222h-157v-222h-128v531h128v-209h157v209h128z" unicode="н"/>
<glyph horiz-adv-x="538" glyph-name="uni043E" d="M98.5 62q-59.5 76 -59.5 203t59.5 203.5t170.5 76.5q110 0 170 -76.5t60 -203.5t-60 -203t-170 -76q-111 0 -170.5 76zM342.5 125q24.5 38 24.5 117v47q0 79 -24.5 117t-73.5 38t-73.5 -38t-24.5 -117v-47q0 -79 24.5 -117t73.5 -38t73.5 38z" unicode="о"/>
<glyph horiz-adv-x="536" glyph-name="uni043F" d="M470 0h-128v431h-147v-431h-128v531h403v-531z" unicode="п"/>
<glyph horiz-adv-x="547" glyph-name="uni0440" d="M457.5 470.5q50.5 -74.5 50.5 -204.5t-50.5 -205t-144.5 -75q-73 0 -118 56v-214h-128v703h121v-51q45 65 125 65q94 0 144.5 -74.5zM376 287q0 158 -93 158q-44 0 -67 -30.5t-23 -90.5v-116q0 -59 23 -90.5t67 -31.5q45 0 69 40t24 119v42z" unicode="р"/>
<glyph horiz-adv-x="511" glyph-name="uni0441" d="M96.5 62q-57.5 76 -57.5 203q0 126 58 203t163 77q92 0 149 -52.5t64 -145.5h-128q-7 50 -27 73.5t-59 23.5q-88 0 -88 -155v-47q0 -77 22.5 -116t65.5 -39q40 0 60 25t28 81h128q-10 -102 -65 -154.5t-150 -52.5q-106 0 -163.5 76z" unicode="с"/>
<glyph horiz-adv-x="417" glyph-name="uni0442" d="M396 431h-123v-431h-128v431h-124v100h375v-100z" unicode="т"/>
<glyph horiz-adv-x="484" glyph-name="uni0443" d="M464 531l-215 -703h-122l54 177l-162 526h129l95 -341l97 341h124z" unicode="у"/>
<glyph horiz-adv-x="695" glyph-name="uni0444" d="M592.5 464q63.5 -74 63.5 -199t-63.5 -198.5t-181.5 -80.5v-158h-128v158q-118 7 -181 80.5t-63 198.5t63.5 199t180.5 81v165h128v-165q118 -7 181.5 -81zM283 444q-55 -8 -83.5 -48t-28.5 -119v-23q0 -153 112 -167v357zM525 277q0 151 -114 167v-357q114 15 114 167 v23z" unicode="ф"/>
<glyph horiz-adv-x="502" glyph-name="uni0445" d="M338 0l-91 198l-92 -198h-128l140 277l-132 254h135l81 -178l81 178h134l-130 -254l139 -277h-137z" unicode="х"/>
<glyph horiz-adv-x="569" glyph-name="uni0446" d="M551 100v-222h-120v122h-364v531h128v-431h147v431h128v-431h81z" unicode="ц"/>
<glyph horiz-adv-x="533" glyph-name="uni0447" d="M466 531v-531h-128v205q-61 -21 -123 -21q-92 0 -134 47t-42 140v160h128v-162q0 -52 20 -72.5t55 -20.5q36 0 96 20v235h128z" unicode="ч"/>
<glyph horiz-adv-x="737" glyph-name="uni0448" d="M670 531v-531h-603v531h128v-431h109v431h128v-431h110v431h128z" unicode="ш"/>
<glyph horiz-adv-x="769" glyph-name="uni0449" d="M751 100v-222h-120v122h-564v531h128v-431h109v431h128v-431h110v431h128v-431h81z" unicode="щ"/>
<glyph horiz-adv-x="581" glyph-name="uni044A" d="M477.5 325.5q37.5 -22.5 59 -62t21.5 -89.5t-21.5 -89.5t-59 -62t-83.5 -22.5h-256v439h-117v92h245v-183h128q46 0 83.5 -22.5zM427 182q0 32 -19 50t-45 18h-97v-152h97q26 0 45 18t19 51v15z" unicode="ъ"/>
<glyph horiz-adv-x="720" glyph-name="uni044B" d="M393.5 325.5q37.5 -22.5 59 -62t21.5 -89.5t-21.5 -89.5t-59 -62t-83.5 -22.5h-243v531h128v-183h115q46 0 83.5 -22.5zM653 531v-531h-128v531h128zM343 182q0 32 -19 50t-45 18h-84v-152h84q26 0 45 18t19 51v15z" unicode="ы"/>
<glyph horiz-adv-x="510" glyph-name="uni044C" d="M406.5 325.5q37.5 -22.5 59 -62t21.5 -89.5t-21.5 -89.5t-59 -62t-83.5 -22.5h-256v531h128v-183h128q46 0 83.5 -22.5zM356 182q0 32 -19 50t-45 18h-97v-152h97q26 0 45 18t19 51v15z" unicode="ь"/>
<glyph horiz-adv-x="494" glyph-name="uni044D" d="M409 468q58 -77 58 -203t-57.5 -202.5t-163.5 -76.5q-89 0 -143 45.5t-69 134.5h129q9 -41 28.5 -60t54.5 -19q85 0 89 139h-137v89h136q-7 129 -88 129q-32 0 -51 -16t-29 -50h-129q15 80 69.5 123.5t139.5 43.5q105 0 163 -77z" unicode="э"/>
<glyph horiz-adv-x="718" glyph-name="uni044E" d="M622.5 468.5q56.5 -76.5 56.5 -203.5t-56.5 -203t-158.5 -76q-93 0 -145 63t-61 173h-63v-222h-128v531h128v-209h64q11 104 63 163.5t142 59.5q102 0 158.5 -76.5zM547 289q0 81 -19.5 118t-63.5 37q-45 0 -65 -37t-20 -118v-47q0 -80 20 -117.5t65 -37.5 q44 0 63.5 37.5t19.5 117.5v47z" unicode="ю"/>
<glyph horiz-adv-x="549" glyph-name="uni044F" d="M482 0h-128v184h-66l-116 -184h-144l126 202q-46 18 -73 59.5t-27 96.5q0 49 21.5 88.5t59 62t83.5 22.5h264v-531zM354 436h-105q-26 0 -45 -18.5t-19 -52.5v-16q0 -33 19 -51.5t45 -18.5h105v157z" unicode="я"/>
<glyph horiz-adv-x="530" glyph-name="uni0451" d="M491 234h-323q1 -78 27 -113.5t74 -35.5q35 0 56.5 17.5t31.5 57.5h126q-17 -85 -72.5 -129t-144.5 -44q-109 0 -168 76t-59 202q0 127 59.5 203.5t167.5 76.5q89 0 143.5 -47t74.5 -133q7 -34 7 -71v-60zM198.5 416q-25.5 -32 -29.5 -96h197q-7 128 -99 128 q-43 0 -68.5 -32zM118 736h115v-116h-115v116zM296 736h115v-116h-115v116z" unicode="ё"/>
<glyph horiz-adv-x="541" glyph-name="uni0452" d="M433 496.5q42 -48.5 42 -136.5v-360q0 -95 -31.5 -134.5t-105.5 -39.5q-20 0 -38 2v98h8q23 0 31 17t8 63v322q0 62 -19.5 86t-58.5 24t-59 -24t-20 -86v-328h-128v595h-62v75h62v66h128v-66h112v-75h-112v-119q17 32 50 50.5t80 18.5q71 0 113 -48.5z" unicode="ђ"/>
<glyph horiz-adv-x="415" glyph-name="uni0453" d="M398 431h-203v-431h-128v531h331v-100zM221 745h146l-82 -135h-108z" unicode="ѓ"/>
<glyph horiz-adv-x="494" glyph-name="uni0454" d="M460 166q-15 -89 -69 -134.5t-143 -45.5q-106 0 -163.5 76.5t-57.5 202.5t58 203t163 77q85 0 139.5 -43.5t69.5 -123.5h-129q-10 34 -29 50t-51 16q-81 0 -88 -129h136v-89h-137q4 -139 89 -139q35 0 54.5 19t28.5 60h129z" unicode="є"/>
<glyph horiz-adv-x="492" glyph-name="uni0455" d="M91 34q-56 48 -56 129h126q2 -40 25 -62.5t66 -22.5q36 0 56.5 16t20.5 45v9q0 23 -13.5 35.5t-47.5 23.5l-85 25q-73 23 -106.5 56.5t-33.5 93.5q0 46 23 82.5t67 58t106 21.5q102 0 153.5 -46.5t53.5 -116.5h-127q-2 33 -22.5 52.5t-58.5 19.5q-32 0 -51 -16t-19 -41 v-9q0 -22 15.5 -35t45.5 -21l81 -24q73 -22 108.5 -57.5t35.5 -98.5q0 -78 -56 -121.5t-149 -43.5q-102 0 -158 48z" unicode="ѕ"/>
<glyph horiz-adv-x="261" glyph-name="uni0456" d="M67 531h128v-531h-128v531zM67 736h128v-116h-128v116z" unicode="і"/>
<glyph horiz-adv-x="261" glyph-name="uni0457" d="M67 531h128v-531h-128v531zM-16 736h115v-116h-115v116zM162 736h115v-116h-115v116z" unicode="ї"/>
<glyph horiz-adv-x="261" glyph-name="uni0458" d="M67 736h128v-116h-128v116zM20 -172v98h8q23 0 31 17t8 63v525h128v-531q0 -95 -31.5 -134.5t-105.5 -39.5q-20 0 -38 2z" unicode="ј"/>
<glyph horiz-adv-x="795" glyph-name="uni0459" d="M727.5 288q44.5 -47 44.5 -121q0 -73 -44.5 -120t-117.5 -47h-253v441h-113v-155q0 -152 -41.5 -222.5t-129.5 -70.5q-33 0 -53 5v97q9 -1 28 -1q41 0 57 41t16 140v256h364v-196h125q73 0 117.5 -47zM641 175q0 31 -16 46.5t-44 15.5h-96v-139h96q28 0 44 16t16 47v14z " unicode="љ"/>
<glyph horiz-adv-x="791" glyph-name="uni045A" d="M724 288q45 -47 45 -121q0 -73 -45 -120t-118 -47h-264v237h-147v-237h-128v531h128v-196h147v196h128v-196h136q73 0 118 -47zM638 175q0 31 -16.5 46.5t-44.5 15.5h-107v-139h107q28 0 44.5 16t16.5 47v14z" unicode="њ"/>
<glyph horiz-adv-x="537" glyph-name="uni045B" d="M433 496.5q42 -48.5 42 -136.5v-360h-128v328q0 62 -19.5 86t-58.5 24t-59 -24t-20 -86v-328h-128v595h-62v75h62v66h128v-66h113v-75h-113v-119q17 32 50 50.5t80 18.5q71 0 113 -48.5z" unicode="ћ"/>
<glyph horiz-adv-x="517" glyph-name="uni045C" d="M255 221l-60 -75v-146h-128v531h128v-217l165 217h139l-163 -206l172 -325h-138zM250 746h146l-82 -135h-108z" unicode="ќ"/>
<glyph horiz-adv-x="484" glyph-name="uni045E" d="M464 531l-215 -703h-122l54 177l-162 526h129l95 -341l97 341h124zM372 722q0 -54 -38 -84.5t-93 -30.5t-92.5 30.5t-37.5 84.5v21h83v-12q0 -27 13.5 -41.5t33.5 -14.5t33.5 14.5t13.5 41.5v12h84v-21z" unicode="ў"/>
<glyph horiz-adv-x="536" glyph-name="uni045F" d="M470 531v-531h-142v-122h-120v122h-141v531h128v-431h147v431h128z" unicode="џ"/>
<glyph horiz-adv-x="483" glyph-name="uni0490" d="M462 863v-259h-252v-604h-135v710h261v153h126z" unicode="Ґ"/>
<glyph horiz-adv-x="415" glyph-name="uni0491" d="M398 687v-256h-203v-431h-128v531h211v156h120z" unicode="ґ"/>
<glyph horiz-adv-x="241" glyph-name="fraction" d="M276 710h89l-400 -710h-89z" unicode="⁄"/>
<glyph glyph-name="minus" d="M43 375h474v-106h-474v106z" unicode="−"/>
<glyph horiz-adv-x="430" glyph-name="zero.pcnt" d="M99 411.5q-44 50.5 -44 131.5q0 80 44 130.5t116 50.5q71 0 115.5 -50.5t44.5 -130.5q0 -81 -44.5 -131.5t-115.5 -50.5q-72 0 -116 50.5zM262 462q19 22 19 65v32q0 43 -19 64t-48 21q-28 0 -47 -21.5t-19 -63.5v-32q0 -43 19 -65t47 -22q29 0 48 22z"/>
<glyph horiz-adv-x="361" glyph-name="two.dnom" d="M156.5 99.5q-17.5 -14.5 -29.5 -27.5h196v-72h-287v47q0 23 6 39q10 24 31.5 46t62.5 55l41 33q53 43 53 83v14q0 24 -11.5 36t-30.5 12q-23 0 -36.5 -18.5t-15.5 -47.5h-99q4 61 42 98t108 37q65 0 103 -34.5t38 -90.5q0 -34 -12.5 -59t-31 -43t-56.5 -48l-48 -40 q-6 -5 -23.5 -19.5z"/>
<glyph horiz-adv-x="372" glyph-name="four.dnom" d="M327 158v-71h-43v-87h-92v87h-170v71l146 268h116v-268h43zM192 158v168l-92 -168h92z"/>
<glyph horiz-adv-x="286" glyph-name="one.numr" d="M215 710v-426h-91v313l-89 -70v96l99 87h81z"/>
<glyph horiz-adv-x="361" glyph-name="two.numr" d="M156.5 389.5q-17.5 -14.5 -29.5 -27.5h196v-72h-287v47q0 23 6 39q10 24 31.5 46t62.5 55l41 33q53 43 53 83v14q0 24 -11.5 36t-30.5 12q-23 0 -36.5 -18.5t-15.5 -47.5h-99q4 61 42 98t108 37q65 0 103 -34.5t38 -90.5q0 -34 -12.5 -59t-31 -43t-56.5 -48l-48 -40 q-6 -5 -23.5 -19.5z"/>
<glyph horiz-adv-x="341" glyph-name="three.numr" d="M304 473q18 -25 18 -62q0 -55 -37.5 -92t-104.5 -37q-77 0 -114 37.5t-36 92.5h100q4 -31 16 -46t34 -15q20 0 32.5 15t12.5 39v14q0 24 -15 36.5t-41 12.5h-34v70h33q23 0 36 14.5t13 40.5v14q0 22 -10.5 35t-28.5 13q-19 0 -31 -14t-16 -42h-99q5 53 39.5 89t106.5 36 q63 0 99.5 -33t36.5 -83q0 -35 -16 -59.5t-43 -37.5q31 -13 49 -38z"/>
<glyph horiz-adv-x="0" glyph-name="brevecombcy" d="M-124 722q0 -54 -38 -84.5t-93 -30.5t-92.5 30.5t-37.5 84.5v21h83v-12q0 -27 13.5 -41.5t33.5 -14.5t33.5 14.5t13.5 41.5v12h84v-21z"/>
</font>
</defs>
</svg>
