<svg xmlns="http://www.w3.org/2000/svg" width="66" height="115.35" viewBox="0 0 44 76.9">
  <metadata><?xpacket begin="﻿" id="W5M0MpCehiHzreSzNTczkc9d"?>
<x:xmpmeta xmlns:x="adobe:ns:meta/" x:xmptk="Adobe XMP Core 5.6-c140 79.160451, 2017/05/06-01:08:21        ">
   <rdf:RDF xmlns:rdf="http://www.w3.org/1999/02/22-rdf-syntax-ns#">
      <rdf:Description rdf:about=""/>
   </rdf:RDF>
</x:xmpmeta>
                                                                                                    
                                                                                                    
                                                                                                    
                                                                                                    
                                                                                                    
                                                                                                    
                                                                                                    
                                                                                                    
                                                                                                    
                                                                                                    
                                                                                                    
                                                                                                    
                                                                                                    
                                                                                                    
                                                                                                    
                                                                                                    
                                                                                                    
                                                                                                    
                                                                                                    
                                                                                                    
                           
<?xpacket end="w"?></metadata>
<defs>
    <style>
      .cls-1 {
        fill: #fff;
        fill-rule: evenodd;
      }
    </style>
  </defs>
  <path id="Фигура_6" data-name="Фигура 6" class="cls-1" d="M820.742,13090.4a6.808,6.808,0,1,0-13.615,0l0.072,7.9a7.007,7.007,0,0,0-3.232-.8,6.8,6.8,0,0,0-3.959,1.3,6.888,6.888,0,0,0-6.064-3.8,6.353,6.353,0,0,0-3.334.9v-17.3a6.813,6.813,0,1,0-13.625,0v29.1h0v20.7a20.273,20.273,0,0,0,20.208,20.3h3.6a20.269,20.269,0,0,0,20.2-20.3Zm-19.708,30.9,6.27-2.4v0.8a3.332,3.332,0,0,1-3.336,3.3A3.369,3.369,0,0,1,801.034,13121.3Zm2.933-20.3a3.322,3.322,0,0,1,3.282,2.8l0.02,2.3a5.546,5.546,0,0,0-3.6,0l-2.919.7v-3.3A3.382,3.382,0,0,1,803.967,13101Zm-13.357.9a3.335,3.335,0,1,1,6.669,0v1.2a6.861,6.861,0,0,0-.118,1.3v3.3l-6.551,1.7v-0.4a4.039,4.039,0,0,1,.045-0.6H790.61v-6.5Zm-10.153-23.3a3.34,3.34,0,1,1,6.679,0v23.3h0v8a2.58,2.58,0,0,1-.039.4l-1.7.4-0.421.2a14.64,14.64,0,0,0-4.514,3.9v-7.1h0v-29.1Zm20.331,66.6h-3.6a16.764,16.764,0,0,1-16.734-16.8v-2.6a1.692,1.692,0,0,0,.121-0.7c-0.006-.1,0-0.2-0.006-0.3a11.931,11.931,0,0,1,5.9-10.7l0.659-.2,1.518-.4,1.957-.5h0l6.551-1.7h0.118l2.372-.6,0.977-.2,0.123-.1h0l3.832-1a3.649,3.649,0,0,1,2.721.5,3.181,3.181,0,0,1,1.144,1.6c0.017,0,.043.1,0.058,0.1a3.282,3.282,0,0,1-1.2,3.5,3.237,3.237,0,0,1-.96.5l-5.615,2-0.1.1-3.467,1.3-0.255.1a0.128,0.128,0,0,0-.137-0.1,12.889,12.889,0,0,0-2.624-1.2,1.84,1.84,0,0,0-1.755.4,1.649,1.649,0,0,0-.435.7,1.737,1.737,0,0,0,1.106,2.2,5.6,5.6,0,0,1,1.19.5q0.329,0.15.646,0.3,0.7,0.45,1.337.9c0.065,0.1.132,0.1,0.2,0.2l0.355,0.4,0.9,1.2,2.006,2.5a14.712,14.712,0,0,1,1.38,4.2,1.739,1.739,0,0,0,1.71,1.4h0.29a1.78,1.78,0,0,0,1.421-2,17.551,17.551,0,0,0-1.236-4.2h0.713a6.783,6.783,0,0,0,6.813-6.8v-3.2a6.815,6.815,0,0,0,1.061-5.9,6.241,6.241,0,0,0-1.061-2.1v-4.1a7.557,7.557,0,0,0-.06-0.9l-0.123-13.1a3.338,3.338,0,1,1,6.674,0l0.249,38A16.762,16.762,0,0,1,800.788,13145.2Z" transform="translate(-777 -13071.8)"/>
</svg>
