<?xml version="1.0" encoding="UTF-8" standalone="no"?>
<!DOCTYPE svg  PUBLIC '-//W3C//DTD SVG 1.1//EN'  'http://www.w3.org/Graphics/SVG/1.1/DTD/svg11.dtd'>
<svg xmlns="http://www.w3.org/2000/svg" version="1.1">
<defs>
<font id="MaiolaPro-Regular" horiz-adv-x="450">
<font-face bbox="-287 -275 1243 991" font-family="MaiolaPro" underline-position="-73" unicode-range="U+000D-FB04" panose-1="2 0 5 3 6 0 0 2 0 3" cap-height="609" ascent="800" descent="-200" font-weight="400" x-height="414" underline-thickness="24" units-per-em="1000"/>
<missing-glyph horiz-adv-x="516" d="M43 38h430v542h-430v-542zM5 0v618h506v-618h-506z"/>
<glyph unicode="ff" glyph-name="uniFB00" horiz-adv-x="579" d="M349 417v77q0 72 18 94q23 32 62.5 65t64.5 33q59 0 126 -14q-14 -50 -33 -80q-65 45 -111 45q-37 0 -47 -36.5t-10 -121.5v-62h32q53 0 104 3l-12 -53h-126v-270q0 -34 7 -44q8 -8 39.5 -18t59.5 -14l-8 -23q-62 5 -114 5q-21 0 -126 -5l4 23q41 9 64 30q6 11 6 43v273 h-191v-260q0 -44 7 -54q8 -9 35 -18.5t54 -13.5l-8 -23q-62 5 -105 5q-20 0 -125 -5l4 23q39 9 63 30q7 12 7 43v271h-71l-10 15l82 35v59q0 71 16 94q26 36 66.5 67.5t64.5 31.5q58 0 117 -17q-15 -44 -32 -79q-63 47 -107 47q-11 0 -19.5 -3t-14 -10.5t-10 -14t-7 -20 t-4 -23t-2.5 -27.5t-1 -28.5v-31.5v-43h191z"/>
<glyph unicode="fi" glyph-name="fi" horiz-adv-x="516" d="M9 380l81 35v79q0 70 17 94q25 34 71.5 66t71.5 32q105 0 173 -49l-49 -66q-41 32 -74 49t-71 17q-23 0 -38 -12t-22 -36t-9.5 -49t-2.5 -61v-64q42 -4 118 -4q77 0 149 6q-5 -58 -5 -106v-239q0 -20 6 -27q27 -17 71 -26l-9 -20q-32 4 -93 4q-62 0 -106 -4l3 20 q34 12 55 29q5 15 5 40v160q0 97 -11 114q-34 7 -105 7q-49 0 -77 -2v-270q0 -36 7 -44q8 -8 39.5 -18t59.5 -14l-9 -23q-62 5 -114 5q-20 0 -125 -5l4 23q42 13 63 30q7 12 7 43v272h-71z"/>
<glyph unicode="fl" glyph-name="fl" horiz-adv-x="530" d="M361 494q0 65 -3 95q-25 18 -68.5 33t-73.5 15q-11 0 -19.5 -3t-14 -10.5t-10 -14t-7 -20t-4 -23t-2.5 -27.5t-1 -28.5v-31.5v-62h25q55 0 112 3l-11 -53h-127v-254q0 -52 8 -62q25 -19 99 -30l-9 -23q-59 3 -106 3q-61 0 -133 -3l4 23q38 10 63 30q7 12 7 43v271h-71 l-10 15l81 35v57q0 92 17 116q26 36 64 67t63 31q34 0 116 -16q46 4 90 15q-9 -79 -9 -144v-437q0 -45 6 -54q20 -18 77 -29l-9 -22q-30 2 -94 2q-77 0 -120 -2l5 22q39 11 59 26q6 20 6 51v396z"/>
<glyph unicode="ffi" glyph-name="uniFB03" horiz-adv-x="776" d="M158 460v-44h192v78q0 72 18 94q24 34 70.5 66t71.5 32q104 0 174 -49l-50 -66q-84 66 -146 66q-30 0 -46.5 -23.5t-20.5 -54.5t-4 -80v-64q39 -3 121 -3q84 0 147 5q-6 -55 -6 -106v-239q0 -20 7 -27q23 -16 69 -26l-8 -20q-33 4 -93 4q-61 0 -106 -4l4 20q30 11 54 29 q6 18 6 40v160q0 93 -12 114q-32 7 -105 7q-46 0 -78 -2v-270q0 -32 8 -44q9 -8 40 -18t59 -14l-8 -23q-62 5 -115 5q-21 0 -126 -5l4 23q42 13 65 30q6 11 6 43v271h-192v-268q0 -36 7 -44q7 -9 34.5 -18.5t54.5 -13.5l-8 -23q-37 3 -105 3q-62 0 -125 -3l4 23q39 9 63 30 q7 12 7 43v271h-71l-10 15l82 35v48q0 82 16 105q26 36 66.5 67.5t64.5 31.5q57 0 117 -17q-18 -52 -32 -79q-63 47 -107 47q-19 0 -31 -10t-18 -33t-7.5 -48t-1.5 -67z"/>
<glyph unicode="ffl" glyph-name="uniFB04" horiz-adv-x="789" d="M159 460v-44h190v56q0 92 18 116q25 36 63.5 67t62.5 31q34 0 116 -16q47 4 90 15q-8 -61 -8 -144v-437q0 -45 5 -54q20 -18 77 -29l-8 -22q-31 2 -94 2q-77 0 -120 -2l4 22q34 9 60 26q4 13 4 51v396q0 65 -2 95q-26 19 -68.5 33.5t-72.5 14.5q-14 0 -24.5 -5t-17 -18 t-10 -24t-5 -33.5t-2 -36t-0.5 -41.5v-62h31q48 0 107 3l-13 -53h-125v-254q0 -51 7 -62q28 -20 99 -30l-8 -23q-59 3 -107 3q-60 0 -134 -3l4 23q40 10 65 30q6 11 6 43v271h-191v-268q0 -34 8 -44q7 -9 34 -18.5t55 -13.5l-8 -23q-37 3 -106 3q-62 0 -125 -3l4 23 q40 9 64 30q6 14 6 43v271h-71l-10 15l82 35v48q0 83 17 105q25 35 65.5 67t64.5 32q60 0 117 -17q-13 -43 -32 -79q-61 47 -106 47q-19 0 -31 -10t-18 -33t-7.5 -48t-1.5 -67z"/>
<glyph glyph-name=".notdef" horiz-adv-x="516" d="M43 38h430v542h-430v-542zM5 0v618h506v-618h-506z"/>
<glyph glyph-name=".null" horiz-adv-x="0"/>
<glyph glyph-name=".null" horiz-adv-x="0"/>
<glyph glyph-name="nonmarkingreturn" horiz-adv-x="333"/>
<glyph unicode="" glyph-name="CR" horiz-adv-x="200"/>
<glyph unicode=" " glyph-name="space" horiz-adv-x="200"/>
<glyph unicode="!" glyph-name="exclam" horiz-adv-x="247" d="M66 -7l5 68q16 2 41 4q26 2 40 5l-3 -72q-38 0 -83 -5zM98 144l-15 474q54 5 104 17q-20 -85 -33 -204l-28 -278z"/>
<glyph unicode='&quot;' glyph-name="quotedbl" horiz-adv-x="232" d="M142 599l83 20l-14 -52l-27 -153l-22 -7zM19 592l83 21l-14 -51l-28 -155l-23 -3z"/>
<glyph unicode="#" glyph-name="numbersign" horiz-adv-x="493" d="M203 258q-7 -47 -9 -77h80q3 43 10 77h-81zM93 257l12 36h58q6 52 19 109l48 8q-16 -51 -22 -115h79q5 46 17 107l48 8q-14 -46 -22 -113h77l-16 -38h-65q-9 -68 -10 -76h74l-15 -39h-62q-6 -50 -6 -128l-45 -7q4 80 10 134h-82q-10 -76 -10 -127l-45 -7q2 33 6 79.5 t5 55.5h-69l11 36h61q0 7 8 77h-64z"/>
<glyph unicode="$" glyph-name="dollar" horiz-adv-x="388" d="M180 246v137q-29 0 -46.5 -17t-17.5 -48q0 -23 18.5 -42t45.5 -30zM277 87q0 47 -71 77v-150q35 4 53 24t18 49zM181 421v53l27 3v-56q64 -7 103 -18l-5 -105h-16q-11 40 -21 59q-9 13 -61 24v-145q61 -26 93.5 -52t32.5 -66q0 -53 -44 -95t-85 -42v-61l-28 -3v64 q-76 4 -120 19q3 40 3 116l16 4q13 -54 28 -81q17 -18 74 -24v159q-58 24 -89.5 51.5t-31.5 67.5q0 32 46.5 80t77.5 48z"/>
<glyph unicode="%" glyph-name="percent" horiz-adv-x="576" d="M442 406l-290 -442l-29 15l1 13l289 441l24 -16zM102 315q0 -40 16 -64.5t43 -24.5q24 0 37.5 24t13.5 57q0 41 -15 64.5t-41 23.5q-24 0 -39 -22t-15 -58zM162 428q48 0 75 -27.5t27 -75.5q0 -52 -35 -92t-78 -40q-40 0 -70.5 30t-30.5 82q0 47 37 85t75 38zM363 106 q0 -40 16 -64.5t43 -24.5q24 0 37.5 24t13.5 57q0 41 -15 64.5t-41 23.5q-24 0 -39 -22t-15 -58zM423 219q48 0 75 -27.5t27 -75.5q0 -52 -35 -92t-78 -40q-40 0 -70.5 30t-30.5 82q0 47 37 85t75 38z"/>
<glyph unicode="&amp;" glyph-name="ampersand" horiz-adv-x="701" d="M242 51q89 0 142 92q-110 100 -178 178q-44 -38 -67.5 -73t-23.5 -78q0 -47 36.5 -83t90.5 -36zM180 490q0 -51 56 -113q9 -8 40 -40t69.5 -70t71.5 -69q53 92 99 207q-27 10 -56 12l-3 28q25 -3 57 -3q70 0 123 12l11 -28q-55 -7 -81 -39q-13 -15 -34 -51t-51.5 -92 t-39.5 -71q100 -95 157 -128q27 -13 56 -13q19 0 46 5l-5 -22q-14 -7 -53 -18.5t-49 -11.5q-20 0 -75.5 42.5t-107.5 92.5q-83 -136 -192 -136q-78 0 -128 46t-50 109q0 32 12.5 61.5t38 56.5t44.5 43.5t50 39.5q-74 67 -74 125q0 44 59 97.5t102 53.5q56 0 88 -24.5 t32 -68.5q0 -43 -77 -106l-13 12q28 35 28 70t-20.5 55t-56.5 20q-29 0 -51.5 -23.5t-22.5 -60.5z"/>
<glyph unicode="&apos;" glyph-name="quotesingle" horiz-adv-x="133" d="M24 593l84 21l-14 -52l-28 -154l-23 -4z"/>
<glyph unicode="(" glyph-name="parenleft" horiz-adv-x="311" d="M236 -119l-19 -11q-138 167 -138 409q0 166 72 306q23 48 52 89l56 -13q-51 -71 -88.5 -177.5t-37.5 -218.5q0 -118 25 -207.5t78 -176.5z"/>
<glyph unicode=")" glyph-name="parenright" horiz-adv-x="311" d="M75 662l19 12q138 -164 138 -409q0 -169 -72 -306q-29 -58 -52 -89l-56 13q51 72 88.5 178t37.5 218q0 225 -103 383z"/>
<glyph unicode="*" glyph-name="asterisk" horiz-adv-x="297" d="M153 495q-16 -66 -33 -104l-12 -7l-47 24q33 37 67 96q-55 -19 -107 -23l-16 7q10 38 10 48q9 -9 47 -9q46 0 66 2q-55 44 -79 82v11l43 26q11 -39 53 -102q20 83 40 110q5 0 23.5 -9t26.5 -12q-31 -25 -65 -99q58 23 100 23q12 0 17 -1l-6 -51q-25 10 -59 10 q-24 0 -50 -6q36 -31 76 -77l1 -12l-46 -27q-10 43 -50 100z"/>
<glyph unicode="+" glyph-name="plus" horiz-adv-x="395" d="M174 240v130q29 4 61 16q-4 -36 -7 -82q0 -6 -0.5 -27t-0.5 -35h133l9 -9l-11 -37h-133v-143l-58 -10q6 93 6 122v28q-79 -1 -137 -6l12 53h126z"/>
<glyph unicode="," glyph-name="comma" horiz-adv-x="257" d="M63 23l47 82q32 -15 58.5 -43t26.5 -51q0 -29 -31 -75.5t-65 -80.5l-16 19q51 62 51 103q0 18 -23 30.5t-48 15.5z"/>
<glyph unicode="-" glyph-name="hyphen" horiz-adv-x="289" d="M25 194l14 66q14 -1 45 -1q75 0 168 6l10 -9l-13 -57q-19 1 -60 1q-68 0 -164 -6z"/>
<glyph unicode="." glyph-name="period" horiz-adv-x="257" d="M77 -4l5 83q18 3 50 5q37 4 48 7l-4 -89q-78 -3 -99 -6z"/>
<glyph unicode="/" glyph-name="slash" horiz-adv-x="346" d="M310 703l-268 -818l-37 15l265 815z"/>
<glyph unicode="0" glyph-name="zero" horiz-adv-x="483" d="M241 375q-66 0 -100 -46t-34 -123q0 -79 36 -128.5t103 -49.5t100 51.5t33 130.5q0 72 -38.5 118.5t-99.5 46.5zM243 419q93 0 148.5 -52t55.5 -137q0 -110 -66.5 -178t-146.5 -68q-89 0 -143 58t-54 148q0 100 64 164.5t142 64.5z"/>
<glyph unicode="1" glyph-name="one" horiz-adv-x="303" d="M188 269v-179q0 -32 5 -42q9 -7 40.5 -16t61.5 -13l-8 -24q-70 7 -130 7q-59 0 -138 -7l4 26q67 8 98 29q4 9 4 42v136q0 70 -5 106q-46 0 -84 -5l-11 23q88 22 165 63l7 -4q-9 -51 -9 -142z"/>
<glyph unicode="2" glyph-name="two" horiz-adv-x="400" d="M50 279l-14 82q102 58 161 58q53 0 89 -24.5t36 -79.5q0 -42 -27 -80.5t-79 -89.5q-25 -25 -111 -95h23q110 0 181 14q20 26 35 73l16 -4q-9 -56 -14 -136q-48 3 -155 3q-99 0 -179 -4l-7 18q78 51 161 133q45 44 66.5 76t21.5 68q0 42 -26.5 60t-58.5 18q-44 0 -82 -19 q-8 -27 -17 -71h-20z"/>
<glyph unicode="3" glyph-name="three" horiz-adv-x="378" d="M51 281l-15 82q33 20 77.5 38t72.5 18q56 0 91.5 -29t35.5 -82q0 -49 -40.5 -86.5t-74.5 -45.5q48 0 88.5 -30.5t40.5 -93.5q0 -72 -54.5 -133.5t-129.5 -85.5q-89 -20 -130 -25l-13 25q253 47 253 195q0 62 -39.5 90t-100.5 28h-26q4 15 9 29q54 0 99 32.5t45 88.5 q0 44 -22.5 59.5t-60.5 15.5q-39 0 -71 -16q-2 -9 -16 -74h-19z"/>
<glyph unicode="4" glyph-name="four" horiz-adv-x="458" d="M276 54v282l-196 -282h196zM420 6h-82v-75q0 -48 7 -92l-69 -19v185h-63q-60 0 -172 -5l-20 27q128 174 263 382q21 1 64 8q-8 -71 -8 -166v-196q68 0 102 6z"/>
<glyph unicode="5" glyph-name="five" horiz-adv-x="382" d="M332 417l-26 -65q-31 2 -93 2q-57 0 -81 -3q-12 -59 -15 -108q6 1 21 1q74 0 130.5 -38.5t56.5 -118.5q0 -78 -46.5 -142.5t-119.5 -100.5q-59 -24 -147 -39l-12 24q118 25 187 84.5t69 148.5q0 63 -39 94t-104 31q-19 0 -40 -3l30 230q31 -4 99 -4q65 0 130 7z"/>
<glyph unicode="6" glyph-name="six" horiz-adv-x="440" d="M123 218q0 -71 30 -130t83 -59q43 0 68 38t25 87q0 62 -31.5 95.5t-75.5 33.5q-27 0 -69 -18l-7 13q20 13 37 21q59 34 84 34q51 0 89.5 -44.5t38.5 -101.5q0 -74 -61.5 -138.5t-117.5 -64.5q-75 0 -119.5 67t-44.5 153q0 91 37 170.5t99 123.5q75 53 166 79l20 -22 q-30 -10 -95 -46q-46 -27 -77 -63q-79 -92 -79 -228z"/>
<glyph unicode="7" glyph-name="seven" horiz-adv-x="400" d="M130 -188l-68 30q70 183 252 506q-74 6 -147 6q-36 0 -80 -4q-8 -30 -12 -77l-15 -1l-35 142q65 -4 149 -4q106 0 208 7l7 -24q-36 -50 -68 -112q-122 -242 -191 -469z"/>
<glyph unicode="8" glyph-name="eight" horiz-adv-x="417" d="M136 442q0 -33 23 -59t71 -59q74 74 74 131q0 36 -23.5 55.5t-62.5 19.5q-36 0 -59 -24.5t-23 -63.5zM305 134q0 45 -32.5 76.5t-83.5 58.5q-75 -69 -75 -136q0 -43 25 -76.5t67 -33.5q44 0 71.5 31t27.5 80zM364 462q0 -66 -116 -152q40 -25 62.5 -41.5t42 -42.5 t19.5 -53q0 -67 -57.5 -128t-117.5 -61q-72 0 -111.5 37t-39.5 95q0 45 32 84.5t89 85.5q-29 17 -46.5 30.5t-35.5 40.5t-18 57q0 60 59.5 109.5t108.5 49.5q62 0 95.5 -30t33.5 -81z"/>
<glyph unicode="9" glyph-name="nine" horiz-adv-x="435" d="M321 204q0 79 -26.5 127.5t-82.5 48.5q-39 0 -70 -39.5t-31 -95.5q0 -59 26.5 -98.5t77.5 -39.5q27 0 56 12l8 -14q-9 -5 -37 -21q-50 -28 -72 -28q-49 0 -87.5 49t-38.5 115q0 73 65 136.5t121 63.5q74 0 117.5 -48.5t43.5 -154.5q0 -104 -56.5 -208.5t-137.5 -146.5 q-61 -31 -124 -55l-17 21q54 22 102 56q21 14 51 44q48 51 80 124.5t32 151.5z"/>
<glyph unicode=":" glyph-name="colon" horiz-adv-x="257" d="M75 -4l5 83q20 4 51 5q38 4 48 7l-4 -89q-77 -3 -100 -6zM78 299l5 84q20 4 51 5q39 4 49 7l-5 -89q-63 0 -100 -7z"/>
<glyph unicode=";" glyph-name="semicolon" horiz-adv-x="257" d="M80 303l5 83q18 3 50 5q11 2 27.5 3.5t21.5 2.5l-5 -88q-78 -3 -99 -6zM60 24l47 82q32 -15 58.5 -43t26.5 -51q0 -28 -31.5 -75.5t-64.5 -80.5l-16 19q51 62 51 103q0 18 -23 30.5t-48 15.5z"/>
<glyph unicode="&lt;" glyph-name="less" horiz-adv-x="433" d="M386 374v-47l-260 -109l254 -102v-44l-9 -6q-166 73 -330 133l16 38q142 53 319 141z"/>
<glyph unicode="=" glyph-name="equal" horiz-adv-x="411" d="M47 244l12 56h322l9 -9l-11 -41q-21 1 -75 1q-170 0 -257 -7zM34 115l12 56h322l9 -9l-11 -41q-21 1 -75 1q-170 0 -257 -7z"/>
<glyph unicode="&gt;" glyph-name="greater" horiz-adv-x="416" d="M48 328v48l10 6q226 -112 326 -148l-15 -41q-175 -66 -307 -126l-9 7v44l253 98z"/>
<glyph unicode="?" glyph-name="question" horiz-adv-x="319" d="M88 -8l6 69q17 3 41 4q28 2 40 5l-3 -73q-39 0 -84 -5zM227 484q0 39 -29.5 60.5t-60.5 21.5q-39 0 -89 -25l-10 16q91 59 123 59q55 0 93.5 -27.5t38.5 -84.5q0 -73 -84 -140q-34 -26 -42 -34q-11 -49 -16 -176l-36 -16l-12 187q46 29 85 71t39 88z"/>
<glyph unicode="@" glyph-name="at" horiz-adv-x="814" d="M375 44q21 0 60 25t58 49q7 82 7 218q-57 34 -102 34q-38 0 -69 -64.5t-31 -132.5q0 -62 21.5 -95.5t55.5 -33.5zM575 33q15 0 39 30.5t45.5 94.5t21.5 138q0 108 -66 180.5t-179 72.5q-148 0 -235.5 -108.5t-87.5 -268.5q0 -157 82 -237t198 -80q51 0 133 18l6 -23 q-28 -11 -79 -22t-82 -11q-62 0 -118.5 22t-102 63.5t-72 109.5t-26.5 153q0 182 108 301.5t287 119.5q140 0 218 -81t78 -206q0 -122 -66 -218t-151 -96l-11 4q-15 24 -25 93q-103 -98 -141 -98q-44 0 -75.5 46t-31.5 126q0 98 66 176t121 78q42 0 98 -22l28 25l18 -7 q-8 -20 -14 -98q-10 -138 -10 -213q0 -25 7 -43.5t19 -18.5z"/>
<glyph unicode="A" glyph-name="A" horiz-adv-x="660" d="M308 541l-88 -244h179zM488 74l-73 183h-211l-72 -189q-3 -9 -3 -16q0 -10 32.5 -17t69.5 -10l-13 -28q-65 5 -104 5q-46 0 -99 -5l8 25q40 7 54 36q18 34 111 270.5t105 282.5l59 9q25 -81 117.5 -306.5t106.5 -247.5q23 -36 79 -44l-11 -24q-60 5 -117 5q-49 0 -117 -6 l8 25q77 6 77 24q0 12 -7 28z"/>
<glyph unicode="B" glyph-name="B" horiz-adv-x="555" d="M203 565q-6 -19 -6 -61v-174h20q75 0 120.5 32.5t45.5 101.5q0 111 -110 111q-57 0 -70 -10zM197 296v-146q0 -52 5 -77q3 -15 11 -23q17 -15 70 -15q142 0 142 140q0 61 -49 92t-116 31q-35 0 -63 -2zM47 612q45 -6 91 -6q21 0 65 2q25 3 74 3q180 0 180 -128 q0 -64 -36.5 -104t-87.5 -55q172 -13 172 -144q0 -83 -53 -132.5t-155 -49.5q-18 0 -54 2q-50 2 -76 2q-65 0 -122 -6l5 27q40 3 64 25q9 22 9 110v310q0 72 -10 96q-20 17 -60 19z"/>
<glyph unicode="C" glyph-name="C" horiz-adv-x="630" d="M139 323q0 -124 69 -211t174 -87q78 0 128 31q32 38 69 113l11 -8q-25 -92 -38 -157q-90 -20 -182 -20q-84 0 -154.5 35t-116.5 111t-46 181q0 98 53 169q38 51 114.5 97.5t127.5 46.5q53 0 114.5 -13.5t97.5 -28.5q-2 -61 -2 -172l-14 -4q-34 101 -40 115 q-64 51 -177 51q-85 0 -136.5 -74.5t-51.5 -174.5z"/>
<glyph unicode="D" glyph-name="D" horiz-adv-x="688" d="M201 516v-417q0 -32 3 -47q42 -17 117 -17q110 0 172 75t62 206q0 122 -72.5 188.5t-182.5 66.5q-67 0 -92 -11q-7 -10 -7 -44zM305 614q137 0 235 -84t98 -208q0 -158 -90.5 -243t-220.5 -85q-50 0 -124 4q-39 3 -74 3q-41 0 -82 -4l8 25q45 4 64 20q8 22 8 62v432 q0 26 -8 37q-12 10 -65 15l-9 25q36 -5 88 -5q39 0 84 3t88 3z"/>
<glyph unicode="E" glyph-name="E" horiz-adv-x="536" d="M487 166l19 -1q-15 -85 -45 -169q-74 6 -184 6q-113 0 -232 -5l8 25q16 2 37 8t29 12q8 19 8 55v432q0 27 -8 37q-16 12 -61 16l-9 29q55 -4 160 -4q134 0 232 11q4 -129 8 -177l-13 -1q-27 74 -44 109q-5 11 -12 12q-17 4 -81 4q-84 0 -94 -7q-4 -10 -4 -49v-167 q17 -1 66 -1q67 0 97 3l24 56l13 -2q-3 -45 -3 -76q0 -61 5 -97l-14 -1l-30 65q-25 2 -91 2q-49 0 -68 -1v-197q0 -29 5 -42q45 -6 116 -6q35 0 69 2q34 4 41 15q25 33 56 104z"/>
<glyph unicode="F" glyph-name="F" horiz-adv-x="498" d="M401 224l-30 66q-34 2 -86 2q-43 0 -89 -3v-193q0 -39 7 -48q21 -14 119 -22l-11 -27q-60 3 -149 3q-78 0 -117 -3l8 25q45 6 62 20q8 20 8 60v424q0 28 -8 38q-18 13 -61 17l-9 26q82 -3 164 -3q129 0 241 12q3 -95 10 -181l-21 -1q-31 103 -47 125q-18 6 -84 6 q-85 0 -107 -8q-4 -11 -4 -45v-171q26 -1 91 -1q38 0 86 4l26 57l14 -1q-5 -31 -5 -81t6 -96z"/>
<glyph unicode="G" glyph-name="G" horiz-adv-x="681" d="M584 185v-77q0 -48 8 -83q-78 -41 -219 -41q-135 0 -227.5 88.5t-92.5 237.5q0 102 52 170q37 49 116.5 95.5t128.5 46.5q55 0 124 -13t102 -28q-2 -56 -2 -87q0 -29 2 -87l-18 -4q-20 73 -38 115q-28 24 -78.5 39t-106.5 15q-87 0 -141.5 -72.5t-54.5 -182.5 q0 -116 68.5 -204t180.5 -88q70 0 123 33v122q0 36 -6 47q-26 14 -63 17l-10 26q47 -3 106 -3q58 0 99 3l4 -23q-34 -4 -52 -17q-5 -12 -5 -45z"/>
<glyph unicode="H" glyph-name="H" horiz-adv-x="712" d="M517 336v186q0 25 -7 41q-20 13 -68 18l-8 28q99 -3 117 -3q20 0 101 3l6 -27q-45 -4 -62 -15q-6 -20 -6 -65v-408q0 -30 4 -46q21 -15 88 -24l-10 -25q-50 3 -110 3q-56 0 -111 -3l7 25q41 8 52 22q7 26 7 67v178h-318v-206q0 -26 4 -39q18 -14 84 -24l-8 -23 q-42 3 -96 3q-53 0 -121 -4l5 25q40 8 53 21q5 17 5 47v436q0 28 -8 40q-22 13 -65 15l-7 30q72 -5 137 -5q35 0 85 2l4 -26q-49 -5 -66 -16q-6 -17 -6 -72v-159h318z"/>
<glyph unicode="I" glyph-name="I" horiz-adv-x="321" d="M128 114v415q0 28 -8 38q-19 12 -65 16l-9 30q51 -5 130 -5q54 0 97 3l5 -28q-56 -5 -71 -17q-6 -12 -6 -44v-428q0 -39 4 -48q23 -15 93 -24l-11 -23q-63 3 -113 3t-124 -3l8 26q44 5 62 20q8 21 8 69z"/>
<glyph unicode="J" glyph-name="J" horiz-adv-x="304" d="M192 520v-375q0 -106 -3 -153q-4 -72 -36 -117q-50 -70 -126 -142l-17 24q68 84 92 171q15 58 15 185v414q0 30 -8 38q-21 12 -65 16l-8 30q51 -5 133 -5q36 0 94 2l6 -27q-57 -5 -72 -17q-5 -13 -5 -44z"/>
<glyph unicode="K" glyph-name="K" horiz-adv-x="626" d="M380 584l-7 25q52 -4 95 -4q62 0 99 4l10 -25q-59 -11 -128 -75q-113 -105 -173 -174q33 -47 103 -126t110 -116q46 -42 123 -44l-12 -30q-18 -2 -61 -11t-61 -16l-13 5q-110 140 -250 311v15l215 229q6 6 6 10t-7 7q-24 11 -49 15zM198 522l-1 -429q0 -30 4 -46 q23 -17 88 -24l-10 -25q-48 3 -110 3q-55 0 -111 -3l6 25q41 8 53 22q6 22 6 67v417q0 30 -7 38q-21 12 -65 16l-7 30q51 -5 132 -5q40 0 83 3l5 -28q-43 -4 -61 -17q-5 -13 -5 -44z"/>
<glyph unicode="L" glyph-name="L" horiz-adv-x="537" d="M485 166h32q-12 -36 -44 -170q-73 6 -187 6q-74 0 -234 -5l10 26q37 4 61 22q7 23 7 59v420q0 36 -7 45q-19 10 -72 15l-7 29q65 -5 141 -5q52 0 88 3l5 -27q-53 -6 -69 -16q-6 -16 -6 -67v-396q0 -42 8 -55q10 -5 81 -5q96 0 127 10q6 2 9 6q25 28 57 105z"/>
<glyph unicode="M" glyph-name="M" horiz-adv-x="865" d="M68 585l-7 28q78 -4 120 -4q9 0 19.5 0.5t23.5 1.5t21 1l196 -507l196 504q24 -1 68 -1q41 0 97 3l7 -27q-65 -7 -79 -19q-7 -17 -7 -52q0 -39 21 -417q2 -37 12 -49q11 -8 94 -24l-11 -26q-57 5 -110 5q-51 0 -136 -5l9 27q46 7 63 23q7 14 7 56q0 89 -21 420l-203 -518 l-39 -17l-220 560q-5 -77 -13 -253t-8 -209q0 -28 4 -41q36 -16 91 -23l-9 -23q-31 2 -98 2q-44 0 -110 -2l5 23q38 6 57 20q6 19 8 48q21 267 21 439q0 33 -7 40q-16 9 -62 16z"/>
<glyph unicode="N" glyph-name="N" horiz-adv-x="706" d="M603 513l-3 -396q0 -71 3 -117l-37 -18q-89 136 -396 548v-444q0 -28 5 -40q4 -5 38 -13.5t52 -10.5l-9 -23q-31 2 -96 2q-41 0 -105 -2l5 23q38 7 53 20q6 13 6 48v387q0 79 -7 90q-20 12 -60 16l-7 30q15 0 45 -2t45 -2q16 0 68 4l350 -488v396q0 35 -8 45 q-16 12 -67 17l-9 28q45 -4 106 -4q44 0 96 4l5 -28q-15 -1 -40 -6.5t-29 -9.5q-4 -8 -4 -54z"/>
<glyph unicode="O" glyph-name="O" horiz-adv-x="691" d="M358 37q93 0 149.5 81t56.5 187q0 108 -68.5 185.5t-160.5 77.5t-151 -74.5t-59 -175.5q0 -111 70.5 -196t162.5 -85zM356 624q128 0 206.5 -82t78.5 -201q0 -125 -59 -208q-43 -59 -115 -104t-135 -45q-110 0 -196 83.5t-86 207.5q0 112 54 187q43 62 116.5 112 t135.5 50z"/>
<glyph unicode="P" glyph-name="P" horiz-adv-x="535" d="M204 567q-6 -19 -6 -68v-349q0 -77 10 -98q6 -10 40.5 -18.5t61.5 -8.5l-13 -26q-51 3 -106 3q-71 0 -146 -6l6 26q47 2 64 26q8 18 8 116v331q0 56 -6 72q-15 13 -64 17l-7 30q50 -5 103 -5q13 0 28.5 0.5t34.5 1.5t30 1q18 1 49 1q94 0 149 -35t55 -109q0 -90 -62 -142 t-157 -52q-21 0 -26 1l3 28q75 0 116.5 39t41.5 115q0 67 -34 92t-99 25q-64 0 -74 -8z"/>
<glyph unicode="Q" glyph-name="Q" horiz-adv-x="696" d="M358 36q96 0 151 80.5t55 188.5q0 105 -67 183.5t-164 78.5q-91 0 -149 -75.5t-58 -178.5q0 -102 69 -189.5t163 -87.5zM356 624q129 0 207.5 -83t78.5 -204q0 -122 -59 -204q-52 -73 -121 -108q12 -25 60 -70.5t80 -58.5q21 -10 47 -10q10 0 14 1l5 -11q-45 -16 -66 -16 q-19 0 -69.5 25t-88.5 50q-62 39 -95 58q-50 3 -67 6q-94 16 -163 92t-69 184q0 110 55 187q44 62 116 112t135 50z"/>
<glyph unicode="R" glyph-name="R" horiz-adv-x="620" d="M196 504v-183q18 -4 44 -4q74 0 117.5 36.5t43.5 105.5q0 116 -133 116q-55 0 -65 -8q-7 -13 -7 -63zM295 286q-33 -3 -58 -3q-11 0 -41 2v-135q0 -78 8 -98q7 -11 42.5 -19t62.5 -8l-13 -26q-105 3 -117 3q-67 0 -134 -6l5 26q46 2 65 26q10 23 10 138v282q0 88 -9 99 q-14 13 -65 18l-6 30q68 -6 106 -6q11 0 24 0.5t29.5 1.5t26.5 1q17 1 57 1q195 0 195 -138q0 -112 -132 -177q34 -65 79 -131t83 -98t98 -34l-5 -26q-58 -8 -112 -27l-11 6q-40 46 -95.5 136t-92.5 162z"/>
<glyph unicode="S" glyph-name="S" horiz-adv-x="513" d="M427 593l-6 -148h-23q-24 67 -35 83q-12 16 -46 30.5t-80 14.5q-31 0 -61 -31.5t-30 -74.5q0 -38 36 -66t100 -56q42 -19 63 -30t51 -32t43.5 -45.5t13.5 -54.5q0 -77 -62 -138.5t-134 -61.5q-44 0 -102 8t-88 20q5 70 5 125q0 31 -1 46l26 4q5 -28 17 -69t20 -52 q38 -40 128 -40q53 0 88 35.5t35 84.5q0 41 -35.5 68t-105.5 58q-38 17 -61.5 29.5t-51.5 33.5t-41.5 46.5t-13.5 56.5q0 48 63 116.5t108 68.5q74 0 180 -29z"/>
<glyph unicode="T" glyph-name="T" horiz-adv-x="624" d="M69 426l-23 -1q2 60 2 103q0 61 -1 90q101 -13 271 -13q159 0 270 13q-30 -106 -45 -191l-22 -1q-5 75 -11 134q-45 5 -112 5q-31 0 -57 -2v-465q0 -40 6 -45q25 -21 99 -31l-11 -24q-55 5 -115 5q-76 0 -139 -6l11 27q49 7 68 23q8 9 8 51v465q-34 2 -63 2q-55 0 -90 -3 q-30 -79 -46 -136z"/>
<glyph unicode="U" glyph-name="U" horiz-adv-x="696" d="M596 492v-179q0 -72 -7 -121q-15 -105 -76 -156.5t-157 -51.5q-192 0 -230 156q-11 46 -11 124v250q0 42 -8 54q-16 10 -63 15l-9 26q70 -2 126 -2q45 0 97 2l5 -24q-17 -1 -39.5 -6.5t-26.5 -10.5q-6 -16 -6 -73v-204q0 -61 8 -117q23 -147 176 -147q65 0 107 38t53 102 q9 48 9 104v250q0 36 -7 45q-6 6 -29 11.5t-41 6.5l-7 25q68 -2 112 -2q34 0 88 2l5 -23q-45 -5 -63 -17q-6 -14 -6 -77z"/>
<glyph unicode="V" glyph-name="V" horiz-adv-x="651" d="M338 98l183 441q3 7 3 13q0 11 -12 15q-16 8 -68 19l-9 25q49 -5 109 -5q40 0 87 5l6 -24q-37 -9 -54 -38q-20 -35 -122 -267.5t-114 -277.5l-40 -19q-43 117 -126 329t-94 229q-19 29 -64 41l-9 25q48 -4 107 -4q61 0 120 6l9 -23q-34 -3 -66 -12q-14 -4 -14 -13t7 -27z "/>
<glyph unicode="W" glyph-name="W" horiz-adv-x="897" d="M487 389l60 167q2 8 2 10q0 8 -9 11q-19 6 -53 6q-31 0 -55 -7q-8 -3 -8 -10q0 -6 3 -13zM612 92l163 455q2 8 2 10q0 11 -12 15q-30 11 -72 16l-8 25q14 -1 50.5 -3t53.5 -2q43 0 92 5l2 -25q-31 -8 -46 -34q-17 -29 -109 -265t-106 -285l-37 -19q-45 123 -121 290 q-74 -177 -103 -271l-44 -19q-45 117 -133 330t-99 230q-20 29 -65 40l-8 26q48 -5 111 -5q58 0 113 7l7 -25q-43 -7 -66 -15q-12 -4 -12 -14q0 -5 5 -17l180 -448l93 235q-72 182 -92 216q-17 26 -60 41l-7 26q58 -6 159 -6q72 0 186 6l6 -24q-29 -7 -45 -34 q-13 -25 -83 -204z"/>
<glyph unicode="X" glyph-name="X" horiz-adv-x="656" d="M364 317q136 -196 186 -244q41 -38 91 -47l-9 -27q-47 4 -99 4q-43 0 -145 -7l8 26q33 4 54 13q11 3 11 11t-9 20l-139 192q-82 -104 -139 -188q-5 -7 -5 -12q0 -6 6 -9q35 -18 101 -27l-11 -24q-67 5 -121 5q-55 0 -125 -5l6 29q36 3 66.5 30t77.5 84q51 62 119 154 q-156 220 -204 262q-18 17 -56 25l-13 30q35 -5 108 -5q80 0 135 6l9 -25q-45 -7 -65 -17q-8 -4 -8 -10q0 -3 3 -9q13 -24 60.5 -91t81.5 -110q33 40 86.5 111t65.5 90q2 4 2 6q0 7 -8 10q-25 9 -66 17l-12 27q70 -5 110 -5q56 0 97 4l7 -24q-26 -6 -58 -31t-57 -55 q-62 -76 -142 -184z"/>
<glyph unicode="Y" glyph-name="Y" horiz-adv-x="572" d="M254 99l1 151q-162 287 -166 292q-23 30 -69 42l-10 27q47 -5 105 -5q63 0 121 6l8 -23q-47 -7 -71 -17q-7 -3 -7 -8q0 -1 2 -7q10 -28 143 -264l131 250q4 8 4 13q0 9 -8 12q-21 9 -72 19l-12 25q50 -5 106 -5q34 0 87 5l6 -23q-25 -6 -50 -37q-28 -32 -175 -303v-145 q0 -47 6 -58q34 -20 99 -27l-11 -23q-68 6 -118 6q-56 0 -132 -6l10 26q46 7 65 22q7 10 7 55z"/>
<glyph unicode="Z" glyph-name="Z" horiz-adv-x="619" d="M571 185l-37 -189q-108 4 -234 4q-152 0 -232 -4l-12 35q50 45 105 120l299 407q-28 3 -120 3q-164 0 -191 -5q-26 -41 -55 -128l-17 1l11 183q94 -6 217 -6q150 0 249 10l12 -37q-41 -44 -102 -127l-296 -407q21 -1 93 -1q193 0 219 10q8 6 32.5 50t40.5 81h18z"/>
<glyph unicode="[" glyph-name="bracketleft" horiz-adv-x="314" d="M257 667l-4 -29q-54 0 -84 -5v-718q36 -12 87 -12l-5 -29h-18q-43 0 -119 -6q5 55 5 121v478q0 173 -6 213q80 -13 144 -13z"/>
<glyph unicode="\" glyph-name="backslash" horiz-adv-x="318" d="M286 -125l-272 828l41 12l269 -825z"/>
<glyph unicode="]" glyph-name="bracketright" horiz-adv-x="314" d="M56 638l-4 29q64 0 144 13q-6 -40 -6 -213v-478q0 -66 5 -121q-76 6 -119 6h-18l-5 29q51 0 87 12v718q-30 5 -84 5z"/>
<glyph unicode="^" glyph-name="asciicircum" horiz-adv-x="430" d="M238 695l167 -428l-30 -16l-157 345l-157 -347l-36 6l172 422z"/>
<glyph unicode="_" glyph-name="underscore" horiz-adv-x="515" d="M-22 -110v38h552v-38h-552z"/>
<glyph unicode="`" glyph-name="grave" horiz-adv-x="319" d="M238 482l-18 -22q-37 19 -103 74t-86 81l73 35q17 -30 58.5 -83.5t75.5 -84.5z"/>
<glyph unicode="a" glyph-name="a" horiz-adv-x="422" d="M254 82v115q-40 -4 -76 -15q-72 -23 -72 -75q0 -26 16 -44t47 -18t85 37zM406 60l9 -18q-97 -58 -125 -58q-30 0 -36 69q-98 -69 -134 -69q-38 0 -65.5 34t-27.5 70q0 45 20.5 66t70.5 38q40 14 136 36v66q0 40 -15.5 58t-51.5 18q-42 0 -61 -17l-2 -55q-20 -9 -60 -20 q-5 5 -5 20q0 37 11 50q16 18 72.5 45t84.5 27q49 0 73.5 -28.5t24.5 -77.5v-223q0 -27 3 -35.5t13 -8.5q26 0 65 13z"/>
<glyph unicode="b" glyph-name="b" horiz-adv-x="484" d="M125 313v-240q66 -42 122 -42q54 0 84.5 51t30.5 122q0 69 -35.5 110t-89.5 41q-47 0 -112 -42zM-17 642l-4 23q95 2 153 18q-7 -85 -7 -203v-135q98 75 141 75q77 0 124.5 -60t47.5 -136q0 -80 -53 -141q-35 -41 -81.5 -70t-90.5 -29q-41 0 -91 19.5t-72 33.5 q6 68 6 135v373q0 72 -10 85q-24 12 -63 12z"/>
<glyph unicode="c" glyph-name="c" horiz-adv-x="396" d="M220 420q88 0 136 -23q-17 -42 -38 -67q-66 45 -107 45q-48 0 -81 -40t-33 -115q0 -71 37 -122t89 -51q56 0 126 34l7 -27q-113 -70 -167 -70q-76 0 -122 65t-46 140q0 79 37 126q24 32 77 68.5t85 36.5z"/>
<glyph unicode="d" glyph-name="d" horiz-adv-x="502" d="M330 92v235q-79 43 -125 43q-47 0 -77.5 -49.5t-30.5 -110.5q0 -72 34 -115t93 -43q46 0 106 40zM488 58l8 -19l-142 -64l-7 3q-5 10 -11 37t-6 45q-98 -76 -140 -76q-77 0 -124 61.5t-47 137.5q0 81 51 140q29 34 87 65.5t85 31.5q35 0 90 -24v128q0 88 -6 101 q-27 15 -70 15l-6 22q88 5 164 24q-13 -84 -13 -187v-413q0 -22 4.5 -30t18.5 -8q19 0 64 10z"/>
<glyph unicode="e" glyph-name="e" horiz-adv-x="400" d="M193 370q-39 0 -66.5 -40t-27.5 -80q133 12 193 26q0 32 -24 63t-75 31zM351 81l7 -27q-118 -70 -167 -70q-73 0 -121 64.5t-48 131.5q0 80 36 131q20 31 76.5 70t87.5 39q66 0 104 -46.5t38 -108.5l-32 -26q-50 -8 -234 -17q0 -68 36.5 -121t91.5 -53q50 0 125 33z"/>
<glyph unicode="f" glyph-name="f" horiz-adv-x="319" d="M9 380l81 35v79q0 70 17 94q27 37 64.5 67.5t62.5 30.5q59 0 127 -14q-12 -46 -33 -80q-67 45 -112 45q-35 0 -46 -33.5t-11 -118.5v-68h32q55 0 104 3l-11 -53h-126v-270q0 -36 7 -44q4 -8 36.5 -18t62.5 -14l-9 -23q-62 5 -114 5q-47 0 -125 -5l4 23q45 11 62 29 q8 14 8 44v271h-71z"/>
<glyph unicode="g" glyph-name="g" horiz-adv-x="445" d="M92 282q0 -49 31.5 -89.5t75.5 -40.5q38 0 57 24.5t19 62.5q0 48 -28.5 92.5t-76.5 44.5q-38 0 -58 -27.5t-20 -66.5zM344 -110q0 48 -97 67q-79 15 -123 18q-39 -32 -39 -67q0 -49 39.5 -83.5t111.5 -34.5q37 0 72.5 26.5t35.5 73.5zM341 263q0 -62 -38 -98.5t-84 -52.5 q-56 -20 -75.5 -30.5t-19.5 -22.5q0 -26 90 -34q45 -4 75.5 -9.5t59.5 -17.5t43.5 -32.5t14.5 -50.5q0 -53 -68 -111.5t-139 -58.5q-87 0 -140 46.5t-53 115.5q1 7 13 21q24 30 77 69q-14 8 -26.5 29t-12.5 45q4 3 42 19.5t49 22.5q-53 11 -89 50t-36 89q0 71 47.5 118 t103.5 47q19 0 35.5 -2t29 -5.5t20 -6.5t16 -7t9.5 -5q6 -1 19 -1q42 0 94 16l19 -58h-101q25 -28 25 -85z"/>
<glyph unicode="h" glyph-name="h" horiz-adv-x="509" d="M75 84v507q0 32 -7 36q-19 14 -72 14l-8 21q107 12 168 33q-10 -85 -10 -144v-206q30 18 67 42q53 33 71 33q25 0 55.5 -13t48.5 -32q33 -38 33 -116v-177q0 -34 6 -39q24 -17 70 -25l-7 -21q-45 4 -89 4q-41 0 -93 -4l3 21q27 7 36 19q5 10 5 42v133q0 44 -3 66 q-6 38 -31.5 58.5t-56.5 20.5q-47 0 -115 -46v-224q0 -35 6 -45q14 -14 66 -24l-7 -20q-72 4 -100 4q-31 0 -95 -4l4 21q27 6 50 22q5 7 5 43z"/>
<glyph unicode="i" glyph-name="i" horiz-adv-x="254" d="M124 500l-47 45q30 42 56 89l58 -47q-33 -50 -67 -87zM157 311v-233q0 -22 7 -33q30 -17 70 -26l-8 -20q-33 4 -94 4t-106 -4l3 20q34 11 55 29q6 18 6 40v174q0 88 -11 101q-31 12 -59 12l-6 19q77 6 149 23q-6 -55 -6 -106z"/>
<glyph unicode="j" glyph-name="j" horiz-adv-x="224" d="M110 500l-47 45q30 42 56 89l58 -47q-33 -50 -67 -87zM146 31q0 -99 -35 -155q-17 -27 -119 -140l-14 25q69 91 88 151q13 41 13 135v218q0 86 -11 98q-29 12 -60 12l-6 19q77 6 150 23q-6 -55 -6 -106v-280z"/>
<glyph unicode="k" glyph-name="k" horiz-adv-x="484" d="M304 367q-19 6 -55 14l-7 25q30 -3 69 -3q74 0 119 8l10 -25q-48 -10 -90 -38q-62 -43 -124 -105q79 -110 142 -168q36 -34 95 -34l-3 -21q-44 -4 -103 -28l-12 4q-74 92 -185 226v14q103 85 144 131zM153 572v-500q0 -26 6 -31q20 -16 70 -20l-4 -23q-55 3 -105 3 q-42 0 -89 -3l3 22q19 4 42 20q5 8 5 38v493q0 47 -9 57q-31 16 -69 18q-1 2 -4 9.5t-4 10.5q107 8 166 27q-8 -43 -8 -121z"/>
<glyph unicode="l" glyph-name="l" horiz-adv-x="252" d="M154 549v-450q0 -42 4 -49q22 -19 78 -29l-8 -22q-40 4 -96 4q-74 0 -118 -4l3 21q34 8 61 30q4 12 4 44v439q0 83 -10 92q-24 15 -69 17l-7 20q96 7 165 23q-7 -62 -7 -136z"/>
<glyph unicode="m" glyph-name="m" horiz-adv-x="775" d="M614 37q5 7 5 33v142q0 40 -3 66q-4 35 -25 56t-55 21q-42 0 -115 -49v-228q0 -31 5 -37q30 -16 72 -21l-6 -21q-46 2 -88 2q-40 0 -98 -2l5 21q16 3 36 18q4 11 4 42v132q0 47 -3 65q-5 38 -25.5 59t-53.5 21q-44 0 -119 -47v-230q0 -30 4 -35q28 -18 69 -25l-7 -21 q-34 3 -81 3q-51 0 -112 -3l3 21q29 8 49 26q2 8 2 26v227q0 48 -11 59q-15 12 -61 12l-6 17q54 11 134 39q10 -49 14 -82q6 3 43 26q81 50 98 50q37 0 71 -22t51 -57h5q22 12 44 27q77 49 100 49q47 0 87 -34q25 -21 33 -49.5t8 -80.5v-183q0 -22 6 -27q24 -17 70 -25 l-7 -21q-45 4 -89 4q-41 0 -92 -4l3 21q26 7 36 19z"/>
<glyph unicode="n" glyph-name="n" horiz-adv-x="516" d="M153 344q23 13 45 30q71 46 90 46q51 0 96 -37q43 -34 43 -118v-195q0 -21 7 -27q22 -17 69 -25l-6 -21q-46 4 -90 4q-40 0 -92 -4l3 21q27 7 36 19q6 14 6 33v142q0 41 -4 66q-4 32 -27 55.5t-61 23.5q-39 0 -114 -47v-225q0 -35 5 -43q24 -16 68 -21l-7 -23 q-45 4 -93 4q-67 0 -104 -4l2 23q31 5 54 22q3 9 3 40v210q0 49 -10 63q-24 11 -63 13l-4 17q77 18 131 41q9 -30 17 -83z"/>
<glyph unicode="o" glyph-name="o" horiz-adv-x="470" d="M98 225q0 -78 41.5 -135t108.5 -57q54 0 81 42t27 103q0 82 -40 139t-103 57q-54 0 -84.5 -44.5t-30.5 -104.5zM224 420q95 0 150 -58.5t55 -138.5q0 -91 -43 -146q-26 -33 -71.5 -63t-84.5 -30q-93 0 -149.5 62t-56.5 148q0 72 51 136q25 31 69 60.5t80 29.5z"/>
<glyph unicode="p" glyph-name="p" horiz-adv-x="499" d="M144 313v-236q21 -14 58.5 -28t65.5 -14q49 0 79.5 49t30.5 113q0 76 -33.5 116.5t-90.5 40.5q-41 0 -110 -41zM141 8v-171q0 -35 8 -49q27 -20 86 -31l-9 -22q-49 4 -116 4q-43 0 -95 -4l4 22q33 10 50 29q5 11 5 45v451q0 57 -13 76q-13 10 -63 16l-7 17q82 15 138 37 q6 -25 14 -84q12 7 31.5 20t24.5 16q63 40 85 40q78 0 124 -57.5t46 -137.5q0 -83 -51 -142q-80 -92 -165 -92q-17 0 -50 6t-47 11z"/>
<glyph unicode="q" glyph-name="q" horiz-adv-x="477" d="M335 92v230q-71 48 -123 48q-48 0 -79.5 -49t-31.5 -112q0 -70 36 -113.5t93 -43.5q50 0 105 40zM405 315v-485q0 -36 5 -47q20 -11 74 -25l-9 -23q-36 3 -95 3q-66 0 -127 -3l4 23q53 11 75 27q4 12 4 49v226q-30 -25 -73 -50.5t-67 -25.5q-78 0 -125 61.5t-47 138.5 q0 78 51 139q30 35 86.5 66t86.5 31q22 0 76 -36q13 -10 30 -18q8 9 37 51l25 -7q-11 -46 -11 -95z"/>
<glyph unicode="r" glyph-name="r" horiz-adv-x="343" d="M27 -2l4 22q26 7 42 19q3 9 3 47v205q0 50 -11 65q-5 4 -25.5 9t-37.5 6l-5 17q49 9 128 40q6 -22 20 -82q17 26 40 51.5t35 25.5q45 0 103 -15q-15 -54 -33 -79q-53 35 -84 35q-15 0 -31.5 -19.5t-28.5 -45.5v-212q0 -31 4 -40q26 -18 82 -25l-6 -23q-38 3 -108 3 q-8 0 -20 -0.5t-33 -1.5t-38 -2z"/>
<glyph unicode="s" glyph-name="s" horiz-adv-x="358" d="M283 289h-18q-12 37 -21 56q-8 11 -32.5 20.5t-51.5 9.5q-23 0 -39.5 -15.5t-16.5 -41.5q0 -25 23 -42t65 -36q27 -12 43 -20t35.5 -22t29 -31.5t9.5 -39.5q0 -55 -43 -99t-103 -44q-27 0 -68 6.5t-60 15.5q5 47 5 121l21 4q8 -39 23 -74q33 -35 92 -35q31 0 52 17t21 48 t-23.5 49.5t-67.5 36.5q-58 24 -88 48.5t-30 66.5q0 35 46 83.5t75 48.5q50 0 128 -26q-6 -64 -6 -105z"/>
<glyph unicode="t" glyph-name="t" horiz-adv-x="305" d="M-3 382l80 33v128q25 10 77 41q-7 -41 -9 -123q-1 -15 -1 -45h23q58 0 105 4l-11 -53h-116v-231q0 -23 1 -36t4.5 -28t11.5 -21.5t22 -6.5q53 0 102 13l8 -21q-27 -12 -85.5 -32t-71.5 -20q-37 0 -49 32.5t-12 88.5v261h-71z"/>
<glyph unicode="u" glyph-name="u" horiz-adv-x="517" d="M348 62q-23 -12 -63 -40q-57 -38 -78 -38q-61 0 -95 42t-39 106q-1 7 -1 21v156q0 36 -3 42q-23 13 -69 17l-6 16q97 20 150 39q-3 -43 -3 -136v-89q0 -46 4 -72q4 -31 26 -55t57 -24q48 0 118 49v212q0 46 -8 55q-12 11 -55 18l-6 17q93 9 142 21q-3 -108 -3 -153v-158 q0 -41 5 -51q6 -12 32 -12q23 0 41 2l4 -14q-57 -18 -128 -54l-8 5q-11 32 -14 78z"/>
<glyph unicode="v" glyph-name="v" horiz-adv-x="443" d="M224 -5l-35 -11q-15 35 -69.5 165t-65.5 158q-22 47 -32 55q-14 12 -31 13l-9 21q58 3 119 18q14 -64 43 -141q25 -69 73 -193l110 256q5 11 5 18t-7 10q-10 4 -30 11t-26 9l-5 19h35q54 0 109 8l9 -16q-27 -30 -55 -91l-115 -250z"/>
<glyph unicode="w" glyph-name="w" horiz-adv-x="622" d="M409 -16l-114 314l-106 -303l-36 -11q-71 231 -101 317q-17 49 -30 62q-12 12 -33 12l-7 21q64 6 119 19q8 -43 30 -123l56 -187l101 302h42q14 -46 52.5 -156t55.5 -153l83 247q2 8 2 10q0 5 -7 9q-17 7 -61 21l-6 20q18 -1 55 -1q57 0 88 6l4 -19q-20 -23 -51 -107 l-102 -289z"/>
<glyph unicode="x" glyph-name="x" horiz-adv-x="446" d="M325 -9l-121 180l-84 -120q-4 -5 -4 -9t7 -7q14 -7 67 -19l-8 -18q-44 3 -83 3q-43 0 -94 -3l3 21q31 2 82 61q36 42 96 118l-87 130q-19 30 -40 42q-25 11 -44 14l-6 20q56 2 116 13q29 -58 107 -170q34 46 83 114q3 5 3 7q0 4 -5 6q-11 4 -45 16l-5 20q14 -1 44 -1 q65 0 104 7l6 -15q-45 -37 -66 -61l-102 -121q46 -70 70.5 -103t54.5 -61q25 -26 56 -30l-9 -20q-56 -4 -96 -14z"/>
<glyph unicode="y" glyph-name="y" horiz-adv-x="448" d="M382 322q-73 -150 -131 -295l-124 -302l-75 38q91 99 137 222q-19 47 -66 162.5t-57 140.5q-21 54 -37 72q-10 10 -32 14l-10 22q49 3 119 19q10 -52 39 -129l81 -220l117 280q2 6 2 9q0 7 -8 10q-24 8 -59 18l-6 21q15 -1 42 -1q60 0 105 8l4 -15q-14 -19 -41 -74z"/>
<glyph unicode="z" glyph-name="z" horiz-adv-x="420" d="M375 133l-13 -135q-56 2 -134 2q-104 0 -189 -4l-14 29q27 25 67 79q105 141 193 266h-13q-116 0 -171 -7q-15 -31 -20 -80l-16 -6l-28 127q21 -1 71 -1q184 0 256 12l10 -37q-27 -32 -55 -71l-194 -272h12q125 0 181 10q24 42 43 88h14z"/>
<glyph unicode="{" glyph-name="braceleft" horiz-adv-x="314" d="M55 283q40 25 59 45q7 10 7 29q17 195 40 271q24 25 83 49l8 -12q-23 -15 -39 -34q-7 -9 -10 -18q-23 -69 -23 -251v-38q-39 -29 -74 -41q42 -17 78 -41q0 -228 20 -310q3 -13 7 -19q20 -25 42 -38l-9 -16q-55 22 -83 48q-17 70 -36 288q-2 24 -10 39q-27 27 -60 49z"/>
<glyph unicode="|" glyph-name="bar" horiz-adv-x="237" d="M140 446v-615l-49 -16v852l60 18q-11 -86 -11 -239z"/>
<glyph unicode="}" glyph-name="braceright" horiz-adv-x="311" d="M248 283q-33 -22 -60 -49q-8 -15 -10 -39q-19 -218 -36 -288q-28 -26 -83 -48l-9 16q22 13 42 38q4 6 7 19q20 82 20 310q36 24 78 41q-35 12 -74 41v38q0 182 -23 251q-3 9 -10 18q-16 19 -39 34l8 12q59 -24 83 -49q23 -76 40 -271q0 -19 7 -29q19 -20 59 -45z"/>
<glyph unicode="~" glyph-name="asciitilde" horiz-adv-x="551" d="M172 291q-28 0 -67 -22t-60 -43l-9 20q15 17 37.5 40t57 50t51.5 27q31 0 110 -33q58 -25 108 -25q55 0 116 50l10 -20q-22 -26 -71 -62.5t-73 -36.5q-33 0 -105 28q-67 27 -105 27z"/>
<glyph unicode=" " glyph-name="uni00A0" horiz-adv-x="200"/>
<glyph unicode="¡" glyph-name="exclamdown" horiz-adv-x="247" d="M180 417l-4 -68q-17 -3 -41 -4q-28 -2 -40 -5l3 73q18 0 82 4zM150 267l14 -475q-42 -4 -103 -17q25 114 33 203l26 279z"/>
<glyph unicode="¢" glyph-name="cent" horiz-adv-x="416" d="M124 217q0 -68 27 -116t72 -60v334q-43 -11 -71 -50.5t-28 -107.5zM222 -97v83q-75 0 -119.5 63t-44.5 138q0 76 37 126q21 27 58.5 56.5t71.5 41.5v65l31 5v-64q74 -2 122 -23q-10 -28 -34 -63q-51 44 -89 44v-337q53 0 119 33l7 -25q-71 -42 -128 -57v-81z"/>
<glyph unicode="£" glyph-name="sterling" horiz-adv-x="375" d="M37 196l4 30h41q5 52 6 59q4 22 17 43q21 32 59.5 63.5t60.5 31.5q48 0 92 -20l-10 -97h-16q-6 29 -17 60q-23 18 -54 18q-30 0 -46.5 -24.5t-19.5 -56.5q-3 -33 -5 -77h125l-5 -31h-122q-3 -60 -15 -102q-11 -31 -31 -55h19q91 0 153 12q16 19 36 70h21 q-18 -85 -22 -124q-44 4 -118 4q-100 0 -155 -6l-9 20q31 12 38 34q16 50 18 148h-45z"/>
<glyph unicode="¤" glyph-name="currency" horiz-adv-x="456" d="M147 191q0 -41 24 -69t59 -28q34 0 56 35t22 79q0 40 -19.5 70t-53.5 30q-38 0 -63 -35t-25 -82zM354 4l-68 78q-38 -18 -67 -18q-32 0 -61 16l-66 -76l-38 31l72 72q-29 38 -29 76q0 59 43 108l-69 73l36 33l69 -80q34 19 66 19q39 0 66 -15l63 75l35 -30l-66 -73 q23 -33 23 -74q0 -54 -41 -111l66 -72z"/>
<glyph unicode="¥" glyph-name="yen" horiz-adv-x="389" d="M77 160l3 28h86q-58 103 -114 178q-16 20 -49 30l-7 20q44 -4 80 -4q40 0 85 5l6 -21q-21 0 -41 -8q-9 -3 -9 -11q0 -5 6 -14l93 -144q54 84 93 149q3 6 3 9q0 5 -7 7q-24 9 -50 12l-6 21q36 -4 75 -4q25 0 61 4l3 -20q-20 -7 -34 -25q-32 -38 -125 -185h102l-2 -27h-102 v-41h98l-3 -27h-95v-31q0 -25 3 -29q16 -10 72 -18l-7 -18q-52 5 -87 5q-34 0 -104 -5l6 20q39 3 57 13q5 8 5 38v26h-99l3 27h97v40h-96z"/>
<glyph unicode="¦" glyph-name="brokenbar" horiz-adv-x="237" d="M141 536v-219l-47 -15v365l55 18q-8 -62 -8 -149zM136 58v-225l-47 -17v401l56 19q-9 -57 -9 -178z"/>
<glyph unicode="§" glyph-name="section" horiz-adv-x="593" d="M441 66q0 43 -29 83t-82 89q-43 40 -68 67t-48 69.5t-23 83.5q0 62 37 103q-39 -18 -71.5 -65.5t-32.5 -99.5q0 -28 8 -53t26 -48.5t33 -39.5t42 -40q34 -31 50 -47t39.5 -45.5t33.5 -61t10 -67.5q0 -74 -36 -126q38 16 74.5 72.5t36.5 125.5zM443 421l-24 156 q-26 8 -49 8q-45 0 -77 -21.5t-32 -66.5q0 -56 33 -103t93 -104q39 -37 61 -61t41.5 -62t19.5 -76q0 -109 -90.5 -199t-193.5 -90q-111 0 -162 31l10 173l25 7q10 -103 29 -163q29 -9 55 -9q47 0 79.5 29.5t32.5 90.5q0 32 -8.5 59.5t-29 53.5t-35 40.5t-44.5 42.5 q-29 27 -44 42t-34.5 40.5t-28 53t-8.5 59.5q0 112 84 190t179 78q35 0 85.5 -8t71.5 -18l-17 -173h-22z"/>
<glyph unicode="¨" glyph-name="dieresis" horiz-adv-x="332" d="M234 473l-44 34q31 43 47 76l53 -36q-22 -36 -56 -74zM85 476l-44 35q27 36 47 76l55 -36q-36 -52 -58 -75z"/>
<glyph unicode="©" glyph-name="copyright" horiz-adv-x="754" d="M376 498q79 0 124 -16l-13 -112h-14q-2 6 -9 33.5t-8 32.5q-30 24 -87 24q-43 0 -74 -38t-31 -105q0 -68 36.5 -114.5t83.5 -46.5q54 0 98 37l12 -17q-17 -20 -60.5 -45.5t-68.5 -25.5q-72 0 -119.5 56t-47.5 127t32 114q23 31 70 63.5t76 32.5zM100 302 q0 -113 78.5 -194.5t190.5 -81.5q117 0 193 81t76 195q0 119 -76.5 200.5t-190.5 81.5t-192.5 -83.5t-78.5 -198.5zM52 302q0 133 92.5 227.5t224.5 94.5q138 0 228 -90t90 -232q0 -133 -92.5 -225.5t-225.5 -92.5q-132 0 -224.5 92.5t-92.5 225.5z"/>
<glyph unicode="ª" glyph-name="ordfeminine" horiz-adv-x="305" d="M170 394v75q-21 -2 -43 -9q-42 -12 -42 -47q0 -17 9 -28t25 -11q21 0 51 20zM278 388l8 -18q-61 -39 -82 -39q-25 0 -33 36q-56 -36 -79 -36q-29 0 -48 20.5t-19 49.5t14 43t49 27q34 12 82 22v41q0 24 -8 35t-27 11t-40 -8v-37q-29 -13 -45 -17q-6 9 -6 26q0 20 7 27 q10 12 50.5 29.5t60.5 17.5q66 0 66 -71v-150q0 -19 12 -19q10 0 38 10z"/>
<glyph unicode="«" glyph-name="guillemotleft" horiz-adv-x="430" d="M238 48l-24 -14q-35 43 -85.5 94.5t-82.5 79.5q76 60 169 177l23 -13q-60 -99 -115 -160q58 -67 115 -164zM374 48l-24 -14q-35 43 -85.5 94.5t-82.5 79.5q73 59 169 177l23 -13q-60 -100 -116 -160q46 -52 116 -164z"/>
<glyph unicode="¬" glyph-name="logicalnot" horiz-adv-x="391" d="M20 226l12 56h334q-1 -19 -1 -40q0 -79 3 -133l-54 7v117h-37q-170 0 -257 -7z"/>
<glyph unicode="­" glyph-name="uni00AD" horiz-adv-x="289" d="M25 194l14 66q14 -1 45 -1q75 0 168 6l10 -9l-13 -57q-19 1 -60 1q-68 0 -164 -6z"/>
<glyph unicode="®" glyph-name="registered" horiz-adv-x="425" d="M177 499v-57q4 -1 22 -1q54 0 54 46q0 42 -47 42q-17 0 -27 -5q-2 -8 -2 -25zM212 426h-35v-48q0 -19 3 -34q11 -6 38 -9l-4 -14h-98l2 12q14 3 21 10q3 9 3 35v111q0 30 -3 36q-7 3 -20 6l-3 15q15 -1 50 -1q9 0 27.5 1t24.5 1q36 0 55 -15.5t19 -42.5q0 -22 -17 -37 t-35 -21q29 -57 50 -80q14 -14 35 -23l-4 -7h-60q-23 40 -49 105zM50 428q0 -72 45 -120.5t117 -48.5q69 0 115 50t46 119q0 70 -45 119.5t-116 49.5q-68 0 -115 -50t-47 -119zM11 428q0 81 59.5 140.5t141.5 59.5q91 0 144 -57.5t53 -142.5q0 -82 -58 -141t-139 -59 q-95 0 -148 57t-53 143z"/>
<glyph unicode="¯" glyph-name="macron" horiz-adv-x="463" d="M104 509l7 34h237l-6 -23l-5 -30h-238z"/>
<glyph unicode="°" glyph-name="degree" horiz-adv-x="246" d="M78 476q0 -41 19.5 -64t50.5 -23q37 0 57.5 30.5t20.5 75.5q0 35 -19 58t-48 23q-40 0 -60.5 -29.5t-20.5 -70.5zM30 465q0 51 41 99t89 48q52 0 84 -27t32 -78q0 -69 -44.5 -112.5t-92.5 -43.5q-44 0 -76.5 28t-32.5 86z"/>
<glyph unicode="±" glyph-name="plusminus" horiz-adv-x="413" d="M174 259v120q29 4 61 16q-9 -54 -9 -117v-17h134l9 -9l-11 -37h-133v-123l-58 -10q6 93 6 102v28q-79 -1 -137 -6l12 53h126zM25 -6l12 56h322l9 -9l-11 -41q-21 1 -75 1q-170 0 -257 -7z"/>
<glyph unicode="²" glyph-name="twosuperior" horiz-adv-x="300" d="M39 606l-11 81q79 35 119 35q101 0 101 -79q0 -51 -64 -121q-32 -34 -92 -94q83 2 133 10q19 21 28 54l17 -4q-11 -71 -11 -105q-32 2 -112 2q-48 0 -130 -2l-7 17q41 32 104 101q70 76 70 129q0 25 -16 39.5t-42 14.5q-30 0 -52 -9q-3 -7 -6.5 -19.5t-7 -28.5t-5.5 -24z "/>
<glyph unicode="³" glyph-name="threesuperior" horiz-adv-x="300" d="M48 615l-12 104q55 -3 117 -3q61 0 106 3l2 -17q-20 -16 -36 -35l-63 -79q40 0 67.5 -20.5t27.5 -63.5q0 -51 -50 -88.5t-97 -37.5q-48 0 -88 19l27 55q56 -33 89 -33q29 0 47 18t18 47q0 33 -22.5 48.5t-57.5 15.5q-13 0 -18 -1l-9 17q11 7 25 22q11 11 69 84h-112 q-5 -12 -13 -57z"/>
<glyph unicode="´" glyph-name="acute" horiz-adv-x="290" d="M76 460l-17 21q37 29 80 82.5t60 84.5l71 -32q-22 -28 -88 -81.5t-106 -74.5z"/>
<glyph unicode="µ" glyph-name="mu" horiz-adv-x="503" d="M82 -3q-4 88 -4 233q0 111 -3 167q5 1 20.5 4.5t29 7t25.5 8.5q-5 -72 -5 -181q0 -59 6 -109q3 -31 26.5 -55.5t61.5 -24.5q26 0 60.5 16t58.5 33v122q0 103 -3 187q58 6 76 9q-4 -44 -4 -108v-180q0 -41 9.5 -60.5t36.5 -19.5q8 0 24 2t18 2l8 -13q-98 -52 -107 -52 q-27 0 -37 11q-12 13 -20 66q-11 -5 -76 -47q-47 -31 -65 -31q-25 0 -51 16t-40 36q1 -91 34 -165q14 -32 49 -52l-6 -17q-36 -5 -97 -23q-16 56 -25 218z"/>
<glyph unicode="¶" glyph-name="paragraph" horiz-adv-x="574" d="M310 507v-274q0 -45 6 -57q10 -6 32 -6q25 0 29 7q8 14 8 54v276q0 46 -5 61q-9 7 -32 7q-25 0 -33 -8q-5 -17 -5 -60zM434 479v-405q0 -73 -33 -126q-23 -34 -100 -95l-6 31q53 48 69 97q10 31 10 145q-149 0 -225.5 54t-76.5 192q0 253 258 253q31 0 98 -9q54 -7 85 -7 l7 -26q-34 0 -59 -7q-17 -5 -21 -20q-4 -16 -6 -77z"/>
<glyph unicode="·" glyph-name="periodcentered" horiz-adv-x="253" d="M83 183l-17 75q47 13 98 35q4 -31 19 -79q-47 -11 -100 -31z"/>
<glyph unicode="¸" glyph-name="cedilla" horiz-adv-x="238" d="M114 6l-10 -49q90 -18 90 -75q0 -32 -17.5 -56.5t-43.5 -36.5q-60 -11 -86 -12l-9 19q114 17 114 68q0 22 -28.5 33t-62.5 13l-5 5l34 93z"/>
<glyph unicode="¹" glyph-name="onesuperior" horiz-adv-x="300" d="M64 381l8 23q43 6 60 18q5 10 5 23v154q0 32 -1 51q-37 -4 -76 -17l-12 20q93 39 136 69l14 -2q-4 -41 -6 -75v-198q0 -13 5 -23q6 -6 27.5 -12t40.5 -8l-8 -21q-27 2 -89 2q-56 0 -104 -4z"/>
<glyph unicode="º" glyph-name="ordmasculine" horiz-adv-x="283" d="M53 491q0 -55 24.5 -91.5t68.5 -36.5q30 0 46.5 28t16.5 68q0 54 -23 91t-63 37q-31 0 -50.5 -29t-19.5 -67zM129 618q67 0 104 -38t37 -91q0 -61 -29 -99q-16 -21 -47.5 -40t-58.5 -19q-64 0 -103 40.5t-39 98.5q0 48 35 90q16 20 46 39t55 19z"/>
<glyph unicode="»" glyph-name="guillemotright" horiz-adv-x="439" d="M46 371l25 14q93 -111 167 -174q-33 -26 -82.5 -78.5t-85.5 -98.5l-24 13q64 103 117 161q-54 60 -117 163zM190 371l24 14q98 -114 168 -174q-66 -51 -169 -177l-22 13q53 92 115 161q-54 61 -116 163z"/>
<glyph unicode="¼" glyph-name="onequarter" horiz-adv-x="700" d="M573 561l-373 -587l-29 20l1 13l374 589l21 -15zM549 113v152q-74 -86 -120 -152h120zM653 74h-53v-24q0 -23 5 -30q19 -8 51 -12l-9 -19q-42 3 -76 3q-41 0 -89 -3l7 23q35 2 54 11q5 9 5 30v21h-153l-17 29q89 121 178 217q31 1 49 6q-4 -41 -4 -93v-120q42 0 66 4z M48 243l8 23q43 6 60 18q5 10 5 23v154q0 32 -1 51q-37 -4 -76 -17l-12 20q93 39 136 69l14 -2q-4 -41 -6 -75v-198q0 -13 5 -23q6 -6 27.5 -12t40.5 -8l-8 -21q-27 2 -89 2q-56 0 -104 -4z"/>
<glyph unicode="½" glyph-name="onehalf" horiz-adv-x="700" d="M551 561l-373 -587l-29 20l1 13l374 589l21 -15zM443 212l-11 81q79 35 119 35q101 0 101 -79q0 -51 -64 -121q-32 -34 -92 -94q83 2 133 10q19 21 28 54l17 -4q-11 -72 -11 -105q-32 2 -112 2q-48 0 -130 -2l-7 17q41 32 104 101q70 76 70 129q0 25 -16 39.5t-42 14.5 q-30 0 -52 -9q-3 -7 -6.5 -19.5t-7 -28.5t-5.5 -24zM41 243l8 23q43 6 60 18q5 10 5 23v154q0 32 -1 51q-37 -4 -76 -17l-12 20q93 39 136 69l14 -2q-4 -41 -6 -75v-198q0 -13 5 -23q6 -6 27.5 -12t40.5 -8l-8 -21q-27 2 -89 2q-56 0 -104 -4z"/>
<glyph unicode="¾" glyph-name="threequarters" horiz-adv-x="700" d="M563 561l-373 -587l-29 20l1 13l374 589l21 -15zM540 113v152q-74 -86 -120 -152h120zM644 74h-53v-24q0 -23 5 -30q19 -8 51 -12l-9 -19q-42 3 -76 3q-41 0 -89 -3l7 23q36 2 54 11q5 9 5 30v21h-153l-17 29q89 121 178 217q31 1 49 6q-4 -41 -4 -93v-120q42 0 66 4z M73 477l-12 104q55 -3 117 -3q61 0 106 3l2 -17q-20 -16 -36 -35l-63 -79q40 0 67.5 -20.5t27.5 -63.5q0 -51 -50 -88.5t-97 -37.5q-48 0 -88 19l27 55q56 -33 89 -33q29 0 47 18t18 47q0 33 -22.5 48.5t-57.5 15.5q-13 0 -18 -1l-9 17q10 8 25 22q11 11 69 84h-112 q-5 -12 -13 -57z"/>
<glyph unicode="¿" glyph-name="questiondown" horiz-adv-x="319" d="M231 418l-6 -69q-17 -3 -41 -4q-28 -2 -40 -5l3 73q39 0 84 5zM92 -74q0 -39 29.5 -60.5t60.5 -21.5q39 0 89 25l10 -16q-91 -59 -123 -59q-55 0 -93.5 27.5t-38.5 84.5q0 73 84 140q34 26 42 34q11 49 16 176l36 16l12 -187q-46 -29 -85 -71t-39 -88z"/>
<glyph unicode="À" glyph-name="Agrave" horiz-adv-x="660" d="M404 679l-13 -21q-44 12 -128 48t-102 52l71 47q22 -22 77 -62.5t95 -63.5zM308 541l-88 -244h179zM488 74l-73 183h-211l-72 -189q-3 -9 -3 -16q0 -10 32.5 -17t69.5 -10l-13 -28q-65 5 -104 5q-46 0 -99 -5l8 25q40 7 54 36q18 34 111 270.5t105 282.5l59 9 q25 -81 117.5 -306.5t106.5 -247.5q23 -36 79 -44l-11 -24q-60 5 -117 5q-49 0 -117 -6l8 25q77 6 77 24q0 12 -7 28z"/>
<glyph unicode="Á" glyph-name="Aacute" horiz-adv-x="660" d="M247 658l-13 20q42 21 99 61.5t81 65.5l69 -43q-23 -18 -105 -53t-131 -51zM308 541l-88 -244h179zM488 74l-73 183h-211l-72 -189q-3 -9 -3 -16q0 -10 32.5 -17t69.5 -10l-13 -28q-65 5 -104 5q-46 0 -99 -5l8 25q40 7 54 36q18 34 111 270.5t105 282.5l59 9 q25 -81 117.5 -306.5t106.5 -247.5q23 -36 79 -44l-11 -24q-60 5 -117 5q-49 0 -117 -6l8 25q77 6 77 24q0 12 -7 28z"/>
<glyph unicode="Â" glyph-name="Acircumflex" horiz-adv-x="660" d="M334 793l104 -125l-21 -14l-103 68l-100 -70l-21 15l111 126h30zM308 541l-88 -244h179zM488 74l-73 183h-211l-72 -189q-3 -9 -3 -16q0 -10 32.5 -17t69.5 -10l-13 -28q-65 5 -104 5q-46 0 -99 -5l8 25q40 7 54 36q18 34 111 270.5t105 282.5l59 9q25 -81 117.5 -306.5 t106.5 -247.5q23 -36 79 -44l-11 -24q-60 5 -117 5q-49 0 -117 -6l8 25q77 6 77 24q0 12 -7 28z"/>
<glyph unicode="Ã" glyph-name="Atilde" horiz-adv-x="660" d="M262 715q-30 0 -76 -49l-13 14q78 99 110 99q17 0 62 -26.5t64 -26.5q30 0 67 43l15 -12q-18 -26 -51 -58.5t-49 -32.5q-13 0 -58 24.5t-71 24.5zM308 541l-88 -244h179zM488 74l-73 183h-211l-72 -189q-3 -9 -3 -16q0 -10 32.5 -17t69.5 -10l-13 -28q-65 5 -104 5 q-46 0 -99 -5l8 25q40 7 54 36q18 34 111 270.5t105 282.5l59 9q25 -81 117.5 -306.5t106.5 -247.5q23 -36 79 -44l-11 -24q-60 5 -117 5q-49 0 -117 -6l8 25q77 6 77 24q0 12 -7 28z"/>
<glyph unicode="Ä" glyph-name="Adieresis" horiz-adv-x="660" d="M388 663l-44 34q31 43 47 76l53 -36q-22 -36 -56 -74zM239 666l-44 35q27 36 47 76l55 -36q-36 -52 -58 -75zM308 541l-88 -244h179zM488 74l-73 183h-211l-72 -189q-3 -9 -3 -16q0 -10 32.5 -17t69.5 -10l-13 -28q-65 5 -104 5q-46 0 -99 -5l8 25q40 7 54 36 q18 34 111 270.5t105 282.5l59 9q25 -81 117.5 -306.5t106.5 -247.5q23 -36 79 -44l-11 -24q-60 5 -117 5q-49 0 -117 -6l8 25q77 6 77 24q0 12 -7 28z"/>
<glyph unicode="Å" glyph-name="Aring" horiz-adv-x="660" d="M308 541l-88 -244h179zM488 74l-73 183h-211l-72 -189q-3 -9 -3 -16q0 -10 32.5 -17t69.5 -10l-13 -28q-65 5 -104 5q-46 0 -99 -5l8 25q40 7 54 36q18 34 111 270.5t105 282.5l59 9q25 -81 117.5 -306.5t106.5 -247.5q23 -36 79 -44l-11 -24q-60 5 -117 5q-49 0 -117 -6 l8 25q77 6 77 24q0 12 -7 28zM274 739q0 -25 13 -38.5t31 -13.5q24 0 36 18.5t12 46.5q0 22 -12.5 35.5t-32.5 13.5q-22 0 -34.5 -18.5t-12.5 -43.5zM233 734q0 41 31 68.5t62 27.5q37 0 59.5 -18t22.5 -52q0 -42 -31.5 -73t-66.5 -31q-32 0 -54.5 20t-22.5 58z"/>
<glyph unicode="Æ" glyph-name="AE" horiz-adv-x="823" d="M414 297v204q0 50 -4 57q-3 2 -12 2l-130 -263h146zM774 166l19 -1q-17 -95 -45 -169q-74 6 -183 6q-113 0 -233 -5l8 25q45 4 68 20q6 24 6 55v158h-169l-101 -191q-4 -8 -4 -12q0 -8 11 -14q31 -14 85 -17l-11 -24q-65 5 -104 5q-53 0 -106 -5l8 25q39 9 63 36 q16 18 138 246t131 252q2 6 2 8q0 7 -9 10q-20 8 -47 10l-9 27q98 -5 194 -5q137 0 242 12q3 -113 9 -177l-14 -1q-16 47 -43 109q-6 11 -12 12q-19 4 -81 4q-86 0 -94 -7q-4 -13 -4 -49v-172q17 -1 65 -1q70 0 97 4l24 56l14 -1q-4 -41 -4 -78q0 -43 5 -91l-13 -1l-30 65 q-44 2 -97 2q-46 0 -62 -1v-198q0 -29 5 -42q43 -6 116 -6q35 0 69 2q33 4 41 15q27 36 55 104z"/>
<glyph unicode="Ç" glyph-name="Ccedilla" horiz-adv-x="630" d="M139 323q0 -124 69 -211t174 -87q78 0 128 31q32 38 69 113l11 -8q-25 -92 -38 -157q-90 -20 -182 -20h-23l-5 -27q90 -18 90 -75q0 -32 -17.5 -56.5t-43.5 -36.5q-60 -11 -86 -12l-9 19q114 17 114 68q0 22 -28.5 33t-62.5 13l-5 5l26 73q-114 15 -190.5 99t-76.5 224 q0 98 53 169q38 51 114.5 97.5t127.5 46.5q53 0 114.5 -13.5t97.5 -28.5q-2 -61 -2 -172l-14 -4q-34 101 -40 115q-64 51 -177 51q-85 0 -136.5 -74.5t-51.5 -174.5z"/>
<glyph unicode="È" glyph-name="Egrave" horiz-adv-x="536" d="M345 679l-13 -21q-44 12 -128 48t-102 52l71 47q22 -22 77 -62.5t95 -63.5zM487 166l19 -1q-15 -85 -45 -169q-74 6 -184 6q-113 0 -232 -5l8 25q16 2 37 8t29 12q8 19 8 55v432q0 27 -8 37q-16 12 -61 16l-9 29q55 -4 160 -4q134 0 232 11q4 -129 8 -177l-13 -1 q-27 74 -44 109q-5 11 -12 12q-17 4 -81 4q-84 0 -94 -7q-4 -10 -4 -49v-167q17 -1 66 -1q67 0 97 3l24 56l13 -2q-3 -45 -3 -76q0 -61 5 -97l-14 -1l-30 65q-25 2 -91 2q-49 0 -68 -1v-197q0 -29 5 -42q45 -6 116 -6q35 0 69 2q34 4 41 15q25 33 56 104z"/>
<glyph unicode="É" glyph-name="Eacute" horiz-adv-x="536" d="M188 658l-13 20q42 21 99 61.5t81 65.5l69 -43q-23 -18 -105 -53t-131 -51zM487 166l19 -1q-15 -85 -45 -169q-74 6 -184 6q-113 0 -232 -5l8 25q16 2 37 8t29 12q8 19 8 55v432q0 27 -8 37q-16 12 -61 16l-9 29q55 -4 160 -4q134 0 232 11q4 -129 8 -177l-13 -1 q-27 74 -44 109q-5 11 -12 12q-17 4 -81 4q-84 0 -94 -7q-4 -10 -4 -49v-167q17 -1 66 -1q67 0 97 3l24 56l13 -2q-3 -45 -3 -76q0 -61 5 -97l-14 -1l-30 65q-25 2 -91 2q-49 0 -68 -1v-197q0 -29 5 -42q45 -6 116 -6q35 0 69 2q34 4 41 15q25 33 56 104z"/>
<glyph unicode="Ê" glyph-name="Ecircumflex" horiz-adv-x="536" d="M286 793l104 -125l-21 -14l-103 68l-100 -70l-21 15l111 126h30zM487 166l19 -1q-15 -85 -45 -169q-74 6 -184 6q-113 0 -232 -5l8 25q16 2 37 8t29 12q8 19 8 55v432q0 27 -8 37q-16 12 -61 16l-9 29q55 -4 160 -4q134 0 232 11q4 -129 8 -177l-13 -1q-27 74 -44 109 q-5 11 -12 12q-17 4 -81 4q-84 0 -94 -7q-4 -10 -4 -49v-167q17 -1 66 -1q67 0 97 3l24 56l13 -2q-3 -45 -3 -76q0 -61 5 -97l-14 -1l-30 65q-25 2 -91 2q-49 0 -68 -1v-197q0 -29 5 -42q45 -6 116 -6q35 0 69 2q34 4 41 15q25 33 56 104z"/>
<glyph unicode="Ë" glyph-name="Edieresis" horiz-adv-x="536" d="M335 663l-44 34q31 43 47 76l53 -36q-22 -36 -56 -74zM186 666l-44 35q27 36 47 76l55 -36q-36 -52 -58 -75zM487 166l19 -1q-15 -85 -45 -169q-74 6 -184 6q-113 0 -232 -5l8 25q16 2 37 8t29 12q8 19 8 55v432q0 27 -8 37q-16 12 -61 16l-9 29q55 -4 160 -4 q134 0 232 11q4 -129 8 -177l-13 -1q-27 74 -44 109q-5 11 -12 12q-17 4 -81 4q-84 0 -94 -7q-4 -10 -4 -49v-167q17 -1 66 -1q67 0 97 3l24 56l13 -2q-3 -45 -3 -76q0 -61 5 -97l-14 -1l-30 65q-25 2 -91 2q-49 0 -68 -1v-197q0 -29 5 -42q45 -6 116 -6q35 0 69 2 q34 4 41 15q25 33 56 104z"/>
<glyph unicode="Ì" glyph-name="Igrave" horiz-adv-x="321" d="M261 679l-13 -21q-44 12 -128 48t-102 52l71 47q22 -22 77 -62.5t95 -63.5zM133 114v415q0 28 -8 38q-19 12 -65 16l-9 30q51 -5 130 -5q53 0 97 3l5 -28q-56 -5 -71 -17q-6 -12 -6 -44v-428q0 -39 4 -48q23 -15 93 -24l-11 -23q-63 3 -113 3q-51 0 -124 -3l8 26 q44 5 62 20q8 21 8 69z"/>
<glyph unicode="Í" glyph-name="Iacute" horiz-adv-x="321" d="M100 658l-13 20q42 21 99 61.5t81 65.5l69 -43q-23 -18 -105 -53t-131 -51zM133 114v415q0 28 -8 38q-19 12 -65 16l-9 30q51 -5 130 -5q53 0 97 3l5 -28q-56 -5 -71 -17q-6 -12 -6 -44v-428q0 -39 4 -48q23 -15 93 -24l-11 -23q-63 3 -113 3q-51 0 -124 -3l8 26 q44 5 62 20q8 21 8 69z"/>
<glyph unicode="Î" glyph-name="Icircumflex" horiz-adv-x="321" d="M185 793l104 -125l-21 -14l-103 68l-100 -70l-21 15l111 126h30zM133 114v415q0 28 -8 38q-19 12 -65 16l-9 30q51 -5 130 -5q53 0 97 3l5 -28q-56 -5 -71 -17q-6 -12 -6 -44v-428q0 -39 4 -48q23 -15 93 -24l-11 -23q-63 3 -113 3q-51 0 -124 -3l8 26q44 5 62 20 q8 21 8 69z"/>
<glyph unicode="Ï" glyph-name="Idieresis" horiz-adv-x="321" d="M241 663l-44 34q31 43 47 76l53 -36q-22 -36 -56 -74zM92 666l-44 35q27 36 47 76l55 -36q-36 -52 -58 -75zM133 114v415q0 28 -8 38q-19 12 -65 16l-9 30q51 -5 130 -5q53 0 97 3l5 -28q-56 -5 -71 -17q-6 -12 -6 -44v-428q0 -39 4 -48q23 -15 93 -24l-11 -23 q-63 3 -113 3q-51 0 -124 -3l8 26q44 5 62 20q8 21 8 69z"/>
<glyph unicode="Ð" glyph-name="Eth" horiz-adv-x="689" d="M363 292h-162v-202q0 -35 5 -47q40 -17 116 -17q110 0 173.5 78t63.5 212q0 124 -74 191.5t-184 67.5q-67 0 -92 -11q-7 -10 -7 -44v-187h161v-41zM45 292v41h83v203q0 26 -8 37q-10 10 -65 15l-9 25q36 -5 88 -5q39 0 84 3t88 3q137 0 235 -84t98 -208 q0 -158 -90.5 -243t-220.5 -85q-50 0 -124 4q-39 3 -74 3q-41 0 -82 -4l8 25q45 4 64 20q8 22 8 62v188h-83z"/>
<glyph unicode="Ñ" glyph-name="Ntilde" horiz-adv-x="706" d="M308 715q-30 0 -76 -49l-13 14q78 99 110 99q17 0 62 -26.5t64 -26.5q30 0 67 43l15 -12q-18 -26 -51 -58.5t-49 -32.5q-13 0 -58 24.5t-71 24.5zM603 513l-3 -396q0 -71 3 -117l-37 -18q-89 136 -396 548v-444q0 -28 5 -40q4 -5 38 -13.5t52 -10.5l-9 -23q-31 2 -96 2 q-41 0 -105 -2l5 23q38 7 53 20q6 13 6 48v387q0 79 -7 90q-20 12 -60 16l-7 30q15 0 45 -2t45 -2q16 0 68 4l350 -488v396q0 35 -8 45q-16 12 -67 17l-9 28q45 -4 106 -4q44 0 96 4l5 -28q-15 -1 -40 -6.5t-29 -9.5q-4 -8 -4 -54z"/>
<glyph unicode="Ò" glyph-name="Ograve" horiz-adv-x="691" d="M451 679l-13 -21q-44 12 -128 48t-102 52l71 47q22 -22 77 -62.5t95 -63.5zM358 37q93 0 149.5 81t56.5 187q0 108 -68.5 185.5t-160.5 77.5t-151 -74.5t-59 -175.5q0 -111 70.5 -196t162.5 -85zM356 624q128 0 206.5 -82t78.5 -201q0 -125 -59 -208q-43 -59 -115 -104 t-135 -45q-110 0 -196 83.5t-86 207.5q0 112 54 187q43 62 116.5 112t135.5 50z"/>
<glyph unicode="Ó" glyph-name="Oacute" horiz-adv-x="691" d="M262 658l-13 20q42 21 99 61.5t81 65.5l69 -43q-23 -18 -105 -53t-131 -51zM358 37q93 0 149.5 81t56.5 187q0 108 -68.5 185.5t-160.5 77.5t-151 -74.5t-59 -175.5q0 -111 70.5 -196t162.5 -85zM356 624q128 0 206.5 -82t78.5 -201q0 -125 -59 -208q-43 -59 -115 -104 t-135 -45q-110 0 -196 83.5t-86 207.5q0 112 54 187q43 62 116.5 112t135.5 50z"/>
<glyph unicode="Ô" glyph-name="Ocircumflex" horiz-adv-x="691" d="M379 793l104 -125l-21 -14l-103 68l-100 -70l-21 15l111 126h30zM358 37q93 0 149.5 81t56.5 187q0 108 -68.5 185.5t-160.5 77.5t-151 -74.5t-59 -175.5q0 -111 70.5 -196t162.5 -85zM356 624q128 0 206.5 -82t78.5 -201q0 -125 -59 -208q-43 -59 -115 -104t-135 -45 q-110 0 -196 83.5t-86 207.5q0 112 54 187q43 62 116.5 112t135.5 50z"/>
<glyph unicode="Õ" glyph-name="Otilde" horiz-adv-x="691" d="M294 715q-30 0 -76 -49l-13 14q78 99 110 99q17 0 62 -26.5t64 -26.5q30 0 67 43l15 -12q-18 -26 -51 -58.5t-49 -32.5q-13 0 -58 24.5t-71 24.5zM358 37q93 0 149.5 81t56.5 187q0 108 -68.5 185.5t-160.5 77.5t-151 -74.5t-59 -175.5q0 -111 70.5 -196t162.5 -85z M356 624q128 0 206.5 -82t78.5 -201q0 -125 -59 -208q-43 -59 -115 -104t-135 -45q-110 0 -196 83.5t-86 207.5q0 112 54 187q43 62 116.5 112t135.5 50z"/>
<glyph unicode="Ö" glyph-name="Odieresis" horiz-adv-x="691" d="M422 663l-44 34q31 43 47 76l53 -36q-22 -36 -56 -74zM273 666l-44 35q27 36 47 76l55 -36q-36 -52 -58 -75zM358 37q93 0 149.5 81t56.5 187q0 108 -68.5 185.5t-160.5 77.5t-151 -74.5t-59 -175.5q0 -111 70.5 -196t162.5 -85zM356 624q128 0 206.5 -82t78.5 -201 q0 -125 -59 -208q-43 -59 -115 -104t-135 -45q-110 0 -196 83.5t-86 207.5q0 112 54 187q43 62 116.5 112t135.5 50z"/>
<glyph unicode="×" glyph-name="multiply" horiz-adv-x="369" d="M282 337l46 -33q-46 -33 -104 -93q26 -24 104 -91l-38 -40q-30 37 -99 98q-64 -59 -98 -101l-41 36q77 65 105 94q-51 49 -102 88l43 41q37 -44 93 -97q51 51 91 98z"/>
<glyph unicode="Ø" glyph-name="Oslash" horiz-adv-x="691" d="M357 36q96 0 151.5 80.5t55.5 188.5q0 120 -80 198l-228 -437q51 -30 101 -30zM125 318q0 -66 26.5 -126.5t73.5 -101.5l229 439q-51 39 -119 39q-92 0 -151 -74.5t-59 -175.5zM356 624q76 0 133 -29l47 90l33 -18l-48 -92q57 -38 88.5 -99.5t31.5 -134.5 q0 -125 -59 -208q-43 -60 -115 -105t-135 -45q-56 0 -107 22l-48 -93l-34 18l49 94q-63 38 -102.5 104.5t-39.5 146.5q0 112 54 187q43 62 116.5 112t135.5 50z"/>
<glyph unicode="Ù" glyph-name="Ugrave" horiz-adv-x="696" d="M453 679l-13 -21q-44 12 -128 48t-102 52l71 47q22 -22 77 -62.5t95 -63.5zM596 492v-179q0 -72 -7 -121q-15 -105 -76 -156.5t-157 -51.5q-192 0 -230 156q-11 46 -11 124v250q0 42 -8 54q-16 10 -63 15l-9 26q70 -2 126 -2q45 0 97 2l5 -24q-17 -1 -39.5 -6.5 t-26.5 -10.5q-6 -16 -6 -73v-204q0 -61 8 -117q23 -147 176 -147q65 0 107 38t53 102q9 48 9 104v250q0 36 -7 45q-6 6 -29 11.5t-41 6.5l-7 25q68 -2 112 -2q34 0 88 2l5 -23q-45 -5 -63 -17q-6 -14 -6 -77z"/>
<glyph unicode="Ú" glyph-name="Uacute" horiz-adv-x="696" d="M316 658l-13 20q42 21 99 61.5t81 65.5l69 -43q-23 -18 -105 -53t-131 -51zM596 492v-179q0 -72 -7 -121q-15 -105 -76 -156.5t-157 -51.5q-192 0 -230 156q-11 46 -11 124v250q0 42 -8 54q-16 10 -63 15l-9 26q70 -2 126 -2q45 0 97 2l5 -24q-17 -1 -39.5 -6.5 t-26.5 -10.5q-6 -16 -6 -73v-204q0 -61 8 -117q23 -147 176 -147q65 0 107 38t53 102q9 48 9 104v250q0 36 -7 45q-6 6 -29 11.5t-41 6.5l-7 25q68 -2 112 -2q34 0 88 2l5 -23q-45 -5 -63 -17q-6 -14 -6 -77z"/>
<glyph unicode="Û" glyph-name="Ucircumflex" horiz-adv-x="696" d="M404 793l104 -125l-21 -14l-103 68l-100 -70l-21 15l111 126h30zM596 492v-179q0 -72 -7 -121q-15 -105 -76 -156.5t-157 -51.5q-192 0 -230 156q-11 46 -11 124v250q0 42 -8 54q-16 10 -63 15l-9 26q70 -2 126 -2q45 0 97 2l5 -24q-17 -1 -39.5 -6.5t-26.5 -10.5 q-6 -16 -6 -73v-204q0 -61 8 -117q23 -147 176 -147q65 0 107 38t53 102q9 48 9 104v250q0 36 -7 45q-6 6 -29 11.5t-41 6.5l-7 25q68 -2 112 -2q34 0 88 2l5 -23q-45 -5 -63 -17q-6 -14 -6 -77z"/>
<glyph unicode="Ü" glyph-name="Udieresis" horiz-adv-x="696" d="M441 663l-44 34q31 43 47 76l53 -36q-22 -36 -56 -74zM292 666l-44 35q27 36 47 76l55 -36q-36 -52 -58 -75zM596 492v-179q0 -72 -7 -121q-15 -105 -76 -156.5t-157 -51.5q-192 0 -230 156q-11 46 -11 124v250q0 42 -8 54q-16 10 -63 15l-9 26q70 -2 126 -2q45 0 97 2 l5 -24q-17 -1 -39.5 -6.5t-26.5 -10.5q-6 -16 -6 -73v-204q0 -61 8 -117q23 -147 176 -147q65 0 107 38t53 102q9 48 9 104v250q0 36 -7 45q-6 6 -29 11.5t-41 6.5l-7 25q68 -2 112 -2q34 0 88 2l5 -23q-45 -5 -63 -17q-6 -14 -6 -77z"/>
<glyph unicode="Ý" glyph-name="Yacute" horiz-adv-x="572" d="M231 658l-13 20q42 21 99 61.5t81 65.5l69 -43q-23 -18 -105 -53t-131 -51zM254 99l1 151q-162 287 -166 292q-23 30 -69 42l-10 27q47 -5 105 -5q63 0 121 6l8 -23q-47 -7 -71 -17q-7 -3 -7 -8q0 -1 2 -7q10 -28 143 -264l131 250q4 8 4 13q0 9 -8 12q-21 9 -72 19 l-12 25q50 -5 106 -5q34 0 87 5l6 -23q-25 -6 -50 -37q-28 -32 -175 -303v-145q0 -47 6 -58q34 -20 99 -27l-11 -23q-68 6 -118 6q-56 0 -132 -6l10 26q46 7 65 22q7 10 7 55z"/>
<glyph unicode="Þ" glyph-name="Thorn" horiz-adv-x="511" d="M256 454q-29 0 -59 -6v-255q15 -3 36 -3q74 0 114.5 34.5t40.5 105.5q0 124 -132 124zM197 125q0 -53 10 -73q6 -10 40.5 -18.5t60.5 -8.5l-11 -26q-51 3 -108 3q-74 0 -144 -6l6 26q47 2 64 26q10 23 10 138v282q0 83 -7 98q-9 8 -65 17l-7 30q68 -4 114 -4q47 0 101 4 l6 -29q-49 -3 -65 -17q-5 -17 -5 -83q38 5 68 5q95 0 150.5 -34t55.5 -106q0 -90 -61.5 -140.5t-151.5 -50.5q-31 0 -61 6v-39z"/>
<glyph unicode="ß" glyph-name="germandbls" horiz-adv-x="486" d="M269 358q0 -22 21 -43t60 -47q38 -24 57 -39t35.5 -40t16.5 -54q0 -58 -48 -104.5t-97 -46.5q-71 0 -123 21l15 79l10 6q54 -69 107 -69q37 0 59.5 23.5t22.5 56.5q0 29 -18.5 49t-55.5 41q-32 18 -46.5 27.5t-38 28.5t-33.5 39.5t-10 44.5q0 37 24.5 64.5t68.5 55.5 q55 34 55 71q0 42 -51 67t-92 25q-21 0 -34 -11.5t-18.5 -35.5t-7.5 -47.5t-2 -60.5v-461q-26 2 -56 2q-53 0 -86 -3l8 22q39 10 59 23q5 18 5 57v374q0 68 19 94q24 34 76.5 67.5t81.5 33.5q51 0 102.5 -29t51.5 -81q0 -29 -14 -54t-29 -38t-42 -31q-53 -35 -53 -77z"/>
<glyph unicode="à" glyph-name="agrave" horiz-adv-x="422" d="M274 482l-18 -22q-37 19 -103 74t-86 81l73 35q17 -30 58.5 -83.5t75.5 -84.5zM254 82v115q-40 -4 -76 -15q-72 -23 -72 -75q0 -26 16 -44t47 -18t85 37zM406 60l9 -18q-97 -58 -125 -58q-30 0 -36 69q-98 -69 -134 -69q-38 0 -65.5 34t-27.5 70q0 45 20.5 66t70.5 38 q40 14 136 36v66q0 40 -15.5 58t-51.5 18q-42 0 -61 -17l-2 -55q-20 -9 -60 -20q-5 5 -5 20q0 37 11 50q16 18 72.5 45t84.5 27q49 0 73.5 -28.5t24.5 -77.5v-223q0 -27 3 -35.5t13 -8.5q26 0 65 13z"/>
<glyph unicode="á" glyph-name="aacute" horiz-adv-x="422" d="M166 460l-17 21q37 29 80 82.5t60 84.5l71 -32q-22 -28 -88 -81.5t-106 -74.5zM254 82v115q-40 -4 -76 -15q-72 -23 -72 -75q0 -26 16 -44t47 -18t85 37zM406 60l9 -18q-97 -58 -125 -58q-30 0 -36 69q-98 -69 -134 -69q-38 0 -65.5 34t-27.5 70q0 45 20.5 66t70.5 38 q40 14 136 36v66q0 40 -15.5 58t-51.5 18q-42 0 -61 -17l-2 -55q-20 -9 -60 -20q-5 5 -5 20q0 37 11 50q16 18 72.5 45t84.5 27q49 0 73.5 -28.5t24.5 -77.5v-223q0 -27 3 -35.5t13 -8.5q26 0 65 13z"/>
<glyph unicode="â" glyph-name="acircumflex" horiz-adv-x="422" d="M222 649l104 -179l-18 -10l-113 106l-99 -108l-20 13l112 171zM254 82v115q-40 -4 -76 -15q-72 -23 -72 -75q0 -26 16 -44t47 -18t85 37zM406 60l9 -18q-97 -58 -125 -58q-30 0 -36 69q-98 -69 -134 -69q-38 0 -65.5 34t-27.5 70q0 45 20.5 66t70.5 38q40 14 136 36v66 q0 40 -15.5 58t-51.5 18q-42 0 -61 -17l-2 -55q-20 -9 -60 -20q-5 5 -5 20q0 37 11 50q16 18 72.5 45t84.5 27q49 0 73.5 -28.5t24.5 -77.5v-223q0 -27 3 -35.5t13 -8.5q26 0 65 13z"/>
<glyph unicode="ã" glyph-name="atilde" horiz-adv-x="422" d="M143 525q-30 0 -76 -49l-13 14q78 99 110 99q16 0 61 -26.5t65 -26.5q30 0 67 43l15 -12q-18 -26 -51 -58.5t-49 -32.5q-14 0 -59 24.5t-70 24.5zM254 82v115q-40 -4 -76 -15q-72 -23 -72 -75q0 -26 16 -44t47 -18t85 37zM406 60l9 -18q-97 -58 -125 -58q-30 0 -36 69 q-98 -69 -134 -69q-38 0 -65.5 34t-27.5 70q0 45 20.5 66t70.5 38q40 14 136 36v66q0 40 -15.5 58t-51.5 18q-42 0 -61 -17l-2 -55q-20 -9 -60 -20q-5 5 -5 20q0 37 11 50q16 18 72.5 45t84.5 27q49 0 73.5 -28.5t24.5 -77.5v-223q0 -27 3 -35.5t13 -8.5q26 0 65 13z"/>
<glyph unicode="ä" glyph-name="adieresis" horiz-adv-x="422" d="M279 473l-44 34q31 43 47 76l53 -36q-22 -36 -56 -74zM130 476l-44 35q27 36 47 76l55 -36q-36 -52 -58 -75zM254 82v115q-40 -4 -76 -15q-72 -23 -72 -75q0 -26 16 -44t47 -18t85 37zM406 60l9 -18q-97 -58 -125 -58q-30 0 -36 69q-98 -69 -134 -69q-38 0 -65.5 34 t-27.5 70q0 45 20.5 66t70.5 38q40 14 136 36v66q0 40 -15.5 58t-51.5 18q-42 0 -61 -17l-2 -55q-20 -9 -60 -20q-5 5 -5 20q0 37 11 50q16 18 72.5 45t84.5 27q49 0 73.5 -28.5t24.5 -77.5v-223q0 -27 3 -35.5t13 -8.5q26 0 65 13z"/>
<glyph unicode="å" glyph-name="aring" horiz-adv-x="422" d="M254 82v115q-40 -4 -76 -15q-72 -23 -72 -75q0 -26 16 -44t47 -18t85 37zM406 60l9 -18q-97 -58 -125 -58q-30 0 -36 69q-98 -69 -134 -69q-38 0 -65.5 34t-27.5 70q0 45 20.5 66t70.5 38q40 14 136 36v66q0 40 -15.5 58t-51.5 18q-42 0 -61 -17l-2 -55q-20 -9 -60 -20 q-5 5 -5 20q0 37 11 50q16 18 72.5 45t84.5 27q49 0 73.5 -28.5t24.5 -77.5v-223q0 -27 3 -35.5t13 -8.5q26 0 65 13zM155 543q0 -25 13 -38.5t31 -13.5q24 0 36 18.5t12 46.5q0 22 -12.5 35.5t-32.5 13.5q-22 0 -34.5 -18.5t-12.5 -43.5zM114 538q0 41 31 68.5t62 27.5 q37 0 59.5 -18t22.5 -52q0 -42 -31.5 -73t-66.5 -31q-32 0 -54.5 20t-22.5 58z"/>
<glyph unicode="æ" glyph-name="ae" horiz-adv-x="626" d="M417 370q-37 0 -65 -40t-28 -80q34 3 109.5 13t84.5 13q-1 33 -25 63.5t-76 30.5zM272 92q-21 50 -21 105q-22 -2 -63 -13t-62 -30q-20 -17 -20 -49q0 -25 17 -42.5t49 -17.5q18 0 49 16t51 31zM577 81l7 -27q-111 -70 -167 -70q-81 0 -131 82q-122 -82 -160 -82 q-39 0 -69 34.5t-30 74.5t20 61t65 37q48 16 139 37v66q0 40 -16.5 58t-52.5 18q-40 0 -59 -16v-55q-13 -6 -62 -21q-5 5 -5 20q0 27 8 45q3 6 6 8q20 19 73 44t81 25q79 0 94 -72q32 28 70 50t59 22q72 0 108 -50.5t36 -104.5l-33 -26q-48 -6 -235 -17q0 -68 36.5 -121 t91.5 -53q51 0 126 33z"/>
<glyph unicode="ç" glyph-name="ccedilla" horiz-adv-x="396" d="M220 420q88 0 136 -23q-17 -42 -38 -67q-66 45 -107 45q-48 0 -81 -40t-33 -115q0 -71 37 -122t89 -51q56 0 126 34l7 -27q-102 -63 -158 -69l-5 -28q90 -18 90 -75q0 -32 -17.5 -56.5t-43.5 -36.5q-60 -11 -86 -12l-9 19q114 17 114 68q0 22 -28.5 33t-62.5 13l-5 5 l25 71q-46 6 -81 39t-51.5 76.5t-16.5 87.5q0 79 37 126q24 32 77 68.5t85 36.5z"/>
<glyph unicode="è" glyph-name="egrave" horiz-adv-x="400" d="M295 482l-18 -22q-37 19 -103 74t-86 81l73 35q17 -30 58.5 -83.5t75.5 -84.5zM193 370q-39 0 -66.5 -40t-27.5 -80q133 12 193 26q0 32 -24 63t-75 31zM351 81l7 -27q-118 -70 -167 -70q-73 0 -121 64.5t-48 131.5q0 80 36 131q20 31 76.5 70t87.5 39q66 0 104 -46.5 t38 -108.5l-32 -26q-50 -8 -234 -17q0 -68 36.5 -121t91.5 -53q50 0 125 33z"/>
<glyph unicode="é" glyph-name="eacute" horiz-adv-x="400" d="M170 460l-17 21q37 29 80 82.5t60 84.5l71 -32q-22 -28 -88 -81.5t-106 -74.5zM193 370q-39 0 -66.5 -40t-27.5 -80q133 12 193 26q0 32 -24 63t-75 31zM351 81l7 -27q-118 -70 -167 -70q-73 0 -121 64.5t-48 131.5q0 80 36 131q20 31 76.5 70t87.5 39q66 0 104 -46.5 t38 -108.5l-32 -26q-50 -8 -234 -17q0 -68 36.5 -121t91.5 -53q50 0 125 33z"/>
<glyph unicode="ê" glyph-name="ecircumflex" horiz-adv-x="400" d="M235 649l104 -179l-18 -10l-113 106l-99 -108l-20 13l112 171zM193 370q-39 0 -66.5 -40t-27.5 -80q133 12 193 26q0 32 -24 63t-75 31zM351 81l7 -27q-118 -70 -167 -70q-73 0 -121 64.5t-48 131.5q0 80 36 131q20 31 76.5 70t87.5 39q66 0 104 -46.5t38 -108.5l-32 -26 q-50 -8 -234 -17q0 -68 36.5 -121t91.5 -53q50 0 125 33z"/>
<glyph unicode="ë" glyph-name="edieresis" horiz-adv-x="400" d="M288 473l-44 34q31 43 47 76l53 -36q-22 -36 -56 -74zM139 476l-44 35q27 36 47 76l55 -36q-36 -52 -58 -75zM193 370q-39 0 -66.5 -40t-27.5 -80q133 12 193 26q0 32 -24 63t-75 31zM351 81l7 -27q-118 -70 -167 -70q-73 0 -121 64.5t-48 131.5q0 80 36 131 q20 31 76.5 70t87.5 39q66 0 104 -46.5t38 -108.5l-32 -26q-50 -8 -234 -17q0 -68 36.5 -121t91.5 -53q50 0 125 33z"/>
<glyph unicode="ì" glyph-name="igrave" horiz-adv-x="254" d="M190 482l-18 -22q-37 19 -103 74t-86 81l73 35q17 -30 58.5 -83.5t75.5 -84.5zM156 311v-233q0 -22 7 -33q27 -16 70 -26l-8 -20q-38 2 -90 2q-59 0 -110 -2l3 20q34 11 55 29q5 15 5 40v174q0 91 -10 101q-27 12 -59 12l-6 19q78 6 148 23q-5 -57 -5 -106z"/>
<glyph unicode="í" glyph-name="iacute" horiz-adv-x="254" d="M75 460l-17 21q37 29 80 82.5t60 84.5l71 -32q-22 -28 -88 -81.5t-106 -74.5zM156 311v-233q0 -22 7 -33q27 -16 70 -26l-8 -20q-38 2 -90 2q-59 0 -110 -2l3 20q34 11 55 29q5 15 5 40v174q0 91 -10 101q-27 12 -59 12l-6 19q78 6 148 23q-5 -57 -5 -106z"/>
<glyph unicode="î" glyph-name="icircumflex" horiz-adv-x="254" d="M125 649l104 -179l-18 -10l-113 106l-99 -108l-20 13l112 171zM156 311v-233q0 -22 7 -33q27 -16 70 -26l-8 -20q-38 2 -90 2q-59 0 -110 -2l3 20q34 11 55 29q5 15 5 40v174q0 91 -10 101q-27 12 -59 12l-6 19q78 6 148 23q-5 -57 -5 -106z"/>
<glyph unicode="ï" glyph-name="idieresis" horiz-adv-x="254" d="M182 473l-44 34q31 43 47 76l53 -36q-22 -36 -56 -74zM33 476l-44 35q27 36 47 76l55 -36q-36 -52 -58 -75zM156 311v-233q0 -22 7 -33q27 -16 70 -26l-8 -20q-38 2 -90 2q-59 0 -110 -2l3 20q34 11 55 29q5 15 5 40v174q0 91 -10 101q-27 12 -59 12l-6 19q78 6 148 23 q-5 -57 -5 -106z"/>
<glyph unicode="ð" glyph-name="eth" horiz-adv-x="475" d="M104 225q0 -79 36.5 -136.5t100.5 -57.5q113 0 113 182q0 55 -12 92q-51 64 -127 64q-54 0 -82.5 -42t-28.5 -102zM107 494l-16 33l122 52q-53 43 -142 67l24 31q91 -18 169 -72l102 46l20 -32l-87 -40q54 -50 92.5 -130.5t38.5 -175.5q0 -126 -45 -189 q-29 -42 -73.5 -71t-92.5 -29q-87 0 -139.5 61.5t-52.5 148.5q0 82 51 136q30 33 72 59.5t74 26.5q28 0 62.5 -14t54.5 -33q-11 54 -38.5 102.5t-58.5 78.5z"/>
<glyph unicode="ñ" glyph-name="ntilde" horiz-adv-x="516" d="M209 525q-30 0 -76 -49l-13 14q78 99 110 99q17 0 61.5 -26.5t64.5 -26.5q30 0 67 43l15 -12q-18 -26 -51 -58.5t-49 -32.5q-14 0 -59 24.5t-70 24.5zM153 344q23 13 45 30q71 46 90 46q51 0 96 -37q43 -34 43 -118v-195q0 -21 7 -27q22 -17 69 -25l-6 -21q-46 4 -90 4 q-40 0 -92 -4l3 21q27 7 36 19q6 14 6 33v142q0 41 -4 66q-4 32 -27 55.5t-61 23.5q-39 0 -114 -47v-225q0 -35 5 -43q24 -16 68 -21l-7 -23q-45 4 -93 4q-67 0 -104 -4l2 23q31 5 54 22q3 9 3 40v210q0 49 -10 63q-24 11 -63 13l-4 17q77 18 131 41q9 -30 17 -83z"/>
<glyph unicode="ò" glyph-name="ograve" horiz-adv-x="470" d="M314 482l-18 -22q-37 19 -103 74t-86 81l73 35q17 -30 58.5 -83.5t75.5 -84.5zM98 225q0 -78 41.5 -135t108.5 -57q54 0 81 42t27 103q0 82 -40 139t-103 57q-54 0 -84.5 -44.5t-30.5 -104.5zM224 420q95 0 150 -58.5t55 -138.5q0 -91 -43 -146q-26 -33 -71.5 -63 t-84.5 -30q-93 0 -149.5 62t-56.5 148q0 72 51 136q25 31 69 60.5t80 29.5z"/>
<glyph unicode="ó" glyph-name="oacute" horiz-adv-x="470" d="M182 460l-17 21q37 29 80 82.5t60 84.5l71 -32q-22 -28 -88 -81.5t-106 -74.5zM98 225q0 -78 41.5 -135t108.5 -57q54 0 81 42t27 103q0 82 -40 139t-103 57q-54 0 -84.5 -44.5t-30.5 -104.5zM224 420q95 0 150 -58.5t55 -138.5q0 -91 -43 -146q-26 -33 -71.5 -63 t-84.5 -30q-93 0 -149.5 62t-56.5 148q0 72 51 136q25 31 69 60.5t80 29.5z"/>
<glyph unicode="ô" glyph-name="ocircumflex" horiz-adv-x="470" d="M253 649l104 -179l-18 -10l-113 106l-99 -108l-20 13l112 171zM98 225q0 -78 41.5 -135t108.5 -57q54 0 81 42t27 103q0 82 -40 139t-103 57q-54 0 -84.5 -44.5t-30.5 -104.5zM224 420q95 0 150 -58.5t55 -138.5q0 -91 -43 -146q-26 -33 -71.5 -63t-84.5 -30 q-93 0 -149.5 62t-56.5 148q0 72 51 136q25 31 69 60.5t80 29.5z"/>
<glyph unicode="õ" glyph-name="otilde" horiz-adv-x="470" d="M174 525q-30 0 -76 -49l-13 14q78 99 110 99q17 0 62 -26.5t64 -26.5q30 0 67 43l15 -12q-18 -26 -51 -58.5t-49 -32.5q-13 0 -58.5 24.5t-70.5 24.5zM98 225q0 -78 41.5 -135t108.5 -57q54 0 81 42t27 103q0 82 -40 139t-103 57q-54 0 -84.5 -44.5t-30.5 -104.5z M224 420q95 0 150 -58.5t55 -138.5q0 -91 -43 -146q-26 -33 -71.5 -63t-84.5 -30q-93 0 -149.5 62t-56.5 148q0 72 51 136q25 31 69 60.5t80 29.5z"/>
<glyph unicode="ö" glyph-name="odieresis" horiz-adv-x="470" d="M310 473l-44 34q31 43 47 76l53 -36q-22 -36 -56 -74zM161 476l-44 35q27 36 47 76l55 -36q-36 -52 -58 -75zM98 225q0 -78 41.5 -135t108.5 -57q54 0 81 42t27 103q0 82 -40 139t-103 57q-54 0 -84.5 -44.5t-30.5 -104.5zM224 420q95 0 150 -58.5t55 -138.5 q0 -91 -43 -146q-26 -33 -71.5 -63t-84.5 -30q-93 0 -149.5 62t-56.5 148q0 72 51 136q25 31 69 60.5t80 29.5z"/>
<glyph unicode="÷" glyph-name="divide" horiz-adv-x="400" d="M31 186l12 56h322l9 -9l-11 -41q-21 1 -75 1q-170 0 -257 -7zM190 77q-16 0 -25.5 10.5t-9.5 25.5q0 22 14.5 35t34.5 13q34 0 34 -36q0 -19 -14.5 -33.5t-33.5 -14.5zM200 277q-16 0 -25 10t-9 26q0 22 14.5 35.5t34.5 13.5q15 0 24.5 -10.5t9.5 -25.5 q0 -20 -14.5 -34.5t-34.5 -14.5z"/>
<glyph unicode="ø" glyph-name="oslash" horiz-adv-x="470" d="M356 178q0 82 -37 137l-151 -256q34 -26 80 -26q54 0 81 42t27 103zM98 225q0 -87 44 -142l153 259q-34 32 -82 32q-54 0 -84.5 -44.5t-30.5 -104.5zM224 420q57 0 102 -24l42 71l30 -18l-42 -72q73 -58 73 -154q0 -91 -43 -146q-26 -33 -71.5 -63t-84.5 -30 q-50 0 -94 21l-49 -84l-28 19l48 82q-83 60 -83 172q0 72 51 136q25 31 69 60.5t80 29.5z"/>
<glyph unicode="ù" glyph-name="ugrave" horiz-adv-x="517" d="M323 482l-18 -22q-37 19 -103 74t-86 81l73 35q17 -30 58.5 -83.5t75.5 -84.5zM348 62q-23 -12 -63 -40q-57 -38 -78 -38q-61 0 -95 42t-39 106q-1 7 -1 21v156q0 36 -3 42q-23 13 -69 17l-6 16q97 20 150 39q-3 -43 -3 -136v-89q0 -46 4 -72q4 -31 26 -55t57 -24 q48 0 118 49v212q0 46 -8 55q-12 11 -55 18l-6 17q93 9 142 21q-3 -108 -3 -153v-158q0 -41 5 -51q6 -12 32 -12q23 0 41 2l4 -14q-57 -18 -128 -54l-8 5q-11 32 -14 78z"/>
<glyph unicode="ú" glyph-name="uacute" horiz-adv-x="517" d="M214 460l-17 21q37 29 80 82.5t60 84.5l71 -32q-22 -28 -88 -81.5t-106 -74.5zM348 62q-23 -12 -63 -40q-57 -38 -78 -38q-61 0 -95 42t-39 106q-1 7 -1 21v156q0 36 -3 42q-23 13 -69 17l-6 16q97 20 150 39q-3 -43 -3 -136v-89q0 -46 4 -72q4 -31 26 -55t57 -24 q48 0 118 49v212q0 46 -8 55q-12 11 -55 18l-6 17q93 9 142 21q-3 -108 -3 -153v-158q0 -41 5 -51q6 -12 32 -12q23 0 41 2l4 -14q-57 -18 -128 -54l-8 5q-11 32 -14 78z"/>
<glyph unicode="û" glyph-name="ucircumflex" horiz-adv-x="517" d="M263 649l104 -179l-18 -10l-113 106l-99 -108l-20 13l112 171zM348 62q-23 -12 -63 -40q-57 -38 -78 -38q-61 0 -95 42t-39 106q-1 7 -1 21v156q0 36 -3 42q-23 13 -69 17l-6 16q97 20 150 39q-3 -43 -3 -136v-89q0 -46 4 -72q4 -31 26 -55t57 -24q48 0 118 49v212 q0 46 -8 55q-12 11 -55 18l-6 17q93 9 142 21q-3 -108 -3 -153v-158q0 -41 5 -51q6 -12 32 -12q23 0 41 2l4 -14q-57 -18 -128 -54l-8 5q-11 32 -14 78z"/>
<glyph unicode="ü" glyph-name="udieresis" horiz-adv-x="517" d="M322 473l-44 34q31 43 47 76l53 -36q-22 -36 -56 -74zM173 476l-44 35q27 36 47 76l55 -36q-36 -52 -58 -75zM348 62q-23 -12 -63 -40q-57 -38 -78 -38q-61 0 -95 42t-39 106q-1 7 -1 21v156q0 36 -3 42q-23 13 -69 17l-6 16q97 20 150 39q-3 -43 -3 -136v-89 q0 -46 4 -72q4 -31 26 -55t57 -24q48 0 118 49v212q0 46 -8 55q-12 11 -55 18l-6 17q93 9 142 21q-3 -108 -3 -153v-158q0 -41 5 -51q6 -12 32 -12q23 0 41 2l4 -14q-57 -18 -128 -54l-8 5q-11 32 -14 78z"/>
<glyph unicode="ý" glyph-name="yacute" horiz-adv-x="448" d="M196 460l-17 21q37 29 80 82.5t60 84.5l71 -32q-22 -28 -88 -81.5t-106 -74.5zM382 322q-73 -150 -131 -295l-124 -302l-75 38q91 99 137 222q-19 47 -66 162.5t-57 140.5q-21 54 -37 72q-10 10 -32 14l-10 22q49 3 119 19q10 -52 39 -129l81 -220l117 280q2 6 2 9 q0 7 -8 10q-24 8 -59 18l-6 21q15 -1 42 -1q60 0 105 8l4 -15q-14 -19 -41 -74z"/>
<glyph unicode="þ" glyph-name="thorn" horiz-adv-x="496" d="M137 313v-235q73 -42 127 -42q49 0 77.5 48t28.5 113q0 73 -31 115t-95 42q-20 0 -53 -14t-54 -27zM137 551v-207q10 7 27.5 18t31.5 20t26 16q33 22 55 22q79 0 124.5 -59.5t45.5 -137.5q0 -79 -51 -140q-78 -92 -164 -92q-54 0 -96 17v-182q0 -32 7 -42q25 -15 86 -27 l-9 -23q-41 4 -99 4q-67 0 -116 -4l6 23q36 8 52 26q5 20 5 64v702q0 71 -5 78q-24 14 -75 14l-7 21q112 14 166 33q-10 -70 -10 -144z"/>
<glyph unicode="ÿ" glyph-name="ydieresis" horiz-adv-x="448" d="M299 473l-44 34q31 43 47 76l53 -36q-22 -36 -56 -74zM150 476l-44 35q27 36 47 76l55 -36q-36 -52 -58 -75zM382 322q-73 -150 -131 -295l-124 -302l-75 38q91 99 137 222q-19 47 -66 162.5t-57 140.5q-21 54 -37 72q-10 10 -32 14l-10 22q49 3 119 19q10 -52 39 -129 l81 -220l117 280q2 6 2 9q0 7 -8 10q-24 8 -59 18l-6 21q15 -1 42 -1q60 0 105 8l4 -15q-14 -19 -41 -74z"/>
<glyph unicode="Ā" glyph-name="Amacron" horiz-adv-x="660" d="M191 699l8 34h261l-7 -23l-5 -30h-262zM308 541l-88 -244h179zM488 74l-73 183h-211l-72 -189q-3 -9 -3 -16q0 -10 32.5 -17t69.5 -10l-13 -28q-65 5 -104 5q-46 0 -99 -5l8 25q40 7 54 36q18 34 111 270.5t105 282.5l59 9q25 -81 117.5 -306.5t106.5 -247.5 q23 -36 79 -44l-11 -24q-60 5 -117 5q-49 0 -117 -6l8 25q77 6 77 24q0 12 -7 28z"/>
<glyph unicode="ā" glyph-name="amacron" horiz-adv-x="422" d="M94 509l7 34h237l-6 -23l-5 -30h-238zM254 82v115q-40 -4 -76 -15q-72 -23 -72 -75q0 -26 16 -44t47 -18t85 37zM406 60l9 -18q-97 -58 -125 -58q-30 0 -36 69q-98 -69 -134 -69q-38 0 -65.5 34t-27.5 70q0 45 20.5 66t70.5 38q40 14 136 36v66q0 40 -15.5 58t-51.5 18 q-42 0 -61 -17l-2 -55q-20 -9 -60 -20q-5 5 -5 20q0 37 11 50q16 18 72.5 45t84.5 27q49 0 73.5 -28.5t24.5 -77.5v-223q0 -27 3 -35.5t13 -8.5q26 0 65 13z"/>
<glyph unicode="Ă" glyph-name="Abreve" horiz-adv-x="660" d="M323 656q-44 0 -78 35t-47 71l61 27q12 -26 35 -51t49 -25q30 0 57.5 23t45.5 54l25 -11q-26 -51 -67 -87t-81 -36zM308 541l-88 -244h179zM488 74l-73 183h-211l-72 -189q-3 -9 -3 -16q0 -10 32.5 -17t69.5 -10l-13 -28q-65 5 -104 5q-46 0 -99 -5l8 25q40 7 54 36 q18 34 111 270.5t105 282.5l59 9q25 -81 117.5 -306.5t106.5 -247.5q23 -36 79 -44l-11 -24q-60 5 -117 5q-49 0 -117 -6l8 25q77 6 77 24q0 12 -7 28z"/>
<glyph unicode="ă" glyph-name="abreve" horiz-adv-x="422" d="M203 466q-44 0 -78 35t-47 71l61 27q12 -26 35 -51t49 -25q30 0 57.5 23t45.5 54l25 -11q-26 -51 -67 -87t-81 -36zM254 82v115q-40 -4 -76 -15q-72 -23 -72 -75q0 -26 16 -44t47 -18t85 37zM406 60l9 -18q-97 -58 -125 -58q-30 0 -36 69q-98 -69 -134 -69 q-38 0 -65.5 34t-27.5 70q0 45 20.5 66t70.5 38q40 14 136 36v66q0 40 -15.5 58t-51.5 18q-42 0 -61 -17l-2 -55q-20 -9 -60 -20q-5 5 -5 20q0 37 11 50q16 18 72.5 45t84.5 27q49 0 73.5 -28.5t24.5 -77.5v-223q0 -27 3 -35.5t13 -8.5q26 0 65 13z"/>
<glyph unicode="Ą" glyph-name="Aogonek" horiz-adv-x="661" d="M309 539l-87 -242h178zM482 92l-65 165h-211l-74 -189q-4 -11 -4 -16q0 -9 7 -13q29 -15 97 -18l-11 -24q-65 5 -116 5q-32 0 -90 -5l8 25q40 6 54 33q18 34 112 273t107 287l52 10q33 -97 124 -317.5t105 -241.5q23 -36 79 -44l-11 -24q-63 7 -90 7q-41 0 -64 -13 q-24 -13 -45 -46t-21 -71q0 -33 13.5 -57.5t38.5 -24.5q26 0 64 17l8 -15q-79 -50 -107 -50q-37 0 -59 30.5t-22 66.5q0 48 29 83q29 38 86 89q18 15 18 35q0 16 -12 43z"/>
<glyph unicode="ą" glyph-name="aogonek" horiz-adv-x="422" d="M251 82v115q-35 -4 -73 -15q-72 -23 -72 -75q0 -26 16 -44t47 -18q28 0 82 37zM406 60l9 -18q-28 -17 -65 -37q-96 -52 -96 -113q0 -33 12 -56.5t37 -23.5q21 0 57 18l8 -16q-7 -4 -27 -15t-32 -17t-26 -12t-21 -6q-31 0 -51 32t-20 63q0 55 34 85q18 19 57 42 q-22 10 -31 67q-54 -38 -82 -53.5t-49 -15.5q-38 0 -65.5 34t-27.5 70q0 45 20.5 66t70.5 38q45 16 133 36v66q0 40 -15 58t-51 18q-40 0 -58 -16l-2 -55q-24 -11 -61 -21q-5 5 -5 20q0 37 11 50q16 18 72.5 45t84.5 27q49 0 73.5 -28.5t24.5 -77.5v-223q0 -27 3 -35.5 t13 -8.5q26 0 65 13z"/>
<glyph unicode="Ć" glyph-name="Cacute" horiz-adv-x="630" d="M264 658l-13 20q42 21 99 61.5t81 65.5l69 -43q-23 -18 -105 -53t-131 -51zM139 323q0 -124 69 -211t174 -87q78 0 128 31q32 38 69 113l11 -8q-25 -92 -38 -157q-90 -20 -182 -20q-84 0 -154.5 35t-116.5 111t-46 181q0 98 53 169q38 51 114.5 97.5t127.5 46.5 q53 0 114.5 -13.5t97.5 -28.5q-2 -61 -2 -172l-14 -4q-34 101 -40 115q-64 51 -177 51q-85 0 -136.5 -74.5t-51.5 -174.5z"/>
<glyph unicode="ć" glyph-name="cacute" horiz-adv-x="396" d="M180 460l-17 21q37 29 80 82.5t60 84.5l71 -32q-22 -28 -88 -81.5t-106 -74.5zM220 420q88 0 136 -23q-17 -42 -38 -67q-66 45 -107 45q-48 0 -81 -40t-33 -115q0 -71 37 -122t89 -51q56 0 126 34l7 -27q-113 -70 -167 -70q-76 0 -122 65t-46 140q0 79 37 126 q24 32 77 68.5t85 36.5z"/>
<glyph unicode="Ĉ" glyph-name="Ccircumflex" horiz-adv-x="630" d="M389 793l104 -125l-21 -14l-103 68l-100 -70l-21 15l111 126h30zM139 323q0 -124 69 -211t174 -87q78 0 128 31q32 38 69 113l11 -8q-25 -92 -38 -157q-90 -20 -182 -20q-84 0 -154.5 35t-116.5 111t-46 181q0 98 53 169q38 51 114.5 97.5t127.5 46.5q53 0 114.5 -13.5 t97.5 -28.5q-2 -61 -2 -172l-14 -4q-34 101 -40 115q-64 51 -177 51q-85 0 -136.5 -74.5t-51.5 -174.5z"/>
<glyph unicode="ĉ" glyph-name="ccircumflex" horiz-adv-x="396" d="M248 649l104 -179l-18 -10l-113 106l-99 -108l-20 13l112 171zM220 420q88 0 136 -23q-17 -42 -38 -67q-66 45 -107 45q-48 0 -81 -40t-33 -115q0 -71 37 -122t89 -51q56 0 126 34l7 -27q-113 -70 -167 -70q-76 0 -122 65t-46 140q0 79 37 126q24 32 77 68.5t85 36.5z "/>
<glyph unicode="Ċ" glyph-name="Cdotaccent" horiz-adv-x="630" d="M360 670l-47 46q11 14 58 89q1 -1 13.5 -12t25 -21l17.5 -14q-20 -34 -67 -88zM139 323q0 -124 69 -211t174 -87q78 0 128 31q32 38 69 113l11 -8q-25 -92 -38 -157q-90 -20 -182 -20q-84 0 -154.5 35t-116.5 111t-46 181q0 98 53 169q38 51 114.5 97.5t127.5 46.5 q53 0 114.5 -13.5t97.5 -28.5q-2 -61 -2 -172l-14 -4q-34 101 -40 115q-64 51 -177 51q-85 0 -136.5 -74.5t-51.5 -174.5z"/>
<glyph unicode="ċ" glyph-name="cdotaccent" horiz-adv-x="396" d="M224 480l-47 46q11 14 58 89q1 -1 13.5 -12t25 -21l17.5 -14q-20 -34 -67 -88zM220 420q88 0 136 -23q-17 -42 -38 -67q-66 45 -107 45q-48 0 -81 -40t-33 -115q0 -71 37 -122t89 -51q56 0 126 34l7 -27q-113 -70 -167 -70q-76 0 -122 65t-46 140q0 79 37 126 q24 32 77 68.5t85 36.5z"/>
<glyph unicode="Č" glyph-name="Ccaron" horiz-adv-x="630" d="M359 658l-116 86l67 47l73 -76l135 74l10 -24l-146 -107h-23zM139 323q0 -124 69 -211t174 -87q78 0 128 31q32 38 69 113l11 -8q-25 -92 -38 -157q-90 -20 -182 -20q-84 0 -154.5 35t-116.5 111t-46 181q0 98 53 169q38 51 114.5 97.5t127.5 46.5q53 0 114.5 -13.5 t97.5 -28.5q-2 -61 -2 -172l-14 -4q-34 101 -40 115q-64 51 -177 51q-85 0 -136.5 -74.5t-51.5 -174.5z"/>
<glyph unicode="č" glyph-name="ccaron" horiz-adv-x="396" d="M214 460l-102 107l67 39l56 -82l119 90l17 -21l-137 -133h-20zM220 420q88 0 136 -23q-17 -42 -38 -67q-66 45 -107 45q-48 0 -81 -40t-33 -115q0 -71 37 -122t89 -51q56 0 126 34l7 -27q-113 -70 -167 -70q-76 0 -122 65t-46 140q0 79 37 126q24 32 77 68.5t85 36.5z "/>
<glyph unicode="Ď" glyph-name="Dcaron" horiz-adv-x="688" d="M288 658l-116 86l67 47l73 -76l135 74l10 -24l-146 -107h-23zM201 516v-417q0 -32 3 -47q42 -17 117 -17q110 0 172 75t62 206q0 122 -72.5 188.5t-182.5 66.5q-67 0 -92 -11q-7 -10 -7 -44zM305 614q137 0 235 -84t98 -208q0 -158 -90.5 -243t-220.5 -85q-50 0 -124 4 q-39 3 -74 3q-41 0 -82 -4l8 25q45 4 64 20q8 22 8 62v432q0 26 -8 37q-12 10 -65 15l-9 25q36 -5 88 -5q39 0 84 3t88 3z"/>
<glyph unicode="ď" glyph-name="dcaron" horiz-adv-x="516" d="M330 92v235q-79 43 -125 43q-47 0 -77.5 -49.5t-30.5 -110.5q0 -72 34 -115t93 -43q46 0 106 40zM488 58l8 -19l-142 -64l-7 3q-5 10 -11 37t-6 45q-98 -76 -140 -76q-77 0 -124 61.5t-47 137.5q0 81 51 140q29 34 87 65.5t85 31.5q35 0 90 -24v128q0 88 -6 101 q-27 15 -70 15l-6 22q88 5 164 24q-13 -84 -13 -187v-413q0 -22 4.5 -30t18.5 -8q19 0 64 10zM444 626l45 69q54 -28 54 -82q0 -30 -24 -80.5t-49 -80.5l-22 14q32 45 32 93q0 46 -36 67z"/>
<glyph unicode="Đ" glyph-name="Dcroat" horiz-adv-x="688" d="M337 292h-137v-202q0 -27 4 -47q42 -17 117 -17q110 0 173.5 78t63.5 212q0 124 -74 191.5t-184 67.5q-67 0 -92 -11q-7 -10 -7 -44v-183h136v-45zM305 614q137 0 235 -84t98 -208q0 -158 -90.5 -243t-220.5 -85q-50 0 -124 4q-39 3 -74 3q-41 0 -82 -4l8 25q45 4 64 20 q8 22 8 62v188h-76v45h76v199q0 26 -8 37q-12 10 -65 15l-9 25q36 -5 88 -5q39 0 84 3t88 3z"/>
<glyph unicode="đ" glyph-name="dcroat" horiz-adv-x="502" d="M330 92v235q-79 43 -125 43q-47 0 -77.5 -49.5t-30.5 -110.5q0 -72 34 -115t93 -43q46 0 106 40zM488 58l8 -19l-142 -64l-7 3q-5 10 -11 37t-6 45q-98 -76 -140 -76q-77 0 -124 61.5t-47 137.5q0 81 51 140q29 34 87 65.5t85 31.5q35 0 90 -24v110h-136l2 41h134 q0 63 -6 78q-27 15 -70 15l-6 22q88 5 164 24q-8 -45 -12 -137q33 1 88 5l-9 -47h-80v-421q0 -22 4.5 -30t18.5 -8q19 0 64 10z"/>
<glyph unicode="Ē" glyph-name="Emacron" horiz-adv-x="536" d="M118 699l8 34h273l-7 -23l-6 -30h-273zM487 166l19 -1q-15 -85 -45 -169q-74 6 -184 6q-113 0 -232 -5l8 25q16 2 37 8t29 12q8 19 8 55v432q0 27 -8 37q-16 12 -61 16l-9 29q55 -4 160 -4q134 0 232 11q4 -129 8 -177l-13 -1q-27 74 -44 109q-5 11 -12 12q-17 4 -81 4 q-84 0 -94 -7q-4 -10 -4 -49v-167q17 -1 66 -1q67 0 97 3l24 56l13 -2q-3 -45 -3 -76q0 -61 5 -97l-14 -1l-30 65q-25 2 -91 2q-49 0 -68 -1v-197q0 -29 5 -42q45 -6 116 -6q35 0 69 2q34 4 41 15q25 33 56 104z"/>
<glyph unicode="ē" glyph-name="emacron" horiz-adv-x="400" d="M104 509l7 34h237l-6 -23l-5 -30h-238zM193 370q-39 0 -66.5 -40t-27.5 -80q133 12 193 26q0 32 -24 63t-75 31zM351 81l7 -27q-118 -70 -167 -70q-73 0 -121 64.5t-48 131.5q0 80 36 131q20 31 76.5 70t87.5 39q66 0 104 -46.5t38 -108.5l-32 -26q-50 -8 -234 -17 q0 -68 36.5 -121t91.5 -53q50 0 125 33z"/>
<glyph unicode="Ĕ" glyph-name="Ebreve" horiz-adv-x="536" d="M267 656q-44 0 -78 35t-47 71l61 27q12 -26 35 -51t49 -25q30 0 57.5 23t45.5 54l25 -11q-26 -51 -67 -87t-81 -36zM487 166l19 -1q-15 -85 -45 -169q-74 6 -184 6q-113 0 -232 -5l8 25q16 2 37 8t29 12q8 19 8 55v432q0 27 -8 37q-16 12 -61 16l-9 29q55 -4 160 -4 q134 0 232 11q4 -129 8 -177l-13 -1q-27 74 -44 109q-5 11 -12 12q-17 4 -81 4q-84 0 -94 -7q-4 -10 -4 -49v-167q17 -1 66 -1q67 0 97 3l24 56l13 -2q-3 -45 -3 -76q0 -61 5 -97l-14 -1l-30 65q-25 2 -91 2q-49 0 -68 -1v-197q0 -29 5 -42q45 -6 116 -6q35 0 69 2 q34 4 41 15q25 33 56 104z"/>
<glyph unicode="ĕ" glyph-name="ebreve" horiz-adv-x="400" d="M200 466q-44 0 -78 35t-47 71l61 27q12 -26 35 -51t49 -25q30 0 57.5 23t45.5 54l25 -11q-26 -51 -67 -87t-81 -36zM193 370q-39 0 -66.5 -40t-27.5 -80q133 12 193 26q0 32 -24 63t-75 31zM351 81l7 -27q-118 -70 -167 -70q-73 0 -121 64.5t-48 131.5q0 80 36 131 q20 31 76.5 70t87.5 39q66 0 104 -46.5t38 -108.5l-32 -26q-50 -8 -234 -17q0 -68 36.5 -121t91.5 -53q50 0 125 33z"/>
<glyph unicode="Ė" glyph-name="Edotaccent" horiz-adv-x="536" d="M265 670l-47 46q11 14 58 89q1 -1 13.5 -12t25 -21l17.5 -14q-20 -34 -67 -88zM487 166l19 -1q-15 -85 -45 -169q-74 6 -184 6q-113 0 -232 -5l8 25q16 2 37 8t29 12q8 19 8 55v432q0 27 -8 37q-16 12 -61 16l-9 29q55 -4 160 -4q134 0 232 11q4 -129 8 -177l-13 -1 q-27 74 -44 109q-5 11 -12 12q-17 4 -81 4q-84 0 -94 -7q-4 -10 -4 -49v-167q17 -1 66 -1q67 0 97 3l24 56l13 -2q-3 -45 -3 -76q0 -61 5 -97l-14 -1l-30 65q-25 2 -91 2q-49 0 -68 -1v-197q0 -29 5 -42q45 -6 116 -6q35 0 69 2q34 4 41 15q25 33 56 104z"/>
<glyph unicode="ė" glyph-name="edotaccent" horiz-adv-x="400" d="M207 480l-47 46q11 14 58 89q1 -1 13.5 -12t25 -21l17.5 -14q-20 -34 -67 -88zM193 370q-39 0 -66.5 -40t-27.5 -80q133 12 193 26q0 32 -24 63t-75 31zM351 81l7 -27q-118 -70 -167 -70q-73 0 -121 64.5t-48 131.5q0 80 36 131q20 31 76.5 70t87.5 39q66 0 104 -46.5 t38 -108.5l-32 -26q-50 -8 -234 -17q0 -68 36.5 -121t91.5 -53q50 0 125 33z"/>
<glyph unicode="Ę" glyph-name="Eogonek" horiz-adv-x="536" d="M487 166l19 -1q-15 -85 -45 -169h-5q-36 0 -70.5 -37t-34.5 -84q0 -34 12 -58t36 -24q26 0 64 17l7 -15q-77 -50 -105 -50q-36 0 -59.5 31t-23.5 66q0 49 29 83q35 40 88 75q-76 2 -122 2q-113 0 -232 -5l8 25q16 2 37 8t29 12q8 19 8 55v432q0 27 -8 37q-16 12 -61 16 l-9 29q55 -4 160 -4q134 0 232 11q4 -129 8 -177l-13 -1q-27 74 -44 109q-5 11 -12 12q-17 4 -81 4q-84 0 -94 -7q-4 -10 -4 -49v-167q17 -1 66 -1q67 0 97 3l24 56l13 -2q-3 -45 -3 -76q0 -56 5 -92l-14 -1l-30 65q-46 2 -97 2q-45 0 -62 -1v-202q0 -29 5 -42q45 -6 116 -6 q35 0 69 2q34 4 41 15q25 33 56 104z"/>
<glyph unicode="ę" glyph-name="eogonek" horiz-adv-x="400" d="M193 370q-39 0 -66.5 -40t-27.5 -80q133 12 193 26q0 32 -24 63t-75 31zM351 81l7 -27q-4 -2 -10.5 -6.5t-12 -8t-10.5 -6.5q-40 -24 -66.5 -62.5t-26.5 -73.5t14 -61t40 -26t57 18l8 -16q-77 -50 -97 -50q-35 0 -58.5 33.5t-23.5 71.5q0 39 23 72q23 32 53 59 q-35 -14 -57 -14q-73 0 -121 64.5t-48 131.5q0 80 36 131q20 31 76.5 70t87.5 39q66 0 104 -46.5t38 -108.5l-32 -26q-50 -8 -234 -17q0 -68 36.5 -121t91.5 -53q50 0 125 33z"/>
<glyph unicode="Ě" glyph-name="Ecaron" horiz-adv-x="536" d="M248 658l-116 86l67 47l73 -76l135 74l10 -24l-146 -107h-23zM487 166l19 -1q-15 -85 -45 -169q-74 6 -184 6q-113 0 -232 -5l8 25q16 2 37 8t29 12q8 19 8 55v432q0 27 -8 37q-16 12 -61 16l-9 29q55 -4 160 -4q134 0 232 11q4 -129 8 -177l-13 -1q-27 74 -44 109 q-5 11 -12 12q-17 4 -81 4q-84 0 -94 -7q-4 -10 -4 -49v-167q17 -1 66 -1q67 0 97 3l24 56l13 -2q-3 -45 -3 -76q0 -61 5 -97l-14 -1l-30 65q-25 2 -91 2q-49 0 -68 -1v-197q0 -29 5 -42q45 -6 116 -6q35 0 69 2q34 4 41 15q25 33 56 104z"/>
<glyph unicode="ě" glyph-name="ecaron" horiz-adv-x="400" d="M207 460l-102 107l67 39l56 -82l119 90l17 -21l-137 -133h-20zM193 370q-39 0 -66.5 -40t-27.5 -80q133 12 193 26q0 32 -24 63t-75 31zM351 81l7 -27q-118 -70 -167 -70q-73 0 -121 64.5t-48 131.5q0 80 36 131q20 31 76.5 70t87.5 39q66 0 104 -46.5t38 -108.5l-32 -26 q-50 -8 -234 -17q0 -68 36.5 -121t91.5 -53q50 0 125 33z"/>
<glyph unicode="Ĝ" glyph-name="Gcircumflex" horiz-adv-x="681" d="M392 793l104 -125l-21 -14l-103 68l-100 -70l-21 15l111 126h30zM584 185v-77q0 -48 8 -83q-78 -41 -219 -41q-135 0 -227.5 88.5t-92.5 237.5q0 102 52 170q37 49 116.5 95.5t128.5 46.5q55 0 124 -13t102 -28q-2 -56 -2 -87q0 -29 2 -87l-18 -4q-20 73 -38 115 q-28 24 -78.5 39t-106.5 15q-87 0 -141.5 -72.5t-54.5 -182.5q0 -116 68.5 -204t180.5 -88q70 0 123 33v122q0 36 -6 47q-26 14 -63 17l-10 26q47 -3 106 -3q58 0 99 3l4 -23q-34 -4 -52 -17q-5 -12 -5 -45z"/>
<glyph unicode="ĝ" glyph-name="gcircumflex" horiz-adv-x="445" d="M215 649l104 -179l-18 -10l-113 106l-99 -108l-20 13l112 171zM92 282q0 -49 31.5 -89.5t75.5 -40.5q38 0 57 24.5t19 62.5q0 48 -28.5 92.5t-76.5 44.5q-38 0 -58 -27.5t-20 -66.5zM344 -110q0 48 -97 67q-79 15 -123 18q-39 -32 -39 -67q0 -49 39.5 -83.5t111.5 -34.5 q37 0 72.5 26.5t35.5 73.5zM341 263q0 -62 -38 -98.5t-84 -52.5q-56 -20 -75.5 -30.5t-19.5 -22.5q0 -26 90 -34q45 -4 75.5 -9.5t59.5 -17.5t43.5 -32.5t14.5 -50.5q0 -53 -68 -111.5t-139 -58.5q-87 0 -140 46.5t-53 115.5q1 7 13 21q24 30 77 69q-14 8 -26.5 29t-12.5 45 q4 3 42 19.5t49 22.5q-53 11 -89 50t-36 89q0 71 47.5 118t103.5 47q19 0 35.5 -2t29 -5.5t20 -6.5t16 -7t9.5 -5q6 -1 19 -1q42 0 94 16l19 -58h-101q25 -28 25 -85z"/>
<glyph unicode="Ğ" glyph-name="Gbreve" horiz-adv-x="681" d="M371 656q-44 0 -78 35t-47 71l61 27q12 -26 35 -51t49 -25q30 0 57.5 23t45.5 54l25 -11q-26 -51 -67 -87t-81 -36zM584 185v-77q0 -48 8 -83q-78 -41 -219 -41q-135 0 -227.5 88.5t-92.5 237.5q0 102 52 170q37 49 116.5 95.5t128.5 46.5q55 0 124 -13t102 -28 q-2 -56 -2 -87q0 -29 2 -87l-18 -4q-20 73 -38 115q-28 24 -78.5 39t-106.5 15q-87 0 -141.5 -72.5t-54.5 -182.5q0 -116 68.5 -204t180.5 -88q70 0 123 33v122q0 36 -6 47q-26 14 -63 17l-10 26q47 -3 106 -3q58 0 99 3l4 -23q-34 -4 -52 -17q-5 -12 -5 -45z"/>
<glyph unicode="ğ" glyph-name="gbreve" horiz-adv-x="445" d="M182 466q-44 0 -78 35t-47 71l61 27q12 -26 35 -51t49 -25q30 0 57.5 23t45.5 54l25 -11q-26 -51 -67 -87t-81 -36zM92 282q0 -49 31.5 -89.5t75.5 -40.5q38 0 57 24.5t19 62.5q0 48 -28.5 92.5t-76.5 44.5q-38 0 -58 -27.5t-20 -66.5zM344 -110q0 48 -97 67 q-79 15 -123 18q-39 -32 -39 -67q0 -49 39.5 -83.5t111.5 -34.5q37 0 72.5 26.5t35.5 73.5zM341 263q0 -62 -38 -98.5t-84 -52.5q-56 -20 -75.5 -30.5t-19.5 -22.5q0 -26 90 -34q45 -4 75.5 -9.5t59.5 -17.5t43.5 -32.5t14.5 -50.5q0 -53 -68 -111.5t-139 -58.5 q-87 0 -140 46.5t-53 115.5q1 7 13 21q24 30 77 69q-14 8 -26.5 29t-12.5 45q4 3 42 19.5t49 22.5q-53 11 -89 50t-36 89q0 71 47.5 118t103.5 47q19 0 35.5 -2t29 -5.5t20 -6.5t16 -7t9.5 -5q6 -1 19 -1q42 0 94 16l19 -58h-101q25 -28 25 -85z"/>
<glyph unicode="Ġ" glyph-name="Gdotaccent" horiz-adv-x="681" d="M363 670l-47 46q11 14 58 89q1 -1 13.5 -12t25 -21l17.5 -14q-20 -34 -67 -88zM584 185v-77q0 -48 8 -83q-78 -41 -219 -41q-135 0 -227.5 88.5t-92.5 237.5q0 102 52 170q37 49 116.5 95.5t128.5 46.5q55 0 124 -13t102 -28q-2 -56 -2 -87q0 -29 2 -87l-18 -4 q-20 73 -38 115q-28 24 -78.5 39t-106.5 15q-87 0 -141.5 -72.5t-54.5 -182.5q0 -116 68.5 -204t180.5 -88q70 0 123 33v122q0 36 -6 47q-26 14 -63 17l-10 26q47 -3 106 -3q58 0 99 3l4 -23q-34 -4 -52 -17q-5 -12 -5 -45z"/>
<glyph unicode="ġ" glyph-name="gdotaccent" horiz-adv-x="445" d="M185 480l-47 46q11 14 58 89q1 -1 13.5 -12t25 -21l17.5 -14q-20 -34 -67 -88zM92 282q0 -49 31.5 -89.5t75.5 -40.5q38 0 57 24.5t19 62.5q0 48 -28.5 92.5t-76.5 44.5q-38 0 -58 -27.5t-20 -66.5zM344 -110q0 48 -97 67q-79 15 -123 18q-39 -32 -39 -67 q0 -49 39.5 -83.5t111.5 -34.5q37 0 72.5 26.5t35.5 73.5zM341 263q0 -62 -38 -98.5t-84 -52.5q-56 -20 -75.5 -30.5t-19.5 -22.5q0 -26 90 -34q45 -4 75.5 -9.5t59.5 -17.5t43.5 -32.5t14.5 -50.5q0 -53 -68 -111.5t-139 -58.5q-87 0 -140 46.5t-53 115.5q1 7 13 21 q24 30 77 69q-14 8 -26.5 29t-12.5 45q4 3 42 19.5t49 22.5q-53 11 -89 50t-36 89q0 71 47.5 118t103.5 47q19 0 35.5 -2t29 -5.5t20 -6.5t16 -7t9.5 -5q6 -1 19 -1q42 0 94 16l19 -58h-101q25 -28 25 -85z"/>
<glyph unicode="Ģ" glyph-name="Gcommaaccent" horiz-adv-x="681" d="M308 -120l43 74q20 -7 48 -30.5t28 -50.5t-28 -65.5t-56 -58.5l-19 15q49 47 49 77q0 29 -65 39zM584 185v-77q0 -48 8 -83q-78 -41 -219 -41q-135 0 -227.5 88.5t-92.5 237.5q0 102 52 170q37 49 116.5 95.5t128.5 46.5q55 0 124 -13t102 -28q-2 -56 -2 -87q0 -29 2 -87 l-18 -4q-20 73 -38 115q-28 24 -78.5 39t-106.5 15q-87 0 -141.5 -72.5t-54.5 -182.5q0 -116 68.5 -204t180.5 -88q70 0 123 33v122q0 36 -6 47q-26 14 -63 17l-10 26q47 -3 106 -3q58 0 99 3l4 -23q-34 -4 -52 -17q-5 -12 -5 -45z"/>
<glyph unicode="ģ" glyph-name="gcommaaccent" horiz-adv-x="445" d="M92 282q0 -49 31.5 -89.5t75.5 -40.5q38 0 57 24.5t19 62.5q0 48 -28.5 92.5t-76.5 44.5q-38 0 -58 -27.5t-20 -66.5zM344 -110q0 48 -97 67q-79 15 -123 18q-39 -32 -39 -67q0 -49 39.5 -83.5t111.5 -34.5q37 0 72.5 26.5t35.5 73.5zM341 263q0 -62 -38 -98.5t-84 -52.5 q-56 -20 -75.5 -30.5t-19.5 -22.5q0 -26 90 -34q45 -4 75.5 -9.5t59.5 -17.5t43.5 -32.5t14.5 -50.5q0 -53 -68 -111.5t-139 -58.5q-87 0 -140 46.5t-53 115.5q1 7 13 21q24 30 77 69q-14 8 -26.5 29t-12.5 45q4 3 42 19.5t49 22.5q-53 11 -89 50t-36 89q0 71 47.5 118 t103.5 47q19 0 35.5 -2t29 -5.5t20 -6.5t16 -7t9.5 -5q6 -1 19 -1q42 0 94 16l19 -58h-101q25 -28 25 -85zM242 542l-44 -74q-20 7 -48.5 30t-28.5 51q0 26 28 64.5t57 59.5l20 -15q-50 -48 -50 -77q0 -32 66 -39z"/>
<glyph unicode="Ĥ" glyph-name="Hcircumflex" horiz-adv-x="712" d="M378 793l104 -125l-21 -14l-103 68l-100 -70l-21 15l111 126h30zM517 336v186q0 25 -7 41q-20 13 -68 18l-8 28q99 -3 117 -3q20 0 101 3l6 -27q-45 -4 -62 -15q-6 -20 -6 -65v-408q0 -30 4 -46q21 -15 88 -24l-10 -25q-50 3 -110 3q-56 0 -111 -3l7 25q41 8 52 22 q7 26 7 67v178h-318v-206q0 -26 4 -39q18 -14 84 -24l-8 -23q-42 3 -96 3q-53 0 -121 -4l5 25q40 8 53 21q5 17 5 47v436q0 28 -8 40q-22 13 -65 15l-7 30q72 -5 137 -5q35 0 85 2l4 -26q-49 -5 -66 -16q-6 -17 -6 -72v-159h318z"/>
<glyph unicode="ĥ" glyph-name="hcircumflex" horiz-adv-x="509" d="M119 864l104 -125l-21 -14l-103 68l-100 -70l-21 15l111 126h30zM75 84v507q0 32 -7 36q-19 14 -72 14l-8 21q107 12 168 33q-10 -85 -10 -144v-206q30 18 67 42q53 33 71 33q25 0 55.5 -13t48.5 -32q33 -38 33 -116v-177q0 -34 6 -39q24 -17 70 -25l-7 -21q-45 4 -89 4 q-41 0 -93 -4l3 21q27 7 36 19q5 10 5 42v133q0 44 -3 66q-6 38 -31.5 58.5t-56.5 20.5q-47 0 -115 -46v-224q0 -35 6 -45q14 -14 66 -24l-7 -20q-72 4 -100 4q-31 0 -95 -4l4 21q27 6 50 22q5 7 5 43z"/>
<glyph unicode="Ħ" glyph-name="Hbar" horiz-adv-x="712" d="M517 336v107h-318v-107h318zM48 443l3 41h74v43q0 28 -8 40q-22 13 -65 15l-7 30q72 -5 137 -5q35 0 85 2l4 -26q-49 -5 -66 -16q-6 -17 -6 -83h318v38q0 25 -7 41q-20 13 -68 18l-8 28q99 -3 117 -3q20 0 101 3l6 -27q-45 -4 -62 -15q-6 -20 -6 -81h68l-5 -42h-63v-350 q0 -30 4 -46q21 -15 88 -24l-10 -25q-50 3 -110 3q-56 0 -111 -3l7 25q41 8 52 22q7 26 7 67v178h-318v-206q0 -26 4 -39q18 -14 84 -24l-8 -23q-42 3 -96 3q-53 0 -121 -4l5 25q40 8 53 21q5 17 5 47v352h-77z"/>
<glyph unicode="ħ" glyph-name="hbar" horiz-adv-x="509" d="M75 84v410h-73l4 40h69v57q0 32 -7 36q-20 14 -72 14l-8 21q107 12 168 33q-10 -85 -10 -144v-16q114 2 230 13l-8 -53h-222v-150q30 18 67 42q53 33 71 33q25 0 55.5 -13t48.5 -32q33 -38 33 -116v-177q0 -34 6 -39q24 -17 70 -25l-7 -21q-45 4 -89 4q-41 0 -93 -4l3 21 q27 7 36 19q5 10 5 42v133q0 44 -3 66q-6 38 -31.5 58.5t-56.5 20.5q-47 0 -115 -46v-224q0 -35 6 -45q14 -14 66 -24l-7 -20q-72 4 -100 4q-31 0 -95 -4l4 21q27 6 50 22q5 7 5 43z"/>
<glyph unicode="Ĩ" glyph-name="Itilde" horiz-adv-x="320" d="M110 715q-29 0 -68 -49l-12 14q73 99 99 99q15 0 55 -26.5t58 -26.5q27 0 60 43l13 -12q-16 -26 -45.5 -58.5t-43.5 -32.5q-12 0 -52.5 24.5t-63.5 24.5zM133 114v415q0 28 -8 38q-19 12 -65 16l-9 30q51 -5 130 -5q53 0 97 3l5 -28q-56 -5 -71 -17q-6 -12 -6 -44v-428 q0 -39 4 -48q23 -15 93 -24l-11 -23q-63 3 -113 3q-51 0 -124 -3l8 26q44 5 62 20q8 21 8 69z"/>
<glyph unicode="ĩ" glyph-name="itilde" horiz-adv-x="254" d="M43 525q-30 0 -76 -49l-13 14q78 99 110 99q16 0 61 -26.5t65 -26.5q30 0 67 43l15 -12q-18 -26 -51 -58.5t-49 -32.5q-14 0 -59 24.5t-70 24.5zM156 311v-233q0 -22 7 -33q27 -16 70 -26l-8 -20q-38 2 -90 2q-59 0 -110 -2l3 20q34 11 55 29q5 15 5 40v174q0 91 -10 101 q-27 12 -59 12l-6 19q78 6 148 23q-5 -57 -5 -106z"/>
<glyph unicode="Ī" glyph-name="Imacron" horiz-adv-x="321" d="M52 699l7 34h237l-6 -23l-5 -30h-238zM133 114v415q0 28 -8 38q-19 12 -65 16l-9 30q51 -5 130 -5q53 0 97 3l5 -28q-56 -5 -71 -17q-6 -12 -6 -44v-428q0 -39 4 -48q23 -15 93 -24l-11 -23q-63 3 -113 3q-51 0 -124 -3l8 26q44 5 62 20q8 21 8 69z"/>
<glyph unicode="ī" glyph-name="imacron" horiz-adv-x="254" d="M-15 506l7 34h237l-6 -23l-5 -30h-238zM156 311v-233q0 -22 7 -33q27 -16 70 -26l-8 -20q-38 2 -90 2q-59 0 -110 -2l3 20q34 11 55 29q5 15 5 40v174q0 91 -10 101q-27 12 -59 12l-6 19q78 6 148 23q-5 -57 -5 -106z"/>
<glyph unicode="Ĭ" glyph-name="Ibreve" horiz-adv-x="321" d="M174 656q-44 0 -78 35t-47 71l61 27q12 -26 35 -51t49 -25q30 0 57.5 23t45.5 54l25 -11q-26 -51 -67 -87t-81 -36zM133 114v415q0 28 -8 38q-19 12 -65 16l-9 30q51 -5 130 -5q53 0 97 3l5 -28q-56 -5 -71 -17q-6 -12 -6 -44v-428q0 -39 4 -48q23 -15 93 -24l-11 -23 q-63 3 -113 3q-51 0 -124 -3l8 26q44 5 62 20q8 21 8 69z"/>
<glyph unicode="ĭ" glyph-name="ibreve" horiz-adv-x="254" d="M95 466q-44 0 -78 35t-47 71l61 27q12 -26 35 -51t49 -25q30 0 57.5 23t45.5 54l25 -11q-26 -51 -67 -87t-81 -36zM156 311v-233q0 -22 7 -33q27 -16 70 -26l-8 -20q-38 2 -90 2q-59 0 -110 -2l3 20q34 11 55 29q5 15 5 40v174q0 91 -10 101q-27 12 -59 12l-6 19 q78 6 148 23q-5 -57 -5 -106z"/>
<glyph unicode="Į" glyph-name="Iogonek" horiz-adv-x="320" d="M128 114v415q0 28 -8 38q-19 12 -65 16l-9 30q51 -5 130 -5q54 0 97 3l5 -28q-56 -5 -71 -17q-6 -12 -6 -44v-428q0 -39 4 -48q23 -15 93 -24l-11 -23h-7q-24 0 -52 -14q-29 -15 -52.5 -46t-23.5 -68q0 -29 15.5 -53.5t40.5 -24.5t63 17l8 -15q-86 -50 -107 -50 q-33 0 -58.5 30.5t-25.5 65.5q0 55 42 97q36 38 81 64h-37q-50 0 -124 -3l8 26q44 5 62 20q8 21 8 69z"/>
<glyph unicode="į" glyph-name="iogonek" horiz-adv-x="254" d="M124 500l-47 45q30 39 57 89q57 -47 58 -47q-35 -52 -68 -87zM157 311v-233q0 -22 7 -33q30 -17 70 -26l-8 -20q-26 2 -36 2q-37 0 -63 -14q-27 -14 -47 -44.5t-20 -63.5q0 -32 15 -59t40 -27q23 0 61 17l9 -15q-89 -50 -105 -50q-33 0 -58.5 30.5t-25.5 65.5q0 47 37 90 t88 72q-44 0 -95 -4l3 20q34 11 55 29q6 18 6 40v174q0 88 -11 101q-31 12 -59 12l-6 19q77 6 149 23q-6 -55 -6 -106z"/>
<glyph unicode="İ" glyph-name="Idotaccent" horiz-adv-x="321" d="M162 646l-47 46q11 14 58 89q1 -1 13.5 -12t25 -21l17.5 -14q-20 -34 -67 -88zM133 114v415q0 28 -8 38q-19 12 -65 16l-9 30q51 -5 130 -5q53 0 97 3l5 -28q-56 -5 -71 -17q-6 -12 -6 -44v-428q0 -39 4 -48q23 -15 93 -24l-11 -23q-63 3 -113 3q-51 0 -124 -3l8 26 q44 5 62 20q8 21 8 69z"/>
<glyph unicode="ı" glyph-name="dotlessi" horiz-adv-x="254" d="M156 311v-233q0 -22 7 -33q27 -16 70 -26l-8 -20q-38 2 -90 2q-59 0 -110 -2l3 20q34 11 55 29q5 15 5 40v174q0 91 -10 101q-27 12 -59 12l-6 19q78 6 148 23q-5 -57 -5 -106z"/>
<glyph unicode="Ĳ" glyph-name="IJ" horiz-adv-x="607" d="M128 114v415q0 28 -8 38q-19 12 -65 16l-9 30q51 -5 130 -5q54 0 97 3l5 -28q-56 -5 -71 -17q-6 -12 -6 -44v-428q0 -39 4 -48q23 -15 93 -24l-11 -23q-63 3 -113 3t-124 -3l8 26q44 5 62 20q8 21 8 69zM495 520v-375q0 -106 -3 -153q-4 -72 -36 -117q-50 -70 -126 -142 l-17 24q68 84 92 171q15 58 15 185v414q0 30 -8 38q-21 12 -65 16l-8 30q51 -5 133 -5q41 0 94 5l6 -30q-57 -5 -72 -17q-5 -13 -5 -44z"/>
<glyph unicode="ĳ" glyph-name="ij" horiz-adv-x="456" d="M342 500l-47 45q12 16 26 38.5t22 36.5l8 14q57 -47 58 -47q-27 -43 -67 -87zM378 31q0 -98 -34 -155q-15 -24 -120 -140l-14 25q71 91 88 151q13 38 13 135v218q0 86 -10 98q-31 12 -61 12l-5 19q79 6 149 23q-6 -69 -6 -106v-280zM124 500l-47 45q30 39 57 89 q57 -47 58 -47q-35 -52 -68 -87zM157 311v-233q0 -22 7 -33q30 -17 70 -26l-8 -20q-33 4 -94 4t-106 -4l3 20q34 11 55 29q6 18 6 40v174q0 88 -11 101q-31 12 -59 12l-6 19q77 6 149 23q-6 -55 -6 -106z"/>
<glyph unicode="Ĵ" glyph-name="Jcircumflex" horiz-adv-x="304" d="M174 793l104 -125l-21 -14l-103 68l-100 -70l-21 15l111 126h30zM197 520v-375q0 -106 -3 -153q-4 -72 -36 -117q-50 -70 -126 -142l-17 24q68 84 92 171q15 58 15 185v414q0 30 -8 38q-21 12 -65 16l-8 30q51 -5 133 -5q36 0 94 2l6 -27q-57 -5 -72 -17q-5 -13 -5 -44z "/>
<glyph unicode="ĵ" glyph-name="jcircumflex" horiz-adv-x="224" d="M121 646l104 -179l-18 -10l-113 106l-99 -108l-20 13l112 171zM146 31q0 -99 -35 -155q-17 -27 -119 -140l-14 25q69 91 88 151q13 41 13 135v218q0 86 -11 98q-29 12 -60 12l-6 19q77 6 150 23q-6 -55 -6 -106v-280z"/>
<glyph unicode="Ķ" glyph-name="Kcommaaccent" horiz-adv-x="626" d="M281 -120l43 74q20 -7 48 -30.5t28 -50.5t-28 -65.5t-56 -58.5l-19 15q49 47 49 77q0 29 -65 39zM380 584l-7 25q52 -4 95 -4q62 0 99 4l10 -25q-59 -11 -128 -75q-113 -105 -173 -174q33 -47 103 -126t110 -116q46 -42 123 -44l-12 -30q-18 -2 -61 -11t-61 -16l-13 5 q-110 140 -250 311v15l215 229q6 6 6 10t-7 7q-24 11 -49 15zM198 522l-1 -429q0 -30 4 -46q23 -17 88 -24l-10 -25q-48 3 -110 3q-55 0 -111 -3l6 25q41 8 53 22q6 22 6 67v417q0 30 -7 38q-21 12 -65 16l-7 30q51 -5 132 -5q40 0 83 3l5 -28q-43 -4 -61 -17q-5 -13 -5 -44 z"/>
<glyph unicode="ķ" glyph-name="kcommaaccent" horiz-adv-x="484" d="M189 -120l43 74q20 -7 48 -30.5t28 -50.5t-28 -65.5t-56 -58.5l-19 15q49 47 49 77q0 29 -65 39zM304 367q-19 6 -55 14l-7 25q30 -3 69 -3q74 0 119 8l10 -25q-48 -10 -90 -38q-62 -43 -124 -105q79 -110 142 -168q36 -34 95 -34l-3 -21q-44 -4 -103 -28l-12 4 q-74 92 -185 226v14q103 85 144 131zM153 572v-500q0 -26 6 -31q20 -16 70 -20l-4 -23q-55 3 -105 3q-42 0 -89 -3l3 22q19 4 42 20q5 8 5 38v493q0 47 -9 57q-31 16 -69 18q-1 2 -4 9.5t-4 10.5q107 8 166 27q-8 -43 -8 -121z"/>
<glyph unicode="ĸ" glyph-name="kgreenlandic" horiz-adv-x="478" d="M322 375q-19 10 -54 15l-7 26q28 -3 70 -3q68 0 119 7l8 -24q-54 -13 -90 -39q-25 -17 -69.5 -62.5t-65.5 -70.5q78 -97 139 -147q44 -36 97 -36l-5 -21q-43 -4 -102 -28l-13 4q-67 82 -179 206v14q39 33 88.5 86t63.5 73zM153 301v-229q0 -26 6 -31q20 -16 70 -20 l-4 -22q-37 2 -105 2q-58 0 -89 -2l3 21q19 4 42 20q5 8 5 38v221q0 48 -9 57q-29 17 -69 19q-1 1 -2 4.5t-3 8t-3 7.5q99 6 166 27q-8 -43 -8 -121z"/>
<glyph unicode="Ĺ" glyph-name="Lacute" horiz-adv-x="537" d="M89 658l-13 20q42 21 99 61.5t81 65.5l69 -43q-23 -18 -105 -53t-131 -51zM485 166h32q-12 -36 -44 -170q-73 6 -187 6q-74 0 -234 -5l10 26q37 4 61 22q7 23 7 59v420q0 36 -7 45q-19 10 -72 15l-7 29q65 -5 141 -5q52 0 88 3l5 -27q-53 -6 -69 -16q-6 -16 -6 -67v-396 q0 -42 8 -55q10 -5 81 -5q96 0 127 10q6 2 9 6q25 28 57 105z"/>
<glyph unicode="ĺ" glyph-name="lacute" horiz-adv-x="252" d="M70 704l-17 21q37 29 80 82.5t60 84.5l71 -32q-22 -28 -88 -81.5t-106 -74.5zM154 549v-450q0 -42 4 -49q22 -19 78 -29l-8 -22q-40 4 -96 4q-74 0 -118 -4l3 21q34 8 61 30q4 12 4 44v439q0 83 -10 92q-24 15 -69 17l-7 20q96 7 165 23q-7 -62 -7 -136z"/>
<glyph unicode="Ļ" glyph-name="Lcommaaccent" horiz-adv-x="537" d="M206 -120l43 74q20 -7 48 -30.5t28 -50.5t-28 -65.5t-56 -58.5l-19 15q49 47 49 77q0 29 -65 39zM485 166h32q-12 -36 -44 -170q-73 6 -187 6q-74 0 -234 -5l10 26q37 4 61 22q7 23 7 59v420q0 36 -7 45q-19 10 -72 15l-7 29q65 -5 141 -5q52 0 88 3l5 -27 q-53 -6 -69 -16q-6 -16 -6 -67v-396q0 -42 8 -55q10 -5 81 -5q96 0 127 10q6 2 9 6q25 28 57 105z"/>
<glyph unicode="ļ" glyph-name="lcommaaccent" horiz-adv-x="252" d="M64 -120l43 74q20 -7 48 -30.5t28 -50.5t-28 -65.5t-56 -58.5l-19 15q49 47 49 77q0 29 -65 39zM154 549v-450q0 -42 4 -49q22 -19 78 -29l-8 -22q-40 4 -96 4q-74 0 -118 -4l3 21q34 8 61 30q4 12 4 44v439q0 83 -10 92q-24 15 -69 17l-7 20q96 7 165 23q-7 -62 -7 -136 z"/>
<glyph unicode="Ľ" glyph-name="Lcaron" horiz-adv-x="537" d="M310 626l45 69q54 -28 54 -82q0 -30 -24 -80.5t-49 -80.5l-22 14q32 45 32 93q0 46 -36 67zM485 166h32q-12 -36 -44 -170q-73 6 -187 6q-74 0 -234 -5l10 26q37 4 61 22q7 23 7 59v420q0 36 -7 45q-19 10 -72 15l-7 29q65 -5 141 -5q52 0 88 3l5 -27q-53 -6 -69 -16 q-6 -16 -6 -67v-396q0 -42 8 -55q10 -5 81 -5q96 0 127 10q6 2 9 6q25 28 57 105z"/>
<glyph unicode="ľ" glyph-name="lcaron" horiz-adv-x="278" d="M191 626l45 69q54 -28 54 -82q0 -30 -24 -80.5t-49 -80.5l-22 14q32 45 32 93q0 46 -36 67zM154 549v-450q0 -42 4 -49q22 -19 78 -29l-8 -22q-40 4 -96 4q-74 0 -118 -4l3 21q34 8 61 30q4 12 4 44v439q0 83 -10 92q-24 15 -69 17l-7 20q96 7 165 23q-7 -62 -7 -136z "/>
<glyph unicode="Ŀ" glyph-name="Ldot" horiz-adv-x="537" d="M395 261l-47 46q11 14 58 89q1 -1 13.5 -12t25 -21l17.5 -14q-20 -34 -67 -88zM485 166h32q-12 -36 -44 -170q-73 6 -187 6q-74 0 -234 -5l10 26q37 4 61 22q7 23 7 59v420q0 36 -7 45q-19 10 -72 15l-7 29q65 -5 141 -5q52 0 88 3l5 -27q-53 -6 -69 -16q-6 -16 -6 -67 v-396q0 -42 8 -55q10 -5 81 -5q96 0 127 10q6 2 9 6q25 28 57 105z"/>
<glyph unicode="ŀ" glyph-name="ldot" horiz-adv-x="320" d="M269 269l-47 46q11 14 58 89q1 -1 13.5 -12t25 -21l17.5 -14q-20 -34 -67 -88zM154 549v-450q0 -42 4 -49q22 -19 78 -29l-8 -22q-40 4 -96 4q-74 0 -118 -4l3 21q34 8 61 30q4 12 4 44v439q0 83 -10 92q-24 15 -69 17l-7 20q96 7 165 23q-7 -62 -7 -136z"/>
<glyph unicode="Ł" glyph-name="Lslash" horiz-adv-x="537" d="M485 166h32q-12 -36 -44 -170q-73 6 -187 6q-74 0 -234 -5l10 26q37 4 61 22q7 23 7 59v165l-73 -31v46l73 30v210q0 36 -7 45q-19 10 -72 15l-7 29q98 -5 141 -5q52 0 88 3l5 -27q-53 -6 -69 -16q-6 -16 -6 -67v-163l200 85v-46l-200 -85v-187q0 -42 8 -55q10 -5 81 -5 q96 0 127 10q6 2 9 6q25 28 57 105z"/>
<glyph unicode="ł" glyph-name="lslash" horiz-adv-x="275" d="M154 549v-164l82 42v-51l-82 -42v-235q0 -42 4 -49q22 -19 78 -29l-8 -22q-40 4 -96 4q-74 0 -118 -4l3 21q34 8 61 30q4 12 4 44v212l-69 -36v51l69 35v177q0 83 -10 92q-24 15 -69 17l-7 20q96 7 165 23q-7 -62 -7 -136z"/>
<glyph unicode="Ń" glyph-name="Nacute" horiz-adv-x="706" d="M302 658l-13 20q42 21 99 61.5t81 65.5l69 -43q-23 -18 -105 -53t-131 -51zM603 513l-3 -396q0 -71 3 -117l-37 -18q-89 136 -396 548v-444q0 -28 5 -40q4 -5 38 -13.5t52 -10.5l-9 -23q-31 2 -96 2q-41 0 -105 -2l5 23q38 7 53 20q6 13 6 48v387q0 79 -7 90 q-20 12 -60 16l-7 30q15 0 45 -2t45 -2q16 0 68 4l350 -488v396q0 35 -8 45q-16 12 -67 17l-9 28q45 -4 106 -4q44 0 96 4l5 -28q-15 -1 -40 -6.5t-29 -9.5q-4 -8 -4 -54z"/>
<glyph unicode="ń" glyph-name="nacute" horiz-adv-x="516" d="M230 460l-17 21q37 29 80 82.5t60 84.5l71 -32q-22 -28 -88 -81.5t-106 -74.5zM153 344q23 13 45 30q71 46 90 46q51 0 96 -37q43 -34 43 -118v-195q0 -21 7 -27q22 -17 69 -25l-6 -21q-46 4 -90 4q-40 0 -92 -4l3 21q27 7 36 19q6 14 6 33v142q0 41 -4 66 q-4 32 -27 55.5t-61 23.5q-39 0 -114 -47v-225q0 -35 5 -43q24 -16 68 -21l-7 -23q-45 4 -93 4q-67 0 -104 -4l2 23q31 5 54 22q3 9 3 40v210q0 49 -10 63q-24 11 -63 13l-4 17q77 18 131 41q9 -30 17 -83z"/>
<glyph unicode="Ņ" glyph-name="Ncommaaccent" horiz-adv-x="706" d="M325 -120l43 74q20 -7 48 -30.5t28 -50.5t-28 -65.5t-56 -58.5l-19 15q49 47 49 77q0 29 -65 39zM603 513l-3 -396q0 -71 3 -117l-37 -18q-89 136 -396 548v-444q0 -28 5 -40q4 -5 38 -13.5t52 -10.5l-9 -23q-31 2 -96 2q-41 0 -105 -2l5 23q38 7 53 20q6 13 6 48v387 q0 79 -7 90q-20 12 -60 16l-7 30q15 0 45 -2t45 -2q16 0 68 4l350 -488v396q0 35 -8 45q-16 12 -67 17l-9 28q45 -4 106 -4q44 0 96 4l5 -28q-15 -1 -40 -6.5t-29 -9.5q-4 -8 -4 -54z"/>
<glyph unicode="ņ" glyph-name="ncommaaccent" horiz-adv-x="516" d="M205 -120l43 74q20 -7 48 -30.5t28 -50.5t-28 -65.5t-56 -58.5l-19 15q49 47 49 77q0 29 -65 39zM153 344q23 13 45 30q71 46 90 46q51 0 96 -37q43 -34 43 -118v-195q0 -21 7 -27q22 -17 69 -25l-6 -21q-46 4 -90 4q-40 0 -92 -4l3 21q27 7 36 19q6 14 6 33v142 q0 41 -4 66q-4 32 -27 55.5t-61 23.5q-39 0 -114 -47v-225q0 -35 5 -43q24 -16 68 -21l-7 -23q-45 4 -93 4q-67 0 -104 -4l2 23q31 5 54 22q3 9 3 40v210q0 49 -10 63q-24 11 -63 13l-4 17q77 18 131 41q9 -30 17 -83z"/>
<glyph unicode="Ň" glyph-name="Ncaron" horiz-adv-x="706" d="M358 658l-116 86l67 47l73 -76l135 74l10 -24l-146 -107h-23zM603 513l-3 -396q0 -71 3 -117l-37 -18q-89 136 -396 548v-444q0 -28 5 -40q4 -5 38 -13.5t52 -10.5l-9 -23q-31 2 -96 2q-41 0 -105 -2l5 23q38 7 53 20q6 13 6 48v387q0 79 -7 90q-20 12 -60 16l-7 30 q15 0 45 -2t45 -2q16 0 68 4l350 -488v396q0 35 -8 45q-16 12 -67 17l-9 28q45 -4 106 -4q44 0 96 4l5 -28q-15 -1 -40 -6.5t-29 -9.5q-4 -8 -4 -54z"/>
<glyph unicode="ň" glyph-name="ncaron" horiz-adv-x="516" d="M257 460l-102 107l67 39l56 -82l119 90l17 -21l-137 -133h-20zM153 344q23 13 45 30q71 46 90 46q51 0 96 -37q43 -34 43 -118v-195q0 -21 7 -27q22 -17 69 -25l-6 -21q-46 4 -90 4q-40 0 -92 -4l3 21q27 7 36 19q6 14 6 33v142q0 41 -4 66q-4 32 -27 55.5t-61 23.5 q-39 0 -114 -47v-225q0 -35 5 -43q24 -16 68 -21l-7 -23q-45 4 -93 4q-67 0 -104 -4l2 23q31 5 54 22q3 9 3 40v210q0 49 -10 63q-24 11 -63 13l-4 17q77 18 131 41q9 -30 17 -83z"/>
<glyph unicode="ŉ" glyph-name="napostrophe" horiz-adv-x="516" d="M-29 613l51 73q21 -11 45 -36t24 -49q0 -28 -28.5 -71t-61.5 -73l-13 16q49 47 49 90q0 17 -21.5 30.5t-44.5 19.5zM153 344q23 13 45 30q71 46 90 46q51 0 96 -37q43 -34 43 -118v-195q0 -21 7 -27q22 -17 69 -25l-6 -21q-46 4 -90 4q-40 0 -92 -4l3 21q27 7 36 19 q6 14 6 33v142q0 41 -4 66q-4 32 -27 55.5t-61 23.5q-39 0 -114 -47v-225q0 -35 5 -43q24 -16 68 -21l-7 -23q-45 4 -93 4q-67 0 -104 -4l2 23q31 5 54 22q3 9 3 40v210q0 49 -10 63q-24 11 -63 13l-4 17q77 18 131 41q9 -30 17 -83z"/>
<glyph unicode="Ŋ" glyph-name="Eng" horiz-adv-x="706" d="M397 -236q121 90 123 209q0 45 -8 70.5t-27 53.5q-140 205 -315 433v-444q0 -28 5 -40q4 -5 38 -13.5t52 -10.5l-9 -23q-31 2 -96 2q-41 0 -105 -2l5 23q44 12 53 20q6 13 6 48v432q0 34 -6 45q-23 12 -61 16l-7 30q66 -4 86 -4t72 4l350 -493v405q0 31 -8 41 q-19 12 -67 17l-9 28q46 -3 106 -3q57 0 96 3l5 -28q-51 -6 -69 -16q-4 -8 -4 -54v-396q0 -144 -41 -227t-159 -151z"/>
<glyph unicode="ŋ" glyph-name="eng" horiz-adv-x="474" d="M153 344l1 2q2 1 51 31q65 44 86 44q26 0 56.5 -13t47.5 -33q42 -47 42 -130q0 -149 -59.5 -248t-134.5 -143l-6 28q51 41 89 125.5t38 205.5q0 30 -5 63q-5 31 -28.5 56.5t-61.5 25.5q-43 0 -115 -46v-231q0 -29 4 -37q19 -17 69 -26l-8 -20q-45 3 -99 3q-52 0 -97 -3 l4 21q29 6 50 22q5 7 5 43v209q0 49 -10 63q-4 3 -25.5 8t-37.5 5l-4 17q82 20 131 41q8 -27 17 -83z"/>
<glyph unicode="Ō" glyph-name="Omacron" horiz-adv-x="691" d="M201 699l9 34h308l-7 -23l-7 -30h-309zM358 37q93 0 149.5 81t56.5 187q0 108 -68.5 185.5t-160.5 77.5t-151 -74.5t-59 -175.5q0 -111 70.5 -196t162.5 -85zM356 624q128 0 206.5 -82t78.5 -201q0 -125 -59 -208q-43 -59 -115 -104t-135 -45q-110 0 -196 83.5t-86 207.5 q0 112 54 187q43 62 116.5 112t135.5 50z"/>
<glyph unicode="ō" glyph-name="omacron" horiz-adv-x="470" d="M109 509l7 34h247l-6 -23l-5 -30h-248zM98 225q0 -78 41.5 -135t108.5 -57q54 0 81 42t27 103q0 82 -40 139t-103 57q-54 0 -84.5 -44.5t-30.5 -104.5zM224 420q95 0 150 -58.5t55 -138.5q0 -91 -43 -146q-26 -33 -71.5 -63t-84.5 -30q-93 0 -149.5 62t-56.5 148 q0 72 51 136q25 31 69 60.5t80 29.5z"/>
<glyph unicode="Ŏ" glyph-name="Obreve" horiz-adv-x="691" d="M357 656q-44 0 -78 35t-47 71l61 27q12 -26 35 -51t49 -25q30 0 57.5 23t45.5 54l25 -11q-26 -51 -67 -87t-81 -36zM358 37q93 0 149.5 81t56.5 187q0 108 -68.5 185.5t-160.5 77.5t-151 -74.5t-59 -175.5q0 -111 70.5 -196t162.5 -85zM356 624q128 0 206.5 -82 t78.5 -201q0 -125 -59 -208q-43 -59 -115 -104t-135 -45q-110 0 -196 83.5t-86 207.5q0 112 54 187q43 62 116.5 112t135.5 50z"/>
<glyph unicode="ŏ" glyph-name="obreve" horiz-adv-x="470" d="M227 466q-44 0 -78 35t-47 71l61 27q12 -26 35 -51t49 -25q30 0 57.5 23t45.5 54l25 -11q-26 -51 -67 -87t-81 -36zM98 225q0 -78 41.5 -135t108.5 -57q54 0 81 42t27 103q0 82 -40 139t-103 57q-54 0 -84.5 -44.5t-30.5 -104.5zM224 420q95 0 150 -58.5t55 -138.5 q0 -91 -43 -146q-26 -33 -71.5 -63t-84.5 -30q-93 0 -149.5 62t-56.5 148q0 72 51 136q25 31 69 60.5t80 29.5z"/>
<glyph unicode="Ő" glyph-name="Ohungarumlaut" horiz-adv-x="691" d="M271 658l-18 16q31 32 70.5 89t55.5 90l79 -17q-16 -25 -81.5 -86t-105.5 -92zM395 658l-17 17q33 29 77.5 82.5t64.5 85.5l74 -24q-18 -23 -88.5 -79t-110.5 -82zM358 37q93 0 149.5 81t56.5 187q0 108 -68.5 185.5t-160.5 77.5t-151 -74.5t-59 -175.5q0 -111 70.5 -196 t162.5 -85zM356 624q128 0 206.5 -82t78.5 -201q0 -125 -59 -208q-43 -59 -115 -104t-135 -45q-110 0 -196 83.5t-86 207.5q0 112 54 187q43 62 116.5 112t135.5 50z"/>
<glyph unicode="ő" glyph-name="ohungarumlaut" horiz-adv-x="470" d="M169 460l-21 15q28 37 55.5 100t36.5 99l77 -13q-15 -33 -64.5 -101.5t-83.5 -99.5zM290 462l-20 18q31 34 64 94t45 94l74 -19q-17 -32 -72 -95.5t-91 -91.5zM98 225q0 -78 41.5 -135t108.5 -57q54 0 81 42t27 103q0 82 -40 139t-103 57q-54 0 -84.5 -44.5t-30.5 -104.5 zM224 420q95 0 150 -58.5t55 -138.5q0 -91 -43 -146q-26 -33 -71.5 -63t-84.5 -30q-93 0 -149.5 62t-56.5 148q0 72 51 136q25 31 69 60.5t80 29.5z"/>
<glyph unicode="Œ" glyph-name="OE" horiz-adv-x="906" d="M499 76v416q0 57 -7 66q-28 17 -125 17q-93 0 -162 -76.5t-69 -185.5q0 -120 71 -197.5t186 -78.5q69 0 101 14q5 8 5 25zM857 166l19 -1q-16 -90 -46 -169q-74 6 -183 6q-31 0 -139 -2v1q-9 0 -50 -2t-65 -2q-61 0 -120 18t-109.5 53t-82 94t-31.5 133q0 92 52.5 167 t129 113.5t155.5 38.5q73 0 123 -5q41 -3 86 -3q78 0 214 12q2 -87 9 -177l-14 -1q-16 47 -43 109q-5 11 -12 12q-17 4 -81 4q-84 0 -94 -7q-4 -13 -4 -49v-167q17 -1 66 -1q66 0 96 3l26 56l12 -2q-4 -40 -4 -76q0 -44 5 -92l-12 -1l-31 65q-44 2 -97 2q-45 0 -62 -1v-202 q0 -29 5 -42q45 -6 116 -6q35 0 69 2q34 4 41 15q25 33 56 104z"/>
<glyph unicode="œ" glyph-name="oe" horiz-adv-x="738" d="M519 370q-39 0 -66.5 -40t-27.5 -80q155 15 194 26q-1 32 -25 63t-75 31zM98 220q0 -80 41 -133.5t106 -53.5q57 0 84 42.5t27 106.5q0 74 -39 133t-104 59q-54 0 -84.5 -46t-30.5 -108zM678 81l7 -27q-111 -70 -168 -70q-86 0 -140 93q-72 -93 -147 -93 q-89 0 -147.5 60.5t-58.5 149.5q0 80 51 136q30 34 71.5 62t77.5 28q113 0 172 -94q27 31 75.5 62.5t76.5 31.5q38 0 66.5 -15.5t42.5 -36t22.5 -45.5t10 -38t1.5 -20q-16 -14 -32 -26q-14 -2 -54 -5t-96 -6.5t-85 -5.5q0 -68 36.5 -121t91.5 -53q51 0 126 33z"/>
<glyph unicode="Ŕ" glyph-name="Racute" horiz-adv-x="620" d="M200 658l-13 20q42 21 99 61.5t81 65.5l69 -43q-23 -18 -105 -53t-131 -51zM196 504v-183q18 -4 44 -4q74 0 117.5 36.5t43.5 105.5q0 116 -133 116q-55 0 -65 -8q-7 -13 -7 -63zM295 286q-33 -3 -58 -3q-11 0 -41 2v-135q0 -78 8 -98q7 -11 42.5 -19t62.5 -8l-13 -26 q-105 3 -117 3q-67 0 -134 -6l5 26q46 2 65 26q10 23 10 138v282q0 88 -9 99q-14 13 -65 18l-6 30q68 -6 106 -6q11 0 24 0.5t29.5 1.5t26.5 1q17 1 57 1q195 0 195 -138q0 -112 -132 -177q34 -65 79 -131t83 -98t98 -34l-5 -26q-58 -8 -112 -27l-11 6q-40 46 -95.5 136 t-92.5 162z"/>
<glyph unicode="ŕ" glyph-name="racute" horiz-adv-x="343" d="M148 460l-17 21q37 29 80 82.5t60 84.5l71 -32q-22 -28 -88 -81.5t-106 -74.5zM27 -2l4 22q26 7 42 19q3 9 3 47v205q0 50 -11 65q-5 4 -25.5 9t-37.5 6l-5 17q49 9 128 40q6 -22 20 -82q17 26 40 51.5t35 25.5q45 0 103 -15q-15 -54 -33 -79q-53 35 -84 35 q-15 0 -31.5 -19.5t-28.5 -45.5v-212q0 -31 4 -40q26 -18 82 -25l-6 -23q-38 3 -108 3q-8 0 -20 -0.5t-33 -1.5t-38 -2z"/>
<glyph unicode="Ŗ" glyph-name="Rcommaaccent" horiz-adv-x="620" d="M256 -120l43 74q20 -7 48 -30.5t28 -50.5t-28 -65.5t-56 -58.5l-19 15q49 47 49 77q0 29 -65 39zM196 504v-183q18 -4 44 -4q74 0 117.5 36.5t43.5 105.5q0 116 -133 116q-55 0 -65 -8q-7 -13 -7 -63zM295 286q-33 -3 -58 -3q-11 0 -41 2v-135q0 -78 8 -98 q7 -11 42.5 -19t62.5 -8l-13 -26q-105 3 -117 3q-67 0 -134 -6l5 26q46 2 65 26q10 23 10 138v282q0 88 -9 99q-14 13 -65 18l-6 30q68 -6 106 -6q11 0 24 0.5t29.5 1.5t26.5 1q17 1 57 1q195 0 195 -138q0 -112 -132 -177q34 -65 79 -131t83 -98t98 -34l-5 -26 q-58 -8 -112 -27l-11 6q-40 46 -95.5 136t-92.5 162z"/>
<glyph unicode="ŗ" glyph-name="rcommaaccent" horiz-adv-x="343" d="M62 -120l43 74q20 -7 48 -30.5t28 -50.5t-28 -65.5t-56 -58.5l-19 15q49 47 49 77q0 29 -65 39zM27 -2l4 22q26 7 42 19q3 9 3 47v205q0 50 -11 65q-5 4 -25.5 9t-37.5 6l-5 17q49 9 128 40q6 -22 20 -82q17 26 40 51.5t35 25.5q45 0 103 -15q-15 -54 -33 -79 q-53 35 -84 35q-15 0 -31.5 -19.5t-28.5 -45.5v-212q0 -31 4 -40q26 -18 82 -25l-6 -23q-38 3 -108 3q-8 0 -20 -0.5t-33 -1.5t-38 -2z"/>
<glyph unicode="Ř" glyph-name="Rcaron" horiz-adv-x="620" d="M245 658l-116 86l67 47l73 -76l135 74l10 -24l-146 -107h-23zM196 504v-183q18 -4 44 -4q74 0 117.5 36.5t43.5 105.5q0 116 -133 116q-55 0 -65 -8q-7 -13 -7 -63zM295 286q-33 -3 -58 -3q-11 0 -41 2v-135q0 -78 8 -98q7 -11 42.5 -19t62.5 -8l-13 -26q-105 3 -117 3 q-67 0 -134 -6l5 26q46 2 65 26q10 23 10 138v282q0 88 -9 99q-14 13 -65 18l-6 30q68 -6 106 -6q11 0 24 0.5t29.5 1.5t26.5 1q17 1 57 1q195 0 195 -138q0 -112 -132 -177q34 -65 79 -131t83 -98t98 -34l-5 -26q-58 -8 -112 -27l-11 6q-40 46 -95.5 136t-92.5 162z"/>
<glyph unicode="ř" glyph-name="rcaron" horiz-adv-x="343" d="M157 460l-102 107l67 39l56 -82l119 90l17 -21l-137 -133h-20zM27 -2l4 22q26 7 42 19q3 9 3 47v205q0 50 -11 65q-5 4 -25.5 9t-37.5 6l-5 17q49 9 128 40q6 -22 20 -82q17 26 40 51.5t35 25.5q45 0 103 -15q-15 -54 -33 -79q-53 35 -84 35q-15 0 -31.5 -19.5 t-28.5 -45.5v-212q0 -31 4 -40q26 -18 82 -25l-6 -23q-38 3 -108 3q-8 0 -20 -0.5t-33 -1.5t-38 -2z"/>
<glyph unicode="Ś" glyph-name="Sacute" horiz-adv-x="513" d="M209 658l-13 20q42 21 99 61.5t81 65.5l69 -43q-23 -18 -105 -53t-131 -51zM427 593l-6 -148h-23q-24 67 -35 83q-12 16 -46 30.5t-80 14.5q-31 0 -61 -31.5t-30 -74.5q0 -38 36 -66t100 -56q42 -19 63 -30t51 -32t43.5 -45.5t13.5 -54.5q0 -77 -62 -138.5t-134 -61.5 q-44 0 -102 8t-88 20q5 70 5 125q0 31 -1 46l26 4q5 -28 17 -69t20 -52q38 -40 128 -40q53 0 88 35.5t35 84.5q0 41 -35.5 68t-105.5 58q-38 17 -61.5 29.5t-51.5 33.5t-41.5 46.5t-13.5 56.5q0 48 63 116.5t108 68.5q74 0 180 -29z"/>
<glyph unicode="ś" glyph-name="sacute" horiz-adv-x="358" d="M134 460l-17 21q37 29 80 82.5t60 84.5l71 -32q-22 -28 -88 -81.5t-106 -74.5zM283 289h-18q-12 37 -21 56q-8 11 -32.5 20.5t-51.5 9.5q-23 0 -39.5 -15.5t-16.5 -41.5q0 -25 23 -42t65 -36q27 -12 43 -20t35.5 -22t29 -31.5t9.5 -39.5q0 -55 -43 -99t-103 -44 q-27 0 -68 6.5t-60 15.5q5 47 5 121l21 4q8 -39 23 -74q33 -35 92 -35q31 0 52 17t21 48t-23.5 49.5t-67.5 36.5q-58 24 -88 48.5t-30 66.5q0 35 46 83.5t75 48.5q50 0 128 -26q-6 -64 -6 -105z"/>
<glyph unicode="Ŝ" glyph-name="Scircumflex" horiz-adv-x="513" d="M292 793l104 -125l-21 -14l-103 68l-100 -70l-21 15l111 126h30zM427 593l-6 -148h-23q-24 67 -35 83q-12 16 -46 30.5t-80 14.5q-31 0 -61 -31.5t-30 -74.5q0 -38 36 -66t100 -56q42 -19 63 -30t51 -32t43.5 -45.5t13.5 -54.5q0 -77 -62 -138.5t-134 -61.5q-44 0 -102 8 t-88 20q5 70 5 125q0 31 -1 46l26 4q5 -28 17 -69t20 -52q38 -40 128 -40q53 0 88 35.5t35 84.5q0 41 -35.5 68t-105.5 58q-38 17 -61.5 29.5t-51.5 33.5t-41.5 46.5t-13.5 56.5q0 48 63 116.5t108 68.5q74 0 180 -29z"/>
<glyph unicode="ŝ" glyph-name="scircumflex" horiz-adv-x="358" d="M205 649l104 -179l-18 -10l-113 106l-99 -108l-20 13l112 171zM283 289h-18q-12 37 -21 56q-8 11 -32.5 20.5t-51.5 9.5q-23 0 -39.5 -15.5t-16.5 -41.5q0 -25 23 -42t65 -36q27 -12 43 -20t35.5 -22t29 -31.5t9.5 -39.5q0 -55 -43 -99t-103 -44q-27 0 -68 6.5t-60 15.5 q5 47 5 121l21 4q8 -39 23 -74q33 -35 92 -35q31 0 52 17t21 48t-23.5 49.5t-67.5 36.5q-58 24 -88 48.5t-30 66.5q0 35 46 83.5t75 48.5q50 0 128 -26q-6 -64 -6 -105z"/>
<glyph unicode="Ş" glyph-name="Scedilla" horiz-adv-x="513" d="M427 593l-6 -148h-23q-24 67 -35 83q-12 16 -46 30.5t-80 14.5q-31 0 -61 -31.5t-30 -74.5q0 -38 36 -66t100 -56q42 -19 63 -30t51 -32t43.5 -45.5t13.5 -54.5q0 -77 -62 -138.5t-134 -61.5h-7l-5 -26q90 -18 90 -75q0 -32 -17.5 -56.5t-43.5 -36.5q-60 -11 -86 -12 l-9 19q114 17 114 68q0 22 -28.5 33t-62.5 13l-5 5l25 69q-105 8 -155 27q5 70 5 125q0 31 -1 46l26 4q5 -28 17 -69t20 -52q38 -40 128 -40q53 0 88 35.5t35 84.5q0 41 -35.5 68t-105.5 58q-38 17 -61.5 29.5t-51.5 33.5t-41.5 46.5t-13.5 56.5q0 48 63 116.5t108 68.5 q74 0 180 -29z"/>
<glyph unicode="ş" glyph-name="scedilla" horiz-adv-x="358" d="M171 -16l-5 -27q90 -18 90 -75q0 -32 -17.5 -56.5t-43.5 -36.5q-60 -11 -86 -12l-9 19q114 17 114 68q0 22 -28.5 33t-62.5 13l-5 5l25 70q-72 4 -108 21q5 47 5 121l21 4q8 -39 23 -74q33 -35 92 -35q31 0 52 17t21 48t-23.5 49.5t-67.5 36.5q-58 24 -88 48.5t-30 66.5 q0 35 46 83.5t75 48.5q50 0 128 -26q-6 -64 -6 -105h-18q-12 37 -21 56q-8 11 -32.5 20.5t-51.5 9.5q-23 0 -39.5 -15.5t-16.5 -41.5q0 -25 23 -42t65 -36q27 -12 43 -20t35.5 -22t29 -31.5t9.5 -39.5q0 -53 -40.5 -96t-97.5 -47z"/>
<glyph unicode="Š" glyph-name="Scaron" horiz-adv-x="513" d="M270 658l-116 86l67 47l73 -76l135 74l10 -24l-146 -107h-23zM427 593l-6 -148h-23q-24 67 -35 83q-12 16 -46 30.5t-80 14.5q-31 0 -61 -31.5t-30 -74.5q0 -38 36 -66t100 -56q42 -19 63 -30t51 -32t43.5 -45.5t13.5 -54.5q0 -77 -62 -138.5t-134 -61.5q-44 0 -102 8 t-88 20q5 70 5 125q0 31 -1 46l26 4q5 -28 17 -69t20 -52q38 -40 128 -40q53 0 88 35.5t35 84.5q0 41 -35.5 68t-105.5 58q-38 17 -61.5 29.5t-51.5 33.5t-41.5 46.5t-13.5 56.5q0 48 63 116.5t108 68.5q74 0 180 -29z"/>
<glyph unicode="š" glyph-name="scaron" horiz-adv-x="358" d="M179 460l-102 107l67 39l56 -82l119 90l17 -21l-137 -133h-20zM283 289h-18q-12 37 -21 56q-8 11 -32.5 20.5t-51.5 9.5q-23 0 -39.5 -15.5t-16.5 -41.5q0 -25 23 -42t65 -36q27 -12 43 -20t35.5 -22t29 -31.5t9.5 -39.5q0 -55 -43 -99t-103 -44q-27 0 -68 6.5t-60 15.5 q5 47 5 121l21 4q8 -39 23 -74q33 -35 92 -35q31 0 52 17t21 48t-23.5 49.5t-67.5 36.5q-58 24 -88 48.5t-30 66.5q0 35 46 83.5t75 48.5q50 0 128 -26q-6 -64 -6 -105z"/>
<glyph unicode="Ţ" glyph-name="Tcommaaccent" horiz-adv-x="624" d="M245 -120l43 74q20 -7 48 -30.5t28 -50.5t-28 -65.5t-56 -58.5l-19 15q49 47 49 77q0 29 -65 39zM69 426l-23 -1q2 60 2 103q0 61 -1 90q101 -13 271 -13q159 0 270 13q-30 -106 -45 -191l-22 -1q-5 75 -11 134q-45 5 -112 5q-31 0 -57 -2v-465q0 -40 6 -45 q25 -21 99 -31l-11 -24q-55 5 -115 5q-76 0 -139 -6l11 27q49 7 68 23q8 9 8 51v465q-34 2 -63 2q-55 0 -90 -3q-30 -79 -46 -136z"/>
<glyph unicode="ţ" glyph-name="tcommaaccent" horiz-adv-x="305" d="M93 -120l43 74q20 -7 48 -30.5t28 -50.5t-28 -65.5t-56 -58.5l-19 15q49 47 49 77q0 29 -65 39zM-3 382l80 33v128q25 10 77 41q-7 -41 -9 -123q-1 -15 -1 -45h23q58 0 105 4l-11 -53h-116v-231q0 -23 1 -36t4.5 -28t11.5 -21.5t22 -6.5q53 0 102 13l8 -21 q-27 -12 -85.5 -32t-71.5 -20q-37 0 -49 32.5t-12 88.5v261h-71z"/>
<glyph unicode="Ť" glyph-name="Tcaron" horiz-adv-x="624" d="M291 658l-116 86l67 47l73 -76l135 74l10 -24l-146 -107h-23zM69 426l-23 -1q2 60 2 103q0 61 -1 90q101 -13 271 -13q159 0 270 13q-30 -106 -45 -191l-22 -1q-5 75 -11 134q-45 5 -112 5q-31 0 -57 -2v-465q0 -40 6 -45q25 -21 99 -31l-11 -24q-55 5 -115 5 q-76 0 -139 -6l11 27q49 7 68 23q8 9 8 51v465q-34 2 -63 2q-55 0 -90 -3q-30 -79 -46 -136z"/>
<glyph unicode="ť" glyph-name="tcaron" horiz-adv-x="305" d="M192 651l45 69q54 -28 54 -82q0 -30 -24 -80.5t-49 -80.5l-22 14q32 45 32 93q0 46 -36 67zM-3 382l80 33v128q25 10 77 41q-7 -41 -9 -123q-1 -15 -1 -45h23q58 0 105 4l-11 -53h-116v-231q0 -23 1 -36t4.5 -28t11.5 -21.5t22 -6.5q53 0 102 13l8 -21q-27 -12 -85.5 -32 t-71.5 -20q-37 0 -49 32.5t-12 88.5v261h-71z"/>
<glyph unicode="Ŧ" glyph-name="Tbar" horiz-adv-x="624" d="M135 293l4 40h129v230q-34 2 -63 2q-55 0 -90 -3q-30 -79 -46 -136l-23 -1q2 68 2 116q0 52 -1 77q101 -13 271 -13q159 0 270 13q-30 -106 -45 -191l-22 -1q-5 75 -11 134q-42 5 -94 5q-37 0 -75 -2v-228h134l-4 -40h-130v-197q0 -40 6 -45q25 -21 99 -31l-11 -24 q-55 5 -115 5q-76 0 -139 -6l11 27q49 7 68 23q8 9 8 51v195h-133z"/>
<glyph unicode="ŧ" glyph-name="tbar" horiz-adv-x="305" d="M-5 382l80 33v128q31 13 79 41q-7 -41 -9 -123q-1 -15 -1 -45h23q58 0 105 4l-11 -53h-116v-95h105l-6 -44h-99v-92q0 -23 1 -36t4.5 -28t11.5 -21.5t22 -6.5q53 0 102 13l8 -21q-27 -12 -85.5 -32t-71.5 -20q-37 0 -50 33t-13 88v122h-72l4 43h68v96h-71z"/>
<glyph unicode="Ũ" glyph-name="Utilde" horiz-adv-x="696" d="M307 715q-30 0 -76 -49l-13 14q78 99 110 99q16 0 61 -26.5t65 -26.5q30 0 67 43l15 -12q-18 -26 -51 -58.5t-49 -32.5q-14 0 -59 24.5t-70 24.5zM596 492v-179q0 -72 -7 -121q-15 -105 -76 -156.5t-157 -51.5q-192 0 -230 156q-11 46 -11 124v250q0 42 -8 54 q-16 10 -63 15l-9 26q70 -2 126 -2q45 0 97 2l5 -24q-17 -1 -39.5 -6.5t-26.5 -10.5q-6 -16 -6 -73v-204q0 -61 8 -117q23 -147 176 -147q65 0 107 38t53 102q9 48 9 104v250q0 36 -7 45q-6 6 -29 11.5t-41 6.5l-7 25q68 -2 112 -2q34 0 88 2l5 -23q-45 -5 -63 -17 q-6 -14 -6 -77z"/>
<glyph unicode="ũ" glyph-name="utilde" horiz-adv-x="517" d="M181 525q-30 0 -76 -49l-13 14q78 99 110 99q16 0 61 -26.5t65 -26.5q30 0 67 43l15 -12q-18 -26 -51 -58.5t-49 -32.5q-14 0 -58.5 24.5t-70.5 24.5zM348 62q-23 -12 -63 -40q-57 -38 -78 -38q-61 0 -95 42t-39 106q-1 7 -1 21v156q0 36 -3 42q-23 13 -69 17l-6 16 q97 20 150 39q-3 -43 -3 -136v-89q0 -46 4 -72q4 -31 26 -55t57 -24q48 0 118 49v212q0 46 -8 55q-12 11 -55 18l-6 17q93 9 142 21q-3 -108 -3 -153v-158q0 -41 5 -51q6 -12 32 -12q23 0 41 2l4 -14q-57 -18 -128 -54l-8 5q-11 32 -14 78z"/>
<glyph unicode="Ū" glyph-name="Umacron" horiz-adv-x="696" d="M212 699l9 34h307l-7 -23l-7 -30h-309zM596 492v-179q0 -72 -7 -121q-15 -105 -76 -156.5t-157 -51.5q-192 0 -230 156q-11 46 -11 124v250q0 42 -8 54q-16 10 -63 15l-9 26q70 -2 126 -2q45 0 97 2l5 -24q-17 -1 -39.5 -6.5t-26.5 -10.5q-6 -16 -6 -73v-204 q0 -61 8 -117q23 -147 176 -147q65 0 107 38t53 102q9 48 9 104v250q0 36 -7 45q-6 6 -29 11.5t-41 6.5l-7 25q68 -2 112 -2q34 0 88 2l5 -23q-45 -5 -63 -17q-6 -14 -6 -77z"/>
<glyph unicode="ū" glyph-name="umacron" horiz-adv-x="517" d="M107 509l8 34h277l-7 -23l-6 -30h-278zM348 62q-23 -12 -63 -40q-57 -38 -78 -38q-61 0 -95 42t-39 106q-1 7 -1 21v156q0 36 -3 42q-23 13 -69 17l-6 16q97 20 150 39q-3 -43 -3 -136v-89q0 -46 4 -72q4 -31 26 -55t57 -24q48 0 118 49v212q0 46 -8 55q-12 11 -55 18 l-6 17q93 9 142 21q-3 -108 -3 -153v-158q0 -41 5 -51q6 -12 32 -12q23 0 41 2l4 -14q-57 -18 -128 -54l-8 5q-11 32 -14 78z"/>
<glyph unicode="Ŭ" glyph-name="Ubreve" horiz-adv-x="696" d="M366 656q-44 0 -78 35t-47 71l61 27q12 -26 35 -51t49 -25q30 0 57.5 23t45.5 54l25 -11q-26 -51 -67 -87t-81 -36zM596 492v-179q0 -72 -7 -121q-15 -105 -76 -156.5t-157 -51.5q-192 0 -230 156q-11 46 -11 124v250q0 42 -8 54q-16 10 -63 15l-9 26q70 -2 126 -2 q45 0 97 2l5 -24q-17 -1 -39.5 -6.5t-26.5 -10.5q-6 -16 -6 -73v-204q0 -61 8 -117q23 -147 176 -147q65 0 107 38t53 102q9 48 9 104v250q0 36 -7 45q-6 6 -29 11.5t-41 6.5l-7 25q68 -2 112 -2q34 0 88 2l5 -23q-45 -5 -63 -17q-6 -14 -6 -77z"/>
<glyph unicode="ŭ" glyph-name="ubreve" horiz-adv-x="517" d="M242 466q-44 0 -78 35t-47 71l61 27q12 -26 35 -51t49 -25q30 0 57.5 23t45.5 54l25 -11q-26 -51 -67 -87t-81 -36zM348 62q-23 -12 -63 -40q-57 -38 -78 -38q-61 0 -95 42t-39 106q-1 7 -1 21v156q0 36 -3 42q-23 13 -69 17l-6 16q97 20 150 39q-3 -43 -3 -136v-89 q0 -46 4 -72q4 -31 26 -55t57 -24q48 0 118 49v212q0 46 -8 55q-12 11 -55 18l-6 17q93 9 142 21q-3 -108 -3 -153v-158q0 -41 5 -51q6 -12 32 -12q23 0 41 2l4 -14q-57 -18 -128 -54l-8 5q-11 32 -14 78z"/>
<glyph unicode="Ů" glyph-name="Uring" horiz-adv-x="696" d="M332 733q0 -25 13 -38.5t31 -13.5q24 0 36 18.5t12 46.5q0 22 -12.5 35.5t-32.5 13.5q-22 0 -34.5 -18.5t-12.5 -43.5zM291 728q0 41 31 68.5t62 27.5q37 0 59.5 -18t22.5 -52q0 -42 -31.5 -73t-66.5 -31q-32 0 -54.5 20t-22.5 58zM596 492v-179q0 -72 -7 -121 q-15 -105 -76 -156.5t-157 -51.5q-192 0 -230 156q-11 46 -11 124v250q0 42 -8 54q-16 10 -63 15l-9 26q70 -2 126 -2q45 0 97 2l5 -24q-17 -1 -39.5 -6.5t-26.5 -10.5q-6 -16 -6 -73v-204q0 -61 8 -117q23 -147 176 -147q65 0 107 38t53 102q9 48 9 104v250q0 36 -7 45 q-6 6 -29 11.5t-41 6.5l-7 25q68 -2 112 -2q34 0 88 2l5 -23q-45 -5 -63 -17q-6 -14 -6 -77z"/>
<glyph unicode="ů" glyph-name="uring" horiz-adv-x="517" d="M207 543q0 -25 13 -38.5t31 -13.5q24 0 36 18.5t12 46.5q0 22 -12.5 35.5t-32.5 13.5q-22 0 -34.5 -18.5t-12.5 -43.5zM166 538q0 41 31 68.5t62 27.5q37 0 59.5 -18t22.5 -52q0 -42 -31.5 -73t-66.5 -31q-32 0 -54.5 20t-22.5 58zM348 62q-23 -12 -63 -40 q-57 -38 -78 -38q-61 0 -95 42t-39 106q-1 7 -1 21v156q0 36 -3 42q-23 13 -69 17l-6 16q97 20 150 39q-3 -43 -3 -136v-89q0 -46 4 -72q4 -31 26 -55t57 -24q48 0 118 49v212q0 46 -8 55q-12 11 -55 18l-6 17q93 9 142 21q-3 -108 -3 -153v-158q0 -41 5 -51q6 -12 32 -12 q23 0 41 2l4 -14q-57 -18 -128 -54l-8 5q-11 32 -14 78z"/>
<glyph unicode="Ű" glyph-name="Uhungarumlaut" horiz-adv-x="696" d="M290 658l-18 16q31 32 70.5 89t55.5 90l79 -17q-16 -25 -81.5 -86t-105.5 -92zM414 658l-17 17q33 29 77.5 82.5t64.5 85.5l74 -24q-18 -23 -88.5 -79t-110.5 -82zM596 492v-179q0 -72 -7 -121q-15 -105 -76 -156.5t-157 -51.5q-192 0 -230 156q-11 46 -11 124v250 q0 42 -8 54q-16 10 -63 15l-9 26q70 -2 126 -2q45 0 97 2l5 -24q-17 -1 -39.5 -6.5t-26.5 -10.5q-6 -16 -6 -73v-204q0 -61 8 -117q23 -147 176 -147q65 0 107 38t53 102q9 48 9 104v250q0 36 -7 45q-6 6 -29 11.5t-41 6.5l-7 25q68 -2 112 -2q34 0 88 2l5 -23 q-45 -5 -63 -17q-6 -14 -6 -77z"/>
<glyph unicode="ű" glyph-name="uhungarumlaut" horiz-adv-x="517" d="M189 460l-21 15q28 37 55.5 100t36.5 99l77 -13q-15 -33 -64.5 -101.5t-83.5 -99.5zM310 462l-20 18q31 34 64 94t45 94l74 -19q-17 -32 -72 -95.5t-91 -91.5zM348 62q-23 -12 -63 -40q-57 -38 -78 -38q-61 0 -95 42t-39 106q-1 7 -1 21v156q0 36 -3 42q-23 13 -69 17 l-6 16q97 20 150 39q-3 -43 -3 -136v-89q0 -46 4 -72q4 -31 26 -55t57 -24q48 0 118 49v212q0 46 -8 55q-12 11 -55 18l-6 17q93 9 142 21q-3 -108 -3 -153v-158q0 -41 5 -51q6 -12 32 -12q23 0 41 2l4 -14q-57 -18 -128 -54l-8 5q-11 32 -14 78z"/>
<glyph unicode="Ų" glyph-name="Uogonek" horiz-adv-x="696" d="M596 492v-179q0 -72 -7 -121q-13 -94 -69 -150q-9 -9 -33.5 -24.5t-29.5 -20.5q-65 -67 -65 -122q0 -35 19 -60t45 -25q30 0 64 17l8 -15q-23 -14 -61 -32t-52 -18q-34 0 -60.5 33t-26.5 73q0 56 90 143q-28 -7 -62 -7q-192 0 -230 156q-11 46 -11 124v250q0 42 -8 54 q-16 10 -63 15l-9 26q70 -2 126 -2q45 0 97 2l5 -24q-17 -1 -39.5 -6.5t-26.5 -10.5q-6 -16 -6 -73v-204q0 -61 8 -117q23 -147 176 -147q64 0 106.5 37.5t53.5 102.5q9 48 9 104v250q0 36 -7 45q-6 6 -29 11.5t-41 6.5l-7 25q68 -2 112 -2q34 0 88 2l5 -23q-45 -5 -63 -17 q-6 -14 -6 -77z"/>
<glyph unicode="ų" glyph-name="uogonek" horiz-adv-x="517" d="M348 62q-23 -12 -63 -40q-57 -38 -78 -38q-64 0 -99 41.5t-40 106.5q-1 7 -1 21v156q0 36 -3 42q-23 13 -69 17l-6 16q97 20 150 39q-3 -43 -3 -136v-106q0 -37 3 -54q4 -31 27.5 -55.5t61.5 -24.5q48 0 118 49v212q0 46 -8 55q-12 11 -55 18l-6 17q93 9 142 21 q-3 -108 -3 -153v-158q0 -41 5 -51q5 -12 36 -12q19 0 37 2l4 -14q-52 -16 -89 -37q-75 -41 -75 -121q0 -33 13.5 -57.5t38.5 -24.5t63 17l9 -15q-86 -50 -107 -50q-37 0 -61.5 31.5t-24.5 65.5q0 40 23 72q28 34 73 72q-10 33 -13 76z"/>
<glyph unicode="Ŵ" glyph-name="Wcircumflex" horiz-adv-x="897" d="M493 793l104 -125l-21 -14l-103 68l-100 -70l-21 15l111 126h30zM492 389l60 167q2 8 2 10q0 8 -9 11q-19 6 -53 6q-31 0 -55 -7q-8 -3 -8 -10q0 -6 3 -13zM617 92l163 455q2 8 2 10q0 11 -12 15q-30 11 -72 16l-8 25q14 -1 50.5 -3t53.5 -2q43 0 92 5l2 -25 q-31 -8 -46 -34q-17 -29 -109 -265t-106 -285l-37 -19q-45 123 -121 290q-74 -177 -103 -271l-44 -19q-45 117 -133 330t-99 230q-20 29 -65 40l-8 26q48 -5 111 -5q58 0 113 7l7 -25q-43 -7 -66 -15q-12 -4 -12 -14q0 -5 5 -17l180 -448l93 235q-72 182 -92 216 q-17 26 -60 41l-7 26q58 -6 159 -6q72 0 186 6l6 -24q-29 -7 -45 -34q-13 -25 -83 -204z"/>
<glyph unicode="ŵ" glyph-name="wcircumflex" horiz-adv-x="622" d="M332 649l104 -179l-18 -10l-113 106l-99 -108l-20 13l112 171zM409 -16l-114 314l-106 -303l-36 -11q-71 231 -101 317q-17 49 -30 62q-12 12 -33 12l-7 21q64 6 119 19q8 -43 30 -123l56 -187l101 302h42q14 -46 52.5 -156t55.5 -153l83 247q2 8 2 10q0 5 -7 9 q-17 7 -61 21l-6 20q18 -1 55 -1q57 0 88 6l4 -19q-20 -23 -51 -107l-102 -289z"/>
<glyph unicode="Ŷ" glyph-name="Ycircumflex" horiz-adv-x="572" d="M321 793l104 -125l-21 -14l-103 68l-100 -70l-21 15l111 126h30zM254 99l1 151q-162 287 -166 292q-23 30 -69 42l-10 27q47 -5 105 -5q63 0 121 6l8 -23q-47 -7 -71 -17q-7 -3 -7 -8q0 -1 2 -7q10 -28 143 -264l131 250q4 8 4 13q0 9 -8 12q-21 9 -72 19l-12 25 q50 -5 106 -5q34 0 87 5l6 -23q-25 -6 -50 -37q-28 -32 -175 -303v-145q0 -47 6 -58q34 -20 99 -27l-11 -23q-68 6 -118 6q-56 0 -132 -6l10 26q46 7 65 22q7 10 7 55z"/>
<glyph unicode="ŷ" glyph-name="ycircumflex" horiz-adv-x="448" d="M243 649l104 -179l-18 -10l-113 106l-99 -108l-20 13l112 171zM382 322q-73 -150 -131 -295l-124 -302l-75 38q91 99 137 222q-19 47 -66 162.5t-57 140.5q-21 54 -37 72q-10 10 -32 14l-10 22q49 3 119 19q10 -52 39 -129l81 -220l117 280q2 6 2 9q0 7 -8 10 q-24 8 -59 18l-6 21q15 -1 42 -1q60 0 105 8l4 -15q-14 -19 -41 -74z"/>
<glyph unicode="Ÿ" glyph-name="Ydieresis" horiz-adv-x="572" d="M374 663l-44 34q31 43 47 76l53 -36q-22 -36 -56 -74zM225 666l-44 35q27 36 47 76l55 -36q-36 -52 -58 -75zM254 99l1 151q-162 287 -166 292q-23 30 -69 42l-10 27q47 -5 105 -5q63 0 121 6l8 -23q-47 -7 -71 -17q-7 -3 -7 -8q0 -1 2 -7q10 -28 143 -264l131 250 q4 8 4 13q0 9 -8 12q-21 9 -72 19l-12 25q50 -5 106 -5q34 0 87 5l6 -23q-25 -6 -50 -37q-28 -32 -175 -303v-145q0 -47 6 -58q34 -20 99 -27l-11 -23q-68 6 -118 6q-56 0 -132 -6l10 26q46 7 65 22q7 10 7 55z"/>
<glyph unicode="Ź" glyph-name="Zacute" horiz-adv-x="619" d="M262 658l-13 20q42 21 99 61.5t81 65.5l69 -43q-23 -18 -105 -53t-131 -51zM571 185l-37 -189q-108 4 -234 4q-152 0 -232 -4l-12 35q50 45 105 120l299 407q-28 3 -120 3q-164 0 -191 -5q-26 -41 -55 -128l-17 1l11 183q94 -6 217 -6q150 0 249 10l12 -37 q-41 -44 -102 -127l-296 -407q21 -1 93 -1q193 0 219 10q8 6 32.5 50t40.5 81h18z"/>
<glyph unicode="ź" glyph-name="zacute" horiz-adv-x="420" d="M177 460l-17 21q37 29 80 82.5t60 84.5l71 -32q-22 -28 -88 -81.5t-106 -74.5zM375 133l-13 -135q-56 2 -134 2q-104 0 -189 -4l-14 29q27 25 67 79q105 141 193 266h-13q-116 0 -171 -7q-15 -31 -20 -80l-16 -6l-28 127q21 -1 71 -1q184 0 256 12l10 -37 q-27 -32 -55 -71l-194 -272h12q125 0 181 10q24 42 43 88h14z"/>
<glyph unicode="Ż" glyph-name="Zdotaccent" horiz-adv-x="619" d="M327 670l-47 46q11 14 58 89q1 -1 13.5 -12t25 -21l17.5 -14q-20 -34 -67 -88zM571 185l-37 -189q-108 4 -234 4q-152 0 -232 -4l-12 35q50 45 105 120l299 407q-28 3 -120 3q-164 0 -191 -5q-26 -41 -55 -128l-17 1l11 183q94 -6 217 -6q150 0 249 10l12 -37 q-41 -44 -102 -127l-296 -407q21 -1 93 -1q193 0 219 10q8 6 32.5 50t40.5 81h18z"/>
<glyph unicode="ż" glyph-name="zdotaccent" horiz-adv-x="420" d="M213 480l-47 46q11 14 58 89q1 -1 13.5 -12t25 -21l17.5 -14q-20 -34 -67 -88zM375 133l-13 -135q-56 2 -134 2q-104 0 -189 -4l-14 29q27 25 67 79q105 141 193 266h-13q-116 0 -171 -7q-15 -31 -20 -80l-16 -6l-28 127q21 -1 71 -1q184 0 256 12l10 -37 q-27 -32 -55 -71l-194 -272h12q125 0 181 10q24 42 43 88h14z"/>
<glyph unicode="Ž" glyph-name="Zcaron" horiz-adv-x="619" d="M312 658l-116 86l67 47l73 -76l135 74l10 -24l-146 -107h-23zM571 185l-37 -189q-108 4 -234 4q-152 0 -232 -4l-12 35q50 45 105 120l299 407q-28 3 -120 3q-164 0 -191 -5q-26 -41 -55 -128l-17 1l11 183q94 -6 217 -6q150 0 249 10l12 -37q-41 -44 -102 -127 l-296 -407q21 -1 93 -1q193 0 219 10q8 6 32.5 50t40.5 81h18z"/>
<glyph unicode="ž" glyph-name="zcaron" horiz-adv-x="420" d="M196 460l-102 107l67 39l56 -82l119 90l17 -21l-137 -133h-20zM375 133l-13 -135q-56 2 -134 2q-104 0 -189 -4l-14 29q27 25 67 79q105 141 193 266h-13q-116 0 -171 -7q-15 -31 -20 -80l-16 -6l-28 127q21 -1 71 -1q184 0 256 12l10 -37q-27 -32 -55 -71l-194 -272h12 q125 0 181 10q24 42 43 88h14z"/>
<glyph unicode="ſ" glyph-name="longs" horiz-adv-x="319" d="M88 94v395q0 68 19 94q24 34 76.5 67.5t81.5 33.5q50 0 95 -24q-12 -35 -30 -70q-23 18 -55.5 29t-54.5 11q-21 0 -34 -11.5t-18.5 -35.5t-7.5 -47.5t-2 -60.5v-378q0 -36 7 -44q4 -8 36.5 -18t62.5 -14l-9 -23q-62 5 -114 5q-49 0 -127 -5l4 23q45 11 62 29q8 14 8 44z "/>
<glyph unicode="ƒ" glyph-name="florin" horiz-adv-x="312" d="M54 306h58q2 10 4 26t4 28q9 52 15 67q17 38 70.5 79t78.5 41q41 0 78 -20l-33 -61q-35 33 -74 33q-56 0 -74 -118q-6 -34 -9 -73h107l-7 -37h-106l-25 -201q-15 -122 -29 -158q-10 -26 -56 -65t-69 -39q-37 0 -77 22l30 45q51 -19 71 -19q26 0 40 33t23 110l33 273h-59z "/>
<glyph unicode="Ǻ" glyph-name="Aringacute" horiz-adv-x="660" d="M248 844l-13 20q42 21 99 61.5t81 65.5l69 -43q-23 -18 -105 -53t-131 -51zM308 541l-88 -244h179zM488 74l-73 183h-211l-72 -189q-3 -9 -3 -16q0 -10 32.5 -17t69.5 -10l-13 -28q-65 5 -104 5q-46 0 -99 -5l8 25q40 7 54 36q18 34 111 270.5t105 282.5l59 9 q25 -81 117.5 -306.5t106.5 -247.5q23 -36 79 -44l-11 -24q-60 5 -117 5q-49 0 -117 -6l8 25q77 6 77 24q0 12 -7 28zM274 738q0 -25 13 -38.5t31 -13.5q24 0 36 18.5t12 46.5q0 22 -12.5 35.5t-32.5 13.5q-22 0 -34.5 -18.5t-12.5 -43.5zM233 733q0 41 31 68.5t62 27.5 q37 0 59.5 -18t22.5 -52q0 -42 -31.5 -73t-66.5 -31q-32 0 -54.5 20t-22.5 58z"/>
<glyph unicode="ǻ" glyph-name="aringacute" horiz-adv-x="422" d="M167 658l-17 21q37 29 80 82.5t60 84.5l71 -32q-22 -28 -88 -81.5t-106 -74.5zM254 82v115q-40 -4 -76 -15q-72 -23 -72 -75q0 -26 16 -44t47 -18t85 37zM406 60l9 -18q-97 -58 -125 -58q-30 0 -36 69q-98 -69 -134 -69q-38 0 -65.5 34t-27.5 70q0 45 20.5 66t70.5 38 q40 14 136 36v66q0 40 -15.5 58t-51.5 18q-42 0 -61 -17l-2 -55q-20 -9 -60 -20q-5 5 -5 20q0 37 11 50q16 18 72.5 45t84.5 27q49 0 73.5 -28.5t24.5 -77.5v-223q0 -27 3 -35.5t13 -8.5q26 0 65 13zM169 543q0 -25 13 -38.5t31 -13.5q24 0 36 18.5t12 46.5q0 22 -12.5 35.5 t-32.5 13.5q-22 0 -34.5 -18.5t-12.5 -43.5zM128 538q0 41 31 68.5t62 27.5q37 0 59.5 -18t22.5 -52q0 -42 -31.5 -73t-66.5 -31q-32 0 -54.5 20t-22.5 58z"/>
<glyph unicode="Ǽ" glyph-name="AEacute" horiz-adv-x="846" d="M453 658l-13 20q42 21 99 61.5t81 65.5l69 -43q-23 -18 -105 -53t-131 -51zM430 297v204q0 50 -4 57q-3 2 -12 2l-130 -263h146zM790 166l19 -1q-17 -95 -45 -169q-74 6 -183 6q-113 0 -233 -5l8 25q45 4 68 20q6 24 6 55v158h-169l-101 -191q-4 -8 -4 -12q0 -8 11 -14 q31 -14 85 -17l-11 -24q-65 5 -104 5q-53 0 -106 -5l8 25q39 9 63 36q16 18 138 246t131 252q2 6 2 8q0 7 -9 10q-20 8 -47 10l-9 27q98 -5 194 -5q137 0 242 12q3 -113 9 -177l-14 -1q-16 47 -43 109q-6 11 -12 12q-19 4 -81 4q-86 0 -94 -7q-4 -13 -4 -49v-172 q17 -1 65 -1q70 0 97 4l24 56l14 -1q-4 -41 -4 -78q0 -43 5 -91l-13 -1l-30 65q-44 2 -97 2q-46 0 -62 -1v-198q0 -29 5 -42q43 -6 116 -6q35 0 69 2q33 4 41 15q27 36 55 104z"/>
<glyph unicode="ǽ" glyph-name="aeacute" horiz-adv-x="626" d="M294 460l-17 21q37 29 80 82.5t60 84.5l71 -32q-22 -28 -88 -81.5t-106 -74.5zM417 370q-37 0 -65 -40t-28 -80q34 3 109.5 13t84.5 13q-1 33 -25 63.5t-76 30.5zM272 92q-21 50 -21 105q-22 -2 -63 -13t-62 -30q-20 -17 -20 -49q0 -25 17 -42.5t49 -17.5q18 0 49 16 t51 31zM577 81l7 -27q-111 -70 -167 -70q-81 0 -131 82q-122 -82 -160 -82q-39 0 -69 34.5t-30 74.5t20 61t65 37q48 16 139 37v66q0 40 -16.5 58t-52.5 18q-40 0 -59 -16v-55q-13 -6 -62 -21q-5 5 -5 20q0 27 8 45q3 6 6 8q20 19 73 44t81 25q79 0 94 -72q32 28 70 50 t59 22q72 0 108 -50.5t36 -104.5l-33 -26q-48 -6 -235 -17q0 -68 36.5 -121t91.5 -53q51 0 126 33z"/>
<glyph unicode="Ǿ" glyph-name="Oslashacute" horiz-adv-x="686" d="M296 658l-13 20q42 21 99 61.5t81 65.5l69 -43q-23 -18 -105 -53t-131 -51zM357 36q96 0 151.5 80.5t55.5 188.5q0 120 -80 198l-228 -437q51 -30 101 -30zM125 318q0 -66 26.5 -126.5t73.5 -101.5l229 439q-51 39 -119 39q-92 0 -151 -74.5t-59 -175.5zM356 624 q76 0 133 -29l47 90l33 -18l-48 -92q57 -38 88.5 -99.5t31.5 -134.5q0 -125 -59 -208q-43 -60 -115 -105t-135 -45q-56 0 -107 22l-48 -93l-34 18l49 94q-63 38 -102.5 104.5t-39.5 146.5q0 112 54 187q43 62 116.5 112t135.5 50z"/>
<glyph unicode="ǿ" glyph-name="oslashacute" horiz-adv-x="470" d="M199 460l-17 21q37 29 80 82.5t60 84.5l71 -32q-22 -28 -88 -81.5t-106 -74.5zM356 178q0 82 -37 137l-151 -256q34 -26 80 -26q54 0 81 42t27 103zM98 225q0 -87 44 -142l153 259q-34 32 -82 32q-54 0 -84.5 -44.5t-30.5 -104.5zM224 420q57 0 102 -24l42 71l30 -18 l-42 -72q73 -58 73 -154q0 -91 -43 -146q-26 -33 -71.5 -63t-84.5 -30q-50 0 -94 21l-49 -84l-28 19l48 82q-83 60 -83 172q0 72 51 136q25 31 69 60.5t80 29.5z"/>
<glyph unicode="Ș" glyph-name="Scommaaccent" horiz-adv-x="513" d="M200 -120l43 74q20 -7 48 -30.5t28 -50.5t-28 -65.5t-56 -58.5l-19 15q49 47 49 77q0 29 -65 39zM427 593l-6 -148h-23q-24 67 -35 83q-12 16 -46 30.5t-80 14.5q-31 0 -61 -31.5t-30 -74.5q0 -38 36 -66t100 -56q42 -19 63 -30t51 -32t43.5 -45.5t13.5 -54.5 q0 -77 -62 -138.5t-134 -61.5q-44 0 -102 8t-88 20q5 70 5 125q0 31 -1 46l26 4q5 -28 17 -69t20 -52q38 -40 128 -40q53 0 88 35.5t35 84.5q0 41 -35.5 68t-105.5 58q-38 17 -61.5 29.5t-51.5 33.5t-41.5 46.5t-13.5 56.5q0 48 63 116.5t108 68.5q74 0 180 -29z"/>
<glyph unicode="ș" glyph-name="scommaaccent" horiz-adv-x="358" d="M108 -120l43 74q20 -7 48 -30.5t28 -50.5t-28 -65.5t-56 -58.5l-19 15q49 47 49 77q0 29 -65 39zM283 289h-18q-12 37 -21 56q-8 11 -32.5 20.5t-51.5 9.5q-23 0 -39.5 -15.5t-16.5 -41.5q0 -25 23 -42t65 -36q27 -12 43 -20t35.5 -22t29 -31.5t9.5 -39.5q0 -55 -43 -99 t-103 -44q-27 0 -68 6.5t-60 15.5q5 47 5 121l21 4q8 -39 23 -74q33 -35 92 -35q31 0 52 17t21 48t-23.5 49.5t-67.5 36.5q-58 24 -88 48.5t-30 66.5q0 35 46 83.5t75 48.5q50 0 128 -26q-6 -64 -6 -105z"/>
<glyph unicode="ʼ" glyph-name="afii57929" horiz-adv-x="238" d="M67 626l45 69q54 -28 54 -82q0 -30 -24 -80.5t-49 -80.5l-22 14q32 45 32 93q0 46 -36 67z"/>
<glyph unicode="ˆ" glyph-name="circumflex" horiz-adv-x="417" d="M230 649l104 -179l-18 -10l-113 106l-99 -108l-20 13l112 171z"/>
<glyph unicode="ˇ" glyph-name="caron" horiz-adv-x="394" d="M175 460l-102 107l67 39l56 -82l119 90l17 -21l-137 -133h-20z"/>
<glyph unicode="˘" glyph-name="breve" horiz-adv-x="466" d="M227 466q-44 0 -78 35t-47 71l61 27q12 -26 35 -51t49 -25q30 0 57.5 23t45.5 54l25 -11q-26 -51 -67 -87t-81 -36z"/>
<glyph unicode="˙" glyph-name="dotaccent" horiz-adv-x="218" d="M93 480l-47 46q11 14 58 89q1 -1 13.5 -12t25 -21l17.5 -14q-20 -34 -67 -88z"/>
<glyph unicode="˚" glyph-name="ring" horiz-adv-x="466" d="M193 543q0 -25 13 -38.5t31 -13.5q24 0 36 18.5t12 46.5q0 22 -12.5 35.5t-32.5 13.5q-22 0 -34.5 -18.5t-12.5 -43.5zM152 538q0 41 31 68.5t62 27.5q37 0 59.5 -18t22.5 -52q0 -42 -31.5 -73t-66.5 -31q-32 0 -54.5 20t-22.5 58z"/>
<glyph unicode="˛" glyph-name="ogonek" horiz-adv-x="515" d="M314 23l10 -11q-31 -23 -46 -36t-32.5 -41.5t-17.5 -59.5q0 -33 13 -57.5t38 -24.5q27 0 63 17l8 -15q-82 -50 -106 -50q-38 0 -62.5 31t-24.5 66q0 40 22 67q24 30 64 63.5t71 50.5z"/>
<glyph unicode="˜" glyph-name="tilde" horiz-adv-x="429" d="M137 525q-30 0 -76 -49l-13 14q78 99 110 99q16 0 61 -26.5t65 -26.5q30 0 67 43l15 -12q-18 -26 -51 -58.5t-49 -32.5q-13 0 -58.5 24.5t-70.5 24.5z"/>
<glyph unicode="˝" glyph-name="hungarumlaut" horiz-adv-x="290" d="M94 460l-21 15q28 37 55.5 100t36.5 99l77 -13q-15 -33 -64.5 -101.5t-83.5 -99.5zM215 462l-20 18q31 34 64 94t45 94l74 -19q-17 -32 -72 -95.5t-91 -91.5z"/>
<glyph unicode="̦" glyph-name="uni0326" horiz-adv-x="0" d="M-287 -120l43 74q20 -7 48 -30.5t28 -50.5t-28 -65.5t-56 -58.5l-19 15q49 47 49 77q0 29 -65 39z"/>
<glyph unicode="΄" glyph-name="tonos" horiz-adv-x="290" d="M118 460l-22 15q24 44 45.5 101t28.5 90l77 -9q-13 -35 -54.5 -99t-74.5 -98z"/>
<glyph unicode="΅" glyph-name="dieresistonos" horiz-adv-x="332" d="M145 460l-22 15q24 44 45.5 101t28.5 90l77 -9q-13 -35 -54.5 -99t-74.5 -98zM291 481l-44 34q31 43 47 76l53 -36q-22 -36 -56 -74zM56 487l-44 35q27 36 47 76l55 -36q-36 -52 -58 -75z"/>
<glyph unicode="Ά" glyph-name="Alphatonos" horiz-adv-x="671" d="M111 398l-24 11q38 109 43 201l78 3q-8 -37 -39 -106.5t-58 -108.5zM319 541l-88 -244h179zM499 74l-73 183h-211l-72 -189q-3 -9 -3 -16q0 -10 32.5 -17t69.5 -10l-13 -28q-65 5 -104 5q-47 0 -99 -5l8 25q40 7 54 36q18 34 111 270.5t105 282.5l59 9 q25 -81 117.5 -306.5t106.5 -247.5q23 -36 79 -44l-11 -24q-60 5 -117 5q-49 0 -117 -6l8 25q77 6 77 24q0 12 -7 28z"/>
<glyph unicode="·" glyph-name="anoteleia" horiz-adv-x="253" d="M83 183l-17 75q47 13 98 35q4 -31 19 -79q-47 -11 -100 -31z"/>
<glyph unicode="Έ" glyph-name="Epsilontonos" horiz-adv-x="638" d="M22 398l-24 11q38 109 43 201l78 3q-8 -37 -39 -106.5t-58 -108.5zM594 166l19 -1q-15 -85 -45 -169q-74 6 -184 6q-113 0 -232 -5l8 25q16 2 37 8t29 12q8 19 8 55v432q0 27 -8 37q-16 12 -61 16l-9 29q55 -4 160 -4q134 0 232 11q4 -129 8 -177l-13 -1q-27 74 -44 109 q-5 11 -12 12q-17 4 -81 4q-84 0 -94 -7q-4 -10 -4 -49v-167q17 -1 66 -1q67 0 97 3l24 56l13 -2q-3 -45 -3 -76q0 -56 5 -92l-14 -1l-30 65q-46 2 -97 2q-45 0 -62 -1v-202q0 -29 5 -42q45 -6 116 -6q35 0 69 2q34 4 41 15q25 33 56 104z"/>
<glyph unicode="Ή" glyph-name="Etatonos" horiz-adv-x="816" d="M14 398l-24 11q38 109 43 201l78 3q-8 -37 -39 -106.5t-58 -108.5zM626 336v186q0 25 -7 41q-20 13 -68 18l-8 28q99 -3 117 -3q20 0 101 3l6 -27q-45 -4 -62 -15q-6 -20 -6 -65v-408q0 -30 4 -46q21 -15 88 -24l-10 -25q-49 3 -110 3q-55 0 -111 -3l7 25q41 8 52 22 q7 26 7 67v178h-318v-206q0 -26 4 -39q18 -14 84 -24l-8 -23q-42 3 -96 3q-53 0 -121 -4l5 25q40 8 53 21q5 17 5 47v436q0 28 -8 40q-22 13 -65 15l-7 30q72 -5 137 -5q35 0 85 2l4 -26q-49 -5 -66 -16q-6 -17 -6 -72v-159h318z"/>
<glyph unicode="Ί" glyph-name="Iotatonos" horiz-adv-x="423" d="M14 398l-24 11q38 109 43 201l78 3q-8 -37 -39 -106.5t-58 -108.5zM230 114v415q0 28 -8 38q-19 12 -65 16l-9 30q51 -5 130 -5q54 0 97 3l5 -28q-56 -5 -71 -17q-6 -12 -6 -44v-428q0 -39 4 -48q23 -15 93 -24l-11 -23q-63 3 -113 3t-124 -3l8 26q44 5 62 20q8 21 8 69z "/>
<glyph unicode="Ό" glyph-name="Omicrontonos" horiz-adv-x="726" d="M14 398l-24 11q38 109 43 201l78 3q-8 -37 -39 -106.5t-58 -108.5zM399 37q93 0 149.5 81t56.5 187q0 108 -68.5 185.5t-160.5 77.5t-151 -74.5t-59 -175.5q0 -111 70.5 -196t162.5 -85zM397 624q128 0 206.5 -82t78.5 -201q0 -125 -59 -208q-43 -59 -115 -104t-135 -45 q-110 0 -196 83.5t-86 207.5q0 112 54 187q43 62 116.5 112t135.5 50z"/>
<glyph unicode="Ύ" glyph-name="Upsilontonos" horiz-adv-x="728" d="M14 398l-24 11q38 109 43 201l78 3q-8 -37 -39 -106.5t-58 -108.5zM394 99q0 86 -10 147q-14 85 -54.5 165.5t-77.5 114.5q-40 37 -93 41l-14 28q60 6 122 22q33 -19 66 -66q30 -42 62 -119t46 -172h2q13 74 44.5 161.5t68.5 135.5q46 59 105 59q34 0 62 -16l-28 -54 q-21 6 -38 6q-25 0 -46.5 -14t-39 -41.5t-27 -46t-23.5 -50.5q-38 -89 -48 -167q-7 -48 -7 -129q0 -47 6 -58q34 -20 99 -27l-11 -23q-68 6 -118 6q-56 0 -132 -6l10 26q49 7 67 22q7 10 7 55z"/>
<glyph unicode="Ώ" glyph-name="Omegatonos" horiz-adv-x="742" d="M14 398l-24 11q38 109 43 201l78 3q-8 -37 -39 -106.5t-58 -108.5zM430 -3l8 45q71 43 108.5 114.5t37.5 151.5q0 116 -60.5 192.5t-153.5 76.5t-142.5 -71.5t-49.5 -170.5q0 -92 42.5 -169.5t108.5 -123.5l7 -45q-66 3 -132 3q-77 0 -134 -3l-11 151h18q25 -66 39 -81 q38 -11 149 -13q-61 34 -115 113.5t-54 167.5q0 78 42 136q43 59 114.5 106t136.5 47q130 0 204 -81t74 -199q0 -84 -51 -167t-118 -125q112 3 140 14q22 23 45 82h18l-17 -151q-84 3 -112 3q-68 0 -142 -3z"/>
<glyph unicode="ΐ" glyph-name="iotadieresistonos" horiz-adv-x="244" d="M99 460l-22 15q24 44 45.5 101t28.5 90l77 -9q-13 -35 -54.5 -99t-74.5 -98zM245 481l-44 34q31 43 47 76l53 -36q-22 -36 -56 -74zM10 487l-44 35q27 36 47 76l55 -36q-36 -52 -58 -75zM259 51l9 -11q-29 -20 -74 -48q-19 -6 -39 -6q-42 0 -61.5 28.5t-19.5 91.5 q0 46 1.5 130t1.5 107q0 46 -1 66q39 3 78 10q-13 -184 -13 -284q0 -54 14 -73t45 -19q24 0 59 8z"/>
<glyph unicode="Α" glyph-name="Alpha" horiz-adv-x="660" d="M308 541l-88 -244h179zM488 74l-73 183h-211l-72 -189q-3 -9 -3 -16q0 -10 32.5 -17t69.5 -10l-13 -28q-65 5 -104 5q-46 0 -99 -5l8 25q40 7 54 36q18 34 111 270.5t105 282.5l59 9q25 -81 117.5 -306.5t106.5 -247.5q23 -36 79 -44l-11 -24q-60 5 -117 5q-49 0 -117 -6 l8 25q77 6 77 24q0 12 -7 28z"/>
<glyph unicode="Β" glyph-name="Beta" horiz-adv-x="555" d="M203 565q-6 -19 -6 -61v-174h20q75 0 120.5 32.5t45.5 101.5q0 111 -110 111q-57 0 -70 -10zM197 296v-146q0 -52 5 -77q3 -15 11 -23q17 -15 70 -15q142 0 142 140q0 61 -49 92t-116 31q-35 0 -63 -2zM47 612q45 -6 91 -6q21 0 65 2q25 3 74 3q180 0 180 -128 q0 -64 -36.5 -104t-87.5 -55q172 -13 172 -144q0 -83 -53 -132.5t-155 -49.5q-18 0 -54 2q-50 2 -76 2q-65 0 -122 -6l5 27q40 3 64 25q9 22 9 110v310q0 72 -10 96q-20 17 -60 19z"/>
<glyph unicode="Γ" glyph-name="Gamma" horiz-adv-x="496" d="M471 427h-25q-14 52 -45 116q-4 14 -11 15q-27 5 -91 5q-73 0 -91 -6q-6 -7 -6 -47v-420q0 -30 4 -40q25 -19 88 -28l-11 -25q-60 6 -103 6q-63 0 -120 -5l5 24q41 7 57 22q6 20 6 53v410q0 43 -8 57q-22 11 -66 16l-9 29q45 -3 133 -3q175 0 282 11q2 -88 11 -190z"/>
<glyph unicode="Δ" glyph-name="uni0394" horiz-adv-x="592" d="M95 52h377q-93 244 -171 486q-79 -209 -206 -486zM562 29l-22 -29h-482l-18 29q35 72 116 258.5t102 248.5q15 41 24 69q42 5 70 12q10 -49 34 -120q86 -258 176 -468z"/>
<glyph unicode="Ε" glyph-name="Epsilon" horiz-adv-x="538" d="M489 166l19 -1q-15 -85 -45 -169q-74 6 -184 6q-113 0 -232 -5l8 25q16 2 37 8t29 12q8 19 8 55v432q0 27 -8 37q-16 12 -61 16l-9 29q55 -4 160 -4q134 0 232 11q4 -129 8 -177l-13 -1q-27 74 -44 109q-5 11 -12 12q-17 4 -81 4q-84 0 -94 -7q-4 -10 -4 -49v-167 q17 -1 66 -1q67 0 97 3l24 56l13 -2q-3 -45 -3 -76q0 -56 5 -92l-14 -1l-30 65q-46 2 -97 2q-45 0 -62 -1v-202q0 -29 5 -42q45 -6 116 -6q35 0 69 2q34 4 41 15q25 33 56 104z"/>
<glyph unicode="Ζ" glyph-name="Zeta" horiz-adv-x="619" d="M571 185l-37 -189q-108 4 -234 4q-152 0 -232 -4l-12 35q50 45 105 120l299 407q-28 3 -120 3q-164 0 -191 -5q-26 -41 -55 -128l-17 1l11 183q94 -6 217 -6q150 0 249 10l12 -37q-41 -44 -102 -127l-296 -407q21 -1 93 -1q193 0 219 10q8 6 32.5 50t40.5 81h18z"/>
<glyph unicode="Η" glyph-name="Eta" horiz-adv-x="712" d="M517 336v186q0 25 -7 41q-20 13 -68 18l-8 28q99 -3 117 -3q20 0 101 3l6 -27q-45 -4 -62 -15q-6 -20 -6 -65v-408q0 -30 4 -46q21 -15 88 -24l-10 -25q-50 3 -110 3q-56 0 -111 -3l7 25q41 8 52 22q7 26 7 67v178h-318v-206q0 -26 4 -39q18 -14 84 -24l-8 -23 q-42 3 -96 3q-53 0 -121 -4l5 25q40 8 53 21q5 17 5 47v436q0 28 -8 40q-22 13 -65 15l-7 30q72 -5 137 -5q35 0 85 2l4 -26q-49 -5 -66 -16q-6 -17 -6 -72v-159h318z"/>
<glyph unicode="Θ" glyph-name="Theta" horiz-adv-x="691" d="M358 37q93 0 149.5 81t56.5 187q0 108 -68.5 185.5t-160.5 77.5t-151 -74.5t-59 -175.5q0 -111 70.5 -196t162.5 -85zM356 624q128 0 206.5 -82t78.5 -201q0 -125 -59 -208q-43 -59 -115 -104t-135 -45q-110 0 -196 83.5t-86 207.5q0 112 54 187q43 62 116.5 112 t135.5 50zM349 277q-52 0 -98 -2l-23 -72l-16 1q8 118 8 205l17 2l15 -71q30 -3 92 -3t92 3l22 69l16 -2q-7 -87 -7 -156q0 -15 2 -45l-17 -1l-20 70q-46 2 -83 2z"/>
<glyph unicode="Ι" glyph-name="Iota" horiz-adv-x="321" d="M128 114v415q0 28 -8 38q-19 12 -65 16l-9 30q51 -5 130 -5q54 0 97 3l5 -28q-56 -5 -71 -17q-6 -12 -6 -44v-428q0 -39 4 -48q23 -15 93 -24l-11 -23q-63 3 -113 3t-124 -3l8 26q44 5 62 20q8 21 8 69z"/>
<glyph unicode="Κ" glyph-name="Kappa" horiz-adv-x="626" d="M380 584l-7 24q39 -3 95 -3q62 0 99 4l9 -24q-59 -11 -128 -75q-117 -108 -178 -179q32 -45 103.5 -123t114.5 -118q46 -42 123 -44l-11 -27q-18 -2 -61 -11t-61 -16l-13 5q-110 140 -250 311v15l215 229q6 6 6 10t-7 7q-24 11 -49 15zM198 522l-1 -429q0 -30 4 -46 q23 -17 88 -24l-10 -25q-48 3 -110 3q-55 0 -111 -3l6 25q41 8 53 22q6 22 6 67v417q0 30 -7 38q-21 12 -65 16l-7 30q51 -5 132 -5q40 0 83 3l5 -28q-43 -4 -61 -17q-5 -13 -5 -44z"/>
<glyph unicode="Λ" glyph-name="Lambda" horiz-adv-x="640" d="M298 541l-168 -477q-3 -9 -3 -16q0 -20 102 -27l-11 -24q-65 5 -104 5q-46 0 -99 -5l8 25q40 7 54 36q16 31 105 268t101 285l59 9q26 -84 113.5 -309t100.5 -245q23 -36 79 -44l-11 -24q-60 5 -117 5q-49 0 -117 -6l8 25q76 6 76 24q0 10 -6 28z"/>
<glyph unicode="Μ" glyph-name="Mu" horiz-adv-x="865" d="M68 585l-7 28q78 -4 120 -4q9 0 19.5 0.5t23.5 1.5t21 1l196 -507l196 504q24 -1 68 -1q41 0 97 3l7 -27q-65 -7 -79 -19q-7 -17 -7 -52q0 -39 21 -417q2 -37 12 -49q11 -8 94 -24l-11 -26q-57 5 -110 5q-51 0 -136 -5l9 27q46 7 63 23q7 14 7 56q0 89 -21 420l-203 -518 l-39 -17l-220 560q-5 -77 -13 -253t-8 -209q0 -28 4 -41q36 -16 91 -23l-9 -23q-31 2 -98 2q-44 0 -110 -2l5 23q38 6 57 20q6 19 8 48q21 267 21 439q0 33 -7 40q-16 9 -62 16z"/>
<glyph unicode="Ν" glyph-name="Nu" horiz-adv-x="706" d="M603 513l-3 -396q0 -71 3 -117l-37 -18q-89 136 -396 548v-444q0 -28 5 -40q4 -5 38 -13.5t52 -10.5l-9 -23q-31 2 -96 2q-41 0 -105 -2l5 23q38 7 53 20q6 13 6 48v387q0 79 -7 90q-20 12 -60 16l-7 30q15 0 45 -2t45 -2q16 0 68 4l350 -488v396q0 35 -8 45 q-16 12 -67 17l-9 28q45 -4 106 -4q44 0 96 4l5 -28q-15 -1 -40 -6.5t-29 -9.5q-4 -8 -4 -54z"/>
<glyph unicode="Ξ" glyph-name="Xi" horiz-adv-x="586" d="M291 554q-91 0 -158 -5q-16 -35 -31 -103l-24 -2q3 51 3 98q0 49 -2 76q105 -8 223 -8q122 0 234 9q-16 -64 -27 -171l-24 -1q-4 55 -13 100q-59 7 -181 7zM296 287q-45 0 -91 -2l-25 -71l-14 1q8 100 10 203l17 2l15 -70q40 -4 88 -4q47 0 87 4l24 69l15 -2 q-6 -68 -6 -121q0 -28 2 -80l-15 -1l-22 70q-46 2 -85 2zM116 67q43 -10 188 -10q120 0 156 10q15 17 52 118h18l-17 -189q-56 4 -213 4q-180 0 -240 -4v189h20q22 -88 36 -118z"/>
<glyph unicode="Ο" glyph-name="Omicron" horiz-adv-x="691" d="M358 37q93 0 149.5 81t56.5 187q0 108 -68.5 185.5t-160.5 77.5t-151 -74.5t-59 -175.5q0 -111 70.5 -196t162.5 -85zM356 624q128 0 206.5 -82t78.5 -201q0 -125 -59 -208q-43 -59 -115 -104t-135 -45q-110 0 -196 83.5t-86 207.5q0 112 54 187q43 62 116.5 112 t135.5 50z"/>
<glyph unicode="Π" glyph-name="Pi" horiz-adv-x="701" d="M504 117v351q0 78 -9 88q-15 4 -141 4q-134 0 -147 -4q-7 -22 -7 -93v-338q0 -66 8 -81q25 -16 73 -22l-7 -24q-47 3 -95 3q-64 0 -120 -4l9 26q32 4 54 21q4 16 4 70v387q0 51 -6 66q-21 12 -64 15l-9 27q208 -4 309 -4q104 0 280 4l6 -24q-40 -2 -59 -16 q-5 -20 -5 -102v-356q0 -48 6 -66q24 -15 80 -24l-8 -23q-46 3 -105 3q-57 0 -106 -3l3 24q30 7 50 22q6 17 6 73z"/>
<glyph unicode="Ρ" glyph-name="Rho" horiz-adv-x="535" d="M204 567q-6 -19 -6 -68v-349q0 -77 10 -98q6 -10 40.5 -18.5t61.5 -8.5l-13 -26q-51 3 -106 3q-71 0 -146 -6l6 26q47 2 64 26q8 18 8 116v331q0 56 -6 72q-15 13 -64 17l-7 30q50 -5 103 -5q13 0 28.5 0.5t34.5 1.5t30 1q18 1 49 1q94 0 149 -35t55 -109q0 -90 -62 -142 t-157 -52q-21 0 -26 1l3 28q75 0 116.5 39t41.5 115q0 67 -34 92t-99 25q-64 0 -74 -8z"/>
<glyph unicode="Σ" glyph-name="Sigma" horiz-adv-x="560" d="M227 563q-57 0 -86 -3l194 -236l-228 -266q21 -1 90 -1q228 0 254 10q20 15 61 118h18l-28 -189q-108 4 -290 4q-105 0 -185 -4l-12 35q28 24 112 120l135 157l-125 150q-69 83 -106 119l12 39q99 -10 216 -10q133 0 228 6l11 -183l-17 -1q-30 91 -55 130q-27 5 -199 5z "/>
<glyph unicode="Τ" glyph-name="Tau" horiz-adv-x="624" d="M69 426l-23 -1q2 60 2 103q0 61 -1 90q101 -13 271 -13q159 0 270 13q-30 -106 -45 -191l-22 -1q-5 75 -11 134q-45 5 -112 5q-31 0 -57 -2v-465q0 -40 6 -45q25 -21 99 -31l-11 -24q-55 5 -115 5q-76 0 -139 -6l11 27q49 7 68 23q8 9 8 51v465q-34 2 -63 2q-55 0 -90 -3 q-30 -79 -46 -136z"/>
<glyph unicode="Υ" glyph-name="Upsilon" horiz-adv-x="588" d="M254 99q0 86 -10 147q-14 85 -54.5 165.5t-77.5 114.5q-40 37 -93 41l-14 28q60 6 122 22q33 -19 66 -66q30 -42 62 -119t46 -172h2q13 74 44.5 161.5t68.5 135.5q46 59 105 59q34 0 62 -16l-28 -54q-21 6 -38 6q-25 0 -46.5 -14t-39 -41.5t-27 -46t-23.5 -50.5 q-38 -89 -48 -167q-7 -48 -7 -129q0 -47 6 -58q34 -20 99 -27l-11 -23q-68 6 -118 6q-56 0 -132 -6l10 26q49 7 67 22q7 10 7 55z"/>
<glyph unicode="Φ" glyph-name="Phi" horiz-adv-x="696" d="M110 321q0 -86 59 -144.5t145 -61.5v406q-84 -5 -144 -59t-60 -141zM385 115q82 2 142.5 64.5t60.5 148.5q0 85 -66 139.5t-137 54.5v-407zM314 551q0 25 -8 42q-26 11 -65 11l-8 28q31 -2 110 -2q77 0 104 2l5 -26q-35 -2 -62 -12q-5 -9 -5 -43q50 0 97.5 -13t89.5 -38 t68 -69.5t26 -101.5q0 -104 -85.5 -173t-195.5 -72q0 -30 6 -43q30 -16 81 -19l-8 -23q-92 2 -110 2q-61 0 -112 -2l7 23q33 4 56 16q9 18 9 47q-119 0 -200.5 60t-81.5 171q0 98 83 165.5t199 69.5z"/>
<glyph unicode="Χ" glyph-name="Chi" horiz-adv-x="656" d="M364 317q136 -196 186 -244q41 -38 91 -47l-9 -27q-47 4 -99 4q-43 0 -145 -7l8 26q33 4 54 13q11 3 11 11t-9 20l-139 192q-82 -104 -139 -188q-5 -7 -5 -12q0 -6 6 -9q35 -18 101 -27l-11 -24q-67 5 -121 5q-55 0 -125 -5l6 29q36 3 66.5 30t77.5 84q51 62 119 154 q-156 220 -204 262q-18 17 -56 25l-13 30q35 -5 108 -5q80 0 135 6l9 -25q-45 -7 -65 -17q-8 -4 -8 -10q0 -3 3 -9q13 -24 60.5 -91t81.5 -110q33 40 86.5 111t65.5 90q2 4 2 6q0 7 -8 10q-25 9 -66 17l-12 27q70 -5 110 -5q56 0 97 4l7 -24q-26 -6 -58 -31t-57 -55 q-62 -76 -142 -184z"/>
<glyph unicode="Ψ" glyph-name="Psi" horiz-adv-x="744" d="M346 114v96q-85 2 -134 30q-84 47 -113 170q-5 20 -11 59t-7 47q-5 26 -13 34q-20 22 -59 28l-9 29q43 -4 87 -4q42 0 64 2q8 -142 26 -213q35 -139 169 -150v287q0 28 -8 38q-20 12 -63 16l-9 30q51 -5 128 -5q50 0 94 3l5 -28q-56 -5 -71 -17q-6 -12 -6 -44v-279 q67 6 104 38t56 111q21 88 25 213q44 -2 60 -2q40 0 83 4l-9 -29q-39 -8 -55 -26q-10 -11 -18 -51q-3 -12 -9 -47.5t-10 -53.5q-27 -116 -108 -160q-46 -25 -119 -28v-118q0 -39 4 -48q23 -15 93 -24l-11 -23q-63 3 -110 3q-50 0 -124 -3l8 26q44 5 62 20q8 21 8 69z"/>
<glyph unicode="Ω" glyph-name="uni03A9" horiz-adv-x="733" d="M421 -3l8 45q71 43 108.5 114.5t37.5 151.5q0 116 -60.5 192.5t-153.5 76.5t-142.5 -71.5t-49.5 -170.5q0 -92 42.5 -169.5t108.5 -123.5l7 -45q-66 3 -132 3q-77 0 -134 -3l-11 151h18q25 -66 39 -81q38 -11 149 -13q-61 34 -115 113.5t-54 167.5q0 78 42 136 q43 59 114.5 106t136.5 47q130 0 204 -81t74 -199q0 -84 -51 -167t-118 -125q112 3 140 14q22 23 45 82h18l-17 -151q-84 3 -112 3q-69 0 -142 -3z"/>
<glyph unicode="Ϊ" glyph-name="Iotadieresis" horiz-adv-x="321" d="M233 649l-44 34q31 43 47 76l53 -36q-22 -36 -56 -74zM84 652l-44 35q27 36 47 76l55 -36q-36 -52 -58 -75zM128 114v415q0 28 -8 38q-19 12 -65 16l-9 30q51 -5 130 -5q54 0 97 3l5 -28q-56 -5 -71 -17q-6 -12 -6 -44v-428q0 -39 4 -48q23 -15 93 -24l-11 -23 q-63 3 -113 3t-124 -3l8 26q44 5 62 20q8 21 8 69z"/>
<glyph unicode="Ϋ" glyph-name="Upsilondieresis" horiz-adv-x="588" d="M380 649l-44 34q31 43 47 76l53 -36q-22 -36 -56 -74zM231 652l-44 35q27 36 47 76l55 -36q-36 -52 -58 -75zM254 99q0 86 -10 147q-14 85 -54.5 165.5t-77.5 114.5q-40 37 -93 41l-14 28q60 6 122 22q33 -19 66 -66q30 -42 62 -119t46 -172h2q13 74 44.5 161.5 t68.5 135.5q46 59 105 59q34 0 62 -16l-28 -54q-21 6 -38 6q-25 0 -46.5 -14t-39 -41.5t-27 -46t-23.5 -50.5q-38 -89 -48 -167q-7 -48 -7 -129q0 -47 6 -58q34 -20 99 -27l-11 -23q-68 6 -118 6q-56 0 -132 -6l10 26q49 7 67 22q7 10 7 55z"/>
<glyph unicode="ά" glyph-name="alphatonos" horiz-adv-x="537" d="M245 460l-22 15q24 44 45.5 101t28.5 90l77 -9q-13 -35 -54.5 -99t-74.5 -98zM334 186q-14 62 -16 70q-14 58 -34.5 87t-59.5 29q-49 0 -71.5 -47t-22.5 -118t22 -117t65 -46q64 0 117 142zM534 54l8 -14q-9 -5 -38 -20t-49 -24.5t-27 -9.5q-24 0 -39 15q-23 23 -42 128 q-63 -145 -154 -145q-63 0 -100 55.5t-37 148.5q0 75 31 124q28 44 75 76t90 32q32 0 55.5 -11.5t38 -35t22 -43t14.5 -49.5l46 130l93 10l7 -18q-46 -29 -76 -75q-37 -56 -57 -107q11 -72 35 -132q16 -41 55 -41q15 0 49 6z"/>
<glyph unicode="έ" glyph-name="epsilontonos" horiz-adv-x="402" d="M201 460l-22 15q24 44 45.5 101t28.5 90l77 -9q-13 -35 -54.5 -99t-74.5 -98zM339 330q-18 16 -53.5 32t-67.5 16q-34 0 -57.5 -17t-23.5 -51q0 -39 31.5 -58t80.5 -19q39 0 81 8v-7q0 -27 -4 -55q-44 10 -99 10q-40 0 -70 -18.5t-30 -50.5q0 -42 41.5 -61t100.5 -19 q61 0 109 19l6 -19q-29 -19 -71.5 -37.5t-70.5 -18.5q-81 0 -134 27t-53 90q0 48 38.5 78.5t84.5 32.5q-111 20 -111 90q0 49 53.5 83.5t110.5 34.5q89 0 138 -20q-7 -34 -30 -70z"/>
<glyph unicode="ή" glyph-name="etatonos" horiz-adv-x="474" d="M245 460l-22 15q24 44 45.5 101t28.5 90l77 -9q-13 -35 -54.5 -99t-74.5 -98zM160 345q28 17 45 29q71 46 90 46q51 0 96 -37q43 -34 43 -118q-1 -48 -4 -165t-4 -184q0 -60 3 -90q-27 -2 -77 -16l-10 13q21 156 21 430q0 104 -88 104q-40 0 -115 -47q2 -42 2 -64 q0 -30 -1.5 -103.5t-1.5 -113.5v-28q-39 0 -77 -7q9 66 9 285q0 63 -10 77q-24 11 -65 13l-4 17q88 21 126 37q18 -32 22 -78z"/>
<glyph unicode="ί" glyph-name="iotatonos" horiz-adv-x="244" d="M99 460l-22 15q24 44 45.5 101t28.5 90l77 -9q-13 -35 -54.5 -99t-74.5 -98zM259 51l9 -11q-29 -20 -74 -48q-19 -6 -39 -6q-42 0 -61.5 28.5t-19.5 91.5q0 46 1.5 130t1.5 107q0 46 -1 66q39 3 78 10q-13 -184 -13 -284q0 -54 14 -73t45 -19q24 0 59 8z"/>
<glyph unicode="ΰ" glyph-name="upsilondieresistonos" horiz-adv-x="451" d="M217 460l-22 15q24 44 45.5 101t28.5 90l77 -9q-13 -35 -54.5 -99t-74.5 -98zM363 481l-44 34q31 43 47 76l53 -36q-22 -36 -56 -74zM128 487l-44 35q27 36 47 76l55 -36q-36 -52 -58 -75zM131 423q15 -27 23 -78q7 -53 7 -115q0 -64 2 -100q6 -93 75 -93q57 0 89.5 46.5 t32.5 122.5q0 109 -70 181l73 37l22 -7q31 -75 31 -179q0 -109 -47 -166q-72 -88 -154 -88q-58 0 -90 37t-34 105q-3 144 -3 151q-4 64 -14 79q-24 11 -65 13l-4 17q88 21 126 37z"/>
<glyph unicode="α" glyph-name="alpha" horiz-adv-x="537" d="M334 186q-14 62 -16 70q-14 58 -34.5 87t-59.5 29q-49 0 -71.5 -47t-22.5 -118t22 -117t65 -46q64 0 117 142zM534 54l8 -14q-9 -5 -38 -20t-49 -24.5t-27 -9.5q-24 0 -39 15q-23 23 -42 128q-63 -145 -154 -145q-63 0 -100 55.5t-37 148.5q0 75 31 124q28 44 75 76 t90 32q32 0 55.5 -11.5t38 -35t22 -43t14.5 -49.5l46 130l93 10l7 -18q-46 -29 -76 -75q-37 -56 -57 -107q11 -72 35 -132q16 -41 55 -41q15 0 49 6z"/>
<glyph unicode="β" glyph-name="beta" horiz-adv-x="489" d="M147 278v-200q65 -54 129 -54q50 0 81 38t31 110q0 73 -40.5 108.5t-101.5 35.5q-30 0 -49 -4q6 31 18 62h6q57 0 91.5 29t34.5 87q0 48 -27.5 74t-74.5 26q-53 0 -73.5 -34t-22.5 -94q-2 -55 -2 -184zM418 503q0 -57 -47 -102t-97 -54q87 0 139 -42t52 -121 q0 -83 -66.5 -141.5t-142.5 -58.5q-51 0 -111 26v-105q0 -73 8 -108q-33 -4 -73 -18l-10 11q10 95 10 446q0 39 -0.5 97.5t-0.5 75.5q0 110 40 146q38 34 80 58.5t64 24.5q75 0 115 -37.5t40 -97.5z"/>
<glyph unicode="γ" glyph-name="gamma" horiz-adv-x="474" d="M466 399q-31 -31 -63 -94q-81 -160 -128 -291q-27 -77 -35 -208q-39 -9 -84 -28l-12 15q46 104 46 207q0 77 -32.5 170t-61.5 140q-36 58 -92 58l-9 21q53 7 115 31q46 -47 87.5 -157.5t52.5 -193.5h4q41 89 85 219q20 60 29 121q44 0 86 6z"/>
<glyph unicode="δ" glyph-name="delta" horiz-adv-x="472" d="M136 201q0 -65 37.5 -116.5t94.5 -51.5q50 0 79 42.5t29 104.5q0 92 -124 207q-36 -22 -66 -52q-50 -50 -50 -134zM457 607q-9 -41 -29 -80q-134 74 -198 74q-18 0 -28.5 -10t-10.5 -24q0 -30 105 -127q76 -70 112.5 -121.5t36.5 -113.5q0 -76 -41 -128 q-26 -34 -71.5 -63.5t-88.5 -29.5q-80 0 -132 59t-52 144q0 86 61 149q38 39 103 78q-94 88 -94 130q0 21 14 36q19 22 50 40t49 18q112 0 214 -31z"/>
<glyph unicode="ε" glyph-name="epsilon" horiz-adv-x="402" d="M339 330q-18 16 -53.5 32t-67.5 16q-34 0 -57.5 -17t-23.5 -51q0 -39 31.5 -58t80.5 -19q39 0 81 8v-7q0 -27 -4 -55q-44 10 -99 10q-40 0 -70 -18.5t-30 -50.5q0 -42 41.5 -61t100.5 -19q61 0 109 19l6 -19q-29 -19 -71.5 -37.5t-70.5 -18.5q-81 0 -134 27t-53 90 q0 48 38.5 78.5t84.5 32.5q-111 20 -111 90q0 49 53.5 83.5t110.5 34.5q89 0 138 -20q-7 -34 -30 -70z"/>
<glyph unicode="ζ" glyph-name="zeta" horiz-adv-x="374" d="M64 193q0 90 52 181.5t131 151.5q31 24 65 40q-44 -13 -134 -13q-45 0 -71 4l-8 15l19 51q66 -15 159 -15q50 0 102 5l9 -46q-88 -33 -160 -120q-89 -106 -89 -242q0 -68 30 -103.5t102 -58.5q35 -11 51 -18t29 -23t13 -41q0 -53 -27 -122l-93 -12l-6 20q31 18 53.5 43 t22.5 45q0 18 -15 27t-57 20q-95 26 -136.5 72.5t-41.5 138.5z"/>
<glyph unicode="η" glyph-name="eta" horiz-adv-x="474" d="M160 345q28 17 45 29q71 46 90 46q51 0 96 -37q43 -34 43 -118q-1 -48 -4 -165t-4 -184q0 -60 3 -90q-27 -2 -77 -16l-10 13q21 156 21 430q0 104 -88 104q-40 0 -115 -47q2 -42 2 -64q0 -30 -1.5 -103.5t-1.5 -113.5v-28q-39 0 -77 -7q9 66 9 285q0 63 -10 77 q-24 11 -65 13l-4 17q88 21 126 37q18 -32 22 -78z"/>
<glyph unicode="θ" glyph-name="theta" horiz-adv-x="474" d="M242 550q-63 0 -88 -60.5t-25 -172.5q42 -2 116 -2t116 2q-3 105 -32 169t-87 64zM251 34q109 0 111 237q-57 3 -106 3q-58 0 -127 -3q4 -105 36 -171t86 -66zM256 600q91 0 134.5 -77t43.5 -192q0 -85 -25.5 -164.5t-73 -131t-105.5 -51.5q-85 0 -130 82t-45 199 q0 133 62 234t139 101z"/>
<glyph unicode="ι" glyph-name="iota" horiz-adv-x="244" d="M260 51l9 -11q-29 -20 -74 -48q-19 -6 -39 -6q-42 0 -61.5 28.5t-19.5 91.5q0 46 1.5 130t1.5 107q0 46 -1 66q39 3 78 10q-13 -184 -13 -284q0 -54 14 -73t45 -19q24 0 59 8z"/>
<glyph unicode="κ" glyph-name="kappa" horiz-adv-x="491" d="M445 335q-35 22 -63 22q-44 0 -116 -97q27 -79 80 -157q19 -27 35.5 -37t39.5 -10q19 0 57 7l8 -15q-113 -60 -134 -60q-27 0 -37 13q-18 21 -45 87.5t-46 123.5q-64 -89 -69 -97q0 -41 2 -115q-39 0 -77 -7q7 51 7 287q0 80 -3 126q36 4 82 15q-7 -34 -9 -111 q-2 -84 -2 -132q42 59 112 146q77 96 129 96q35 0 69 -8q-5 -38 -20 -77z"/>
<glyph unicode="λ" glyph-name="lambda" horiz-adv-x="468" d="M480 53l8 -15q-103 -53 -122 -53q-29 0 -39 13q-17 23 -44 113q-14 47 -59 222q-86 -251 -101 -333l-110 -6l-8 17q48 21 82 86q58 112 118 299l-25 87q-9 33 -18 47t-26 14q-30 0 -89 -34q-20 35 -27 74q46 11 95 11q11 0 16 -1q22 -2 58.5 -27.5t45.5 -45.5 q11 -26 23.5 -66.5t29 -100t24.5 -85.5q29 -100 53 -157q15 -36 32 -49t48 -13q15 0 35 3z"/>
<glyph unicode="μ" glyph-name="uni03BC" horiz-adv-x="503" d="M82 -3q-4 88 -4 233q0 111 -3 167q5 1 20.5 4.5t29 7t25.5 8.5q-5 -72 -5 -181q0 -59 6 -109q3 -31 26.5 -55.5t61.5 -24.5q26 0 60.5 16t58.5 33v122q0 103 -3 187q58 6 76 9q-4 -44 -4 -108v-180q0 -41 9.5 -60.5t36.5 -19.5q8 0 24 2t18 2l8 -13q-98 -52 -107 -52 q-27 0 -37 11q-12 13 -20 66q-11 -5 -76 -47q-47 -31 -65 -31q-25 0 -51 16t-40 36q1 -91 34 -165q14 -32 49 -52l-6 -17q-36 -5 -97 -23q-16 56 -25 218z"/>
<glyph unicode="ν" glyph-name="nu" horiz-adv-x="459" d="M244 -1l-35 -8q-23 70 -65 173t-61 140q-18 36 -35 49q-12 9 -39 9l-9 21q53 7 115 31q31 -53 61 -131q51 -138 72 -209q56 105 81 221q14 68 14 114q42 0 84 6l12 -16q-20 -23 -49 -99q-73 -192 -146 -301z"/>
<glyph unicode="ξ" glyph-name="xi" horiz-adv-x="406" d="M58 144q0 74 56.5 118.5t126.5 55.5q-70 7 -114.5 37t-44.5 84q0 49 41 80.5t105 45.5q-53 -5 -93 -5q-41 0 -66 5l-10 14l21 50q77 -21 191 -21q51 0 98 5l10 -53q-91 -4 -125 -12q-97 -24 -97 -96q0 -48 40 -74t100 -26q41 0 63 3v-7q0 -27 -8 -57q-24 2 -34 2 q-27 0 -62 -5q-50 -7 -88.5 -40t-38.5 -85q0 -58 38 -81.5t125 -41.5q49 -10 71.5 -26.5t22.5 -52.5q0 -51 -28 -122l-94 -15l-7 20q33 17 56 44t23 49q0 18 -15.5 26.5t-58.5 16.5q-35 7 -59.5 13t-54 18.5t-47.5 28.5t-30.5 43t-12.5 61z"/>
<glyph unicode="ο" glyph-name="omicron" horiz-adv-x="465" d="M129 225q0 -80 37 -136t102 -56q51 0 75 42t24 103q0 82 -36.5 139t-95.5 57q-51 0 -78.5 -44t-27.5 -105zM245 420q90 0 142.5 -58.5t52.5 -138.5q0 -92 -41 -146q-24 -33 -67.5 -63t-80.5 -30q-88 0 -142 62t-54 148q0 72 49 136q23 31 65 60.5t76 29.5z"/>
<glyph unicode="π" glyph-name="pi" horiz-adv-x="549" d="M529 35q-75 -42 -76 -43q-19 -6 -39 -6q-78 0 -78 113q0 71 20 253q-45 0 -147 2q-5 -242 -26 -353l-114 -10l-9 14q52 30 68 106q28 130 34 244q-19 1 -45 1q-23 0 -30 -4q-8 -3 -19.5 -20.5t-19.5 -35.5l-18 5l30 110q22 3 72 3q14 0 123 -1.5t146 -1.5q90 0 112 15 l11 -11q-16 -24 -30 -58q-12 -2 -92 -5q-4 -72 -4 -127q0 -167 52 -175q18 -3 35 -3q13 0 33 3z"/>
<glyph unicode="ρ" glyph-name="rho" horiz-adv-x="473" d="M148 87q69 -54 121 -54q46 0 73 50.5t27 115.5q0 74 -30.5 121t-85.5 47q-50 0 -75.5 -39.5t-27.5 -97.5q-2 -55 -2 -143zM145 15v-110q0 -73 8 -108q-41 -5 -78 -18l-10 11q12 119 12 398q0 108 45 149q39 35 87 59t77 24q74 0 117 -57.5t43 -137.5q0 -85 -51 -145 q-82 -96 -145 -96q-45 0 -105 31z"/>
<glyph unicode="ς" glyph-name="sigma1" horiz-adv-x="395" d="M225 -173l-9 20q31 15 56.5 40.5t25.5 47.5q0 20 -17.5 32.5t-70.5 36.5q-155 69 -155 202q0 70 36 119q24 32 70 63.5t78 31.5q83 0 131 -23q-17 -42 -38 -67q-66 45 -107 45q-43 0 -69.5 -42t-26.5 -108q0 -57 28.5 -95t88.5 -68q59 -30 79.5 -49t20.5 -56 q0 -50 -30 -115z"/>
<glyph unicode="σ" glyph-name="sigma" horiz-adv-x="501" d="M295 359h-31q-19 0 -29 -1q-106 -7 -106 -140q0 -78 39 -131.5t92 -53.5t77.5 48t24.5 112q0 111 -67 166zM394 414q64 0 92 14l10 -11q-16 -26 -29 -58q-18 -3 -67 -3q-33 0 -50 1q87 -59 87 -154q0 -68 -44 -127q-25 -33 -70.5 -62.5t-86.5 -29.5q-79 0 -130 61 t-51 141q0 76 37 124q34 45 82.5 75.5t93.5 30.5q23 0 69.5 -1t56.5 -1z"/>
<glyph unicode="τ" glyph-name="tau" horiz-adv-x="434" d="M383 63l11 -16q-10 -6 -46.5 -27t-53.5 -30q-19 -6 -39 -6q-97 0 -97 125q0 99 36 245q-29 2 -77 2q-23 0 -30 -4q-8 -3 -19.5 -20.5t-19.5 -35.5l-18 5l30 110q15 2 72 2q21 0 94.5 -1.5t89.5 -1.5q62 0 92 15l11 -11q-17 -26 -30 -57q-30 -5 -87 -5q-41 0 -63 1 q-15 -96 -15 -157q0 -135 59 -145q6 -1 19 -1q29 0 81 13z"/>
<glyph unicode="υ" glyph-name="upsilon" horiz-adv-x="451" d="M131 423q15 -27 23 -78q7 -53 7 -115q0 -64 2 -100q6 -93 75 -93q57 0 89.5 46.5t32.5 122.5q0 109 -70 181l73 37l22 -7q31 -75 31 -179q0 -109 -47 -166q-72 -88 -154 -88q-58 0 -90 37t-34 105q-3 144 -3 151q-4 64 -14 79q-24 11 -65 13l-4 17q88 21 126 37z"/>
<glyph unicode="φ" glyph-name="phi" horiz-adv-x="672" d="M567 209q0 81 -54 127t-127 49v-97q0 -94 2 -266q87 8 133 56t46 131zM142 202q0 -81 52 -127.5t133 -52.5q2 134 2 182q0 75 -2 179q-79 -4 -132 -51t-53 -130zM322 -219l-9 11q14 78 14 192q-113 2 -187.5 57t-74.5 159q0 88 70 151t191 71q-4 108 -9 154q42 9 77 24 q-7 -63 -7 -177q47 -2 91 -15t82 -38t61 -66t23 -93q0 -101 -76.5 -160.5t-178.5 -66.5q0 -123 10 -183q-49 -10 -77 -20z"/>
<glyph unicode="χ" glyph-name="chi" horiz-adv-x="481" d="M265 167q49 -132 86 -207q14 -28 28.5 -39.5t35.5 -11.5q17 0 52 7l9 -15q-106 -58 -128 -58q-26 0 -36 13q-16 22 -34 72q-23 60 -55 155q-75 -144 -106 -227q-62 -4 -99 -11l-6 15q42 25 74 72q71 105 118 199q-51 118 -87 183q-30 54 -83 54l-11 21q71 10 120 31 q55 -85 104 -211q59 126 116 207q24 -3 50 -3q16 0 42 2l5 -16q-36 -16 -63.5 -40.5t-58.5 -70.5q-42 -60 -73 -121z"/>
<glyph unicode="ψ" glyph-name="psi" horiz-adv-x="627" d="M305 -219l-9 11q14 77 14 193q-97 2 -156.5 49.5t-66.5 132.5q-3 35 -3 106q0 66 -12 83q-24 11 -65 13l-4 17q73 14 128 37q23 -42 24 -101q2 -116 3 -134q11 -135 152 -152q2 66 2 183q0 217 -12 357q42 9 77 24q-8 -148 -8 -310q0 -173 2 -255q159 13 159 171 q0 109 -70 181l72 37l22 -7q33 -79 33 -186q0 -97 -48 -153q-66 -79 -167 -92q0 -131 10 -185q-49 -10 -77 -20z"/>
<glyph unicode="ω" glyph-name="omega" horiz-adv-x="668" d="M313 280q40 16 79 17q-10 -80 -10 -148q0 -122 86 -122q92 0 92 157q0 70 -25 127.5t-74 83.5l14 21q163 -62 163 -229q0 -91 -51 -147t-120 -56q-71 0 -119 79q-67 -79 -139 -79q-74 0 -111.5 49.5t-37.5 130.5q0 58 22.5 111t61.5 85q53 44 104 60l11 -32 q-52 -21 -86 -74.5t-34 -130.5q0 -70 23.5 -113t65.5 -43q91 0 91 145q0 64 -6 108z"/>
<glyph unicode="ϊ" glyph-name="iotadieresis" horiz-adv-x="244" d="M189 473l-44 34q31 43 47 76l53 -36q-22 -36 -56 -74zM40 476l-44 35q27 36 47 76l55 -36q-36 -52 -58 -75zM259 51l9 -11q-29 -20 -74 -48q-19 -6 -39 -6q-42 0 -61.5 28.5t-19.5 91.5q0 46 1.5 130t1.5 107q0 46 -1 66q39 3 78 10q-13 -184 -13 -284q0 -54 14 -73 t45 -19q24 0 59 8z"/>
<glyph unicode="ϋ" glyph-name="upsilondieresis" horiz-adv-x="451" d="M311 473l-44 34q31 43 47 76l53 -36q-22 -36 -56 -74zM162 476l-44 35q27 36 47 76l55 -36q-36 -52 -58 -75zM131 423q15 -27 23 -78q7 -53 7 -115q0 -64 2 -100q6 -93 75 -93q57 0 89.5 46.5t32.5 122.5q0 109 -70 181l73 37l22 -7q31 -75 31 -179q0 -109 -47 -166 q-72 -88 -154 -88q-58 0 -90 37t-34 105q-3 144 -3 151q-4 64 -14 79q-24 11 -65 13l-4 17q88 21 126 37z"/>
<glyph unicode="ό" glyph-name="omicrontonos" horiz-adv-x="465" d="M229 460l-22 15q24 44 45.5 101t28.5 90l77 -9q-13 -35 -54.5 -99t-74.5 -98zM129 225q0 -80 37 -136t102 -56q51 0 75 42t24 103q0 82 -36.5 139t-95.5 57q-51 0 -78.5 -44t-27.5 -105zM245 420q90 0 142.5 -58.5t52.5 -138.5q0 -92 -41 -146q-24 -33 -67.5 -63 t-80.5 -30q-88 0 -142 62t-54 148q0 72 49 136q23 31 65 60.5t76 29.5z"/>
<glyph unicode="ύ" glyph-name="upsilontonos" horiz-adv-x="451" d="M224 460l-22 15q24 44 45.5 101t28.5 90l77 -9q-13 -35 -54.5 -99t-74.5 -98zM131 423q15 -27 23 -78q7 -53 7 -115q0 -64 2 -100q6 -93 75 -93q57 0 89.5 46.5t32.5 122.5q0 109 -70 181l73 37l22 -7q31 -75 31 -179q0 -109 -47 -166q-72 -88 -154 -88q-58 0 -90 37 t-34 105q-3 144 -3 151q-4 64 -14 79q-24 11 -65 13l-4 17q88 21 126 37z"/>
<glyph unicode="ώ" glyph-name="omegatonos" horiz-adv-x="668" d="M343 460l-22 15q24 44 45.5 101t28.5 90l77 -9q-13 -35 -54.5 -99t-74.5 -98zM313 280q40 16 79 17q-10 -80 -10 -148q0 -122 86 -122q92 0 92 157q0 70 -25 127.5t-74 83.5l14 21q163 -62 163 -229q0 -91 -51 -147t-120 -56q-71 0 -119 79q-67 -79 -139 -79 q-74 0 -111.5 49.5t-37.5 130.5q0 58 22.5 111t61.5 85q53 44 104 60l11 -32q-52 -21 -86 -74.5t-34 -130.5q0 -70 23.5 -113t65.5 -43q91 0 91 145q0 64 -6 108z"/>
<glyph unicode="Ѐ" glyph-name="uni0400" horiz-adv-x="527" d="M317 679l-12 -21q-46 15 -109 40t-84 40l61 42q58 -55 144 -101zM483 166l19 -1q-15 -85 -45 -169q-74 6 -184 6q-113 0 -232 -5l8 25q16 2 37 8t29 12q8 19 8 55v432q0 27 -8 37q-16 12 -61 16l-9 29q55 -4 160 -4q134 0 232 11q4 -129 8 -177l-13 -1q-27 74 -44 109 q-5 11 -12 12q-17 4 -81 4q-84 0 -94 -7q-4 -10 -4 -49v-167q17 -1 66 -1q67 0 97 3l24 56l13 -2q-3 -45 -3 -76q0 -56 5 -92l-14 -1l-30 65q-46 2 -97 2q-45 0 -62 -1v-202q0 -29 5 -42q45 -6 116 -6q35 0 69 2q34 4 41 15q25 33 56 104z"/>
<glyph unicode="Ё" glyph-name="afii10023" horiz-adv-x="527" d="M332 646l-44 34q31 43 47 76l53 -36q-22 -36 -56 -74zM183 649l-44 35q27 36 47 76l55 -36q-36 -52 -58 -75zM483 166l19 -1q-15 -85 -45 -169q-74 6 -184 6q-113 0 -232 -5l8 25q16 2 37 8t29 12q8 19 8 55v432q0 27 -8 37q-16 12 -61 16l-9 29q55 -4 160 -4 q134 0 232 11q4 -129 8 -177l-13 -1q-27 74 -44 109q-5 11 -12 12q-17 4 -81 4q-84 0 -94 -7q-4 -10 -4 -49v-167q17 -1 66 -1q67 0 97 3l24 56l13 -2q-3 -45 -3 -76q0 -56 5 -92l-14 -1l-30 65q-46 2 -97 2q-45 0 -62 -1v-202q0 -29 5 -42q45 -6 116 -6q35 0 69 2 q34 4 41 15q25 33 56 104z"/>
<glyph unicode="Ђ" glyph-name="afii10051" horiz-adv-x="691" d="M308 289v-160q0 -80 5 -131q-29 3 -71 3q-56 0 -93 -4l9 27q38 5 69 22q10 21 10 100v335q0 66 -5 81q-32 5 -78 5q-34 0 -51 -3q-12 -22 -47 -142l-22 -2q3 44 3 112q0 35 -2 83q99 -9 243 -9q112 0 277 11q-27 -91 -47 -186l-21 -2q-2 93 -9 135q-21 4 -78 4 q-62 0 -88 -6q-4 -12 -4 -88v-148q87 16 149 16q188 0 188 -155q0 -81 -58.5 -138t-145.5 -57q-51 0 -78 12l13 79l11 5q38 -57 85 -57q40 0 68.5 35.5t28.5 93.5q0 139 -160 139q-52 0 -101 -10z"/>
<glyph unicode="Ѓ" glyph-name="afii10052" horiz-adv-x="490" d="M190 656l-12 19q69 38 139 99l62 -38q-42 -30 -189 -80zM467 427h-25q-14 52 -45 116q-4 14 -11 15q-27 5 -91 5q-73 0 -91 -6q-6 -7 -6 -47v-420q0 -30 4 -40q25 -19 88 -28l-11 -25q-60 6 -103 6q-63 0 -120 -5l5 24q41 7 57 22q6 20 6 53v410q0 43 -8 57 q-22 11 -66 16l-9 29q45 -3 133 -3q175 0 282 11q2 -88 11 -190z"/>
<glyph unicode="Є" glyph-name="afii10053" horiz-adv-x="594" d="M352 24q83 0 124 32q31 39 68 113l11 -8q-21 -78 -34 -157q-80 -20 -198 -20q-126 0 -205 83.5t-79 238.5q0 105 55 179q38 49 113.5 94t125.5 45q105 0 203 -42q-3 -54 -3 -102q0 -46 1 -70l-15 -4q-25 82 -40 114q-65 52 -167 52q-85 0 -137 -69.5t-54 -174.5 q26 -1 103 -1q146 0 198 4q-5 -34 -12 -50h-287q8 -115 68 -186t161 -71z"/>
<glyph unicode="Ѕ" glyph-name="afii10054" horiz-adv-x="486" d="M418 593l-6 -148h-23q-24 67 -35 83q-12 16 -46 30.5t-80 14.5q-31 0 -61 -31.5t-30 -74.5q0 -38 36 -66t100 -56q42 -19 63 -30t51 -32t43.5 -45.5t13.5 -54.5q0 -77 -62 -138.5t-134 -61.5q-44 0 -102 8t-88 20q5 70 5 125q0 31 -1 46l26 4q5 -28 17 -69t20 -52 q38 -40 128 -40q53 0 88 35.5t35 84.5q0 41 -35.5 68t-105.5 58q-38 17 -61.5 29.5t-51.5 33.5t-41.5 46.5t-13.5 56.5q0 48 63 116.5t108 68.5q74 0 180 -29z"/>
<glyph unicode="І" glyph-name="afii10055" horiz-adv-x="316" d="M123 114v415q0 28 -8 38q-19 12 -65 16l-9 30q51 -5 130 -5q53 0 97 3l5 -28q-56 -5 -71 -17q-6 -12 -6 -44v-428q0 -39 4 -48q23 -15 93 -24l-11 -23q-63 3 -113 3q-51 0 -124 -3l8 26q44 5 62 20q8 21 8 69z"/>
<glyph unicode="Ї" glyph-name="afii10056" horiz-adv-x="321" d="M240 656l-44 34q31 43 47 76l53 -36q-22 -36 -56 -74zM91 659l-44 35q27 36 47 76l55 -36q-36 -52 -58 -75zM128 114v415q0 28 -8 38q-19 12 -65 16l-9 30q51 -5 130 -5q54 0 97 3l5 -28q-56 -5 -71 -17q-6 -12 -6 -44v-428q0 -39 4 -48q23 -15 93 -24l-11 -23 q-63 3 -113 3t-124 -3l8 26q44 5 62 20q8 21 8 69z"/>
<glyph unicode="Ј" glyph-name="afii10057" horiz-adv-x="303" d="M198 520v-375q0 -106 -3 -153q-4 -72 -36 -117q-50 -70 -126 -142l-17 24q68 84 92 171q15 58 15 185v414q0 30 -8 38q-21 12 -65 16l-8 30q51 -5 133 -5q36 0 94 2l6 -27q-57 -5 -72 -17q-5 -13 -5 -44z"/>
<glyph unicode="Љ" glyph-name="afii10058" horiz-adv-x="910" d="M654 34q59 0 94 32t35 90q0 60 -31 97.5t-72.5 50t-95.5 12.5q-50 0 -96 -8l49 -162q22 -74 44 -93q23 -19 73 -19zM58 123q10 -22 29 -40.5t33 -18.5q21 0 38.5 27.5t41.5 88.5q66 163 110 328q7 28 7 35q0 12 -10 18q-34 16 -76 19l-11 32q35 -5 88 -5q57 0 100 4 q14 -72 25 -113q22 -87 43 -152q70 17 145 17q45 0 84.5 -7.5t77 -26t59.5 -54.5t22 -87q0 -75 -56 -132.5t-140 -57.5q-12 0 -63 1.5t-72 1.5q-64 0 -137 -4l8 28q51 11 69 23q5 4 5 12t-6 27l-123 425q-29 -133 -69.5 -259.5t-75.5 -174.5q-26 -34 -68.5 -64t-64.5 -30 q-16 0 -37.5 12.5t-32.5 26.5q16 43 57 100z"/>
<glyph unicode="Њ" glyph-name="afii10059" horiz-adv-x="936" d="M568 293v-147q0 -58 8 -85q2 -5 4 -7q20 -21 92 -21q60 0 99 34t39 98q0 63 -49 97.5t-131 34.5q-34 0 -62 -4zM494 336v186q0 31 -7 41q-17 13 -68 18l-8 28q102 -3 117 -3q22 0 103 3l5 -27q-47 -4 -63 -15q-6 -20 -6 -65v-172q58 6 109 6q213 0 213 -152 q0 -81 -59.5 -133.5t-148.5 -52.5q-39 0 -80 2q-14 1 -56 1q-44 0 -116 -2l7 25q40 8 51 22q7 15 7 67v178h-299v-206q0 -26 4 -39q26 -15 84 -24l-8 -23q-42 3 -96 3q-53 0 -121 -4l5 25q40 8 53 21q5 17 5 47v436q0 28 -8 40q-22 13 -65 15l-7 30q72 -5 137 -5q35 0 85 2 l4 -26q-49 -5 -65 -16q-7 -15 -7 -72v-159h299z"/>
<glyph unicode="Ћ" glyph-name="afii10060" horiz-adv-x="749" d="M327 288v-161q0 -71 5 -76q21 -18 96 -29l-7 -24q-45 4 -120 4q-81 0 -134 -5l9 27q40 4 66 22q10 15 10 100v324q0 75 -3 93q-30 2 -73 2t-73 -2q-12 -24 -47 -143l-22 -3q3 45 3 113q0 35 -2 83q101 -8 261 -8q136 0 276 11q-28 -97 -46 -187l-21 -2q-2 77 -9 136 q-28 3 -79 3q-60 0 -87 -3q-3 -21 -3 -93v-144q99 21 155 21q77 0 126.5 -30.5t53.5 -98.5q1 -18 1 -66q0 -79 8 -111q19 -13 65 -18l-10 -25q-43 4 -94 4q-40 0 -107 -5l10 27q43 6 49 16q5 18 5 71q0 32 -2 58q-4 75 -38 106t-94 31q-47 0 -128 -18z"/>
<glyph unicode="Ќ" glyph-name="afii10061" horiz-adv-x="635" d="M265 656l-12 19q69 38 139 99l62 -38q-42 -30 -189 -80zM194 104q0 -47 5 -57q28 -19 87 -25l-9 -23q-76 2 -118 2q-60 0 -104 -4l6 25q34 4 53 20q6 15 6 62v399q0 53 -9 63q-23 12 -67 17l-9 29q62 -5 111 -5q65 0 111 5l8 -27q-39 -3 -65 -20q-6 -24 -6 -84v-164h35 q65 0 88 12q31 15 59 111q23 79 43 111q13 20 48 45t56 25q39 0 64 -14q0 -39 -16 -89q-38 33 -74 33q-18 0 -30 -21q-12 -22 -24 -60q-34 -113 -88 -155q98 -182 166 -243q29 -26 87 -28l-9 -29q-44 0 -123 -23l-12 4q-66 97 -158 283q-45 -4 -112 -4v-171z"/>
<glyph unicode="Ѝ" glyph-name="uni040d" horiz-adv-x="713" d="M426 679l-12 -21q-46 15 -109 40t-84 40l61 42q58 -55 144 -101zM203 561q-8 -20 -8 -123v-274l326 345q0 43 -5 51q-10 8 -35.5 14t-45.5 6l-9 29q46 -3 114 -3q66 0 127 3l7 -26q-49 -6 -69 -21q-10 -14 -10 -76v-370q0 -53 6 -68q25 -15 86 -25l-10 -25q-55 4 -105 4 q-46 0 -116 -6l6 26q32 6 52 22q8 21 8 102v310l-326 -350q0 -41 6 -56q12 -13 89 -27l-14 -26q-58 5 -105 5q-68 0 -125 -7l8 28q27 1 58 22q8 26 8 71v361q0 64 -13 84q-21 15 -73 19l-11 29q55 -3 121 -3q69 0 126 3l6 -28q-48 -3 -74 -20z"/>
<glyph unicode="Ў" glyph-name="afii10062" horiz-adv-x="598" d="M484 787q-25 -64 -73.5 -99t-102.5 -35q-34 0 -66 21t-45 56l62 40q35 -65 87 -65q33 0 64.5 26.5t51.5 69.5zM243 588q-22 -3 -53 -13q-21 -7 -21 -18q0 -5 3 -11q35 -82 165 -335q33 62 71 156t58 162q6 20 6 27t-6 10q-17 9 -66 16l-7 30q57 -6 104 -6q44 0 87 6 l7 -26q-47 -9 -66 -47q-17 -33 -41 -96q-36 -91 -56.5 -141t-55 -117.5t-65.5 -106.5q-29 -37 -73 -65.5t-65 -28.5q-18 0 -40.5 13.5t-33.5 27.5q16 44 55 98q7 -20 29 -40.5t39 -20.5q40 0 78 81q-21 46 -111 215t-101 185q-22 31 -66 40l-11 28q48 -5 118 -5q51 0 109 6z "/>
<glyph unicode="Џ" glyph-name="afii10145" horiz-adv-x="681" d="M564 494v-348q0 -77 8 -101q16 -12 76 -19l-11 -29q-29 4 -115 4q-96 0 -125 -3q-7 -16 -16.5 -85.5t-12.5 -124.5l-31 -4q-3 44 -12 117t-16 95q-25 5 -103 5q-101 0 -151 -6l6 27q35 4 51 17q9 16 9 86v390q0 36 -8 52q-18 12 -60 16l-9 26q88 -2 117 -2q62 0 96 2 l6 -23q-47 -6 -61 -15q-7 -22 -7 -79v-347q0 -62 5 -100h283q6 31 6 122v338q0 46 -6 62q-21 13 -66 17l-7 25q94 -2 115 -2q26 0 96 2l5 -24q-36 -4 -57 -16q-5 -23 -5 -75z"/>
<glyph unicode="А" glyph-name="afii10017" horiz-adv-x="636" d="M298 541l-88 -244h179zM478 74l-73 183h-211l-74 -193q-3 -9 -3 -16q0 -20 102 -27l-11 -24q-65 5 -104 5q-46 0 -99 -5l8 25q40 7 54 36q18 34 111 270.5t105 282.5l59 9q25 -81 117.5 -306.5t106.5 -247.5q23 -36 79 -44l-11 -24q-60 5 -117 5q-49 0 -117 -6l8 25 q77 6 77 24q0 12 -7 28z"/>
<glyph unicode="Б" glyph-name="afii10018" horiz-adv-x="568" d="M195 291v-145q0 -53 7 -81q3 -11 10 -15q25 -16 94 -16q60 0 96.5 32.5t36.5 99.5t-50 98.5t-125 31.5q-39 0 -69 -5zM195 501v-170q50 5 100 5q222 0 222 -153q0 -79 -56.5 -132.5t-144.5 -53.5q-32 0 -87 3q-36 2 -62 2q-59 0 -113 -4l5 24q39 7 57 22q5 17 5 53v410 q0 44 -7 57q-27 15 -68 19l-7 26q44 -3 132 -3q180 0 286 11q3 -109 11 -190h-25q-30 87 -46 121q-4 14 -11 15q-20 4 -85 4q-78 0 -102 -8q-4 -13 -4 -58z"/>
<glyph unicode="В" glyph-name="afii10019" horiz-adv-x="548" d="M199 565q-6 -19 -6 -61v-174h20q75 0 120.5 32.5t45.5 101.5q0 111 -110 111q-57 0 -70 -10zM193 296v-146q0 -52 5 -77q3 -15 11 -23q17 -15 70 -15q142 0 142 140q0 61 -49 92t-116 31q-35 0 -63 -2zM43 612q45 -6 91 -6q21 0 65 2q25 3 74 3q180 0 180 -128 q0 -64 -36.5 -104t-87.5 -55q172 -13 172 -144q0 -83 -53 -132.5t-155 -49.5q-18 0 -54 2q-50 2 -76 2q-65 0 -122 -6l5 27q40 3 64 25q9 22 9 110v310q0 72 -10 96q-20 17 -60 19z"/>
<glyph unicode="Г" glyph-name="afii10020" horiz-adv-x="490" d="M467 427h-25q-14 52 -45 116q-4 14 -11 15q-27 5 -91 5q-73 0 -91 -6q-6 -7 -6 -47v-420q0 -30 4 -40q25 -19 88 -28l-11 -25q-60 6 -103 6q-63 0 -120 -5l5 24q41 7 57 22q6 20 6 53v410q0 43 -8 57q-22 11 -66 16l-9 29q45 -3 133 -3q175 0 282 11q2 -88 11 -190z"/>
<glyph unicode="Д" glyph-name="afii10021" horiz-adv-x="675" d="M164 45h321l-147 462q-80 -246 -174 -462zM595 -211l-27 -1q0 140 -6 212h-429q-14 -25 -36 -90t-36 -126l-25 -3q6 108 6 216v48h68q25 29 103 225t94 264q2 7 2 12q0 9 -7 14q-29 15 -74 20l-11 32q32 -6 84 -6q46 0 99 5q9 -56 25 -113q36 -130 86 -277t69 -177h85 q-45 -134 -70 -255z"/>
<glyph unicode="Е" glyph-name="afii10022" horiz-adv-x="527" d="M483 166l19 -1q-15 -85 -45 -169q-74 6 -184 6q-113 0 -232 -5l8 25q16 2 37 8t29 12q8 19 8 55v432q0 27 -8 37q-16 12 -61 16l-9 29q55 -4 160 -4q134 0 232 11q4 -129 8 -177l-13 -1q-27 74 -44 109q-5 11 -12 12q-17 4 -81 4q-84 0 -94 -7q-4 -10 -4 -49v-167 q17 -1 66 -1q67 0 97 3l24 56l13 -2q-3 -45 -3 -76q0 -56 5 -92l-14 -1l-30 65q-46 2 -97 2q-45 0 -62 -1v-202q0 -29 5 -42q45 -6 116 -6q35 0 69 2q34 4 41 15q25 33 56 104z"/>
<glyph unicode="Ж" glyph-name="afii10024" horiz-adv-x="962" d="M451 113v162q-71 0 -116 4q-92 -186 -158 -283l-10 -4q-75 20 -133 22l7 31q55 2 83 26q58 51 162 244q-46 36 -88 155q-14 42 -27 64q-10 17 -27 17q-36 0 -72 -33q-16 41 -18 89q25 14 65 14q20 0 56 -25t48 -45q16 -26 42 -111q28 -95 60 -111q23 -12 89 -12h37v167 q0 64 -6 81q-13 13 -64 16l-9 30q60 -4 111 -4t103 4l6 -26q-43 -4 -65 -18q-6 -15 -6 -79v-171h35q65 0 89 12q33 16 60 111q24 85 42 111q12 20 47.5 45t55.5 25q39 0 66 -14q-2 -45 -19 -89q-36 33 -71 33q-16 0 -28 -17q-15 -27 -28 -64q-14 -40 -22 -60t-26 -49.5 t-38 -45.5q94 -177 165 -243q27 -26 88 -28l-11 -29q-41 0 -123 -23l-11 4q-70 105 -158 283q-45 -4 -113 -4v-160q0 -56 6 -69q38 -20 81 -24l-9 -25q-36 3 -114 3t-110 -3l9 27q41 7 61 22q6 18 6 67z"/>
<glyph unicode="З" glyph-name="afii10025" horiz-adv-x="515" d="M98 433l-23 128q29 16 100.5 38.5t110.5 22.5q74 0 118.5 -33.5t44.5 -95.5q0 -48 -27.5 -86.5t-59 -57.5t-61.5 -26q34 -3 60 -10t52 -22t40.5 -44t14.5 -70q0 -87 -70.5 -140t-175.5 -53q-89 0 -156 30q6 48 6 101q0 23 -2 65l28 5q17 -90 33 -121q35 -38 111 -38 q62 0 103 31.5t41 101.5q0 66 -43 98t-114 32q-37 0 -82 -5q4 22 14 48h25q41 0 77 8q41 8 73.5 49t32.5 85q0 47 -35.5 73.5t-88.5 26.5q-57 0 -93 -17q-19 -43 -31 -121z"/>
<glyph unicode="И" glyph-name="afii10026" horiz-adv-x="713" d="M203 561q-8 -20 -8 -123v-274l326 345q0 43 -5 51q-10 8 -35.5 14t-45.5 6l-9 29q46 -3 114 -3q66 0 127 3l7 -26q-49 -6 -69 -21q-10 -14 -10 -76v-370q0 -53 6 -68q25 -15 86 -25l-10 -25q-55 4 -105 4q-46 0 -116 -6l6 26q32 6 52 22q8 21 8 102v310l-326 -350 q0 -41 6 -56q12 -13 89 -27l-14 -26q-58 5 -105 5q-68 0 -125 -7l8 28q27 1 58 22q8 26 8 71v361q0 64 -13 84q-21 15 -73 19l-11 29q55 -3 121 -3q69 0 126 3l6 -28q-48 -3 -74 -20z"/>
<glyph unicode="Й" glyph-name="afii10027" horiz-adv-x="713" d="M529 787q-25 -64 -73.5 -99t-102.5 -35q-34 0 -66 21t-45 56l62 40q35 -65 87 -65q33 0 64.5 26.5t51.5 69.5zM203 561q-8 -20 -8 -123v-274l326 345q0 43 -5 51q-10 8 -35.5 14t-45.5 6l-9 29q46 -3 114 -3q66 0 127 3l7 -26q-49 -6 -69 -21q-10 -14 -10 -76v-370 q0 -53 6 -68q25 -15 86 -25l-10 -25q-55 4 -105 4q-46 0 -116 -6l6 26q32 6 52 22q8 21 8 102v310l-326 -350q0 -41 6 -56q12 -13 89 -27l-14 -26q-58 5 -105 5q-68 0 -125 -7l8 28q27 1 58 22q8 26 8 71v361q0 64 -13 84q-21 15 -73 19l-11 29q55 -3 121 -3q69 0 126 3 l6 -28q-48 -3 -74 -20z"/>
<glyph unicode="К" glyph-name="afii10028" horiz-adv-x="635" d="M194 104q0 -47 5 -57q28 -19 87 -25l-9 -23q-76 2 -118 2q-60 0 -104 -4l6 25q34 4 53 20q6 15 6 62v399q0 53 -9 63q-23 12 -67 17l-9 29q62 -5 111 -5q65 0 111 5l8 -27q-39 -3 -65 -20q-6 -24 -6 -84v-164h35q65 0 88 12q31 15 59 111q23 79 43 111q13 20 48 45t56 25 q39 0 64 -14q0 -39 -16 -89q-38 33 -74 33q-18 0 -30 -21q-12 -22 -24 -60q-34 -113 -88 -155q98 -182 166 -243q29 -26 87 -28l-9 -29q-44 0 -123 -23l-12 4q-66 97 -158 283q-45 -4 -112 -4v-171z"/>
<glyph unicode="Л" glyph-name="afii10029" horiz-adv-x="693" d="M62 123q10 -22 29 -40.5t34 -18.5q21 0 40 28.5t43 87.5q78 193 112 328q6 21 6 33q0 15 -10 19q-36 17 -74 20l-11 32q34 -5 87 -5q58 0 101 4q8 -46 24 -113q22 -84 79 -250t75 -195q26 -19 93 -29l-14 -25q-58 3 -122 3q-60 0 -135 -5l7 27q53 11 70 23q6 5 6 14 q0 12 -10 43l-134 404q-30 -132 -71.5 -257t-78.5 -173q-26 -34 -68.5 -64t-64.5 -30q-16 0 -37.5 12.5t-32.5 26.5q20 49 57 100z"/>
<glyph unicode="М" glyph-name="afii10030" horiz-adv-x="859" d="M65 585l-7 28q78 -4 120 -4q9 0 19.5 0.5t23.5 1.5t21 1l196 -507l196 504q24 -1 68 -1q42 0 97 3l7 -27q-65 -7 -79 -19q-7 -17 -7 -52q0 -39 21 -417q2 -37 12 -49q11 -8 94 -24l-11 -26q-57 5 -110 5q-51 0 -136 -5l9 27q46 7 63 23q7 14 7 56q0 89 -21 420l-203 -518 l-39 -17l-220 560q-5 -77 -13 -253t-8 -209q0 -28 4 -41q36 -16 91 -23l-9 -23q-31 2 -98 2q-44 0 -110 -2l5 23q38 6 57 20q6 19 8 48q21 267 21 439q0 33 -7 40q-16 9 -62 16z"/>
<glyph unicode="Н" glyph-name="afii10031" horiz-adv-x="704" d="M513 336v186q0 25 -7 41q-19 13 -68 18l-8 28q99 -3 117 -3q20 0 101 3l6 -27q-46 -5 -62 -15q-6 -20 -6 -65v-408q0 -31 5 -46q19 -15 87 -24l-10 -25q-50 3 -110 3q-56 0 -111 -3l7 25q41 8 52 22q7 26 7 67v178h-318v-206q0 -26 4 -39q18 -14 84 -24l-8 -23 q-42 3 -96 3q-53 0 -121 -4l5 25q40 8 53 21q5 17 5 47v436q0 28 -8 40q-22 13 -65 15l-7 30q72 -5 137 -5q35 0 85 2l4 -26q-49 -5 -65 -16q-7 -15 -7 -72v-159h318z"/>
<glyph unicode="О" glyph-name="afii10032" horiz-adv-x="668" d="M348 37q93 0 149.5 81t56.5 187q0 108 -68.5 185.5t-160.5 77.5t-151 -74.5t-59 -175.5q0 -111 70.5 -196t162.5 -85zM346 624q128 0 206.5 -82t78.5 -201q0 -125 -59 -208q-43 -59 -115 -104t-135 -45q-110 0 -196 83.5t-86 207.5q0 112 54 187q43 62 116.5 112 t135.5 50z"/>
<glyph unicode="П" glyph-name="afii10033" horiz-adv-x="691" d="M499 117v351q0 78 -9 88q-15 4 -141 4q-134 0 -147 -4q-7 -22 -7 -93v-338q0 -66 8 -81q25 -16 73 -22l-7 -24q-46 3 -95 3q-64 0 -120 -4l9 26q32 4 54 21q4 16 4 70v387q0 51 -6 66q-21 12 -64 15l-9 27q208 -4 309 -4q104 0 280 4l6 -24q-40 -2 -59 -16 q-5 -20 -5 -102v-356q0 -48 6 -66q24 -15 80 -24l-8 -23q-47 3 -105 3q-56 0 -106 -3l3 24q30 7 50 22q6 17 6 73z"/>
<glyph unicode="Р" glyph-name="afii10034" horiz-adv-x="523" d="M200 567q-6 -19 -6 -68v-349q0 -77 10 -98q6 -10 40.5 -18.5t61.5 -8.5l-13 -26q-51 3 -106 3q-71 0 -146 -6l6 26q47 2 64 26q8 18 8 116v331q0 56 -6 72q-14 12 -63 17l-8 30q50 -5 103 -5q13 0 28.5 0.5t34.5 1.5t30 1q18 1 49 1q95 0 150 -35t55 -109 q0 -90 -62.5 -142t-157.5 -52q-21 0 -26 1l3 28q75 0 116.5 39t41.5 115q0 67 -34 92t-99 25q-64 0 -74 -8z"/>
<glyph unicode="С" glyph-name="afii10035" horiz-adv-x="613" d="M124 323q0 -124 69 -211t174 -87q78 0 128 31q32 38 69 113l11 -8q-25 -92 -38 -157q-90 -20 -182 -20q-84 0 -154.5 35t-116.5 111t-46 181q0 98 53 169q38 51 114.5 97.5t127.5 46.5q53 0 114.5 -13.5t97.5 -28.5q-2 -61 -2 -172l-14 -4q-34 101 -40 115 q-64 51 -177 51q-85 0 -136.5 -74.5t-51.5 -174.5z"/>
<glyph unicode="Т" glyph-name="afii10036" horiz-adv-x="608" d="M57 426l-23 -1q2 60 2 103q0 61 -1 90q101 -13 271 -13q159 0 270 13q-30 -106 -45 -191l-22 -1q-5 75 -11 134q-45 5 -112 5q-31 0 -57 -2v-465q0 -40 6 -45q25 -21 99 -31l-11 -24q-55 5 -115 5q-76 0 -139 -6l11 27q49 7 68 23q8 9 8 51v465q-34 2 -63 2q-55 0 -90 -3 q-30 -79 -46 -136z"/>
<glyph unicode="У" glyph-name="afii10037" horiz-adv-x="598" d="M243 588q-22 -3 -53 -13q-21 -7 -21 -18q0 -5 3 -11q35 -82 165 -335q33 62 71 156t58 162q6 20 6 27t-6 10q-17 9 -66 16l-7 30q57 -6 104 -6q44 0 87 6l7 -26q-47 -9 -66 -47q-17 -33 -41 -96q-36 -91 -56.5 -141t-55 -117.5t-65.5 -106.5q-29 -37 -73 -65.5t-65 -28.5 q-18 0 -40.5 13.5t-33.5 27.5q16 44 55 98q7 -20 29 -40.5t39 -20.5q40 0 78 81q-21 46 -111 215t-101 185q-22 31 -66 40l-11 28q48 -5 118 -5q51 0 109 6z"/>
<glyph unicode="Ф" glyph-name="afii10038" horiz-adv-x="683" d="M115 322q0 -92 50.5 -142t138.5 -50v384q-75 0 -132 -52t-57 -140zM564 335q0 91 -57.5 134.5t-131.5 43.5v-384q87 1 138 57.5t51 148.5zM39 318q0 94 69 158.5t196 64.5q0 35 -8 52q-26 11 -65 11l-8 28q31 -2 110 -2q77 0 104 2l5 -26q-35 -2 -62 -12q-5 -9 -5 -53 q266 0 266 -209q0 -106 -77 -168.5t-189 -62.5q0 -47 6 -60q30 -16 81 -19l-8 -23q-92 2 -110 2q-61 0 -112 -2l7 23q33 4 56 16q9 18 9 65q-129 0 -197 50.5t-68 164.5z"/>
<glyph unicode="Х" glyph-name="afii10039" horiz-adv-x="646" d="M367 317q136 -196 186 -244q41 -38 91 -47l-9 -27q-47 4 -99 4q-44 0 -145 -7l8 26q33 4 54 13q11 3 11 11t-9 20l-139 192q-82 -104 -139 -188q-5 -7 -5 -12q0 -6 6 -9q35 -18 101 -27l-11 -24q-67 5 -121 5q-55 0 -125 -5l6 29q36 3 66.5 30t77.5 84q51 62 119 154 q-156 220 -204 262q-18 17 -56 25l-13 30q35 -5 108 -5q80 0 135 6l9 -25q-45 -7 -65 -17q-8 -4 -8 -10q0 -3 3 -9q13 -24 60.5 -91t81.5 -110q33 40 86.5 111t65.5 90q2 4 2 6q0 7 -8 10q-25 9 -66 17l-12 27q70 -5 110 -5q56 0 97 4l7 -24q-26 -6 -58 -31t-57 -55 q-62 -76 -142 -184z"/>
<glyph unicode="Ц" glyph-name="afii10040" horiz-adv-x="675" d="M561 44h94q-40 -115 -69 -255l-27 -1q0 132 -6 208q-81 5 -240 5q-110 0 -258 -5l6 26q37 4 53 20q7 16 7 49v424q0 36 -8 52q-18 12 -60 16l-9 26q88 -2 117 -2q62 0 96 2l6 -23q-47 -6 -61 -15q-7 -22 -7 -79v-369q0 -41 5 -78h275q5 23 5 73v387q0 46 -6 62 q-22 13 -67 17l-7 25q92 -2 115 -2q25 0 97 2l4 -24q-36 -4 -57 -16q-5 -23 -5 -75v-357q0 -62 7 -93z"/>
<glyph unicode="Ч" glyph-name="afii10041" horiz-adv-x="641" d="M529 568q-5 -22 -5 -73v-390q0 -48 8 -61q13 -12 65 -22l-9 -24q-58 3 -106 3q-57 0 -126 -4l8 27q45 4 78 24q8 20 8 69v167q-110 -47 -197 -47q-144 0 -152 141q-1 13 -1 48v79q0 43 -8 62q-12 9 -57 16l-10 28q58 -5 98 -5q47 0 105 6l8 -25q-38 -4 -57 -18 q-5 -30 -5 -120q0 -46 3 -64q13 -96 115 -96q60 0 158 32v184q0 42 -6 60q-17 13 -67 19l-6 25q63 -3 101 -3q55 0 111 5l4 -25q-38 -4 -58 -18z"/>
<glyph unicode="Ш" glyph-name="afii10042" horiz-adv-x="950" d="M833 490v-370q0 -62 9 -75q25 -16 74 -21l-9 -27q-152 4 -405 4q-278 0 -447 -6l6 26q38 6 53 21q7 17 7 49v424q0 35 -7 52q-16 12 -60 14l-9 28q67 -3 107 -3q39 0 98 3l5 -25q-34 -4 -53 -15q-7 -21 -7 -77v-334q0 -85 7 -113h237q4 43 4 102v359q0 44 -7 61 q-18 12 -60 16l-8 26q68 -3 108 -3t99 3l5 -24q-37 -5 -58 -17q-6 -22 -6 -66v-356q0 -55 4 -100h232q6 33 6 93v366q0 55 -6 63q-19 12 -65 15l-8 28q61 -4 115 -4q59 0 93 2l7 -24q-39 -4 -57 -14q-4 -30 -4 -81z"/>
<glyph unicode="Щ" glyph-name="afii10043" horiz-adv-x="956" d="M864 -211l-26 -1q-2 139 -6 211q-184 2 -330 2q-278 0 -447 -6l6 26q38 6 53 21q7 17 7 49v424q0 35 -7 52q-16 12 -60 14l-9 28q67 -3 107 -3q39 0 98 3l5 -25q-34 -4 -53 -15q-7 -21 -7 -77v-334q0 -85 7 -113h237q4 43 4 102v359q0 44 -7 61q-18 12 -60 16l-8 26 q68 -3 108 -3t99 3l5 -24q-37 -5 -58 -17q-6 -22 -6 -66v-356q0 -55 4 -100h232q6 33 6 93v366q0 55 -6 63q-19 12 -65 15l-8 28q61 -4 115 -4q59 0 93 2l7 -24q-39 -4 -57 -14q-4 -30 -4 -81v-345q0 -80 9 -101h93q-45 -130 -71 -255z"/>
<glyph unicode="Ъ" glyph-name="afii10044" horiz-adv-x="695" d="M328 296v-150q0 -51 6 -81q3 -10 11 -15q25 -16 91 -16q59 0 95.5 33t36.5 99q0 68 -48.5 102t-123.5 34q-32 0 -68 -6zM328 504v-168q44 6 108 6q91 0 151.5 -37.5t60.5 -121.5q0 -80 -55.5 -133t-142.5 -53q-34 0 -88 3q-36 2 -61 2q-60 0 -114 -4l5 24q39 7 57 22 q5 10 5 52v416q0 36 -6 54q-23 5 -72 5q-50 0 -70 -6q-22 -38 -49 -138l-23 2q9 95 9 188q136 -10 241 -10q68 0 104 4l8 -26q-38 -4 -61 -16q-7 -15 -7 -65z"/>
<glyph unicode="Ы" glyph-name="afii10045" horiz-adv-x="805" d="M611 114v415q0 30 -7 38q-21 12 -66 16l-9 30q54 -5 130 -5q55 0 98 3l6 -28q-58 -5 -73 -17q-5 -13 -5 -44v-428q0 -38 3 -48q26 -16 94 -24l-12 -23q-62 3 -113 3q-49 0 -123 -3l7 26q45 6 63 20q7 23 7 69zM195 297v-151q0 -53 7 -81q3 -11 10 -15q25 -16 84 -16 q60 0 96.5 32.5t36.5 99.5q0 69 -45 103t-121 34q-41 0 -68 -6zM195 504v-168q45 6 108 6q90 0 148 -37t58 -122q0 -80 -55.5 -133t-142.5 -53q-27 0 -82 3q-36 2 -62 2q-59 0 -113 -4l5 24q39 7 57 22q5 10 5 52v412q0 47 -5 60q-23 12 -68 16l-7 28q70 -5 122 -5 q53 0 93 4l6 -26q-31 -3 -62 -14q-5 -21 -5 -67z"/>
<glyph unicode="Ь" glyph-name="afii10046" horiz-adv-x="571" d="M195 296v-150q0 -53 7 -81q3 -11 10 -15q25 -16 98 -16q60 0 96.5 32.5t36.5 99.5q0 68 -51.5 102t-128.5 34q-32 0 -68 -6zM121 520q0 35 -5 48q-23 12 -68 16l-7 28q70 -5 122 -5q53 0 93 4l6 -26q-31 -3 -62 -14q-5 -13 -5 -54v-181q45 6 108 6q58 0 105 -13.5 t81.5 -50.5t34.5 -95q0 -80 -55.5 -133t-142.5 -53q-42 0 -97 3q-36 2 -62 2q-59 0 -113 -4l5 24q39 7 57 22q5 10 5 52v424z"/>
<glyph unicode="Э" glyph-name="afii10047" horiz-adv-x="598" d="M249 27q210 0 219 258h-283q3 20 14 50q36 -5 139 -5q62 0 132 2q-2 108 -49 176t-143 68q-42 0 -87 -13t-66 -27q-14 -37 -29 -120l-22 -3l-24 160q37 15 119 33t125 18q117 0 188.5 -73.5t71.5 -218.5q0 -168 -88 -258t-243 -90q-95 0 -155 20q-9 68 -32 157l28 2 q26 -71 57 -105q41 -31 128 -31z"/>
<glyph unicode="Ю" glyph-name="afii10048" horiz-adv-x="924" d="M607 36q65 0 112 40.5t68 99.5t21 129q0 110 -62.5 186.5t-153.5 76.5q-92 0 -149.5 -75.5t-57.5 -180.5q0 -109 65 -192.5t157 -83.5zM613 624q127 0 199.5 -81t72.5 -202q0 -126 -58 -208q-44 -60 -113 -105t-132 -45q-108 0 -188.5 88t-80.5 221h-119v-202 q0 -33 4 -45q29 -18 88 -23l-10 -24q-63 3 -120 3q-54 0 -112 -3l7 24q44 8 63 20q7 19 7 62v420q0 36 -7 45q-13 10 -69 16l-7 27q43 -5 118 -5q69 0 108 5l4 -25q-45 -5 -69 -18q-5 -13 -5 -56v-177h122q11 76 48 126q44 62 115.5 112t133.5 50z"/>
<glyph unicode="Я" glyph-name="afii10049" horiz-adv-x="604" d="M409 561q-28 14 -78 14q-63 0 -100 -36.5t-37 -96.5q0 -83 82 -125q32 -16 96 -16q22 0 44 3v211q0 37 -7 46zM416 114v148q-22 -3 -51 -3q-33 0 -56 3q-91 -207 -138 -274l-13 -6q-38 13 -137 29l12 30q54 0 83 25q64 57 134 212q-62 17 -102.5 57.5t-40.5 104.5 q0 91 66.5 132.5t162.5 41.5q5 0 77 -3q30 -3 66 -3q40 0 76 4l7 -27q-45 -6 -63 -17q-11 -27 -11 -84v-352q0 -65 16 -84q31 -19 88 -24l-13 -27q-52 4 -107 4q-73 0 -132 -6l6 27q14 1 33 8.5t27 14.5q10 21 10 69z"/>
<glyph unicode="а" glyph-name="afii10065" horiz-adv-x="423" d="M265 81v131q-36 -4 -72 -15q-88 -24 -88 -86q0 -27 16.5 -45.5t45.5 -18.5q20 0 51 12t47 22zM403 32l-5 -21q-68 -8 -119 -25q-9 23 -12 66q-6 -4 -21.5 -14t-20.5 -13q-64 -41 -94 -41q-41 0 -68 34t-27 76q0 51 26.5 76.5t90.5 44.5q34 10 112 28v63q0 42 -16.5 60.5 t-54.5 18.5q-19 0 -40.5 -5.5t-26.5 -10.5v-59q-40 -18 -61 -23q-5 5 -5 22q0 39 11 52q18 18 75 47t84 29q79 0 96 -75q2 -12 2 -37v-209q0 -55 11 -71q19 -11 63 -13z"/>
<glyph unicode="б" glyph-name="afii10066" horiz-adv-x="474" d="M253 35q54 0 81.5 50.5t27.5 118.5q0 74 -36 126.5t-101 52.5q-38 0 -71 -31t-43 -65q-4 -16 -4 -39q0 -86 39 -149.5t107 -63.5zM100 348q28 31 67.5 54t80.5 23q79 0 132.5 -54.5t53.5 -142.5q0 -97 -70 -166.5t-144 -69.5q-84 0 -135 73.5t-51 185.5q0 110 49.5 208 t134.5 135q24 10 50 10q2 0 44 -5q20 -3 33 -3q39 0 72 31l12 -16q-19 -34 -46.5 -59t-54.5 -25q-8 0 -19.5 2.5t-26 6t-21.5 4.5q-18 2 -25 2q-27 0 -46.5 -13.5t-44.5 -42.5q-38 -47 -45 -138z"/>
<glyph unicode="в" glyph-name="afii10067" horiz-adv-x="442" d="M166 393q-5 -15 -5 -39v-124q6 -1 25 -1q48 0 85.5 22t37.5 68q0 43 -26.5 63t-67.5 20q-38 0 -49 -9zM204 200q-15 0 -43 -2v-102q0 -38 9 -56q4 -6 23 -11t36 -5q44 0 72.5 20t28.5 64q0 92 -126 92zM375 341q0 -49 -35 -83t-66 -39q53 0 88.5 -22.5t35.5 -71.5 q0 -57 -44 -92.5t-109 -35.5q-17 0 -63 2q-38 2 -57 2q-52 0 -86 -5l5 24q31 4 42 16q8 15 8 63v230q0 42 -7 64q-23 12 -53 14l-6 23q41 -4 85 -4q27 0 40 1q69 3 73 3q149 0 149 -89z"/>
<glyph unicode="г" glyph-name="afii10068" horiz-adv-x="376" d="M26 403l-8 27q49 -4 136 -4q120 0 197 7q-2 -58 -2 -88q0 -40 1 -58l-21 -3q-25 83 -42 105q-24 4 -54 4q-41 0 -61 -4q-9 -17 -9 -62v-224q0 -43 4 -59q31 -17 87 -22l-7 -24q-53 5 -103 5q-48 0 -108 -5l4 22q35 8 50 21q5 14 5 56v225q0 48 -9 66q-12 10 -60 15z"/>
<glyph unicode="д" glyph-name="afii10069" horiz-adv-x="514" d="M131 35h221l-101 328q-55 -167 -120 -328zM427 -155v-1q-2 92 -12 154q-24 2 -159 2q-106 0 -141 -3q-32 -31 -54 -153l-27 -5v194h48q16 19 67.5 150.5t72.5 201.5q-14 14 -64 17l-7 27q48 -2 75 -2q25 0 79 2q4 -27 19 -80q41 -135 80 -245q18 -54 33 -70h59 q-27 -101 -39 -195z"/>
<glyph unicode="е" glyph-name="afii10070" horiz-adv-x="397" d="M203 389q-38 0 -70 -47t-32 -89q39 4 115.5 16t86.5 16q-1 34 -25 69t-75 35zM357 82l8 -24q-108 -74 -168 -74q-72 0 -118.5 66.5t-46.5 144.5q0 76 35 130q23 34 78 73.5t84 39.5q40 0 70.5 -19t45 -47.5t21 -53.5t6.5 -44q-11 -11 -31 -27q-93 -11 -241 -21 q0 -74 38 -127.5t95 -53.5q46 0 124 37z"/>
<glyph unicode="ж" glyph-name="afii10072" horiz-adv-x="687" d="M380 330v-102h24q37 0 54 5q11 5 17 12q24 27 37 77q13 52 26 68q11 15 35.5 31.5t41.5 16.5q30 0 46 -10q0 -44 -16 -74q-29 23 -50 23q-9 0 -16 -6q-14 -16 -23 -47q-23 -71 -59 -100q60 -119 120 -173q23 -19 55 -22l-5 -21q-56 -2 -102 -16q-55 77 -111 205 q-46 -2 -74 -2v-108q0 -39 7 -46q26 -18 64 -21l-6 -22q-49 4 -85 4q-48 0 -103 -4l5 23q30 4 50 21q4 20 4 56v97q-32 0 -74 2q-21 -43 -110 -205q-41 15 -113 15l9 24q32 1 54 22q63 61 117 169q-37 30 -60 100q-12 36 -22 47q-6 6 -14 6q-29 0 -52 -20q-13 28 -17 72 q19 11 47 11q17 0 43.5 -16.5t37.5 -31.5q6 -7 9.5 -16.5t8 -28.5t5.5 -23q12 -46 38 -77q8 -8 18 -12q16 -5 50 -5h25v98q0 48 -7 63q-14 12 -47 17l-7 24q46 -4 88 -4q18 0 86 5l9 -21q-38 -4 -53 -17q-5 -15 -5 -63z"/>
<glyph unicode="з" glyph-name="afii10073" horiz-adv-x="378" d="M65 298l-17 95q26 12 76 28.5t79 16.5q53 0 87 -23.5t34 -67.5q0 -48 -35 -79.5t-72 -40.5q30 0 55.5 -6.5t48 -31t22.5 -63.5q0 -60 -53 -101t-124 -41q-70 0 -126 25q4 38 4 117l24 4q12 -51 23 -74q33 -37 87 -37q40 0 68 22.5t28 69.5q0 92 -113 92q-22 0 -57 -5 q3 17 11 34q41 0 74 9q29 8 48.5 31.5t19.5 52.5q0 35 -26 53.5t-62 18.5q-39 0 -63 -13q-14 -28 -22 -81z"/>
<glyph unicode="и" glyph-name="afii10074" horiz-adv-x="541" d="M164 391q-6 -12 -6 -83v-183l223 239q0 22 -5 27q-7 5 -26 10t-33 5l-6 23q33 -2 97 -2q34 0 90 2l5 -22q-34 -4 -48 -14q-7 -11 -7 -50v-255q0 -33 5 -42q24 -16 73 -24l-9 -23q-45 3 -86 3q-54 0 -110 -4l6 24q30 5 48 22q6 27 6 66v205l-222 -238q0 -27 4 -35 q6 -6 30.5 -13.5t41.5 -9.5l-10 -22q-39 4 -86 4q-51 0 -101 -5l4 24q29 4 43 19q6 24 6 43v253q0 38 -9 58q-17 9 -58 13l-7 23q45 -3 97 -3q56 0 100 3l4 -23q-39 -4 -54 -15z"/>
<glyph unicode="й" glyph-name="afii10075" horiz-adv-x="541" d="M433 614q-25 -64 -73.5 -99t-102.5 -35q-34 0 -66 21t-45 56l62 40q35 -65 87 -65q33 0 64.5 26.5t51.5 69.5zM164 391q-6 -12 -6 -83v-183l223 239q0 22 -5 27q-7 5 -26 10t-33 5l-6 23q33 -2 97 -2q34 0 90 2l5 -22q-34 -4 -48 -14q-7 -11 -7 -50v-255q0 -33 5 -42 q24 -16 73 -24l-9 -23q-45 3 -86 3q-54 0 -110 -4l6 24q30 5 48 22q6 27 6 66v205l-222 -238q0 -27 4 -35q6 -6 30.5 -13.5t41.5 -9.5l-10 -22q-39 4 -86 4q-51 0 -101 -5l4 24q29 4 43 19q6 24 6 43v253q0 38 -9 58q-17 9 -58 13l-7 23q45 -3 97 -3q56 0 100 3l4 -23 q-39 -4 -54 -15z"/>
<glyph unicode="к" glyph-name="afii10076" horiz-adv-x="468" d="M457 29l-5 -21q-59 -2 -105 -16q-52 72 -112 205q-44 -2 -76 -2v-115q0 -28 6 -38q5 -6 30.5 -13.5t42.5 -9.5l-10 -22q-43 4 -91 4q-54 0 -97 -5l4 24q30 5 43 19q5 9 5 49v260q0 36 -6 45q-21 9 -50 12l-8 24q66 -2 99 -2q32 0 86 2l5 -23q-38 -4 -51 -13 q-6 -18 -6 -61v-105h25q38 0 52 6q12 4 18 12q25 28 38 77q13 52 26 68q9 15 34 31.5t42 16.5q28 0 47 -11q-2 -42 -18 -72q-29 23 -50 23q-5 0 -15 -6q-17 -20 -25 -49q-21 -70 -58 -99q25 -48 60.5 -98t62.5 -74q22 -19 57 -23z"/>
<glyph unicode="л" glyph-name="afii10077" horiz-adv-x="498" d="M47 90q26 -44 44 -44q13 0 25.5 16t33.5 65q17 41 42.5 117.5t34.5 121.5q2 12 2 14q0 6 -7 9q-21 11 -61 15l-7 25q29 -3 74 -3q47 0 80 3q8 -48 18 -79q17 -63 53.5 -175.5t48.5 -132.5q18 -12 66 -20l-10 -24q-68 5 -91 5q-37 0 -103 -6l8 25q27 4 44 16q4 4 4 8 t-8 31l-81 274q-21 -92 -52.5 -184t-50.5 -116q-14 -17 -46 -38.5t-49 -21.5q-14 0 -29.5 8.5t-23.5 19.5q14 35 41 71z"/>
<glyph unicode="м" glyph-name="afii10078" horiz-adv-x="618" d="M32 406l-6 23q57 -3 98 -3q32 0 51 1l134 -337l135 337q17 -1 55 -1q36 0 75 3l5 -22q-33 -3 -52 -14q-4 -24 -4 -71v-232q0 -39 7 -47q18 -13 72 -22l-9 -22q-53 3 -95 3q-41 0 -95 -3l3 23q26 5 45 22q5 15 5 66v265l-148 -371l-25 -12l-159 383v-296q0 -27 3 -38 q5 -4 34 -12.5t45 -10.5l-8 -19q-44 3 -78 3q-39 0 -84 -3l4 20q31 6 43 19q4 8 4 44v262q0 37 -6 46q-14 10 -49 16z"/>
<glyph unicode="н" glyph-name="afii10079" horiz-adv-x="537" d="M372 244v98q0 41 -5 49q-4 5 -23.5 10t-34.5 5l-6 23q64 -2 97 -2q35 0 89 2l6 -22q-41 -5 -48 -14q-7 -14 -7 -62v-251q0 -32 4 -39q22 -16 75 -22l-11 -22q-50 4 -91 4q-54 0 -96 -5l4 24q29 3 43 19q4 16 4 49v120h-218v-120q0 -35 4 -46q17 -15 71 -23l-11 -22 q-37 4 -85 4q-46 0 -96 -5l4 24q29 4 43 19q3 9 3 49v260q0 36 -6 45q-21 9 -50 12l-8 24q66 -2 98 -2q31 0 85 2l5 -23q-37 -4 -52 -13q-5 -20 -5 -61v-88h218z"/>
<glyph unicode="о" glyph-name="afii10080" horiz-adv-x="486" d="M104 233q0 -82 43 -143t115 -61q53 0 83 47.5t30 109.5q0 80 -42 144t-108 64q-54 0 -87.5 -49t-33.5 -112zM235 438q99 0 155 -62t56 -145q0 -95 -44 -153q-26 -34 -74.5 -64t-88.5 -30q-92 0 -148.5 63.5t-56.5 152.5q0 90 49 146q82 92 152 92z"/>
<glyph unicode="п" glyph-name="afii10081" horiz-adv-x="527" d="M366 91v225q0 59 -10 69q-18 3 -85 3q-83 0 -103 -3q-8 -9 -8 -72v-218q0 -38 5 -52q24 -16 76 -21l-8 -23q-45 3 -98 3q-7 0 -100 -3l6 23q30 4 46 18q5 13 5 50v247q0 45 -8 53q-16 9 -53 14l-10 25q121 -4 261 -4q98 0 208 3l8 -23q-35 -5 -57 -16q-5 -23 -5 -70v-226 q0 -42 5 -49q7 -5 33.5 -13t43.5 -10l-12 -22q-47 3 -92 3q-46 0 -103 -3l6 23q25 4 46 19q3 16 3 50z"/>
<glyph unicode="р" glyph-name="afii10082" horiz-adv-x="493" d="M148 329l-1 -255q60 -42 123 -42q51 0 81.5 50t30.5 126q0 70 -32.5 117t-88.5 47q-20 0 -59 -16t-54 -27zM144 6l1 -169q0 -24 6 -46q38 -19 96 -28l-10 -27q-57 3 -118 3q-43 0 -106 -3l6 27q35 7 56 25q5 16 5 45v452q0 61 -14 80q-11 8 -65 15l-6 20q80 14 138 39 q8 -36 14 -77q45 26 52 31q62 36 89 36q78 0 121.5 -57.5t43.5 -139.5q0 -101 -68.5 -174t-143.5 -73q-41 0 -97 21z"/>
<glyph unicode="с" glyph-name="afii10083" horiz-adv-x="387" d="M226 438q80 0 132 -23q-12 -43 -36 -72q-66 50 -105 50q-50 0 -83 -45.5t-33 -123.5q0 -75 37.5 -126.5t90.5 -51.5q63 0 123 36l5 -24q-34 -26 -81.5 -50t-83.5 -24q-70 0 -114 66.5t-44 145.5q0 83 40 135q27 35 74 71t78 36z"/>
<glyph unicode="т" glyph-name="afii10084" horiz-adv-x="459" d="M42 284l-28 -6q8 75 10 153q95 -5 203 -5q97 0 202 7q-12 -71 -22 -157l-25 8q-2 56 -13 101q-28 8 -99 8h-19v-301q0 -34 5 -45q25 -18 84 -27l-10 -23q-42 4 -102 4q-64 0 -112 -4l7 25q29 5 53 23q8 12 8 47v300h-43q-44 0 -60 -4q-19 -20 -39 -104z"/>
<glyph unicode="у" glyph-name="afii10085" horiz-adv-x="464" d="M402 343q-142 -316 -253 -614l-77 34q33 36 76 104.5t62 117.5l-115 318q-22 59 -40 73q-15 13 -34 15l-10 25q51 1 120 19q11 -61 36 -132l80 -231q49 109 119 286q4 9 4 15q0 7 -8 10q-27 10 -67 19l-7 21q13 -1 36 -1q64 0 119 9l5 -15q-25 -26 -46 -73z"/>
<glyph unicode="ф" glyph-name="afii10086" horiz-adv-x="660" d="M458 32q43 0 66 49.5t23 133.5q0 78 -29.5 125t-78.5 47q-29 0 -83 -31v-279q58 -45 102 -45zM195 390q-43 0 -67 -51.5t-24 -130.5q0 -77 30.5 -125.5t78.5 -48.5q31 0 81 32v279q-56 45 -99 45zM294 -136v165q-73 -46 -108 -46q-67 0 -107 57.5t-40 150.5 q0 100 44.5 170t126.5 70q31 0 84 -20h1v117q0 62 -9 69q-24 18 -82 20l-6 22q105 10 165 28q-8 -72 -8 -166v-108q83 46 110 46q66 0 108.5 -59t42.5 -151q0 -100 -46 -169t-130 -69q-34 0 -86 21v-148q0 -45 7 -59q35 -17 96 -28l-10 -27q-51 4 -118 4q-50 0 -105 -4l4 27 q42 10 60 25q6 18 6 62z"/>
<glyph unicode="х" glyph-name="afii10087" horiz-adv-x="474" d="M356 -9l-121 188l-90 -126q-4 -5 -4 -10t6 -8q18 -11 67 -18l-9 -19q-28 2 -85 2q-67 0 -99 -2l2 22q42 2 103 80l87 107q-107 154 -136 177q-12 11 -37 16l-6 20q67 5 110 11q65 -110 115 -179l91 127q4 5 4 7t-3 4q-15 7 -62 16l-4 20h46q67 0 109 5l6 -14 q-36 -26 -69 -69l-98 -122q86 -128 106 -152q36 -38 80 -49q-1 -1 -6 -20q-42 -1 -103 -14z"/>
<glyph unicode="ц" glyph-name="afii10088" horiz-adv-x="523" d="M425 34h73q-25 -86 -39 -195l-31 6q-2 102 -12 153q-47 2 -170 2q-142 0 -210 -5l4 27q31 4 44 15q7 12 7 57v251q0 35 -7 48q-18 9 -51 13l-8 24q62 -2 95 -2t87 2l8 -24q-34 -4 -51 -15q-6 -17 -6 -57v-220q0 -38 6 -78h181q6 15 6 76v231q0 35 -6 47q-23 11 -56 14 l-9 25q68 -2 102 -2q56 0 82 2l8 -25q-23 -2 -50 -14q-3 -9 -3 -74v-204q0 -53 6 -78z"/>
<glyph unicode="ч" glyph-name="afii10089" horiz-adv-x="501" d="M414 393q-5 -15 -5 -55v-252q0 -31 7 -43q6 -7 26 -14t35 -9l-10 -22q-47 3 -102 3q-58 0 -110 -4l7 25q49 7 72 25q8 18 8 49v95q-90 -37 -152 -37q-101 0 -110 90q-3 42 -3 63q0 71 -6 83q-20 13 -51 16l-7 23q48 -3 97 -3q25 0 74 4l8 -24q-30 -4 -46 -12 q-3 -24 -3 -64q0 -34 3 -67q8 -65 86 -65q51 0 106 24v123q0 34 -5 44q-12 11 -54 17l-8 23q27 -2 80 -2q50 0 98 3l7 -22q-28 -4 -42 -15z"/>
<glyph unicode="ш" glyph-name="afii10090" horiz-adv-x="707" d="M680 -3v-1q-148 4 -313 4q-185 0 -333 -5l5 26q29 3 46 16q6 12 6 49v254q0 40 -6 50q-25 13 -51 16l-8 25q51 -3 97 -3q27 0 81 2l4 -24q-21 -3 -45 -17q-4 -16 -4 -60v-228q0 -40 4 -64h156q3 23 3 63v250q0 32 -5 45q-17 8 -38 10l-7 24q45 -3 77 -3q31 0 70 3l5 -21 q-22 -4 -34 -12q-2 -16 -2 -45v-248q0 -13 0.5 -36.5t0.5 -29.5h153q5 17 5 74v235q0 29 -5 43q-17 12 -54 16l-7 24q31 -2 91 -2q30 0 88 2l5 -23q-32 -4 -47 -12q-4 -15 -4 -53v-254q0 -26 6 -46q20 -17 69 -21z"/>
<glyph unicode="щ" glyph-name="afii10091" horiz-adv-x="719" d="M614 -2q-82 2 -255 2q-186 0 -325 -5l5 26q29 3 46 16q6 12 6 49v254q0 40 -6 50q-25 13 -51 16l-8 25q51 -3 97 -3q27 0 81 2l4 -24q-21 -3 -45 -17q-4 -16 -4 -60v-228q0 -40 4 -64h156q3 23 3 63v250q0 32 -5 45q-17 8 -38 10l-7 24q45 -3 77 -3q31 0 70 3l5 -21 q-22 -4 -34 -12q-2 -16 -2 -45v-248q0 -13 0.5 -36.5t0.5 -29.5h155q4 17 4 74v235q0 30 -6 43q-16 12 -53 16l-7 24q62 -2 91 -2q31 0 87 2l6 -23q-32 -4 -47 -12q-4 -22 -4 -53v-242q0 -33 6 -65h76q-22 -71 -40 -195l-30 6q-2 84 -13 153z"/>
</font>
</defs>
</svg>
