<?xml version="1.0" encoding="UTF-8"?>
<svg width="10px" height="16px" viewBox="0 0 10 16" version="1.1" xmlns="http://www.w3.org/2000/svg" xmlns:xlink="http://www.w3.org/1999/xlink">
    <!-- Generator: Sketch 44.1 (41455) - http://www.bohemiancoding.com/sketch -->
    <title>Shape Copy</title>
    <desc>Created with Sketch.</desc>
    <defs></defs>
    <g id="Page-1" stroke="none" stroke-width="1" fill="none" fill-rule="evenodd">
        <g id="left-arrow-(4)2" transform="translate(12.000000, 8.500000) scale(-1, 1) translate(-12.000000, -8.500000) " fill-rule="nonzero" fill="#275788">
            <path d="M17.2,8.00028664 L23.2,2.00028664 C23.3770955,1.84914124 23.485341,1.63265025 23.5,1.40028664 C23.5067438,1.16267718 23.3941338,0.937457304 23.2,0.800286637 L22.7,0.300286637 C22.5108353,0.1186057 22.2620204,0.0119707436 22,0.00028663726 C21.7623905,-0.0064571223 21.5371707,0.106152816 21.4,0.300286637 L14.3,7.40028664 C14.1111456,7.54192742 14,7.76421866 14,8.00028664 C14,8.23635461 14.1111456,8.45864585 14.3,8.60028664 L21.4,15.7002866 C21.5511454,15.8773821 21.7676364,15.9856276 22,16.0002866 C22.2376095,16.0070304 22.4628293,15.8944205 22.6,15.7002866 L23.1,15.2002866 C23.4010955,14.8569482 23.4010955,14.3436251 23.1,14.0002866 L17.2,8.00028664 Z" id="Shape-Copy" transform="translate(18.750143, 8.000287) scale(-1, 1) translate(-18.750143, -8.000287) "></path>
        </g>
    </g>
</svg>