<?xml version="1.0" encoding="UTF-8"?>
<svg width="10px" height="16px" viewBox="0 0 10 16" version="1.1" xmlns="http://www.w3.org/2000/svg" xmlns:xlink="http://www.w3.org/1999/xlink">
    <!-- Generator: Sketch 44.1 (41455) - http://www.bohemiancoding.com/sketch -->
    <title>Shape</title>
    <desc>Created with Sketch.</desc>
    <defs></defs>
    <g id="Page-1" stroke="none" stroke-width="1" fill="none" fill-rule="evenodd">
        <g id="left-arrow-(4)2" transform="translate(-2.000000, 8.500000) scale(-1, 1) translate(2.000000, -8.500000) translate(-14.000000, 0.000000)" fill-rule="nonzero" fill="#275788">
            <path d="M3.2,8 L9.2,2 C9.37709546,1.8488546 9.48534096,1.63236361 9.5,1.4 C9.50674376,1.16239054 9.39413382,0.937170667 9.2,0.8 L8.7,0.3 C8.51083534,0.118319063 8.26202044,0.0116841064 8,-1.73255507e-16 C7.76239054,-0.00674375956 7.53717067,0.105866179 7.4,0.3 L0.3,7.4 C0.111145618,7.54164079 0,7.76393202 0,8 C0,8.23606798 0.111145618,8.45835921 0.3,8.6 L7.4,15.7 C7.5511454,15.8770955 7.76763639,15.985341 8,16 C8.23760946,16.0067438 8.46282933,15.8941338 8.6,15.7 L9.1,15.2 C9.40109555,14.8566616 9.40109555,14.3433384 9.1,14 L3.2,8 Z" id="Shape"></path>
        </g>
    </g>
</svg>