<svg id="Capa_1" data-name="Capa 1" xmlns="http://www.w3.org/2000/svg" viewBox="0 0 612 612"><defs><style>.cls-1{fill:#21b22b;}</style></defs><title>speech-bubble-with-text</title><g id="Comments"><path class="cls-1" d="M153,229.5H459V153H153ZM535.5,0H76.5A76.48,76.48,0,0,0,0,76.5V420.75a76.48,76.48,0,0,0,76.5,76.5H325.13L497.25,612V497.25H535.5a76.48,76.48,0,0,0,76.5-76.5V76.5A76.48,76.48,0,0,0,535.5,0Zm0,382.5a38.26,38.26,0,0,1-38.25,38.25h-76.5v57.38l-95.62-57.37H114.75A38.26,38.26,0,0,1,76.5,382.5V114.75A38.26,38.26,0,0,1,114.75,76.5h382.5a38.26,38.26,0,0,1,38.25,38.25ZM153,344.25H459v-76.5H153Z" transform="translate(0 0)"/></g></svg>