<?xml version="1.0" encoding="UTF-8" standalone="no"?>
<!DOCTYPE svg  PUBLIC '-//W3C//DTD SVG 1.1//EN'  'http://www.w3.org/Graphics/SVG/1.1/DTD/svg11.dtd'>
<svg xmlns="http://www.w3.org/2000/svg">
<defs>
<font id="Vollkorn-Medium" horiz-adv-x="553">
<font-face underline-position="0" font-weight="500" descent="-200" panose-1="0 0 6 0 0 0 0 0 0 0" units-per-em="1000" unicode-range="U+0020-FB02" bbox="-19 -274 1156 938" x-height="460" underline-thickness="0" font-family="Vollkorn" ascent="800" cap-height="679"/>
<missing-glyph horiz-adv-x="1000"/>
<glyph glyph-name="fi" horiz-adv-x="676" unicode="fi" d="M640 -3q-40 3 -129 3q-82 0 -129 -3q0 31 6 53q28 2 42 9.5t20 25t6 51.5v172q0 30 -7 46t-28 25t-64 10q-32 0 -72.5 -4t-54.5 -8v-231q0 -53 14.5 -73t54.5 -23q6 -17 6 -53q-45 3 -127 3q-96 0 -140 -3q0 35 6 53q28 2 42 10t20 27t6 56v238q-14 5 -37 9t-41 4 q0 33 14 54h64v38q0 66 32 118.5t92.5 82t144.5 29.5q94 0 172 -33q-5 -42 -5 -104q-37 -20 -88 -20q-14 0 -21 1q-2 50 -22.5 73.5t-65.5 23.5q-65 0 -93 -34.5t-28 -105.5v-69h167q91 2 151 19q26 -11 26 -47v-283q0 -50 13 -67.5t47 -19.5q6 -17 6 -53z"/>
<glyph glyph-name="fl" horiz-adv-x="679" unicode="fl" d="M643 -3q-48 3 -129 3q-84 0 -130 -3q0 32 7 53q40 1 53.5 19t13.5 68v423q0 47 -30 71t-81 24q-58 0 -87.5 -32.5t-29.5 -105.5v-69h106q0 -37 -10 -56q-57 0 -96 -12v-219q0 -44 6 -66.5t21.5 -32.5t44.5 -12q6 -17 6 -53q-49 3 -131 3q-91 0 -139 -3q0 37 6 53 q28 2 42 10t20 27t6 57v240q-41 10 -78 10q0 35 14 54h64v37q0 76 36 128t95 77.5t129 25.5q31 0 61 -6.5t51 -16.5q44 9 67 24q25 -11 25 -47v-533q0 -50 13 -68t48 -19q6 -19 6 -53z"/>
<glyph glyph-name=".notdef" horiz-adv-x="1000"/>
<glyph glyph-name=".null" horiz-adv-x="0"/>
<glyph glyph-name="nonmarkingreturn" horiz-adv-x="333"/>
<glyph glyph-name="space" horiz-adv-x="200" unicode=" "/>
<glyph glyph-name="exclam" horiz-adv-x="411" unicode="!" d="M258 11.5q-20 -19.5 -51 -19.5q-33 0 -51.5 18t-18.5 48t21 49.5t53 19.5q30 0 48.5 -20t18.5 -44q0 -32 -20 -51.5zM238 231q-45 0 -61 8q-17 247 -44 440q28 5 64 15.5t56 20.5q21 -7 21 -31q0 -9 -1 -14q-26 -252 -35 -439z"/>
<glyph glyph-name="quotedbl" horiz-adv-x="362" unicode='&quot;' d="M302 672q-9 -64 -20 -213q-36 0 -50 10q-8 143 -20 223q38 5 67 23q11 -2 17 -10.5t6 -21.5v-11zM150 662q-9 -60 -17 -171l-3 -31q-13 0 -28 3t-20 8q-5 119 -22 221q41 5 69 23q12 -2 18 -12t5 -24z"/>
<glyph glyph-name="numbersign" horiz-adv-x="601" unicode="#" d="M245 440l-35 -174h154l36 174h-155zM459 440l-36 -174h111q0 -35 -13 -60h-96h-14l-43 -214q-39 4 -55 22l39 192l-154 -1l-44 -213q-37 3 -54 26l38 187l-111 -2q0 34 13 63h111l35 173l-108 -1q0 35 13 62h108l44 215q39 -4 54 -23l-39 -192h154l44 215q40 -5 54 -21 l-39 -194h103q0 -35 -13 -60h-71h-31z"/>
<glyph glyph-name="dollar" horiz-adv-x="538" unicode="$" d="M372 80q23 25 23 62q0 39 -24.5 66t-70.5 51l1 -210q48 6 71 31zM192 481.5q20 -25.5 56 -47.5v195q-37 -6 -56.5 -28t-19.5 -58t20 -61.5zM452 56.5q-52 -54.5 -151 -63.5l1 -82q-14 0 -31.5 3.5t-25.5 9.5v67q-53 2 -96 17t-92 45q10 57 10 149q29 8 72 8 q4 -73 28.5 -112t77.5 -48v236q-54 26 -90 50.5t-60.5 64.5t-24.5 98q0 81 47.5 128.5t130.5 55.5v64q35 0 57 -13l-1 -50q45 -2 84.5 -13.5t64.5 -27.5q0 -97 6 -139q-26 -13 -71 -13q-12 67 -32 98t-52 39q-1 -71 -1 -222q71 -35 107.5 -56.5t65 -61.5t28.5 -99 q0 -78 -52 -132.5z"/>
<glyph glyph-name="percent" horiz-adv-x="834" unicode="%" d="M569 74q20 -32 54 -32q23 0 42 27.5t19 76.5q0 50 -20 82t-51 32q-27 0 -45.5 -30t-18.5 -73q0 -51 20 -83zM732 39.5q-43 -48.5 -117 -48.5q-51 0 -86.5 22t-53.5 57t-18 75q0 45 19.5 82.5t57.5 60.5t92 23q47 0 81 -22t51 -57t17 -73q0 -71 -43 -119.5zM197.5 442 q20.5 -32 55.5 -32q24 0 44 27.5t20 75.5q0 49 -20.5 81t-52.5 32q-28 0 -47.5 -29t-19.5 -72q0 -51 20.5 -83zM386 442q-19 -38 -55 -60.5t-85 -22.5q-50 0 -86 21.5t-54 57t-18 74.5q0 44 19.5 82t57.5 60.5t91 22.5q47 0 80.5 -22t51 -57t17.5 -72q0 -46 -19 -84zM134 30 l551 656q32 -5 53 -29l-556 -664q-36 10 -48 37z"/>
<glyph glyph-name="ampersand" horiz-adv-x="759" unicode="&amp;" d="M370 81q30 13 59 42l-81 95q-36 41 -77 89q-24 30 -51 65q-52 -54 -52 -135t38.5 -125t96.5 -44q37 0 67 13zM638.5 80.5q21.5 -9.5 66.5 -12.5q0 -33 -9 -58q-32 0 -80.5 -6t-79.5 -13q-23 31 -69 87q-41 -46 -86.5 -67t-103.5 -21q-113 0 -168 61t-55 151 q0 134 137 216q-43 74 -43 148q0 41 20.5 75.5t63 55t103.5 20.5q47 0 82 -7.5t71 -25.5q-7 -36 -7 -90q0 -27 1 -40q-27 -9 -70 -9q-4 64 -23.5 91.5t-60.5 27.5q-31 0 -50.5 -21t-19.5 -57q0 -43 19 -83.5t75 -111.5q80 -101 151 -179q41 71 52 119q4 13 4 27 q0 22 -16.5 34t-56.5 20q-7 22 -7 49q43 -3 107 -3q63 0 101 3q0 -29 -5 -48q-31 -10 -45.5 -27t-24.5 -53q-21 -71 -71 -162l49 -53q27 -28 48.5 -37.5z"/>
<glyph glyph-name="quotesingle" horiz-adv-x="213" unicode="&apos;" d="M153 673q-10 -67 -20 -214q-36 0 -50 11q-5 117 -23 221q41 6 69 24q11 -2 17.5 -10.5t6.5 -20.5v-11z"/>
<glyph glyph-name="parenleft" horiz-adv-x="308" unicode="(" d="M167.5 512q-29.5 -111 -29.5 -265q0 -157 32.5 -280t99.5 -230q-12 -8 -34 -8h-10q-191 240 -191 511q0 136 44.5 253t141.5 248h3q22 0 40 -15q-67 -103 -96.5 -214z"/>
<glyph glyph-name="parenright" horiz-adv-x="308" unicode=")" d="M228.5 494.5q44.5 -115.5 44.5 -246.5q0 -279 -190 -519h-10q-23 0 -35 8q70 112 101 229t31 275q0 155 -29.5 269t-96.5 216q19 15 41 15h3q96 -131 140.5 -246.5z"/>
<glyph glyph-name="asterisk" horiz-adv-x="461" unicode="*" d="M389 566q12 -28 12 -64q0 -8 -2 -26q-63 9 -148 14q39 -63 82 -120q-34 -31 -83 -37q-8 52 -32 142q-41 -44 -91 -112q-43 26 -57 66q61 32 124 75q-57 26 -134 50q14 51 43 75q33 -33 110 -95q6 59 6 144q6 1 13 1q15 0 36 -4t37 -14q-29 -60 -57 -134q74 16 141 39z "/>
<glyph glyph-name="plus" horiz-adv-x="598" unicode="+" d="M531 231q-92 1 -203 1v-216q-8 -5 -26.5 -8t-35.5 -3q2 136 2 227q-79 0 -213 -2q0 41 11 63h202q0 111 -1 201q12 7 25 9t36 2v-212h214q0 -41 -11 -62z"/>
<glyph glyph-name="comma" horiz-adv-x="275" unicode="," d="M185 -82q-30 -58 -79 -104q-28 2 -45 19q65 73 65 126q0 43 -54 50q0 44 11 75q57 8 92 31q21 -8 30.5 -27t9.5 -55q0 -57 -30 -115z"/>
<glyph glyph-name="hyphen" horiz-adv-x="419" unicode="-" d="M346 233q-153 0 -286 -5q0 19 4.5 41t11.5 38h283q0 -45 -13 -74z"/>
<glyph glyph-name="period" horiz-adv-x="261" unicode="." d="M181 11.5q-20 -19.5 -51 -19.5q-33 0 -51.5 18t-18.5 48t21 49.5t53 19.5q30 0 48.5 -20t18.5 -44q0 -32 -20 -51.5z"/>
<glyph glyph-name="slash" horiz-adv-x="375" unicode="/" d="M32 15l260 699q13 -2 28.5 -9.5t25.5 -15.5l-259 -698q-37 6 -55 24z"/>
<glyph glyph-name="zero" horiz-adv-x="609" unicode="0" d="M176.5 172q21.5 -51 61.5 -84t92 -33q60 0 90.5 50t30.5 126q0 47 -20.5 98t-59 85t-89.5 34q-59 0 -93 -50t-34 -125q0 -50 21.5 -101zM536.5 116q-35.5 -60 -96 -92.5t-132.5 -32.5q-74 0 -136 32.5t-98.5 92.5t-36.5 139q0 78 38.5 135t100.5 86.5t132 29.5 q72 0 132 -29.5t96 -86.5t36 -135q0 -79 -35.5 -139z"/>
<glyph glyph-name="one" horiz-adv-x="395" unicode="1" d="M263 86.5q6 -19.5 20 -27.5t43 -9q5 -21 5 -53q-58 3 -133 3q-80 0 -134 -3q0 34 6 53q28 2 42.5 10t20.5 27.5t6 56.5v214q0 37 -6 56t-20.5 26.5t-42.5 9.5q-6 24 -6 53q48 -3 134 -3q85 0 133 3q0 -26 -5 -53q-28 -2 -42.5 -9.5t-20.5 -26.5t-6 -56v-214 q0 -38 6 -57.5z"/>
<glyph glyph-name="two" horiz-adv-x="528" unicode="2" d="M474 27q-12 -29 -40 -29q-116 2 -192 2q-94 0 -170 -2q-17 21 -17 57q73 69 162 145q58 51 78.5 85.5t20.5 74.5q0 44 -20 67.5t-59 23.5q-38 0 -58 -28.5t-30 -105.5q-41 0 -66 9q3 25 3 62q0 46 -5 70q73 48 185 48q82 0 128 -31t46 -97q0 -46 -25.5 -79.5t-95.5 -91.5 l-26 -22q-15 -14 -36.5 -32t-50.5 -44h123q32 0 46.5 4t20.5 15.5t9 39.5q38 0 58 -8q0 -82 11 -133z"/>
<glyph glyph-name="three" horiz-adv-x="512" unicode="3" d="M445 451q-88 -110 -168 -214h5q50 0 92 -21t67.5 -64t25.5 -103q0 -62 -32.5 -112t-94 -79t-144.5 -29q-49 0 -89 12.5t-64 33.5q2 25 20 43q42 -30 120 -30q40 0 76.5 17t59 49.5t22.5 77.5q0 54 -32.5 87.5t-93.5 33.5q-17 0 -32 -6q-9 9 -14.5 22t-5.5 24 q104 130 158 205h-109q-31 0 -46.5 -5t-26 -20t-21.5 -47q-35 0 -54 15q8 38 10 72.5t2 89.5q54 -3 183 -3q117 0 171 3q15 -17 15 -43v-9z"/>
<glyph glyph-name="four" horiz-adv-x="602" unicode="4" d="M327 354l-173 -252h173v252zM542 0h-95v-149q-25 0 -57.5 -7.5t-47.5 -14.5q-15 14 -15 42v129h-13q-127 0 -255 -6q-22 34 -22 65l339 447h12q32 0 59 -9v-395h77q26 0 38 -15q-20 -42 -20 -87z"/>
<glyph glyph-name="five" horiz-adv-x="481" unicode="5" d="M307 500q51 0 51 50q19 6 57 6q-7 -49 -7 -143q-9 -22 -46 -22q-172 0 -206 -3l-21 -88q150 -28 223 -83.5t73 -155.5q0 -73 -38.5 -125.5t-98.5 -79.5t-121 -27q-41 0 -72.5 8t-48.5 21q0 26 15 44q12 -6 37.5 -10t55.5 -4q62 0 103.5 39.5t41.5 105.5q0 69 -61.5 111 t-158.5 55q-19 16 -21 41l61 263q69 -3 182 -3z"/>
<glyph glyph-name="six" horiz-adv-x="529" unicode="6" d="M348.5 87q25.5 38 25.5 91t-19.5 87.5t-48.5 49.5t-60 15q-45 0 -86 -25q-3 -28 -3 -62q0 -68 18.5 -112t45.5 -63t54 -19q48 0 73.5 38zM440.5 346.5q51.5 -48.5 51.5 -134.5q0 -69 -31.5 -119t-83 -76t-110.5 -26q-113 0 -172.5 62.5t-59.5 186.5q0 139 60 227 t148 127.5t178 43.5q12 -15 11 -43q-118 -25 -182 -81.5t-84 -160.5q37 22 68.5 32t64.5 10q90 0 141.5 -48.5z"/>
<glyph glyph-name="seven" horiz-adv-x="481" unicode="7" d="M441.5 485.5q4.5 -10.5 5.5 -21.5q-91 -148 -146 -262q-40 -82 -54.5 -148.5t-14.5 -170.5q-63 -30 -95 -59q-23 4 -23 35q0 103 55 224.5t168 306.5h-136q-33 0 -51.5 -5t-30 -20t-20.5 -46q-36 0 -57 14q17 71 17 169q50 -2 180 -2q101 0 191 2q7 -6 11.5 -16.5z"/>
<glyph glyph-name="eight" horiz-adv-x="531" unicode="8" d="M337.5 69q23.5 24 23.5 65q0 46 -31 84.5t-100 80.5q-35 -28 -49 -58t-14 -79q0 -54 29 -85.5t78 -31.5q40 0 63.5 24zM211.5 449.5q21.5 -25.5 75.5 -55.5l8 -5q25 19 36 43.5t11 58.5q0 43 -21.5 69t-57.5 26q-34 0 -53.5 -20.5t-19.5 -55.5t21.5 -60.5zM449 267.5 q33 -45.5 33 -105.5q0 -81 -58 -126t-162 -45q-100 0 -156.5 41.5t-56.5 114.5q0 60 31.5 103.5t97.5 80.5q-55 36 -81.5 72t-26.5 81q0 70 51 111.5t141 41.5q89 0 142 -36t53 -99q0 -90 -110 -144q69 -45 102 -90.5z"/>
<glyph glyph-name="nine" horiz-adv-x="537" unicode="9" d="M381 186q3 24 3 50q0 109 -33 162t-92 53q-45 0 -73.5 -38.5t-28.5 -96.5q0 -83 42 -119t99 -36q44 0 83 25zM503 246q0 -127 -66 -217.5t-161 -139.5t-182 -59q-12 16 -12 47q121 40 192.5 102.5t96.5 151.5q-58 -38 -128 -38q-59 0 -106 24t-73.5 67t-26.5 99 q0 73 32.5 123.5t85.5 75t116 24.5q232 0 232 -260z"/>
<glyph glyph-name="colon" horiz-adv-x="264" unicode=":" d="M183 34.5q-20 -19.5 -51 -19.5q-33 0 -51.5 18t-18.5 48t21 49.5t53 19.5q30 0 48.5 -20t18.5 -44q0 -32 -20 -51.5zM181 326.5q-20 -19.5 -51 -19.5q-33 0 -51.5 18t-18.5 48t21 49.5t53 19.5q30 0 48.5 -20t18.5 -44q0 -32 -20 -51.5z"/>
<glyph glyph-name="semicolon" horiz-adv-x="278" unicode=";" d="M196 317.5q-20 -19.5 -51 -19.5q-33 0 -51.5 18t-18.5 48t21 49.5t53 19.5q30 0 48.5 -20t18.5 -44q0 -32 -20 -51.5zM186 -82q-30 -58 -79 -104q-28 2 -45 19q65 73 65 126q0 43 -54 50q0 44 11 75q57 8 92 31q21 -8 30.5 -27t9.5 -55q0 -57 -30 -115z"/>
<glyph glyph-name="less" horiz-adv-x="497" unicode="&lt;" d="M441 12q0 -33 -13 -49q-209 157 -372 267q-1 5 -1 16q0 26 14 46l332 267q36 -7 58 -32l-338 -268l318 -226q2 -12 2 -21z"/>
<glyph glyph-name="equal" horiz-adv-x="563" unicode="=" d="M495 140q-80 1 -207 1l-172 -1q-19 -1 -61 -1q0 39 12 60h440q0 -36 -12 -59zM496 310q-80 1 -206 1l-171 -1q-19 -1 -61 -1q0 41 12 60h438q0 -37 -12 -59z"/>
<glyph glyph-name="greater" horiz-adv-x="526" unicode="&gt;" d="M120 560l334 -268q12 -19 12 -44q0 -8 -2 -20q-179 -122 -370 -265q-15 18 -15 49q0 6 2 18l322 229l-342 271q21 24 59 30z"/>
<glyph glyph-name="question" horiz-adv-x="537" unicode="?" d="M332.5 11.5q-20.5 -19.5 -51.5 -19.5q-32 0 -50.5 18t-18.5 48t21 49.5t53 19.5q29 0 48 -20t19 -44q0 -32 -20.5 -51.5zM409 682q45 -33 45 -93q0 -45 -19 -78t-56 -74q-38 -43 -56.5 -75t-18.5 -77q0 -35 12 -73q-21 -11 -51 -11q-20 14 -35 49t-15 75q0 47 17.5 78 t50.5 67q27 30 40.5 53t13.5 53q0 40 -21 64t-50 24q-33 0 -52 -30t-27 -101q-44 0 -70 14q3 38 3 67q0 27 -3 57q74 44 169 44q78 0 123 -33z"/>
<glyph glyph-name="at" horiz-adv-x="998" unicode="@" d="M510 108q22 28 41 82t27 128l2 69q-38 26 -81 26q-45 0 -64.5 -40.5t-19.5 -140.5q0 -79 15 -115.5t40 -36.5q18 0 40 28zM855 -68q-45 -63 -134.5 -98.5t-196.5 -35.5q-137 0 -229 54.5t-137 151t-45 224.5q0 121 50.5 219.5t146.5 155.5t227 57q114 0 192.5 -40.5 t117.5 -110t39 -156.5q0 -103 -33.5 -186t-88 -129.5t-113.5 -46.5q-76 0 -76 98v49q-24 -69 -61.5 -108t-85.5 -39q-131 0 -131 209q0 77 25 138t69 95t99 34q54 0 99 -10q46 0 75 10q15 -6 19.5 -23.5t4.5 -72.5v-178q0 -53 2.5 -76t9 -30.5t22.5 -7.5q19 0 44 30.5 t42.5 89.5t17.5 140q0 75 -33 136.5t-101 98t-167 36.5q-110 0 -187 -48t-115.5 -133t-38.5 -193q0 -105 39 -192.5t118.5 -139.5t196.5 -52q85 0 157.5 27.5t123.5 83.5q26 -6 36 -31z"/>
<glyph glyph-name="A" horiz-adv-x="708" unicode="A" d="M352 408q-27 60 -46 119q-18 -58 -41 -119l-58 -152h210zM687 -3q-39 3 -126 3q-94 0 -131 -3q0 34 8 53q25 3 36.5 10t11.5 21q0 15 -14 46l-33 78q-155 0 -254 -5l-20 -52q-13 -33 -13 -55q0 -39 49 -43q8 -24 8 -53q-34 3 -102 3q-29 0 -86 -3q0 31 8 52 q26 5 40.5 25.5t39.5 80.5l208 522q21 5 49 5l234 -530q19 -42 31 -62.5t22.5 -29t26.5 -10.5q7 -24 7 -53z"/>
<glyph glyph-name="B" horiz-adv-x="654" unicode="B" d="M429 86.5q33 34.5 33 96.5q0 141 -191 141h-24v-175q0 -42 8 -62.5t26 -27.5t52 -7q63 0 96 34.5zM384.5 595.5q-39.5 30.5 -94.5 30.5q-20 0 -43 -6v-240h32q145 0 145 120q0 65 -39.5 95.5zM600 196q0 -89 -64 -142.5t-197 -53.5q-192 0 -290 -3q0 37 6 53 q28 2 42.5 10t20.5 29.5t6 62.5v381q0 37 -6 56t-20.5 27t-42.5 10q-5 18 -5 53q39 -3 105 -3q53 0 82 1l85 1q113 0 172 -34t59 -114q0 -64 -40 -108t-109 -54q196 -12 196 -172z"/>
<glyph glyph-name="C" horiz-adv-x="648" unicode="C" d="M582 478q-21 -10 -66 -10q-2 93 -36.5 129.5t-100.5 36.5q-107 0 -159 -76t-52 -189q0 -88 28 -158t82 -110t129 -40q44 0 90 14t88 40q7 -6 13 -17t8 -20q-55 -44 -113 -65.5t-133 -21.5q-95 0 -169 44.5t-115 124.5t-41 182q0 110 47 187.5t124 116.5t166 39 q111 0 221 -52q-11 -57 -11 -155z"/>
<glyph glyph-name="D" horiz-adv-x="734" unicode="D" d="M504 116.5q64 63.5 64 222.5q0 103 -35.5 168t-93 94t-127.5 29q-37 0 -64 -9v-468q0 -41 7 -62t25 -29.5t54 -8.5q106 0 170 63.5zM594 609.5q104 -68.5 104 -254.5q0 -211 -120 -283t-256 -72q-200 0 -272 -3q0 37 5 53q28 2 42.5 10t20.5 29t6 63v381q0 37 -6 56 t-20 27t-42 10q-6 21 -6 53q54 -3 160 -3q72 2 114 2q166 0 270 -68.5z"/>
<glyph glyph-name="E" horiz-adv-x="614" unicode="E" d="M580 155q-22 -68 -31 -157q-90 2 -227 2q-199 0 -273 -3q0 37 6 53q28 2 42 10t20 29t6 63v381q0 37 -6 56t-20.5 27t-42.5 10q-5 17 -5 53q67 -3 196 -3q161 0 278 3q10 -113 21 -164q-22 -13 -60 -13q-6 57 -40 90.5t-117 33.5h-81v-261h46q58 0 80 16.5t23 62.5 q24 8 59 8q-3 -49 -3 -111q0 -67 3 -117q-37 0 -57 6q-4 49 -26 66t-79 17h-46v-160q0 -41 7.5 -62t26 -29.5t54.5 -8.5h9q59 0 92.5 14t51 40t33.5 75q39 -8 60 -27z"/>
<glyph glyph-name="F" horiz-adv-x="577" unicode="F" d="M246 341h59q58 0 79.5 16.5t22.5 61.5q24 9 59 9q-2 -34 -2 -111q0 -85 2 -117q-35 0 -57 6q-4 49 -25.5 66t-78.5 17h-59v-128q0 -43 9.5 -66.5t29.5 -33t56 -11.5q6 -17 6 -53q-50 3 -144 3q-108 0 -154 -3q0 37 5 53q28 2 42.5 10t20.5 27t6 57v389q0 37 -6 56t-20 27 t-42 10q-6 21 -6 53q74 -3 195 -3q162 0 279 3q7 -106 21 -164q-22 -13 -60 -13q-7 58 -40.5 91t-116.5 33h-81v-285z"/>
<glyph glyph-name="G" horiz-adv-x="719" unicode="G" d="M497 242q-6 18 -22 24.5t-54 7.5q-6 20 -6 55q29 -3 127 -3q97 0 123 2q0 -35 -6 -54q-20 -1 -29 -7t-12 -23.5t-3 -58.5v-39q0 -27 3 -44.5t11 -34.5q-46 -34 -113.5 -55t-145.5 -21q-100 0 -176 44.5t-117.5 124.5t-41.5 186q0 108 48.5 184.5t128.5 115.5t172 39 q66 0 128 -13t109 -35q-11 -57 -11 -155q-23 -11 -66 -11q-4 92 -43.5 127.5t-112.5 35.5t-122.5 -36.5t-73.5 -97t-24 -132.5q0 -91 25 -163.5t75 -114t120 -41.5q51 0 82 12q18 7 25.5 22.5t7.5 51.5v46q0 43 -6 61z"/>
<glyph glyph-name="H" horiz-adv-x="767" unicode="H" d="M650 87q6 -19 20 -27t42 -10q6 -19 6 -53q-55 3 -132 3q-83 0 -140 -3q0 30 7 53q28 2 42 10t19.5 27t5.5 57v178q-195 0 -274 -5v-173q0 -38 6 -57t20 -27t42 -10q6 -16 6 -53q-55 3 -131 3q-84 0 -140 -3q0 34 6 53q28 2 42 10t20 27t6 57v389q0 37 -6 56t-20 27 t-42 10q-6 21 -6 53q54 -3 137 -3q74 0 134 3q0 -38 -6 -53q-28 -2 -42 -10t-20 -27t-6 -56v-160h274v160q0 37 -5.5 56t-19.5 27t-42 10q-7 20 -7 53q54 -3 138 -3q74 0 134 3q0 -35 -6 -53q-28 -2 -42 -10t-20 -27t-6 -56v-389q0 -38 6 -57z"/>
<glyph glyph-name="I" horiz-adv-x="369" unicode="I" d="M117 589q-6 19 -20 27t-42 10q-6 21 -6 53q54 -3 137 -3q74 0 134 3q0 -38 -6 -53q-28 -2 -42 -10t-20 -27t-6 -56v-389q0 -38 6 -57t20 -27t42 -10q6 -16 6 -53q-55 3 -131 3q-84 0 -140 -3q0 34 6 53q28 2 42 10t20 27t6 57v389q0 37 -6 56z"/>
<glyph glyph-name="J" horiz-adv-x="347" unicode="J" d="M219.5 -38.5q-15.5 -64.5 -61.5 -115.5t-137 -95q-20 13 -23 39q59 47 86 102.5t27 149.5v490q0 38 -5.5 57t-19.5 27t-42 10q-7 20 -7 53q50 -3 136 -3q91 0 136 3q0 -36 -6 -53q-28 -2 -42 -10t-20 -27.5t-6 -56.5v-404q0 -102 -15.5 -166.5z"/>
<glyph glyph-name="K" horiz-adv-x="703" unicode="K" d="M684 50q0 -33 -7 -50q-127 0 -185 -7q-39 70 -110 166.5t-136 160.5v-176q0 -38 6 -57t20.5 -27t42.5 -10q5 -16 5 -53q-56 3 -131 3q-83 0 -140 -3q0 34 6 53q28 2 42 10t20 27t6 57v389q0 37 -6 56t-20 27t-42 10q-6 21 -6 53q54 -3 137 -3q74 0 134 3q0 -38 -6 -53 q-28 -2 -42 -10t-20 -27t-6 -56v-173l168 174q48 49 48 72q0 18 -33 20q-6 19 -6 53q34 -3 106 -3q78 0 117 3q0 -34 -8 -53q-36 -2 -67.5 -19.5t-74.5 -63.5l-147 -156q36 -36 70 -80.5t80 -110.5q104 -142 185 -146z"/>
<glyph glyph-name="L" horiz-adv-x="583" unicode="L" d="M422 65.5q30 12.5 48.5 39.5t34.5 77q40 -7 60 -27q-20 -60 -31 -157q-88 2 -212 2q-199 0 -273 -3q0 37 6 53q28 2 42.5 10t20.5 29.5t6 62.5v381q0 37 -6 56t-20.5 27t-42.5 10q-5 18 -5 53q67 -3 135 -3q76 0 136 3q0 -36 -6 -53q-28 -2 -42 -10t-20 -27.5t-6 -57.5 v-378q0 -41 7 -62t25.5 -29.5t54.5 -8.5h9q49 0 79 12.5z"/>
<glyph glyph-name="M" horiz-adv-x="950" unicode="M" d="M922 -3q-45 3 -141 3q-84 0 -131 -3q0 31 7 53q37 4 50 17t13 48q0 22 -3 53l-34 324l-202 -494q-18 -7 -50 -7l-227 499l-30 -295q-4 -46 -4 -59q0 -47 15.5 -65.5t51.5 -20.5q6 -20 6 -53q-43 3 -108 3q-69 0 -107 -3q0 33 6 53q28 2 43 14.5t24 43.5t15 93l30 325 q1 10 1 27q0 41 -15 57t-52 16q-6 19 -6 53q34 -3 94 -3q55 0 93 3l231 -519l200 519q40 -3 96 -3q51 0 93 3q0 -33 -6 -53q-35 0 -52 -16.5t-17 -59.5q0 -9 2 -29l34 -341q5 -53 13 -79.5t21.5 -37t39.5 -12.5q6 -25 6 -54z"/>
<glyph glyph-name="N" horiz-adv-x="733" unicode="N" d="M695 679q0 -36 -5 -53q-24 -1 -36.5 -13.5t-18 -42.5t-5.5 -86v-487q-19 -6 -55 -6l-395 521v-316q0 -58 6 -88.5t21.5 -43.5t44.5 -14q6 -18 6 -53q-45 3 -105 3q-84 0 -108 -2q0 33 5 52q29 1 44.5 14t22 43.5t6.5 88.5v391l-7 9q-13 16 -25.5 22t-40.5 8q-5 21 -5 53 q32 -3 90 -3q49 0 80 3l357 -478v283q0 57 -6 86.5t-21.5 42t-45.5 13.5q-6 28 -6 53q44 -3 104 -3q59 0 98 3z"/>
<glyph glyph-name="O" horiz-adv-x="739" unicode="O" d="M486 83q42 35 64.5 96.5t22.5 139.5q0 86 -28.5 157t-79.5 112.5t-115 41.5q-53 0 -95 -32.5t-65.5 -92.5t-23.5 -139q0 -85 26 -157.5t76 -116.5t119 -44q57 0 99 35zM542.5 642q76.5 -43 119 -120t42.5 -178q0 -100 -42.5 -180.5t-118.5 -126.5t-174 -46 q-100 0 -175.5 45t-117 124.5t-41.5 179.5q0 102 43.5 180t119.5 121.5t171 43.5q97 0 173.5 -43z"/>
<glyph glyph-name="P" horiz-adv-x="609" unicode="P" d="M412 332.5q35 34.5 35 118.5q0 81 -37 127t-114 46q-24 0 -49 -6v-457q0 -43 9.5 -66.5t29.5 -33t56 -11.5q6 -17 6 -53q-49 3 -144 3q-107 0 -154 -3q0 37 5 53q28 2 42.5 10t20.5 27.5t6 56.5v389q0 37 -6 56t-20 27t-42 10q-6 17 -6 53q55 -3 146 -3q43 0 70 1l82 1 q117 0 171.5 -56t54.5 -145q0 -62 -27 -116t-79 -86.5t-124 -32.5q-42 0 -70 11q-2 14 -2 20q0 15 5 30q19 -5 45 -5q55 0 90 34.5z"/>
<glyph glyph-name="Q" horiz-adv-x="750" unicode="Q" d="M191.5 208.5q25.5 -72.5 75.5 -116.5t120 -44q57 0 99 35t64.5 96.5t22.5 139.5q0 86 -28.5 157t-79.5 112.5t-115 41.5q-54 0 -95.5 -32.5t-65 -92.5t-23.5 -139q0 -85 25.5 -157.5zM547 -9q23 -13 53 -33q42 -27 73.5 -40.5t74.5 -13.5q15 0 23 1q0 -30 -7 -52 q-74 -16 -141 -47q-37 11 -61.5 33t-51.5 58q-33 42 -62 65t-79 29q-100 0 -175.5 45t-117 124.5t-41.5 179.5q0 102 43.5 180t119.5 121.5t171 43.5q97 0 173.5 -43t119 -120t42.5 -178q0 -116 -56 -204.5t-153 -126.5q29 -9 52 -22z"/>
<glyph glyph-name="R" horiz-adv-x="694" unicode="R" d="M287 350q76 0 124.5 36t48.5 105q0 66 -36.5 103t-111.5 37q-31 0 -65 -8v-270q23 -3 40 -3zM601.5 78q28.5 -25 71.5 -27q0 -34 -6 -53q-114 0 -177 -7q-25 47 -78 154q-42 91 -103 148l-32 -1l-30 1v-147q0 -39 5.5 -59t18 -28t37.5 -9q6 -16 6 -53q-42 3 -135 3 q-78 0 -129 -3q0 34 5 53q28 2 42.5 10t20.5 27t6 57v389q0 38 -6 57.5t-20.5 27.5t-42.5 9q-5 19 -5 52q38 -3 134 -3l78 1q64 2 100 2q112 0 169.5 -48.5t57.5 -125.5q0 -71 -43 -120t-118 -68q33 -25 53.5 -54t58.5 -101q33 -59 61.5 -84z"/>
<glyph glyph-name="S" horiz-adv-x="547" unicode="S" d="M378 673q47 -12 75 -30q0 -97 6 -139q-26 -13 -71 -13q-14 80 -40.5 110t-73.5 30q-48 0 -75 -23t-27 -65q0 -36 19.5 -61.5t48 -42.5t78.5 -41q60 -28 96.5 -51.5t62.5 -62.5t26 -95t-26.5 -100.5t-81 -71t-133.5 -26.5q-60 0 -106.5 15t-98.5 47q10 57 10 149 q28 8 72 8q5 -83 36.5 -122.5t101.5 -39.5q60 0 89 26t29 68q0 34 -18.5 58.5t-46 41t-74.5 38.5q-60 28 -97.5 52.5t-63.5 65.5t-26 101q0 89 57.5 137.5t154.5 48.5q50 0 97 -12z"/>
<glyph glyph-name="T" horiz-adv-x="622" unicode="T" d="M597 511q-26 -11 -59 -11h-6q-5 64 -31.5 95.5t-81.5 31.5h-44v-483q0 -38 6.5 -57t23.5 -27t53 -10q7 -18 7 -53q-63 3 -149 3q-100 0 -159 -3q0 35 7 53q36 2 54 10t25.5 27t7.5 57v483h-37q-43 0 -67.5 -14.5t-36.5 -41t-22 -71.5q-43 0 -63 10q19 97 19 169 q63 -3 271 -3t271 3q-1 -13 -1 -26q0 -62 12 -142z"/>
<glyph glyph-name="U" horiz-adv-x="681" unicode="U" d="M565 130q-12 -50 -46 -83q-56 -56 -166 -56q-94 0 -148.5 26.5t-78 79.5t-23.5 136v299q0 39 -5 57.5t-17 25.5t-39 11q-6 19 -6 53q40 -3 121 -3q95 0 142 3q0 -32 -5 -53q-31 -3 -44.5 -10t-18.5 -25.5t-5 -58.5v-284q0 -94 35.5 -145t118.5 -51q27 0 54.5 9.5 t45.5 29.5q22 23 30.5 61t8.5 116v229q0 50 -5.5 76t-19.5 38t-43 15q-5 28 -5 53q36 -3 99 -3q59 0 98 3q0 -27 -6 -53q-24 -3 -37 -14.5t-18 -37t-5 -74.5v-229q0 -91 -12 -141z"/>
<glyph glyph-name="V" horiz-adv-x="692" unicode="V" d="M671 679q0 -27 -6 -53q-28 -6 -45 -31.5t-38 -81.5q-106 -291 -192 -514q-19 -6 -54 -6q-124 308 -221 517q-24 53 -36 75t-23 30.5t-29 10.5q-6 20 -6 53q42 -3 133 -3q67 0 134 3q0 -30 -6 -53q-29 -2 -41.5 -9.5t-12.5 -25.5q0 -22 21 -71q94 -209 148 -356 q70 176 128 353q11 35 11 56q0 47 -53 53q-6 19 -6 53q41 -3 93 -3q62 0 101 3z"/>
<glyph glyph-name="W" horiz-adv-x="999" unicode="W" d="M977 679q0 -33 -7 -53q-19 -5 -31.5 -18t-24.5 -41.5t-28 -84.5l-141 -484q-20 -7 -59 -7q-91 248 -189 491l-161 -485q-23 -6 -60 -6q-77 245 -171 515q-19 58 -29.5 80.5t-20 29.5t-29.5 9q-5 21 -5 54q48 -3 128 -3q76 0 135 3q0 -30 -6 -53q-34 -2 -47.5 -10 t-13.5 -27q0 -21 17 -70q60 -167 108 -323l162 482q17 6 55 6q87 -219 187 -491l86 291q14 46 14 79q0 30 -15 44t-48 19q-8 21 -8 53q42 -3 103 -3q58 0 99 3z"/>
<glyph glyph-name="X" horiz-adv-x="685" unicode="X" d="M650 -3q-43 3 -140 3q-77 0 -137 -2q0 29 5 52q22 2 32.5 7.5t10.5 18.5q0 23 -39 88q-27 47 -66 109l-72 -106q-39 -58 -39 -82q0 -14 11.5 -22t36.5 -13q6 -20 6 -53q-51 3 -115 3q-69 0 -110 -3q0 34 7 55q32 8 62 32.5t67 74.5l115 165q-44 71 -119 185 q-35 53 -52 75.5t-28.5 30t-29.5 10.5q-7 22 -7 54q53 -3 146 -3q66 0 128 2q0 -30 -5 -52q-23 -4 -33.5 -11t-10.5 -21q0 -22 32 -71l53 -81l20 -31l63 99q36 59 36 83q0 15 -11.5 22.5t-34.5 10.5q-6 20 -6 53q50 -3 108 -3q66 0 103 3q0 -35 -5 -53q-31 -8 -54.5 -29 t-64.5 -84l-101 -154l11 -18q64 -103 98 -161q33 -54 52.5 -80.5t34.5 -36.5t35 -13q7 -21 7 -53z"/>
<glyph glyph-name="Y" horiz-adv-x="631" unicode="Y" d="M610 678q0 -23 -5 -50q-26 -6 -47.5 -29t-44.5 -72l-132 -272v-82q0 -54 6 -77.5t22 -32.5t55 -13q7 -20 7 -53q-72 3 -151 3q-83 0 -157 -2q0 31 7 52q42 3 59 11t23 30t6 73v90l-159 314q-16 32 -31.5 45t-40.5 14q-6 20 -6 51q66 -2 122 -2q109 0 143 2q0 -29 -5 -50 q-23 -2 -33 -9.5t-10 -21.5q0 -17 17 -51q50 -100 104 -226q49 115 99 217q18 36 18 55q0 29 -45 35q-8 26 -8 51q27 -2 99 -2q38 0 88 2z"/>
<glyph glyph-name="Z" horiz-adv-x="619" unicode="Z" d="M565 161q-8 -34 -14 -79.5t-7 -84.5q-93 3 -260 3q-153 0 -222 -3q-12 21 -12 43l17 28q85 141 171 286t157 272h-117q-43 0 -67.5 -10t-40.5 -38t-27 -84q-51 0 -71 11q10 35 15.5 82t5.5 91q86 -2 241 -2q132 0 200 2q12 -17 14 -43q-157 -289 -341 -584h121 q59 0 90.5 10t49 37t29.5 83q40 -3 68 -20z"/>
<glyph glyph-name="bracketleft" horiz-adv-x="283" unicode="[" d="M130 740q63 0 103 2q12 -16 12 -50q-56 -5 -80.5 -12t-34 -24.5t-9.5 -55.5v-740q0 -32 11 -47.5t34 -21.5t68 -8q11 -18 11 -52q-33 2 -100 2q-72 0 -110 -2v1011q35 -2 95 -2z"/>
<glyph glyph-name="backslash" horiz-adv-x="387" unicode="\" d="M91 711l264 -711q-15 -6 -47 -6q-11 0 -14 1l-265 714q11 5 40 5q14 0 22 -3z"/>
<glyph glyph-name="bracketright" horiz-adv-x="283" unicode="]" d="M138 -267q-67 0 -100 -2q0 34 11 52q45 2 68 8t34 21.5t11 47.5v740q0 38 -9.5 55.5t-34 24.5t-80.5 12q0 34 12 50q40 -2 103 -2q60 0 95 2v-1011q-38 2 -110 2z"/>
<glyph glyph-name="asciicircum" horiz-adv-x="577" unicode="^" d="M87 379q-27 22 -33 53l205 257q18 10 46 10q7 0 14 -1q94 -146 204 -294q-19 -14 -49 -14q-9 0 -14 1l-170 243q-123 -144 -203 -255z"/>
<glyph glyph-name="underscore" horiz-adv-x="586" unicode="_" d="M514 -145q-69 1 -123 1h-110l-148 -1l-73 -1q0 37 12 60h454q0 -40 -12 -59z"/>
<glyph glyph-name="grave" horiz-adv-x="266" unicode="`" d="M-16 699q35 16 83 16q12 0 32 -2q31 -98 71 -172q-15 -7 -44 -7h-14q-64 99 -128 165z"/>
<glyph glyph-name="a" horiz-adv-x="523" unicode="a" d="M203.5 195q-38.5 -20 -38.5 -69q0 -31 15 -47t38 -16q22 0 43.5 14.5t36 44t14.5 72.5v32q-70 -11 -108.5 -31zM491 64q0 -22 -8 -41q-32 -2 -68.5 -10.5t-63.5 -21.5q-15 6 -22 17.5t-7 38.5q0 16 3 34q-12 -30 -38 -53q-42 -35 -108 -35t-101 28.5t-35 81.5 q0 60 45 95.5t99.5 50.5t124.5 25q0 54 -4 76t-17 38q-22 27 -59 27q-41 0 -61 -34.5t-23 -79.5q-47 0 -68 9q2 24 2 38q0 43 -7 77q41 20 89 31t93 11q89 0 130 -41q23 -24 33 -63t10 -107v-105q0 -29 4 -44t17 -22t39 -7z"/>
<glyph glyph-name="b" horiz-adv-x="575" unicode="b" d="M372 86.5q41 42.5 41 146.5q0 52 -14.5 88.5t-38 54.5t-49.5 18q-47 0 -80 -44t-33 -136v-135q35 -35 81 -35q52 0 93 42.5zM487 413.5q51 -53.5 51 -162.5q0 -74 -32.5 -133t-92 -93t-136.5 -34q-70 0 -128.5 19.5t-90.5 50.5q12 14 17.5 41t5.5 77v386q0 26 -5.5 40.5 t-21.5 22t-48 8.5q0 31 10 47q37 0 87.5 10.5t69.5 23.5q25 -10 25 -47v-236q0 -24 -4 -54q9 15 17 23q18 24 54.5 44t80.5 20q90 0 141 -53.5z"/>
<glyph glyph-name="c" horiz-adv-x="457" unicode="c" d="M149 17.5q-51 26.5 -81.5 80t-30.5 129.5q0 62 25.5 117t76 89t119.5 34q98 0 159 -43q-9 -50 -9 -119q-20 -11 -62 -11q-4 57 -29 88t-64 31q-45 0 -71 -46t-26 -125q0 -76 36.5 -130t102.5 -54t108 48q20 -14 25 -38q-55 -77 -167 -77q-61 0 -112 26.5z"/>
<glyph glyph-name="d" horiz-adv-x="583" unicode="d" d="M344 108q33 44 33 136v135q-35 35 -81 35q-52 0 -93 -42.5t-41 -146.5q0 -52 14.5 -88.5t38 -54.5t49.5 -18q47 0 80 44zM547 23q-32 -2 -68 -10.5t-64 -21.5q-15 6 -21.5 17.5t-6.5 40.5q0 24 7 52q-13 -24 -30 -46q-18 -24 -54.5 -44t-80.5 -20q-90 0 -141 53.5 t-51 162.5q0 74 33 133t92.5 93t136.5 34q33 0 78 -12v110q0 26 -5.5 40.5t-21.5 22t-48 8.5q0 31 10 47q37 0 87.5 10.5t69.5 23.5q26 -10 26 -47v-517q0 -30 4 -45.5t17 -22.5t39 -7v-11q0 -27 -8 -44z"/>
<glyph glyph-name="e" horiz-adv-x="494" unicode="e" d="M188 378.5q-25 -33.5 -28 -111.5h176q0 65 -22.5 105t-61.5 40t-64 -33.5zM443.5 92q7.5 -12 8.5 -24q-68 -77 -186 -77q-113 0 -171 66t-58 170q0 69 27.5 123.5t78 85.5t117.5 31q96 0 144.5 -59.5t51.5 -151.5q-4 -24 -20 -41q-174 0 -274 -5q7 -69 41 -111t101 -42 q33 0 66 14t57 38q9 -5 16.5 -17z"/>
<glyph glyph-name="f" horiz-adv-x="369" unicode="f" d="M439 565q-27 -10 -74 -10q0 45 -17.5 72t-52.5 27t-50 -33t-15 -104v-69h106q0 -37 -10 -56q-57 0 -96 -12v-219q0 -43 9 -66.5t29 -33t56 -11.5q7 -16 7 -53q-49 3 -141 3q-104 0 -152 -3q0 37 6 53q28 2 42 10t20 27t6 57v240q-41 10 -78 10q0 35 14 54h64v37 q0 74 30.5 126t80.5 78t110 26q64 0 110 -27q-5 -45 -5 -92q0 -15 1 -31z"/>
<glyph glyph-name="g" horiz-adv-x="531" unicode="g" d="M346.5 -161q37.5 28 37.5 68q0 22 -11 34.5t-41.5 18t-90.5 5.5q-49 0 -77 4q-15 -14 -21 -29.5t-6 -36.5q0 -47 25.5 -69.5t83.5 -22.5q63 0 100.5 28zM187 388q-18 -30 -18 -73q0 -59 24 -91t67 -32q31 0 50 26.5t19 75.5q0 53 -24 88.5t-66 35.5q-34 0 -52 -30z M447 45.5q42 -27.5 42 -90.5q0 -51 -35 -98t-96 -76.5t-135 -29.5q-101 0 -144.5 32.5t-43.5 97.5q0 35 18.5 61.5t54.5 41.5q-24 12 -34.5 31.5t-10.5 49.5q0 28 15.5 56t42.5 51q-71 44 -71 130q0 74 51 119.5t146 45.5q40 0 70 -9h173q8 -25 8 -70q-45 13 -94 18 q22 -23 32.5 -50t10.5 -49q0 -73 -52.5 -120t-144.5 -47q-44 0 -78 10q-23 -22 -23 -39t10.5 -24.5t43 -10.5t104.5 -3q98 0 140 -27.5z"/>
<glyph glyph-name="h" horiz-adv-x="624" unicode="h" d="M592 -3q-45 3 -118 3q-38 0 -131 -3q0 36 7 53q33 0 48 20t15 70v129q0 63 -22 89.5t-63 26.5q-27 0 -51 -18t-39 -54.5t-15 -90.5v-85q0 -50 14 -68.5t49 -18.5q7 -19 7 -53q-87 3 -129 3q-88 0 -132 -3q0 37 6 53q39 0 53.5 18.5t14.5 68.5v428q0 26 -5.5 40.5 t-21.5 22t-48 8.5q0 31 10 47q37 0 87.5 10.5t69.5 23.5q25 -10 25 -47v-253q0 -28 -8 -59q13 27 22 37q20 27 58 47t84 20q66 0 108.5 -39.5t42.5 -123.5v-162q0 -49 12.5 -68t42.5 -19q7 -21 7 -53z"/>
<glyph glyph-name="i" horiz-adv-x="326" unicode="i" d="M239 69q13 -18 47 -19q6 -19 6 -53q-48 3 -128 3q-85 0 -130 -3q0 35 6 53q40 1 54 19t14 68v178q0 26 -5.5 40.5t-21.5 22t-48 8.5q0 31 10 47q37 0 87.5 10.5t69.5 23.5q26 -10 26 -47v-283q0 -50 13 -68zM212.5 676.5q19.5 -18.5 19.5 -49.5q0 -27 -21.5 -46 t-53.5 -19q-31 0 -51 18t-20 46q0 31 21 50t52 19q34 0 53.5 -18.5z"/>
<glyph glyph-name="j" horiz-adv-x="297" unicode="j" d="M103.5 355.5q-5.5 14.5 -21.5 22t-48 8.5q0 31 10 47q37 0 87.5 10.5t69.5 23.5q25 -10 25 -47v-380q0 -68 -27.5 -126t-69.5 -99t-86 -64q-24 12 -29 41q56 62 75.5 112t19.5 125v286q0 26 -5.5 40.5zM212.5 676.5q19.5 -18.5 19.5 -49.5q0 -27 -21 -46t-54 -19 q-31 0 -51 18t-20 46q0 31 21 50t52 19q34 0 53.5 -18.5z"/>
<glyph glyph-name="k" horiz-adv-x="578" unicode="k" d="M498.5 71.5q12.5 -11.5 24.5 -15t36 -4.5q0 -33 -8 -52q-88 0 -145 -9q-26 40 -80.5 110.5t-102.5 123.5v-88q0 -49 12 -67.5t43 -19.5q6 -19 6 -53q-48 3 -124 3q-83 0 -128 -3q0 35 6 53q40 1 54 19t14 68v428q0 26 -5.5 40.5t-21.5 22t-48 8.5q0 31 10 47 q37 0 87.5 10.5t69.5 23.5q25 -10 25 -47v-408l67 61q56 51 56 70q0 15 -28 16q-8 23 -8 51q38 -2 123 -2q60 0 94 2q0 -28 -9 -52q-34 -2 -61 -14.5t-63 -45.5l-74 -67q58 -60 145 -171q21 -27 33.5 -38.5z"/>
<glyph glyph-name="l" horiz-adv-x="321" unicode="l" d="M90.5 619.5q-14.5 15.5 -59.5 16.5q0 31 10 47q37 0 87.5 10.5t69.5 23.5q25 -10 25 -47v-533q0 -49 13.5 -67.5t47.5 -19.5q6 -19 6 -53q-48 3 -128 3q-85 0 -130 -3q0 35 6 53q40 1 54 19t14 68v431q-1 36 -15.5 51.5z"/>
<glyph glyph-name="m" horiz-adv-x="925" unicode="m" d="M893 -3q-48 3 -118 3q-80 0 -130 -3q0 34 5 53q25 1 38.5 9.5t19.5 28.5t6 59v123q0 63 -21 89t-60 26q-44 0 -74.5 -41.5t-30.5 -121.5v-84q0 -50 13.5 -68t51.5 -20q6 -21 6 -53q-49 3 -128 3q-76 0 -130 -3q0 33 7 53q26 2 39 10t19 28.5t6 61.5v126q0 61 -21.5 87 t-61.5 26q-27 0 -50.5 -18.5t-38.5 -55.5t-15 -90v-87q0 -50 13.5 -68t50.5 -20q7 -21 7 -53q-51 3 -132 3q-83 0 -130 -3q0 32 7 52q27 2 41.5 10t20 26t5.5 52v169q0 31 -5 46.5t-20.5 23.5t-48.5 10q0 28 10 47q37 2 84 12t69 22q25 -9 25 -47q0 -27 -6 -65q14 35 23 44 q21 27 58 47t82 20q47 0 82 -20t52 -61q7 -15 8 -30q10 26 23 41q21 27 57 46t80 19q69 0 109.5 -39.5t40.5 -126.5v-145q0 -41 5 -62t17 -28.5t34 -9.5q6 -18 6 -53z"/>
<glyph glyph-name="n" horiz-adv-x="627" unicode="n" d="M594 -3q-43 3 -117 3q-38 0 -131 -3q0 35 6 53q33 0 48 20t15 70v129q0 63 -21.5 89.5t-62.5 26.5q-27 0 -51 -18t-39 -54.5t-15 -90.5v-85q0 -50 14 -68.5t49 -18.5q7 -19 7 -53q-87 3 -129 3q-88 0 -133 -3q0 35 7 53q39 0 53 18.5t14 68.5v173q0 29 -5 44t-20.5 23 t-48.5 9q0 31 10 47q42 1 87 11.5t70 22.5q25 -11 25 -50q0 -28 -8 -59q14 28 21 37q21 27 59 47t84 20q66 0 108.5 -39.5t42.5 -123.5v-162q0 -49 12.5 -68t42.5 -19q6 -18 6 -53z"/>
<glyph glyph-name="o" d="M189.5 368q-26.5 -44 -26.5 -116q0 -95 33 -150t90 -55q51 0 78 45.5t27 120.5q0 61 -17 106t-45.5 69t-62.5 24q-50 0 -76.5 -44zM453 402.5q63 -64.5 63 -171.5q0 -71 -30 -125t-84.5 -84.5t-126.5 -30.5q-111 0 -174.5 63.5t-63.5 172.5q0 71 31 125.5t85.5 84.5 t123.5 30q113 0 176 -64.5z" unicode="o"/>
<glyph glyph-name="p" horiz-adv-x="602" unicode="p" d="M258 350q-33 -44 -33 -136v-135q35 -35 82 -35q51 0 92 42.5t41 146.5q0 72 -27.5 116.5t-74.5 44.5t-80 -44zM234.5 -147.5q9.5 -23.5 29.5 -33t56 -11.5q6 -17 6 -53q-50 3 -141 3q-105 0 -151 -3q0 35 5 53q28 2 42.5 10t20.5 27t6 57v408q0 29 -5 44t-20.5 23 t-48.5 9q0 31 10 47q42 1 87 11.5t69 22.5q25 -10 25 -50q0 -14 -7 -42q9 17 20 28q18 24 54.5 44t80.5 20q90 0 141 -52.5t51 -157.5q0 -77 -32.5 -137.5t-92 -94.5t-137.5 -34q-33 0 -78 12v-84q0 -43 9.5 -66.5z"/>
<glyph glyph-name="q" horiz-adv-x="574" unicode="q" d="M320.5 83.5q23.5 16.5 39.5 54t16 96.5v145q-11 14 -33 24.5t-45 10.5q-61 0 -98.5 -49t-37.5 -140q0 -82 31.5 -120t78.5 -38q25 0 48.5 16.5zM567 -245q-45 3 -141 3q-93 0 -144 -3q0 35 6 52q37 2 55 11t25.5 29t7.5 59v103q0 47 14 103q-16 -38 -32 -56 q-22 -25 -58 -41t-75 -16q-53 0 -95.5 24.5t-67.5 72t-25 114.5q0 72 32.5 130.5t91.5 92.5t134 34q143 0 220 -69q-11 -21 -16 -48.5t-5 -76.5v-366q0 -40 5.5 -60t19.5 -28.5t42 -11.5q6 -18 6 -52z"/>
<glyph glyph-name="r" horiz-adv-x="447" unicode="r" d="M421 303q-25 -11 -71 -11q-1 42 -13 58t-33 16q-17 0 -35 -18.5t-30.5 -49t-12.5 -64.5v-73q0 -43 9.5 -66.5t29.5 -33t56 -11.5q6 -17 6 -53q-49 3 -141 3q-104 0 -152 -3q0 34 6 53q28 2 42 10t20 27t6 57v166q0 29 -5 44t-20.5 23t-48.5 9q0 31 10 47q42 1 87 11.5 t70 22.5q25 -11 25 -50q0 -33 -15 -97q16 46 24 58q23 37 54.5 59t68.5 22q38 0 71 -24q-8 -49 -8 -108v-24z"/>
<glyph glyph-name="s" horiz-adv-x="446" unicode="s" d="M313 314q-4 42 -32 72t-72 30q-27 0 -43 -13.5t-16 -35.5q0 -17 7.5 -28.5t31.5 -25.5t75 -34q56 -22 87 -42.5t44.5 -44.5t13.5 -59q0 -65 -54.5 -103.5t-142.5 -38.5q-59 0 -97 8.5t-76 27.5q3 27 3 68q0 26 -2 56q21 14 66 14q7 -58 35.5 -88t74.5 -30q35 0 55.5 15.5 t20.5 40.5t-20 42t-82 42q-55 21 -85.5 40t-45.5 45.5t-15 67.5t25.5 69.5t66 43t84.5 14.5q90 0 153 -33q-1 -13 -1 -40q0 -37 4 -65q-24 -15 -63 -15z"/>
<glyph glyph-name="t" horiz-adv-x="364" unicode="t" d="M142 592.5q27 12.5 45 27.5q12 -5 16 -15.5t4 -41.5v-115h126q0 -28 -9 -54q-65 -1 -117 -14v-226q0 -54 13.5 -77t40.5 -23q36 0 64 21q13 -18 15 -42q-18 -18 -53 -30t-70 -12q-66 0 -97 34t-31 110v247q-32 11 -73 12q0 32 10 54h63v127q26 5 53 17.5z"/>
<glyph glyph-name="u" horiz-adv-x="584" unicode="u" d="M548 23q-32 -2 -68 -10.5t-64 -21.5q-15 6 -22 17.5t-7 40.5q0 19 4 43q-11 -26 -33 -48q-51 -49 -130 -49q-74 0 -110.5 41.5t-36.5 139.5v134q0 29 -4 44t-18 23t-43 9q0 31 8 47q41 1 82.5 11t66.5 23q25 -10 25 -50v-218q0 -68 16.5 -99.5t55.5 -31.5q48 0 78 42.5 t30 122.5v82q0 28 -5.5 43.5t-21 23.5t-47.5 9q0 17 1.5 27.5t6.5 19.5q48 1 91 9.5t67 19.5q25 -10 25 -50v-264q0 -44 11.5 -59t49.5 -16v-11q0 -27 -8 -44z"/>
<glyph glyph-name="v" horiz-adv-x="543" unicode="v" d="M530 461q0 -30 -10 -53q-25 -5 -40 -24t-37 -72l-135 -321h-11q-33 0 -53 11q-23 52 -81.5 178t-79.5 167q-18 36 -29.5 47t-32.5 14q-7 25 -7 53q42 -3 119 -3q87 0 135 3q0 -23 -8 -51q-31 -3 -43.5 -8.5t-12.5 -18.5t14 -41q45 -95 95 -221q32 90 69 184q15 41 15 62 q0 20 -12 30t-36 12q-11 28 -11 52q39 -3 95 -3q58 0 97 3z"/>
<glyph glyph-name="w" horiz-adv-x="780" unicode="w" d="M767 461q0 -31 -9 -53q-23 -6 -36.5 -27t-33.5 -82l-100 -308q-46 0 -65 9q-86 199 -126 299l-124 -308q-45 0 -63 9q-74 209 -132 349q-11 28 -23.5 41t-33.5 18q-7 20 -7 52q66 -2 111 -2q69 0 126 3q0 -36 -7 -53q-24 -2 -34.5 -8.5t-10.5 -18.5q0 -14 9 -36 q42 -111 71 -205l122 323q36 0 52 -6q56 -121 134 -320l46 158q11 34 11 61q0 25 -12 36.5t-38 15.5q-9 26 -9 53q37 -3 90 -3q55 0 92 3z"/>
<glyph glyph-name="x" horiz-adv-x="545" unicode="x" d="M517 -1q-19 1 -52 1h-54q-105 0 -143 -2q0 38 5 52q36 2 36 21q0 15 -19 44l-18 28l-27 40l-33 -48q-28 -43 -28 -63t28 -22q7 -20 7 -52q-35 2 -105 2q-50 0 -85 -2q0 36 7 52q27 2 49.5 20t60.5 73l60 86q-37 57 -75 107q-35 46 -50.5 59t-38.5 15q-8 22 -8 50 q66 -2 120 -2q92 0 129 2q0 -26 -6 -50q-35 -2 -35 -19t25 -52q22 -30 38 -54l36 55q24 36 24 51q0 16 -30 19q-8 17 -8 50q56 -2 93 -2t85 2q0 -26 -7 -50q-24 -2 -39.5 -14t-42.5 -52l-71 -101l77 -108q33 -50 50 -67t38 -18q7 -18 7 -51z"/>
<glyph glyph-name="y" horiz-adv-x="552" unicode="y" d="M538 461q0 -35 -8 -53q-26 -7 -40.5 -25t-36.5 -70l-147 -350q-37 -90 -65.5 -135t-54 -61t-60.5 -16q-29 0 -50.5 9t-34.5 23q-3 12 -3 30q0 29 7 52q41 -9 78 -9q33 0 56.5 12.5t41.5 41.5q6 10 35 69q-97 220 -146 322q-29 62 -46.5 81.5t-42.5 25.5q-7 20 -7 52 q76 -2 124 -2q61 0 143 2q0 -31 -8 -52q-31 -5 -44.5 -14t-13.5 -26q0 -19 20 -61q39 -76 80 -187l2 4l69 174q16 39 16 63q0 21 -13 31t-41 16q-8 20 -8 52q31 -2 99 -2q69 0 99 3z"/>
<glyph glyph-name="z" horiz-adv-x="506" unicode="z" d="M468 18q-10 -20 -36 -20q-100 2 -186 2q-109 0 -181 -2q-17 23 -17 49q55 76 132 186t117 172h-71q-35 0 -54 -8t-30 -29.5t-20 -65.5h-11q-33 0 -57 10q9 68 9 149q62 -3 191 -3q122 0 182 3q14 -17 14 -49q-45 -69 -119 -174.5t-132 -184.5h102q36 0 54 9t26.5 32.5 t12.5 71.5q39 0 66 -8q0 -92 8 -140z"/>
<glyph glyph-name="braceleft" horiz-adv-x="354" unicode="{" d="M241.5 659q-18.5 -31 -18.5 -75q0 -25 5 -56.5t6 -40.5q12 -66 12 -98q0 -55 -29 -91.5t-102 -51.5q74 -17 103 -56t29 -98q0 -32 -10 -100q-10 -66 -10 -96q0 -48 19 -80t68 -47q1 -5 1 -15q0 -18 -9 -28q-103 26 -141 79.5t-39 129.5q0 26 4 76q4 48 4 70 q-1 54 -22 89.5t-77 53.5q0 28 5 40q54 18 74.5 51t21.5 82q0 9 -5 74q-6 52 -6 80q1 69 36.5 117.5t134.5 76.5q12 -15 12 -39q-48 -16 -66.5 -47z"/>
<glyph glyph-name="bar" horiz-adv-x="181" unicode="|" d="M121 701q0 -112 -1 -181l-1 -286l1 -287q1 -72 1 -190q-16 0 -34.5 3t-26.5 8v945q42 0 61 -12z"/>
<glyph glyph-name="braceright" horiz-adv-x="354" unicode="}" d="M223 471q-5 -65 -5 -74q0 -48 21 -81.5t75 -51.5q5 -12 5 -40q-57 -18 -78 -53.5t-21 -89.5q0 -22 4 -70q4 -50 4 -76q-1 -76 -39 -129.5t-141 -79.5q-10 13 -10 30q0 9 1 13q49 15 68.5 47t19.5 80q0 30 -10 96q-10 68 -10 100q0 59 29 98t102 56q-73 15 -101.5 51.5 t-28.5 91.5q0 32 12 98q1 9 6 40.5t5 56.5q0 44 -19 75t-67 47q0 23 13 39q98 -28 134 -76.5t37 -117.5q0 -28 -6 -80z"/>
<glyph glyph-name="asciitilde" horiz-adv-x="632" unicode="~" d="M216 346q26 0 50.5 -8.5t60.5 -25.5q34 -16 57.5 -24.5t47.5 -8.5q52 0 101 53q21 -4 39 -22q-73 -106 -149 -106q-26 0 -50 9.5t-58 27.5q-35 18 -57 26.5t-46 8.5q-63 0 -122 -72q-25 11 -30 31q73 111 156 111z"/>
<glyph glyph-name="nonbreakingspace" horiz-adv-x="200" unicode=" "/>
<glyph glyph-name="exclamdown" horiz-adv-x="411" unicode="¡" d="M153 447.5q20 19.5 51 19.5q33 0 51.5 -18t18.5 -48t-21 -49.5t-53 -19.5q-30 0 -48.5 20t-18.5 44q0 32 20 51.5zM173 228q45 0 61 -8q17 -247 44 -440q-28 -5 -64 -15.5t-56 -20.5q-21 7 -21 31q0 9 1 14q26 252 35 439z"/>
<glyph glyph-name="cent" horiz-adv-x="462" unicode="¢" d="M175.5 142q19.5 -45 56.5 -67v335q-36 -10 -56 -54t-20 -114q0 -55 19.5 -100zM292 -7l1 -133q-16 0 -34.5 3t-26.5 8v122q-85 9 -140 69.5t-55 164.5q0 58 22.5 110t67 87t105.5 42v144q42 0 61 -12l-1 -132q74 -7 125 -42q-9 -50 -9 -119q-20 -11 -62 -11 q-6 85 -55 110v-182v-164h4q66 0 108 48q21 -15 25 -38q-48 -66 -136 -75z"/>
<glyph glyph-name="sterling" horiz-adv-x="570" unicode="£" d="M537 109q-64 -64 -90 -118q-43 0 -75 14q-20 9 -38 19q-29 15 -50.5 22t-53.5 7q-78 0 -142 -61q-23 11 -37 40q60 52 87.5 98.5t27.5 107.5q0 30 -6 52q-51 0 -101 -2q0 34 13 57h68q-22 48 -31.5 78t-9.5 75q0 51 24.5 93.5t72.5 68t114 25.5q104 0 166 -34 q-4 -27 -4 -64q0 -33 3 -72q-26 -12 -63 -12h-11q-6 68 -30.5 97t-73.5 29q-35 0 -57.5 -27t-22.5 -69q0 -31 9 -54.5t26 -53.5q27 -45 33 -80h115q0 -33 -12 -56l-103 2q-12 -89 -102 -188q76 54 134 54q39 0 87 -26q28 -16 43 -16q21 0 39 21q29 -3 51 -27z"/>
<glyph glyph-name="currency" horiz-adv-x="531" unicode="¤" d="M350.5 160q30.5 34 30.5 91q0 33 -16.5 64.5t-45 51t-63.5 19.5q-50 0 -80.5 -33t-30.5 -88q0 -34 17 -66t45.5 -52.5t62.5 -20.5q50 0 80.5 34zM429 54l-58 58q-24 -17 -52 -26.5t-54 -9.5q-58 0 -104 31l-53 -53q-17 1 -27 5.5t-20 15.5l63 66q-42 50 -42 117 q0 56 32 101l-60 61q19 19 45 22l49 -49q51 39 117 39q60 0 109 -35l47 49q16 -4 25.5 -9t18.5 -16l-57 -57q35 -46 35 -106q0 -64 -37 -113l70 -68q-17 -20 -47 -23z"/>
<glyph glyph-name="yen" horiz-adv-x="627" unicode="¥" d="M610 678q0 -30 -5 -50q-26 -6 -47.5 -29t-44.5 -72l-71 -146h99q0 -23 -11 -56l-115 1l-34 -71v-2h158q0 -28 -12 -55h-146v-25q0 -54 6 -77.5t22 -32.5t55 -13q8 -23 8 -53q-72 3 -152 3q-83 0 -157 -2q0 32 8 52q42 3 59 11t22.5 29.5t5.5 73.5v34h-159q0 33 11 55 l148 1l-36 72l-117 -1q0 35 10 56h79l-95 187q-16 32 -31.5 45t-39.5 14q-7 20 -7 51q68 -2 122 -2q109 0 143 2q0 -29 -5 -50q-23 -2 -33 -9.5t-10 -21.5q0 -17 17 -51q53 -106 104 -225q64 144 99 216q18 36 18 55q0 29 -45 35q-8 26 -8 51q27 -2 99 -2q38 0 88 2z"/>
<glyph glyph-name="brokenbar" horiz-adv-x="188" unicode="¦" d="M122 163q0 -50 -1 -83l-1 -114q0 -57 1 -93l1 -116q-14 0 -33 3.5t-28 8.5v407q40 0 61 -13zM122 701q0 -42 -1 -69l-1 -111l1 -119q1 -33 1 -80q-15 0 -33 3.5t-28 8.5v379q39 0 61 -12z"/>
<glyph glyph-name="section" horiz-adv-x="551" unicode="§" d="M375.5 148.5q22.5 26.5 22.5 59.5q0 27 -11 48t-43 45t-95 54l-22 11q-43 -11 -63 -36.5t-20 -59.5q0 -27 10 -49t39 -45t83 -51l24 -13q53 10 75.5 36.5zM455.5 141q-35.5 -45 -94.5 -68q42 -34 59.5 -70.5t17.5 -86.5q0 -69 -44.5 -113.5t-128.5 -44.5 q-55 0 -89.5 11.5t-62.5 32.5q2 44 2 68q0 34 -3 66q26 8 59 8q8 -75 33.5 -103t64.5 -28q38 0 60 18.5t22 51.5q0 27 -9.5 45.5t-39 39t-90.5 51.5q-88 44 -124 93.5t-36 122.5q0 59 32.5 102t86.5 66q-41 33 -57 70.5t-16 85.5q0 42 21.5 77.5t60 56.5t88.5 21 q85 0 142 -37q-3 -25 -3 -60q0 -33 3 -62q-27 -9 -59 -9q-11 63 -32 88t-53 25q-36 0 -58.5 -21t-22.5 -51q0 -24 8.5 -41.5t36 -37.5t82.5 -45q68 -31 106.5 -60.5t55.5 -66.5t17 -88q0 -62 -35.5 -107z"/>
<glyph glyph-name="dieresis" horiz-adv-x="540" unicode="¨" d="M468 544.5q-16 -18.5 -49 -18.5q-34 0 -52.5 17.5t-18.5 47.5q0 27 19 43t49 16q29 0 48.5 -17t19.5 -42q0 -28 -16 -46.5zM154.5 631q16.5 19 49.5 19q34 0 51 -17.5t17 -46.5q0 -26 -19 -43.5t-47 -17.5q-30 0 -49 17t-19 42q0 28 16.5 47z"/>
<glyph glyph-name="copyright" horiz-adv-x="805" unicode="©" d="M487.5 443.5q31.5 -9.5 68.5 -31.5q-7 -42 -7 -111q-19 -9 -51 -9q-10 109 -100 109t-90 -159q0 -75 29.5 -126t89.5 -51q65 0 111 47q16 -12 20 -33q-56 -74 -163 -74q-52 0 -96.5 26t-72 76.5t-27.5 120.5q0 67 27 118t75.5 79t111.5 28q43 0 74.5 -9.5zM255 484 q-67 -39 -106 -106t-39 -148q0 -82 38.5 -148.5t105.5 -105t149 -38.5q81 0 148 38.5t106 105.5t39 148t-39 148t-106 106t-148 39t-148 -39zM575.5 527.5q78.5 -45.5 124 -124.5t45.5 -173t-45.5 -172.5t-124 -124.5t-172.5 -46q-95 0 -174 45.5t-124 124t-45 173.5 t45.5 173.5t124 124t173.5 45.5q94 0 172.5 -45.5z"/>
<glyph glyph-name="ordfeminine" horiz-adv-x="418" unicode="ª" d="M173 515q-25 -15 -25 -50q0 -23 9.5 -33.5t24.5 -10.5q25 0 44.5 25t19.5 71v20q-48 -7 -73 -22zM357 443.5q8 -12.5 29 -12.5q0 -31 -6 -49q-61 -5 -103 -23q-25 8 -25 37q0 14 5 36q-6 -24 -30 -46q-31 -26 -78 -26q-105 0 -105 86q0 59 53 87.5t149 43.5q0 37 -3 51.5 t-12 25.5q-15 21 -42 21q-25 0 -37.5 -24t-15.5 -61q-43 0 -62 7q1 7 1 22q0 35 -6 60q67 38 141 38q42 0 66.5 -8t41.5 -26q18 -19 24.5 -44.5t6.5 -77.5v-67q0 -38 8 -50.5z"/>
<glyph glyph-name="guillemotleft" horiz-adv-x="508" unicode="«" d="M342 262q44 -84 81 -142q-4 -11 -14.5 -21.5t-24.5 -17.5q-70 84 -134 149q0 30 8 49q53 53 120 132q29 -2 48 -19q-48 -68 -84 -130zM159 265q43 -80 95 -149q-10 -26 -34 -41q-80 84 -160 158q0 23 9 47q69 59 144 137q30 -3 48 -18q-73 -89 -102 -134z"/>
<glyph glyph-name="logicalnot" horiz-adv-x="577" unicode="¬" d="M522 119q-26 -16 -60 -16v187h-162q-162 0 -250 -2q0 15 3 33.5t8 28.5h461v-231z"/>
<glyph glyph-name="softhyphen" horiz-adv-x="419" unicode="­" d="M346 233q-153 0 -286 -5q0 19 4.5 41t11.5 38h283q0 -45 -13 -74z"/>
<glyph glyph-name="registered" horiz-adv-x="516" unicode="®" d="M256 491q37 0 37 34q0 36 -34 36q-7 0 -23 -4v-64q14 -2 20 -2zM328 493q-10 -17 -31 -24l50 -81l-46 -5l-43 77l-22 1v-75h-43v205h75q70 0 70 -60q0 -21 -10 -38zM339 350q36 21 56.5 56.5t20.5 79.5q0 45 -20.5 81t-56.5 57t-81 21q-44 0 -80 -21t-57 -57.5t-21 -80.5 q0 -43 21 -79t57 -57t80 -21q45 0 81 21zM359 658.5q45 -26.5 71 -72t26 -100.5t-26 -100t-71 -71t-101 -26q-54 0 -99.5 26t-72 71t-26.5 100t26.5 100.5t72 72t99.5 26.5q56 0 101 -26.5z"/>
<glyph glyph-name="macron" horiz-adv-x="540" unicode="¯" d="M445 584q-159 0 -361 -5q0 10 2.5 26t6.5 26h361q0 -23 -9 -47z"/>
<glyph glyph-name="degree" horiz-adv-x="398" unicode="°" d="M161.5 517.5q20.5 -28.5 49.5 -28.5q21 0 33.5 18.5t12.5 54.5q0 43 -17.5 68.5t-47.5 25.5q-22 0 -36.5 -19.5t-14.5 -45.5q0 -45 20.5 -73.5zM299 480q-39 -37 -102 -37t-100 36t-37 93q0 55 38.5 91.5t98.5 36.5q67 0 104 -35.5t37 -91.5t-39 -93z"/>
<glyph glyph-name="plusminus" horiz-adv-x="573" unicode="±" d="M508 73l-209 1l-189 -1q-16 -1 -51 -1q0 15 3 32.5t7 25.5h449q0 -38 -10 -57zM262 218q1 33 1 92q-93 0 -162 -2q0 15 3 33t7 26h152q0 74 -1 145q19 10 60 10v-155h164q0 -39 -10 -57l-74 1q-46 0 -80 -1v-137q-7 -4 -26.5 -7t-34.5 -3z"/>
<glyph glyph-name="twosuperior" horiz-adv-x="375" unicode="²" d="M294 563.5q-15 -25.5 -46 -51.5q-41 -33 -87 -73h66q28 0 41 11.5t14 39.5q30 0 47 -5q0 -71 7 -107q-9 -20 -34 -20q-29 0 -48 1l-81 1l-82 -1q-17 -1 -42 -1q-10 16 -10 38q34 34 98 90q40 36 56 63t16 61q0 26 -13 42t-33 16q-22 0 -31.5 -19.5t-16.5 -76.5 q-37 0 -58 7q3 24 3 52q0 35 -4 56q32 17 61.5 23.5t72.5 6.5q48 0 83.5 -22t35.5 -69q0 -37 -15 -62.5z"/>
<glyph glyph-name="threesuperior" horiz-adv-x="380" unicode="³" d="M314 677q-53 -58 -115 -144h9q51 0 89 -33t38 -96q0 -44 -23.5 -80t-68 -57.5t-105.5 -21.5q-65 0 -104 31q9 22 25 37q10 -7 30 -12.5t46 -5.5q40 0 71 27t31 73q0 36 -21 59.5t-58 23.5q-12 0 -22 -3q-17 13 -21 34q70 85 103 132h-56q-28 0 -40.5 -10.5t-26.5 -43.5 q-28 0 -43 10q9 53 9 119q23 -1 129 -1q97 0 115 1q9 -17 9 -39z"/>
<glyph glyph-name="acute" horiz-adv-x="540" unicode="´" d="M370 720q19 0 39 -6q-63 -73 -132 -183h-9q-25 0 -44 10q45 89 64 167q33 12 71 12h11z"/>
<glyph glyph-name="uni00B5" horiz-adv-x="585" unicode="µ" d="M550 36q-20 -20 -50 -32.5t-59 -12.5q-39 0 -57 22.5t-20 65.5q-16 -38 -49.5 -61t-77.5 -23q-53 0 -75 37v-76q0 -83 15 -135q-46 -25 -91 -70q-10 5 -18 16t-10 24q8 17 10.5 35.5t2.5 65.5v550q25 3 51.5 10t40.5 15q25 -10 25 -50v-223q0 -68 17 -97t52 -29 q44 0 71 41.5t27 123.5v209q25 3 52 10.5t40 14.5q26 -10 26 -50v-253q0 -51 7 -70.5t25 -19.5q14 0 26 9q15 -19 19 -47z"/>
<glyph glyph-name="paragraph" horiz-adv-x="565" unicode="¶" d="M298 632q-78 -3 -110 -33.5t-32 -103.5q0 -68 38 -103t93 -35h11v275zM544 679q0 -33 -7 -52q-29 -1 -43.5 -10.5t-19 -28t-4.5 -54.5v-783q-33 0 -58 12v863q-21 3 -56 5v-880q-35 0 -58 11v548q-11 -2 -32 -2q-115 0 -172.5 41.5t-57.5 140.5q0 86 65 137.5t201 51.5 q34 0 86 -2l65 -1q62 0 91 3z"/>
<glyph glyph-name="periodcentered" horiz-adv-x="261" unicode="·" d="M181 227.5q-20 -19.5 -51 -19.5q-33 0 -51.5 18t-18.5 48t21 49.5t53 19.5q30 0 48.5 -20t18.5 -44q0 -32 -20 -51.5z"/>
<glyph glyph-name="cedilla" horiz-adv-x="540" unicode="¸" d="M347.5 -80q23.5 -25 23.5 -60q0 -47 -42.5 -74.5t-98.5 -27.5q-8 13 -8 37q32 0 55.5 14t23.5 38q0 22 -18 35.5t-45 13.5q-18 18 -18 41l54 79h57l-47 -64q40 -7 63.5 -32z"/>
<glyph glyph-name="onesuperior" horiz-adv-x="321" unicode="¹" d="M222 422q12 -14 42 -15q4 -21 4 -50q-46 3 -105 3q-61 0 -109 -3q0 31 5 50q30 1 41.5 15t11.5 48v128q0 33 -12.5 48.5t-41.5 16.5q-4 21 -4 51q33 -3 109 -3q66 0 105 3q0 -30 -4 -51q-29 -1 -41.5 -16.5t-12.5 -48.5v-128q0 -34 12 -48z"/>
<glyph glyph-name="ordmasculine" horiz-adv-x="428" unicode="º" d="M268.5 436q16.5 33 16.5 87q0 70 -23 109.5t-56 39.5q-30 0 -46 -32t-16 -85q0 -69 20.5 -110.5t57.5 -41.5q30 0 46.5 33zM345 668.5q45 -48.5 45 -128.5q0 -84 -48.5 -133.5t-130.5 -49.5t-128 47.5t-46 128.5q0 56 23 98t63.5 64t91.5 22q85 0 130 -48.5z"/>
<glyph glyph-name="guillemotright" horiz-adv-x="515" unicode="»" d="M169 246q-30 58 -86 147q8 8 22.5 13t29.5 6q55 -63 121 -125q8 -17 8 -47q-72 -82 -131 -157q-25 13 -40 38q42 64 76 125zM356 245q-39 64 -103 155q19 16 48 16q68 -64 145 -128q9 -18 9 -46q-75 -74 -157 -164q-22 12 -34 37q50 63 92 130z"/>
<glyph glyph-name="onequarter" horiz-adv-x="889" unicode="¼" d="M96 615.5q-6 14.5 -21.5 20.5t-46.5 7q0 32 8 49q79 9 144 37q13 -5 17.5 -14t4.5 -32v-255q0 -40 5.5 -60.5t18 -28t35.5 -9.5q5 -15 5 -52q-32 3 -117 3q-74 0 -115 -3q0 32 5 52q25 2 38 8.5t19 25.5t6 57v152q0 28 -6 42.5zM191 2.5q-15 7.5 -21 15.5l513 697 q13 -2 28 -10t24 -17l-512 -696q-17 3 -32 10.5zM584 202h97v131zM840 120h-62q0 -30 5 -44.5t15 -19t31 -5.5q5 -16 5 -54q-41 3 -112 3q-77 0 -111 -3q0 43 5 54q36 2 50.5 15t14.5 53q-100 -1 -171 -7q-8 9 -14 24.5t-6 29.5q139 167 221 285l16 1q29 0 51 -8v-242h45 q14 0 21.5 -3t13.5 -11q-13 -24 -18 -68z"/>
<glyph glyph-name="onehalf" horiz-adv-x="974" unicode="½" d="M96 615.5q-6 14.5 -21.5 20.5t-46.5 7q0 32 8 49q79 9 144 37q13 -5 17.5 -14t4.5 -32v-255q0 -40 5.5 -60.5t18 -28t35.5 -9.5q5 -15 5 -52q-32 3 -117 3q-74 0 -115 -3q0 32 5 52q25 2 38 8.5t19 25.5t6 57v152q0 28 -6 42.5zM191 2.5q-15 7.5 -21 15.5l513 697 q13 -2 28 -10t24 -17l-512 -696q-17 3 -32 10.5zM893.5 270q-22.5 -34 -67.5 -73q-57 -49 -104 -102h107q27 0 39.5 9t13.5 34h14q23 0 38 -5v-28q0 -59 7 -88q-5 -10 -16.5 -14t-33.5 -4l-101 1l-168 -1q-13 13 -13 44q33 39 63 70l77 78q31 33 45 64.5t14 70.5 q0 36 -15 57t-46 21q-30 0 -44.5 -21t-21.5 -73q-36 0 -59 9q4 23 4 54q0 29 -2 44q57 32 146 32q66 0 106 -26t40 -80q0 -39 -22.5 -73z"/>
<glyph glyph-name="threequarters" horiz-adv-x="917" unicode="¾" d="M330 687q-51 -57 -120 -137q59 -2 99.5 -31t40.5 -89q0 -72 -54 -114.5t-141 -42.5q-43 0 -72.5 10.5t-43.5 23.5v6q0 22 13 36q38 -23 91 -23q45 0 71.5 21t26.5 60q0 31 -23.5 49.5t-55.5 18.5q-20 0 -31 -5q-8 8 -14 20.5t-7 21.5l18 20q68 74 93 107h-63 q-23 0 -37 -12.5t-27 -44.5q-29 0 -46 12q6 24 8 64q2 28 2 51v17q50 -2 138 -2l93 1q12 1 28 1q13 -15 13 -39zM218 2.5q-15 7.5 -21 15.5l513 697q13 -2 28 -10t24 -17l-512 -696q-17 3 -32 10.5zM611 202h97v131zM867 120h-62q0 -30 5 -44.5t15 -19t31 -5.5q5 -16 5 -54 q-41 3 -112 3q-77 0 -111 -3q0 43 5 54q36 2 50.5 15t14.5 53q-100 -1 -171 -7q-8 9 -14 24.5t-6 29.5q139 167 221 285l16 1q29 0 51 -8v-242h45q14 0 21.5 -3t13.5 -11q-13 -24 -18 -68z"/>
<glyph glyph-name="questiondown" horiz-adv-x="537" unicode="¿" d="M204.5 446.5q20.5 19.5 51.5 19.5q32 0 50.5 -18t18.5 -48t-21 -49.5t-53 -19.5q-29 0 -48 20t-19 44q0 32 20.5 51.5zM128 -224q-45 33 -45 93q0 45 19 78t56 74q38 43 56.5 75t18.5 77q0 35 -12 73q21 11 51 11q20 -14 35 -49t15 -75q0 -47 -17.5 -78t-50.5 -67 q-27 -30 -40.5 -53t-13.5 -53q0 -40 21 -64t50 -24q33 0 52 30t27 101q44 0 70 -14q-3 -38 -3 -67q0 -27 3 -57q-74 -44 -169 -44q-78 0 -123 33z"/>
<glyph glyph-name="Agrave" horiz-adv-x="708" unicode="À" d="M352 408q-27 60 -46 119q-18 -58 -41 -119l-58 -152h210zM687 -3q-39 3 -126 3q-94 0 -131 -3q0 34 8 53q25 3 36.5 10t11.5 21q0 15 -14 46l-33 78q-155 0 -254 -5l-20 -52q-13 -33 -13 -55q0 -39 49 -43q8 -24 8 -53q-34 3 -102 3q-29 0 -86 -3q0 31 8 52 q26 5 40.5 25.5t39.5 80.5l208 522q21 5 49 5l234 -530q19 -42 31 -62.5t22.5 -29t26.5 -10.5q7 -24 7 -53zM201 917q35 16 83 16q12 0 32 -2q31 -98 71 -172q-15 -7 -44 -7h-14q-64 99 -128 165z"/>
<glyph glyph-name="Aacute" horiz-adv-x="708" unicode="Á" d="M352 408q-27 60 -46 119q-18 -58 -41 -119l-58 -152h210zM687 -3q-39 3 -126 3q-94 0 -131 -3q0 34 8 53q25 3 36.5 10t11.5 21q0 15 -14 46l-33 78q-155 0 -254 -5l-20 -52q-13 -33 -13 -55q0 -39 49 -43q8 -24 8 -53q-34 3 -102 3q-29 0 -86 -3q0 31 8 52 q26 5 40.5 25.5t39.5 80.5l208 522q21 5 49 5l234 -530q19 -42 31 -62.5t22.5 -29t26.5 -10.5q7 -24 7 -53zM451 938q19 0 39 -6q-63 -73 -132 -183h-9q-25 0 -44 10q45 89 64 167q33 12 71 12h11z"/>
<glyph glyph-name="Acircumflex" horiz-adv-x="708" unicode="Â" d="M352 408q-27 60 -46 119q-18 -58 -41 -119l-58 -152h210zM687 -3q-39 3 -126 3q-94 0 -131 -3q0 34 8 53q25 3 36.5 10t11.5 21q0 15 -14 46l-33 78q-155 0 -254 -5l-20 -52q-13 -33 -13 -55q0 -39 49 -43q8 -24 8 -53q-34 3 -102 3q-29 0 -86 -3q0 31 8 52 q26 5 40.5 25.5t39.5 80.5l208 522q21 5 49 5l234 -530q19 -42 31 -62.5t22.5 -29t26.5 -10.5q7 -24 7 -53zM380 931q63 -84 150 -165q-20 -22 -47 -27l-27 19q-80 56 -111 72q-24 -12 -72.5 -43.5t-74.5 -52.5q-11 6 -17.5 19t-8.5 25q92 67 160 146q21 7 48 7z"/>
<glyph glyph-name="Atilde" horiz-adv-x="708" unicode="Ã" d="M352 408q-27 60 -46 119q-18 -58 -41 -119l-58 -152h210zM687 -3q-39 3 -126 3q-94 0 -131 -3q0 34 8 53q25 3 36.5 10t11.5 21q0 15 -14 46l-33 78q-155 0 -254 -5l-20 -52q-13 -33 -13 -55q0 -39 49 -43q8 -24 8 -53q-34 3 -102 3q-29 0 -86 -3q0 31 8 52 q26 5 40.5 25.5t39.5 80.5l208 522q21 5 49 5l234 -530q19 -42 31 -62.5t22.5 -29t26.5 -10.5q7 -24 7 -53zM288 862q18 0 33 -5t40 -16q23 -10 36.5 -15t28.5 -5q37 0 67 31q19 -6 26 -20q-26 -56 -53 -80.5t-58 -24.5q-16 0 -30.5 5t-40.5 16q-23 11 -39 16.5t-33 5.5 q-44 0 -83 -40q-17 12 -18 32q59 100 124 100z"/>
<glyph glyph-name="Adieresis" horiz-adv-x="708" unicode="Ä" d="M352 408q-27 60 -46 119q-18 -58 -41 -119l-58 -152h210zM687 -3q-39 3 -126 3q-94 0 -131 -3q0 34 8 53q25 3 36.5 10t11.5 21q0 15 -14 46l-33 78q-155 0 -254 -5l-20 -52q-13 -33 -13 -55q0 -39 49 -43q8 -24 8 -53q-34 3 -102 3q-29 0 -86 -3q0 31 8 52 q26 5 40.5 25.5t39.5 80.5l208 522q21 5 49 5l234 -530q19 -42 31 -62.5t22.5 -29t26.5 -10.5q7 -24 7 -53zM500 762.5q-16 -18.5 -49 -18.5q-34 0 -52.5 17.5t-18.5 47.5q0 27 19 43t49 16q29 0 48.5 -17t19.5 -42q0 -28 -16 -46.5zM186.5 849q16.5 19 49.5 19 q34 0 51 -17.5t17 -46.5q0 -26 -19 -43.5t-47 -17.5q-30 0 -49 17t-19 42q0 28 16.5 47z"/>
<glyph glyph-name="Aring" horiz-adv-x="708" unicode="Å" d="M352 408q-27 60 -46 119q-18 -58 -41 -119l-58 -152h210zM687 -3q-39 3 -126 3q-94 0 -131 -3q0 34 8 53q25 3 36.5 10t11.5 21q0 15 -14 46l-33 78q-155 0 -254 -5l-20 -52q-13 -33 -13 -55q0 -39 49 -43q8 -24 8 -53q-34 3 -102 3q-29 0 -86 -3q0 31 8 52 q26 5 40.5 25.5t39.5 80.5l208 522q21 5 49 5l234 -530q19 -42 31 -62.5t22.5 -29t26.5 -10.5q7 -24 7 -53zM373 797.5q11 12.5 11 33.5q0 23 -12 42t-35 19q-17 0 -27.5 -14.5t-10.5 -39.5q0 -23 12.5 -38t34.5 -15q16 0 27 12.5zM421 909q31 -23 31 -68q0 -43 -33 -71.5 t-83 -28.5q-44 0 -75 25.5t-31 66.5q0 43 33 71t82 28q45 0 76 -23z"/>
<glyph glyph-name="AE" horiz-adv-x="954" unicode="Æ" d="M471 540q0 43 4 79q-7 -16 -38 -73l-116 -202h150v196zM882 -2q-130 2 -260 2q-121 0 -223 -2q0 33 8 52q28 3 41 11.5t18 28.5t5 62v142q-124 -2 -183 -7q-28 -48 -72 -128q-25 -47 -25 -71q0 -18 11.5 -27t33.5 -13q8 -19 8 -51q-47 3 -108 3q-74 0 -104 -3q0 35 8 52 q29 4 50 23.5t55 79.5l228 394q16 28 16 45q0 29 -56 35q-8 19 -8 52q104 -2 173 -2h62q173 0 297 2q6 -98 21 -163q-8 -6 -25.5 -9.5t-35.5 -3.5q-6 57 -40 90.5t-117 33.5h-65v-282h40q53 0 72.5 18t20.5 61q30 9 59 9q-2 -48 -2 -114q0 -67 2 -115q-41 0 -57 6 q-3 31 -10.5 49t-28.5 27.5t-62 9.5h-34v-142q0 -43 8 -64.5t23 -28.5t41 -7h23q53 0 82.5 13t46 39t35.5 77q43 -11 59 -27q-20 -60 -31 -157z"/>
<glyph glyph-name="Ccedilla" horiz-adv-x="648" unicode="Ç" d="M431.5 -80q23.5 -25 23.5 -60q0 -47 -42.5 -74.5t-98.5 -27.5q-8 13 -8 37q32 0 55.5 14t23.5 38q0 22 -18 35.5t-45 13.5q-18 18 -18 41l37 54q-90 5 -159.5 50.5t-108 123.5t-38.5 177q0 110 47 187.5t124 116.5t166 39q111 0 221 -52q-11 -57 -11 -155 q-21 -10 -66 -10q-2 93 -36.5 129.5t-100.5 36.5q-107 0 -159 -76t-52 -189q0 -88 28 -158t82 -110t129 -40q44 0 90 14t88 40q7 -6 13 -17t8 -20q-48 -38 -98 -59.5t-110 -26.5l-30 -40q40 -7 63.5 -32z"/>
<glyph glyph-name="Egrave" horiz-adv-x="614" unicode="È" d="M580 155q-22 -68 -31 -157q-90 2 -227 2q-199 0 -273 -3q0 37 6 53q28 2 42 10t20 29t6 63v381q0 37 -6 56t-20.5 27t-42.5 10q-5 17 -5 53q67 -3 196 -3q161 0 278 3q10 -113 21 -164q-22 -13 -60 -13q-6 57 -40 90.5t-117 33.5h-81v-261h46q58 0 80 16.5t23 62.5 q24 8 59 8q-3 -49 -3 -111q0 -67 3 -117q-37 0 -57 6q-4 49 -26 66t-79 17h-46v-160q0 -41 7.5 -62t26 -29.5t54.5 -8.5h9q59 0 92.5 14t51 40t33.5 75q39 -8 60 -27zM154 917q35 16 83 16q12 0 32 -2q31 -98 71 -172q-15 -7 -44 -7h-14q-64 99 -128 165z"/>
<glyph glyph-name="Eacute" horiz-adv-x="614" unicode="É" d="M580 155q-22 -68 -31 -157q-90 2 -227 2q-199 0 -273 -3q0 37 6 53q28 2 42 10t20 29t6 63v381q0 37 -6 56t-20.5 27t-42.5 10q-5 17 -5 53q67 -3 196 -3q161 0 278 3q10 -113 21 -164q-22 -13 -60 -13q-6 57 -40 90.5t-117 33.5h-81v-261h46q58 0 80 16.5t23 62.5 q24 8 59 8q-3 -49 -3 -111q0 -67 3 -117q-37 0 -57 6q-4 49 -26 66t-79 17h-46v-160q0 -41 7.5 -62t26 -29.5t54.5 -8.5h9q59 0 92.5 14t51 40t33.5 75q39 -8 60 -27zM404 938q19 0 39 -6q-63 -73 -132 -183h-9q-25 0 -44 10q45 89 64 167q33 12 71 12h11z"/>
<glyph glyph-name="Ecircumflex" horiz-adv-x="614" unicode="Ê" d="M580 155q-22 -68 -31 -157q-90 2 -227 2q-199 0 -273 -3q0 37 6 53q28 2 42 10t20 29t6 63v381q0 37 -6 56t-20.5 27t-42.5 10q-5 17 -5 53q67 -3 196 -3q161 0 278 3q10 -113 21 -164q-22 -13 -60 -13q-6 57 -40 90.5t-117 33.5h-81v-261h46q58 0 80 16.5t23 62.5 q24 8 59 8q-3 -49 -3 -111q0 -67 3 -117q-37 0 -57 6q-4 49 -26 66t-79 17h-46v-160q0 -41 7.5 -62t26 -29.5t54.5 -8.5h9q59 0 92.5 14t51 40t33.5 75q39 -8 60 -27zM333 931q63 -84 150 -165q-20 -22 -47 -27l-27 19q-80 56 -111 72q-24 -12 -72.5 -43.5t-74.5 -52.5 q-11 6 -17.5 19t-8.5 25q92 67 160 146q21 7 48 7z"/>
<glyph glyph-name="Edieresis" horiz-adv-x="614" unicode="Ë" d="M580 155q-22 -68 -31 -157q-90 2 -227 2q-199 0 -273 -3q0 37 6 53q28 2 42 10t20 29t6 63v381q0 37 -6 56t-20.5 27t-42.5 10q-5 17 -5 53q67 -3 196 -3q161 0 278 3q10 -113 21 -164q-22 -13 -60 -13q-6 57 -40 90.5t-117 33.5h-81v-261h46q58 0 80 16.5t23 62.5 q24 8 59 8q-3 -49 -3 -111q0 -67 3 -117q-37 0 -57 6q-4 49 -26 66t-79 17h-46v-160q0 -41 7.5 -62t26 -29.5t54.5 -8.5h9q59 0 92.5 14t51 40t33.5 75q39 -8 60 -27zM453 762.5q-16 -18.5 -49 -18.5q-34 0 -52.5 17.5t-18.5 47.5q0 27 19 43t49 16q29 0 48.5 -17t19.5 -42 q0 -28 -16 -46.5zM139.5 849q16.5 19 49.5 19q34 0 51 -17.5t17 -46.5q0 -26 -19 -43.5t-47 -17.5q-30 0 -49 17t-19 42q0 28 16.5 47z"/>
<glyph glyph-name="Igrave" horiz-adv-x="369" unicode="Ì" d="M117 589q-6 19 -20 27t-42 10q-6 21 -6 53q54 -3 137 -3q74 0 134 3q0 -38 -6 -53q-28 -2 -42 -10t-20 -27t-6 -56v-389q0 -38 6 -57t20 -27t42 -10q6 -16 6 -53q-55 3 -131 3q-84 0 -140 -3q0 34 6 53q28 2 42 10t20 27t6 57v389q0 37 -6 56zM43 917q35 16 83 16 q12 0 32 -2q31 -98 71 -172q-15 -7 -44 -7h-14q-64 99 -128 165z"/>
<glyph glyph-name="Iacute" horiz-adv-x="369" unicode="Í" d="M117 589q-6 19 -20 27t-42 10q-6 21 -6 53q54 -3 137 -3q74 0 134 3q0 -38 -6 -53q-28 -2 -42 -10t-20 -27t-6 -56v-389q0 -38 6 -57t20 -27t42 -10q6 -16 6 -53q-55 3 -131 3q-84 0 -140 -3q0 34 6 53q28 2 42 10t20 27t6 57v389q0 37 -6 56zM293 938q19 0 39 -6 q-63 -73 -132 -183h-9q-25 0 -44 10q45 89 64 167q33 12 71 12h11z"/>
<glyph glyph-name="Icircumflex" horiz-adv-x="369" unicode="Î" d="M117 589q-6 19 -20 27t-42 10q-6 21 -6 53q54 -3 137 -3q74 0 134 3q0 -38 -6 -53q-28 -2 -42 -10t-20 -27t-6 -56v-389q0 -38 6 -57t20 -27t42 -10q6 -16 6 -53q-55 3 -131 3q-84 0 -140 -3q0 34 6 53q28 2 42 10t20 27t6 57v389q0 37 -6 56zM222 931q63 -84 150 -165 q-20 -22 -47 -27l-27 19q-80 56 -111 72q-24 -12 -72.5 -43.5t-74.5 -52.5q-11 6 -17.5 19t-8.5 25q92 67 160 146q21 7 48 7z"/>
<glyph glyph-name="Idieresis" horiz-adv-x="369" unicode="Ï" d="M117 589q-6 19 -20 27t-42 10q-6 21 -6 53q54 -3 137 -3q74 0 134 3q0 -38 -6 -53q-28 -2 -42 -10t-20 -27t-6 -56v-389q0 -38 6 -57t20 -27t42 -10q6 -16 6 -53q-55 3 -131 3q-84 0 -140 -3q0 34 6 53q28 2 42 10t20 27t6 57v389q0 37 -6 56zM342 762.5 q-16 -18.5 -49 -18.5q-34 0 -52.5 17.5t-18.5 47.5q0 27 19 43t49 16q29 0 48.5 -17t19.5 -42q0 -28 -16 -46.5zM28.5 849q16.5 19 49.5 19q34 0 51 -17.5t17 -46.5q0 -26 -19 -43.5t-47 -17.5q-30 0 -49 17t-19 42q0 28 16.5 47z"/>
<glyph glyph-name="Eth" horiz-adv-x="737" unicode="Ð" d="M506.5 116.5q63.5 63.5 63.5 222.5q0 151 -72.5 221t-183.5 70q-37 0 -64 -9v-313h167q0 -38 -12 -61q-62 1 -155 1v-95q0 -41 7 -62t25.5 -29.5t54.5 -8.5q106 0 169.5 63.5zM596 609.5q104 -68.5 104 -254.5q0 -148 -65 -226.5t-148 -103.5t-162 -25q-200 0 -273 -3 q0 37 6 53q28 2 42 10t20 29t6 63v96l-63 -1l-30 -1q0 16 3.5 34.5t8.5 27.5h81v225q0 37 -6 56t-20 27t-42 10q-6 21 -6 53q54 -3 160 -3q72 2 114 2q166 0 270 -68.5z"/>
<glyph glyph-name="Ntilde" horiz-adv-x="733" unicode="Ñ" d="M695 679q0 -36 -5 -53q-24 -1 -36.5 -13.5t-18 -42.5t-5.5 -86v-487q-19 -6 -55 -6l-395 521v-316q0 -58 6 -88.5t21.5 -43.5t44.5 -14q6 -18 6 -53q-45 3 -105 3q-84 0 -108 -2q0 33 5 52q29 1 44.5 14t22 43.5t6.5 88.5v391l-7 9q-13 16 -25.5 22t-40.5 8q-5 21 -5 53 q32 -3 90 -3q49 0 80 3l357 -478v283q0 57 -6 86.5t-21.5 42t-45.5 13.5q-6 28 -6 53q44 -3 104 -3q59 0 98 3zM318 862q18 0 33 -5t40 -16q23 -10 36.5 -15t28.5 -5q37 0 67 31q19 -6 26 -20q-26 -56 -53 -80.5t-58 -24.5q-16 0 -30.5 5t-40.5 16q-23 11 -39 16.5t-33 5.5 q-44 0 -83 -40q-17 12 -18 32q59 100 124 100z"/>
<glyph glyph-name="Ograve" horiz-adv-x="739" unicode="Ò" d="M486 83q42 35 64.5 96.5t22.5 139.5q0 86 -28.5 157t-79.5 112.5t-115 41.5q-53 0 -95 -32.5t-65.5 -92.5t-23.5 -139q0 -85 26 -157.5t76 -116.5t119 -44q57 0 99 35zM542.5 642q76.5 -43 119 -120t42.5 -178q0 -100 -42.5 -180.5t-118.5 -126.5t-174 -46 q-100 0 -175.5 45t-117 124.5t-41.5 179.5q0 102 43.5 180t119.5 121.5t171 43.5q97 0 173.5 -43zM229 917q35 16 83 16q12 0 32 -2q31 -98 71 -172q-15 -7 -44 -7h-14q-64 99 -128 165z"/>
<glyph glyph-name="Oacute" horiz-adv-x="739" unicode="Ó" d="M486 83q42 35 64.5 96.5t22.5 139.5q0 86 -28.5 157t-79.5 112.5t-115 41.5q-53 0 -95 -32.5t-65.5 -92.5t-23.5 -139q0 -85 26 -157.5t76 -116.5t119 -44q57 0 99 35zM542.5 642q76.5 -43 119 -120t42.5 -178q0 -100 -42.5 -180.5t-118.5 -126.5t-174 -46 q-100 0 -175.5 45t-117 124.5t-41.5 179.5q0 102 43.5 180t119.5 121.5t171 43.5q97 0 173.5 -43zM479 938q19 0 39 -6q-63 -73 -132 -183h-9q-25 0 -44 10q45 89 64 167q33 12 71 12h11z"/>
<glyph glyph-name="Ocircumflex" horiz-adv-x="739" unicode="Ô" d="M486 83q42 35 64.5 96.5t22.5 139.5q0 86 -28.5 157t-79.5 112.5t-115 41.5q-53 0 -95 -32.5t-65.5 -92.5t-23.5 -139q0 -85 26 -157.5t76 -116.5t119 -44q57 0 99 35zM542.5 642q76.5 -43 119 -120t42.5 -178q0 -100 -42.5 -180.5t-118.5 -126.5t-174 -46 q-100 0 -175.5 45t-117 124.5t-41.5 179.5q0 102 43.5 180t119.5 121.5t171 43.5q97 0 173.5 -43zM408 931q63 -84 150 -165q-20 -22 -47 -27l-27 19q-80 56 -111 72q-24 -12 -72.5 -43.5t-74.5 -52.5q-11 6 -17.5 19t-8.5 25q92 67 160 146q21 7 48 7z"/>
<glyph glyph-name="Otilde" horiz-adv-x="739" unicode="Õ" d="M486 83q42 35 64.5 96.5t22.5 139.5q0 86 -28.5 157t-79.5 112.5t-115 41.5q-53 0 -95 -32.5t-65.5 -92.5t-23.5 -139q0 -85 26 -157.5t76 -116.5t119 -44q57 0 99 35zM542.5 642q76.5 -43 119 -120t42.5 -178q0 -100 -42.5 -180.5t-118.5 -126.5t-174 -46 q-100 0 -175.5 45t-117 124.5t-41.5 179.5q0 102 43.5 180t119.5 121.5t171 43.5q97 0 173.5 -43zM316 862q18 0 33 -5t40 -16q23 -10 36.5 -15t28.5 -5q37 0 67 31q19 -6 26 -20q-26 -56 -53 -80.5t-58 -24.5q-16 0 -30.5 5t-40.5 16q-23 11 -39 16.5t-33 5.5 q-44 0 -83 -40q-17 12 -18 32q59 100 124 100z"/>
<glyph glyph-name="Odieresis" horiz-adv-x="739" unicode="Ö" d="M486 83q42 35 64.5 96.5t22.5 139.5q0 86 -28.5 157t-79.5 112.5t-115 41.5q-53 0 -95 -32.5t-65.5 -92.5t-23.5 -139q0 -85 26 -157.5t76 -116.5t119 -44q57 0 99 35zM542.5 642q76.5 -43 119 -120t42.5 -178q0 -100 -42.5 -180.5t-118.5 -126.5t-174 -46 q-100 0 -175.5 45t-117 124.5t-41.5 179.5q0 102 43.5 180t119.5 121.5t171 43.5q97 0 173.5 -43zM528 762.5q-16 -18.5 -49 -18.5q-34 0 -52.5 17.5t-18.5 47.5q0 27 19 43t49 16q29 0 48.5 -17t19.5 -42q0 -28 -16 -46.5zM214.5 849q16.5 19 49.5 19q34 0 51 -17.5 t17 -46.5q0 -26 -19 -43.5t-47 -17.5q-30 0 -49 17t-19 42q0 28 16.5 47z"/>
<glyph glyph-name="multiply" horiz-adv-x="640" unicode="×" d="M560 -1.5q-17 -7.5 -37 -7.5q-88 91 -201 202l-195 -202q-47 0 -65 22l220 219q-148 142 -223 211q25 28 60 28l204 -198l198 198q41 -5 60 -27q-93 -86 -218 -210l223 -215q-9 -13 -26 -20.5z"/>
<glyph glyph-name="Oslash" horiz-adv-x="741" unicode="Ø" d="M486 83q42 35 64.5 96.5t22.5 139.5q0 104 -41 184l-293 -382q58 -73 148 -73q57 0 99 35zM254.5 597.5q-41.5 -32.5 -65 -92.5t-23.5 -139q0 -108 39 -189l291 381q-61 72 -146 72q-54 0 -95.5 -32.5zM678.5 484q25.5 -64 25.5 -140q0 -100 -42.5 -180.5t-118.5 -126.5 t-174 -46q-112 0 -193 56l-60 -75q-19 0 -36 6t-25 16l75 92q-46 48 -70.5 112.5t-24.5 141.5q0 102 43.5 180t119.5 121.5t171 43.5q107 0 189 -52l52 68q44 0 66 -18l-69 -89q46 -46 71.5 -110z"/>
<glyph glyph-name="Ugrave" horiz-adv-x="681" unicode="Ù" d="M565 130q-12 -50 -46 -83q-56 -56 -166 -56q-94 0 -148.5 26.5t-78 79.5t-23.5 136v299q0 39 -5 57.5t-17 25.5t-39 11q-6 19 -6 53q40 -3 121 -3q95 0 142 3q0 -32 -5 -53q-31 -3 -44.5 -10t-18.5 -25.5t-5 -58.5v-284q0 -94 35.5 -145t118.5 -51q27 0 54.5 9.5 t45.5 29.5q22 23 30.5 61t8.5 116v229q0 50 -5.5 76t-19.5 38t-43 15q-5 28 -5 53q36 -3 99 -3q59 0 98 3q0 -27 -6 -53q-24 -3 -37 -14.5t-18 -37t-5 -74.5v-229q0 -91 -12 -141zM231 917q35 16 83 16q12 0 32 -2q31 -98 71 -172q-15 -7 -44 -7h-14q-64 99 -128 165z"/>
<glyph glyph-name="Uacute" horiz-adv-x="681" unicode="Ú" d="M565 130q-12 -50 -46 -83q-56 -56 -166 -56q-94 0 -148.5 26.5t-78 79.5t-23.5 136v299q0 39 -5 57.5t-17 25.5t-39 11q-6 19 -6 53q40 -3 121 -3q95 0 142 3q0 -32 -5 -53q-31 -3 -44.5 -10t-18.5 -25.5t-5 -58.5v-284q0 -94 35.5 -145t118.5 -51q27 0 54.5 9.5 t45.5 29.5q22 23 30.5 61t8.5 116v229q0 50 -5.5 76t-19.5 38t-43 15q-5 28 -5 53q36 -3 99 -3q59 0 98 3q0 -27 -6 -53q-24 -3 -37 -14.5t-18 -37t-5 -74.5v-229q0 -91 -12 -141zM481 938q19 0 39 -6q-63 -73 -132 -183h-9q-25 0 -44 10q45 89 64 167q33 12 71 12h11z"/>
<glyph glyph-name="Ucircumflex" horiz-adv-x="681" unicode="Û" d="M565 130q-12 -50 -46 -83q-56 -56 -166 -56q-94 0 -148.5 26.5t-78 79.5t-23.5 136v299q0 39 -5 57.5t-17 25.5t-39 11q-6 19 -6 53q40 -3 121 -3q95 0 142 3q0 -32 -5 -53q-31 -3 -44.5 -10t-18.5 -25.5t-5 -58.5v-284q0 -94 35.5 -145t118.5 -51q27 0 54.5 9.5 t45.5 29.5q22 23 30.5 61t8.5 116v229q0 50 -5.5 76t-19.5 38t-43 15q-5 28 -5 53q36 -3 99 -3q59 0 98 3q0 -27 -6 -53q-24 -3 -37 -14.5t-18 -37t-5 -74.5v-229q0 -91 -12 -141zM410 931q63 -84 150 -165q-20 -22 -47 -27l-27 19q-80 56 -111 72q-24 -12 -72.5 -43.5 t-74.5 -52.5q-11 6 -17.5 19t-8.5 25q92 67 160 146q21 7 48 7z"/>
<glyph glyph-name="Udieresis" horiz-adv-x="681" unicode="Ü" d="M565 130q-12 -50 -46 -83q-56 -56 -166 -56q-94 0 -148.5 26.5t-78 79.5t-23.5 136v299q0 39 -5 57.5t-17 25.5t-39 11q-6 19 -6 53q40 -3 121 -3q95 0 142 3q0 -32 -5 -53q-31 -3 -44.5 -10t-18.5 -25.5t-5 -58.5v-284q0 -94 35.5 -145t118.5 -51q27 0 54.5 9.5 t45.5 29.5q22 23 30.5 61t8.5 116v229q0 50 -5.5 76t-19.5 38t-43 15q-5 28 -5 53q36 -3 99 -3q59 0 98 3q0 -27 -6 -53q-24 -3 -37 -14.5t-18 -37t-5 -74.5v-229q0 -91 -12 -141zM531 762.5q-16 -18.5 -49 -18.5q-34 0 -52.5 17.5t-18.5 47.5q0 27 19 43t49 16 q29 0 48.5 -17t19.5 -42q0 -28 -16 -46.5zM217.5 849q16.5 19 49.5 19q34 0 51 -17.5t17 -46.5q0 -26 -19 -43.5t-47 -17.5q-30 0 -49 17t-19 42q0 28 16.5 47z"/>
<glyph glyph-name="Yacute" horiz-adv-x="631" unicode="Ý" d="M610 678q0 -23 -5 -50q-26 -6 -47.5 -29t-44.5 -72l-132 -272v-82q0 -54 6 -77.5t22 -32.5t55 -13q7 -20 7 -53q-72 3 -151 3q-83 0 -157 -2q0 31 7 52q42 3 59 11t23 30t6 73v90l-159 314q-16 32 -31.5 45t-40.5 14q-6 20 -6 51q66 -2 122 -2q109 0 143 2q0 -29 -5 -50 q-23 -2 -33 -9.5t-10 -21.5q0 -17 17 -51q50 -100 104 -226q49 115 99 217q18 36 18 55q0 29 -45 35q-8 26 -8 51q27 -2 99 -2q38 0 88 2zM461 938q19 0 39 -6q-63 -73 -132 -183h-9q-25 0 -44 10q45 89 64 167q33 12 71 12h11z"/>
<glyph glyph-name="Thorn" horiz-adv-x="616" unicode="Þ" d="M526.5 489q53.5 -52 53.5 -134q0 -53 -27 -100t-79.5 -76t-123.5 -29q-40 0 -70 10q-2 12 -2 17q0 14 5 27q20 -4 46 -4q56 0 92.5 31.5t36.5 105.5q0 71 -38.5 113t-114.5 42q-29 0 -58 -7v-341q0 -38 6 -57t20 -27t42 -10q6 -20 6 -53q-57 3 -132 3q-83 0 -140 -3 q0 33 6 53q28 2 42 10t20 27t6 57v389q0 37 -6 56t-20 27t-42 10q-6 21 -6 53q54 -3 137 -3q75 0 135 3q0 -36 -7 -53q-27 -2 -40.5 -9.5t-19.5 -25t-7 -51.5l118 1q108 0 161.5 -52z"/>
<glyph glyph-name="germandbls" horiz-adv-x="644" unicode="ß" d="M77.5 390.5q-24.5 3.5 -43.5 3.5q0 32 13 54h66v37q0 75 32.5 127.5t85 78t113.5 25.5q85 0 130 -38.5t45 -95.5q0 -44 -18.5 -70t-52.5 -54q-23 -18 -34 -31.5t-11 -30.5q0 -27 19.5 -44.5t60.5 -40.5q39 -21 64 -39.5t42.5 -49t17.5 -74.5t-25 -80t-65.5 -56t-86.5 -20 t-76.5 8t-59.5 27q3 27 3 70q0 35 -1 49q10 4 28.5 7.5t32.5 3.5q6 -64 23.5 -90.5t57.5 -26.5q24 0 41.5 20.5t17.5 52.5q0 33 -22.5 53.5t-68.5 46.5q-37 21 -58.5 36.5t-37 40t-15.5 59.5q0 39 18 62t53 48q31 23 47 42.5t16 50.5q0 42 -32.5 73t-81.5 31q-45 0 -65 -29 t-20 -108v-521q-46 2 -85 2q-68 0 -106 -3q0 36 6 53q28 2 42 9.5t20 26.5t6 55v241q-11 5 -35.5 8.5z"/>
<glyph glyph-name="agrave" horiz-adv-x="523" unicode="à" d="M203.5 195q-38.5 -20 -38.5 -69q0 -31 15 -47t38 -16q22 0 43.5 14.5t36 44t14.5 72.5v32q-70 -11 -108.5 -31zM491 64q0 -22 -8 -41q-32 -2 -68.5 -10.5t-63.5 -21.5q-15 6 -22 17.5t-7 38.5q0 16 3 34q-12 -30 -38 -53q-42 -35 -108 -35t-101 28.5t-35 81.5 q0 60 45 95.5t99.5 50.5t124.5 25q0 54 -4 76t-17 38q-22 27 -59 27q-41 0 -61 -34.5t-23 -79.5q-47 0 -68 9q2 24 2 38q0 43 -7 77q41 20 89 31t93 11q89 0 130 -41q23 -24 33 -63t10 -107v-105q0 -29 4 -44t17 -22t39 -7zM107 699q35 16 83 16q12 0 32 -2q31 -98 71 -172 q-15 -7 -44 -7h-14q-64 99 -128 165z"/>
<glyph glyph-name="aacute" horiz-adv-x="523" unicode="á" d="M203.5 195q-38.5 -20 -38.5 -69q0 -31 15 -47t38 -16q22 0 43.5 14.5t36 44t14.5 72.5v32q-70 -11 -108.5 -31zM491 64q0 -22 -8 -41q-32 -2 -68.5 -10.5t-63.5 -21.5q-15 6 -22 17.5t-7 38.5q0 16 3 34q-12 -30 -38 -53q-42 -35 -108 -35t-101 28.5t-35 81.5 q0 60 45 95.5t99.5 50.5t124.5 25q0 54 -4 76t-17 38q-22 27 -59 27q-41 0 -61 -34.5t-23 -79.5q-47 0 -68 9q2 24 2 38q0 43 -7 77q41 20 89 31t93 11q89 0 130 -41q23 -24 33 -63t10 -107v-105q0 -29 4 -44t17 -22t39 -7zM357 720q19 0 39 -6q-63 -73 -132 -183h-9 q-25 0 -44 10q45 89 64 167q33 12 71 12h11z"/>
<glyph glyph-name="acircumflex" horiz-adv-x="523" unicode="â" d="M203.5 195q-38.5 -20 -38.5 -69q0 -31 15 -47t38 -16q22 0 43.5 14.5t36 44t14.5 72.5v32q-70 -11 -108.5 -31zM491 64q0 -22 -8 -41q-32 -2 -68.5 -10.5t-63.5 -21.5q-15 6 -22 17.5t-7 38.5q0 16 3 34q-12 -30 -38 -53q-42 -35 -108 -35t-101 28.5t-35 81.5 q0 60 45 95.5t99.5 50.5t124.5 25q0 54 -4 76t-17 38q-22 27 -59 27q-41 0 -61 -34.5t-23 -79.5q-47 0 -68 9q2 24 2 38q0 43 -7 77q41 20 89 31t93 11q89 0 130 -41q23 -24 33 -63t10 -107v-105q0 -29 4 -44t17 -22t39 -7zM286 713q63 -84 150 -165q-20 -22 -47 -27l-27 19 q-80 56 -111 72q-24 -12 -72.5 -43.5t-74.5 -52.5q-11 6 -17.5 19t-8.5 25q92 67 160 146q21 7 48 7z"/>
<glyph glyph-name="atilde" horiz-adv-x="523" unicode="ã" d="M203.5 195q-38.5 -20 -38.5 -69q0 -31 15 -47t38 -16q22 0 43.5 14.5t36 44t14.5 72.5v32q-70 -11 -108.5 -31zM491 64q0 -22 -8 -41q-32 -2 -68.5 -10.5t-63.5 -21.5q-15 6 -22 17.5t-7 38.5q0 16 3 34q-12 -30 -38 -53q-42 -35 -108 -35t-101 28.5t-35 81.5 q0 60 45 95.5t99.5 50.5t124.5 25q0 54 -4 76t-17 38q-22 27 -59 27q-41 0 -61 -34.5t-23 -79.5q-47 0 -68 9q2 24 2 38q0 43 -7 77q41 20 89 31t93 11q89 0 130 -41q23 -24 33 -63t10 -107v-105q0 -29 4 -44t17 -22t39 -7zM195 644q18 0 33 -5t40 -16q23 -10 36.5 -15 t28.5 -5q37 0 67 31q19 -6 26 -20q-26 -56 -53 -80.5t-58 -24.5q-16 0 -30.5 5t-40.5 16q-23 11 -39 16.5t-33 5.5q-44 0 -83 -40q-17 12 -18 32q59 100 124 100z"/>
<glyph glyph-name="adieresis" horiz-adv-x="523" unicode="ä" d="M203.5 195q-38.5 -20 -38.5 -69q0 -31 15 -47t38 -16q22 0 43.5 14.5t36 44t14.5 72.5v32q-70 -11 -108.5 -31zM491 64q0 -22 -8 -41q-32 -2 -68.5 -10.5t-63.5 -21.5q-15 6 -22 17.5t-7 38.5q0 16 3 34q-12 -30 -38 -53q-42 -35 -108 -35t-101 28.5t-35 81.5 q0 60 45 95.5t99.5 50.5t124.5 25q0 54 -4 76t-17 38q-22 27 -59 27q-41 0 -61 -34.5t-23 -79.5q-47 0 -68 9q2 24 2 38q0 43 -7 77q41 20 89 31t93 11q89 0 130 -41q23 -24 33 -63t10 -107v-105q0 -29 4 -44t17 -22t39 -7zM406 544.5q-16 -18.5 -49 -18.5q-34 0 -52.5 17.5 t-18.5 47.5q0 27 19 43t49 16q29 0 48.5 -17t19.5 -42q0 -28 -16 -46.5zM92.5 631q16.5 19 49.5 19q34 0 51 -17.5t17 -46.5q0 -26 -19 -43.5t-47 -17.5q-30 0 -49 17t-19 42q0 28 16.5 47z"/>
<glyph glyph-name="aring" horiz-adv-x="523" unicode="å" d="M203.5 195q-38.5 -20 -38.5 -69q0 -31 15 -47t38 -16q22 0 43.5 14.5t36 44t14.5 72.5v32q-70 -11 -108.5 -31zM491 64q0 -22 -8 -41q-32 -2 -68.5 -10.5t-63.5 -21.5q-15 6 -22 17.5t-7 38.5q0 16 3 34q-12 -30 -38 -53q-42 -35 -108 -35t-101 28.5t-35 81.5 q0 60 45 95.5t99.5 50.5t124.5 25q0 54 -4 76t-17 38q-22 27 -59 27q-41 0 -61 -34.5t-23 -79.5q-47 0 -68 9q2 24 2 38q0 43 -7 77q41 20 89 31t93 11q89 0 130 -41q23 -24 33 -63t10 -107v-105q0 -29 4 -44t17 -22t39 -7zM279 579.5q11 12.5 11 33.5q0 23 -12 42t-35 19 q-17 0 -27.5 -14.5t-10.5 -39.5q0 -23 12.5 -38t34.5 -15q16 0 27 12.5zM327 691q31 -23 31 -68q0 -43 -33 -71.5t-83 -28.5q-44 0 -75 25.5t-31 66.5q0 43 33 71t82 28q45 0 76 -23z"/>
<glyph glyph-name="ae" horiz-adv-x="703" unicode="æ" d="M261.5 93q23.5 34 26.5 104l-1 18v3q-74 -7 -108 -29t-34 -66q0 -34 17.5 -49t40.5 -15q35 0 58.5 34zM423 378.5q-18 -34.5 -18 -94.5v-10q51 4 150 8q0 54 -19 92.5t-60 38.5q-35 0 -53 -34.5zM657 92.5q8 -12.5 9 -23.5q-61 -75 -177 -75q-59 0 -102 27t-68 71 q-14 -44 -56.5 -71t-103.5 -27q-60 0 -92.5 28t-32.5 81q0 82 73 118.5t180 48.5v45q0 48 -21 73t-53 25q-38 0 -55 -30t-23 -82q-17 0 -38 2.5t-31 7.5q1 10 1 34q0 47 -6 81q47 20 88.5 30.5t90.5 10.5q79 0 119 -58q26 30 62.5 44t74.5 14q57 0 95 -29.5t56.5 -73 t20.5 -88.5q-8 -29 -23 -44q-136 -2 -240 -10q1 -66 30 -115t86 -49q74 0 119 53q9 -6 17 -18.5z"/>
<glyph glyph-name="ccedilla" horiz-adv-x="457" unicode="ç" d="M293 -7l-30 -41q40 -7 63.5 -32t23.5 -60q0 -47 -42.5 -74.5t-98.5 -27.5q-8 13 -8 37q32 0 55.5 14t23.5 38q0 22 -18 35.5t-45 13.5q-18 18 -18 41l38 55q-87 8 -143.5 69t-56.5 166q0 62 25.5 117t76 89t119.5 34q96 0 159 -43q-9 -50 -9 -119q-20 -11 -62 -11 q-4 57 -29 88t-64 31q-46 0 -71.5 -45.5t-25.5 -125.5q0 -76 36.5 -130t102.5 -54t108 48q21 -15 25 -38q-48 -66 -135 -75z"/>
<glyph glyph-name="egrave" horiz-adv-x="494" unicode="è" d="M188 378.5q-25 -33.5 -28 -111.5h176q0 65 -22.5 105t-61.5 40t-64 -33.5zM443.5 92q7.5 -12 8.5 -24q-68 -77 -186 -77q-113 0 -171 66t-58 170q0 69 27.5 123.5t78 85.5t117.5 31q96 0 144.5 -59.5t51.5 -151.5q-4 -24 -20 -41q-174 0 -274 -5q7 -69 41 -111t101 -42 q33 0 66 14t57 38q9 -5 16.5 -17zM113 699q35 16 83 16q12 0 32 -2q31 -98 71 -172q-15 -7 -44 -7h-14q-64 99 -128 165z"/>
<glyph glyph-name="eacute" horiz-adv-x="494" unicode="é" d="M188 378.5q-25 -33.5 -28 -111.5h176q0 65 -22.5 105t-61.5 40t-64 -33.5zM443.5 92q7.5 -12 8.5 -24q-68 -77 -186 -77q-113 0 -171 66t-58 170q0 69 27.5 123.5t78 85.5t117.5 31q96 0 144.5 -59.5t51.5 -151.5q-4 -24 -20 -41q-174 0 -274 -5q7 -69 41 -111t101 -42 q33 0 66 14t57 38q9 -5 16.5 -17zM363 720q19 0 39 -6q-63 -73 -132 -183h-9q-25 0 -44 10q45 89 64 167q33 12 71 12h11z"/>
<glyph glyph-name="ecircumflex" horiz-adv-x="494" unicode="ê" d="M188 378.5q-25 -33.5 -28 -111.5h176q0 65 -22.5 105t-61.5 40t-64 -33.5zM443.5 92q7.5 -12 8.5 -24q-68 -77 -186 -77q-113 0 -171 66t-58 170q0 69 27.5 123.5t78 85.5t117.5 31q96 0 144.5 -59.5t51.5 -151.5q-4 -24 -20 -41q-174 0 -274 -5q7 -69 41 -111t101 -42 q33 0 66 14t57 38q9 -5 16.5 -17zM293 713q63 -84 150 -165q-20 -22 -47 -27l-27 19q-80 56 -111 72q-24 -12 -72.5 -43.5t-74.5 -52.5q-11 6 -17.5 19t-8.5 25q92 67 160 146q21 7 48 7z"/>
<glyph glyph-name="edieresis" horiz-adv-x="494" unicode="ë" d="M188 378.5q-25 -33.5 -28 -111.5h176q0 65 -22.5 105t-61.5 40t-64 -33.5zM443.5 92q7.5 -12 8.5 -24q-68 -77 -186 -77q-113 0 -171 66t-58 170q0 69 27.5 123.5t78 85.5t117.5 31q96 0 144.5 -59.5t51.5 -151.5q-4 -24 -20 -41q-174 0 -274 -5q7 -69 41 -111t101 -42 q33 0 66 14t57 38q9 -5 16.5 -17zM413 544.5q-16 -18.5 -49 -18.5q-34 0 -52.5 17.5t-18.5 47.5q0 27 19 43t49 16q29 0 48.5 -17t19.5 -42q0 -28 -16 -46.5zM99.5 631q16.5 19 49.5 19q34 0 51 -17.5t17 -46.5q0 -26 -19 -43.5t-47 -17.5q-30 0 -49 17t-19 42q0 28 16.5 47 z"/>
<glyph glyph-name="igrave" horiz-adv-x="329" unicode="ì" d="M-8 701q35 16 83 16q12 0 32 -2q31 -98 71 -172q-15 -7 -44 -7h-14q-64 99 -128 165zM239 69q13 -18 48 -19q6 -19 6 -53q-48 3 -129 3q-83 0 -130 -3q0 31 6 53q40 1 54 19t14 68v178q0 26 -5 40.5t-21 22t-48 8.5q0 31 10 47q37 0 87 10.5t69 23.5q26 -10 26 -47v-283 q0 -50 13 -68z"/>
<glyph glyph-name="iacute" horiz-adv-x="329" unicode="í" d="M270 720q19 0 39 -6q-63 -73 -132 -183h-9q-25 0 -44 10q45 89 64 167q33 12 71 12h11zM239 69q13 -18 48 -19q6 -19 6 -53q-48 3 -129 3q-83 0 -130 -3q0 31 6 53q40 1 54 19t14 68v178q0 26 -5 40.5t-21 22t-48 8.5q0 31 10 47q37 0 87 10.5t69 23.5q26 -10 26 -47 v-283q0 -50 13 -68z"/>
<glyph glyph-name="icircumflex" horiz-adv-x="329" unicode="î" d="M189 715q63 -84 150 -165q-20 -22 -47 -27l-27 19q-80 56 -111 72q-24 -12 -72.5 -43.5t-74.5 -52.5q-11 6 -17.5 19t-8.5 25q92 67 160 146q21 7 48 7zM239 69q13 -18 48 -19q6 -19 6 -53q-48 3 -129 3q-83 0 -130 -3q0 31 6 53q40 1 54 19t14 68v178q0 26 -5 40.5 t-21 22t-48 8.5q0 31 10 47q37 0 87 10.5t69 23.5q26 -10 26 -47v-283q0 -50 13 -68z"/>
<glyph glyph-name="idieresis" horiz-adv-x="329" unicode="ï" d="M313 546.5q-16 -18.5 -49 -18.5q-34 0 -52.5 17.5t-18.5 47.5q0 27 19 43t49 16q29 0 48.5 -17t19.5 -42q0 -28 -16 -46.5zM-0.5 633q16.5 19 49.5 19q34 0 51 -17.5t17 -46.5q0 -26 -19 -43.5t-47 -17.5q-30 0 -49 17t-19 42q0 28 16.5 47zM239 69q13 -18 48 -19 q6 -19 6 -53q-48 3 -129 3q-83 0 -130 -3q0 31 6 53q40 1 54 19t14 68v178q0 26 -5 40.5t-21 22t-48 8.5q0 31 10 47q37 0 87 10.5t69 23.5q26 -10 26 -47v-283q0 -50 13 -68z"/>
<glyph glyph-name="eth" horiz-adv-x="543" unicode="ð" d="M347 101.5q32 44.5 32 152.5q0 50 -8 96q-39 37 -95 37q-54 0 -85 -38.5t-31 -122.5q0 -83 30 -126t78 -43q47 0 79 44.5zM459 453q46 -82 46 -191q0 -135 -69 -202.5t-184 -67.5q-109 0 -162 58t-53 156q0 84 34.5 138t87.5 79t110 25q44 0 76 -16q-31 68 -96 114 q-33 -17 -118 -65q-7 13 -12 31t-4 28l79 41q-51 26 -114 45q0 28 14 45q96 -12 178 -50l116 60q16 -31 15 -59l-72 -34q82 -53 128 -135z"/>
<glyph glyph-name="ntilde" horiz-adv-x="627" unicode="ñ" d="M594 -3q-43 3 -117 3q-38 0 -131 -3q0 35 6 53q33 0 48 20t15 70v129q0 63 -21.5 89.5t-62.5 26.5q-27 0 -51 -18t-39 -54.5t-15 -90.5v-85q0 -50 14 -68.5t49 -18.5q7 -19 7 -53q-87 3 -129 3q-88 0 -133 -3q0 35 7 53q39 0 53 18.5t14 68.5v173q0 29 -5 44t-20.5 23 t-48.5 9q0 31 10 47q42 1 87 11.5t70 22.5q25 -11 25 -50q0 -28 -8 -59q14 28 21 37q21 27 59 47t84 20q66 0 108.5 -39.5t42.5 -123.5v-162q0 -49 12.5 -68t42.5 -19q6 -18 6 -53zM262 644q18 0 33 -5t40 -16q23 -10 36.5 -15t28.5 -5q37 0 67 31q19 -6 26 -20 q-26 -56 -53 -80.5t-58 -24.5q-16 0 -30.5 5t-40.5 16q-23 11 -39 16.5t-33 5.5q-44 0 -83 -40q-17 12 -18 32q59 100 124 100z"/>
<glyph glyph-name="ograve" d="M189.5 368q-26.5 -44 -26.5 -116q0 -95 33 -150t90 -55q51 0 78 45.5t27 120.5q0 61 -17 106t-45.5 69t-62.5 24q-50 0 -76.5 -44zM453 402.5q63 -64.5 63 -171.5q0 -71 -30 -125t-84.5 -84.5t-126.5 -30.5q-111 0 -174.5 63.5t-63.5 172.5q0 71 31 125.5t85.5 84.5 t123.5 30q113 0 176 -64.5zM130 699q35 16 83 16q12 0 32 -2q31 -98 71 -172q-15 -7 -44 -7h-14q-64 99 -128 165z" unicode="ò"/>
<glyph glyph-name="oacute" d="M189.5 368q-26.5 -44 -26.5 -116q0 -95 33 -150t90 -55q51 0 78 45.5t27 120.5q0 61 -17 106t-45.5 69t-62.5 24q-50 0 -76.5 -44zM453 402.5q63 -64.5 63 -171.5q0 -71 -30 -125t-84.5 -84.5t-126.5 -30.5q-111 0 -174.5 63.5t-63.5 172.5q0 71 31 125.5t85.5 84.5 t123.5 30q113 0 176 -64.5zM380 720q19 0 39 -6q-63 -73 -132 -183h-9q-25 0 -44 10q45 89 64 167q33 12 71 12h11z" unicode="ó"/>
<glyph glyph-name="ocircumflex" d="M189.5 368q-26.5 -44 -26.5 -116q0 -95 33 -150t90 -55q51 0 78 45.5t27 120.5q0 61 -17 106t-45.5 69t-62.5 24q-50 0 -76.5 -44zM453 402.5q63 -64.5 63 -171.5q0 -71 -30 -125t-84.5 -84.5t-126.5 -30.5q-111 0 -174.5 63.5t-63.5 172.5q0 71 31 125.5t85.5 84.5 t123.5 30q113 0 176 -64.5zM310 713q63 -84 150 -165q-20 -22 -47 -27l-27 19q-80 56 -111 72q-24 -12 -72.5 -43.5t-74.5 -52.5q-11 6 -17.5 19t-8.5 25q92 67 160 146q21 7 48 7z" unicode="ô"/>
<glyph glyph-name="otilde" d="M189.5 368q-26.5 -44 -26.5 -116q0 -95 33 -150t90 -55q51 0 78 45.5t27 120.5q0 61 -17 106t-45.5 69t-62.5 24q-50 0 -76.5 -44zM453 402.5q63 -64.5 63 -171.5q0 -71 -30 -125t-84.5 -84.5t-126.5 -30.5q-111 0 -174.5 63.5t-63.5 172.5q0 71 31 125.5t85.5 84.5 t123.5 30q113 0 176 -64.5zM218 644q18 0 33 -5t40 -16q23 -10 36.5 -15t28.5 -5q37 0 67 31q19 -6 26 -20q-26 -56 -53 -80.5t-58 -24.5q-16 0 -30.5 5t-40.5 16q-23 11 -39 16.5t-33 5.5q-44 0 -83 -40q-17 12 -18 32q59 100 124 100z" unicode="õ"/>
<glyph glyph-name="odieresis" d="M189.5 368q-26.5 -44 -26.5 -116q0 -95 33 -150t90 -55q51 0 78 45.5t27 120.5q0 61 -17 106t-45.5 69t-62.5 24q-50 0 -76.5 -44zM453 402.5q63 -64.5 63 -171.5q0 -71 -30 -125t-84.5 -84.5t-126.5 -30.5q-111 0 -174.5 63.5t-63.5 172.5q0 71 31 125.5t85.5 84.5 t123.5 30q113 0 176 -64.5zM430 544.5q-16 -18.5 -49 -18.5q-34 0 -52.5 17.5t-18.5 47.5q0 27 19 43t49 16q29 0 48.5 -17t19.5 -42q0 -28 -16 -46.5zM116.5 631q16.5 19 49.5 19q34 0 51 -17.5t17 -46.5q0 -26 -19 -43.5t-47 -17.5q-30 0 -49 17t-19 42q0 28 16.5 47z" unicode="ö"/>
<glyph glyph-name="divide" horiz-adv-x="587" unicode="÷" d="M252.5 143q14.5 16 45.5 16q62 0 62 -58q0 -25 -17.5 -41t-42.5 -16q-27 0 -44.5 16.5t-17.5 40.5q0 26 14.5 42zM532 258q-2 -13 -9 -25q-68 1 -116 1h-103q-115 0 -250 -3q0 15 3 33.5t8 27.5h469q0 -21 -2 -34zM340.5 383.5q-14.5 -18.5 -42.5 -18.5q-33 0 -49.5 16.5 t-16.5 46.5q0 26 18 40t44 14t43.5 -14t17.5 -37q0 -29 -14.5 -47.5z"/>
<glyph glyph-name="oslash" d="M364 92.5q27 45.5 27 120.5q0 55 -14 97l-173 -221q33 -42 82 -42q51 0 78 45.5zM189.5 368q-26.5 -44 -26.5 -116q0 -57 12 -101l170 220q-33 41 -79 41q-50 0 -76.5 -44zM516 231q0 -70 -30 -124.5t-84.5 -85t-126.5 -30.5q-75 0 -128 29l-47 -59q-19 0 -36 6t-25 16 l60 74q-62 64 -62 170q0 71 31 125.5t85.5 84.5t123.5 30q72 0 126 -28l33 43q41 -3 61 -24l-43 -56q62 -62 62 -171z" unicode="ø"/>
<glyph glyph-name="ugrave" horiz-adv-x="592" unicode="ù" d="M144 701q35 16 83 16q12 0 32 -2q31 -98 71 -172q-15 -7 -44 -7h-14q-64 99 -128 165zM548 23q-32 -2 -68 -10.5t-64 -21.5q-15 6 -22 17.5t-7 40.5q0 19 4 43q-11 -26 -33 -48q-51 -49 -130 -49q-74 0 -110.5 41.5t-36.5 139.5v134q0 29 -4 44t-18 23t-43 9q0 31 8 47 q41 1 82.5 11t66.5 23q25 -10 25 -50v-218q0 -68 16.5 -99.5t55.5 -31.5q48 0 78 42.5t30 122.5v82q0 28 -5.5 43.5t-21 23.5t-47.5 9q0 17 1.5 27.5t6.5 19.5q48 1 91 9.5t67 19.5q25 -10 25 -50v-264q0 -44 11.5 -59t49.5 -16v-11q0 -27 -8 -44z"/>
<glyph glyph-name="uacute" horiz-adv-x="592" unicode="ú" d="M397 722q19 0 39 -6q-63 -73 -132 -183h-9q-25 0 -44 10q45 89 64 167q33 12 71 12h11zM548 23q-32 -2 -68 -10.5t-64 -21.5q-15 6 -22 17.5t-7 40.5q0 19 4 43q-11 -26 -33 -48q-51 -49 -130 -49q-74 0 -110.5 41.5t-36.5 139.5v134q0 29 -4 44t-18 23t-43 9q0 31 8 47 q41 1 82.5 11t66.5 23q25 -10 25 -50v-218q0 -68 16.5 -99.5t55.5 -31.5q48 0 78 42.5t30 122.5v82q0 28 -5.5 43.5t-21 23.5t-47.5 9q0 17 1.5 27.5t6.5 19.5q48 1 91 9.5t67 19.5q25 -10 25 -50v-264q0 -44 11.5 -59t49.5 -16v-11q0 -27 -8 -44z"/>
<glyph glyph-name="ucircumflex" horiz-adv-x="592" unicode="û" d="M323 715q63 -84 150 -165q-20 -22 -47 -27l-27 19q-80 56 -111 72q-24 -12 -72.5 -43.5t-74.5 -52.5q-11 6 -17.5 19t-8.5 25q92 67 160 146q21 7 48 7zM548 23q-32 -2 -68 -10.5t-64 -21.5q-15 6 -22 17.5t-7 40.5q0 19 4 43q-11 -26 -33 -48q-51 -49 -130 -49 q-74 0 -110.5 41.5t-36.5 139.5v134q0 29 -4 44t-18 23t-43 9q0 31 8 47q41 1 82.5 11t66.5 23q25 -10 25 -50v-218q0 -68 16.5 -99.5t55.5 -31.5q48 0 78 42.5t30 122.5v82q0 28 -5.5 43.5t-21 23.5t-47.5 9q0 17 1.5 27.5t6.5 19.5q48 1 91 9.5t67 19.5q25 -10 25 -50 v-264q0 -44 11.5 -59t49.5 -16v-11q0 -27 -8 -44z"/>
<glyph glyph-name="udieresis" horiz-adv-x="592" unicode="ü" d="M433 546.5q-16 -18.5 -49 -18.5q-34 0 -52.5 17.5t-18.5 47.5q0 27 19 43t49 16q29 0 48.5 -17t19.5 -42q0 -28 -16 -46.5zM119.5 633q16.5 19 49.5 19q34 0 51 -17.5t17 -46.5q0 -26 -19 -43.5t-47 -17.5q-30 0 -49 17t-19 42q0 28 16.5 47zM548 23q-32 -2 -68 -10.5 t-64 -21.5q-15 6 -22 17.5t-7 40.5q0 19 4 43q-11 -26 -33 -48q-51 -49 -130 -49q-74 0 -110.5 41.5t-36.5 139.5v134q0 29 -4 44t-18 23t-43 9q0 31 8 47q41 1 82.5 11t66.5 23q25 -10 25 -50v-218q0 -68 16.5 -99.5t55.5 -31.5q48 0 78 42.5t30 122.5v82q0 28 -5.5 43.5 t-21 23.5t-47.5 9q0 17 1.5 27.5t6.5 19.5q48 1 91 9.5t67 19.5q25 -10 25 -50v-264q0 -44 11.5 -59t49.5 -16v-11q0 -27 -8 -44z"/>
<glyph glyph-name="yacute" horiz-adv-x="552" unicode="ý" d="M538 461q0 -35 -8 -53q-26 -7 -40.5 -25t-36.5 -70l-147 -350q-37 -90 -65.5 -135t-54 -61t-60.5 -16q-29 0 -50.5 9t-34.5 23q-3 12 -3 30q0 29 7 52q41 -9 78 -9q33 0 56.5 12.5t41.5 41.5q6 10 35 69q-97 220 -146 322q-29 62 -46.5 81.5t-42.5 25.5q-7 20 -7 52 q76 -2 124 -2q61 0 143 2q0 -31 -8 -52q-31 -5 -44.5 -14t-13.5 -26q0 -19 20 -61q39 -76 80 -187l2 4l69 174q16 39 16 63q0 21 -13 31t-41 16q-8 20 -8 52q31 -2 99 -2q69 0 99 3zM419 720q19 0 39 -6q-63 -73 -132 -183h-9q-25 0 -44 10q45 89 64 167q33 12 71 12h11z "/>
<glyph glyph-name="thorn" horiz-adv-x="600" unicode="þ" d="M256 350q-33 -44 -33 -136v-135q35 -35 81 -35q52 0 93 42.5t41 146.5q0 71 -27.5 116t-74.5 45t-80 -44zM223 3v-84q0 -43 9.5 -66.5t29.5 -33t56 -11.5q6 -17 6 -53q-49 3 -141 3q-104 0 -151 -3q0 35 5 53q28 2 42.5 10t20.5 27.5t6 56.5v663q0 26 -5.5 40.5t-21.5 22 t-48 8.5q0 31 10 47q37 0 87.5 10.5t69.5 23.5q25 -10 25 -47v-236q0 -24 -4 -54q9 15 17 23q18 24 54.5 44t80.5 20q90 0 141 -52.5t51 -157.5q0 -77 -32.5 -137.5t-92 -94.5t-137.5 -34q-33 0 -78 12z"/>
<glyph glyph-name="dotlessi" horiz-adv-x="326" unicode="ı" d="M239 69q13 -18 48 -19q6 -19 6 -53q-48 3 -129 3q-83 0 -130 -3q0 31 6 53q40 1 54 19t14 68v178q0 26 -5 40.5t-21 22t-48 8.5q0 31 10 47q37 0 87 10.5t69 23.5q26 -10 26 -47v-283q0 -50 13 -68z"/>
<glyph glyph-name="OE" horiz-adv-x="979" unicode="Œ" d="M212.5 554.5q-49.5 -72.5 -49.5 -198.5q0 -92 24.5 -161.5t71 -108t111.5 -38.5q76 0 121.5 72t45.5 207q0 94 -25.5 162t-68.5 103t-95 35q-86 0 -135.5 -72.5zM464 680q106 -4 173 -4q135 0 255 2q7 -105 21 -160q-21 -14 -61 -14q-6 57 -40.5 90.5t-118.5 33.5h-154 q61 -40 92 -108t34 -156h12q53 0 73 18.5t20 58.5q30 9 60 9q-2 -48 -2 -113q0 -69 2 -115q-37 0 -57 6q-3 30 -11 47.5t-29.5 27t-61.5 9.5h-8q-5 -84 -36 -150.5t-89 -108.5h185q52 0 82.5 14t47 40.5t32.5 74.5q40 -7 61 -27q-22 -68 -31 -157q-90 2 -239 2 q-53 0 -188 -5q-90 -4 -130 -4q-99 0 -172 42.5t-112 120t-39 181.5q0 105 40 184t114 121.5t173 42.5q42 0 102 -3z"/>
<glyph glyph-name="oe" horiz-adv-x="805" unicode="œ" d="M509 373.5q-22 -38.5 -25 -106.5h163q0 64 -21.5 104.5t-57.5 40.5q-37 0 -59 -38.5zM345 91.5q25 44.5 25 121.5q0 92 -30.5 145.5t-82.5 53.5q-44 0 -69.5 -43t-25.5 -117q0 -94 31 -149.5t84 -55.5q43 0 68 44.5zM754.5 92q7.5 -12 8.5 -24q-68 -77 -181 -77 q-100 0 -156 65q-56 -65 -160 -65q-106 0 -167.5 63.5t-61.5 172.5q0 110 62.5 175t168.5 65q102 0 159 -65q54 65 150 65q92 0 139.5 -59.5t50.5 -151.5q-4 -24 -20 -41q-169 0 -261 -5q8 -72 43 -112.5t92 -40.5q29 0 61.5 14t55.5 38q9 -5 16.5 -17z"/>
<glyph glyph-name="Scaron" horiz-adv-x="547" unicode="Š" d="M378 673q47 -12 75 -30q0 -97 6 -139q-26 -13 -71 -13q-14 80 -40.5 110t-73.5 30q-48 0 -75 -23t-27 -65q0 -36 19.5 -61.5t48 -42.5t78.5 -41q60 -28 96.5 -51.5t62.5 -62.5t26 -95t-26.5 -100.5t-81 -71t-133.5 -26.5q-60 0 -106.5 15t-98.5 47q10 57 10 149 q28 8 72 8q5 -83 36.5 -122.5t101.5 -39.5q60 0 89 26t29 68q0 34 -18.5 58.5t-46 41t-74.5 38.5q-60 28 -97.5 52.5t-63.5 65.5t-26 101q0 89 57.5 137.5t154.5 48.5q50 0 97 -12zM441 914q11 -9 16 -21q-91 -72 -157 -152q-18 -6 -38 -6h-10q-71 87 -144 153q6 25 35 37 q96 -67 140 -89q24 12 70.5 43t63.5 46q13 -2 24 -11z"/>
<glyph glyph-name="scaron" horiz-adv-x="446" unicode="š" d="M313 314q-4 42 -32 72t-72 30q-27 0 -43 -13.5t-16 -35.5q0 -17 7.5 -28.5t31.5 -25.5t75 -34q56 -22 87 -42.5t44.5 -44.5t13.5 -59q0 -65 -54.5 -103.5t-142.5 -38.5q-59 0 -97 8.5t-76 27.5q3 27 3 68q0 26 -2 56q21 14 66 14q7 -58 35.5 -88t74.5 -30q35 0 55.5 15.5 t20.5 40.5t-20 42t-82 42q-55 21 -85.5 40t-45.5 45.5t-15 67.5t25.5 69.5t66 43t84.5 14.5q90 0 153 -33q-1 -13 -1 -40q0 -37 4 -65q-24 -15 -63 -15zM378 696q11 -9 16 -21q-91 -72 -157 -152q-18 -6 -38 -6h-10q-71 87 -144 153q6 25 35 37q96 -67 140 -89 q24 12 70.5 43t63.5 46q13 -2 24 -11z"/>
<glyph glyph-name="Ydieresis" horiz-adv-x="631" unicode="Ÿ" d="M610 678q0 -23 -5 -50q-26 -6 -47.5 -29t-44.5 -72l-132 -272v-82q0 -54 6 -77.5t22 -32.5t55 -13q7 -20 7 -53q-72 3 -151 3q-83 0 -157 -2q0 31 7 52q42 3 59 11t23 30t6 73v90l-159 314q-16 32 -31.5 45t-40.5 14q-6 20 -6 51q66 -2 122 -2q109 0 143 2q0 -29 -5 -50 q-23 -2 -33 -9.5t-10 -21.5q0 -17 17 -51q50 -100 104 -226q49 115 99 217q18 36 18 55q0 29 -45 35q-8 26 -8 51q27 -2 99 -2q38 0 88 2zM510 762.5q-16 -18.5 -49 -18.5q-34 0 -52.5 17.5t-18.5 47.5q0 27 19 43t49 16q29 0 48.5 -17t19.5 -42q0 -28 -16 -46.5zM196.5 849 q16.5 19 49.5 19q34 0 51 -17.5t17 -46.5q0 -26 -19 -43.5t-47 -17.5q-30 0 -49 17t-19 42q0 28 16.5 47z"/>
<glyph glyph-name="circumflex" horiz-adv-x="540" unicode="ˆ" d="M279 713q63 -84 150 -165q-20 -22 -47 -27l-27 19q-80 56 -111 72q-24 -12 -72.5 -43.5t-74.5 -52.5q-11 6 -17.5 19t-8.5 25q92 67 160 146q21 7 48 7z"/>
<glyph glyph-name="caron" horiz-adv-x="600" unicode="ˇ" d="M415 696q11 -9 16 -21q-91 -72 -157 -152q-18 -6 -38 -6h-10q-71 87 -144 153q6 25 35 37q96 -67 140 -89q24 12 70.5 43t63.5 46q13 -2 24 -11z"/>
<glyph glyph-name="ring" horiz-adv-x="540" unicode="˚" d="M339 579.5q11 12.5 11 33.5q0 23 -12 42t-35 19q-17 0 -27.5 -14.5t-10.5 -39.5q0 -23 12.5 -38t34.5 -15q16 0 27 12.5zM387 691q31 -23 31 -68q0 -43 -33 -71.5t-83 -28.5q-44 0 -75 25.5t-31 66.5q0 43 33 71t82 28q45 0 76 -23z"/>
<glyph glyph-name="tilde" horiz-adv-x="540" unicode="˜" d="M211 644q18 0 33 -5t40 -16q23 -10 36.5 -15t28.5 -5q37 0 67 31q19 -6 26 -20q-26 -56 -53 -80.5t-58 -24.5q-16 0 -30.5 5t-40.5 16q-23 11 -39 16.5t-33 5.5q-44 0 -83 -40q-17 12 -18 32q59 100 124 100z"/>
<glyph glyph-name="pi" horiz-adv-x="617" unicode="π" d="M465 349q-6 -67 -6 -136q0 -53 5.5 -81.5t16 -39t28.5 -10.5q22 0 45 10q13 -23 13 -47q-21 -27 -45 -40.5t-56 -13.5q-46 0 -68 29.5t-22 96.5q0 45 9 108t24 125l-128 6l-28 1q-1 -162 -15.5 -251.5t-31.5 -105.5q-69 -2 -100 -9q-12 18 -12 45v8q51 42 75.5 135 t25.5 178h-20q-18 0 -31.5 -1.5t-30 -10t-39.5 -29.5q-13 1 -23.5 9.5t-16.5 19.5q35 64 85 91t119 27q54 0 112 -3q74 -2 105 -2q34 0 48.5 12t24.5 48q33 -3 56 -14q-12 -64 -12 -115v-14q-4 -14 -20 -20t-60 -6h-27z"/>
<glyph glyph-name="uni0401" horiz-adv-x="614" unicode="Ё" d="M580 155q-22 -68 -31 -157q-90 2 -227 2q-199 0 -273 -3q0 37 6 53q28 2 42 10t20 29t6 63v381q0 37 -6 56t-20.5 27t-42.5 10q-5 17 -5 53q67 -3 196 -3q161 0 278 3q10 -113 21 -164q-22 -13 -60 -13q-6 57 -40 90.5t-117 33.5h-81v-261h46q58 0 80 16.5t23 62.5 q24 8 59 8q-3 -49 -3 -111q0 -67 3 -117q-37 0 -57 6q-4 49 -26 66t-79 17h-46v-160q0 -41 7.5 -62t26 -29.5t54.5 -8.5h9q59 0 92.5 14t51 40t33.5 75q39 -8 60 -27zM453 762.5q-16 -18.5 -49 -18.5q-34 0 -52.5 17.5t-18.5 47.5q0 27 19 43t49 16q29 0 48.5 -17t19.5 -42 q0 -28 -16 -46.5zM139.5 849q16.5 19 49.5 19q34 0 51 -17.5t17 -46.5q0 -26 -19 -43.5t-47 -17.5q-30 0 -49 17t-19 42q0 28 16.5 47z"/>
<glyph glyph-name="uni0406" horiz-adv-x="369" unicode="І" d="M117 589q-6 19 -20 27t-42 10q-6 21 -6 53q54 -3 137 -3q74 0 134 3q0 -38 -6 -53q-28 -2 -42 -10t-20 -27t-6 -56v-389q0 -38 6 -57t20 -27t42 -10q6 -16 6 -53q-55 3 -131 3q-84 0 -140 -3q0 34 6 53q28 2 42 10t20 27t6 57v389q0 37 -6 56z"/>
<glyph glyph-name="uni0410" horiz-adv-x="708" unicode="А" d="M352 408q-27 60 -46 119q-18 -58 -41 -119l-58 -152h210zM687 -3q-39 3 -126 3q-94 0 -131 -3q0 34 8 53q25 3 36.5 10t11.5 21q0 15 -14 46l-33 78q-155 0 -254 -5l-20 -52q-13 -33 -13 -55q0 -39 49 -43q8 -24 8 -53q-34 3 -102 3q-29 0 -86 -3q0 31 8 52 q26 5 40.5 25.5t39.5 80.5l208 522q21 5 49 5l234 -530q19 -42 31 -62.5t22.5 -29t26.5 -10.5q7 -24 7 -53z"/>
<glyph glyph-name="uni0411" horiz-adv-x="654" unicode="Б" d="M429 86.5q33 34.5 33 94.5q0 79 -47.5 113t-108.5 34q-26 0 -59 -3v-176q0 -42 8 -62.5t26 -27.5t52 -7q63 0 96 34.5zM530 340.5q70 -43.5 70 -142.5q0 -90 -63.5 -144t-197.5 -54q-193 0 -290 -3q0 37 6 53q28 2 42.5 10t20.5 29.5t6 62.5v381q0 37 -6 56t-20 27 t-42 10q-6 17 -6 53q56 -3 194 -3q148 0 268 3q7 -106 21 -164q-22 -13 -61 -13q-6 57 -40 90.5t-117 33.5h-68v-246q31 4 76 4q137 0 207 -43.5z"/>
<glyph glyph-name="uni0412" horiz-adv-x="654" unicode="В" d="M429 86.5q33 34.5 33 96.5q0 141 -191 141h-24v-175q0 -42 8 -62.5t26 -27.5t52 -7q63 0 96 34.5zM384.5 595.5q-39.5 30.5 -94.5 30.5q-20 0 -43 -6v-240h32q145 0 145 120q0 65 -39.5 95.5zM600 196q0 -89 -64 -142.5t-197 -53.5q-192 0 -290 -3q0 37 6 53 q28 2 42.5 10t20.5 29.5t6 62.5v381q0 37 -6 56t-20.5 27t-42.5 10q-5 18 -5 53q39 -3 105 -3q53 0 82 1l85 1q113 0 172 -34t59 -114q0 -64 -40 -108t-109 -54q196 -12 196 -172z"/>
<glyph glyph-name="uni0413" horiz-adv-x="562" unicode="Г" d="M530 515q-22 -13 -61 -13q-6 57 -40 90.5t-116 33.5h-67v-465q0 -43 9.5 -66.5t29.5 -33t56 -11.5q6 -17 6 -53q-50 3 -144 3q-108 0 -154 -3q0 37 5 53q28 2 42.5 10t20.5 27t6 57v389q0 37 -6 56t-20 27t-42 10q-6 21 -6 53q72 -3 195 -3q145 0 265 3q7 -106 21 -164z "/>
<glyph glyph-name="uni0414" horiz-adv-x="697" unicode="Д" d="M427 133v400q0 42 -4.5 59.5t-19.5 25.5q-21 11 -61 11q-36 0 -55 -11q-15 -8 -19 -23.5t-7 -61.5q-8 -147 -17 -236t-26.5 -150.5t-48.5 -96.5h127q52 0 73.5 1.5t32.5 7.5q25 14 25 74zM648 3q-12 -59 -12 -160q-13 -5 -35 -5t-36 5q0 85 -12 157h-439 q-12 -75 -12 -146v-11q-14 -5 -36 -5t-35 5q0 93 -12 160q0 28 16 47h13q38 4 60.5 20.5t36.5 44.5q52 95 61 416v17q0 28 -2 42q-4 17 -20 24.5t-55 11.5q-6 21 -6 53q69 -3 257 -3q185 0 245 3q0 -35 -7 -53q-28 -2 -42 -10t-19.5 -27t-5.5 -56v-390q0 -37 6 -56t20 -27 t42 -10h13q16 -19 16 -47z"/>
<glyph glyph-name="uni0415" horiz-adv-x="614" unicode="Е" d="M580 155q-22 -68 -31 -157q-90 2 -227 2q-199 0 -273 -3q0 37 6 53q28 2 42 10t20 29t6 63v381q0 37 -6 56t-20.5 27t-42.5 10q-5 17 -5 53q67 -3 196 -3q161 0 278 3q10 -113 21 -164q-22 -13 -60 -13q-6 57 -40 90.5t-117 33.5h-81v-261h46q58 0 80 16.5t23 62.5 q24 8 59 8q-3 -49 -3 -111q0 -67 3 -117q-37 0 -57 6q-4 49 -26 66t-79 17h-46v-160q0 -41 7.5 -62t26 -29.5t54.5 -8.5h9q59 0 92.5 14t51 40t33.5 75q39 -8 60 -27z"/>
<glyph glyph-name="uni0416" horiz-adv-x="1006" unicode="Ж" d="M861 136q28 -45 57 -64.5t69 -21.5q0 -32 -6 -50q-98 0 -155 -9q-37 31 -69.5 80t-70.5 141q-26 62 -51.5 87.5t-69.5 26.5v-182q0 -38 6 -57t20 -27t42 -10q6 -19 6 -53q-57 3 -132 3q-83 0 -140 -3q0 35 7 53q28 2 42 10t19.5 27t5.5 57v182q-44 -1 -69.5 -26.5 t-51.5 -87.5q-38 -92 -70.5 -141t-69.5 -80q-57 9 -155 9q-6 18 -6 50q40 2 69 21.5t57 64.5t69 132q19 40 35.5 61.5t37.5 31.5t55 13q-20 5 -38 26t-56 83q-22 36 -38.5 62t-27 35t-22.5 9q-16 0 -24.5 -15.5t-16.5 -61.5h-10q-28 0 -53 9q7 49 7 112q0 29 -1 43 q24 7 51 7q37 0 60 -12.5t48 -47t74 -117.5q30 -52 52 -78.5t43.5 -36.5t50.5 -11v153q0 37 -6 56t-20 27t-42 10q-6 21 -6 53q54 -3 137 -3q75 0 135 3q0 -35 -6 -53q-28 -2 -42 -10t-20 -27t-6 -56v-153q29 1 50.5 11t43.5 36.5t52 78.5q50 84 74.5 118t47.5 46.5t60 12.5 q26 0 51 -7q-1 -14 -1 -43q0 -63 7 -112q-25 -9 -53 -9h-10q-8 46 -16.5 61.5t-24.5 15.5q-12 0 -22.5 -9t-27 -35t-38.5 -62q-38 -62 -56 -83t-38 -26q34 -3 55 -13t37.5 -31.5t35.5 -61.5q41 -87 69 -132z"/>
<glyph glyph-name="uni0417" horiz-adv-x="538" unicode="З" d="M441.5 317q42.5 -46 42.5 -120q0 -98 -64.5 -152t-182.5 -54q-111 0 -180 47q4 31 4 67q0 33 -3 64q25 10 50 10q11 0 16 -1q11 -71 34 -102.5t78 -31.5q58 0 90 36.5t32 101.5q0 71 -46.5 110t-131.5 39q-3 11 -3 22q0 17 6 28q74 6 113 42t39 99q0 52 -24.5 81 t-68.5 29q-31 0 -49 -13t-29.5 -41.5t-19.5 -79.5q-5 -1 -16 -1q-25 0 -50 10q3 31 3 64q0 38 -4 67q72 47 180 47q96 0 148.5 -40t52.5 -114q0 -65 -35.5 -105.5t-101.5 -51.5q78 -11 120.5 -57z"/>
<glyph glyph-name="uni0418" horiz-adv-x="767" unicode="И" d="M650 87q6 -19 20 -27t42 -10q6 -21 6 -53q-57 3 -137 3q-81 0 -135 -3q0 36 7 53q28 2 42 10t19.5 27t5.5 56v389l-290 -532q-127 0 -181 -3q0 34 6 53q28 2 42 10t20 27t6 57v389q0 37 -6 56t-20 27t-42 10q-6 21 -6 53q57 -3 137 -3q82 0 134 3q0 -38 -6 -53 q-28 -2 -42 -10t-20 -27t-6 -56v-388l291 531q127 0 181 3q0 -33 -7 -53q-28 -2 -42 -10t-19.5 -27t-5.5 -57v-389q0 -37 6 -56z"/>
<glyph glyph-name="uni0419" horiz-adv-x="767" unicode="Й" d="M650 87q6 -19 20 -27t42 -10q6 -21 6 -53q-57 3 -137 3q-81 0 -135 -3q0 36 7 53q28 2 42 10t19.5 27t5.5 56v389l-290 -532q-127 0 -181 -3q0 34 6 53q28 2 42 10t20 27t6 57v389q0 37 -6 56t-20 27t-42 10q-6 21 -6 53q57 -3 137 -3q82 0 134 3q0 -38 -6 -53 q-28 -2 -42 -10t-20 -27t-6 -56v-388l291 531q127 0 181 3q0 -33 -7 -53q-28 -2 -42 -10t-19.5 -27t-5.5 -57v-389q0 -37 6 -56zM523 924q33 0 60 -12q0 -82 -56.5 -126t-149.5 -44q-88 0 -140.5 43t-52.5 123q28 15 66 15q11 0 17 -1q10 -65 39.5 -95t83.5 -30q53 0 79 30 t31 95q14 2 23 2z"/>
<glyph glyph-name="uni041A" horiz-adv-x="706" unicode="К" d="M553 136q30 -45 60 -64.5t73 -21.5q0 -32 -7 -50q-100 0 -161 -9q-38 30 -71.5 79.5t-74.5 141.5q-27 63 -53.5 88.5t-72.5 25.5v-182q0 -38 6 -57t20.5 -27t42.5 -10q5 -16 5 -53q-56 3 -131 3q-83 0 -140 -3q0 34 6 53q28 2 42 10t20 27t6 57v389q0 37 -6 56t-20 27 t-42 10q-6 21 -6 53q54 -3 137 -3q74 0 134 3q0 -38 -6 -53q-28 -2 -42 -10t-20 -27t-6 -56v-153q30 0 52 10t45.5 37t55.5 79q51 83 77 117.5t49.5 47t62.5 12.5q28 0 54 -7q-1 -15 -1 -46q0 -56 6 -109q-27 -9 -53 -9h-10q-8 45 -18 61t-27 16q-18 0 -35 -20t-58 -86 q-39 -62 -57.5 -83t-37.5 -26q34 -3 55 -13t38 -31t37 -62q42 -87 72 -132z"/>
<glyph glyph-name="uni041B" horiz-adv-x="718" unicode="Л" d="M663 626q-28 -2 -42 -10t-20 -27t-6 -56v-389q0 -38 6 -57t20 -27t42 -10q6 -16 6 -53q-55 3 -131 3q-84 0 -140 -3q0 34 6 53q28 2 42 10t20 27t6 57v389q0 42 -4.5 59.5t-19.5 25.5q-21 11 -61 11q-35 0 -56 -11q-15 -8 -18.5 -23.5t-6.5 -61.5q-8 -150 -17.5 -240 t-27.5 -152.5t-49 -97.5q-45 -52 -107 -52q-27 0 -50 9.5t-34 22.5q-3 11 -3 27q0 31 7 55q41 -9 77 -9q37 0 58 11t35 39q22 43 36.5 128t19.5 257v17q0 28 -3 43.5t-19 23t-55 11.5q-6 17 -6 53q68 -3 255 -3q186 0 246 3q0 -38 -6 -53z"/>
<glyph glyph-name="uni041C" horiz-adv-x="950" unicode="М" d="M922 -3q-45 3 -141 3q-84 0 -131 -3q0 31 7 53q37 4 50 17t13 48q0 22 -3 53l-34 324l-202 -494q-18 -7 -50 -7l-227 499l-30 -295q-4 -46 -4 -59q0 -47 15.5 -65.5t51.5 -20.5q6 -20 6 -53q-43 3 -108 3q-69 0 -107 -3q0 33 6 53q28 2 43 14.5t24 43.5t15 93l30 325 q1 10 1 27q0 41 -15 57t-52 16q-6 19 -6 53q34 -3 94 -3q55 0 93 3l231 -519l200 519q40 -3 96 -3q51 0 93 3q0 -33 -6 -53q-35 0 -52 -16.5t-17 -59.5q0 -9 2 -29l34 -341q5 -53 13 -79.5t21.5 -37t39.5 -12.5q6 -25 6 -54z"/>
<glyph glyph-name="uni041D" horiz-adv-x="767" unicode="Н" d="M650 87q6 -19 20 -27t42 -10q6 -19 6 -53q-55 3 -132 3q-83 0 -140 -3q0 30 7 53q28 2 42 10t19.5 27t5.5 57v178q-195 0 -274 -5v-173q0 -38 6 -57t20 -27t42 -10q6 -16 6 -53q-55 3 -131 3q-84 0 -140 -3q0 34 6 53q28 2 42 10t20 27t6 57v389q0 37 -6 56t-20 27 t-42 10q-6 21 -6 53q54 -3 137 -3q74 0 134 3q0 -38 -6 -53q-28 -2 -42 -10t-20 -27t-6 -56v-160h274v160q0 37 -5.5 56t-19.5 27t-42 10q-7 20 -7 53q54 -3 138 -3q74 0 134 3q0 -35 -6 -53q-28 -2 -42 -10t-20 -27t-6 -56v-389q0 -38 6 -57z"/>
<glyph glyph-name="uni041E" horiz-adv-x="739" unicode="О" d="M486 83q42 35 64.5 96.5t22.5 139.5q0 86 -28.5 157t-79.5 112.5t-115 41.5q-53 0 -95 -32.5t-65.5 -92.5t-23.5 -139q0 -85 26 -157.5t76 -116.5t119 -44q57 0 99 35zM542.5 642q76.5 -43 119 -120t42.5 -178q0 -100 -42.5 -180.5t-118.5 -126.5t-174 -46 q-100 0 -175.5 45t-117 124.5t-41.5 179.5q0 102 43.5 180t119.5 121.5t171 43.5q97 0 173.5 -43z"/>
<glyph glyph-name="uni041F" horiz-adv-x="756" unicode="П" d="M640 87q6 -19 20 -27t42 -10q6 -19 6 -53q-57 3 -132 3q-83 0 -140 -3q0 35 7 53q28 2 42 10t19.5 27t5.5 57v389q0 35 -5.5 55t-19.5 29q-11 6 -33.5 8t-73.5 2q-50 0 -72.5 -2t-33.5 -8q-15 -8 -20.5 -28.5t-5.5 -55.5v-389q0 -38 6 -57t20 -27t42 -10q6 -16 6 -53 q-55 3 -131 3q-84 0 -140 -3q0 34 6 53q28 2 42 10t20 27t6 57v389q0 37 -6 56t-20 27t-42 10q-6 21 -6 53q54 -3 266 -3h129q204 0 264 3q0 -35 -6 -53q-28 -2 -42 -10t-20 -27t-6 -56v-389q0 -38 6 -57z"/>
<glyph glyph-name="uni0420" horiz-adv-x="609" unicode="Р" d="M412 332.5q35 34.5 35 118.5q0 81 -37 127t-114 46q-24 0 -49 -6v-457q0 -43 9.5 -66.5t29.5 -33t56 -11.5q6 -17 6 -53q-49 3 -144 3q-107 0 -154 -3q0 37 5 53q28 2 42.5 10t20.5 27.5t6 56.5v389q0 37 -6 56t-20 27t-42 10q-6 17 -6 53q55 -3 146 -3q43 0 70 1l82 1 q117 0 171.5 -56t54.5 -145q0 -62 -27 -116t-79 -86.5t-124 -32.5q-42 0 -70 11q-2 14 -2 20q0 15 5 30q19 -5 45 -5q55 0 90 34.5z"/>
<glyph glyph-name="uni0421" horiz-adv-x="648" unicode="С" d="M582 478q-21 -10 -66 -10q-2 93 -36.5 129.5t-100.5 36.5q-107 0 -159 -76t-52 -189q0 -88 28 -158t82 -110t129 -40q44 0 90 14t88 40q7 -6 13 -17t8 -20q-55 -44 -113 -65.5t-133 -21.5q-95 0 -169 44.5t-115 124.5t-41 182q0 110 47 187.5t124 116.5t166 39 q111 0 221 -52q-11 -57 -11 -155z"/>
<glyph glyph-name="uni0422" horiz-adv-x="622" unicode="Т" d="M597 511q-26 -11 -59 -11h-6q-5 64 -31.5 95.5t-81.5 31.5h-44v-483q0 -38 6.5 -57t23.5 -27t53 -10q7 -18 7 -53q-63 3 -149 3q-100 0 -159 -3q0 35 7 53q36 2 54 10t25.5 27t7.5 57v483h-37q-43 0 -67.5 -14.5t-36.5 -41t-22 -71.5q-43 0 -63 10q19 97 19 169 q63 -3 271 -3t271 3q-1 -13 -1 -26q0 -62 12 -142z"/>
<glyph glyph-name="uni0423" horiz-adv-x="692" unicode="У" d="M671 679q0 -28 -6 -53q-27 -6 -45 -30t-48 -83q-84 -161 -146 -270q-57 -100 -80.5 -150t-38.5 -100q-57 7 -147 7q-6 18 -6 50q53 4 91 34.5t87 111.5q-128 215 -196 322q-29 45 -46 67t-30.5 30t-32.5 11q-6 20 -6 53q42 -3 133 -3q66 0 134 3q0 -31 -6 -53 q-26 -2 -36.5 -7t-10.5 -15q0 -14 28 -58q56 -87 142 -233q55 92 111 213q19 40 19 59q0 35 -52 41q-6 19 -6 53q40 -3 93 -3q62 0 101 3z"/>
<glyph glyph-name="uni0424" horiz-adv-x="847" unicode="Ф" d="M629 491.5q-52 61.5 -143 68.5v-445q90 2 142.5 59.5t52.5 156.5t-52 160.5zM218.5 185q52.5 -62 143.5 -69v445q-91 -2 -143.5 -58.5t-52.5 -154.5q0 -101 52.5 -163zM772.5 200.5q-39.5 -63.5 -113 -100.5t-173.5 -41v-15q0 -37 6.5 -56t24.5 -26.5t54 -9.5 q7 -18 7 -53q-64 3 -154 3q-98 0 -154 -3q0 33 7 53q35 2 53 9.5t25 26.5t7 56v15q-100 1 -173.5 34.5t-113.5 95.5t-40 145q0 82 40 144.5t113.5 98.5t173.5 40v15q0 37 -6.5 56t-24.5 26.5t-54 9.5q-7 18 -7 53q64 -3 156 -3q96 0 152 3q0 -33 -7 -53q-35 -2 -53 -9.5 t-25 -26.5t-7 -56v-15q100 -1 173.5 -34t113 -93t39.5 -142q0 -84 -39.5 -147.5z"/>
<glyph glyph-name="uni0425" horiz-adv-x="685" unicode="Х" d="M650 -3q-43 3 -140 3q-77 0 -137 -2q0 29 5 52q22 2 32.5 7.5t10.5 18.5q0 23 -39 88q-27 47 -66 109l-72 -106q-39 -58 -39 -82q0 -14 11.5 -22t36.5 -13q6 -20 6 -53q-51 3 -115 3q-69 0 -110 -3q0 34 7 55q32 8 62 32.5t67 74.5l115 165q-44 71 -119 185 q-35 53 -52 75.5t-28.5 30t-29.5 10.5q-7 22 -7 54q53 -3 146 -3q66 0 128 2q0 -30 -5 -52q-23 -4 -33.5 -11t-10.5 -21q0 -22 32 -71l53 -81l20 -31l63 99q36 59 36 83q0 15 -11.5 22.5t-34.5 10.5q-6 20 -6 53q50 -3 108 -3q66 0 103 3q0 -35 -5 -53q-31 -8 -54.5 -29 t-64.5 -84l-101 -154l11 -18q64 -103 98 -161q33 -54 52.5 -80.5t34.5 -36.5t35 -13q7 -21 7 -53z"/>
<glyph glyph-name="uni0426" horiz-adv-x="779" unicode="Ц" d="M719 -157q-17 -5 -35 -5q-17 0 -37 5v21q0 70 -11 135q-41 1 -194 1h-130q-203 0 -263 -3q0 35 6 53q28 2 42 10t20 27t6 56v389q0 38 -6 57t-20 27t-42 10q-6 16 -6 53q55 -3 131 -3q84 0 140 3q0 -32 -6 -53q-28 -2 -42 -10t-20 -27t-6 -57v-389q0 -35 5.5 -55.5 t20.5 -28.5q11 -6 33.5 -8t72.5 -2q51 0 73.5 2t33.5 8q14 9 19.5 29t5.5 55v389q0 38 -6 57t-20 27t-42 10q-6 20 -6 53q56 -3 132 -3q83 0 140 3q0 -33 -7 -53q-28 -2 -42 -10t-19.5 -27t-5.5 -57v-389q0 -37 6 -56t20 -27t42 -10h13q16 -21 16 -47q-12 -60 -12 -147v-13z "/>
<glyph glyph-name="uni0427" horiz-adv-x="729" unicode="Ч" d="M613 87q6 -19 20 -27t42 -10q6 -19 6 -53q-42 3 -146 3t-153 -3q0 37 7 53q36 2 56 11.5t29 32t9 64.5v152q-70 -20 -154 -20q-92 0 -138 27.5t-62 77.5t-19 138q-2 40 -6 57t-17.5 25t-44.5 11q-6 21 -6 53q54 -3 137 -3q74 0 134 3q0 -38 -6 -53q-29 -2 -43 -10 t-19.5 -28t-5.5 -60q0 -67 13 -104.5t43 -54t83 -16.5q54 0 111 9v171q0 37 -6 56t-20 27t-42 10q-6 21 -6 53q54 -3 137 -3q75 0 135 3q0 -35 -7 -53q-28 -2 -42 -10t-19.5 -27t-5.5 -56v-389q0 -38 6 -57z"/>
<glyph glyph-name="uni0428" horiz-adv-x="1006" unicode="Ш" d="M55 50q28 2 42 10t20 27t6 56v389q0 38 -6 57t-20 27t-42 10q-6 16 -6 53q55 -3 131 -3q81 0 137 3q0 -32 -6 -53q-26 -2 -39.5 -10t-19.5 -27.5t-6 -56.5v-389q0 -35 5.5 -55.5t20.5 -28.5q19 -10 72 -10t72 10q14 9 19.5 29t5.5 55v389q0 37 -6 56.5t-19.5 27.5 t-39.5 10q-6 20 -6 53q56 -3 129 -3q80 0 137 3q0 -32 -6 -53q-27 -2 -40.5 -10t-19 -27t-5.5 -57v-389q0 -35 5.5 -55t19.5 -29q19 -10 72 -10q55 0 72 10q15 8 20.5 28.5t5.5 55.5v389q0 37 -6 56.5t-19.5 27.5t-39.5 10q-6 16 -6 53q55 -3 128 -3q84 0 140 3 q0 -32 -6 -53q-28 -2 -42 -10t-20 -27t-6 -57v-389q0 -37 6 -56t20 -27t42 -10q6 -17 6 -53q-54 3 -237 3h-437q-174 0 -234 -3q0 35 6 53z"/>
<glyph glyph-name="uni0429" horiz-adv-x="1029" unicode="Щ" d="M980 3q-12 -67 -12 -160q-13 -5 -35 -5t-36 5v11q0 70 -12 145q-37 1 -165 1h-437q-174 0 -234 -3q0 35 6 53q28 2 42 10t20 27t6 56v389q0 38 -6 57t-20 27t-42 10q-6 20 -6 53q55 -3 132 -3q80 0 137 3q0 -33 -7 -53q-26 -2 -39.5 -10t-19.5 -27.5t-6 -56.5v-389 q0 -35 5.5 -55.5t20.5 -28.5q19 -10 72 -10t72 10q15 8 20.5 28.5t5.5 55.5v389q0 37 -6 56.5t-19.5 27.5t-40.5 10q-6 20 -6 53q57 -3 129 -3q81 0 137 3q0 -32 -6 -53q-27 -2 -40.5 -10t-19 -27t-5.5 -57v-389q0 -35 5.5 -55.5t20.5 -28.5q18 -10 72 -10q53 0 72 10 q14 9 19.5 29t5.5 55v389q0 37 -6 56.5t-19.5 27.5t-39.5 10q-6 16 -6 53q55 -3 129 -3q83 0 140 3q0 -28 -7 -53q-28 -2 -42 -10t-19.5 -27t-5.5 -57v-389q0 -37 5.5 -56t19.5 -27t42 -10h13q16 -19 16 -47z"/>
<glyph glyph-name="uni042A" horiz-adv-x="771" unicode="Ъ" d="M545.5 86.5q32.5 34.5 32.5 94.5q0 79 -47 113t-108 34q-26 0 -59 -3v-176q0 -42 8 -62.5t26 -27.5t52 -7q63 0 95.5 34.5zM647 340.5q70 -43.5 70 -142.5q0 -90 -63.5 -144t-197.5 -54q-194 0 -290 -3q0 37 6 53q28 2 42 10t20 29t6 63v475h-30q-59 0 -84.5 -30.5 t-37.5 -96.5q-43 0 -63 10q19 97 19 169q53 -3 219 -3q156 0 202 3q0 -37 -7 -53q-36 -2 -56 -11.5t-29 -33t-9 -66.5v-135q31 4 76 4q137 0 207 -43.5z"/>
<glyph glyph-name="uni042B" horiz-adv-x="957" unicode="Ы" d="M432.5 86q33.5 34 33.5 95q0 79 -48 113t-110 34q-28 0 -61 -3v-176q0 -42 8 -62.5t26 -27.5t53 -7q65 0 98.5 34zM840 87q6 -19 20 -27t42 -10q6 -20 6 -53q-55 3 -132 3q-83 0 -139 -3q0 33 6 53q28 2 42 10t20 27t6 57v389q0 37 -6 56t-20 27t-42 10q-6 17 -6 53 q52 -3 137 -3q74 0 134 3q0 -35 -6 -53q-28 -2 -42 -10t-20 -27t-6 -56v-389q0 -38 6 -57zM535.5 340.5q71.5 -43.5 71.5 -142.5q0 -90 -65 -144t-201 -54q-194 0 -292 -3q0 33 6 53q28 2 42.5 10t20.5 29.5t6 62.5v381q0 37 -6 56t-20 27t-42 10q-6 21 -6 53q54 -3 154 -3 q95 0 144 3q0 -36 -6 -53q-36 -2 -56 -11.5t-29.5 -33t-9.5 -66.5v-136q40 5 79 5q138 0 209.5 -43.5z"/>
<glyph glyph-name="uni042C" horiz-adv-x="661" unicode="Ь" d="M432 86.5q34 34.5 34 94.5q0 79 -48 113t-110 34q-28 0 -61 -3v-176q0 -42 8 -62.5t26 -27.5t52 -7q65 0 99 34.5zM535.5 340.5q71.5 -43.5 71.5 -142.5q0 -90 -65 -144t-201 -54q-194 0 -292 -3q0 37 6 53q28 2 42.5 10t20.5 29.5t6 62.5v381q0 37 -6 56t-20 27t-42 10 q-6 17 -6 53q54 -3 154 -3q95 0 144 3q0 -36 -6 -53q-36 -2 -56 -11.5t-29.5 -33t-9.5 -66.5v-136q40 5 78 5q139 0 210.5 -43.5z"/>
<glyph glyph-name="uni042D" horiz-adv-x="668" unicode="Э" d="M543 598q90 -87 90 -250q0 -111 -42.5 -191.5t-124 -123t-194.5 -42.5q-120 0 -228 52q3 32 3 68q0 39 -5 87q24 15 65 15q9 -92 46 -131.5t113 -39.5q107 0 167.5 69.5t65.5 196.5q-132 0 -328 -4q0 17 3.5 36t9.5 30h315q-8 125 -68.5 194.5t-162.5 69.5 q-67 0 -100.5 -37t-37.5 -129q-45 0 -66 10q0 103 -11 155q107 52 233 52q167 0 257 -87z"/>
<glyph glyph-name="uni042E" horiz-adv-x="1036" unicode="Ю" d="M782.5 83q42.5 35 65 96t22.5 137q0 87 -28.5 159t-79 113.5t-111.5 41.5q-54 0 -94.5 -32.5t-62.5 -92.5t-22 -139q0 -85 24.5 -157.5t72 -116.5t113.5 -44q58 0 100.5 35zM839.5 642q75.5 -43 118.5 -120.5t43 -178.5q0 -100 -42.5 -180t-119 -126t-174.5 -46 q-94 0 -166 42.5t-113 118t-44 170.5q-59 0 -96 -4v-174q0 -38 6 -57t20 -27t42 -10q6 -16 6 -53q-55 3 -131 3q-84 0 -140 -3q0 34 6 53q28 2 42 10t20 27t6 57v389q0 37 -6 56t-20 27t-42 10q-6 21 -6 53q54 -3 137 -3q74 0 134 3q0 -38 -6 -53q-28 -2 -42 -10t-20 -27 t-6 -56v-160h97q7 93 50.5 164t115 109.5t160.5 38.5q95 0 170.5 -43z"/>
<glyph glyph-name="uni042F" horiz-adv-x="650" unicode="Я" d="M239 386q48 -36 125 -36q16 0 40 3v270q-35 8 -64 8q-76 0 -112.5 -36.5t-36.5 -98.5q0 -74 48 -110zM533 87q6 -19 20 -27t42 -10q6 -18 6 -53q-51 3 -129 3q-93 0 -135 -3q0 37 5 53q25 1 38 9t18.5 28t5.5 59v144q-31 0 -49 -9.5t-32 -34t-34 -74.5l-13 -34 q-27 -70 -42 -95.5t-47 -51.5q-61 9 -161 9q-7 17 -7 50q43 4 67 17.5t38.5 35.5t39.5 71l18 36q25 48 43 69.5t42 29.5q-100 16 -152.5 67t-52.5 129q0 79 57 126.5t185 47.5l64 -1q68 -2 107 -2q89 0 126 3q0 -33 -5 -52q-28 -1 -42.5 -9t-20.5 -27.5t-6 -57.5v-389 q0 -38 6 -57z"/>
<glyph glyph-name="uni0430" horiz-adv-x="523" unicode="а" d="M203.5 195q-38.5 -20 -38.5 -69q0 -31 15 -47t38 -16q22 0 43.5 14.5t36 44t14.5 72.5v32q-70 -11 -108.5 -31zM491 64q0 -22 -8 -41q-32 -2 -68.5 -10.5t-63.5 -21.5q-15 6 -22 17.5t-7 38.5q0 16 3 34q-12 -30 -38 -53q-42 -35 -108 -35t-101 28.5t-35 81.5 q0 60 45 95.5t99.5 50.5t124.5 25q0 54 -4 76t-17 38q-22 27 -59 27q-41 0 -61 -34.5t-23 -79.5q-47 0 -68 9q2 24 2 38q0 43 -7 77q41 20 89 31t93 11q89 0 130 -41q23 -24 33 -63t10 -107v-105q0 -29 4 -44t17 -22t39 -7z"/>
<glyph glyph-name="uni0431" horiz-adv-x="544" unicode="б" d="M361.5 92.5q27.5 43.5 27.5 114.5q0 88 -42.5 127t-101.5 39q-42 0 -84 -26l-2 -35q0 -143 31.5 -203t88.5 -60q55 0 82.5 43.5zM452.5 387.5q54.5 -50.5 54.5 -151.5q0 -116 -66 -180.5t-181 -64.5q-112 0 -167.5 73t-55.5 240q0 209 88.5 289.5t229.5 80.5q28 0 41 11 t20 39h8q28 0 46 -12q-13 -59 -16 -126q-10 -21 -46 -21q-110 0 -175 -19.5t-95 -62t-34 -113.5q100 68 200 68q94 0 148.5 -50.5z"/>
<glyph glyph-name="uni0432" horiz-adv-x="570" unicode="в" d="M401 123q0 88 -167 88h-21v-93q0 -42 15.5 -55.5t55.5 -13.5q117 0 117 74zM335 391q-34 18 -81 18q-19 0 -41 -5v-142h29q127 0 127 71q0 40 -34 58zM485 215q48 -29 48 -85q0 -59 -58.5 -94.5t-181.5 -35.5q-172 0 -259 -3q0 35 6 53q30 0 42.5 19t12.5 68v184 q0 49 -12.5 68t-42.5 19q-6 18 -6 53q44 -3 103 -3l72 1q24 1 65 1q218 0 218 -103q0 -42 -36.5 -71.5t-99.5 -37.5q81 -4 129 -33z"/>
<glyph glyph-name="uni0433" horiz-adv-x="460" unicode="г" d="M441 339q-25 -15 -64 -15q-4 30 -14 48.5t-34.5 29.5t-69.5 11h-46v-288q0 -44 17 -60.5t62 -19.5q6 -16 6 -48q-63 3 -144 3q-76 0 -120 -3q0 35 6 53q30 0 42.5 19t12.5 68v184q0 49 -12.5 68t-42.5 19q-6 18 -6 53q63 -3 177 -3q141 0 213 2q5 -80 17 -121z"/>
<glyph glyph-name="uni0434" horiz-adv-x="590" unicode="д" d="M350.5 382q-4.5 14 -16.5 20q-14 6 -45 6t-45 -6q-13 -5 -16 -15.5t-6 -50.5q-9 -123 -25 -188t-51 -98h107q64 0 80 6q12 6 17 20.5t5 44.5v215q0 32 -4.5 46zM545 -157q-13 -5 -35 -5t-37 5v22q0 70 -11 135h-350q-11 -65 -11 -135v-22q-14 -5 -37 -5t-35 5v13 q0 86 -12 147q0 28 16 47h14q31 7 49 22.5t31 38.5q40 67 46 227l1 20q0 20 -5 29.5t-18 14t-40 6.5q-7 21 -7 52q76 -2 215 -2q163 0 215 3q0 -35 -7 -53q-29 0 -41.5 -18.5t-12.5 -68.5v-184q0 -50 12.5 -68.5t41.5 -18.5h14q16 -19 16 -47q-12 -60 -12 -147v-13z"/>
<glyph glyph-name="uni0435" horiz-adv-x="494" unicode="е" d="M188 378.5q-25 -33.5 -28 -111.5h176q0 65 -22.5 105t-61.5 40t-64 -33.5zM443.5 92q7.5 -12 8.5 -24q-68 -77 -186 -77q-113 0 -171 66t-58 170q0 69 27.5 123.5t78 85.5t117.5 31q96 0 144.5 -59.5t51.5 -151.5q-4 -24 -20 -41q-174 0 -274 -5q7 -69 41 -111t101 -42 q33 0 66 14t57 38q9 -5 16.5 -17z"/>
<glyph glyph-name="uni0436" horiz-adv-x="841" unicode="ж" d="M713.5 104q18.5 -25 40 -37t59.5 -16q0 -36 -7 -51q-87 0 -140 -9q-27 17 -46.5 45t-45.5 77q-28 52 -47.5 77t-47.5 26v-79q0 -49 12.5 -68t42.5 -19q6 -18 6 -53q-44 3 -120 3q-77 0 -120 -3q0 36 7 53q29 0 41.5 18.5t12.5 68.5v79q-27 -2 -47 -27t-46 -76 q-26 -49 -45.5 -77t-46.5 -45q-52 9 -140 9q-7 18 -7 51q38 4 60 16t40 37t56 89q22 37 42 49.5t58 15.5q-15 4 -28 16.5t-43 50.5q-28 36 -39.5 47t-24.5 11q-11 0 -16 -9.5t-9 -39.5h-13q-29 0 -53 7q5 27 5 76q0 29 -1 41q26 6 51 6q27 0 44 -8.5t32 -25t44 -56.5 q3 -4 22 -31q36 -48 55.5 -63.5t49.5 -16.5v58q0 50 -12.5 68.5t-41.5 18.5q-7 18 -7 53q43 -3 120 -3q76 0 120 3q0 -35 -6 -53q-30 0 -42.5 -19t-12.5 -68v-58q32 1 51.5 16.5t55.5 63.5q19 27 22 31q29 40 44 56.5t32 25t44 8.5q26 0 52 -6q-2 -24 -2 -42q0 -38 5 -75 q-24 -7 -52 -7h-13q-4 30 -9.5 39.5t-15.5 9.5q-14 0 -24.5 -10t-40.5 -48q-28 -37 -41.5 -50t-29.5 -17q39 -3 58.5 -16t41.5 -49q38 -64 56.5 -89z"/>
<glyph glyph-name="uni0437" horiz-adv-x="432" unicode="з" d="M395 133q0 -66 -53 -102.5t-151 -36.5q-88 0 -148 32q4 21 4 49q0 22 -3 47q22 10 49 10q7 0 14 -1q7 -51 23.5 -71t55.5 -20q43 0 65.5 22t22.5 60q0 93 -133 93q-3 9 -3 19q0 15 6 27q55 3 85 26.5t30 64.5q0 31 -18 48.5t-50 17.5q-31 0 -45 -19t-22 -69q-5 -1 -17 -1 q-26 0 -47 9q4 34 4 48q0 17 -4 47q61 31 146 31q83 0 125.5 -27.5t42.5 -79.5q0 -44 -29 -71.5t-84 -34.5q134 -15 134 -118z"/>
<glyph glyph-name="uni0438" horiz-adv-x="624" unicode="и" d="M542.5 69q12.5 -19 42.5 -19q6 -18 6 -53q-43 3 -120 3q-76 0 -120 -3q0 36 7 53q29 0 41.5 18.5t12.5 68.5v208l-215 -345q-119 0 -163 -3q0 35 6 53q30 0 42.5 19t12.5 68v184q0 49 -12.5 68t-42.5 19q-6 18 -6 53q44 -3 120 -3q75 0 120 3q0 -32 -7 -53 q-29 0 -41.5 -18.5t-12.5 -68.5v-206l214 343q121 0 164 3q0 -35 -6 -53q-30 0 -42.5 -19t-12.5 -68v-184q0 -49 12.5 -68z"/>
<glyph glyph-name="uni0439" horiz-adv-x="624" unicode="й" d="M542.5 69q12.5 -19 42.5 -19q6 -18 6 -53q-43 3 -120 3q-76 0 -120 -3q0 36 7 53q29 0 41.5 18.5t12.5 68.5v208l-215 -345q-119 0 -163 -3q0 35 6 53q30 0 42.5 19t12.5 68v184q0 49 -12.5 68t-42.5 19q-6 18 -6 53q44 -3 120 -3q75 0 120 3q0 -32 -7 -53 q-29 0 -41.5 -18.5t-12.5 -68.5v-206l214 343q121 0 164 3q0 -35 -6 -53q-30 0 -42.5 -19t-12.5 -68v-184q0 -49 12.5 -68zM452 706q33 0 60 -12q0 -82 -56.5 -126t-149.5 -44q-88 0 -140.5 43t-52.5 123q28 15 66 15q11 0 17 -1q10 -65 39.5 -95t83.5 -30q53 0 79 30t31 95 q14 2 23 2z"/>
<glyph glyph-name="uni043A" horiz-adv-x="577" unicode="к" d="M455.5 104q18.5 -25 41 -37t61.5 -16q0 -34 -8 -51q-89 0 -143 -9q-28 17 -48 45t-47 77q-28 52 -49 77t-50 26v-79q0 -50 12.5 -68.5t41.5 -18.5q7 -21 7 -53q-45 3 -120 3q-77 0 -120 -3q0 35 6 53q30 0 42.5 19t12.5 68v184q0 49 -12.5 68t-42.5 19q-6 18 -6 53 q43 -3 120 -3q75 0 120 3q0 -32 -7 -53q-29 0 -41.5 -18.5t-12.5 -68.5v-58q33 0 53.5 15.5t58.5 64.5l25 34q28 38 43 54.5t32.5 24.5t45.5 8q26 0 52 -6q-2 -24 -2 -40q0 -44 6 -77q-25 -7 -54 -7h-13q-4 30 -9.5 39.5t-16.5 9.5q-14 0 -25.5 -10.5t-40.5 -47.5t-43 -50 t-30 -17q40 -3 60.5 -16t41.5 -49q40 -64 58.5 -89z"/>
<glyph glyph-name="uni043B" horiz-adv-x="598" unicode="л" d="M558 408q-29 0 -41.5 -18.5t-12.5 -68.5v-184q0 -50 12.5 -68.5t41.5 -18.5q7 -17 7 -53q-43 3 -120 3q-76 0 -120 -3q0 36 7 53q29 0 41.5 18.5t12.5 68.5v199q0 32 -4.5 46t-16.5 20q-14 6 -43 6q-26 0 -41 -6q-12 -5 -15.5 -16t-6.5 -50q-9 -131 -23.5 -197 t-48.5 -103q-37 -43 -92 -43q-25 0 -46.5 9t-31.5 22q-2 10 -2 19q0 28 8 50q47 -10 74 -10q29 0 46.5 8.5t29.5 31.5q15 25 26.5 84t11.5 148q0 23 -4 33t-16.5 14t-42.5 6q-7 19 -7 52q74 -2 211 -2q160 0 213 3q0 -35 -7 -53z"/>
<glyph glyph-name="uni043C" horiz-adv-x="763" unicode="м" d="M738 -3q-31 3 -125 3q-73 0 -108 -3q0 33 6 53q28 2 38 10t10 33q0 7 -2 35l-25 202l-151 -331q-14 -5 -46 -5l-170 335l-21 -174q-3 -28 -3 -47q0 -34 11 -45t39 -13q7 -19 7 -53q-34 3 -84 3q-54 0 -90 -3q0 31 7 53q21 1 32.5 9t18.5 30.5t12 65.5l21 184q1 9 1 23 q0 27 -11.5 36.5t-39.5 9.5q-7 19 -7 53q42 -3 88 -3q50 0 84 2l163 -316l142 316q46 -2 88 -2q45 0 85 3q0 -35 -7 -53q-28 0 -40 -10t-12 -37q0 -6 2 -24l24 -201q4 -38 10 -55t16 -23t31 -8q6 -18 6 -53z"/>
<glyph glyph-name="uni043D" horiz-adv-x="624" unicode="н" d="M542.5 69q12.5 -19 42.5 -19q6 -18 6 -53q-44 3 -120 3q-77 0 -120 -3q0 35 7 53q29 0 41.5 18.5t12.5 68.5v78q-130 0 -199 -5v-73q0 -50 12.5 -68.5t41.5 -18.5q7 -21 7 -53q-45 3 -120 3q-76 0 -120 -3q0 35 6 53q30 0 42.5 19t12.5 68v184q0 49 -12.5 68t-42.5 19 q-6 18 -6 53q44 -3 120 -3q75 0 120 3q0 -32 -7 -53q-29 0 -41.5 -18.5t-12.5 -68.5v-62h199v62q0 50 -12.5 68.5t-41.5 18.5q-7 18 -7 53q43 -3 120 -3t120 3q0 -35 -6 -53q-30 0 -42.5 -19t-12.5 -68v-184q0 -49 12.5 -68z"/>
<glyph glyph-name="uni043E" d="M189.5 368q-26.5 -44 -26.5 -116q0 -95 33 -150t90 -55q51 0 78 45.5t27 120.5q0 61 -17 106t-45.5 69t-62.5 24q-50 0 -76.5 -44zM453 402.5q63 -64.5 63 -171.5q0 -71 -30 -125t-84.5 -84.5t-126.5 -30.5q-111 0 -174.5 63.5t-63.5 172.5q0 71 31 125.5t85.5 84.5 t123.5 30q113 0 176 -64.5z" unicode="о"/>
<glyph glyph-name="uni043F" horiz-adv-x="611" unicode="п" d="M528.5 69q12.5 -19 42.5 -19q7 -21 7 -53q-45 3 -120 3q-76 0 -121 -3q0 32 7 53q30 0 42.5 19t12.5 68v184q0 49 -12.5 68t-42.5 19h-77q-29 0 -41.5 -18.5t-12.5 -68.5v-184q0 -50 12.5 -68.5t41.5 -18.5q7 -21 7 -53q-45 3 -120 3q-76 0 -120 -3q0 35 6 53 q30 0 42.5 19t12.5 68v184q0 49 -12.5 68t-42.5 19q-6 18 -6 53q44 -3 206 -3h129q164 0 209 3q0 -32 -7 -53q-30 0 -42.5 -19t-12.5 -68v-184q0 -49 12.5 -68z"/>
<glyph glyph-name="uni0440" horiz-adv-x="602" unicode="р" d="M258 350q-33 -44 -33 -136v-135q35 -35 82 -35q51 0 92 42.5t41 146.5q0 72 -27.5 116.5t-74.5 44.5t-80 -44zM234.5 -147.5q9.5 -23.5 29.5 -33t56 -11.5q6 -17 6 -53q-50 3 -141 3q-105 0 -151 -3q0 35 5 53q28 2 42.5 10t20.5 27t6 57v408q0 29 -5 44t-20.5 23 t-48.5 9q0 31 10 47q42 1 87 11.5t69 22.5q25 -10 25 -50q0 -14 -7 -42q9 17 20 28q18 24 54.5 44t80.5 20q90 0 141 -52.5t51 -157.5q0 -77 -32.5 -137.5t-92 -94.5t-137.5 -34q-33 0 -78 12v-84q0 -43 9.5 -66.5z"/>
<glyph glyph-name="uni0441" horiz-adv-x="457" unicode="с" d="M149 17.5q-51 26.5 -81.5 80t-30.5 129.5q0 62 25.5 117t76 89t119.5 34q98 0 159 -43q-9 -50 -9 -119q-20 -11 -62 -11q-4 57 -29 88t-64 31q-45 0 -71 -46t-26 -125q0 -76 36.5 -130t102.5 -54t108 48q20 -14 25 -38q-55 -77 -167 -77q-61 0 -112 26.5z"/>
<glyph glyph-name="uni0442" horiz-adv-x="524" unicode="т" d="M503 326q-24 -12 -64 -12q-7 55 -26 77.5t-62 22.5h-30v-293q0 -30 5.5 -44.5t20 -20t45.5 -7.5q6 -19 6 -52q-48 3 -130 3q-98 0 -146 -3q0 28 7 52q32 2 47 7.5t21 20t6 44.5v293h-21q-33 0 -51.5 -10t-28.5 -31t-18 -59q-39 0 -63 12q17 80 17 134q56 -2 227 -2 q116 0 226 2v-14q0 -52 12 -120z"/>
<glyph glyph-name="uni0443" horiz-adv-x="552" unicode="у" d="M538 461q0 -35 -8 -53q-26 -7 -40.5 -25t-36.5 -70l-147 -350q-37 -90 -65.5 -135t-54 -61t-60.5 -16q-29 0 -50.5 9t-34.5 23q-3 12 -3 30q0 29 7 52q41 -9 78 -9q33 0 56.5 12.5t41.5 41.5q6 10 35 69q-97 220 -146 322q-29 62 -46.5 81.5t-42.5 25.5q-7 20 -7 52 q76 -2 124 -2q61 0 143 2q0 -31 -8 -52q-31 -5 -44.5 -14t-13.5 -26q0 -19 20 -61q39 -76 80 -187l2 4l69 174q16 39 16 63q0 21 -13 31t-41 16q-8 20 -8 52q31 -2 99 -2q69 0 99 3z"/>
<glyph glyph-name="uni0444" horiz-adv-x="791" unicode="ф" d="M597.5 370q-32.5 43 -94.5 43q-23 0 -51 -9v-350q29 -9 51 -9q62 0 94.5 44.5t32.5 141.5q0 96 -32.5 139zM194 89q32 -44 94 -44q23 0 52 9v350q-28 9 -52 9q-62 0 -94 -43t-32 -139q0 -98 32 -142zM452 1q2 -33 2 -100q0 -53 17.5 -72t62.5 -21q6 -17 6 -53 q-51 3 -144 3q-95 0 -144 -3q0 36 6 53q44 2 61.5 21t17.5 70q0 69 2 102q-33 -10 -71 -10q-109 0 -170 63.5t-61 176.5q0 111 61 173.5t170 62.5q39 0 72 -10q-3 39 -3 112q0 35 -14.5 50.5t-60.5 16.5q0 31 10 47q37 0 87.5 10.5t69.5 23.5q26 -10 26 -47v-98 q0 -76 -3 -115q33 10 71 10q110 0 170.5 -62.5t60.5 -173.5q0 -113 -60.5 -176.5t-170.5 -63.5q-38 0 -71 10z"/>
<glyph glyph-name="uni0445" horiz-adv-x="545" unicode="х" d="M517 -1q-19 1 -52 1h-54q-105 0 -143 -2q0 38 5 52q36 2 36 21q0 15 -19 44l-18 28l-27 40l-33 -48q-28 -43 -28 -63t28 -22q7 -20 7 -52q-35 2 -105 2q-50 0 -85 -2q0 36 7 52q27 2 49.5 20t60.5 73l60 86q-37 57 -75 107q-35 46 -50.5 59t-38.5 15q-8 22 -8 50 q66 -2 120 -2q92 0 129 2q0 -26 -6 -50q-35 -2 -35 -19t25 -52q22 -30 38 -54l36 55q24 36 24 51q0 16 -30 19q-8 17 -8 50q56 -2 93 -2t85 2q0 -26 -7 -50q-24 -2 -39.5 -14t-42.5 -52l-71 -101l77 -108q33 -50 50 -67t38 -18q7 -18 7 -51z"/>
<glyph glyph-name="uni0446" horiz-adv-x="633" unicode="ц" d="M600 3q-12 -67 -12 -160q-13 -5 -35 -5t-36 5v11q0 70 -12 145l-134 1h-129q-164 0 -208 -3q0 35 6 53q30 0 42.5 19t12.5 68v184q0 49 -12.5 68t-42.5 19q-6 18 -6 53q44 -3 120 -3q75 0 120 3q0 -32 -7 -53q-29 0 -41.5 -18.5t-12.5 -68.5v-184q0 -50 12.5 -68.5 t41.5 -18.5h77q30 0 42.5 19t12.5 68v184q0 49 -12.5 68t-42.5 19q-7 21 -7 53q45 -3 121 -3q75 0 120 3q0 -32 -7 -53q-30 0 -42.5 -19t-12.5 -68v-184q0 -49 12.5 -68t42.5 -19h13q16 -19 16 -47z"/>
<glyph glyph-name="uni0447" horiz-adv-x="594" unicode="ч" d="M512.5 68.5q12.5 -18.5 41.5 -18.5q7 -21 7 -53q-54 3 -125 3q-84 0 -140 -2q0 31 6 47q45 3 62.5 19t17.5 56v87q-57 -15 -127 -15q-72 0 -109 16t-50.5 46.5t-15.5 83.5q0 38 -12.5 54t-42.5 16q-6 18 -6 53q44 -3 120 -3q77 0 120 3q0 -35 -7 -53q-29 0 -41.5 -16 t-12.5 -54q0 -50 23.5 -72t80.5 -22q36 0 80 7v70q0 49 -12.5 68t-42.5 19q-6 18 -6 53q43 -3 120 -3q75 0 120 3q0 -32 -7 -53q-29 0 -41.5 -18.5t-12.5 -68.5v-184q0 -50 12.5 -68.5z"/>
<glyph glyph-name="uni0448" horiz-adv-x="825" unicode="ш" d="M786 408q-30 0 -42.5 -19t-12.5 -68v-184q0 -49 12.5 -68t42.5 -19q6 -18 6 -53q-60 3 -203 3h-356q-133 0 -199 -3q0 35 6 53q30 0 42.5 19t12.5 68v184q0 49 -12.5 68t-42.5 19q-6 18 -6 53q44 -3 120 -3q75 0 114 3q0 -32 -7 -53q-27 0 -37.5 -18.5t-10.5 -68.5v-204 q0 -30 4.5 -44.5t16.5 -19.5q13 -7 50 -7q36 0 50 7q12 5 16 19t4 45v204q0 50 -11 68.5t-37 18.5q-7 18 -7 53q39 -3 114 -3t114 3q0 -35 -7 -53q-27 0 -37.5 -18.5t-10.5 -68.5v-204q0 -30 4.5 -44.5t16.5 -19.5q14 -7 49 -7q37 0 50 7q12 5 16.5 19.5t4.5 44.5v204 q0 50 -10.5 68.5t-37.5 18.5q-7 21 -7 53q39 -3 114 -3q77 0 120 3q0 -35 -6 -53z"/>
<glyph glyph-name="uni0449" horiz-adv-x="865" unicode="щ" d="M831 3q-12 -59 -12 -160q-13 -5 -35 -5t-36 5q0 84 -12 156q-35 1 -146 1h-356q-132 0 -200 -3q0 32 7 53q30 0 42.5 19t12.5 68v184q0 49 -12.5 68t-42.5 19q-7 21 -7 53q45 -3 120 -3q76 0 114 3q0 -35 -6 -53q-27 0 -38 -18.5t-11 -68.5v-204q0 -30 4.5 -44.5 t16.5 -19.5q14 -7 50 -7q37 0 50 7q13 5 17 19t4 45v204q0 50 -11 68.5t-38 18.5q-6 18 -6 53q39 -3 114 -3t114 3q0 -35 -7 -53q-27 0 -37.5 -18.5t-10.5 -68.5v-204q0 -30 4.5 -44.5t16.5 -19.5q13 -7 49 -7q37 0 50 7q12 5 16.5 19.5t4.5 44.5v204q0 50 -10.5 68.5 t-37.5 18.5q-7 18 -7 53q39 -3 114 -3q76 0 120 3q0 -35 -6 -53q-30 0 -42.5 -19t-12.5 -68v-184q0 -49 12.5 -68t42.5 -19h28q16 -19 16 -47z"/>
<glyph glyph-name="uni044A" horiz-adv-x="668" unicode="ъ" d="M498 122q0 48 -37 71t-87 23q-22 0 -49 -3v-94q0 -42 14.5 -56t51.5 -14q107 0 107 73zM569.5 233q60.5 -32 60.5 -100q0 -62 -55 -97.5t-175 -35.5q-173 0 -254 -3q0 32 7 53q30 0 42.5 19t12.5 68v276h-11q-42 0 -65 -11t-32.5 -29.5t-14.5 -48.5q-39 0 -64 15 q12 41 17 121q74 -2 220 -2h19q94 0 137 3q0 -36 -7 -52q-47 -3 -64.5 -18t-17.5 -58v-70q40 2 63 2q121 0 181.5 -32z"/>
<glyph glyph-name="uni044B" horiz-adv-x="822" unicode="ы" d="M361.5 68.5q26.5 19.5 26.5 55.5q0 47 -38.5 69.5t-88.5 22.5q-22 0 -49 -3v-94q0 -43 15 -56.5t55 -13.5q53 0 79.5 19.5zM740.5 68.5q12.5 -18.5 41.5 -18.5q7 -21 7 -53q-45 3 -120 3q-76 0 -120 -3q0 35 6 53q30 0 42.5 19t12.5 68v184q0 49 -12.5 68t-42.5 19 q-6 18 -6 53q43 -3 120 -3q75 0 120 3q0 -32 -7 -53q-29 0 -41.5 -18.5t-12.5 -68.5v-184q0 -50 12.5 -68.5zM523 133q0 -62 -57 -97.5t-180 -35.5q-172 0 -253 -3q0 35 7 53q29 0 41.5 18.5t12.5 68.5v184q0 50 -12.5 68.5t-41.5 18.5q-7 17 -7 53q44 -3 131 -3q94 0 136 3 q0 -35 -6 -52q-47 -3 -64.5 -18t-17.5 -58v-70q38 2 65 2q246 0 246 -132z"/>
<glyph glyph-name="uni044C" horiz-adv-x="561" unicode="ь" d="M389 124q0 47 -38.5 69.5t-89.5 22.5q-21 0 -48 -3v-94q0 -43 15 -56.5t54 -13.5q107 0 107 75zM461.5 233q62.5 -32 62.5 -100q0 -62 -57.5 -97.5t-179.5 -35.5q-173 0 -253 -3q0 35 6 53q30 0 42.5 19t12.5 68v184q0 49 -12.5 68t-42.5 19q-6 18 -6 53q44 -3 130 -3 q94 0 137 3q0 -36 -7 -52q-47 -3 -64 -18t-17 -58v-70q38 2 64 2q122 0 184.5 -32z"/>
<glyph glyph-name="uni044D" horiz-adv-x="506" unicode="э" d="M402.5 405.5q66.5 -58.5 66.5 -169.5q0 -113 -70 -177.5t-197 -64.5q-88 0 -172 35q2 28 2 47q0 31 -3 58q11 6 26 8.5t27 2.5h8q5 -55 31 -80t75 -25q68 0 106 41t43 118q-97 0 -212 -4q0 17 3.5 36t8.5 30h199q-8 75 -45.5 116.5t-100.5 41.5q-43 0 -65.5 -24 t-24.5 -79h-9q-12 0 -27 2t-25 6q0 64 -8 105q79 35 173 35q124 0 190.5 -58.5z"/>
<glyph glyph-name="uni044E" horiz-adv-x="838" unicode="ю" d="M643 93.5q35 46.5 35 123.5q0 87 -42 141.5t-110 54.5q-57 0 -90 -44t-33 -122q0 -88 38.5 -144t106.5 -56q60 0 95 46.5zM675 438q60 -29 93 -81.5t33 -121.5q0 -70 -33.5 -125.5t-94 -87t-138.5 -31.5q-73 0 -129.5 28t-88.5 78t-36 115q-41 0 -68 -4v-71 q0 -50 12.5 -68.5t41.5 -18.5q7 -21 7 -53q-45 3 -120 3q-76 0 -120 -3q0 35 6 53q30 0 42.5 19t12.5 68v184q0 49 -12.5 68t-42.5 19q-6 18 -6 53q44 -3 120 -3q75 0 120 3q0 -32 -7 -53q-29 0 -41.5 -18.5t-12.5 -68.5v-64h68q10 97 80 153.5t178 56.5q76 0 136 -29z"/>
<glyph glyph-name="uni044F" d="M214 258.5q37 -22.5 94 -22.5q6 0 32 2v172q-24 6 -48 6q-58 0 -86.5 -24.5t-28.5 -64.5q0 -46 37 -68.5zM469.5 69q12.5 -19 42.5 -19q7 -21 7 -53q-45 3 -120 3q-77 0 -111 -3q0 32 7 53q23 0 34 18.5t11 70.5v43q-34 0 -51 -15t-39 -61q-27 -57 -39.5 -76.5 t-40.5 -38.5q-52 9 -144 9q-7 15 -7 51q47 4 70.5 19t53.5 57q23 31 39.5 46.5t37.5 21.5q-82 10 -124 45.5t-42 93.5q0 127 206 127l59 -1q58 -2 90 -2q65 0 110 3q0 -32 -7 -53q-30 0 -42.5 -19t-12.5 -68v-184q0 -49 12.5 -68z" unicode="я"/>
<glyph glyph-name="uni0451" horiz-adv-x="494" unicode="ё" d="M188 378.5q-25 -33.5 -28 -111.5h176q0 65 -22.5 105t-61.5 40t-64 -33.5zM443.5 92q7.5 -12 8.5 -24q-68 -77 -186 -77q-113 0 -171 66t-58 170q0 69 27.5 123.5t78 85.5t117.5 31q96 0 144.5 -59.5t51.5 -151.5q-4 -24 -20 -41q-174 0 -274 -5q7 -69 41 -111t101 -42 q33 0 66 14t57 38q9 -5 16.5 -17zM413 544.5q-16 -18.5 -49 -18.5q-34 0 -52.5 17.5t-18.5 47.5q0 27 19 43t49 16q29 0 48.5 -17t19.5 -42q0 -28 -16 -46.5zM99.5 631q16.5 19 49.5 19q34 0 51 -17.5t17 -46.5q0 -26 -19 -43.5t-47 -17.5q-30 0 -49 17t-19 42q0 28 16.5 47 z"/>
<glyph glyph-name="uni0456" horiz-adv-x="326" unicode="і" d="M239 69q13 -18 47 -19q6 -19 6 -53q-48 3 -128 3q-85 0 -130 -3q0 35 6 53q40 1 54 19t14 68v178q0 26 -5.5 40.5t-21.5 22t-48 8.5q0 31 10 47q37 0 87.5 10.5t69.5 23.5q26 -10 26 -47v-283q0 -50 13 -68zM212.5 676.5q19.5 -18.5 19.5 -49.5q0 -27 -21.5 -46 t-53.5 -19q-31 0 -51 18t-20 46q0 31 21 50t52 19q34 0 53.5 -18.5z"/>
<glyph glyph-name="endash" horiz-adv-x="574" unicode="–" d="M502 237q-237 0 -442 -4q0 17 3.5 36t8.5 30h442q0 -41 -12 -62z"/>
<glyph glyph-name="emdash" horiz-adv-x="1033" unicode="—" d="M961 237q-657 0 -901 -3q0 15 4 35.5t8 28.5h901q0 -38 -12 -61z"/>
<glyph glyph-name="quoteleft" horiz-adv-x="263" unicode="‘" d="M142 721q30 0 50 -15q-26 -33 -34.5 -53.5t-8.5 -46.5q0 -43 54 -49q0 -44 -11 -75q-57 -8 -92 -31q-21 8 -30.5 27t-9.5 53q0 103 82 190z"/>
<glyph glyph-name="quotesinglbase" horiz-adv-x="263" unicode="‚" d="M120 -155q-30 0 -50 15q26 33 34.5 53.5t8.5 46.5q0 43 -54 49q0 44 11 75q57 8 92 31q21 -8 30.5 -27t9.5 -53q0 -103 -82 -190z"/>
<glyph glyph-name="quotedblleft" horiz-adv-x="423" unicode="“" d="M246.5 629q20.5 47 57.5 87q29 0 49 -13q-43 -55 -43 -97q0 -44 53 -48v-12q0 -35 -10 -63q-55 -6 -89 -30q-20 10 -29 29t-9 54q0 46 20.5 93zM82 630.5q22 49.5 60 88.5h6q24 0 43 -13q-20 -24 -32 -51t-12 -49q0 -44 49 -48v-13q0 -38 -10 -63q-53 -8 -86 -31 q-20 10 -30 29t-10 54q0 47 22 96.5z"/>
<glyph glyph-name="quotedblright" horiz-adv-x="423" unicode="”" d="M176.5 543q-20.5 -47 -57.5 -87q-29 0 -49 13q43 55 43 97q0 44 -53 48v12q0 35 10 63q55 6 89 30q20 -10 29 -29t9 -54q0 -46 -20.5 -93zM341 541.5q-22 -49.5 -60 -88.5h-6q-24 0 -43 13q20 24 32 51t12 49q0 44 -49 48v13q0 38 10 63q53 8 86 31q20 -10 30 -29t10 -54 q0 -47 -22 -96.5z"/>
<glyph glyph-name="dagger" horiz-adv-x="476" unicode="†" d="M429 412.5q-8 -24.5 -19 -40.5q-84 13 -134 18q-16 -304 -16 -639q-34 0 -56 12v171q0 273 -6 457q-66 -4 -156 -18q0 48 17 85h136q-6 120 -10 175q25 6 42 14.5t43 25.5q15 -6 19 -15t2 -30q-8 -109 -11 -170h158q-1 -21 -9 -45.5z"/>
<glyph glyph-name="daggerdbl" horiz-adv-x="472" unicode="‡" d="M277 110q0 -29 1 -44q70 6 160 19q0 -46 -18 -85h-137q8 -94 18 -166q-24 -6 -39 -14.5t-40 -25.5q-13 5 -18 11.5t-5 17.5q0 7 1 11q10 78 15 166h-174q1 20 9 45t19 41q80 -13 149 -20v23q0 106 -26 138q20 29 20 110q0 17 -2 55q-92 -7 -168 -19q0 46 18 85h145l-3 36 q-7 88 -14 139q26 7 45 16t42 24q13 -5 18 -11.5t5 -17.5q0 -7 -1 -11q-9 -72 -17 -175h159q-1 -21 -9 -45.5t-19 -40.5q-83 13 -135 18q-1 -12 -1 -36q0 -93 27 -127q-25 -28 -25 -117z"/>
<glyph glyph-name="ellipsis" horiz-adv-x="899" unicode="…" d="M181 11.5q-20 -19.5 -51 -19.5q-33 0 -51.5 18t-18.5 48t21 49.5t53 19.5q30 0 48.5 -20t18.5 -44q0 -32 -20 -51.5zM506 11.5q-20 -19.5 -51 -19.5q-33 0 -51.5 18t-18.5 48t21 49.5t53 19.5q30 0 48.5 -20t18.5 -44q0 -32 -20 -51.5zM818 11.5q-20 -19.5 -51 -19.5 q-33 0 -51.5 18t-18.5 48t21 49.5t53 19.5q30 0 48.5 -20t18.5 -44q0 -32 -20 -51.5z"/>
<glyph glyph-name="perthousand" horiz-adv-x="1228" unicode="‰" d="M948 74q21 -32 56 -32q24 0 43.5 27.5t19.5 76.5q0 50 -21 82t-53 32q-27 0 -46.5 -30t-19.5 -73q0 -51 21 -83zM569 74q20 -32 54 -32q23 0 42 27.5t19 76.5q0 50 -20 82t-51 32q-27 0 -45.5 -30t-18.5 -73q0 -51 20 -83zM1113 39.5q-43 -48.5 -117 -48.5 q-51 0 -86 21.5t-52.5 57t-17.5 75.5q0 45 19 83t56.5 60.5t91.5 22.5q47 0 81 -22t51 -57t17 -73q0 -71 -43 -119.5zM732 39.5q-43 -48.5 -117 -48.5q-51 0 -86.5 22t-53.5 57t-18 75q0 45 19.5 82.5t57.5 60.5t92 23q47 0 81 -22t51 -57t17 -73q0 -71 -43 -119.5z M197.5 442q20.5 -32 55.5 -32q24 0 44 27.5t20 75.5q0 49 -20.5 81t-52.5 32q-28 0 -47.5 -29.5t-19.5 -72.5q0 -50 20.5 -82zM362 407q-42 -48 -116 -48q-50 0 -86 21.5t-54 57t-18 74.5q0 44 19.5 82t57.5 60.5t91 22.5q47 0 80.5 -22t50.5 -56.5t17 -72.5q0 -71 -42 -119 zM152 8.5q-13 10.5 -18 21.5l551 656q32 -4 53 -29l-557 -664q-16 5 -29 15.5z"/>
<glyph glyph-name="minute" horiz-adv-x="273" unicode="′" d="M162 576q-31 -62 -56 -117q-27 0 -46 11q30 91 59 221q44 7 79 24q15 -3 15 -20q0 -13 -7 -28q-14 -34 -44 -91z"/>
<glyph glyph-name="second" horiz-adv-x="439" unicode="″" d="M387 695q0 -13 -7 -28q-14 -34 -44 -91q-31 -62 -56 -117q-27 0 -46 11q33 103 59 221q44 7 79 24q15 -3 15 -20zM213 695q0 -13 -7 -28q-14 -34 -44 -91q-31 -62 -56 -117q-27 0 -46 11q30 91 59 221q44 7 79 24q15 -3 15 -20z"/>
<glyph glyph-name="guilsinglleft" horiz-adv-x="337" unicode="‹" d="M203 328q-27 -39 -41 -66q39 -74 89 -141q-3 -12 -13 -24.5t-20 -19.5q-87 95 -158 153q0 28 8 50q59 48 138 135q13 -1 26.5 -6.5t21.5 -12.5q-24 -29 -51 -68z"/>
<glyph glyph-name="guilsinglright" horiz-adv-x="345" unicode="›" d="M185 245q-34 60 -102 155q19 16 48 16q78 -73 145 -128q9 -19 9 -46q-75 -74 -157 -164q-23 14 -34 37q52 65 91 130z"/>
<glyph glyph-name="fraction" horiz-adv-x="630" unicode="⁄" d="M54 2.5q-15 7.5 -21 15.5l513 697q13 -2 28 -10t24 -17l-512 -696q-17 3 -32 10.5z"/>
<glyph glyph-name="Euro" horiz-adv-x="719" unicode="€" d="M667 98q6 -11 8 -20q-56 -44 -114 -65.5t-132 -21.5q-112 0 -193.5 61t-113.5 166l-77 -1q0 17 3.5 36t9.5 30h50q-4 25 -4 59v6l-59 -1q0 17 3.5 36t9.5 30h52q14 88 63 149t119 92t149 31q109 0 221 -52q-11 -57 -11 -155q-21 -10 -66 -10q-3 93 -37.5 129.5 t-100.5 36.5q-95 0 -146.5 -62t-61.5 -159h261q0 -41 -13 -62q-160 0 -250 -1q1 -26 7 -67h256q0 -41 -13 -62q-147 0 -226 -1q28 -74 83 -116.5t132 -42.5q43 0 90 14t88 40q7 -6 13 -17z"/>
<glyph glyph-name="trademark" horiz-adv-x="971" unicode="™" d="M914 358q-28 2 -98 2q-52 0 -78 -2q0 27 5 49q19 2 25 7.5t6 21.5q0 4 -2 26l-15 148l-98 -251q-12 -4 -38 -4l-111 250l-12 -120q-2 -15 -2 -37q0 -24 6.5 -31.5t24.5 -9.5q6 -19 6 -49q-22 2 -57 2q-44 0 -64 -2q0 33 5 49q21 2 30 16t13 60l11 133q1 6 1 17 q0 17 -7 23.5t-26 6.5q-4 19 -4 50q15 -1 70 -1q57 0 68 1l97 -231l85 231q18 -1 71 -1q52 0 69 1q0 -32 -5 -50q-20 -1 -27.5 -7t-7.5 -25q0 -10 1 -16l15 -148q3 -27 6.5 -38.5t10 -15.5t21.5 -6q5 -19 5 -49zM387 713q0 -49 12 -100q-19 -9 -52 -9q-6 38 -19.5 54 t-39.5 16h-11v-207q0 -35 11.5 -46.5t43.5 -13.5q4 -15 4 -49q-38 2 -102 2q-72 0 -118 -2q0 33 6 49q33 2 44.5 13.5t11.5 46.5v207h-4q-29 0 -43.5 -16.5t-22.5 -53.5q-35 0 -51 8q5 21 9 50.5t4 50.5q42 -1 160 -1q116 0 157 1z"/>
<glyph glyph-name="arrowleft" horiz-adv-x="661" unicode="←" d="M287 152q15 -20 15 -35q0 -10 -7 -17t-23 -14q-39 41 -101.5 87.5t-100.5 63.5q-11 19 -11 47q61 32 104 64.5t84 74.5q10 11 28 11q7 0 15.5 -3t13.5 -8q-40 -56 -64 -122q178 0 360 10q0 -48 -17 -79h-343q20 -44 47 -80z"/>
<glyph glyph-name="arrowright" horiz-adv-x="661" unicode="→" d="M373 382q-15 20 -15 35q0 10 7 17t23 14q39 -41 101.5 -87.5t100.5 -63.5q11 -19 11 -47q-61 -32 -104 -64.5t-84 -74.5q-10 -11 -28 -11q-7 0 -15.5 3t-13.5 8q40 56 64 122q-178 0 -360 -10q0 48 17 79h343q-20 44 -47 80z"/>
<glyph glyph-name="partialdiff" horiz-adv-x="543" unicode="∂" d="M347 101.5q32 44.5 32 152.5q0 50 -8 96q-39 37 -95 37q-54 0 -85 -38.5t-31 -122.5q0 -83 30 -126t78 -43q47 0 79 44.5zM303.5 604.5q92.5 -50.5 147 -137.5t54.5 -205q0 -135 -69 -202.5t-184 -67.5q-109 0 -162 58t-53 156q0 84 34.5 138t87.5 79t110 25q44 0 76 -16 q-33 70 -98 116t-167 78q0 28 14 45q117 -16 209.5 -66.5z"/>
<glyph glyph-name="product" horiz-adv-x="767" unicode="∏" d="M650 -13q6 -19 20 -27t42 -10q6 -20 6 -53q-56 3 -132 3q-83 0 -140 -3q0 28 7 53q28 2 42 10t19.5 27t5.5 57v489q0 35 -5.5 55t-19.5 29q-11 6 -34 8t-77 2t-77.5 -2t-33.5 -8q-15 -8 -20.5 -28.5t-5.5 -55.5v-489q0 -38 6 -57t20 -27t42 -10q6 -20 6 -53q-55 3 -132 3 q-83 0 -139 -3q0 32 6 53q28 2 42 10t20 27t6 57v489q0 37 -6 56t-20 27t-42 10q-6 17 -6 53q53 -3 266 -3h139q203 0 263 3q0 -35 -6 -53q-28 -2 -42 -10t-20 -27t-6 -56v-489q0 -38 6 -57z"/>
<glyph glyph-name="summation" horiz-adv-x="677" unicode="∑" d="M641 92q-11 -37 -20 -91.5t-13 -102.5q-82 2 -280 2q-202 0 -263 -2q-15 19 -15 49q104 132 246 297q-116 184 -228 391q0 26 14 43q68 -2 256 -2q173 0 266 3q2 -38 8 -85t14 -81q-22 -12 -60 -14q-10 65 -45 96t-106 31h-193q94 -173 186 -313q1 -4 1 -13q0 -16 -4 -25 q-136 -157 -224 -266h236q54 0 84.5 10.5t48 33.5t31.5 66q40 -8 60 -27z"/>
<glyph glyph-name="minus" horiz-adv-x="586" unicode="−" d="M526 232q-111 2 -222 2q-54 0 -160 -2l-94 -1q0 15 3 33t8 28h475q0 -41 -10 -60z"/>
<glyph glyph-name="radical" horiz-adv-x="549" unicode="√" d="M676 694h-152l-190 -694q-19 -5 -49 -5l-156 340h-69q0 30 11 54h168l90 -208l151 565h208q0 -31 -12 -52z"/>
<glyph glyph-name="infinity" horiz-adv-x="972" unicode="∞" d="M338.5 135.5q39.5 31.5 94.5 103.5q-48 62 -77 95t-58.5 50.5t-62.5 17.5q-50 0 -80.5 -37.5t-30.5 -105.5q0 -72 35 -113.5t92 -41.5q48 0 87.5 31.5zM817 167q31 37 31 105q0 72 -34.5 114t-92.5 42q-48 0 -87.5 -32.5t-95.5 -107.5q66 -88 108 -123t88 -35q52 0 83 37 zM817.5 455.5q43.5 -25.5 69 -74.5t25.5 -117q0 -101 -55 -157t-149 -56q-77 0 -131.5 37t-110.5 108q-58 -76 -106.5 -110.5t-108.5 -34.5q-53 0 -96.5 25t-69 74t-25.5 117q0 99 54 156.5t146 57.5q80 0 136 -40.5t109 -108.5q61 80 109 114.5t107 34.5q53 0 96.5 -25.5z "/>
<glyph glyph-name="approxequal" horiz-adv-x="645" unicode="≈" d="M229 431q26 0 50.5 -8.5t60.5 -25.5q34 -16 57.5 -24.5t47.5 -8.5q52 0 101 53q21 -4 39 -22q-73 -106 -149 -106q-26 0 -50 9.5t-58 27.5q-35 18 -57 26.5t-46 8.5q-63 0 -122 -72q-25 11 -30 31q73 111 156 111zM229 261q26 0 50.5 -8.5t60.5 -25.5q34 -16 57.5 -24.5 t47.5 -8.5q52 0 101 53q21 -4 39 -22q-73 -106 -149 -106q-26 0 -50 9.5t-58 27.5q-35 18 -57 26.5t-46 8.5q-63 0 -122 -72q-25 11 -30 31q73 111 156 111z"/>
<glyph glyph-name="notequal" horiz-adv-x="563" unicode="≠" d="M507 199q0 -36 -12 -59q-80 1 -207 1h-35l-65 -176q-28 4 -44 18l59 158l-148 -2q0 39 12 60h157l42 112l-154 -1q-17 -1 -54 -1q0 16 3.5 33t8.5 27h217l65 174q24 -3 43 -20l-57 -154h170q0 -37 -12 -59q-71 1 -180 1l-41 -112h232z"/>
<glyph glyph-name="lessequal" horiz-adv-x="555" unicode="≤" d="M57.5 31q3.5 18 8.5 27h440q0 -37 -12 -59q-80 1 -207 1l-172 -1q-19 -1 -61 -1q0 15 3.5 33zM59 276q-1 4 -1 14q0 27 12 48l396 200q37 -9 51 -41l-380 -190l359 -157q7 -14 7 -34q0 -19 -7 -33q-208 100 -437 193z"/>
<glyph glyph-name="greaterequal" horiz-adv-x="556" unicode="≥" d="M490 -1q-80 1 -207 1q-139 0 -233 -2q0 40 12 60h440q0 -35 -12 -59zM38 497q14 32 51 41l396 -200q12 -21 12 -48q0 -10 -1 -14q-229 -93 -437 -193q-7 18 -7 33q0 17 7 34l359 157z"/>
<glyph glyph-name="lozenge" horiz-adv-x="578" unicode="◊" d="M290 475l-164 -216l164 -215l162 215zM290 562l228 -303l-228 -303l-230 303z"/>
<glyph glyph-name="uni2799" horiz-adv-x="661" unicode="➙" d="M373 382q-15 20 -15 35q0 10 7 17t23 14q39 -41 101.5 -87.5t100.5 -63.5q11 -19 11 -47q-61 -32 -104 -64.5t-84 -74.5q-10 -11 -28 -11q-7 0 -15.5 3t-13.5 8q40 56 64 122q-178 0 -360 -10q0 48 17 79h343q-20 44 -47 80z"/>
<glyph glyph-name="two.dnom" d="M326.5 270q-22.5 -34 -67.5 -73q-57 -49 -104 -102h107q27 0 39.5 9t13.5 34h14q23 0 38 -5v-28q0 -59 7 -88q-5 -10 -16.5 -14t-33.5 -4l-101 1l-168 -1q-13 13 -13 44q33 39 63 70l77 78q31 33 45 64.5t14 70.5q0 36 -15 57t-46 21q-30 0 -44.5 -21t-21.5 -73 q-36 0 -59 9q4 23 4 54q0 29 -2 44q57 32 146 32q66 0 106 -26t40 -80q0 -39 -22.5 -73z" horiz-adv-x="408"/>
<glyph glyph-name="four.dnom" d="M129 202h97v131zM385 120h-62q0 -30 5 -44.5t15 -19t31 -5.5q5 -16 5 -54q-41 3 -112 3q-77 0 -111 -3q0 43 5 54q36 2 50.5 15t14.5 53q-100 -1 -171 -7q-8 9 -14 24.5t-6 29.5q139 167 221 285l16 1q29 0 51 -8v-242h45q14 0 21.5 -3t13.5 -11q-13 -24 -18 -68z" horiz-adv-x="435"/>
<glyph glyph-name="one.numr" d="M96 615.5q-6 14.5 -21.5 20.5t-46.5 7q0 32 8 49q79 9 144 37q13 -5 17.5 -14t4.5 -32v-255q0 -40 5.5 -60.5t18 -28t35.5 -9.5q5 -15 5 -52q-32 3 -117 3q-74 0 -115 -3q0 32 5 52q25 2 38 8.5t19 25.5t6 57v152q0 28 -6 42.5z" horiz-adv-x="292"/>
<glyph glyph-name="three.numr" d="M330 687q-51 -57 -120 -137q59 -2 99.5 -31t40.5 -89q0 -72 -54 -114.5t-141 -42.5q-43 0 -72.5 10.5t-43.5 23.5v6q0 22 13 36q38 -23 91 -23q45 0 71.5 21t26.5 60q0 31 -23.5 49.5t-55.5 18.5q-20 0 -31 -5q-8 8 -14 20.5t-7 21.5l18 20q68 74 93 107h-63 q-23 0 -37 -12.5t-27 -44.5q-29 0 -46 12q6 24 8 64q2 28 2 51v17q50 -2 138 -2l93 1q12 1 28 1q13 -15 13 -39z" horiz-adv-x="385"/>
<glyph glyph-name="brevecy" d="M361 706q33 0 60 -12q0 -82 -56.5 -126t-149.5 -44q-88 0 -140.5 43t-52.5 123q28 15 66 15q11 0 17 -1q10 -65 39.5 -95t83.5 -30q53 0 79 30t31 95q14 2 23 2z" horiz-adv-x="443"/>
</font>
</defs>
</svg>
