<?xml version="1.0" encoding="UTF-8" standalone="no"?>
<svg width="164px" height="41px" viewBox="0 0 164 41" version="1.1" xmlns="http://www.w3.org/2000/svg" xmlns:xlink="http://www.w3.org/1999/xlink" xmlns:sketch="http://www.bohemiancoding.com/sketch/ns">
    <!-- Generator: Sketch 3.3.3 (12072) - http://www.bohemiancoding.com/sketch -->
    <title>arrow scroll bottom</title>
    <desc>Created with Sketch.</desc>
    <defs></defs>
    <g id="Page-1" stroke="none" stroke-width="1" fill="none" fill-rule="evenodd" sketch:type="MSPage">
        <g id="Desktop-HD" sketch:type="MSArtboardGroup" transform="translate(-878.000000, -1159.000000)">
            <g id="First-Slide" sketch:type="MSLayerGroup">
                <g id="arrow-scroll-bottom" transform="translate(878.000000, 1159.000000)" sketch:type="MSShapeGroup">
                    <path d="M156.107792,30.75 L156.038537,30.75 L156.038537,8.00254308 C156.038537,3.58463172 152.452798,0 148.029566,0 L16.0591018,0 C11.6349644,0 8.05013078,3.58286058 8.05013078,8.00254308 L8.05013078,30.75 L7.98087509,30.75 L7.98087509,30.75 C7.50135422,35.3632161 4.57464845,39.2349239 0.544333738,41 L163.544334,41 C159.514019,39.2349239 156.587313,35.3632161 156.107792,30.75 L156.107792,30.75 Z" id="bg" fill="#F5F5F5"></path>
                    <path d="M82.1617194,23.9024677 L74.1365166,15.592127 C73.8146665,15.2588414 73.297996,15.2555353 72.9702396,15.5720459 C72.6401982,15.8907632 72.6332453,16.4107122 72.949606,16.7383133 L81.1869221,25.2683039 C81.4512966,25.5420716 81.8471225,25.5931915 82.1617194,25.4272963 C82.4763163,25.5931915 82.8721422,25.5420716 83.1365166,25.2683039 L91.3738328,16.7383133 C91.6901935,16.4107122 91.6832405,15.8907632 91.3531992,15.5720459 C91.0254428,15.2555353 90.5087723,15.2588414 90.1869221,15.592127 L82.1617194,23.9024677 Z" id="arrow" fill="#000000"></path>
                </g>
            </g>
        </g>
    </g>
</svg>