<?xml version="1.0" encoding="UTF-8"?>
<svg width="34px" height="36px" viewBox="0 0 34 36" version="1.1" xmlns="http://www.w3.org/2000/svg" xmlns:xlink="http://www.w3.org/1999/xlink">
    <!-- Generator: Sketch 52.3 (67297) - http://www.bohemiancoding.com/sketch -->
    <title>icon-real-estate-cyan</title>
    <desc>Created with Sketch.</desc>
    <g id="Page-1" stroke="none" stroke-width="1" fill="none" fill-rule="evenodd">
        <g id="icon-real-estate-cyan" transform="translate(-1.000000, 0.000000)" fill="#2DA5B6">
            <path d="M33.636,33.81 L33.636,15.81 L34.7,15.81 L34.7,13.6 L23.982,13.6 L23.982,4.27 L25.209,4.27 L24.064,1.49 L21.445,1.49 L21.445,0.02 L4.673,0.02 L4.673,1.49 L2.136,1.49 L0.991,4.27 L2.218,4.27 L2.218,33.73 L1.073,33.73 L1.073,35.61 L34.863,35.61 L34.863,33.73 L33.636,33.81 Z M8.764,31.27 L5.9,31.27 L5.9,25.54 L8.764,25.54 L8.764,31.27 Z M8.764,22.76 L5.9,22.76 L5.9,17.04 L8.764,17.04 L8.764,22.76 Z M8.764,14.17 L5.9,14.17 L5.9,8.44 L8.764,8.44 L8.764,14.17 Z M14.491,31.27 L11.709,31.27 L11.709,25.54 L14.491,25.54 L14.491,31.27 Z M14.491,22.76 L11.709,22.76 L11.709,17.04 L14.491,17.04 L14.491,22.76 Z M14.491,14.17 L11.709,14.17 L11.709,8.44 L14.491,8.44 L14.491,14.17 Z M20.218,25.54 L17.436,25.54 L17.436,31.27 L20.218,31.27 L20.218,25.54 Z M20.218,17.04 L17.436,17.04 L17.436,22.76 L20.218,22.76 L20.218,17.04 Z M20.218,8.44 L17.436,8.44 L17.436,14.17 L20.218,14.17 L20.218,8.44 Z M25.945,31.27 L23.573,31.27 L23.573,28.9 L25.945,28.9 L25.945,31.27 Z M25.945,26.61 L23.573,26.61 L23.573,24.24 L25.945,24.24 L25.945,26.61 Z M25.945,21.94 L23.573,21.94 L23.573,19.57 L25.945,19.57 L25.945,21.94 Z M30.609,31.27 L28.236,31.27 L28.236,28.9 L30.609,28.9 L30.609,31.27 Z M30.609,26.61 L28.236,26.61 L28.236,24.24 L30.609,24.24 L30.609,26.61 Z M30.609,21.94 L28.236,21.94 L28.236,19.57 L30.609,19.57 L30.609,21.94 Z" id="Shape"></path>
        </g>
    </g>
</svg>