<?xml version="1.0" encoding="UTF-8"?>
<svg width="35px" height="36px" viewBox="0 0 35 36" version="1.1" xmlns="http://www.w3.org/2000/svg" xmlns:xlink="http://www.w3.org/1999/xlink">
    <!-- Generator: Sketch 52.3 (67297) - http://www.bohemiancoding.com/sketch -->
    <title>Недвижимость</title>
    <desc>Created with Sketch.</desc>
    <g id="01-Home" stroke="none" stroke-width="1" fill="none" fill-rule="evenodd">
        <g transform="translate(-234.000000, -921.000000)" fill="#FFFFFF" fill-rule="nonzero" id="Недвижимость">
            <g transform="translate(234.000000, 921.000000)">
                <path d="M33.1363636,34.1181818 L33.1363636,16.1181818 L34.2,16.1181818 L34.2,13.9090909 L23.4818182,13.9090909 L23.4818182,4.58181818 L24.7090909,4.58181818 L23.5636364,1.8 L20.9454545,1.8 L20.9454545,0.327272727 L4.17272727,0.327272727 L4.17272727,1.8 L1.63636364,1.8 L0.490909091,4.58181818 L1.71818182,4.58181818 L1.71818182,34.0363636 L0.572727273,34.0363636 L0.572727273,35.9181818 L34.3636364,35.9181818 L34.3636364,34.0363636 L33.1363636,34.1181818 Z M8.26363636,31.5818182 L5.4,31.5818182 L5.4,25.8545455 L8.26363636,25.8545455 L8.26363636,31.5818182 Z M8.26363636,23.0727273 L5.4,23.0727273 L5.4,17.3454545 L8.26363636,17.3454545 L8.26363636,23.0727273 Z M8.26363636,14.4818182 L5.4,14.4818182 L5.4,8.75454545 L8.26363636,8.75454545 L8.26363636,14.4818182 Z M13.9909091,31.5818182 L11.2090909,31.5818182 L11.2090909,25.8545455 L13.9909091,25.8545455 L13.9909091,31.5818182 Z M13.9909091,23.0727273 L11.2090909,23.0727273 L11.2090909,17.3454545 L13.9909091,17.3454545 L13.9909091,23.0727273 Z M13.9909091,14.4818182 L11.2090909,14.4818182 L11.2090909,8.75454545 L13.9909091,8.75454545 L13.9909091,14.4818182 Z M19.7181818,31.5818182 L16.9363636,31.5818182 L16.9363636,25.8545455 L19.7181818,25.8545455 C19.7181818,25.9363636 19.7181818,31.5818182 19.7181818,31.5818182 Z M19.7181818,23.0727273 L16.9363636,23.0727273 L16.9363636,17.3454545 L19.7181818,17.3454545 C19.7181818,17.3454545 19.7181818,23.0727273 19.7181818,23.0727273 Z M19.7181818,14.4818182 L16.9363636,14.4818182 L16.9363636,8.75454545 L19.7181818,8.75454545 C19.7181818,8.83636364 19.7181818,14.4818182 19.7181818,14.4818182 Z M25.4454545,31.5818182 L23.0727273,31.5818182 L23.0727273,29.2090909 L25.4454545,29.2090909 L25.4454545,31.5818182 Z M25.4454545,26.9181818 L23.0727273,26.9181818 L23.0727273,24.5454545 L25.4454545,24.5454545 L25.4454545,26.9181818 Z M25.4454545,22.2545455 L23.0727273,22.2545455 L23.0727273,19.8818182 L25.4454545,19.8818182 L25.4454545,22.2545455 Z M30.1090909,31.5818182 L27.7363636,31.5818182 L27.7363636,29.2090909 L30.1090909,29.2090909 L30.1090909,31.5818182 Z M30.1090909,26.9181818 L27.7363636,26.9181818 L27.7363636,24.5454545 L30.1090909,24.5454545 L30.1090909,26.9181818 Z M30.1090909,22.2545455 L27.7363636,22.2545455 L27.7363636,19.8818182 L30.1090909,19.8818182 L30.1090909,22.2545455 Z" id="Shape"></path>
            </g>
        </g>
    </g>
</svg>