<?xml version="1.0" encoding="UTF-8"?>
<svg width="13px" height="13px" viewBox="0 0 13 13" version="1.1" xmlns="http://www.w3.org/2000/svg" xmlns:xlink="http://www.w3.org/1999/xlink">
    <!-- Generator: Sketch 52.3 (67297) - http://www.bohemiancoding.com/sketch -->
    <title>icon-pencil</title>
    <desc>Created with Sketch.</desc>
    <g id="Page-1" stroke="none" stroke-width="1" fill="none" fill-rule="evenodd">
        <g id="icon-pencil" transform="translate(-1.000000, -1.000000)" fill="#20AABE">
            <path d="M13.138,3.417 L11.998,4.556 L9.678,2.236 L8.798,3.117 L11.118,5.437 L5.428,11.127 L3.108,8.807 L2.228,9.687 L4.548,12.007 L3.98,12.574 L3.97,12.563 C3.90667738,12.6681616 3.80289412,12.7426541 3.683,12.769 L1.52,13.252 C1.48715004,13.2591962 1.45362874,13.2628836 1.42,13.263 C1.28347248,13.2629395 1.15435514,13.2009004 1.06899595,13.0943472 C0.983636759,12.9877941 0.951267324,12.8482506 0.981,12.715 L1.463,10.552 C1.48978186,10.4323008 1.56416256,10.3286733 1.669,10.265 L1.658,10.254 L10.816,1.096 C10.8805332,1.03133119 10.9681404,0.994989197 11.0595,0.994989197 C11.1508596,0.994989197 11.2384668,1.03133119 11.303,1.096 L13.136,2.929 C13.2014891,2.99317243 13.2385591,3.0808937 13.2389348,3.17258223 C13.2393106,3.26427077 13.2029609,3.35229294 13.138,3.417 Z" id="Path"></path>
        </g>
    </g>
</svg>