<?xml version="1.0" encoding="UTF-8"?>
<svg width="36px" height="29px" viewBox="0 0 36 29" version="1.1" xmlns="http://www.w3.org/2000/svg" xmlns:xlink="http://www.w3.org/1999/xlink">
    <!-- Generator: Sketch 52.3 (67297) - http://www.bohemiancoding.com/sketch -->
    <title>Товары</title>
    <desc>Created with Sketch.</desc>
    <g id="01-Home" stroke="none" stroke-width="1" fill="none" fill-rule="evenodd">
        <g transform="translate(-231.000000, -1152.000000)" fill="#FFFFFF" fill-rule="nonzero" id="Товары">
            <g transform="translate(231.000000, 1152.000000)">
                <path d="M29.973913,21.6 L12.0521739,21.6 C11.2695652,21.6 10.4869565,21.0521739 10.3304348,20.3478261 L5.4,3.67826087 L1.87826087,3.67826087 C0.860869565,3.67826087 0.0782608696,2.89565217 0.0782608696,1.87826087 C0.0782608696,0.860869565 0.860869565,0.0782608696 1.87826087,0.0782608696 L6.65217391,0.0782608696 C7.43478261,0.0782608696 8.2173913,0.626086957 8.37391304,1.33043478 L13.3043478,18 L28.5652174,18 L32.4,4.93043478 C32.7130435,3.99130435 33.6521739,3.36521739 34.5913043,3.75652174 C35.5304348,4.06956522 36.1565217,5.00869565 35.7652174,5.94782609 L31.6173913,20.2695652 C31.4608696,21.0521739 30.7565217,21.6 29.973913,21.6 Z M14.0869565,22.773913 C12.5217391,22.773913 11.3478261,23.9478261 11.3478261,25.5130435 C11.3478261,27.0782609 12.5217391,28.2521739 14.0869565,28.2521739 C15.6521739,28.2521739 16.826087,27.0782609 16.826087,25.5130435 C16.826087,23.9478261 15.6521739,22.773913 14.0869565,22.773913 Z M27.3130435,22.773913 C25.7478261,22.773913 24.573913,23.9478261 24.573913,25.5130435 C24.573913,27.0782609 25.7478261,28.2521739 27.3130435,28.2521739 C28.8782609,28.2521739 30.0521739,27.0782609 30.0521739,25.5130435 C29.973913,23.9478261 28.8,22.773913 27.3130435,22.773913 Z M30.6,4.22608696 L11.426087,4.22608696 L14.9478261,16.2 L26.9217391,16.2 L30.6,4.22608696 Z" id="Shape"></path>
            </g>
        </g>
    </g>
</svg>