<?xml version="1.0" encoding="UTF-8"?>
<svg width="36px" height="29px" viewBox="0 0 36 29" version="1.1" xmlns="http://www.w3.org/2000/svg" xmlns:xlink="http://www.w3.org/1999/xlink">
    <!-- Generator: Sketch 52.3 (67297) - http://www.bohemiancoding.com/sketch -->
    <title>Транспортные</title>
    <desc>Created with Sketch.</desc>
    <g id="01-Home" stroke="none" stroke-width="1" fill="none" fill-rule="evenodd">
        <g transform="translate(-233.000000, -1000.000000)" fill="#FFFFFF" fill-rule="nonzero" id="Транспортные">
            <g transform="translate(233.000000, 1000.000000)">
                <path d="M35.712,10.08 C35.712,8.856 34.776,7.92 33.552,7.92 L31.248,7.92 L29.376,2.808 C29.088,2.016 28.296,1.224 27.504,0.936 C27.504,0.936 24.912,0 18,0 C11.088,0 8.496,0.864 8.496,0.864 C7.704,1.152 6.912,1.944 6.624,2.736 L4.752,7.848 L2.448,7.848 C1.224,7.848 0.288,8.784 0.288,10.008 C0.288,11.232 1.224,12.168 2.448,12.168 L3.168,12.168 L2.664,13.752 C2.376,14.544 2.16,15.768 2.16,16.56 L2.16,25.992 C2.16,27.576 3.456,28.944 5.112,28.944 C6.768,28.944 8.064,27.648 8.064,25.992 L8.064,24.552 L28.368,24.552 L28.368,25.992 C28.368,27.576 29.664,28.944 31.32,28.944 C32.976,28.944 34.272,27.648 34.272,25.992 L34.272,16.56 C34.272,15.768 33.984,14.544 33.768,13.752 L32.976,12.24 L33.696,12.24 C34.704,12.24 35.712,11.232 35.712,10.08 Z M9.648,3.528 L26.28,3.528 L28.44,10.008 L7.488,10.008 L9.648,3.528 Z M7.128,18.72 C5.904,18.72 4.968,17.784 4.968,16.56 C4.968,15.336 5.904,14.4 7.128,14.4 C8.352,14.4 9.288,15.336 9.288,16.56 C9.288,17.784 8.352,18.72 7.128,18.72 Z M28.872,18.72 C27.648,18.72 26.712,17.784 26.712,16.56 C26.712,15.336 27.648,14.4 28.872,14.4 C30.096,14.4 31.032,15.336 31.032,16.56 C31.032,17.784 30.096,18.72 28.872,18.72 Z" id="Shape"></path>
            </g>
        </g>
    </g>
</svg>