<?xml version="1.0" encoding="UTF-8"?>
<svg width="15px" height="12px" viewBox="0 0 15 12" version="1.1" xmlns="http://www.w3.org/2000/svg" xmlns:xlink="http://www.w3.org/1999/xlink">
    <!-- Generator: Sketch 52.3 (67297) - http://www.bohemiancoding.com/sketch -->
    <title>icon-checked</title>
    <desc>Created with Sketch.</desc>
    <g id="Page-1" stroke="none" stroke-width="1" fill="none" fill-rule="evenodd">
        <g id="icon-checked" transform="translate(-1.000000, 0.000000)" fill="#2DA5B6">
            <path d="M15.727,1.657 L14.412,0.284 C14.2408859,0.103212903 14.0029257,0.000793705813 13.754,0.000793705813 C13.5050743,0.000793705813 13.2671141,0.103212903 13.096,0.284 L6.749,6.919 L3.9,3.94 C3.72888592,3.7592129 3.4909257,3.65679371 3.242,3.65679371 C2.9930743,3.65679371 2.75511408,3.7592129 2.584,3.94 L1.269,5.313 C0.907523346,5.69967611 0.907523346,6.30032389 1.269,6.687 L4.769,10.342 L6.085,11.716 C6.25611408,11.8967871 6.4940743,11.9992063 6.743,11.9992063 C6.9919257,11.9992063 7.22988592,11.8967871 7.401,11.716 L8.717,10.342 L15.717,3.031 C16.081304,2.64695999 16.0856756,2.04630187 15.727,1.657 Z"></path>
        </g>
    </g>
</svg>