<?xml version="1.0" encoding="UTF-8"?>
<svg width="29px" height="36px" viewBox="0 0 29 36" version="1.1" xmlns="http://www.w3.org/2000/svg" xmlns:xlink="http://www.w3.org/1999/xlink">
    <!-- Generator: Sketch 52.3 (67297) - http://www.bohemiancoding.com/sketch -->
    <title>резюме</title>
    <desc>Created with Sketch.</desc>
    <g id="01-Home" stroke="none" stroke-width="1" fill="none" fill-rule="evenodd">
        <g transform="translate(-236.000000, -1301.000000)" fill="#FFFFFF" fill-rule="nonzero" id="резюме">
            <g transform="translate(236.000000, 1301.000000)">
                <path d="M12.6382979,10.9531915 C13.1744681,10.9531915 13.7106383,10.7234043 14.093617,10.3404255 C14.4765957,9.95744681 14.706383,9.49787234 14.706383,8.88510638 C14.706383,8.27234043 14.4765957,7.8893617 14.093617,7.42978723 C13.787234,7.12340426 13.2510638,6.89361702 12.6382979,6.89361702 C12.0255319,6.89361702 11.5659574,7.12340426 11.1829787,7.50638298 C10.8,7.8893617 10.5702128,8.34893617 10.5702128,8.96170213 C10.5702128,9.49787234 10.8,9.95744681 11.1829787,10.4170213 C11.6425532,10.7234043 12.1787234,10.9531915 12.6382979,10.9531915 Z" id="Shape"></path>
                <path d="M8.88510638,16.3914894 L16.3914894,16.3914894 C17.4638298,16.3914894 18.3829787,15.5489362 18.3829787,14.4 C18.3829787,13.6340426 17.9234043,12.9446809 17.3106383,12.5617021 C16.6978723,12.2553191 15.012766,11.3361702 12.6382979,11.3361702 C9.95744681,11.3361702 8.04255319,12.4851064 7.81276596,12.6382979 C7.04680851,13.1744681 6.66382979,14.0170213 6.97021277,14.8595745 C7.27659574,15.7787234 8.04255319,16.3914894 8.88510638,16.3914894 Z" id="Shape"></path>
                <path d="M28.8,7.8893617 C28.8,7.81276596 28.8,7.73617021 28.7234043,7.73617021 C28.7234043,7.65957447 28.7234043,7.58297872 28.6468085,7.50638298 C28.6468085,7.42978723 28.5702128,7.35319149 28.5702128,7.27659574 C28.5702128,7.2 28.493617,7.2 28.493617,7.12340426 C28.4170213,6.97021277 28.3404255,6.89361702 28.2638298,6.81702128 L22.5957447,1.14893617 C22.4425532,1.07234043 22.3659574,0.995744681 22.212766,0.919148936 C22.1361702,0.919148936 22.1361702,0.842553191 22.0595745,0.842553191 C21.9829787,0.842553191 21.906383,0.765957447 21.8297872,0.765957447 C21.7531915,0.765957447 21.6765957,0.689361702 21.6,0.689361702 C21.5234043,0.689361702 21.4468085,0.612765957 21.4468085,0.612765957 C21.293617,0.612765957 21.2170213,0.536170213 21.0638298,0.536170213 L2.29787234,0.536170213 C1.22553191,0.536170213 0.306382979,1.3787234 0.306382979,2.52765957 L0.306382979,33.8553191 C0.306382979,34.9276596 1.14893617,35.8468085 2.29787234,35.8468085 L26.8085106,35.8468085 C27.8808511,35.8468085 28.8,35.0042553 28.8,33.8553191 L28.8,8.34893617 C28.8765957,8.19574468 28.8,8.04255319 28.8,7.8893617 Z M24.8170213,32.0170213 L4.2893617,32.0170213 L4.2893617,4.74893617 L19.1489362,4.74893617 L19.1489362,8.34893617 C19.1489362,9.4212766 19.9914894,10.3404255 21.1404255,10.3404255 L24.7404255,10.3404255 L24.7404255,32.0170213 L24.8170213,32.0170213 Z" id="Shape"></path>
                <path d="M8.73191489,18.8425532 C7.65957447,18.8425532 6.74042553,19.6851064 6.74042553,20.8340426 C6.74042553,21.9829787 7.58297872,22.8255319 8.73191489,22.8255319 L20.3744681,22.8255319 C21.4468085,22.8255319 22.3659574,21.9829787 22.3659574,20.8340426 C22.3659574,19.6851064 21.5234043,18.8425532 20.3744681,18.8425532 C20.2978723,18.8425532 8.73191489,18.8425532 8.73191489,18.8425532 Z" id="Shape"></path>
                <path d="M20.3744681,25.2765957 L8.73191489,25.2765957 C7.65957447,25.2765957 6.74042553,26.1191489 6.74042553,27.2680851 C6.74042553,28.3404255 7.58297872,29.2595745 8.73191489,29.2595745 L20.3744681,29.2595745 C21.4468085,29.2595745 22.3659574,28.4170213 22.3659574,27.2680851 C22.3659574,26.1191489 21.5234043,25.2765957 20.3744681,25.2765957 Z" id="Shape"></path>
            </g>
        </g>
    </g>
</svg>