<?xml version="1.0" encoding="UTF-8"?>
<svg width="36px" height="34px" viewBox="0 0 36 34" version="1.1" xmlns="http://www.w3.org/2000/svg" xmlns:xlink="http://www.w3.org/1999/xlink">
    <!-- Generator: Sketch 52.3 (67297) - http://www.bohemiancoding.com/sketch -->
    <title>icon-animals-cyan</title>
    <desc>Created with Sketch.</desc>
    <g id="Page-1" stroke="none" stroke-width="1" fill="none" fill-rule="evenodd">
        <g id="icon-animals-cyan" fill="#2DA5B6">
            <path d="M26.676,32.29 C27.0126157,32.1842206 27.2593411,31.8956054 27.3114742,31.5466333 C27.3636072,31.1976612 27.212004,30.8495396 26.921,30.65 C26.185,30.41 25.612,30.32 25.612,29.34 L25.53,28.36 C25.4490954,26.2745843 25.6138955,24.1868928 26.021,22.14 L26.267,21 C26.839,18.13 27.576,17.07 26.921,12.32 C24.9091459,11.5988202 23.0897378,10.4253396 21.603,8.89 L20.212,9.79 C19.5213177,10.2526035 18.7802118,10.6350664 18.003,10.93 L15.876,11.51 L3.685,11.34 C1.967,11.67 2.376,5.86 0.985,5.86 L0.412,5.86 C-0.406,5.86 0.167,9.38 0.821,11.42 C1.04394692,11.9808036 1.34710679,12.5062808 1.721,12.98 L1.558,13.14 C-0.079,15.6 0.33,18.05 1.067,20.59 C1.23,21.41 2.049,22.55 1.394,24.11 L1.067,24.92 C0.342347924,26.4494366 0.140996919,28.1748004 0.494,29.83 L0.739,30.81 C0.985,32.04 1.639,33.51 3.112,33.51 C3.685,33.51 4.585,33.27 4.339,32.53 L3.521,30.16 C3.276,29.26 3.521,24.68 4.339,24.92 L4.339,27.38 C4.585,29.1 5.321,31.63 6.221,31.96 L7.448,32.45 C9.167,33.19 9.003,30.98 8.348,30.08 L7.53,28.44 C7.20293049,27.8714235 7.08712334,27.2056209 7.203,26.56 L7.367,26.23 L8.839,22.39 L9.085,20.75 C9.167,20.18 8.921,19.28 9.739,19.11 L11.539,18.87 C14.0572251,20.1267708 16.7239483,21.0608127 19.476,21.65 L19.967,22.55 C19.885,24.43 19.721,25.33 19.558,26.72 L19.394,28.77 C19.23,30.16 18.739,32.12 21.767,32.04 C22.667,32.21 23.73,31.14 22.83,30.32 C21.521,29.67 21.685,28.93 21.93,27.95 L22.912,23.12 L23.157,28.11 C23.239,30.65 22.585,32.94 26.676,32.29 Z M29.294,3.16 L29.212,2.51 L29.376,1.85 C29.5096545,1.15687451 29.2203761,0.450360187 28.639,0.05 C27.955164,-0.0286779121 27.3086858,0.379011053 27.085,1.03 L26.839,1.61 L26.594,2.1 L25.612,3.65 L22.503,7.5 C23.9733156,8.99772363 25.7247856,10.1905175 27.657,11.01 L28.639,10.2 L29.294,9.95 L29.539,9.95 L30.276,10.28 C31.912,11.18 34.121,11.01 34.939,9.21 L35.103,8.81 C35.349,8.15 35.594,7.25 34.776,6.84 L34.449,6.76 C33.6909907,6.75857279 32.9504323,6.53236841 32.321,6.11 L31.503,5.12 C30.8488333,4.37954434 30.1070561,3.72138081 29.294,3.16 Z" id="Shape"></path>
        </g>
    </g>
</svg>