<?xml version="1.0" encoding="UTF-8"?>
<svg width="11px" height="13px" viewBox="0 0 11 13" version="1.1" xmlns="http://www.w3.org/2000/svg" xmlns:xlink="http://www.w3.org/1999/xlink">
    <!-- Generator: Sketch 52.3 (67297) - http://www.bohemiancoding.com/sketch -->
    <title>icon-marker</title>
    <desc>Created with Sketch.</desc>
    <g id="Page-1" stroke="none" stroke-width="1" fill="none" fill-rule="evenodd">
        <g id="icon-marker" fill="#20AABE" fill-rule="nonzero">
            <path d="M5.4841013,0 C8.28413799,0 10.5621395,2.28332812 10.5621649,5.08988086 C10.5621649,6.25495508 9.74618094,7.89991211 8.1368343,9.97897266 C6.96448438,11.4935488 5.81153853,12.6676367 5.76302837,12.7168691 L5.4841013,13 L5.20517423,12.7168945 C5.15666407,12.6676367 4.00371822,11.4935488 2.8313683,9.97899805 C1.22202166,7.89991211 0.406037743,6.25498047 0.406037743,5.08990625 C0.406037743,2.28332812 2.68403928,0 5.4841013,0 Z M5.59851407,7.65984109 C7.15285285,7.65984109 8.4128934,6.39980054 8.4128934,4.84546176 C8.4128934,3.29112297 7.15285285,2.03108243 5.59851407,2.03108243 C4.04417528,2.03108243 2.78413474,3.29112297 2.78413474,4.84546176 C2.78413474,6.39980054 4.04417528,7.65984109 5.59851407,7.65984109 Z" id="Combined-Shape"></path>
        </g>
    </g>
</svg>