<?xml version="1.0" encoding="UTF-8"?>
<svg width="18px" height="19px" viewBox="0 0 18 19" version="1.1" xmlns="http://www.w3.org/2000/svg" xmlns:xlink="http://www.w3.org/1999/xlink">
    <!-- Generator: Sketch 48.2 (47327) - http://www.bohemiancoding.com/sketch -->
    <title>search_input</title>
    <desc>Created with Sketch.</desc>
    <defs></defs>
    <g id="00.01.02-Splash_Location_Manual" stroke="none" stroke-width="1" fill="none" fill-rule="evenodd" transform="translate(-20.000000, -95.000000)">
        <g id="SubBar" transform="translate(0.000000, 80.000000)" fill="#999999" fill-rule="nonzero">
            <g id="search_input" transform="translate(20.000000, 15.000000)">
                <path d="M17.5456684,16.5087603 L13.2319526,12.0222795 C14.3410847,10.7037931 14.9487848,9.04486747 14.9487848,7.31785394 C14.9487848,3.28285291 11.6659318,0 7.63093082,0 C3.59592979,0 0.313076881,3.28285291 0.313076881,7.31785394 C0.313076881,11.352855 3.59592979,14.6357079 7.63093082,14.6357079 C9.14572658,14.6357079 10.5892528,14.1788193 11.8234248,13.3114945 L16.1699119,17.8320192 C16.3515855,18.0206926 16.5959382,18.1247334 16.8577901,18.1247334 C17.1056427,18.1247334 17.3407685,18.0302376 17.5192605,17.8584271 C17.8985162,17.4934889 17.9106066,16.8883342 17.5456684,16.5087603 Z M7.63093082,1.90900537 C10.6134335,1.90900537 13.0397794,4.33535121 13.0397794,7.31785394 C13.0397794,10.3003567 10.6134335,12.7267025 7.63093082,12.7267025 C4.64842809,12.7267025 2.22208226,10.3003567 2.22208226,7.31785394 C2.22208226,4.33535121 4.64842809,1.90900537 7.63093082,1.90900537 Z" id="Shape"></path>
            </g>
        </g>
    </g>
</svg>