<?xml version="1.0" encoding="UTF-8"?>
<svg width="15px" height="15px" viewBox="0 0 15 15" version="1.1" xmlns="http://www.w3.org/2000/svg" xmlns:xlink="http://www.w3.org/1999/xlink">
    <!-- Generator: Sketch 52.3 (67297) - http://www.bohemiancoding.com/sketch -->
    <title>icon-phone</title>
    <desc>Created with Sketch.</desc>
    <g id="Page-1" stroke="none" stroke-width="1" fill="none" fill-rule="evenodd">
        <g id="icon-phone" fill="#D6D6D6">
            <path d="M14.993,11.838 C15.0268337,12.073681 14.9436043,12.3110528 14.77,12.474 L12.658,14.574 C12.5526559,14.6876803 12.4258973,14.7794359 12.285,14.844 C12.1426416,14.9147709 11.9901592,14.9630121 11.833,14.987 L11.733,14.995 C11.68,14.995 11.612,15.003 11.527,15.003 C11.1994555,14.9916693 10.8730481,14.9582602 10.55,14.903 C9.981735,14.7981565 9.42765173,14.6273337 8.899,14.394 C8.12515185,14.0574107 7.38372727,13.650715 6.684,13.179 C5.73008684,12.5313649 4.8466039,11.7856329 4.048,10.954 C3.37885329,10.3043627 2.76287909,9.60211201 2.206,8.854 C1.77092683,8.26541742 1.37954656,7.64575985 1.035,7 C0.769410201,6.50581129 0.546274884,5.98995723 0.368,5.458 C0.237927292,5.0688462 0.13763811,4.67036385 0.068,4.266 C0.0193249309,4.00690318 -0.00345389975,3.7436067 0,3.48 C0.011,3.289 0.016,3.18 0.016,3.162 C0.0401228248,3.00455293 0.0883550658,2.85176128 0.159,2.709 C0.223812439,2.56824773 0.315535052,2.44153464 0.429,2.336 L2.541,0.223 C2.67239178,0.0818719743 2.85618015,0.00119322376 3.049,0 C3.18075715,-0.00159833485 3.30937661,0.0402205586 3.415,0.119 C3.52136054,0.200306646 3.61244065,0.299851445 3.684,0.413 L5.384,3.639 C5.47882371,3.80797109 5.50700401,4.00630339 5.463,4.195 C5.42573142,4.38749026 5.33169523,4.56441761 5.193,4.703 L4.415,5.482 C4.38941747,5.51095969 4.37032385,5.54505544 4.359,5.582 C4.34516292,5.62022132 4.33740207,5.66037527 4.336,5.701 C4.39404654,5.96764698 4.49002297,6.22459443 4.621,6.464 C4.79237719,6.78890024 4.98898041,7.09985431 5.209,7.394 C5.5497038,7.84494037 5.92662004,8.26734073 6.336,8.657 C6.72830286,9.06935935 7.15335909,9.44926799 7.607,9.793 C7.90101011,10.0162593 8.21157213,10.2168376 8.536,10.393 C8.71586028,10.4934649 8.9077201,10.5707464 9.107,10.623 L9.307,10.663 C9.34127102,10.6595929 9.37491565,10.6515182 9.407,10.639 C9.44394477,10.6281771 9.47807552,10.6094052 9.507,10.584 L10.407,9.662 C10.5892392,9.49607459 10.8275549,9.40532171 11.074,9.408 C11.2233637,9.40243103 11.3714938,9.4369602 11.503,9.508 L11.519,9.508 L14.584,11.32 C14.788525,11.4257627 14.9375635,11.6145207 14.993,11.838 Z" id="Forma_1"></path>
        </g>
    </g>
</svg>