<?xml version="1.0" encoding="UTF-8"?>
<svg width="55px" height="55px" viewBox="0 0 55 55" version="1.1" xmlns="http://www.w3.org/2000/svg" xmlns:xlink="http://www.w3.org/1999/xlink">
    <!-- Generator: Sketch 52.3 (67297) - http://www.bohemiancoding.com/sketch -->
    <title>icon-vk-mobile</title>
    <desc>Created with Sketch.</desc>
    <g id="Page-1" stroke="none" stroke-width="1" fill="none" fill-rule="evenodd">
        <g id="icon-vk-mobile">
            <circle id="Oval-2" fill="#FFFFFF" cx="27.5" cy="28.4482759" r="23.7068966"></circle>
            <path d="M27.3396139,54.6792277 C12.2403621,54.6792277 0,42.4388657 0,27.3396139 C0,12.2403621 12.2403621,0 27.3396139,0 C42.4388657,0 54.6792277,12.2403621 54.6792277,27.3396139 C54.6792277,42.4388657 42.4388657,54.6792277 27.3396139,54.6792277 Z M26.3069096,39.3304845 L28.4527316,39.3304845 C28.4527316,39.3304845 29.1009131,39.2593307 29.4318268,38.9025872 C29.7364234,38.575085 29.7266763,37.9600436 29.7266763,37.9600436 C29.7266763,37.9600436 29.6847638,35.0807531 31.0210899,34.6567546 C32.3384092,34.2390918 34.0300167,37.4395489 35.822994,38.6701191 C37.1788143,39.6014536 38.2090817,39.397252 38.2090817,39.397252 L43.0031881,39.3304845 C43.0031881,39.3304845 45.5111145,39.1759931 44.3219695,37.2041567 C44.2244986,37.0428424 43.6294387,35.7455046 40.7574585,33.0796754 C37.7514558,30.2895708 38.1540107,30.7408611 41.7750547,25.9145892 C43.980334,22.9753541 44.8619583,21.1809148 44.586603,20.4123567 C44.3239189,19.6803502 42.702003,19.87383 42.702003,19.87383 L37.3040644,19.9074574 C37.3040644,19.9074574 36.9039463,19.8528737 36.6071474,20.0302708 C36.3171715,20.2042563 36.1305147,20.6097353 36.1305147,20.6097353 C36.1305147,20.6097353 35.2761822,22.8842188 34.1367474,24.8185289 C31.7331149,28.900123 30.7720518,29.1155337 30.379244,28.8621094 C29.4654543,28.2714357 29.6935362,26.4891802 29.6935362,25.2230332 C29.6935362,21.2676639 30.2934696,19.6184562 28.5253474,19.1915336 C27.9385726,19.0497135 27.5067765,18.9561414 26.0062119,18.9410334 C24.0801868,18.9210519 22.449986,18.9468817 21.5269365,19.3991467 C20.9128698,19.6998444 20.4391612,20.3699569 20.7276751,20.4084579 C21.0844186,20.4562186 21.8924524,20.6263054 22.320837,21.2096687 C22.8739844,21.9621441 22.8544902,23.6522896 22.8544902,23.6522896 C22.8544902,23.6522896 23.1722454,28.3084747 22.1122493,28.8869645 C21.384629,29.283671 20.3865269,28.4736878 18.2436291,24.7707682 C17.1456194,22.8739844 16.3166293,20.7773853 16.3166293,20.7773853 C16.3166293,20.7773853 16.156777,20.3855522 15.8716747,20.1759898 C15.5256529,19.9220781 15.0421973,19.8411772 15.0421973,19.8411772 L9.91279094,19.8748047 C9.91279094,19.8748047 9.1427708,19.8962483 8.86010517,20.2310608 C8.60863024,20.5288344 8.84012364,21.1448506 8.84012364,21.1448506 C8.84012364,21.1448506 12.8559249,30.540071 17.4029426,35.2747202 C21.5722605,39.6155869 26.3069096,39.3304845 26.3069096,39.3304845 Z" id="Combined-Shape" fill="#45668E" fill-rule="nonzero"></path>
        </g>
    </g>
</svg>