<?xml version="1.0" encoding="UTF-8"?>
<svg width="36px" height="34px" viewBox="0 0 36 34" version="1.1" xmlns="http://www.w3.org/2000/svg" xmlns:xlink="http://www.w3.org/1999/xlink">
    <!-- Generator: Sketch 52.3 (67297) - http://www.bohemiancoding.com/sketch -->
    <title>Животные</title>
    <desc>Created with Sketch.</desc>
    <g id="01-Home" stroke="none" stroke-width="1" fill="none" fill-rule="evenodd">
        <g transform="translate(-529.000000, -1150.000000)" fill="#FFFFFF" fill-rule="nonzero" id="Животные">
            <g transform="translate(529.000000, 1150.000000)">
                <path d="M27.0818182,32.7272727 C22.9909091,33.3818182 23.6454545,31.0909091 23.5636364,28.5545455 L23.3181818,23.5636364 L22.3363636,28.3909091 C22.0909091,29.3727273 21.9272727,30.1090909 23.2363636,30.7636364 C24.1363636,31.5818182 23.0727273,32.6454545 22.1727273,32.4818182 C19.1454545,32.5636364 19.6363636,30.6 19.8,29.2090909 L19.9636364,27.1636364 C20.1272727,25.7727273 20.2909091,24.8727273 20.3727273,22.9909091 L19.8818182,22.0909091 C16.6909091,21.2727273 14.4,20.6181818 11.9454545,19.3090909 L10.1454545,19.5545455 C9.32727273,19.7181818 9.57272727,20.6181818 9.49090909,21.1909091 L9.24545455,22.8272727 L7.77272727,26.6727273 L7.60909091,27 C7.52727273,27.3272727 7.52727273,28.3090909 7.93636364,28.8818182 L8.75454545,30.5181818 C9.40909091,31.4181818 9.57272727,33.6272727 7.85454545,32.8909091 L6.62727273,32.4 C5.72727273,32.0727273 4.99090909,29.5363636 4.74545455,27.8181818 L4.74545455,25.3636364 C3.92727273,25.1181818 3.68181818,29.7 3.92727273,30.6 L4.74545455,32.9727273 C4.99090909,33.7090909 4.09090909,33.9545455 3.51818182,33.9545455 C2.04545455,33.9545455 1.39090909,32.4818182 1.14545455,31.2545455 L0.9,30.2727273 C0.572727273,28.8 0.736363636,26.5909091 1.47272727,25.3636364 L1.8,24.5454545 C2.45454545,22.9909091 1.63636364,21.8454545 1.47272727,21.0272727 C0.736363636,18.4909091 0.327272727,16.0363636 1.96363636,13.5818182 L2.12727273,13.4181818 C2.04545455,13.1727273 1.55454545,12.8454545 1.22727273,11.8636364 C0.572727273,9.81818182 1.49880108e-15,6.3 0.818181818,6.3 L1.39090909,6.3 C2.78181818,6.3 2.37272727,12.1090909 4.09090909,11.7818182 L16.2818182,11.9454545 L18.4090909,11.3727273 C19.2272727,11.1272727 19.8818182,10.6363636 20.6181818,10.2272727 L22.0090909,9.32727273 C23.6454545,10.9636364 25.0363636,11.8636364 27.3272727,12.7636364 C27.9818182,17.5090909 27.2454545,18.5727273 26.6727273,21.4363636 L26.4272727,22.5818182 C26.0181818,24.6272727 25.8545455,26.7545455 25.9363636,28.8 L26.0181818,29.7818182 C26.0181818,30.7636364 26.5909091,30.8454545 27.3272727,31.0909091 C27.7363636,31.2545455 28.0636364,32.2363636 27.0818182,32.7272727 Z" id="Shape"></path>
                <path d="M29.7,3.6 C30.3545455,4.00909091 31.2545455,4.82727273 31.9090909,5.56363636 L32.7272727,6.54545455 C33.3,7.11818182 34.1181818,7.03636364 34.8545455,7.2 L35.1818182,7.28181818 C36,7.69090909 35.7545455,8.59090909 35.5090909,9.24545455 L35.3454545,9.65454545 C34.5272727,11.4545455 32.3181818,11.6181818 30.6818182,10.7181818 L29.9454545,10.3909091 L29.7,10.3909091 L29.0454545,10.6363636 L28.0636364,11.4545455 C25.9363636,10.4727273 24.3,9.40909091 22.9090909,7.93636364 L26.0181818,4.09090909 L27,2.53636364 L27.2454545,2.04545455 L27.4909091,1.47272727 C27.7363636,0.9 28.4727273,0.245454545 29.0454545,0.490909091 C29.6181818,0.736363636 29.9454545,1.8 29.7818182,2.29090909 L29.6181818,2.94545455 L29.7,3.6 Z" id="Shape"></path>
            </g>
        </g>
    </g>
</svg>