<?xml version="1.0" encoding="UTF-8"?>
<svg width="40px" height="40px" viewBox="0 0 40 40" version="1.1" xmlns="http://www.w3.org/2000/svg" xmlns:xlink="http://www.w3.org/1999/xlink">
    <!-- Generator: Sketch 52.3 (67297) - http://www.bohemiancoding.com/sketch -->
    <title>icon-ok-mobile</title>
    <desc>Created with Sketch.</desc>
    <g id="Page-1" stroke="none" stroke-width="1" fill="none" fill-rule="evenodd">
        <g id="icon-ok-mobile">
            <path d="M19.9765805,4.26986912 C11.3019767,4.26986912 4.26986912,11.3022981 4.26986912,19.9765805 C4.26986912,28.6508629 11.3019767,35.6832918 19.9765805,35.6832918 C28.6511843,35.6832918 35.6832918,28.6508629 35.6832918,19.9765805 C35.6832918,11.3022981 28.6511843,4.26986912 19.9765805,4.26986912 Z" id="Path" fill="#FFFFFF"></path>
            <path d="M19.995382,16.5563447 C21.9029155,16.5493963 23.4221574,15.0170751 23.4152091,13.1054543 C23.4082607,11.193016 21.8857489,9.67132168 19.9773979,9.66968677 C18.0531066,9.66764313 16.5162893,11.2175397 16.5310035,13.1471445 C16.545309,15.0518169 18.0817175,16.563293 19.995382,16.5563447 Z" id="Shape" fill="#ED812B"></path>
            <path d="M19.9765805,0 C8.94378586,0 0,8.94419459 0,19.9765805 C0,31.0089664 8.94378586,39.953161 19.9765805,39.953161 C31.0093751,39.953161 39.953161,31.0089664 39.953161,19.9765805 C39.953161,8.94419459 31.0093751,0 19.9765805,0 Z M20.0051914,6.07492411 C23.8962819,6.08555103 27.0193725,9.26831589 26.9993448,13.2023228 C26.9797259,17.0455921 23.8055443,20.1605081 19.9209935,20.1474288 C16.0760893,20.1343495 12.9227528,16.9466799 12.9456416,13.0956448 C12.9673042,9.20251068 16.1222755,6.06429718 20.0051914,6.07492411 Z M27.8862845,22.9120649 C27.0259121,23.7953261 25.9901954,24.4345767 24.8400348,24.8804989 C23.7528184,25.3018975 22.5613763,25.5140273 21.3817873,25.6554472 C21.5604014,25.8491842 21.6441907,25.9444179 21.7553647,26.0555919 C23.3559435,27.664754 24.9642881,29.2657415 26.5595535,30.8793996 C27.1031617,31.4295475 27.2163794,32.1113058 26.9171905,32.7501476 C26.5906168,33.4490725 25.8577675,33.9084827 25.138815,33.8590266 C24.683492,33.8275546 24.3283074,33.601528 24.0131781,33.2839464 C22.8049782,32.0683893 21.5738895,30.8744949 20.3910307,29.6360491 C20.0456555,29.275551 19.8805294,29.3442173 19.5760271,29.6573029 C18.3608787,30.908828 17.1257028,32.1403254 15.8835784,33.3652832 C15.3256647,33.9154311 14.6618904,34.0151607 14.0144653,33.7004402 C13.3265761,33.3677356 12.8892371,32.6651322 12.9227528,31.9584415 C12.9464591,31.4818647 13.1810689,31.1164618 13.5088688,30.7902969 C15.0935072,29.2089283 16.6732409,27.622655 18.2533833,26.0376078 C18.3584264,25.9325647 18.4557036,25.820982 18.6081592,25.6574908 C16.4529365,25.4322817 14.5094349,24.9017528 12.8455032,23.6007716 C12.6386869,23.4389153 12.4257396,23.2827812 12.2377247,23.101306 C11.5089627,22.4019724 11.4358004,21.6004568 12.0116982,20.7756437 C12.5050328,20.0693617 13.3322983,19.8805294 14.1926707,20.2863963 C14.3594317,20.3644633 14.5180182,20.4633755 14.670065,20.5680099 C17.7706755,22.6987089 22.0304386,22.757157 25.143311,20.6632435 C25.4514919,20.4278162 25.7813354,20.2340791 26.1634961,20.1363931 C26.9057461,19.9451084 27.5989488,20.2185475 27.9970498,20.868425 C28.4527815,21.6110837 28.4474681,22.3353497 27.8862845,22.9120649 Z" id="Shape" fill="#ED812B" fill-rule="nonzero"></path>
        </g>
    </g>
</svg>