<?xml version="1.0" encoding="UTF-8"?>
<svg width="24px" height="22px" viewBox="0 0 24 22" version="1.1" xmlns="http://www.w3.org/2000/svg" xmlns:xlink="http://www.w3.org/1999/xlink">
    <!-- Generator: Sketch 52.3 (67297) - http://www.bohemiancoding.com/sketch -->
    <title>icon-download</title>
    <desc>Created with Sketch.</desc>
    <g id="Page-1" stroke="none" stroke-width="1" fill="none" fill-rule="evenodd">
        <g id="icon-download" fill="#D6D6D6">
            <path d="M23.6,15.07 C23.3423372,14.807428 22.9878059,14.6627214 22.62,14.67 L15.92,14.67 L13.96,16.62 C12.8712382,17.6872001 11.1287618,17.6872001 10.04,16.62 L8.09,14.67 L1.38,14.67 C1.01219406,14.6627214 0.657662844,14.807428 0.4,15.07 C0.137656471,15.3236933 -0.00726504071,15.6751279 -6.81843471e-13,16.04 L-6.81843471e-13,20.63 C-0.00726504071,20.9948721 0.137656471,21.3463067 0.4,21.6 C0.657662844,21.862572 1.01219406,22.0072786 1.38,22 L22.62,22 C22.9878059,22.0072786 23.3423372,21.862572 23.6,21.6 C23.8623435,21.3463067 24.007265,20.9948721 24,20.63 L24,16.04 C24.007265,15.6751279 23.8623435,15.3236933 23.6,15.07 Z M18.19,19.9 C18.0179021,20.0729414 17.7839804,20.17017 17.54,20.17017 C17.2960196,20.17017 17.0620979,20.0729414 16.89,19.9 C16.7162692,19.7284465 16.6189483,19.4941555 16.62,19.25 C16.6171169,19.0084087 16.7149436,18.7765231 16.89,18.61 C17.0588882,18.4311479 17.2940095,18.3297882 17.54,18.3297882 C17.7859905,18.3297882 18.0211118,18.4311479 18.19,18.61 C18.3650564,18.7765231 18.4628831,19.0084087 18.46,19.25 C18.4610517,19.4941555 18.3637308,19.7284465 18.19,19.9 Z M21.88,19.9 C21.7095692,20.0753907 21.4745392,20.1730185 21.23,20.17 C20.7223544,20.1689 20.3111,19.7576456 20.31,19.25 C20.3071169,19.0084087 20.4049436,18.7765231 20.58,18.61 C20.7505333,18.4335402 20.9846179,18.3327038 21.23,18.33 C21.4758127,18.3306509 21.7106626,18.431817 21.88,18.61 C22.0550564,18.7765231 22.1528831,19.0084087 22.15,19.25 C22.1510517,19.4941555 22.0537308,19.7284465 21.88,19.9 Z M11.35,15.31 C11.5220979,15.4829414 11.7560196,15.58017 12,15.58017 C12.2439804,15.58017 12.4779021,15.4829414 12.65,15.31 L19.11,8.89 C19.4058747,8.64657256 19.4894891,8.2285002 19.31,7.89 C19.1802135,7.53706389 18.835509,7.3099645 18.46,7.33 L14.77,7.33 L14.77,0.92 C14.7730185,0.675460801 14.6753907,0.440430766 14.5,0.27 C14.3284465,0.0962691922 14.0941555,-0.0010517044 13.85,-2.27484698e-13 L10.15,-2.27484698e-13 C9.90584454,-0.0010517044 9.67155349,0.0962691922 9.5,0.27 C9.32460934,0.440430766 9.22698147,0.675460801 9.23,0.92 L9.23,7.33 L5.54,7.33 C5.16449098,7.3099645 4.81978655,7.53706389 4.69,7.89 C4.51051086,8.2285002 4.59412533,8.64657256 4.89,8.89 L11.35,15.31 Z" id="Forma_1"></path>
        </g>
    </g>
</svg>