<?xml version="1.0" encoding="UTF-8"?>
<svg width="16px" height="18px" viewBox="0 0 16 18" version="1.1" xmlns="http://www.w3.org/2000/svg" xmlns:xlink="http://www.w3.org/1999/xlink">
    <!-- Generator: Sketch 48.2 (47327) - http://www.bohemiancoding.com/sketch -->
    <title>ic_live_help</title>
    <desc>Created with Sketch.</desc>
    <defs></defs>
    <g id="01.00-Home_MenuGuest" stroke="none" stroke-width="1" fill="none" fill-rule="evenodd" transform="translate(-21.000000, -362.000000)">
        <g id="Drawer">
            <g id="#5" transform="translate(0.000000, 346.000000)">
                <g id="ic_live_help" transform="translate(19.000000, 14.439887)">
                    <polygon id="Shape" points="0 0 20.3322597 0 20.3322597 20.3322597 0 20.3322597"></polygon>
                    <path d="M16.0963722,1.69435497 L4.23588743,1.69435497 C3.29552042,1.69435497 2.54153246,2.45681471 2.54153246,3.38870995 L2.54153246,15.2491948 C2.54153246,16.18109 3.29552042,16.9435497 4.23588743,16.9435497 L7.62459738,16.9435497 L10.1661298,19.4850822 L12.7076623,16.9435497 L16.0963722,16.9435497 C17.0282675,16.9435497 17.7907272,16.18109 17.7907272,15.2491948 L17.7907272,3.38870995 C17.7907272,2.45681471 17.0282675,1.69435497 16.0963722,1.69435497 Z M11.0133073,15.2491948 L9.31895235,15.2491948 L9.31895235,13.5548398 L11.0133073,13.5548398 L11.0133073,15.2491948 Z M12.7669647,8.68356924 L12.004505,9.46297253 C11.3945372,10.0814121 11.0133073,10.5897186 11.0133073,11.8604848 L9.31895235,11.8604848 L9.31895235,11.4368961 C9.31895235,10.5050008 9.70018222,9.65782335 10.31015,9.03938378 L11.3606501,7.97194015 C11.6741058,7.66695625 11.8604848,7.24336751 11.8604848,6.77741989 C11.8604848,5.84552466 11.0980251,5.08306492 10.1661298,5.08306492 C9.2342346,5.08306492 8.47177487,5.84552466 8.47177487,6.77741989 L6.77741989,6.77741989 C6.77741989,4.90515765 8.29386759,3.38870995 10.1661298,3.38870995 C12.0383921,3.38870995 13.5548398,4.90515765 13.5548398,6.77741989 C13.5548398,7.52293608 13.2498559,8.20067807 12.7669647,8.68356924 Z" id="Shape" fill="#20AABE" fill-rule="nonzero"></path>
                </g>
            </g>
        </g>
    </g>
</svg>