<?xml version="1.0" encoding="UTF-8"?>
<svg width="18px" height="24px" viewBox="0 0 18 24" version="1.1" xmlns="http://www.w3.org/2000/svg" xmlns:xlink="http://www.w3.org/1999/xlink">
    <!-- Generator: Sketch 52.3 (67297) - http://www.bohemiancoding.com/sketch -->
    <title>icon-password</title>
    <desc>Created with Sketch.</desc>
    <g id="Page-1" stroke="none" stroke-width="1" fill="none" fill-rule="evenodd">
        <g id="icon-password" transform="translate(-1.000000, 0.000000)" fill="#D6D6D6">
            <path d="M17.72,9.692 L17.27,9.692 L17.27,7.5 C17.3356088,3.50078523 14.2058787,0.17600119 10.21,0 C10.11,0 9.89,0 9.79,0 C5.79412127,0.17600119 2.66439122,3.50078523 2.73,7.5 L2.73,9.689 L2.28,9.689 C1.47420043,9.80588613 0.907223752,10.5420699 1,11.351 L1,22.329 C0.908090648,23.1389123 1.47388789,23.8762169 2.28,23.997 L17.72,23.997 C18.5261121,23.8762169 19.0919094,23.1389123 19,22.329 L19,11.354 C19.0927762,10.5450699 18.5257996,9.80888613 17.72,9.692 Z M11.45,16.832 L11.45,20.149 C11.4501547,20.5279216 11.148767,20.8381737 10.77,20.849 L9.23,20.849 C8.85123303,20.8381737 8.54984531,20.5279216 8.55,20.149 L8.55,16.832 C8.17928774,16.4529331 7.97426542,15.9421758 7.98,15.412 C7.95822978,14.3711055 8.75210395,13.4938965 9.79,13.412 C9.89,13.412 10.11,13.412 10.21,13.412 C11.247896,13.4938965 12.0417702,14.3711055 12.02,15.412 C12.0257346,15.9421758 11.8207123,16.4529331 11.45,16.832 Z M14.26,9.692 L5.74,9.692 L5.74,7.5 C5.69240408,5.94692081 6.493785,4.49100666 7.83141857,3.70040133 C9.16905214,2.909796 10.8309479,2.909796 12.1685814,3.70040133 C13.506215,4.49100666 14.3075959,5.94692081 14.26,7.5 L14.26,9.689 L14.26,9.692 Z" id="Forma_1"></path>
        </g>
    </g>
</svg>