<?xml version="1.0" encoding="UTF-8"?>
<svg width="36px" height="30px" viewBox="0 0 36 30" version="1.1" xmlns="http://www.w3.org/2000/svg" xmlns:xlink="http://www.w3.org/1999/xlink">
    <!-- Generator: Sketch 52.3 (67297) - http://www.bohemiancoding.com/sketch -->
    <title>icon-products-cyan</title>
    <desc>Created with Sketch.</desc>
    <g id="Page-1" stroke="none" stroke-width="1" fill="none" fill-rule="evenodd">
        <g id="icon-products-cyan" transform="translate(-1.000000, 0.000000)" fill="#2DA5B6">
            <path d="M32.523,21.18 L36.671,6.86 C36.8532055,6.25890064 36.7008875,5.60625648 36.271423,5.14791226 C35.8419584,4.68956803 35.200593,4.49515713 34.588923,4.63791226 C33.9772529,4.78066739 33.4882055,5.23890064 33.306,5.84 L29.471,18.91 L14.206,18.91 L9.276,2.24 C9.03910888,1.4901563 8.34034144,0.982920932 7.554,0.99 L2.78,0.99 C2.13692179,0.989999783 1.54269293,1.3330778 1.22115377,1.88999982 C0.899614602,2.44692185 0.899614602,3.13307815 1.22115377,3.69000018 C1.54269293,4.2469222 2.13692179,4.59000022 2.78,4.59 L6.306,4.59 L11.236,21.26 C11.4728911,22.0098437 12.1716586,22.5170791 12.958,22.51 L30.88,22.51 C31.6733089,22.5110845 32.3588514,21.9561414 32.523,21.18 Z M17.732,26.42 C17.7314478,27.9325776 16.5049113,29.158368 14.9923336,29.1579999 C13.4797559,29.1576318 12.2538162,27.9312445 12.2540002,26.4186668 C12.2541842,24.9060891 13.4804223,23.6800001 14.993,23.68 C15.7250644,23.6616828 16.4325871,23.944508 16.9503023,24.4624122 C17.4680175,24.9803165 17.7505844,25.6879423 17.732,26.42 Z M30.958,26.42 C30.9574478,27.9325776 29.7309113,29.158368 28.2183336,29.1579999 C26.7057559,29.1576318 25.4798162,27.9312445 25.4800002,26.4186668 C25.4801842,24.9060891 26.7064223,23.6800001 28.219,23.68 C29.7237624,23.6999332 30.9386161,24.9152304 30.958,26.42 Z M31.506,5.14 L12.332,5.14 L15.854,17.11 L27.828,17.11 L31.506,5.14 Z" id="Shape"></path>
        </g>
    </g>
</svg>