<?xml version="1.0" encoding="UTF-8"?>
<svg width="30px" height="36px" viewBox="0 0 30 36" version="1.1" xmlns="http://www.w3.org/2000/svg" xmlns:xlink="http://www.w3.org/1999/xlink">
    <!-- Generator: Sketch 52.3 (67297) - http://www.bohemiancoding.com/sketch -->
    <title>icon-services-cyan</title>
    <desc>Created with Sketch.</desc>
    <g id="Page-1" stroke="none" stroke-width="1" fill="none" fill-rule="evenodd">
        <g id="icon-services-cyan" fill="#2DA5B6">
            <path d="M0.14,29.64 C1.07847327,32.1723125 3.00127622,34.2173871 5.471,35.31 L10.041,28.81 L12.81,26.66 L15.787,24.31 C15.787,24.31 20.148,19.81 20.84,19.18 C21.6784741,18.567839 22.55749,18.0132337 23.471,17.52 C23.9183802,17.1844886 24.1114867,16.60716 23.956,16.07 L20.91,16.07 C19.594,16.69 16.133,18.28 16.133,18.28 L12.879,20.08 L10.594,20.5 L9.348,18.56 L7.341,16.07 L5.471,16.07 C5.056,16.41 5.264,16.34 5.471,17.11 L6.164,18.56 C6.21955479,18.7709152 6.28869925,18.9780145 6.371,19.18 C6.51,19.53 6.579,21.26 6.717,21.47 C6.34968902,22.0490236 6.06999868,22.6791693 5.887,23.34 C5.66602611,24.2456465 5.59575193,25.1815093 5.679,26.11 L0.14,29.64 Z M14.748,0.01 C13.9441955,0.0326644492 13.2870871,0.658276566 13.225,1.46 C13.2634885,2.27272108 13.9343694,2.91144543 14.748,2.91 C15.1431421,2.922919 15.52693,2.7766684 15.813265,2.50405795 C16.0995999,2.2314475 16.2645102,1.85529996 16.271,1.46 C16.2325115,0.647278925 15.5616306,0.00855456714 14.748,0.01 Z M14.748,3.12 C9.1024173,3.05881187 4.34984789,7.32995442 3.81,12.95 L25.687,12.95 C25.1466636,7.32979855 20.3937841,3.05876784 14.748,3.12 Z M0.902,15.51 L28.94,15.51 C29.4370563,15.51 29.84,15.1070563 29.84,14.61 C29.84,14.1129437 29.4370563,13.71 28.94,13.71 L0.902,13.71 C0.404943725,13.71 0.002,14.1129437 0.002,14.61 C0.002,15.1070563 0.404943725,15.51 0.902,15.51 Z" id="Shape"></path>
        </g>
    </g>
</svg>