<?xml version="1.0" encoding="UTF-8"?>
<svg width="32px" height="36px" viewBox="0 0 32 36" version="1.1" xmlns="http://www.w3.org/2000/svg" xmlns:xlink="http://www.w3.org/1999/xlink">
    <!-- Generator: Sketch 52.3 (67297) - http://www.bohemiancoding.com/sketch -->
    <title>контакты</title>
    <desc>Created with Sketch.</desc>
    <g id="01-Home" stroke="none" stroke-width="1" fill="none" fill-rule="evenodd">
        <g transform="translate(-529.000000, -921.000000)" fill="#FFFFFF" fill-rule="nonzero" id="контакты">
            <g transform="translate(529.000000, 921.000000)">
                <path d="M23.832,13.824 C23.184,16.272 22.464,16.416 22.176,16.2 C21.672,18.864 20.304,22.248 15.696,22.392 C11.016,22.032 9.576,18.576 9.144,15.84 C8.712,15.84 8.28,15.336 7.704,13.392 C6.984,10.8 7.776,10.44 8.352,10.512 C7.848,9.144 7.848,7.848 8.208,6.624 C8.568,5.184 9.36,4.032 10.152,3.096 C10.656,2.52 11.304,2.016 11.952,1.512 C12.456,1.08 13.104,0.864 13.68,0.576 C14.184,0.36 14.76,0.288 15.264,0.216 C16.992,0.072 18.36,0.504 19.296,1.08 C20.736,1.872 21.24,2.88 21.24,2.88 C21.24,2.88 24.912,3.168 23.256,10.728 C24.048,11.088 24.408,11.808 23.832,13.824 Z M15.84,35.64 C21.96,35.64 27.432,33.12 31.464,29.16 C31.392,27.432 30.816,25.272 28.512,24.624 C24.624,23.688 21.384,21.384 21.384,21.384 L18.864,29.304 L18.36,30.816 L18,32.04 L16.704,28.296 C20.016,23.616 15.84,23.832 15.84,23.832 C15.84,23.832 11.664,23.616 14.976,28.296 L13.608,32.04 L13.176,30.744 L10.296,21.312 C10.296,21.312 7.128,23.544 3.24,24.552 C0.936,25.128 0.36,27.288 0.288,29.088 C4.248,33.12 9.72,35.64 15.84,35.64 Z" id="Shape"></path>
            </g>
        </g>
    </g>
</svg>