<?xml version="1.0" encoding="UTF-8"?>
<svg width="32px" height="36px" viewBox="0 0 32 36" version="1.1" xmlns="http://www.w3.org/2000/svg" xmlns:xlink="http://www.w3.org/1999/xlink">
    <!-- Generator: Sketch 52.3 (67297) - http://www.bohemiancoding.com/sketch -->
    <title>icon-contacts-cyan</title>
    <desc>Created with Sketch.</desc>
    <g id="Page-1" stroke="none" stroke-width="1" fill="none" fill-rule="evenodd">
        <g id="icon-contacts-cyan" transform="translate(0.000000, -1.000000)" fill="#2DA5B6">
            <path d="M22.975,11.54 C24.631,3.98 20.959,3.69 20.959,3.69 C20.4932459,2.91905977 19.819437,2.29516266 19.015,1.89 C17.7991033,1.1755258 16.3846014,0.873821531 14.983,1.03 C14.4411968,1.07811658 13.9083778,1.19921179 13.399,1.39 C12.785939,1.62556843 12.2052902,1.93807038 11.671,2.32 C11.0233377,2.79346485 10.4207796,3.32572453 9.871,3.91 C8.95786118,4.9160335 8.29219623,6.12135275 7.927,7.43 C7.54439672,8.70702691 7.5950273,10.0747559 8.071,11.32 C7.495,11.25 6.703,11.61 7.423,14.2 C7.999,16.15 8.431,16.65 8.863,16.65 C9.295,19.39 10.735,22.84 15.415,23.2 C20.023,23.06 21.391,19.67 21.895,17.01 C22.183,17.23 22.903,17.08 23.551,14.63 C24.127,12.62 23.767,11.9 22.975,11.54 Z M0.007,29.9 C0.079,28.1 0.655,25.94 2.959,25.36 C5.4680624,24.6613608 7.84987988,23.5676691 10.015,22.12 L12.895,31.55 L13.327,32.85 L14.695,29.11 C11.383,24.43 15.559,24.64 15.559,24.64 C15.559,24.64 19.735,24.43 16.423,29.11 L17.723,32.85 L18.083,31.63 L18.583,30.11 L21.103,22.19 C23.2783834,23.6658496 25.6886694,24.7614341 28.231,25.43 C30.531,26.08 31.111,28.24 31.183,29.97 C27.0328091,34.1051021 21.4175748,36.4340012 15.559,36.45 C9.70360916,36.454314 4.09497976,34.0921405 0.007,29.9 Z" id="Shape"></path>
        </g>
    </g>
</svg>