<?xml version="1.0" encoding="UTF-8"?>
<svg width="36px" height="26px" viewBox="0 0 36 26" version="1.1" xmlns="http://www.w3.org/2000/svg" xmlns:xlink="http://www.w3.org/1999/xlink">
    <!-- Generator: Sketch 52.3 (67297) - http://www.bohemiancoding.com/sketch -->
    <title>icon-messages-cyan</title>
    <desc>Created with Sketch.</desc>
    <g id="Page-1" stroke="none" stroke-width="1" fill="none" fill-rule="evenodd">
        <g id="icon-messages-cyan" transform="translate(-1.000000, -1.000000)" fill="#2DA5B6">
            <path d="M3.667,1 L34.255,1 C34.6639703,1.02248942 35.0640875,1.1279625 35.431,1.31 L20.216,16.69 C19.8847167,17.0257777 19.4326941,17.2147981 18.961,17.2147981 C18.4893059,17.2147981 18.0372833,17.0257777 17.706,16.69 L2.49,1.31 C2.84267178,1.09167752 3.25253981,0.983725868 3.667,1 Z M37,3.67 L37,23.51 C36.9785109,23.9208863 36.8715676,24.3227753 36.686,24.69 L25.235,14.1 L36.686,2.49 C36.907923,2.842383 37.0174346,3.25392355 37,3.67 Z M1.235,2.49 L12.686,14.1 L1.314,24.69 C1.09283362,24.3372877 0.983385607,23.9259862 1,23.51 L1,3.67 C0.994201157,3.26449179 1.07428923,2.8623474 1.235,2.49 Z M23.98,15.35 L35.353,25.94 C35.0097575,26.1037867 34.6332714,26.1859291 34.253,26.18 L3.588,26.18 C3.20861448,26.1775334 2.83393422,26.095785 2.488,25.94 L13.939,15.35 L16.449,17.86 C17.1088135,18.5362914 18.0136593,18.9176443 18.9585,18.9176443 C19.9033407,18.9176443 20.8081865,18.5362914 21.468,17.86 L23.978,15.35 L23.98,15.35 Z" id="Shape"></path>
        </g>
    </g>
</svg>