<?xml version="1.0" encoding="UTF-8"?>
<svg width="31px" height="36px" viewBox="0 0 31 36" version="1.1" xmlns="http://www.w3.org/2000/svg" xmlns:xlink="http://www.w3.org/1999/xlink">
    <!-- Generator: Sketch 52.3 (67297) - http://www.bohemiancoding.com/sketch -->
    <title>Услуги</title>
    <desc>Created with Sketch.</desc>
    <g id="01-Home" stroke="none" stroke-width="1" fill="none" fill-rule="evenodd">
        <g transform="translate(-236.000000, -1073.000000)" fill="#FFFFFF" fill-rule="nonzero" id="Услуги">
            <g transform="translate(236.000000, 1073.000000)">
                <path d="M0.484615385,29.9769231 L6.02307692,26.4461538 C5.95384615,25.9615385 5.95384615,24.8538462 6.23076923,23.6769231 C6.50769231,22.3615385 7.13076923,21.9461538 7.06153846,21.8076923 C6.92307692,21.6 6.85384615,19.8692308 6.71538462,19.5230769 C6.57692308,19.1769231 6.50769231,18.9 6.50769231,18.9 L5.81538462,17.4461538 C5.60769231,16.6846154 5.4,16.7538462 5.81538462,16.4076923 L7.68461538,16.4076923 L9.69230769,18.9 L10.9384615,20.8384615 L13.2230769,20.4230769 L16.4769231,18.6230769 C16.4769231,18.6230769 19.9384615,17.0307692 21.2538462,16.4076923 L24.3,16.4076923 C24.4384615,16.9615385 24.3,17.4461538 23.8153846,17.8615385 C23.4,18.1384615 21.8769231,18.9 21.1846154,19.5230769 C20.4923077,20.1461538 16.1307692,24.6461538 16.1307692,24.6461538 L13.1538462,27 L10.3846154,29.1461538 L5.81538462,35.6538462 C3.6,34.8230769 1.17692308,32.2615385 0.484615385,29.9769231 Z M15.0923077,0.346153846 C15.9230769,0.346153846 16.6153846,1.03846154 16.6153846,1.8 C16.6153846,2.63076923 15.9230769,3.25384615 15.0923077,3.25384615 C14.2615385,3.25384615 13.5692308,2.56153846 13.5692308,1.8 C13.6384615,1.03846154 14.2615385,0.346153846 15.0923077,0.346153846 Z M15.0923077,3.46153846 C20.8384615,3.46153846 25.5461538,7.75384615 26.0307692,13.2923077 L4.15384615,13.2923077 C4.63846154,7.75384615 9.34615385,3.46153846 15.0923077,3.46153846 Z M1.24615385,15.8538462 C0.761538462,15.8538462 0.346153846,15.4384615 0.346153846,14.9538462 C0.346153846,14.4692308 0.761538462,14.0538462 1.24615385,14.0538462 L29.2846154,14.0538462 C29.7692308,14.0538462 30.1846154,14.4692308 30.1846154,14.9538462 C30.1846154,15.4384615 29.7692308,15.8538462 29.2846154,15.8538462 L1.24615385,15.8538462 Z" id="Shape"></path>
            </g>
        </g>
    </g>
</svg>