<?xml version="1.0" encoding="UTF-8"?>
<svg width="35px" height="36px" viewBox="0 0 35 36" version="1.1" xmlns="http://www.w3.org/2000/svg" xmlns:xlink="http://www.w3.org/1999/xlink">
    <!-- Generator: Sketch 52.3 (67297) - http://www.bohemiancoding.com/sketch -->
    <title>icon-building-cyan</title>
    <desc>Created with Sketch.</desc>
    <g id="Page-1" stroke="none" stroke-width="1" fill="none" fill-rule="evenodd">
        <g id="icon-building-cyan" transform="translate(-1.000000, -1.000000)" fill="#2DA5B6">
            <path d="M35.921,34.56 L35.921,35.27 C35.9176969,36.1321438 35.2181499,36.8294558 34.356,36.83 L20.582,36.83 C19.7198501,36.8294558 19.0203031,36.1321438 19.017,35.27 L19.017,34.56 C19.0203031,33.6978562 19.7198501,33.0005442 20.582,33 L34.356,33 C35.2181499,33.0005442 35.9176969,33.6978562 35.921,34.56 Z M35.921,29.4 L35.921,30.1 C35.9188178,30.9642329 35.2202216,31.6650611 34.356,31.67 L20.582,31.67 C19.7177784,31.6650611 19.0191822,30.9642329 19.017,30.1 L19.017,29.4 C19.0191822,28.5357671 19.7177784,27.8349389 20.582,27.83 L34.356,27.83 C34.7752683,27.8188118 35.1806369,27.9807951 35.4767365,28.2778407 C35.7728361,28.5748863 35.9335255,28.9807696 35.921,29.4 Z M35.999,21.65 L35.999,22.35 C35.9968178,23.2142329 35.2982216,23.9150611 34.434,23.92 L20.66,23.92 C19.7957784,23.9150611 19.0971822,23.2142329 19.095,22.35 L19.095,21.65 C19.0971822,20.7857671 19.7957784,20.0849389 20.66,20.08 L21.36,20.08 L25.116,15.94 C25.1634049,15.8391561 25.258238,15.7688188 25.3684996,15.7527222 C25.4787612,15.7366256 25.5897444,15.7769167 25.664,15.86 C25.7634087,15.9093942 25.8321175,16.0045741 25.847704,16.1144783 C25.8632904,16.2243826 25.823755,16.3349135 25.742,16.41 L22.299,20.24 L32.399,20.24 L28.33,15.62 C27.9385397,15.8100687 27.5126527,15.9189216 27.078,15.94 C26.3297022,15.9418673 25.6115438,15.6452965 25.0826034,15.1159807 C24.5536631,14.5866649 24.2576018,13.8682963 24.26,13.12 C24.26,12.8162434 24.5062434,12.57 24.81,12.57 C25.1137566,12.57 25.36,12.8162434 25.36,13.12 C25.3488641,13.5587985 25.5184877,13.9829025 25.8291485,14.2929961 C26.1398093,14.6030896 26.5642226,14.7719378 27.003,14.76 C27.1382124,14.7654134 27.2727214,14.7379626 27.395,14.68 L27.16,14.45 C27.0686938,14.5134649 26.957561,14.5418694 26.847,14.53 C26.7287924,14.5098308 26.6195774,14.454002 26.534,14.37 C26.4588017,14.2982882 26.4162499,14.1989104 26.4162499,14.095 C26.4162499,13.9910896 26.4588017,13.8917118 26.534,13.82 L26.925,13.51 L27.003,13.51 C27.0024542,13.4887942 27.0105689,13.4682807 27.0254741,13.4531869 C27.0403792,13.4380931 27.060789,13.429721 27.082,13.43 L27.469,13.43 L27.469,13.59 L28.017,14.21 C28.2845653,13.8743605 28.4476488,13.4675211 28.486,13.04 C28.4971359,12.6012015 28.3275123,12.1770975 28.0168515,11.8670039 C27.7061907,11.5569104 27.2817774,11.3880622 26.843,11.4 L26.295,11.4 L26.295,9.6 C25.9140619,9.36247954 25.6786503,8.94881698 25.669,8.5 C25.6470752,7.98132199 25.9633651,7.50810048 26.451,7.33 L26.451,4.2 C26.2524143,4.12392197 26.0676339,4.01582371 25.904,3.88 L12.604,8.34 C12.6757437,8.46020647 12.7036579,8.60154422 12.683,8.74 C12.71989,9.77332701 12.2154414,10.7511463 11.352,11.32 L11.352,31.74 L13.465,31.74 C14.3292216,31.7449389 15.0278178,32.4457671 15.03,33.31 L15.03,35.34 C15.0311057,36.2055929 14.330592,36.9083446 13.465,36.91 L5.952,36.91 C5.08640798,36.9083446 4.38589434,36.2055929 4.387,35.34 L4.387,33.39 C4.38918217,32.5257671 5.08777845,31.8249389 5.952,31.82 L8.143,31.82 L8.143,11.63 C7.57191196,11.3360821 7.10691793,10.871088 6.813,10.3 L1.961,11.94 C1.89908556,12.0013029 1.81245779,12.0307932 1.726,12.02 C1.39649505,12.0216662 1.10802936,11.7991355 1.026,11.48 C0.949859589,11.2827347 0.956739282,11.0630606 1.04507417,10.8709464 C1.13340906,10.6788321 1.2956888,10.5306115 1.495,10.46 L6.504,8.81 C6.48341457,7.59632807 7.1928971,6.48874702 8.304,6 L8.304,4.98 C8.304,4.11567437 9.00467437,3.415 9.869,3.415 C10.7333256,3.415 11.434,4.11567437 11.434,4.98 L11.434,6.15 C11.7054387,6.34580634 11.9420634,6.58581134 12.134,6.86 L25.434,2.4 C25.5019067,1.59068527 26.1870103,0.973435411 26.999,0.99 C27.8613137,0.990541693 28.5611481,1.68769473 28.565,2.55 C28.6015173,3.28737129 28.1086087,3.94654206 27.391,4.12 L27.391,7.25 C27.8401786,7.47432591 28.1375064,7.91917695 28.173,8.42 C28.2263106,8.86318677 28.0108842,9.29561208 27.625,9.52 L27.625,10.14 C28.9117247,10.4199836 29.8262971,11.5631991 29.817,12.88 C29.8473824,13.6541554 29.5318672,14.4017176 28.956,14.92 L33.417,20.01 L34.356,20.01 C35.2497688,20.0394436 35.967923,20.7562865 35.999,21.65 Z" id="Shape"></path>
        </g>
    </g>
</svg>