<?xml version="1.0" encoding="UTF-8"?>
<svg width="19px" height="18px" viewBox="0 0 19 18" version="1.1" xmlns="http://www.w3.org/2000/svg" xmlns:xlink="http://www.w3.org/1999/xlink">
    <!-- Generator: Sketch 48.2 (47327) - http://www.bohemiancoding.com/sketch -->
    <title>star-off</title>
    <desc>Created with Sketch.</desc>
    <defs></defs>
    <g id="01-Home" stroke="none" stroke-width="1" fill="none" fill-rule="evenodd" transform="translate(-60.000000, -222.000000)">
        <g id="VIP" transform="translate(-77.000000, 121.000000)" fill="#FFFFFF" fill-rule="nonzero">
            <g id="VIP-Item" transform="translate(0.000000, 35.000000)">
                <g id="Overlay" transform="translate(0.000000, 50.000000)">
                    <g id="star-off" transform="translate(137.000000, 16.000000)">
                        <path d="M18.7363658,6.77018214 C18.6747525,6.58149149 18.5130176,6.44671245 18.3166253,6.41590581 L12.4633642,5.5841266 L9.82939675,0.289235816 C9.74082767,0.112097652 9.55983867,0.000423591263 9.36344636,0.000423591263 C9.16705405,0.000423591263 8.98606505,0.112097652 8.89749597,0.293086646 L6.29818595,5.60338075 L0.444924859,6.47366826 C0.248532547,6.50447489 0.0867977006,6.63925393 0.025184426,6.82794459 C-0.0364288486,7.01663524 0.0174827667,7.22458004 0.159963464,7.35935908 L4.40742858,11.475896 L3.42546702,17.3060521 C3.39080955,17.5024444 3.47167698,17.6988367 3.63341182,17.8143616 C3.7219809,17.8798257 3.82980413,17.9144832 3.93762736,17.9144832 C4.02234562,17.9144832 4.10321304,17.895229 4.18022963,17.8528699 L9.40580549,15.0841234 L14.6467847,17.8220633 C14.7238013,17.8605716 14.8046687,17.8798257 14.8855361,17.8798257 C15.1704975,17.8798257 15.4053981,17.6449251 15.4053981,17.3599637 C15.4053981,17.3176046 15.4015473,17.2790963 15.3899948,17.240588 L14.3772266,11.4450894 L18.5977359,7.30544746 C18.7479183,7.1668176 18.797979,6.95887279 18.7363658,6.77018214 Z M13.4607291,10.8944207 C13.3375026,11.0137964 13.283591,11.1870838 13.3143976,11.3565203 L14.1962376,16.4126596 L9.64455693,14.0366977 C9.49437457,13.9558303 9.31338558,13.9596811 9.15935239,14.0366977 L4.62307504,16.4396154 L5.4741084,11.3757744 C5.50106421,11.2063379 5.44715259,11.0369014 5.32392604,10.9175257 L1.64253288,7.34395576 L6.72177721,6.58919315 C6.89121372,6.56223734 7.03754524,6.45826494 7.11071101,6.30423175 L9.36729719,1.69478864 L11.65469,6.29267926 C11.7317066,6.44671245 11.8780381,6.55068485 12.0474746,6.57764066 L17.1305698,7.30159663 L13.4607291,10.8944207 Z" id="Shape"></path>
                    </g>
                </g>
            </g>
        </g>
    </g>
</svg>