<?xml version="1.0" encoding="UTF-8"?>
<svg width="36px" height="29px" viewBox="0 0 36 29" version="1.1" xmlns="http://www.w3.org/2000/svg" xmlns:xlink="http://www.w3.org/1999/xlink">
    <!-- Generator: Sketch 52.3 (67297) - http://www.bohemiancoding.com/sketch -->
    <title>icon-transport-cyan</title>
    <desc>Created with Sketch.</desc>
    <g id="Page-1" stroke="none" stroke-width="1" fill="none" fill-rule="evenodd">
        <g id="icon-transport-cyan" fill="#2DA5B6">
            <path d="M33.419,12.24 L32.699,12.24 L33.491,13.75 C33.7617624,14.6651307 33.9294686,15.6076396 33.991,16.56 L33.991,25.99 C34.0002203,26.7755268 33.6921032,27.5315453 33.1364254,28.0868467 C32.5807476,28.642148 31.8245204,28.9497526 31.039,28.94 C29.4112573,28.9356099 28.0924932,27.6177393 28.087,25.99 L28.087,24.55 L7.787,24.55 L7.787,25.99 C7.79622026,26.7755268 7.48810322,27.5315453 6.93242539,28.0868467 C6.37674756,28.642148 5.62052042,28.9497526 4.835,28.94 C3.20725732,28.9356099 1.88849323,27.6177393 1.883,25.99 L1.883,16.56 C1.90924062,15.6037051 2.07775574,14.6566501 2.383,13.75 L2.883,12.17 L2.163,12.17 C0.97006494,12.17 0.003,11.2029351 0.003,10.01 C0.003,8.81706494 0.97006494,7.85 2.163,7.85 L4.463,7.85 L6.335,2.74 C6.67934896,1.8861369 7.3546131,1.20798702 8.207,0.86 C8.207,0.86 10.799,2.27373675e-13 17.707,2.27373675e-13 C24.615,2.27373675e-13 27.207,0.94 27.207,0.94 C28.0586107,1.28392174 28.7341681,1.95875737 29.079,2.81 L30.951,7.92 L33.251,7.92 C33.8268294,7.91015459 34.3819728,8.13456241 34.7892052,8.54179481 C35.1964376,8.9490272 35.4208454,9.50417059 35.411,10.08 C35.3956024,11.2028807 34.536966,12.1339323 33.419,12.24 Z M9.371,3.53 L25.999,3.53 L28.159,10.01 L7.207,10.01 L9.371,3.53 Z M9.011,16.56 C9.011,15.3670649 8.04393506,14.4 6.851,14.4 C5.65806494,14.4 4.691,15.3670649 4.691,16.56 C4.691,17.7529351 5.65806494,18.72 6.851,18.72 C7.42614131,18.7287498 7.98023912,18.5038581 8.38659538,18.096748 C8.79295163,17.6896378 9.01681584,17.1351241 9.007,16.56 L9.011,16.56 Z M30.755,16.56 C30.755,15.3670649 29.7879351,14.4 28.595,14.4 C27.4020649,14.4 26.435,15.3670649 26.435,16.56 C26.435,17.7529351 27.4020649,18.72 28.595,18.72 C29.1701413,18.7287498 29.7242391,18.5038581 30.1305954,18.096748 C30.5369516,17.6896378 30.7608158,17.1351241 30.751,16.56 L30.755,16.56 Z" id="Shape"></path>
        </g>
    </g>
</svg>