<?xml version="1.0" encoding="UTF-8"?>
<svg width="25px" height="16px" viewBox="0 0 25 16" version="1.1" xmlns="http://www.w3.org/2000/svg" xmlns:xlink="http://www.w3.org/1999/xlink">
    <!-- Generator: Sketch 52.3 (67297) - http://www.bohemiancoding.com/sketch -->
    <title>icon-eye</title>
    <desc>Created with Sketch.</desc>
    <g id="Page-1" stroke="none" stroke-width="1" fill="none" fill-rule="evenodd" fill-opacity="0" stroke-linejoin="round">
        <g id="icon-eye" transform="translate(1.000000, 0.000000)" fill="#000000" stroke="#B0B0B0">
            <path d="M23.353,7.542 C23.147,7.255 18.253,0.5 11.999,0.5 C5.745,0.5 0.851,7.255 0.645,7.542 C0.451123096,7.81655692 0.451123096,8.18344308 0.645,8.458 C0.851,8.745 5.745,15.5 11.999,15.5 C18.253,15.5 23.147,8.745 23.353,8.458 C23.5480808,8.18382649 23.5480808,7.81617351 23.353,7.542 Z M12,11.1 C10.7404272,11.1272294 9.58965485,10.3894472 9.08865231,9.23347945 C8.58764977,8.07751166 8.83607865,6.73330835 9.71715443,5.83276931 C10.5982302,4.93223028 11.9366854,4.65449467 13.1033224,5.1301239 C14.2699594,5.60575313 15.0327057,6.74013295 15.033,8 C15.0485617,9.69239943 13.6923355,11.0785851 12,11.1 Z" id="Forma_1"></path>
        </g>
    </g>
</svg>