<?xml version="1.0" encoding="UTF-8"?>
<svg width="40px" height="40px" viewBox="0 0 40 40" version="1.1" xmlns="http://www.w3.org/2000/svg" xmlns:xlink="http://www.w3.org/1999/xlink">
    <!-- Generator: Sketch 52.3 (67297) - http://www.bohemiancoding.com/sketch -->
    <title>icon-link-mobile</title>
    <desc>Created with Sketch.</desc>
    <g id="Page-1" stroke="none" stroke-width="1" fill="none" fill-rule="evenodd">
        <g id="icon-link-mobile">
            <circle id="XMLID_11_" fill="#E00948" cx="19.8862681" cy="19.8862681" r="19.8862681"></circle>
            <g id="Shape" transform="translate(8.444137, 8.444137)" fill="#FFFFFF">
                <path d="M13.265877,8.47449796 C13.0083317,8.21542417 12.7227646,7.98577322 12.4144829,7.78974837 C11.5979462,7.26688805 10.6486883,6.98904819 9.67909341,6.98904819 C8.33332779,6.98654321 7.04224705,7.52124909 6.09230984,8.47449796 L1.4838364,13.0865803 C0.535512561,14.0367298 0.00250497432,15.3240743 0.00165583048,16.6664858 C-0.000127371576,19.4678113 2.26929445,21.7401626 5.07061997,21.7419458 C6.41430518,21.7466161 7.70419713,21.2144577 8.65379468,20.2637563 L12.4579591,16.4595919 C12.5270794,16.391066 12.565673,16.2975752 12.565121,16.2002633 C12.5639747,16.0001626 12.4008117,15.8389102 12.2007109,15.8400565 L12.0558046,15.8400565 C11.2610059,15.8428587 10.4732976,15.6902251 9.73708993,15.390817 C9.6014392,15.3349858 9.44553639,15.366489 9.34219559,15.4705091 L6.60680609,18.2095075 C5.75740751,19.0589061 4.38026603,19.0589061 3.53086745,18.2095075 C2.68146887,17.3601089 2.68146887,15.9829674 3.53086745,15.1335688 L8.15747011,10.5106175 C9.00618937,9.66295967 10.3810806,9.66295967 11.2297999,10.5106175 C11.8017832,11.0489322 12.6939786,11.0489322 13.2659194,10.5106175 C13.5120013,10.2643233 13.6611959,9.9376577 13.6862032,9.59035787 C13.712654,9.17533882 13.5595958,8.76889613 13.265877,8.47449796 Z" id="Path"></path>
                <path d="M20.2546704,1.48570452 C18.2737452,-0.495220686 15.0620285,-0.495220686 13.0811033,1.48570452 L9.28054775,5.28260873 C9.17618797,5.38747799 9.14608582,5.54520646 9.20446446,5.68115439 C9.26216378,5.81748443 9.39700782,5.9049887 9.54501359,5.90214407 L9.67905095,5.90214407 C10.4729155,5.90070053 11.2593501,6.05452293 11.9941567,6.35503494 C12.1298074,6.41086615 12.2857102,6.37936291 12.389051,6.27534279 L15.1171804,3.55082233 C15.966579,2.70142375 17.3437204,2.70142375 18.193119,3.55082233 C19.0425176,4.40022091 19.0425176,5.77736239 18.193119,6.62676097 L14.794718,10.0215107 L14.7657197,10.0541178 L13.5773854,11.2352344 C12.7286661,12.0828922 11.3537749,12.0828922 10.5050556,11.2352344 C9.93307233,10.6969197 9.0408769,10.6969197 8.46893607,11.2352344 C8.22128327,11.4833967 8.07196132,11.812907 8.04865232,12.1627118 C8.02215904,12.5777308 8.17521721,12.9841735 8.46893607,13.2786141 C8.88828575,13.699747 9.37892106,14.0431832 9.9181274,14.2930438 C9.99421068,14.3292598 10.070294,14.3582581 10.1463773,14.3908652 C10.2224605,14.4234723 10.3021527,14.4488193 10.378236,14.4778175 C10.4543193,14.5068158 10.5340114,14.5321627 10.6100947,14.5539008 L10.8238667,14.6118549 C10.9687731,14.6480709 11.1137219,14.6770691 11.2622372,14.7024161 C11.4411518,14.7289943 11.6213401,14.7459347 11.8020804,14.7531524 L12.0556772,14.7531524 L12.0774153,14.7531524 L12.2947961,14.7278055 C12.3744882,14.7241966 12.4578317,14.7060674 12.5520442,14.7060674 L12.6752125,14.7060674 L12.9252005,14.6698514 L13.0411511,14.6481133 L13.2512717,14.6046372 L13.291139,14.6046372 C14.1810842,14.3811 14.9937149,13.9203121 15.6424607,13.271354 L20.254543,8.65927166 C22.2355956,6.67834645 22.2355956,3.46662972 20.2546704,1.48570452 Z" id="Path"></path>
            </g>
        </g>
    </g>
</svg>