<svg xmlns="http://www.w3.org/2000/svg" width="23.875" height="23.938" viewBox="0 0 23.875 23.938">
  <metadata><?xpacket begin="﻿" id="W5M0MpCehiHzreSzNTczkc9d"?>
<x:xmpmeta xmlns:x="adobe:ns:meta/" x:xmptk="Adobe XMP Core 5.6-c138 79.159824, 2016/09/14-01:09:01        ">
   <rdf:RDF xmlns:rdf="http://www.w3.org/1999/02/22-rdf-syntax-ns#">
      <rdf:Description rdf:about=""/>
   </rdf:RDF>
</x:xmpmeta>
                                                                                                    
                                                                                                    
                                                                                                    
                                                                                                    
                                                                                                    
                                                                                                    
                                                                                                    
                                                                                                    
                                                                                                    
                                                                                                    
                                                                                                    
                                                                                                    
                                                                                                    
                                                                                                    
                                                                                                    
                                                                                                    
                                                                                                    
                                                                                                    
                                                                                                    
                                                                                                    
                           
<?xpacket end="w"?></metadata>
<defs>
    <style>
      .cls-1 {
        fill: #fff;
        fill-rule: evenodd;
      }
    </style>
  </defs>
  <path id="Фигура_4" data-name="Фигура 4" class="cls-1" d="M782.758,38.931a0.991,0.991,0,0,1-.482-0.125L776,35.328l-6.276,3.478a1,1,0,0,1-1.058-.059,1.008,1.008,0,0,1-.41-0.983l1.209-7.429-5.113-5.253a1.007,1.007,0,0,1,.563-1.7l7.029-1.076,3.152-6.731a1,1,0,0,1,1.808,0l3.152,6.732,7.028,1.076a1.007,1.007,0,0,1,.564,1.7l-5.113,5.253,1.21,7.429A1,1,0,0,1,782.758,38.931ZM776,33.176a0.991,0.991,0,0,1,.482.125l4.958,2.748-0.959-5.892a1.006,1.006,0,0,1,.272-0.865l4.1-4.215-5.626-.862a1,1,0,0,1-.754-0.565L776,18.365l-2.474,5.285a1,1,0,0,1-.754.565l-5.628.862,4.1,4.215a1.01,1.01,0,0,1,.273.865l-0.96,5.891,4.958-2.747A0.991,0.991,0,0,1,776,33.176Z" transform="translate(-764.063 -15)"/>
</svg>
