<?xml version="1.0" encoding="UTF-8"?>
<svg width="40px" height="40px" viewBox="0 0 40 40" version="1.1" xmlns="http://www.w3.org/2000/svg" xmlns:xlink="http://www.w3.org/1999/xlink">
    <!-- Generator: Sketch 52.3 (67297) - http://www.bohemiancoding.com/sketch -->
    <title>icon-twitter-mobile</title>
    <desc>Created with Sketch.</desc>
    <g id="Page-1" stroke="none" stroke-width="1" fill="none" fill-rule="evenodd">
        <g id="icon-twitter-mobile">
            <path d="M19.9489796,0 C8.93142857,0 0,8.93142857 0,19.9489796 C0,30.9665306 8.93142857,39.8979592 19.9489796,39.8979592 C30.9665306,39.8979592 39.8979592,30.9665306 39.8979592,19.9489796 C39.8979592,8.93142857 30.9665306,0 19.9489796,0 Z" id="Shape" fill="#08A0E9"></path>
            <path d="M32.0122449,14.6289796 C32.0216327,14.8644898 32.0265306,15.1004082 32.0265306,15.337551 C32.0265306,23.8591837 25.5420408,32.6734694 14.6906122,32.6734694 C11.3734694,32.6734694 8.14367347,31.7269388 5.35061224,29.9355102 C5.2922449,29.8983673 5.26816327,29.8261224 5.29142857,29.7612245 C5.31469388,29.6967347 5.38040816,29.6567347 5.4477551,29.6644898 C5.91632653,29.7204082 6.3955102,29.7481633 6.87102041,29.7481633 C9.45183673,29.7481633 11.895102,28.9502041 13.9616327,27.4363265 C11.4844898,27.2273469 9.3555102,25.5510204 8.58979592,23.1595918 C8.57387755,23.1097959 8.58530612,23.0555102 8.61959184,23.0163265 C8.65428571,22.9771429 8.70734694,22.96 8.75795918,22.9693878 C9.4444898,23.0995918 10.142449,23.1081633 10.815102,22.9987755 C8.26040816,22.204898 6.46489796,19.8118367 6.46489796,17.0873469 L6.46571429,17.0081633 C6.46693878,16.9563265 6.49510204,16.9089796 6.54,16.8832653 C6.5844898,16.8571429 6.64,16.8567347 6.68489796,16.8820408 C7.35102041,17.2518367 8.08816327,17.4893878 8.8444898,17.5804082 C7.37632653,16.4102041 6.51428571,14.6363265 6.51428571,12.7387755 C6.51428571,11.6440816 6.80408163,10.5681633 7.35265306,9.62734694 C7.37714286,9.58530612 7.42040816,9.55836735 7.46857143,9.55469388 C7.51714286,9.54979592 7.56408163,9.57102041 7.59469388,9.60857143 C10.5995918,13.2942857 15.0195918,15.5636735 19.7461224,15.8555102 C19.6673469,15.4587755 19.6273469,15.0497959 19.6273469,14.6371429 C19.6273469,11.2244898 22.4036735,8.44857143 25.8159184,8.44857143 C27.4934694,8.44857143 29.1146939,9.13795918 30.2767347,10.3428571 C31.5865306,10.0759184 32.8342857,9.59428571 33.9869388,8.91102041 C34.0395918,8.87959184 34.1057143,8.8844898 34.1542857,8.92244898 C34.2016327,8.96081633 34.2212245,9.0244898 34.202449,9.08326531 C33.8118367,10.304898 33.0502041,11.3706122 32.0269388,12.14 C32.9906122,11.9722449 33.9257143,11.6889796 34.815102,11.2942857 C34.8746939,11.2669388 34.9453061,11.2840816 34.9881633,11.3342857 C35.0306122,11.384898 35.0342857,11.4571429 34.997551,11.5118367 C34.1873469,12.7244898 33.1832653,13.7730612 32.0122449,14.6289796 Z" id="Path" fill="#FFFFFF"></path>
        </g>
    </g>
</svg>