<?xml version="1.0" encoding="UTF-8"?>
<svg width="24px" height="24px" viewBox="0 0 24 24" version="1.1" xmlns="http://www.w3.org/2000/svg" xmlns:xlink="http://www.w3.org/1999/xlink">
    <!-- Generator: Sketch 52.3 (67297) - http://www.bohemiancoding.com/sketch -->
    <title>icon-exit</title>
    <desc>Created with Sketch.</desc>
    <g id="Page-1" stroke="none" stroke-width="1" fill="none" fill-rule="evenodd">
        <g id="icon-exit" fill="#D6D6D6">
            <path d="M11.45,-2.10544253e-16 C13.8798852,-0.000310530677 16.2419844,0.801115963 18.17,2.28 C18.3994852,2.45429353 18.4599551,2.77392047 18.31,3.02 L16.47,6.16 C16.3919341,6.28722833 16.2656698,6.37741709 16.12,6.41 C15.9735717,6.44179188 15.8205443,6.40900029 15.7,6.32 C14.5791685,5.44898038 13.1994828,4.97735309 11.78,4.98 C8.03314285,5.15892963 5.08723723,8.24887293 5.08723723,12 C5.08723723,15.7511271 8.03314285,18.8410704 11.78,19.02 C13.1994828,19.0226469 14.5791685,18.5510196 15.7,17.68 C15.8205443,17.5909997 15.9735717,17.5582081 16.12,17.59 C16.2656698,17.6225829 16.3919341,17.7127717 16.47,17.84 L18.31,20.98 C18.4599551,21.2260795 18.3994852,21.5457065 18.17,21.72 C16.2419844,23.198884 13.8798852,24.0003105 11.45,24 C5.14,24 -2.27373675e-13,18.62 -2.27373675e-13,12 C-2.27373675e-13,5.38 5.14,-2.10544253e-16 11.45,-2.10544253e-16 Z M16.66,16.5 C16.5693474,16.3178865 16.5807313,16.1015914 16.69,15.93 L17.94,13.97 L10.39,13.97 C9.33649156,13.9225162 8.50679189,13.054578 8.50679189,12 C8.50679189,10.945422 9.33649156,10.0774838 10.39,10.03 L17.94,10.03 L16.69,8.07 C16.5807313,7.89840863 16.5693474,7.68211354 16.66,7.5 C16.7524644,7.32523528 16.9323279,7.21425569 17.13,7.21 L20.73,7.21 C20.9072494,7.21262536 21.0718297,7.30239644 21.17,7.45 L23.86,11.69 C23.9799727,11.8792552 23.9799727,12.1207448 23.86,12.31 L21.17,16.55 C21.0718297,16.6976036 20.9072494,16.7873746 20.73,16.79 L17.13,16.79 C16.9315635,16.7883644 16.7504655,16.6766231 16.66,16.5 Z" id="Shape"></path>
        </g>
    </g>
</svg>