<svg xmlns="http://www.w3.org/2000/svg" width="23.875" height="24" viewBox="0 0 23.875 24">
  <metadata><?xpacket begin="﻿" id="W5M0MpCehiHzreSzNTczkc9d"?>
<x:xmpmeta xmlns:x="adobe:ns:meta/" x:xmptk="Adobe XMP Core 5.6-c138 79.159824, 2016/09/14-01:09:01        ">
   <rdf:RDF xmlns:rdf="http://www.w3.org/1999/02/22-rdf-syntax-ns#">
      <rdf:Description rdf:about=""/>
   </rdf:RDF>
</x:xmpmeta>
                                                                                                    
                                                                                                    
                                                                                                    
                                                                                                    
                                                                                                    
                                                                                                    
                                                                                                    
                                                                                                    
                                                                                                    
                                                                                                    
                                                                                                    
                                                                                                    
                                                                                                    
                                                                                                    
                                                                                                    
                                                                                                    
                                                                                                    
                                                                                                    
                                                                                                    
                                                                                                    
                           
<?xpacket end="w"?></metadata>
<defs>
    <style>
      .cls-1 {
        fill: #fff;
        fill-rule: evenodd;
      }
    </style>
  </defs>
  <path id="Фигура_2_копия" data-name="Фигура 2 копия" class="cls-1" d="M867.042,39h-23.5l-0.084-.91c-0.02-.22-0.46-5.4,2.09-8.22a5.4,5.4,0,0,1,4.184-1.775H850.2l0.3,0.358c1.3,1.56,2.661,2.64,4.87,2.64,2.149,0,3.318-1,4.687-2.669l0.3-.363h0.467a5.88,5.88,0,0,1,4.738,2.021c2.444,2.906,1.657,7.869,1.622,8.08ZM845.256,37.1h20.107c0.094-1.4.077-4.153-1.282-5.8a3.777,3.777,0,0,0-2.8-1.335,7.45,7.45,0,0,1-6,3.07,7.669,7.669,0,0,1-6.093-3.029,3.348,3.348,0,0,0-2.3,1.133C845.453,32.753,845.255,35.624,845.256,37.1Zm10.3-8.12c-3.494,0-5.945-5.443-5.945-8.388a5.956,5.956,0,0,1,11.889,0C861.5,23.541,859.046,28.983,855.552,28.983ZM855.505,16.8a3.976,3.976,0,0,0-4.145,3.771c0,2.343,2.13,6.7,4.145,6.7s4.145-4.357,4.145-6.7A3.976,3.976,0,0,0,855.505,16.8Z" transform="translate(-843.438 -15)"/>
</svg>
