<?xml version="1.0" encoding="UTF-8"?>
<svg width="35px" height="32px" viewBox="0 0 35 32" version="1.1" xmlns="http://www.w3.org/2000/svg" xmlns:xlink="http://www.w3.org/1999/xlink">
    <!-- Generator: Sketch 52.3 (67297) - http://www.bohemiancoding.com/sketch -->
    <title>icon-jobs-cyan</title>
    <desc>Created with Sketch.</desc>
    <g id="Page-1" stroke="none" stroke-width="1" fill="none" fill-rule="evenodd">
        <g id="icon-jobs-cyan" fill="#2DA5B6">
            <path d="M12.445,5.84 L10.175,5.84 L10.175,4.51 C10.1939877,2.57309913 11.7600887,1.00788747 13.697,0.99 L20.975,0.99 C22.9121348,1.00735464 24.478545,2.57287536 24.497,4.51 L24.497,5.84 L22.227,5.84 L22.227,4.51 C22.2305238,4.17706375 22.0996837,3.8567646 21.8640609,3.62151821 C21.6284381,3.38627181 21.3079302,3.2559439 20.975,3.26 L13.697,3.26 C13.3639874,3.25566711 13.043318,3.38590597 12.8076344,3.62121306 C12.5719509,3.85652015 12.4411995,4.17698088 12.445,4.51 L12.445,5.84 Z M20.662,19.38 L20.662,16.48 C20.666524,16.3540158 20.6184606,16.2318228 20.5293189,16.1426811 C20.4401772,16.0535394 20.3179842,16.005476 20.192,16.01 L14.401,16.01 C14.2749304,16.0051731 14.1525589,16.053139 14.063349,16.142349 C13.974139,16.2315589 13.9261731,16.3539304 13.931,16.48 L13.931,19.38 C13.926476,19.5059842 13.9745394,19.6281772 14.0636811,19.7173189 C14.1528228,19.8064606 14.2750158,19.854524 14.401,19.85 L20.192,19.85 C20.3180696,19.8548269 20.4404411,19.806861 20.529651,19.717651 C20.618861,19.6284411 20.6668269,19.5060696 20.662,19.38 Z M21.914,19.46 L21.914,18.52 C26.2225947,18.2168368 30.4932802,17.5104127 34.67,16.41 L34.67,28.22 C34.6718594,29.0097008 34.3594545,29.7676945 33.8017072,30.326755 C33.2439599,30.8858156 32.486703,31.2000022 31.697,31.2 L2.975,31.2 C2.18512378,31.2002679 1.42760963,30.8861985 0.869645897,30.3271091 C0.311682159,29.7680197 -0.000859828082,29.0098741 0.001,28.22 L0.000991746925,16.33 C4.16803004,17.4751249 8.44318095,18.1822877 12.757,18.44 L12.757,19.38 C12.7630204,20.2848005 13.4961875,21.0161837 14.401,21.02 L20.192,21.02 C20.629699,21.0515599 21.0612651,20.9027489 21.3864892,20.6081208 C21.7117133,20.3134926 21.9023017,19.8986794 21.914,19.46 Z M12.836,16.48 L12.836,17.03 C8.50142818,16.7267505 4.20453056,16.0203654 0.001,14.92 L0.001,10.07 C-0.000859828082,9.28012593 0.311682159,8.52198033 0.869645897,7.9628909 C1.42760963,7.40380148 2.18512378,7.08973213 2.975,7.09 L31.775,7.09 C32.5647945,7.08999839 33.3221537,7.40415313 33.8800597,7.96318468 C34.4379657,8.52221623 34.7505934,9.2802071 34.749,10.07 L34.749,14.92 C30.5454694,16.0203654 26.2485718,16.7267505 21.914,17.03 L21.914,16.48 C21.9079796,15.5751995 21.1748125,14.8438163 20.27,14.84 L14.475,14.84 C14.0369074,14.8291779 13.61355,14.9985191 13.3037718,15.3084863 C12.9939936,15.6184535 12.8249107,16.0419141 12.836,16.48 Z" id="Shape"></path>
        </g>
    </g>
</svg>