<?xml version="1.0" encoding="UTF-8"?>
<svg width="36px" height="36px" viewBox="0 0 36 36" version="1.1" xmlns="http://www.w3.org/2000/svg" xmlns:xlink="http://www.w3.org/1999/xlink">
    <!-- Generator: Sketch 52.3 (67297) - http://www.bohemiancoding.com/sketch -->
    <title>инструменты</title>
    <desc>Created with Sketch.</desc>
    <g id="01-Home" stroke="none" stroke-width="1" fill="none" fill-rule="evenodd">
        <g transform="translate(-527.000000, -997.000000)" fill="#FFFFFF" fill-rule="nonzero" id="инструменты">
            <g transform="translate(527.000000, 997.000000)">
                <path d="M28.8782609,7.12173913 C27.9391304,6.1826087 27.9391304,4.69565217 28.8782609,3.67826087 L31.0695652,1.48695652 C31.3043478,1.33043478 31.1478261,0.860869565 30.8347826,0.782608696 C28.6434783,0.156521739 26.2956522,0.782608696 24.573913,2.42608696 C22.773913,4.22608696 22.3826087,6.88695652 23.0869565,9 C23.1652174,9.15652174 23.1652174,9.39130435 23.0086957,9.54782609 L9.54782609,23.0869565 C9.39130435,23.2434783 9.23478261,23.2434783 9,23.1652174 C6.80869565,22.3826087 4.14782609,22.773913 2.42608696,24.6521739 C0.704347826,26.373913 0.234782609,28.7217391 0.782608696,30.9130435 C0.860869565,31.3043478 1.33043478,31.3826087 1.56521739,31.1478261 L3.75652174,28.9565217 C4.69565217,28.0173913 6.1826087,28.0173913 7.2,28.9565217 C8.13913043,29.8956522 8.13913043,31.3826087 7.2,32.4 L5.00869565,34.5913043 C4.77391304,34.826087 4.85217391,35.2956522 5.24347826,35.373913 C7.35652174,36 9.7826087,35.4521739 11.426087,33.7304348 C13.226087,31.9304348 13.6173913,29.2695652 12.9130435,27.1565217 C12.8347826,27 12.8347826,26.7652174 12.9913043,26.6086957 L26.5304348,13.0695652 C26.6869565,12.9130435 26.8434783,12.9130435 27.0782609,12.9913043 C29.2695652,13.773913 31.9304348,13.3826087 33.6521739,11.5043478 C35.2956522,9.86086957 35.8434783,7.43478261 35.2956522,5.32173913 C35.2173913,4.93043478 34.7478261,4.85217391 34.5130435,5.08695652 L32.3217391,7.2 C31.3043478,8.06086957 29.8173913,8.06086957 28.8782609,7.12173913 Z" id="Shape"></path>
                <g id="Group">
                    <path d="M12.8347826,16.9826087 L16.9826087,12.8347826 C17.2173913,12.6 17.2173913,12.1304348 16.9826087,11.8956522 L6.80869565,1.72173913 C5.47826087,0.313043478 3.05217391,0.156521739 1.64347826,1.48695652 C0.156521739,2.89565217 0.156521739,5.16521739 1.56521739,6.57391304 L11.8956522,16.9043478 C12.1304348,17.2956522 12.6,17.2956522 12.8347826,16.9826087 Z" id="Shape"></path>
                    <path d="M33.6521739,30.6782609 C33.573913,30.6 33.4173913,30.4434783 33.3391304,30.4434783 L31.5391304,29.5043478 C31.4608696,29.426087 31.3826087,29.426087 31.3043478,29.3478261 L22.5391304,20.5043478 C22.3043478,20.2695652 21.8347826,20.2695652 21.6,20.5043478 L20.5043478,21.6 C20.2695652,21.8347826 20.2695652,22.3043478 20.5043478,22.5391304 L29.426087,31.3043478 C29.5043478,31.3826087 29.5043478,31.4608696 29.5826087,31.5391304 L30.5217391,33.3391304 C30.6,33.4173913 30.6782609,33.573913 30.7565217,33.6521739 L33.1043478,35.2956522 C33.4173913,35.5304348 33.8086957,35.4521739 34.0434783,35.2173913 L35.1391304,34.1217391 C35.373913,33.8869565 35.4521739,33.4173913 35.2173913,33.1826087 L33.6521739,30.6782609 Z" id="Shape"></path>
                </g>
            </g>
        </g>
    </g>
</svg>