<?xml version="1.0" encoding="UTF-8"?>
<svg width="24px" height="24px" viewBox="0 0 24 24" version="1.1" xmlns="http://www.w3.org/2000/svg" xmlns:xlink="http://www.w3.org/1999/xlink">
    <!-- Generator: Sketch 52.3 (67297) - http://www.bohemiancoding.com/sketch -->
    <title>icon-settings</title>
    <desc>Created with Sketch.</desc>
    <g id="Page-1" stroke="none" stroke-width="1" fill="none" fill-rule="evenodd">
        <g id="icon-settings" fill="#D6D6D6">
            <path d="M23.88,10.668 C23.7917764,10.3160548 23.4727884,10.0712211 23.11,10.077 C22.0096158,10.0889869 21.0163294,9.41966073 20.6143048,8.39527542 C20.2122802,7.37089012 20.4851868,6.20464082 21.3,5.465 C21.551807,5.2278797 21.5821152,4.83820313 21.37,4.565 C20.812917,3.85379219 20.1753356,3.20949945 19.47,2.645 C19.1948197,2.42516046 18.7960456,2.45758824 18.56,2.719 C17.7945692,3.52608823 16.6177387,3.79146746 15.58,3.391 C14.5401813,2.95645687 13.8898964,1.91078272 13.96,0.786 C13.9787645,0.433567242 13.7205216,0.127177386 13.37,0.086 C12.4764995,-0.0183256376 11.5740314,-0.0206740677 10.68,0.079 C10.3318055,0.116397645 10.0707016,0.414926432 10.08,0.765 C10.120106,1.87692526 9.46672001,2.8972433 8.44,3.326 C7.40679028,3.71349463 6.24204533,3.44709857 5.48,2.649 C5.24220392,2.39165587 4.84718901,2.35866562 4.57,2.573 C3.85523759,3.13695018 3.2076556,3.78117683 2.64,4.493 C2.41941223,4.7679645 2.45003382,5.16692013 2.71,5.405 C3.54086597,6.16272082 3.80866446,7.35942033 3.38,8.399 C2.91671681,9.41654496 1.88749394,10.0561616 0.77,10.021 C0.418183248,9.99728693 0.111800984,10.2588219 0.08,10.61 C-0.0249974149,11.5166369 -0.0249974149,12.4323631 0.08,13.339 C0.169772853,13.6940466 0.493922899,13.939237 0.86,13.929 C1.94286489,13.9176112 2.92252522,14.5696604 3.33,15.573 C3.73845023,16.6059644 3.47259233,17.7836752 2.66,18.541 C2.40507926,18.7754057 2.3704215,19.1653055 2.58,19.441 C3.13971876,20.15018 3.77701503,20.7945201 4.48,21.362 C4.75460886,21.5831192 5.15415231,21.551068 5.39,21.289 C6.15562049,20.4822992 7.33200101,20.2166266 8.37,20.616 C9.41023181,21.0500576 10.0607217,22.0960615 9.99,23.221 C9.97123554,23.5734328 10.2294784,23.8798226 10.58,23.921 C11.0380899,23.9740553 11.498848,24.0007659 11.96,24.001 C12.4010118,24.00111 12.8416897,23.9767392 13.28,23.928 C13.624604,23.8857894 13.8803251,23.588026 13.87,23.241 C13.8298669,22.129555 14.483401,21.1098027 15.51,20.682 C16.5429385,20.2931536 17.7082735,20.5592909 18.47,21.358 C18.7080188,21.6148875 19.1026671,21.6478471 19.38,21.434 C20.0962761,20.8683855 20.7469936,20.2243765 21.32,19.514 C21.5422445,19.237744 21.5069463,18.8353445 21.24,18.602 C20.4243567,17.8666985 20.1464999,16.7046352 20.5413087,15.6799068 C20.9361174,14.6551784 21.9218479,13.9799518 23.02,13.982 L23.17,13.982 C23.5220838,14.001863 23.8287925,13.7442278 23.87,13.394 C23.9780978,12.488738 23.9814533,11.5740307 23.88,10.668 Z M12,16.028 C10.3812472,16.0320469 8.91963574,15.0600482 8.29735969,13.5656755 C7.67508365,12.0713029 8.01483392,10.3491939 9.15803513,9.20312755 C10.3012363,8.05706117 12.0224894,7.71300131 13.5184151,8.3315348 C15.0143407,8.95006829 15.9899949,10.4092421 15.99,12.028 C15.9900069,14.2332396 14.2052328,16.0224869 12,16.028 Z" id="Forma_1"></path>
        </g>
    </g>
</svg>