<svg xmlns="http://www.w3.org/2000/svg" width="16.969" height="16" viewBox="0 0 16.969 16">
  <defs>
    <style>
      .cls-1, .cls-2 {
        fill: #b0b0b0;
        fill-rule: evenodd;
      }

      .cls-1 {
        fill-opacity: 0;
        stroke: #b0b0b0;
        stroke-linejoin: round;
        stroke-width: 1px;
      }
    </style>
  </defs>
  <path class="cls-1" d="M849.61,1927.53a2.934,2.934,0,0,0,.007-2.91l-5.151-9.15a2.8,2.8,0,0,0-4.926-.01l-5.158,9.16a2.966,2.966,0,0,0,.01,2.93,2.793,2.793,0,0,0,2.457,1.45h10.288A2.82,2.82,0,0,0,849.61,1927.53Z" transform="translate(-833.531 -1913.5)"/>
  <path id="Shape_1_copy" data-name="Shape 1 copy" class="cls-2" d="M842,1924.54a0.845,0.845,0,0,0,0,1.69,0.823,0.823,0,0,0,.8-0.83A0.812,0.812,0,0,0,842,1924.54Zm-0.2-5.92a0.92,0.92,0,0,0-.635.92c0.02,0.27.036,0.54,0.056,0.8,0.056,1.02.112,2.02,0.168,3.03a0.608,0.608,0,0,0,.615.59,0.618,0.618,0,0,0,.615-0.61c0-.21,0-0.4.019-0.61,0.037-.65.076-1.31,0.112-1.96,0.02-.42.056-0.84,0.076-1.26a1.046,1.046,0,0,0-.076-0.42A0.824,0.824,0,0,0,841.8,1918.62Z" transform="translate(-833.531 -1913.5)"/>
</svg>
