<svg xmlns="http://www.w3.org/2000/svg" width="11" height="16" viewBox="0 0 11 16">
  <defs>
    <style>
      .cls-1 {
        fill: #e00948;
        fill-rule: evenodd;
      }
    </style>
  </defs>
  <path id="Forma_1_copy_4" data-name="Forma 1 copy 4" class="cls-1" d="M797.291,705.228a0.773,0.773,0,0,0,.742.772h6.934a0.773,0.773,0,0,0,.742-0.772l0.5-11.332H796.8Zm5.778-8.517a0.315,0.315,0,0,1,.3-0.327h0.483a0.315,0.315,0,0,1,.3.327v6.474a0.315,0.315,0,0,1-.3.327H803.37a0.315,0.315,0,0,1-.3-0.327v-6.474Zm-2.112,0a0.315,0.315,0,0,1,.3-0.327h0.482a0.315,0.315,0,0,1,.3.327v6.474a0.315,0.315,0,0,1-.3.327h-0.482a0.315,0.315,0,0,1-.3-0.327v-6.474h0Zm-2.111,0a0.315,0.315,0,0,1,.3-0.327h0.483a0.315,0.315,0,0,1,.3.327v6.474a0.315,0.315,0,0,1-.3.327h-0.483a0.315,0.315,0,0,1-.3-0.327v-6.474Zm7.688-5.887h-3.2v-0.655A0.162,0.162,0,0,0,803.18,690h-3.36a0.162,0.162,0,0,0-.155.169v0.655h-3.2a0.487,0.487,0,0,0-.466.5v1.588h11v-1.588A0.487,0.487,0,0,0,806.534,690.824Z" transform="translate(-796 -690)"/>
</svg>
