<?xml version="1.0" encoding="UTF-8"?>
<svg width="30px" height="36px" viewBox="0 0 30 36" version="1.1" xmlns="http://www.w3.org/2000/svg" xmlns:xlink="http://www.w3.org/1999/xlink">
    <!-- Generator: Sketch 52.3 (67297) - http://www.bohemiancoding.com/sketch -->
    <title>icon-resume-cyan</title>
    <desc>Created with Sketch.</desc>
    <g id="Page-1" stroke="none" stroke-width="1" fill="none" fill-rule="evenodd">
        <g id="icon-resume-cyan" fill="#2DA5B6">
            <path d="M29.488,7.82 L29.488,33.33 C29.4901411,33.8587814 29.2808935,34.3664946 28.9067978,34.7402147 C28.5327021,35.1139348 28.0247789,35.3226723 27.496,35.32 L2.988,35.32 C2.45889381,35.3237549 1.95034061,35.1153654 1.57600875,34.7414093 C1.20167688,34.3674533 0.992776649,33.8591097 0.996,33.33 L0.996,2 C0.992232526,1.47072579 1.2009581,0.962065052 1.5754089,0.587990213 C1.94985969,0.213915374 2.45872984,0.00570086168 2.988,0.01 L21.754,0.01 C21.907,0.01 21.984,0.08 22.137,0.08 C22.1774964,0.123187384 22.2314261,0.151385914 22.29,0.16 C22.367,0.16 22.443,0.24 22.52,0.24 C22.597,0.24 22.673,0.31 22.749,0.31 C22.825,0.31 22.826,0.39 22.903,0.39 C23.056,0.47 23.132,0.54 23.286,0.62 L28.954,6.29 C29.0492009,6.37407762 29.1270006,6.47599857 29.183,6.59 C29.183,6.67 29.26,6.67 29.26,6.75 C29.26,6.83 29.337,6.9 29.337,6.98 C29.3968214,7.04061563 29.4249282,7.12567579 29.413,7.21 C29.49,7.21 29.49,7.28 29.49,7.36 C29.5273573,7.51114257 29.5266701,7.66918799 29.488,7.82 Z M25.428,31.49 L25.428,9.81 L21.828,9.81 C21.2989846,9.81375781 20.7905318,9.60533696 20.416358,9.23135109 C20.0421842,8.85736522 19.833508,8.34901727 19.837,7.82 L19.837,4.22 L4.977,4.22 L4.977,31.49 L25.428,31.49 Z M7.658,14.33 C7.3850052,13.4839094 7.73521954,12.5616368 8.501,12.11 C9.96283819,11.2498776 11.6299177,10.8007163 13.326,10.81 C14.9596607,10.8309014 16.5636114,11.2496516 17.999,12.03 C18.6463767,12.42074 19.0503485,13.1141245 19.071,13.87 C19.0747675,14.3992742 18.8660419,14.9079349 18.4915911,15.2820098 C18.1171403,15.6560846 17.6082702,15.8642991 17.079,15.86 L9.573,15.86 C8.67236766,15.8140814 7.90160505,15.1982763 7.658,14.33 Z M11.871,9.89 C11.4961217,9.49393965 11.2782241,8.97496657 11.258,8.43 C11.2772125,7.29559928 12.1916184,6.38030902 13.326,6.36 C13.868732,6.33293232 14.3985408,6.53125 14.7901007,6.90804113 C15.1816605,7.28483226 15.4001914,7.80662874 15.394,8.35 C15.4046048,8.90111631 15.182416,9.43117461 14.782,9.81 C14.3944709,10.1949555 13.8721966,10.4137655 13.326,10.42 C12.8017636,10.3792284 12.2986387,10.1959596 11.871,9.89 Z M21.062,18.31 C21.5951055,18.2925985 22.1116429,18.4965975 22.4889956,18.8735713 C22.8663482,19.2505451 23.070866,19.7668773 23.054,20.3 C23.0582815,20.8303458 22.8500442,21.3403279 22.4757731,21.716102 C22.101502,22.0918762 21.5923587,22.3021558 21.062,22.3 L9.42,22.3 C8.88586676,22.3148765 8.36926926,22.1086734 7.9921915,21.7300813 C7.61511374,21.3514891 7.41098278,20.8340693 7.428,20.3 C7.42423253,19.7707258 7.6329581,19.2620651 8.0074089,18.8879902 C8.38185969,18.5139154 8.89072984,18.3057009 9.42,18.31 L21.062,18.31 Z M23.054,26.74 C23.0577675,27.2692742 22.8490419,27.7779349 22.4745911,28.1520098 C22.1001403,28.5260846 21.5912702,28.7342991 21.062,28.73 L9.42,28.73 C8.32095335,28.73 7.43,27.8390467 7.43,26.74 C7.43,25.6409533 8.32095335,24.75 9.42,24.75 L21.062,24.75 C21.5951055,24.7325985 22.1116429,24.9365975 22.4889956,25.3135713 C22.8663482,25.6905451 23.070866,26.2068773 23.054,26.74 Z" id="Shape"></path>
        </g>
    </g>
</svg>