<?xml version="1.0" encoding="UTF-8"?>
<svg width="20px" height="20px" viewBox="0 0 20 20" version="1.1" xmlns="http://www.w3.org/2000/svg" xmlns:xlink="http://www.w3.org/1999/xlink">
    <!-- Generator: Sketch 48.2 (47327) - http://www.bohemiancoding.com/sketch -->
    <title>search</title>
    <desc>Created with Sketch.</desc>
    <defs></defs>
    <g id="01.00-Home_MenuGuest" stroke="none" stroke-width="1" fill="none" fill-rule="evenodd" transform="translate(-20.000000, -125.000000)">
        <g id="Drawer" fill="#20AABE" fill-rule="nonzero">
            <g id="search" transform="translate(20.000000, 125.000000)">
                <path d="M18.7637991,17.6549023 L14.150598,12.8569418 C15.3367331,11.4469178 15.9866235,9.67281908 15.9866235,7.8259054 C15.9866235,3.51076922 12.4758542,0 8.16071805,0 C3.84558186,0 0.334812649,3.51076922 0.334812649,7.8259054 C0.334812649,12.1410416 3.84558186,15.6518108 8.16071805,15.6518108 C9.78068047,15.6518108 11.3244254,15.1632021 12.6442813,14.2356622 L17.2925289,19.0700302 C17.4868155,19.2718024 17.7481327,19.3830664 18.028164,19.3830664 C18.293224,19.3830664 18.5446738,19.2820101 18.7355578,19.0982715 C19.1411438,18.707997 19.1540736,18.0608286 18.7637991,17.6549023 Z M8.16071805,2.04154054 C11.3502849,2.04154054 13.9450829,4.63633857 13.9450829,7.8259054 C13.9450829,11.0154722 11.3502849,13.6102703 8.16071805,13.6102703 C4.97115122,13.6102703 2.37635319,11.0154722 2.37635319,7.8259054 C2.37635319,4.63633857 4.97115122,2.04154054 8.16071805,2.04154054 Z" id="Shape"></path>
            </g>
        </g>
    </g>
</svg>