<?xml version="1.0" encoding="UTF-8"?>
<svg width="612px" height="612px" viewBox="0 0 612 612" version="1.1" xmlns="http://www.w3.org/2000/svg" xmlns:xlink="http://www.w3.org/1999/xlink">
    <!-- Generator: Sketch 52.3 (67297) - http://www.bohemiancoding.com/sketch -->
    <title>1</title>
    <desc>Created with Sketch.</desc>
    <g id="Page-1" stroke="none" stroke-width="1" fill="none" fill-rule="evenodd">
        <g id="1" fill="#000000" fill-rule="nonzero">
            <path d="M612,306.036 C612,137.405 474.595,0 305.964,0 C137.333,0 0,137.405 0,306.036 C0,398.917 42.14,482.473 107.698,538.635 C108.493,539.43 109.288,540.225 110.806,540.948 C163.86,585.473 231.804,612 306.759,612 C380.124,612 448.068,585.473 501.122,542.538 C504.23,541.743 506.615,539.43 508.133,537.045 C571.451,480.088 612,398.122 612,306.036 Z M28.117,306.036 C28.117,153.018 153.018,28.117 306.036,28.117 C459.054,28.117 583.955,153.018 583.955,306.036 C583.955,380.991 554.32,448.862 505.892,498.881 C498.086,462.162 474.667,399.712 402.82,359.163 C419.228,338.852 428.552,312.325 428.552,284.208 C428.552,217.059 373.908,162.415 306.759,162.415 C239.61,162.415 184.966,217.059 184.966,284.208 C184.966,312.325 195.085,338.057 210.698,359.163 C138.201,399.712 114.782,462.163 107.77,498.881 C58.547,449.658 28.117,380.991 28.117,306.036 Z M212.36,284.93 C212.36,233.394 254.5,191.254 306.036,191.254 C357.572,191.254 399.712,233.394 399.712,284.93 C399.712,336.466 357.572,378.606 306.036,378.606 C254.5,378.606 212.36,336.466 212.36,284.93 Z M132.707,523.023 C134.297,500.399 146.729,423.854 231.081,380.919 C252.187,397.327 277.919,406.651 306.036,406.651 C334.153,406.651 360.68,396.532 381.786,380.124 C465.342,423.059 478.57,498.014 480.955,522.228 C433.322,560.465 372.462,583.883 306.903,583.883 C240.478,583.955 180.34,561.331 132.707,523.023 Z" id="Shape"></path>
        </g>
    </g>
</svg>