<?xml version="1.0" encoding="UTF-8"?>
<svg width="18px" height="24px" viewBox="0 0 18 24" version="1.1" xmlns="http://www.w3.org/2000/svg" xmlns:xlink="http://www.w3.org/1999/xlink">
    <!-- Generator: Sketch 52.3 (67297) - http://www.bohemiancoding.com/sketch -->
    <title>icon-tablet</title>
    <desc>Created with Sketch.</desc>
    <g id="Page-1" stroke="none" stroke-width="1" fill="none" fill-rule="evenodd">
        <g id="icon-tablet" fill="#D6D6D6">
            <path d="M12.75,1.5 L11.12,1.5 C10.8029164,0.60099245 9.95328725,-0.000267427485 9,-0.000267427485 C8.04671275,-0.000267427485 7.1970836,0.60099245 6.88,1.5 L5.25,1.5 C4.83646943,1.50164428 4.50164428,1.83646943 4.5,2.25 L4.5,5.25 C4.50164428,5.66353057 4.83646943,5.99835572 5.25,6 L12.75,6 C13.1635306,5.99835572 13.4983557,5.66353057 13.5,5.25 L13.5,2.25 C13.4983557,1.83646943 13.1635306,1.50164428 12.75,1.5 Z M16.5,3 L15,3 L15,5.25 C14.9983474,6.4919555 13.9919555,7.49834736 12.75,7.5 L5.25,7.5 C4.0080445,7.49834736 3.00165264,6.4919555 3,5.25 L3,3 L1.5,3 C0.671572875,3 -2.2825234e-13,3.67157288 -2.2825234e-13,4.5 L-2.2825234e-13,22.5 C-0.00432705501,22.8991355 0.152318324,23.2831856 0.434566338,23.5654337 C0.716814352,23.8476817 1.10086448,24.0043271 1.5,24 L16.5,24 C16.8991355,24.0043271 17.2831856,23.8476817 17.5654337,23.5654337 C17.8476817,23.2831856 18.0043271,22.8991355 18,22.5 L18,4.5 C18.0040516,4.10094699 17.8473177,3.71705753 17.5651301,3.4348699 C17.2829425,3.15268226 16.899053,2.99594839 16.5,3 Z M8.78,16.281 L5.78,19.281 C5.48695511,19.5729035 5.01304489,19.5729035 4.72,19.281 L3.22,17.781 C2.94464114,17.4854902 2.95276612,17.0249903 3.2383782,16.7393782 C3.52399028,16.4537661 3.98449025,16.4456411 4.28,16.721 L5.25,17.689 L7.72,15.221 C8.01550975,14.9456411 8.47600972,14.9537661 8.7616218,15.2393782 C9.04723388,15.5249903 9.05535886,15.9854902 8.78,16.281 Z M8.78,10.281 L5.78,13.281 C5.48695511,13.5729035 5.01304489,13.5729035 4.72,13.281 L3.22,11.781 C2.94464114,11.4854902 2.95276612,11.0249903 3.2383782,10.7393782 C3.52399028,10.4537661 3.98449025,10.4456411 4.28,10.721 L5.25,11.69 L7.72,9.221 C8.01550975,8.94564114 8.47600972,8.95376612 8.7616218,9.2393782 C9.04723388,9.52499028 9.05535886,9.98549025 8.78,10.281 Z M14.25,18 L11.25,18 C10.8357864,18 10.5,17.6642136 10.5,17.25 C10.5,16.8357864 10.8357864,16.5 11.25,16.5 L14.25,16.5 C14.6642136,16.5 15,16.8357864 15,17.25 C15,17.6642136 14.6642136,18 14.25,18 Z M14.25,12 L11.25,12 C10.8357864,12 10.5,11.6642136 10.5,11.25 C10.5,10.8357864 10.8357864,10.5 11.25,10.5 L14.25,10.5 C14.6642136,10.5 15,10.8357864 15,11.25 C15,11.6642136 14.6642136,12 14.25,12 Z" id="Forma_1"></path>
        </g>
    </g>
</svg>