<?xml version="1.0" encoding="UTF-8"?>
<svg width="19px" height="15px" viewBox="0 0 19 15" version="1.1" xmlns="http://www.w3.org/2000/svg" xmlns:xlink="http://www.w3.org/1999/xlink">
    <!-- Generator: Sketch 48.2 (47327) - http://www.bohemiancoding.com/sketch -->
    <title>three-buildings</title>
    <desc>Created with Sketch.</desc>
    <defs></defs>
    <g id="01.00-Home_MenuGuest" stroke="none" stroke-width="1" fill="none" fill-rule="evenodd" transform="translate(-21.000000, -225.000000)">
        <g id="Drawer" fill="#20AABE" fill-rule="nonzero">
            <g id="three-buildings" transform="translate(21.000000, 225.000000)">
                <path d="M4.95511554,14.2085524 L8.15186748,14.2085524 L8.15186748,11.1761029 L10.0733758,11.1761029 L10.0733758,14.2085524 L13.2701278,14.2085524 L13.2701278,0.631815107 L4.95511554,0.631815107 L4.95511554,14.2085524 Z M9.69592137,2.23183681 L11.6173924,2.23183681 L11.6173924,4.01434508 L9.69592137,4.01434508 L9.69592137,2.23183681 Z M9.69592137,5.09658843 L11.6173924,5.09658843 L11.6173924,6.8790967 L9.69592137,6.8790967 L9.69592137,5.09658843 Z M9.69592137,7.96127078 L11.6173924,7.96127078 L11.6173924,9.74377905 L9.69592137,9.74377905 L9.69592137,7.96127078 Z M6.60781359,2.23183681 L8.52928462,2.23183681 L8.52928462,4.01434508 L6.60781359,4.01434508 L6.60781359,2.23183681 Z M6.60781359,5.09658843 L8.52928462,5.09658843 L8.52928462,6.8790967 L6.60781359,6.8790967 L6.60781359,5.09658843 Z M6.60781359,7.96127078 L8.52928462,7.96127078 L8.52928462,9.74377905 L6.60781359,9.74377905 L6.60781359,7.96127078 Z" id="Shape"></path>
                <path d="M14.0165244,1.84802278 L14.0165244,11.4478067 L15.2509984,11.4478067 L15.2509984,14.2085524 L18.1613927,14.2085524 L18.1613927,1.84802278 L14.0165244,1.84802278 Z M16.6567643,10.1438018 L14.9073692,10.1438018 L14.9073692,8.52099091 L16.656727,8.52099091 L16.656727,10.1438018 L16.6567643,10.1438018 Z M16.6567643,7.53565351 L14.9073692,7.53565351 L14.9073692,5.91287726 L16.656727,5.91287726 L16.656727,7.53565351 L16.6567643,7.53565351 Z M16.6567643,4.92753986 L14.9073692,4.92753986 L14.9073692,3.30476361 L16.656727,3.30476361 L16.656727,4.92753986 L16.6567643,4.92753986 Z" id="Shape"></path>
                <path d="M0.0638132691,14.2085524 L2.97420756,14.2085524 L2.97420756,11.4478067 L4.20868157,11.4478067 L4.20868157,1.84802278 L0.0638132691,1.84802278 L0.0638132691,14.2085524 Z M1.56847898,3.30476361 L3.31783674,3.30476361 L3.31783674,4.92753986 L1.56847898,4.92753986 L1.56847898,3.30476361 Z M1.56847898,5.91287726 L3.31783674,5.91287726 L3.31783674,7.53565351 L1.56847898,7.53565351 L1.56847898,5.91287726 Z M1.56847898,8.52092165 L3.31783674,8.52092165 L3.31783674,10.1436979 L1.56847898,10.1436979 L1.56847898,8.52092165 Z" id="Shape"></path>
            </g>
        </g>
    </g>
</svg>