<?xml version="1.0" encoding="UTF-8"?>
<svg width="36px" height="36px" viewBox="0 0 36 36" version="1.1" xmlns="http://www.w3.org/2000/svg" xmlns:xlink="http://www.w3.org/1999/xlink">
    <!-- Generator: Sketch 52.3 (67297) - http://www.bohemiancoding.com/sketch -->
    <title>Строительные</title>
    <desc>Created with Sketch.</desc>
    <g id="01-Home" stroke="none" stroke-width="1" fill="none" fill-rule="evenodd">
        <g transform="translate(-526.000000, -1072.000000)" fill="#FFFFFF" fill-rule="nonzero" id="Строительные">
            <g transform="translate(526.000000, 1072.000000)">
                <path d="M33.8869565,32.0869565 L20.1130435,32.0869565 C19.2521739,32.0869565 18.5478261,32.7913043 18.5478261,33.6521739 L18.5478261,34.3565217 C18.5478261,35.2173913 19.2521739,35.9217391 20.1130435,35.9217391 L33.8869565,35.9217391 C34.7478261,35.9217391 35.4521739,35.2173913 35.4521739,34.3565217 L35.4521739,33.6521739 C35.4521739,32.7913043 34.7478261,32.0869565 33.8869565,32.0869565 Z" id="Shape"></path>
                <path d="M33.8869565,26.9217391 L20.1130435,26.9217391 C19.2521739,26.9217391 18.5478261,27.626087 18.5478261,28.4869565 L18.5478261,29.1913043 C18.5478261,30.0521739 19.2521739,30.7565217 20.1130435,30.7565217 L33.8869565,30.7565217 C34.7478261,30.7565217 35.4521739,30.0521739 35.4521739,29.1913043 L35.4521739,28.4869565 C35.4521739,27.5478261 34.7478261,26.9217391 33.8869565,26.9217391 Z" id="Shape"></path>
                <path d="M33.8869565,19.0956522 L32.9478261,19.0956522 L28.4869565,14.0086957 C29.0347826,13.5391304 29.3478261,12.8347826 29.3478261,11.973913 C29.3478261,10.6434783 28.4086957,9.46956522 27.1565217,9.23478261 L27.1565217,8.60869565 C27.5478261,8.37391304 27.7043478,8.06086957 27.7043478,7.51304348 C27.7043478,7.04347826 27.3130435,6.49565217 26.9217391,6.33913043 L26.9217391,3.20869565 C27.626087,3.05217391 28.0956522,2.42608696 28.0956522,1.64347826 C28.0956522,0.782608696 27.3913043,0.0782608696 26.5304348,0.0782608696 C25.6695652,0.0782608696 25.0434783,0.704347826 24.9652174,1.48695652 L11.6608696,5.94782609 C11.426087,5.63478261 11.2695652,5.47826087 10.9565217,5.24347826 L10.9565217,4.06956522 C10.9565217,3.20869565 10.2521739,2.50434783 9.39130435,2.50434783 C8.53043478,2.50434783 7.82608696,3.20869565 7.82608696,4.06956522 L7.82608696,5.08695652 C6.73043478,5.55652174 6.02608696,6.65217391 6.02608696,7.90434783 L1.0173913,9.54782609 C0.626086957,9.70434783 0.391304348,10.0956522 0.547826087,10.5652174 C0.704347826,10.9565217 0.939130435,11.1130435 1.25217391,11.1130435 C1.33043478,11.1130435 1.40869565,11.1130435 1.48695652,11.0347826 L6.33913043,9.39130435 C6.65217391,9.93913043 7.12173913,10.4869565 7.66956522,10.7217391 L7.66956522,30.9130435 L5.47826087,30.9130435 C4.6173913,30.9130435 3.91304348,31.6173913 3.91304348,32.4782609 L3.91304348,34.4347826 C3.91304348,35.2956522 4.6173913,36 5.47826087,36 L12.9913043,36 C13.8521739,36 14.5565217,35.2956522 14.5565217,34.4347826 L14.5565217,32.4 C14.5565217,31.5391304 13.8521739,30.8347826 12.9913043,30.8347826 L10.8782609,30.8347826 L10.8782609,10.4086957 C11.7391304,9.86086957 12.2086957,8.92173913 12.2086957,7.82608696 C12.2086957,7.66956522 12.2086957,7.51304348 12.1304348,7.43478261 L25.4347826,2.97391304 C25.5913043,3.13043478 25.826087,3.20869565 25.9826087,3.28695652 L25.9826087,6.4173913 C25.5130435,6.57391304 25.2,7.04347826 25.2,7.59130435 C25.2,8.13913043 25.5130435,8.45217391 25.826087,8.68695652 L25.826087,10.4869565 L26.373913,10.4869565 C27.3130435,10.4869565 28.0173913,11.1913043 28.0173913,12.1304348 C28.0173913,12.5217391 27.7826087,12.9913043 27.5478261,13.3043478 L27,12.6782609 L27,12.5217391 C27,12.5217391 27,12.5217391 26.9217391,12.5217391 C26.8434783,12.5217391 26.8434783,12.5217391 26.7652174,12.5217391 C26.6869565,12.5217391 26.6869565,12.5217391 26.6086957,12.5217391 C26.6086957,12.5217391 26.5304348,12.5217391 26.5304348,12.6 L26.4521739,12.6 L26.0608696,12.9130435 C25.9043478,13.0695652 25.9043478,13.3043478 26.0608696,13.4608696 C26.1391304,13.5391304 26.2956522,13.6173913 26.373913,13.6173913 C26.4521739,13.6173913 26.6086957,13.6173913 26.6869565,13.5391304 L26.9217391,13.773913 C26.7652174,13.8521739 26.6086957,13.8521739 26.5304348,13.8521739 C25.5913043,13.8521739 24.8869565,13.1478261 24.8869565,12.2086957 C24.8869565,11.8173913 24.573913,11.6608696 24.3391304,11.6608696 C23.9478261,11.6608696 23.7913043,11.973913 23.7913043,12.2086957 C23.7913043,13.773913 25.0434783,15.026087 26.6086957,15.026087 C27,15.026087 27.5478261,14.8695652 27.8608696,14.7130435 L31.9304348,19.3304348 L21.8347826,19.3304348 L25.2782609,15.4956522 C25.4347826,15.3391304 25.4347826,15.1043478 25.2,14.9478261 C25.0434783,14.7913043 24.8086957,14.7913043 24.6521739,15.026087 L20.8956522,19.173913 L20.1913043,19.173913 C19.3304348,19.173913 18.626087,19.8782609 18.626087,20.7391304 L18.626087,21.4434783 C18.626087,22.3043478 19.3304348,23.0086957 20.1913043,23.0086957 L33.9652174,23.0086957 C34.826087,23.0086957 35.5304348,22.3043478 35.5304348,21.4434783 L35.5304348,20.7391304 C35.4521739,19.8 34.7478261,19.0956522 33.8869565,19.0956522 Z" id="Shape"></path>
            </g>
        </g>
    </g>
</svg>