<?xml version="1.0" encoding="UTF-8"?>
<svg width="17px" height="18px" viewBox="0 0 17 18" version="1.1" xmlns="http://www.w3.org/2000/svg" xmlns:xlink="http://www.w3.org/1999/xlink">
    <!-- Generator: Sketch 48.2 (47327) - http://www.bohemiancoding.com/sketch -->
    <title>user-shape</title>
    <desc>Created with Sketch.</desc>
    <defs></defs>
    <g id="01.00-Home_MenuGuest" stroke="none" stroke-width="1" fill="none" fill-rule="evenodd" transform="translate(-20.000000, -40.000000)">
        <g id="Drawer" fill="#FFFFFF" fill-rule="nonzero">
            <g id="Header">
                <g id="Group-2" transform="translate(20.000000, 40.000000)">
                    <g id="user-shape">
                        <path d="M8.49995896,9 C9.74241816,9 10.8028859,8.56039897 11.6816494,7.68156631 C12.5604951,6.80273365 13,5.74223207 13,4.49989739 C13,3.25776793 12.5604951,2.1972253 11.6816494,1.31818742 C10.8025986,0.439395805 9.74208981,0 8.49995896,0 C7.25782811,0 6.19715516,0.439395805 5.3183916,1.31818742 C4.43946387,2.1972253 4,3.25772688 4,4.49989739 C4,5.74223207 4.43946387,6.80273365 5.3183916,7.68156631 C6.19740142,8.56039897 7.25778706,9 8.49995896,9 Z" id="Shape"></path>
                        <path d="M16.9573729,13.6430788 C16.929124,13.2385523 16.8727108,12.8017362 16.7883447,12.332925 C16.7038095,11.8641138 16.5970303,11.4296131 16.4682187,11.0287913 C16.3394072,10.6282642 16.1663192,10.2375882 15.9489973,9.85693176 C15.7317599,9.47631737 15.4822561,9.15186266 15.2003592,8.88331502 C14.9184623,8.61485158 14.5744432,8.40065337 14.1682595,8.2404257 C13.7615685,8.08024013 13.3128001,8 12.8217852,8 C12.7494291,8 12.5803586,8.08613395 12.3147006,8.25844395 C12.0492963,8.43075395 11.7494266,8.62310293 11.4153876,8.83553299 C11.081391,9.04758417 10.6464933,9.24005944 10.1114558,9.41207475 C9.57616456,9.58438475 9.03897034,9.6705608 8.49949253,9.6705608 C7.96022617,9.6705608 7.42298967,9.58438475 6.88778302,9.41207475 C6.35261867,9.24005944 5.91784785,9.04758417 5.58380887,8.83553299 C5.24981219,8.62310293 4.95002711,8.43079604 4.68445365,8.25844395 C4.41875333,8.08613395 4.2498097,8 4.17736904,8 C3.68639645,8 3.23762805,8.08024013 2.8311907,8.2404257 C2.42466878,8.40065337 2.08060737,8.61501998 1.79883731,8.88331502 C1.51715183,9.15186266 1.26760581,9.47631737 1.05036841,9.85693176 C0.833131011,10.2375882 0.660085374,10.6284326 0.531273787,11.0287913 C0.40250449,11.4296131 0.295809929,11.8641138 0.211316972,12.332925 C0.126739437,12.8017362 0.0704107981,13.2382576 0.0422041901,13.6430788 C0.0140398708,14.0478999 0,14.4625721 0,14.8872639 C0,15.8486299 0.293864646,16.6080484 0.881382494,17.1649722 C1.46902721,17.7216855 2.24984701,18 3.22375733,18 L13.7762004,18 C14.7500261,18 15.5307613,17.7216855 16.1184906,17.1649722 C16.7063468,16.6080484 17,15.8487562 17,14.8872639 C16.9999154,14.4625721 16.9858756,14.0478999 16.9573729,13.6430788 Z" id="Shape"></path>
                    </g>
                </g>
            </g>
        </g>
    </g>
</svg>