<?xml version="1.0" encoding="UTF-8"?>
<svg width="36px" height="26px" viewBox="0 0 36 26" version="1.1" xmlns="http://www.w3.org/2000/svg" xmlns:xlink="http://www.w3.org/1999/xlink">
    <!-- Generator: Sketch 52.3 (67297) - http://www.bohemiancoding.com/sketch -->
    <title>Послания</title>
    <desc>Created with Sketch.</desc>
    <g id="01-Home" stroke="none" stroke-width="1" fill="none" fill-rule="evenodd">
        <g transform="translate(-527.000000, -1306.000000)" fill="#FFFFFF" fill-rule="nonzero" id="Послания">
            <g transform="translate(527.000000, 1306.000000)">
                <path d="M2.66666667,0 C2.19607843,0 1.88235294,0.0784313725 1.49019608,0.31372549 L16.7058824,15.6862745 C17.4117647,16.3921569 18.5098039,16.3921569 19.2156863,15.6862745 L34.4313725,0.31372549 C34.0392157,0.156862745 33.7254902,8.91661472e-14 33.254902,8.91661472e-14 L2.66666667,8.91661472e-14 Z M35.6862745,1.49019608 L24.2352941,13.0980392 L35.6862745,23.6862745 C35.8431373,23.2941176 36,22.9803922 36,22.5098039 L36,2.66666667 C36,2.19607843 35.9215686,1.88235294 35.6862745,1.49019608 Z M0.235294118,1.49019608 C0.0784313725,1.88235294 0,2.19607843 0,2.66666667 L0,22.5098039 C0,22.9803922 0.0784313725,23.2941176 0.31372549,23.6862745 L11.6862745,13.0980392 L0.235294118,1.49019608 Z M22.9803922,14.3529412 L20.4705882,16.8627451 C19.0588235,18.2745098 16.7843137,18.2745098 15.4509804,16.8627451 L12.9411765,14.3529412 L1.49019608,24.9411765 C1.88235294,25.0980392 2.19607843,25.1764706 2.58823529,25.1764706 L33.254902,25.1764706 C33.6470588,25.1764706 34.0392157,25.0980392 34.3529412,24.9411765 L22.9803922,14.3529412 Z" id="Shape"></path>
            </g>
        </g>
    </g>
</svg>