<?xml version="1.0" encoding="UTF-8"?>
<svg width="36px" height="31px" viewBox="0 0 36 31" version="1.1" xmlns="http://www.w3.org/2000/svg" xmlns:xlink="http://www.w3.org/1999/xlink">
    <!-- Generator: Sketch 52.3 (67297) - http://www.bohemiancoding.com/sketch -->
    <title>вакансии</title>
    <desc>Created with Sketch.</desc>
    <g id="01-Home" stroke="none" stroke-width="1" fill="none" fill-rule="evenodd">
        <g transform="translate(-233.000000, -1225.000000)" fill="#FFFFFF" fill-rule="nonzero" id="вакансии">
            <g transform="translate(233.000000, 1225.000000)">
                <path d="M13.0695652,5.4 L13.0695652,4.06956522 C13.0695652,3.36521739 13.6173913,2.8173913 14.3217391,2.8173913 L21.6,2.8173913 C22.3043478,2.8173913 22.8521739,3.36521739 22.8521739,4.06956522 L22.8521739,5.4 L25.1217391,5.4 L25.1217391,4.06956522 C25.1217391,2.11304348 23.4782609,0.547826087 21.6,0.547826087 L14.3217391,0.547826087 C12.3652174,0.547826087 10.8,2.19130435 10.8,4.06956522 L10.8,5.4 L13.0695652,5.4 Z" id="Shape"></path>
                <path d="M21.2869565,18.9391304 C21.2869565,19.2521739 21.0521739,19.4086957 20.8173913,19.4086957 L15.026087,19.4086957 C14.7130435,19.4086957 14.5565217,19.173913 14.5565217,18.9391304 L14.5565217,16.0434783 C14.5565217,15.7304348 14.7913043,15.573913 15.026087,15.573913 L20.8173913,15.573913 C21.1304348,15.573913 21.2869565,15.8086957 21.2869565,16.0434783 L21.2869565,18.9391304 Z" id="Shape"></path>
                <path d="M20.8173913,20.5826087 L15.026087,20.5826087 C14.0869565,20.5826087 13.3826087,19.8 13.3826087,18.9391304 L13.3826087,18 C9,17.6869565 4.69565217,17.0608696 0.626086957,15.8869565 L0.626086957,27.7826087 C0.626086957,29.426087 1.95652174,30.7565217 3.6,30.7565217 L32.3217391,30.7565217 C33.9652174,30.7565217 35.2956522,29.426087 35.2956522,27.7826087 L35.2956522,15.9652174 C31.1478261,17.0608696 26.9217391,17.7652174 22.5391304,18.0782609 L22.5391304,19.0173913 C22.5391304,19.8782609 21.8347826,20.5826087 20.8173913,20.5826087 Z" id="Shape"></path>
                <path d="M15.1043478,14.4 L20.8956522,14.4 C21.8347826,14.4 22.5391304,15.1826087 22.5391304,16.0434783 L22.5391304,16.5913043 C26.9217391,16.2782609 31.226087,15.573913 35.373913,14.4782609 L35.373913,9.62608696 C35.373913,7.9826087 34.0434783,6.65217391 32.4,6.65217391 L3.6,6.65217391 C1.95652174,6.65217391 0.626086957,7.9826087 0.626086957,9.62608696 L0.626086957,14.4782609 C4.77391304,15.573913 9.07826087,16.2782609 13.4608696,16.5913043 L13.4608696,16.0434783 C13.3826087,15.1826087 14.1652174,14.4 15.1043478,14.4 Z" id="Shape"></path>
            </g>
        </g>
    </g>
</svg>