<?xml version="1.0" encoding="UTF-8"?>
<svg width="35px" height="36px" viewBox="0 0 35 36" version="1.1" xmlns="http://www.w3.org/2000/svg" xmlns:xlink="http://www.w3.org/1999/xlink">
    <!-- Generator: Sketch 52.3 (67297) - http://www.bohemiancoding.com/sketch -->
    <title>icon-instruments-cyan</title>
    <desc>Created with Sketch.</desc>
    <g id="Page-1" stroke="none" stroke-width="1" fill="none" fill-rule="evenodd">
        <g id="icon-instruments-cyan" transform="translate(-1.000000, -1.000000)" fill="#2DA5B6">
            <path d="M32.791,7.64 L34.982,5.53 C35.1020142,5.40914451 35.2785955,5.36375623 35.4420128,5.41175876 C35.6054301,5.45976128 35.7294125,5.59343775 35.765,5.76 C36.3364805,7.96575384 35.7129305,10.3097555 34.121,11.94 C32.425543,13.7079278 29.8390218,14.294164 27.547,13.43 C27.3671374,13.3303447 27.142867,13.363085 26.999,13.51 L13.46,27.05 C13.3217364,27.1990753 13.2906379,27.4183596 13.382,27.6 C14.1504126,29.8959368 13.5771661,32.4287071 11.895,34.17 C10.3028191,35.8298404 7.91752059,36.4625251 5.712,35.81 C5.54541655,35.7757346 5.41102804,35.652899 5.36196698,35.490058 C5.31290592,35.3272171 5.35707066,35.1505866 5.477,35.03 L7.669,32.84 C8.60827697,31.8856824 8.60827697,30.3543176 7.669,29.4 C6.71354001,28.4597108 5.18045999,28.4597108 4.225,29.4 L2.034,31.59 C1.91104266,31.7069307 1.73460524,31.7485084 1.57237503,31.6987827 C1.41014483,31.649057 1.28731226,31.5157489 1.251,31.35 C0.640286593,29.1194827 1.26712417,26.7326194 2.895,25.09 C4.59028192,23.3212456 7.1792932,22.7383833 9.469,23.61 C9.65057431,23.6996029 9.86861903,23.6677715 10.017,23.53 L23.478,9.99 C23.6162636,9.84092465 23.6473621,9.62164044 23.556,9.44 C22.7758198,7.19758581 23.3079309,4.70735535 24.9364483,2.97963038 C26.5649657,1.25190542 29.0194184,0.573633825 31.304,1.22 C31.4511909,1.25674201 31.5692539,1.36640446 31.6167407,1.51048829 C31.6642274,1.65457211 31.634502,1.81294229 31.538,1.93 L29.347,4.12 C28.407723,5.07431756 28.407723,6.60568244 29.347,7.56 C30.2975616,8.48290042 31.7986111,8.51776801 32.791,7.64 Z M12.365,17.34 L2.034,7.01 C1.35061068,6.33644979 0.9723744,5.41274009 0.987105549,4.45332682 C1.0018367,3.49391354 1.40825388,2.58225167 2.112,1.93 C3.62283589,0.625484017 5.889071,0.726381051 7.278,2.16 L17.452,12.34 C17.6876865,12.6052031 17.6876865,13.0047969 17.452,13.27 L13.304,17.42 C13.1914821,17.5758855 13.0053889,17.6612585 12.8138374,17.644869 C12.622286,17.6284796 12.4534007,17.5127342 12.369,17.34 L12.365,17.34 Z M35.686,33.62 C35.8974297,33.9091171 35.8641911,34.3096855 35.608,34.56 L34.508,35.66 C34.2577619,35.9150164 33.8587717,35.9490091 33.569,35.74 L31.221,34.09 C31.143,34.01 31.065,33.86 30.987,33.78 L30.047,31.98 C29.969,31.9 29.969,31.82 29.891,31.74 L20.969,22.98 C20.7340909,22.7106951 20.7340909,22.3093049 20.969,22.04 L22.069,20.94 C22.3397203,20.7099258 22.7372797,20.7099258 23.008,20.94 L31.773,29.79 C31.852,29.87 31.93,29.87 32.008,29.94 L33.808,30.88 C33.9302649,30.9334122 34.0376906,31.0157834 34.121,31.12 L35.686,33.62 Z" id="Shape"></path>
        </g>
    </g>
</svg>