<svg xmlns="http://www.w3.org/2000/svg" width="15" height="17" viewBox="0 0 15 17">
  <defs>
    <style>
      .cls-1 {
        fill: #b0b0b0;
        fill-rule: evenodd;
      }
    </style>
  </defs>
  <path class="cls-1" d="M944,545.51a7.5,7.5,0,1,0-15,0,0.445,0.445,0,1,0,.89,0,6.61,6.61,0,1,1,6.61,6.62h-0.772l1.1-1.237a0.445,0.445,0,0,0-.664-0.594l-1.577,1.769a0.762,0.762,0,0,0,0,1.015l1.577,1.768a0.445,0.445,0,1,0,.664-0.593l-1.1-1.237H936.5A7.513,7.513,0,0,0,944,545.51Z" transform="translate(-929 -538)"/>
</svg>
