<?xml version="1.0" encoding="UTF-8"?>
<svg width="14px" height="14px" viewBox="0 0 14 14" version="1.1" xmlns="http://www.w3.org/2000/svg" xmlns:xlink="http://www.w3.org/1999/xlink">
    <!-- Generator: Sketch 52.3 (67297) - http://www.bohemiancoding.com/sketch -->
    <title>icon-reload-2</title>
    <desc>Created with Sketch.</desc>
    <g id="Page-1" stroke="none" stroke-width="1" fill="none" fill-rule="evenodd">
        <g id="icon-reload-2" transform="translate(-1.000000, 0.000000)" fill="#D6D6D6">
            <path d="M14.646,0.63 C14.4290819,0.516605444 14.1623708,0.570865903 14.007,0.76 L12.822,1.93 C12.1738077,1.31961463 11.4180257,0.834747774 10.593,0.5 C9.76821719,0.170330308 8.88822766,0.000644704294 8,0 C7.06507161,-0.00605383856 6.13933775,0.18474887 5.283,0.56 C4.44915016,0.907281733 3.69075322,1.41333254 3.05,2.05 C2.4131788,2.69154243 1.90414009,3.44831332 1.55,4.28 C0.808639059,6.01755906 0.808639059,7.98244094 1.55,9.72 C1.90414009,10.5516867 2.4131788,11.3084576 3.05,11.95 C3.69075322,12.5866675 4.44915016,13.0927183 5.283,13.44 C6.13933775,13.8152511 7.06507161,14.0060538 8,14 C9.03026469,14.0033138 10.0484193,13.7778922 10.981,13.34 C11.9124536,12.9080012 12.7350193,12.2723667 13.388,11.48 C13.4359183,11.4208515 13.4601528,11.3460097 13.456,11.27 C13.4554738,11.1971464 13.4238107,11.127997 13.369,11.08 L12.121,9.83 C12.0592625,9.77201522 11.9776978,9.73981866 11.893,9.74 C11.8113775,9.74802512 11.7360726,9.78747052 11.683,9.85 C11.2532065,10.4200018 10.6937496,10.8793598 10.051,11.19 C9.41430354,11.5082627 8.71180501,11.6726699 8,11.67 C7.37833492,11.6687777 6.76322043,11.5429666 6.191,11.3 C5.06594399,10.8299467 4.17160138,9.93524474 3.702,8.81 C3.21003933,7.6534767 3.21003933,6.3465233 3.702,5.19 C4.17160138,4.06475526 5.06594399,3.17005334 6.191,2.7 C6.76322043,2.45703344 7.37833492,2.3312223 8,2.33 C9.18296366,2.31646116 10.3245484,2.76491526 11.182,3.58 L9.923,4.84 C9.74009947,4.9953793 9.68758286,5.25589476 9.796,5.47 C9.87692448,5.69504182 10.0951051,5.84103626 10.334,5.83 L14.418,5.83 C14.5726911,5.8345842 14.7219393,5.77270082 14.828,5.66 C14.9392269,5.55268599 15.001731,5.40455478 15.001,5.25 L15.001,1.17 C15.0153186,0.931243292 14.8708671,0.711514273 14.646,0.63 Z" id="Shape_1_copy_2"></path>
        </g>
    </g>
</svg>