<?xml version="1.0" encoding="UTF-8"?>
<svg width="135px" height="38px" viewBox="0 0 135 38" version="1.1" xmlns="http://www.w3.org/2000/svg" xmlns:xlink="http://www.w3.org/1999/xlink">
    <!-- Generator: Sketch 52.3 (67297) - http://www.bohemiancoding.com/sketch -->
    <title>logo</title>
    <desc>Created with Sketch.</desc>
    <g id="01-Home" stroke="none" stroke-width="1" fill="none" fill-rule="evenodd">
        <g transform="translate(-221.000000, -11.000000)" fill-rule="nonzero" id="Header">
            <g>
                <g id="logo" transform="translate(221.000000, 11.000000)">
                    <path d="M134.914557,4.31818182 C134.914557,1.46818182 133.376582,0.0863636364 130.386076,0.0863636364 L80.4018987,0.0863636364 C77.4113924,0.0863636364 75.8734177,1.46818182 75.8734177,4.31818182 L75.8734177,24.0954545 C76.2151899,23.9227273 76.6424051,23.8363636 77.0696203,23.8363636 C77.8386076,23.8363636 78.5221519,24.0954545 79.1202532,24.7 C79.6329114,25.2181818 79.9746835,25.9090909 79.9746835,26.6863636 C79.9746835,27.4636364 79.7183544,28.1545455 79.1202532,28.7590909 C78.5221519,29.2772727 77.8386076,29.6227273 77.0696203,29.6227273 C76.6424051,29.6227273 76.2151899,29.5363636 75.8734177,29.3636364 L75.8734177,33.6818182 C75.8734177,36.5318182 77.4113924,37.9136364 80.4018987,37.9136364 L130.386076,37.9136364 C133.376582,37.9136364 134.914557,36.5318182 134.914557,33.6818182 L134.914557,4.31818182 Z" id="Shape" fill="#E00948"></path>
                    <path d="M70.4905063,12.0909091 C69.8924051,11.9181818 69.2943038,11.9181818 68.5253165,11.9181818 C67.3291139,11.9181818 66.3037975,12.1772727 65.5348101,12.6090909 C64.6803797,13.1272727 63.9968354,13.7318182 63.5696203,14.5954545 C63.1424051,15.4590909 62.8860759,16.3227273 62.8860759,17.3590909 C62.8860759,17.8772727 62.971519,18.4818182 63.1424051,19 C63.3132911,19.6045455 63.6550633,20.1227273 64.1677215,20.7272727 C64.6803797,21.3318182 65.4493671,21.85 66.3892405,22.3681818 C67.1582278,22.8 67.6708861,23.2318182 68.0126582,23.5772727 C68.2689873,23.9227273 68.4398734,24.3545455 68.4398734,24.7863636 C68.4398734,25.3045455 68.2689873,25.65 67.9272152,25.9090909 C67.585443,26.1681818 67.1582278,26.2545455 66.5601266,26.2545455 C65.9620253,26.2545455 65.3639241,26.1681818 64.8512658,25.9954545 C64.2531646,25.8227273 63.5696203,25.4772727 62.8006329,25.1318182 L62.8006329,28.9318182 C63.2278481,29.1909091 63.7405063,29.3636364 64.3386076,29.5363636 C65.0221519,29.7090909 65.7911392,29.7954545 66.5601266,29.7954545 C67.7563291,29.7954545 68.8670886,29.6227273 69.721519,29.1909091 C70.6613924,28.7590909 71.3449367,28.1545455 71.8575949,27.2909091 C72.3702532,26.5136364 72.6265823,25.4772727 72.6265823,24.3545455 C72.6265823,23.3181818 72.3702532,22.3681818 71.8575949,21.5045455 C71.3449367,20.5545455 70.4050633,19.7772727 69.1234177,19 C68.3544304,18.5681818 67.8417722,18.1363636 67.5,17.8772727 C67.2436709,17.6181818 67.0727848,17.2727273 67.0727848,16.9272727 C67.0727848,16.4954545 67.2436709,16.15 67.5,15.8909091 C67.7563291,15.6318182 68.1835443,15.4590909 68.7816456,15.4590909 C69.2088608,15.4590909 69.6360759,15.5454545 70.0632911,15.6318182 C70.4905063,15.8045455 71.0886076,15.9772727 72.1139241,16.3227273 L72.1139241,12.6954545 C71.5158228,12.4363636 71.0031646,12.2636364 70.4905063,12.0909091 Z" id="Shape" fill="#FFFFFF"></path>
                    <path d="M54.8544304,11.9181818 C54.8544304,11.9181818 54.8544304,11.9181818 54.8544304,11.9181818 C53.5727848,12.0909091 52.4620253,12.5227273 51.3512658,13.3 L51.3512658,12.1772727 L47.335443,12.1772727 L47.335443,29.6227273 L51.9493671,29.6227273 L51.9493671,19 C51.9493671,18.8272727 51.9493671,18.7409091 51.9493671,18.5681818 C52.2911392,17.0136364 52.9746835,16.2363636 53.8291139,16.0636364 C54.6835443,16.0636364 55.2816456,16.8409091 55.6234177,18.4818182 C55.6234177,18.5681818 55.6234177,18.5681818 55.6234177,18.6545455 L55.6234177,29.6227273 L60.2373418,29.6227273 L60.2373418,18.3954545 C60.2373418,16.4090909 59.8955696,14.8545455 59.2120253,13.7318182 C58.443038,12.5227273 57.3322785,11.9181818 55.7088608,11.9181818 C55.5379747,11.9181818 55.3670886,11.9181818 55.1962025,11.9181818 L54.8544304,11.9181818 C54.9398734,11.9181818 54.8544304,11.9181818 54.8544304,11.9181818 Z" id="Shape" fill="#FFFFFF"></path>
                    <path d="M38.193038,11.9181818 C37.0822785,11.9181818 35.971519,12.2636364 34.9462025,12.8681818 C33.9208861,13.5590909 33.1518987,14.5090909 32.4683544,15.8045455 C31.7848101,17.1 31.528481,18.8272727 31.528481,20.9863636 C31.528481,23.8363636 32.1265823,26.0818182 33.2373418,27.55 C34.3481013,29.1045455 35.971519,29.8818182 38.1075949,29.9681818 C38.7911392,29.9681818 39.4746835,29.7954545 40.2436709,29.5363636 C41.0126582,29.2772727 41.6962025,28.8454545 42.3797468,28.1545455 C43.0632911,27.4636364 43.5759494,26.6 44.0031646,25.3909091 C44.4303797,24.1818182 44.6867089,22.7136364 44.6867089,20.9 C44.6867089,19.0863636 44.4303797,17.4454545 43.9177215,16.15 C43.4050633,14.8545455 42.6360759,13.8181818 41.6107595,13.0409091 C40.7563291,12.2636364 39.5601266,11.9181818 38.193038,11.9181818 Z M38.1075949,16.15 C38.6202532,16.15 39.1329114,16.5818182 39.4746835,17.5318182 C39.8164557,18.3090909 39.9873418,19.1727273 40.0727848,20.2090909 L40.0727848,20.8136364 C40.0727848,20.8136364 40.0727848,20.8136364 40.0727848,20.8136364 C40.0727848,20.8136364 40.0727848,20.8136364 40.0727848,20.8136364 C40.0727848,20.8136364 40.0727848,20.9 40.0727848,20.9 L40.0727848,21.2454545 C40.0727848,22.3681818 39.8164557,23.3181818 39.4746835,24.1818182 C39.1329114,25.1318182 38.6202532,25.5636364 38.1075949,25.5636364 C37.5949367,25.5636364 37.0822785,25.0454545 36.7405063,24.1818182 C36.3987342,23.2318182 36.1424051,22.1954545 36.1424051,20.9 C36.1424051,19.6045455 36.3132911,18.4818182 36.7405063,17.6181818 C37.0822785,16.5818182 37.5949367,16.15 38.1075949,16.15 Z" id="Shape" fill="#FFFFFF"></path>
                    <path d="M19.9936709,13.3 L19.9936709,12.1772727 L15.9778481,12.1772727 L15.9778481,29.6227273 L20.5063291,29.6227273 L20.5063291,19 C20.5063291,18.8272727 20.5063291,18.7409091 20.5063291,18.5681818 C20.8481013,17.0136364 21.5316456,16.2363636 22.3860759,16.0636364 C23.2405063,16.0636364 23.8386076,16.8409091 24.1803797,18.4818182 C24.1803797,18.5681818 24.1803797,18.5681818 24.1803797,18.6545455 L24.1803797,29.6227273 L28.7943038,29.6227273 L28.7943038,18.3954545 C28.7943038,16.4090909 28.4525316,14.8545455 27.7689873,13.7318182 C27,12.5227273 25.8892405,11.9181818 24.2658228,11.9181818 C24.0949367,11.9181818 23.9240506,11.9181818 23.7531646,11.9181818 C23.6677215,11.9181818 23.5822785,11.9181818 23.4968354,11.9181818 C22.3006329,12.0909091 21.1044304,12.5227273 19.9936709,13.3 Z" id="Shape" fill="#FFFFFF"></path>
                    <path d="M1.19620253,13.2136364 L1.19620253,16.9272727 C4.78481013,14.8545455 6.92088608,14.8545455 7.68987342,16.8409091 C7.77531646,17.0136364 7.86075949,17.2727273 7.86075949,17.4454545 C7.86075949,17.6181818 7.94620253,17.7909091 7.94620253,17.9636364 L7.94620253,18.1363636 C3.50316456,18.6545455 0.939873418,20.2954545 0.256329114,22.9727273 L0.085443038,23.8363636 C0.085443038,24.0954545 -8.8817842e-16,24.3545455 -8.8817842e-16,24.6136364 C-8.8817842e-16,24.9590909 -8.8817842e-16,25.2181818 0.085443038,25.5636364 C0.085443038,25.5636364 0.085443038,25.5636364 0.085443038,25.5636364 L0.085443038,25.65 C0.42721519,27.9818182 1.53797468,29.3636364 3.41772152,29.7954545 C3.93037975,29.8818182 4.44303797,29.9681818 5.04113924,29.8818182 C5.04113924,29.8818182 5.12658228,29.8818182 5.12658228,29.8818182 C5.21202532,29.8818182 5.29746835,29.8818182 5.38291139,29.7954545 C5.55379747,29.7954545 5.72468354,29.7090909 5.81012658,29.7090909 C6.57911392,29.5363636 7.4335443,29.1045455 8.28797468,28.5863636 L8.28797468,29.7954545 L12.3037975,29.7954545 L12.3037975,17.1 C12.2183544,16.6681818 12.1329114,16.15 12.0474684,15.7181818 C11.7056962,14.5954545 11.1075949,13.7318182 10.2531646,13.0409091 C9.31329114,12.35 8.03164557,12.0045455 6.32278481,11.9181818 C5.04113924,11.9181818 4.01582278,12.0909091 3.07594937,12.35 C2.39240506,12.6090909 1.62341772,12.8681818 1.19620253,13.2136364 C1.19620253,13.2136364 1.19620253,13.2136364 1.19620253,13.2136364 Z M7.17721519,21.2454545 C7.77531646,21.1590909 8.11708861,21.3318182 8.20253165,21.85 L8.20253165,23.4045455 C8.11708861,24.4409091 7.94620253,25.1318182 7.60443038,25.5636364 C7.51898734,25.65 7.34810127,25.8227273 7.26265823,25.9090909 C6.75,26.2545455 6.23734177,26.3409091 5.63924051,26.0818182 C5.12658228,25.9090909 4.78481013,25.5636364 4.52848101,24.9590909 C4.44303797,24.7 4.44303797,24.4409091 4.44303797,24.0954545 C4.44303797,23.3181818 4.69936709,22.7136364 5.04113924,22.2818182 C5.38291139,21.85 5.89556962,21.5909091 6.49367089,21.4181818 C6.75,21.3318182 6.92088608,21.2454545 7.17721519,21.2454545 Z" id="Shape" fill="#FFFFFF"></path>
                    <path d="M7.94620253,18.05 C7.94620253,18.05 7.94620253,18.05 7.94620253,18.05 C7.94620253,18.05 7.94620253,18.1363636 7.94620253,18.05 C7.94620253,18.05 7.94620253,18.05 7.94620253,18.05 Z" id="Shape" fill="#FFFFFF"></path>
                    <path d="M122.268987,11.9181818 C121.158228,11.9181818 120.047468,12.2636364 119.022152,12.8681818 C117.996835,13.5590909 117.227848,14.5090909 116.544304,15.8045455 C115.860759,17.1 115.60443,18.8272727 115.60443,20.9863636 C115.60443,23.8363636 116.202532,26.0818182 117.313291,27.55 C118.424051,29.1045455 120.047468,29.8818182 122.183544,29.9681818 C122.867089,29.9681818 123.550633,29.7954545 124.31962,29.5363636 C125.088608,29.2772727 125.772152,28.8454545 126.455696,28.1545455 C127.139241,27.4636364 127.651899,26.6 128.079114,25.3909091 C128.506329,24.1818182 128.762658,22.7136364 128.762658,20.9 C128.762658,19.0863636 128.506329,17.4454545 127.993671,16.15 C127.481013,14.8545455 126.712025,13.8181818 125.686709,13.0409091 C124.746835,12.2636364 123.636076,11.9181818 122.268987,11.9181818 Z M120.816456,17.5318182 C121.158228,16.5818182 121.670886,16.15 122.183544,16.15 C122.696203,16.15 123.208861,16.5818182 123.550633,17.5318182 C123.892405,18.3090909 124.063291,19.1727273 124.148734,20.2090909 L124.148734,20.8136364 C124.148734,20.8136364 124.148734,20.8136364 124.148734,20.8136364 C124.148734,20.8136364 124.148734,20.8136364 124.148734,20.8136364 C124.148734,20.8136364 124.148734,20.9 124.148734,20.9 L124.148734,21.2454545 C124.148734,22.3681818 123.892405,23.3181818 123.550633,24.1818182 C123.208861,25.1318182 122.696203,25.5636364 122.183544,25.5636364 C121.670886,25.5636364 121.158228,25.1318182 120.816456,24.1818182 C120.474684,23.2318182 120.218354,22.1954545 120.218354,20.9 C120.218354,19.5181818 120.389241,18.4818182 120.816456,17.5318182 Z" id="Shape" fill="#FFFFFF"></path>
                    <path d="M107.14557,12.4363636 L107.14557,12.7818182 L104.838608,12.7818182 L104.838608,16.0636364 L107.14557,16.0636364 L107.14557,29.7090909 L111.759494,29.7090909 L111.759494,16.0636364 L114.75,16.0636364 L114.75,12.7818182 L111.759494,12.7818182 L111.759494,12.35 C111.844937,9.67272727 113.041139,8.46363636 115.348101,8.72272727 L115.348101,4.92272727 C109.96519,4.23181818 107.231013,6.65 107.14557,12.4363636 Z" id="Shape" fill="#FFFFFF"></path>
                    <path d="M103.044304,18.3954545 C103.044304,16.4090909 102.702532,14.8545455 102.018987,13.7318182 C101.25,12.5227273 100.139241,11.9181818 98.5158228,11.9181818 C98.3449367,11.9181818 98.1740506,11.9181818 98.0031646,11.9181818 L97.8322785,11.9181818 C97.8322785,11.9181818 97.7468354,11.9181818 97.7468354,11.9181818 C97.7468354,11.9181818 97.7468354,11.9181818 97.7468354,11.9181818 C96.5506329,12.0909091 95.3544304,12.5227273 94.2436709,13.3 L94.2436709,12.1772727 L90.2278481,12.1772727 L90.2278481,29.6227273 L94.8417722,29.6227273 L94.8417722,19 C94.8417722,18.8272727 94.8417722,18.7409091 94.8417722,18.5681818 C95.1835443,17.0136364 95.8670886,16.2363636 96.721519,16.0636364 C97.5759494,16.0636364 98.1740506,16.8409091 98.5158228,18.4818182 C98.5158228,18.5681818 98.5158228,18.5681818 98.5158228,18.6545455 L98.5158228,29.6227273 L103.129747,29.6227273 L103.129747,18.3954545 L103.044304,18.3954545 Z" id="Shape" fill="#FFFFFF"></path>
                    <path d="M86.8101266,7.51363636 C86.8101266,6.82272727 86.5537975,6.30454545 86.1265823,5.87272727 C85.6993671,5.35454545 85.1012658,5.18181818 84.5031646,5.18181818 C83.8196203,5.18181818 83.306962,5.44090909 82.8797468,5.87272727 C82.4525316,6.30454545 82.1962025,6.90909091 82.1962025,7.51363636 C82.1962025,8.20454545 82.4525316,8.72272727 82.8797468,9.15454545 C83.306962,9.58636364 83.9050633,9.84545455 84.5031646,9.84545455 C85.1867089,9.84545455 85.6993671,9.58636364 86.1265823,9.15454545 C86.6392405,8.72272727 86.8101266,8.20454545 86.8101266,7.51363636 Z" id="Shape" fill="#FFFFFF"></path>
                    <polygon id="Shape" fill="#FFFFFF" points="82.2816456 12.1772727 82.2816456 29.6227273 86.8955696 29.6227273 86.8955696 12.1772727"></polygon>
                </g>
            </g>
        </g>
    </g>
</svg>