<?xml version="1.0" encoding="UTF-8"?>
<svg width="15px" height="15px" viewBox="0 0 15 15" version="1.1" xmlns="http://www.w3.org/2000/svg" xmlns:xlink="http://www.w3.org/1999/xlink">
    <!-- Generator: Sketch 52.3 (67297) - http://www.bohemiancoding.com/sketch -->
    <title>icon-author</title>
    <desc>Created with Sketch.</desc>
    <g id="Page-1" stroke="none" stroke-width="1" fill="none" fill-rule="evenodd">
        <g id="icon-author" transform="translate(-1.000000, 0.000000)" fill="#D6D6D6">
            <path d="M8.5,7.947 C10.357,7.947 11.863,6.168 11.863,3.974 C11.863,0.93 10.357,0 8.5,0 C6.643,0 5.137,0.93 5.137,3.974 C5.137,6.168 6.643,7.947 8.5,7.947 Z M15.926,13.796 L14.226,9.938 C14.1482704,9.76119599 14.0129054,9.61596061 13.842,9.526 L11.209,8.142 C11.1509304,8.11114626 11.0801984,8.11700803 11.028,8.157 C9.53935002,9.31717729 7.45264998,9.31717729 5.964,8.157 C5.91180162,8.11700803 5.84106957,8.11114626 5.783,8.142 L3.15,9.526 C2.97909464,9.61596061 2.84372963,9.76119599 2.766,9.938 L1.066,13.796 C0.949252098,14.0609741 0.973681924,14.3669107 1.131,14.61 C1.28579806,14.8529417 1.55393209,15.0000195 1.842,15 L15.142,15 C15.4300679,15.0000195 15.6982019,14.8529417 15.853,14.61 C16.0115284,14.3692913 16.0389365,14.0651741 15.926,13.8 L15.926,13.796 Z" id="Forma_1"></path>
        </g>
    </g>
</svg>