<svg xmlns="http://www.w3.org/2000/svg" width="25" height="24" viewBox="0 0 25 24">
  <metadata><?xpacket begin="﻿" id="W5M0MpCehiHzreSzNTczkc9d"?>
<x:xmpmeta xmlns:x="adobe:ns:meta/" x:xmptk="Adobe XMP Core 5.6-c138 79.159824, 2016/09/14-01:09:01        ">
   <rdf:RDF xmlns:rdf="http://www.w3.org/1999/02/22-rdf-syntax-ns#">
      <rdf:Description rdf:about=""/>
   </rdf:RDF>
</x:xmpmeta>
                                                                                                    
                                                                                                    
                                                                                                    
                                                                                                    
                                                                                                    
                                                                                                    
                                                                                                    
                                                                                                    
                                                                                                    
                                                                                                    
                                                                                                    
                                                                                                    
                                                                                                    
                                                                                                    
                                                                                                    
                                                                                                    
                                                                                                    
                                                                                                    
                                                                                                    
                                                                                                    
                           
<?xpacket end="w"?></metadata>
<defs>
    <style>
      .cls-1 {
        fill: #fff;
        fill-rule: evenodd;
      }
    </style>
  </defs>
  <path id="Фигура_3" data-name="Фигура 3" class="cls-1" d="M810.927,39a1.046,1.046,0,0,1-.895-1.586l2.141-3.546c-5.332-1.129-9.18-4.909-9.18-9.257,0-5.3,5.6-9.608,12.5-9.608s12.5,4.309,12.5,9.608c0,3.96-3.07,7.446-7.835,8.912l-8.679,5.324A1.049,1.049,0,0,1,810.927,39Zm4.562-21.906c-5.739,0-10.408,3.372-10.408,7.517,0,3.7,3.825,6.889,8.9,7.428a1.046,1.046,0,0,1,.782,1.58l-0.725,1.2,5.139-3.151a1.019,1.019,0,0,1,.247-0.11c3.934-1.171,6.476-3.9,6.476-6.949C825.9,20.465,821.227,17.093,815.489,17.093Z" transform="translate(-803 -15)"/>
</svg>
