<svg xmlns="http://www.w3.org/2000/svg" xmlns:xlink="http://www.w3.org/1999/xlink" viewBox="0 0 102.75 102.5"><defs><style>.cls-1{fill:none;}.cls-2{fill:#ea3d1b;}.cls-3{clip-path:url(#clip-path);}.cls-4{fill:#f44a22;}.cls-5{fill:#c94a3a;}.cls-6{fill:#fff;}.cls-7{fill:#4f4c49;}.cls-8{fill:#ff6034;}.cls-9{fill:#c63226;}.cls-10{fill:#ff7853;}.cls-11{fill:#64090d;}.cls-12{clip-path:url(#clip-path-2);}.cls-13{fill:#e0adb4;}</style><clipPath id="clip-path"><circle id="_Обтравочный_контур_" data-name="&lt;Обтравочный контур&gt;" class="cls-1" cx="52.75" cy="52.5" r="50"/></clipPath><clipPath id="clip-path-2"><path id="_Прямоугольник_" data-name="&lt;Прямоугольник&gt;" class="cls-1" d="M45.37,68.25H58.12A11.87,11.87,0,0,1,70,80.12v0a6.13,6.13,0,0,1-6.13,6.13H39.62a6.12,6.12,0,0,1-6.12-6.12v0A11.87,11.87,0,0,1,45.37,68.25Z"/></clipPath></defs><title>Ресурс 1</title><g id="Слой_2" data-name="Слой 2"><g id="злой"><g id="_Группа_" data-name="&lt;Группа&gt;"><circle id="_Контур_" data-name="&lt;Контур&gt;" class="cls-2" cx="52.75" cy="52.5" r="50"/><g id="_Группа_обтравки_" data-name="&lt;Группа обтравки&gt;"><g class="cls-3"><circle id="_Контур_2" data-name="&lt;Контур&gt;" class="cls-4" cx="48.75" cy="48.75" r="48.75"/></g></g><circle id="_Контур_3" data-name="&lt;Контур&gt;" class="cls-5" cx="25.87" cy="38.87" r="8.88"/><circle id="_Контур_4" data-name="&lt;Контур&gt;" class="cls-6" cx="34.75" cy="47.5" r="11.25"/><circle id="_Контур_5" data-name="&lt;Контур&gt;" class="cls-7" cx="34.75" cy="47.5" r="4.5"/><rect id="_Прямоугольник_2" data-name="&lt;Прямоугольник&gt;" class="cls-8" x="12.04" y="26.75" width="48.5" height="19" transform="translate(24.38 -13.64) rotate(31.6)"/><circle id="_Контур_6" data-name="&lt;Контур&gt;" class="cls-9" cx="25.87" cy="38.87" r="8.88"/><circle id="_Контур_7" data-name="&lt;Контур&gt;" class="cls-6" cx="34.75" cy="47.5" r="11.25"/><circle id="_Контур_8" data-name="&lt;Контур&gt;" class="cls-7" cx="34.75" cy="47.5" r="4.5"/><rect id="_Прямоугольник_3" data-name="&lt;Прямоугольник&gt;" class="cls-4" x="12.04" y="26.75" width="48.5" height="19" transform="translate(24.38 -13.64) rotate(31.6)"/><rect id="_Прямоугольник_4" data-name="&lt;Прямоугольник&gt;" class="cls-10" x="9.75" y="56.55" width="12.25" height="8.95" rx="4.48" ry="4.48"/><circle id="_Контур_9" data-name="&lt;Контур&gt;" class="cls-9" cx="79.63" cy="38.87" r="8.88"/><circle id="_Контур_10" data-name="&lt;Контур&gt;" class="cls-6" cx="70.75" cy="47.5" r="11.25"/><circle id="_Контур_11" data-name="&lt;Контур&gt;" class="cls-7" cx="70.75" cy="47.5" r="4.5"/><rect id="_Прямоугольник_5" data-name="&lt;Прямоугольник&gt;" class="cls-4" x="44.96" y="26.75" width="48.5" height="19" transform="translate(147.14 30.86) rotate(148.4)"/><rect id="_Прямоугольник_6" data-name="&lt;Прямоугольник&gt;" class="cls-10" x="83.5" y="56.55" width="12.25" height="8.95" rx="4.48" ry="4.48" transform="translate(179.25 122.05) rotate(180)"/><path id="_Прямоугольник_7" data-name="&lt;Прямоугольник&gt;" class="cls-11" d="M45.37,68.25H58.12A11.87,11.87,0,0,1,70,80.12v0a6.13,6.13,0,0,1-6.13,6.13H39.62a6.12,6.12,0,0,1-6.12-6.12v0A11.87,11.87,0,0,1,45.37,68.25Z"/><g id="_Группа_обтравки_2" data-name="&lt;Группа обтравки&gt;"><g class="cls-12"><path id="_Прямоугольник_8" data-name="&lt;Прямоугольник&gt;" class="cls-13" d="M41.87,80.25H61.62a3.63,3.63,0,0,1,3.63,3.63v5.37a0,0,0,0,1,0,0h-27a0,0,0,0,1,0,0V83.87A3.63,3.63,0,0,1,41.87,80.25Z"/><path id="_Прямоугольник_9" data-name="&lt;Прямоугольник&gt;" class="cls-13" d="M38.25,65.5h27a0,0,0,0,1,0,0v6.87A3.63,3.63,0,0,1,61.62,76H41.87a3.63,3.63,0,0,1-3.63-3.63V65.5A0,0,0,0,1,38.25,65.5Z"/></g></g><g id="_Группа_2" data-name="&lt;Группа&gt;"><path id="_Контур_12" data-name="&lt;Контур&gt;" class="cls-9" d="M52.75,42.25a3.48,3.48,0,0,1-1.83-.52L36.4,32.8a3.5,3.5,0,0,1,3.67-6l14.52,8.93a3.5,3.5,0,0,1-1.84,6.48Z"/></g><g id="_Группа_3" data-name="&lt;Группа&gt;"><path id="_Контур_13" data-name="&lt;Контур&gt;" class="cls-9" d="M52.75,42.25a3.5,3.5,0,0,1-1.84-6.48l14.52-8.93a3.5,3.5,0,1,1,3.67,6L54.58,41.73A3.48,3.48,0,0,1,52.75,42.25Z"/></g></g></g></g></svg>