<?xml version="1.0" encoding="UTF-8"?>
<svg width="22px" height="18px" viewBox="0 0 22 18" version="1.1" xmlns="http://www.w3.org/2000/svg" xmlns:xlink="http://www.w3.org/1999/xlink">
    <!-- Generator: Sketch 44.1 (41455) - http://www.bohemiancoding.com/sketch -->
    <title>Path</title>
    <desc>Created with Sketch.</desc>
    <defs></defs>
    <g id="Page-1" stroke="none" stroke-width="1" fill="none" fill-rule="evenodd">
        <path d="M21.2,3 L10.4,16.4 C10.1,16.8 9.7,17 9.2,17.1 C9.2,17.1 9.1,17.1 9.1,17.1 C8.7,17.1 8.2,16.9 7.9,16.6 L0.9,10.3 C0.4,9.8 0.3,9 0.8,8.5 C1,8.2 1.4,8.1 1.7,8.1 C2,8.1 2.4,8.2 2.6,8.4 L8.9,14.1 L19.1,1.4 C19.6,0.8 20.4,0.8 20.9,1.2 L20.9,1.2 C21.6,1.7 21.7,2.5 21.2,3 Z" id="Path" fill="#FFFFFF"></path>
    </g>
</svg>