<?xml version="1.0" encoding="utf-8"?>
<!-- Generator: Adobe Illustrator 21.1.0, SVG Export Plug-In . SVG Version: 6.00 Build 0)  -->
<svg version="1.1" id="Слой_1" xmlns="http://www.w3.org/2000/svg" xmlns:xlink="http://www.w3.org/1999/xlink" x="0px" y="0px"
	 viewBox="0 0 40 46" style="enable-background:new 0 0 40 46;" xml:space="preserve">
<style type="text/css">
	.st0{fill:#1D8F7F;}
</style>
<g>
	<path class="st0" d="M29.8,23.2c0-6.8-5.1-12.7-11.9-13.7l-0.3,0V9.1V2c0-0.4-0.3-0.7-0.7-0.7c-0.4,0-0.7,0.3-0.7,0.7v8.1v1
		l-0.7-0.7l-2.9-2.9c-0.1-0.1-0.3-0.2-0.5-0.2c-0.2,0-0.3,0.1-0.5,0.2c-0.1,0.1-0.2,0.3-0.2,0.5c0,0.2,0.1,0.3,0.2,0.5l4.4,4.4
		l0.1,0.1v0.2v7.8v0.7l-0.6-0.3l-6.9-4l-0.1-0.1l0-0.2l-1.6-6c-0.1-0.3-0.3-0.5-0.6-0.5c-0.1,0-0.1,0-0.2,0c-0.2,0-0.3,0.2-0.4,0.3
		c-0.1,0.2-0.1,0.3-0.1,0.5l1,3.9L7,16.3l-0.8-0.5l-5.2-3c-0.1-0.1-0.2-0.1-0.3-0.1c-0.2,0-0.5,0.1-0.6,0.3C0,13.2,0,13.4,0,13.5
		c0,0.2,0.2,0.3,0.3,0.4l5.1,3l0.8,0.5l-0.9,0.2l-3.9,1.1c-0.2,0-0.3,0.2-0.4,0.3C1,19.2,0.9,19.3,1,19.5C1.1,19.8,1.3,20,1.6,20
		c0.1,0,0.1,0,0.2,0l6-1.6l0.2,0l0.1,0.1l7,4l0.6,0.3L15,23.1l-7.7,4.4l-0.1,0.1l-0.2,0L1.2,26C1.1,26,1,26,1,26
		c-0.3,0-0.6,0.2-0.6,0.5c0,0.2,0,0.3,0.1,0.5c0.1,0.2,0.2,0.3,0.4,0.3l3.8,1l0.9,0.2l-0.8,0.5l-4.4,2.6c-0.3,0.2-0.4,0.6-0.2,0.9
		c0.1,0.2,0.3,0.3,0.6,0.3c0.1,0,0.2,0,0.3-0.1l4.5-2.6l0.8-0.5l-0.2,0.9l-1,4c0,0.2,0,0.3,0.1,0.5c0.1,0.2,0.2,0.3,0.4,0.3
		c0.1,0,0.1,0,0.2,0c0.3,0,0.6-0.2,0.6-0.5l1.6-6l0-0.2l0.1-0.1l7.6-4.4l0.6-0.3v0.7V33v0.2l-0.1,0.1l-4.4,4.4
		c-0.3,0.3-0.3,0.7,0,0.9c0.1,0.1,0.3,0.2,0.5,0.2s0.3-0.1,0.5-0.2l2.9-2.9l0.7-0.7v1v8.3c0,0.4,0.3,0.7,0.7,0.7
		c0.4,0,0.7-0.3,0.7-0.7v-7.1v-0.3l0.3,0C24.7,35.9,29.8,30,29.8,23.2z M18.2,35.5l-0.5,0.1v-0.5V11.3v-0.5l0.5,0.1
		c5.9,1,10.3,6.3,10.3,12.3C28.5,29.1,24.1,34.4,18.2,35.5z"/>
	<path class="st0" d="M39.3,22.2H33c-0.4,0-0.7,0.3-0.7,0.7c0,0.4,0.3,0.7,0.7,0.7h6.3c0.4,0,0.7-0.3,0.7-0.7
		C40,22.5,39.7,22.2,39.3,22.2z"/>
	<path class="st0" d="M30.3,33l5.5,3.2c0.1,0.1,0.2,0.1,0.3,0.1c0.2,0,0.5-0.1,0.6-0.3c0.1-0.2,0.1-0.3,0.1-0.5
		c0-0.2-0.2-0.3-0.3-0.4l-5.5-3.2c-0.1-0.1-0.2-0.1-0.3-0.1c-0.2,0-0.5,0.1-0.6,0.3C29.8,32.4,30,32.8,30.3,33z"/>
	<path class="st0" d="M27.3,45.5c0.3-0.2,0.4-0.6,0.2-0.9l-3.2-5.5c-0.1-0.2-0.3-0.3-0.6-0.3c-0.1,0-0.2,0-0.3,0.1
		c-0.3,0.2-0.4,0.6-0.2,0.9l3.2,5.5c0.1,0.2,0.3,0.3,0.6,0.3C27.1,45.6,27.2,45.6,27.3,45.5z"/>
	<path class="st0" d="M29.7,13.7c0.1,0.2,0.3,0.3,0.6,0.3c0.1,0,0.2,0,0.3-0.1l5.5-3.2c0.3-0.2,0.4-0.6,0.2-0.9
		c-0.1-0.2-0.3-0.3-0.6-0.3c-0.1,0-0.2,0-0.3,0.1l-5.5,3.2C29.6,13,29.5,13.4,29.7,13.7z"/>
	<path class="st0" d="M26.7,0.5c-0.1-0.1-0.2-0.1-0.3-0.1c-0.2,0-0.5,0.1-0.6,0.3l-3.2,5.5c-0.2,0.3-0.1,0.7,0.2,0.9
		c0.1,0.1,0.2,0.1,0.3,0.1c0.2,0,0.5-0.1,0.6-0.3l3.2-5.5C27.1,1.1,27,0.6,26.7,0.5z"/>
</g>
</svg>
