<?xml version="1.0" encoding="utf-8"?>
<!-- Generator: Adobe Illustrator 21.1.0, SVG Export Plug-In . SVG Version: 6.00 Build 0)  -->
<svg version="1.1" id="Слой_1" xmlns="http://www.w3.org/2000/svg" xmlns:xlink="http://www.w3.org/1999/xlink" x="0px" y="0px"
	 viewBox="0 0 34 31.1" style="enable-background:new 0 0 34 31.1;" xml:space="preserve">
<g>
	<path d="M33.2,14.8c0.2,0,0.4-0.1,0.4-0.3l0.4-1.6c0-0.1,0-0.2-0.1-0.4c-0.1-0.1-0.2-0.2-0.3-0.2h-5.3v-2.2h1.4
		c0.2,0,0.4-0.1,0.4-0.3l0.5-1.6c0-0.1,0-0.2-0.1-0.4c-0.1-0.1-0.2-0.2-0.3-0.2H16.9V3.7c0.1,0,0.2,0,0.4,0c0.4,0,0.7,0,1.1-0.1
		c0.6-0.1,1.1-0.2,1.7,0c0.1,0,0.2,0,0.4-0.1c0.1-0.1,0.2-0.2,0.2-0.3V0.9c0-0.2-0.1-0.3-0.3-0.4c-0.7-0.2-1.4-0.1-2,0
		c-0.5,0.1-0.9,0.1-1.4,0.1V0.4C17,0.2,16.8,0,16.6,0s-0.4,0.2-0.4,0.4V1v2.3v4.3h-12c-0.1,0-0.2,0-0.3,0.2C3.8,7.9,3.8,8.1,3.8,8.3
		l0.4,1.6c0,0.2,0.2,0.3,0.4,0.3H6v2.2H0.7c-0.1,0-0.2,0-0.3,0.2c-0.1,0.1-0.1,0.2-0.1,0.4l0.4,1.6c0,0.2,0.2,0.3,0.4,0.3h1.6v15.4
		H0.4c-0.2,0-0.4,0.2-0.4,0.4s0.2,0.4,0.4,0.4h2.7h2H8h2.2h2.9h1.7h4.4H21h2.9h2.2H29h2h2.4c0.2,0,0.4-0.2,0.4-0.4s-0.2-0.4-0.4-0.4
		h-2V14.8H33.2z M18.4,1.4c0.5-0.1,0.9-0.1,1.4-0.1v1.5c-0.5,0-1,0-1.5,0.1S17.4,3,16.9,3V1.5C17.5,1.6,18,1.5,18.4,1.4z M4.7,8.5
		h24.9l-0.2,0.8h-1.5H6.4H4.9L4.7,8.5z M6.8,10.2h20.7v2.2H6.8V10.2z M1.2,13.2h5.2h21.5h5.2L32.9,14h-1.7h-2.6h-1.8h-3.4h-1.8h-9
		h-1.8H7.4H5.6H3H1.3L1.2,13.2z M26.4,14.8l-0.5,15.5h-1.4L24,14.9L26.4,14.8L26.4,14.8z M18.2,24H16c-0.9,0-1.6,0.7-1.6,1.6v4.7
		h-0.8l-0.5-15.4h8.3l-0.5,15.4h-1.1v-4.7C19.7,24.7,19,24,18.2,24z M10.4,14.8L9.9,30.2H8.5L8,14.8H10.4z M3.5,14.8h1.8L4.8,30.2
		H3.6L3.5,14.8L3.5,14.8z M5.5,30.3L6,14.9h1l0.6,15.4H5.5z M10.7,30.3l0.5-15.4h1l0.5,15.4H10.7z M15.3,30.3v-4.7
		c0-0.4,0.3-0.7,0.7-0.7h2.2c0.4,0,0.7,0.3,0.7,0.7v4.7H15.3z M21.6,30.3l0.5-15.4h1l0.5,15.4H21.6z M26.7,30.3l0.5-15.4h1l0.5,15.4
		H26.7z M30.7,30.3h-1.2L29,14.9h1.8L30.7,30.3L30.7,30.3z"/>
	<path d="M18.1,16.1H16c-0.6,0-1.1,0.5-1.1,1.1v0.7c0,0.6,0.5,1.1,1.1,1.1h2.1c0.6,0,1.1-0.5,1.1-1.1v-0.7
		C19.3,16.6,18.7,16.1,18.1,16.1z M18.4,17.9c0,0.2-0.1,0.3-0.3,0.3H16c-0.2,0-0.3-0.1-0.3-0.3v-0.7c0-0.2,0.1-0.3,0.3-0.3h2.1
		c0.2,0,0.3,0.1,0.3,0.3V17.9z"/>
	<path d="M18.1,20.1H16c-0.6,0-1.1,0.5-1.1,1.1v0.7c0,0.6,0.5,1.1,1.1,1.1h2.1c0.6,0,1.1-0.5,1.1-1.1v-0.7
		C19.3,20.6,18.7,20.1,18.1,20.1z M18.4,21.9c0,0.2-0.1,0.3-0.3,0.3H16c-0.2,0-0.3-0.1-0.3-0.3v-0.7c0-0.2,0.1-0.3,0.3-0.3h2.1
		c0.2,0,0.3,0.1,0.3,0.3V21.9z"/>
</g>
</svg>
