<?xml version="1.0" encoding="utf-8"?>
<!-- Generator: Adobe Illustrator 21.1.0, SVG Export Plug-In . SVG Version: 6.00 Build 0)  -->
<svg version="1.1" id="Слой_1" xmlns="http://www.w3.org/2000/svg" xmlns:xlink="http://www.w3.org/1999/xlink" x="0px" y="0px"
	 viewBox="0 0 36 36" style="enable-background:new 0 0 36 36;" xml:space="preserve">
<style type="text/css">
	.st0{fill:#999999;}
</style>
<path class="st0" d="M12.8,15.1c0.9,0,1.5-0.7,1.5-1.5c0-0.9-0.7-1.5-1.5-1.5c-0.9,0-1.5,0.7-1.5,1.5C11.3,14.4,12,15.1,12.8,15.1z
	 M23.4,15.1c0.9,0,1.5-0.7,1.5-1.5c0-0.9-0.7-1.5-1.5-1.5c-0.9,0-1.5,0.7-1.5,1.5C21.9,14.4,22.5,15.1,23.4,15.1z M18,0
	C8.1,0,0,8.1,0,18s8.1,18,18,18s18-8.1,18-18C36,8.1,27.9,0,18,0z M18,34.8C8.7,34.8,1.2,27.3,1.2,18S8.7,1.2,18,1.2
	S34.8,8.7,34.8,18C34.8,27.3,27.3,34.8,18,34.8z M27.7,20.4c-0.3,0-0.6,0.3-0.6,0.6c0,3.5-4.2,7.9-9.2,7.9c-4.9,0-9.2-4.3-9.2-7.9
	c0-0.3-0.3-0.6-0.6-0.6S7.5,20.7,7.5,21c0,4.1,4.6,9.1,10.4,9.1s10.4-5,10.4-9.1C28.3,20.7,28,20.4,27.7,20.4z"/>
</svg>
