<?xml version="1.0" encoding="utf-8"?>
<!-- Generator: Adobe Illustrator 21.1.0, SVG Export Plug-In . SVG Version: 6.00 Build 0)  -->
<svg version="1.1" id="Слой_1" xmlns="http://www.w3.org/2000/svg" xmlns:xlink="http://www.w3.org/1999/xlink" x="0px" y="0px"
	 viewBox="0 0 40 40" style="enable-background:new 0 0 40 40;" xml:space="preserve">
<style type="text/css">
	.st0{fill:#999999;}
</style>
<g>
	<g transform="translate(-943.000000, -362.000000)">
		<g transform="translate(944.000000, 363.000000)">
			<g>
				<path class="st0" d="M8.3,7C8,7,7.7,6.7,7.7,6.3v-6.7C7.7-0.7,8-1,8.3-1C8.7-1,9-0.7,9-0.3v6.7C9,6.7,8.7,7,8.3,7z"/>
			</g>
			<g>
				<path class="st0" d="M38.3,30.3h-6.7c-0.4,0-0.7-0.3-0.7-0.7c0-0.4,0.3-0.7,0.7-0.7h6.7c0.4,0,0.7,0.3,0.7,0.7
					C39,30,38.7,30.3,38.3,30.3z"/>
			</g>
			<g>
				<path class="st0" d="M6.3,36.3H5.7C5.3,36.3,5,36,5,35.7C5,35.3,5.3,35,5.7,35h0.7C6.7,35,7,35.3,7,35.7C7,36,6.7,36.3,6.3,36.3
					z"/>
			</g>
			<g>
				<path class="st0" d="M9.7,36.3H9c-0.4,0-0.7-0.3-0.7-0.7C8.3,35.3,8.6,35,9,35h0.7c0.4,0,0.7,0.3,0.7,0.7
					C10.3,36,10,36.3,9.7,36.3z"/>
			</g>
			<g>
				<path class="st0" d="M13,36.3h-0.7c-0.4,0-0.7-0.3-0.7-0.7c0-0.4,0.3-0.7,0.7-0.7H13c0.4,0,0.7,0.3,0.7,0.7
					C13.7,36,13.4,36.3,13,36.3z"/>
			</g>
			<g>
				<path class="st0" d="M16.3,36.3h-0.7c-0.4,0-0.7-0.3-0.7-0.7c0-0.4,0.3-0.7,0.7-0.7h0.7c0.4,0,0.7,0.3,0.7,0.7
					C17,36,16.7,36.3,16.3,36.3z"/>
			</g>
			<g>
				<path class="st0" d="M19.7,36.3H19c-0.4,0-0.7-0.3-0.7-0.7c0-0.4,0.3-0.7,0.7-0.7h0.7c0.4,0,0.7,0.3,0.7,0.7
					C20.3,36,20,36.3,19.7,36.3z"/>
			</g>
			<g>
				<path class="st0" d="M23,36.3h-0.7c-0.4,0-0.7-0.3-0.7-0.7c0-0.4,0.3-0.7,0.7-0.7H23c0.4,0,0.7,0.3,0.7,0.7
					C23.7,36,23.4,36.3,23,36.3z"/>
			</g>
			<g>
				<path class="st0" d="M26.3,36.3h-0.7c-0.4,0-0.7-0.3-0.7-0.7c0-0.4,0.3-0.7,0.7-0.7h0.7c0.4,0,0.7,0.3,0.7,0.7
					C27,36,26.7,36.3,26.3,36.3z"/>
			</g>
			<g>
				<path class="st0" d="M29.7,36.3H29c-0.4,0-0.7-0.3-0.7-0.7c0-0.4,0.3-0.7,0.7-0.7h0.7c0.4,0,0.7,0.3,0.7,0.7
					C30.3,36,30,36.3,29.7,36.3z"/>
			</g>
			<g>
				<path class="st0" d="M33,36.3h-0.7c-0.4,0-0.7-0.3-0.7-0.7c0-0.4,0.3-0.7,0.7-0.7H33c0.4,0,0.7,0.3,0.7,0.7
					C33.7,36,33.4,36.3,33,36.3z"/>
			</g>
			<g>
				<path class="st0" d="M35.7,39c-0.4,0-0.7-0.3-0.7-0.7v-2.7c0-0.4,0.3-0.7,0.7-0.7h2.7c0.4,0,0.7,0.3,0.7,0.7
					c0,0.4-0.3,0.7-0.7,0.7h-2v2C36.3,38.7,36,39,35.7,39z"/>
			</g>
			<g>
				<path class="st0" d="M33,3h-0.7c-0.4,0-0.7-0.3-0.7-0.7s0.3-0.7,0.7-0.7H33c0.4,0,0.7,0.3,0.7,0.7S33.4,3,33,3z"/>
			</g>
			<g>
				<path class="st0" d="M29.7,3H29c-0.4,0-0.7-0.3-0.7-0.7s0.3-0.7,0.7-0.7h0.7c0.4,0,0.7,0.3,0.7,0.7S30,3,29.7,3z"/>
			</g>
			<g>
				<path class="st0" d="M26.3,3h-0.7C25.3,3,25,2.7,25,2.3s0.3-0.7,0.7-0.7h0.7C26.7,1.7,27,2,27,2.3S26.7,3,26.3,3z"/>
			</g>
			<g>
				<path class="st0" d="M23,3h-0.7c-0.4,0-0.7-0.3-0.7-0.7s0.3-0.7,0.7-0.7H23c0.4,0,0.7,0.3,0.7,0.7S23.4,3,23,3z"/>
			</g>
			<g>
				<path class="st0" d="M19.7,3H19c-0.4,0-0.7-0.3-0.7-0.7s0.3-0.7,0.7-0.7h0.7c0.4,0,0.7,0.3,0.7,0.7S20,3,19.7,3z"/>
			</g>
			<g>
				<path class="st0" d="M16.3,3h-0.7C15.3,3,15,2.7,15,2.3s0.3-0.7,0.7-0.7h0.7C16.7,1.7,17,2,17,2.3S16.7,3,16.3,3z"/>
			</g>
			<g>
				<path class="st0" d="M13,3h-0.7c-0.4,0-0.7-0.3-0.7-0.7s0.3-0.7,0.7-0.7H13c0.4,0,0.7,0.3,0.7,0.7S13.4,3,13,3z"/>
			</g>
			<g>
				<path class="st0" d="M9.7,3H8.3C8,3,7.7,2.7,7.7,2.3S8,1.7,8.3,1.7h1.3c0.4,0,0.7,0.3,0.7,0.7S10,3,9.7,3z"/>
			</g>
			<g>
				<path class="st0" d="M5.7,3H5C4.6,3,4.3,2.7,4.3,2.3S4.6,1.7,5,1.7h0.7C6,1.7,6.3,2,6.3,2.3S6,3,5.7,3z"/>
			</g>
			<g>
				<path class="st0" d="M38.3,3h-2.7C35.3,3,35,2.7,35,2.3v-2.7C35-0.7,35.3-1,35.7-1c0.4,0,0.7,0.3,0.7,0.7v2h2
					C38.7,1.7,39,2,39,2.3S38.7,3,38.3,3z"/>
			</g>
			<g>
				<path class="st0" d="M2.3,3h-2.7C-0.7,3-1,2.7-1,2.3s0.3-0.7,0.7-0.7h2v-2C1.7-0.7,2-1,2.3-1S3-0.7,3-0.3v2.7C3,2.7,2.7,3,2.3,3
					z"/>
			</g>
			<g>
				<path class="st0" d="M2.3,7C2,7,1.7,6.7,1.7,6.3V5.7C1.7,5.3,2,5,2.3,5S3,5.3,3,5.7v0.7C3,6.7,2.7,7,2.3,7z"/>
			</g>
			<g>
				<path class="st0" d="M2.3,10.3C2,10.3,1.7,10,1.7,9.7V9c0-0.4,0.3-0.7,0.7-0.7S3,8.6,3,9v0.7C3,10,2.7,10.3,2.3,10.3z"/>
			</g>
			<g>
				<path class="st0" d="M2.3,13.7c-0.4,0-0.7-0.3-0.7-0.7v-0.7c0-0.4,0.3-0.7,0.7-0.7S3,12,3,12.3V13C3,13.4,2.7,13.7,2.3,13.7z"/>
			</g>
			<g>
				<path class="st0" d="M2.3,17c-0.4,0-0.7-0.3-0.7-0.7v-0.7C1.7,15.3,2,15,2.3,15S3,15.3,3,15.7v0.7C3,16.7,2.7,17,2.3,17z"/>
			</g>
			<g>
				<path class="st0" d="M2.3,20.3c-0.4,0-0.7-0.3-0.7-0.7V19c0-0.4,0.3-0.7,0.7-0.7S3,18.6,3,19v0.7C3,20,2.7,20.3,2.3,20.3z"/>
			</g>
			<g>
				<path class="st0" d="M2.3,23.7c-0.4,0-0.7-0.3-0.7-0.7v-0.7c0-0.4,0.3-0.7,0.7-0.7S3,22,3,22.3V23C3,23.4,2.7,23.7,2.3,23.7z"/>
			</g>
			<g>
				<path class="st0" d="M2.3,27c-0.4,0-0.7-0.3-0.7-0.7v-0.7C1.7,25.3,2,25,2.3,25S3,25.3,3,25.7v0.7C3,26.7,2.7,27,2.3,27z"/>
			</g>
			<g>
				<path class="st0" d="M2.3,30.3c-0.4,0-0.7-0.3-0.7-0.7V29c0-0.4,0.3-0.7,0.7-0.7S3,28.6,3,29v0.7C3,30,2.7,30.3,2.3,30.3z"/>
			</g>
			<g>
				<path class="st0" d="M2.3,33.7c-0.4,0-0.7-0.3-0.7-0.7v-0.7c0-0.4,0.3-0.7,0.7-0.7S3,32,3,32.3V33C3,33.4,2.7,33.7,2.3,33.7z"/>
			</g>
			<g>
				<path class="st0" d="M35.7,6.3C35.3,6.3,35,6,35,5.7V5c0-0.4,0.3-0.7,0.7-0.7c0.4,0,0.7,0.3,0.7,0.7v0.7C36.3,6,36,6.3,35.7,6.3
					z"/>
			</g>
			<g>
				<path class="st0" d="M35.7,9.7C35.3,9.7,35,9.4,35,9V8.3c0-0.4,0.3-0.7,0.7-0.7c0.4,0,0.7,0.3,0.7,0.7V9
					C36.3,9.4,36,9.7,35.7,9.7z"/>
			</g>
			<g>
				<path class="st0" d="M35.7,13c-0.4,0-0.7-0.3-0.7-0.7v-0.7c0-0.4,0.3-0.7,0.7-0.7c0.4,0,0.7,0.3,0.7,0.7v0.7
					C36.3,12.7,36,13,35.7,13z"/>
			</g>
			<g>
				<path class="st0" d="M35.7,16.3c-0.4,0-0.7-0.3-0.7-0.7V15c0-0.4,0.3-0.7,0.7-0.7c0.4,0,0.7,0.3,0.7,0.7v0.7
					C36.3,16,36,16.3,35.7,16.3z"/>
			</g>
			<g>
				<path class="st0" d="M35.7,19.7c-0.4,0-0.7-0.3-0.7-0.7v-0.7c0-0.4,0.3-0.7,0.7-0.7c0.4,0,0.7,0.3,0.7,0.7V19
					C36.3,19.4,36,19.7,35.7,19.7z"/>
			</g>
			<g>
				<path class="st0" d="M35.7,23c-0.4,0-0.7-0.3-0.7-0.7v-0.7c0-0.4,0.3-0.7,0.7-0.7c0.4,0,0.7,0.3,0.7,0.7v0.7
					C36.3,22.7,36,23,35.7,23z"/>
			</g>
			<g>
				<path class="st0" d="M35.7,26.3c-0.4,0-0.7-0.3-0.7-0.7V25c0-0.4,0.3-0.7,0.7-0.7c0.4,0,0.7,0.3,0.7,0.7v0.7
					C36.3,26,36,26.3,35.7,26.3z"/>
			</g>
			<g>
				<path class="st0" d="M35.7,30.3c-0.4,0-0.7-0.3-0.7-0.7v-1.3c0-0.4,0.3-0.7,0.7-0.7c0.4,0,0.7,0.3,0.7,0.7v1.3
					C36.3,30,36,30.3,35.7,30.3z"/>
			</g>
			<g>
				<path class="st0" d="M35.7,33.7c-0.4,0-0.7-0.3-0.7-0.7v-0.7c0-0.4,0.3-0.7,0.7-0.7c0.4,0,0.7,0.3,0.7,0.7V33
					C36.3,33.4,36,33.7,35.7,33.7z"/>
			</g>
			<g>
				<path class="st0" d="M2.3,39c-0.4,0-0.7-0.3-0.7-0.7v-2h-2C-0.7,36.3-1,36-1,35.7c0-0.4,0.3-0.7,0.7-0.7h2.7
					C2.7,35,3,35.3,3,35.7v2.7C3,38.7,2.7,39,2.3,39z"/>
			</g>
			<g>
				<path class="st0" d="M28.3,32.3H7c-0.4,0-0.7-0.3-0.7-0.7V9c0-0.4,0.3-0.7,0.7-0.7h21.3C28.7,8.3,29,8.6,29,9v22.7
					C29,32,28.7,32.3,28.3,32.3z M7.7,31h20V9.7h-20V31z"/>
			</g>
			<g>
				<path class="st0" d="M26.3,23.7H9c-0.4,0-0.7-0.3-0.7-0.7s0.3-0.7,0.7-0.7h17.3c0.4,0,0.7,0.3,0.7,0.7S26.7,23.7,26.3,23.7z"/>
			</g>
			<g>
				<path class="st0" d="M24.3,25.7c-0.2,0-0.3-0.1-0.5-0.2c-0.3-0.3-0.3-0.7,0-0.9l1.5-1.5l-1.5-1.5c-0.3-0.3-0.3-0.7,0-0.9
					c0.3-0.3,0.7-0.3,0.9,0l2,2c0.3,0.3,0.3,0.7,0,0.9l-2,2C24.7,25.6,24.5,25.7,24.3,25.7z"/>
			</g>
			<g>
				<path class="st0" d="M11,25.7c-0.2,0-0.3-0.1-0.5-0.2l-2-2c-0.3-0.3-0.3-0.7,0-0.9l2-2c0.3-0.3,0.7-0.3,0.9,0
					c0.3,0.3,0.3,0.7,0,0.9L9.9,23l1.5,1.5c0.3,0.3,0.3,0.7,0,0.9C11.3,25.6,11.2,25.7,11,25.7z"/>
			</g>
			<g>
				<path class="st0" d="M21,30.3c-0.4,0-0.7-0.3-0.7-0.7V11c0-0.4,0.3-0.7,0.7-0.7s0.7,0.3,0.7,0.7v18.7C21.7,30,21.4,30.3,21,30.3
					z"/>
			</g>
			<g>
				<path class="st0" d="M21,30.3c-0.2,0-0.3-0.1-0.5-0.2l-2-2c-0.3-0.3-0.3-0.7,0-0.9c0.3-0.3,0.7-0.3,0.9,0l1.5,1.5l1.5-1.5
					c0.3-0.3,0.7-0.3,0.9,0c0.3,0.3,0.3,0.7,0,0.9l-2,2C21.3,30.3,21.2,30.3,21,30.3z"/>
			</g>
			<g>
				<path class="st0" d="M23,13.7c-0.2,0-0.3-0.1-0.5-0.2L21,11.9l-1.5,1.5c-0.3,0.3-0.7,0.3-0.9,0c-0.3-0.3-0.3-0.7,0-0.9l2-2
					c0.3-0.3,0.7-0.3,0.9,0l2,2c0.3,0.3,0.3,0.7,0,0.9C23.3,13.6,23.2,13.7,23,13.7z"/>
			</g>
		</g>
	</g>
</g>
</svg>
