<?xml version="1.0" encoding="utf-8"?>
<!-- Generator: Adobe Illustrator 21.1.0, SVG Export Plug-In . SVG Version: 6.00 Build 0)  -->
<svg version="1.1" id="Слой_1" xmlns="http://www.w3.org/2000/svg" xmlns:xlink="http://www.w3.org/1999/xlink" x="0px" y="0px"
	 viewBox="0 0 15 12" style="enable-background:new 0 0 15 12;" xml:space="preserve">
<style type="text/css">
	.st0{fill:#BEC6C5;}
</style>
<g>
	<path class="st0" d="M7.5,5.7l6.7-5.4c-0.2-0.1-0.4-0.1-0.6-0.1H1.4C1.2,0.2,1,0.2,0.8,0.3L7.5,5.7z"/>
	<path class="st0" d="M7.9,7.2C7.8,7.3,7.7,7.4,7.5,7.4c-0.2,0-0.3-0.1-0.4-0.2L0,1.5c0,0,0,0.1,0,0.1v8.8c0,0.8,0.6,1.4,1.4,1.4
		h12.1c0.8,0,1.4-0.6,1.4-1.4V1.6c0,0,0-0.1,0-0.1L7.9,7.2z"/>
</g>
</svg>
