<?xml version="1.0" encoding="utf-8"?>
<!-- Generator: Adobe Illustrator 21.1.0, SVG Export Plug-In . SVG Version: 6.00 Build 0)  -->
<svg version="1.1" id="Слой_1" xmlns="http://www.w3.org/2000/svg" xmlns:xlink="http://www.w3.org/1999/xlink" x="0px" y="0px"
	 viewBox="0 0 50 49" style="enable-background:new 0 0 50 49;" xml:space="preserve">
<style type="text/css">
	.st0{fill:#1D8F7F;}
</style>
<g>
	<path class="st0" d="M5.8,44.3c0-0.5-0.4-0.8-0.8-0.8s-0.8,0.4-0.8,0.8c0,0.5,0.4,0.8,0.8,0.8S5.8,44.7,5.8,44.3L5.8,44.3z"/>
	<path class="st0" d="M9.2,44.3c0-0.5-0.4-0.8-0.8-0.8c-0.5,0-0.8,0.4-0.8,0.8c0,0.5,0.4,0.8,0.8,0.8C8.8,45.1,9.2,44.7,9.2,44.3"/>
	<path class="st0" d="M12.5,44.3c0-0.5-0.4-0.8-0.8-0.8s-0.8,0.4-0.8,0.8c0,0.5,0.4,0.8,0.8,0.8S12.5,44.7,12.5,44.3"/>
	<path class="st0" d="M15.8,44.3c0-0.5-0.4-0.8-0.8-0.8s-0.8,0.4-0.8,0.8c0,0.5,0.4,0.8,0.8,0.8S15.8,44.7,15.8,44.3"/>
	<path class="st0" d="M19.2,44.3c0-0.5-0.4-0.8-0.8-0.8c-0.5,0-0.8,0.4-0.8,0.8c0,0.5,0.4,0.8,0.8,0.8
		C18.8,45.1,19.2,44.7,19.2,44.3"/>
	<path class="st0" d="M22.5,44.3c0-0.5-0.4-0.8-0.8-0.8c-0.5,0-0.8,0.4-0.8,0.8c0,0.5,0.4,0.8,0.8,0.8
		C22.1,45.1,22.5,44.7,22.5,44.3"/>
	<path class="st0" d="M25.8,44.3c0-0.5-0.4-0.8-0.8-0.8s-0.8,0.4-0.8,0.8c0,0.5,0.4,0.8,0.8,0.8S25.8,44.7,25.8,44.3"/>
	<path class="st0" d="M29.2,44.3c0-0.5-0.4-0.8-0.8-0.8c-0.5,0-0.8,0.4-0.8,0.8c0,0.5,0.4,0.8,0.8,0.8
		C28.8,45.1,29.2,44.7,29.2,44.3"/>
	<path class="st0" d="M32.5,44.3c0-0.5-0.4-0.8-0.8-0.8s-0.8,0.4-0.8,0.8c0,0.5,0.4,0.8,0.8,0.8S32.5,44.7,32.5,44.3"/>
	<path class="st0" d="M35.8,44.3c0-0.5-0.4-0.8-0.8-0.8s-0.8,0.4-0.8,0.8c0,0.5,0.4,0.8,0.8,0.8S35.8,44.7,35.8,44.3"/>
	<path class="st0" d="M39.2,44.3c0-0.5-0.4-0.8-0.8-0.8c-0.5,0-0.8,0.4-0.8,0.8c0,0.5,0.4,0.8,0.8,0.8
		C38.8,45.1,39.2,44.7,39.2,44.3"/>
	<path class="st0" d="M42.5,44.3c0-0.5-0.4-0.8-0.8-0.8c-0.5,0-0.8,0.4-0.8,0.8c0,0.5,0.4,0.8,0.8,0.8
		C42.1,45.1,42.5,44.7,42.5,44.3"/>
	<path class="st0" d="M45.8,44.3c0-0.5-0.4-0.8-0.8-0.8s-0.8,0.4-0.8,0.8c0,0.5,0.4,0.8,0.8,0.8S45.8,44.7,45.8,44.3"/>
	<path class="st0" d="M46,47.2H4c-1.4,0-2.5-1.2-2.5-2.7c0-1.5,1.1-2.7,2.5-2.7h42c1.4,0,2.5,1.2,2.5,2.7C48.5,46,47.4,47.2,46,47.2
		z M45.8,48.7c2.3,0,4.2-1.9,4.2-4.2c0-2.3-1.9-4.2-4.2-4.2H4.2c-2.3,0-4.2,1.9-4.2,4.2c0,2.3,1.9,4.2,4.2,4.2H45.8z"/>
	<path class="st0" d="M24.8,40.8V26.7H43c0.5,0,0.9,0.3,0.9,0.6v13.4H24.8z M23.7,41.8H45V27.3c0-1-1.1-1.9-2.5-1.9H23.7V41.8z"/>
	<path class="st0" d="M22.5,16.8H5.8c-1.4,0-2.5,1.1-2.5,2.5v22.5H25V19.3C25,17.9,23.9,16.8,22.5,16.8z M23.7,40.5H4.6V18.9
		C4.6,18.4,5,18,5.5,18h17.3c0.5,0,0.9,0.4,0.9,0.9V40.5z"/>
	<path class="st0" d="M33.3,38.4H40c0.5,0,0.8-0.4,0.8-0.8v-5c0-0.5-0.4-0.8-0.8-0.8h-6.7c-0.5,0-0.8,0.4-0.8,0.8v5
		C32.5,38.1,32.9,38.4,33.3,38.4z M33.7,33h5.9v4.2h-5.9V33z"/>
	<path class="st0" d="M40.1,11c0-3-2.3-5.6-5.3-5.9l-0.2,0V0.8c0-0.3-0.2-0.5-0.5-0.5s-0.5,0.2-0.5,0.5v4.3l-0.2,0
		c-3,0.3-5.3,2.9-5.3,5.9c0,1.7,0.4,2.7,1.5,3.8c0.1,0.1,0.2,0.1,0.4,0.1c0,0,0,0,0,0c0.1,0,0.3-0.1,0.4-0.2
		c0.1-0.1,0.1-0.2,0.1-0.4c0-0.1-0.1-0.3-0.2-0.4c-0.9-0.9-1.2-1.7-1.2-3c0-2.7,2.2-4.9,4.9-4.9s4.9,2.2,4.9,4.9
		c0,1.3-0.3,2.1-1.2,3c-0.2,0.2-0.2,0.5,0,0.7c0.1,0.1,0.2,0.1,0.4,0.1c0,0,0,0,0,0c0.1,0,0.3-0.1,0.4-0.2
		C39.7,13.7,40.1,12.6,40.1,11z"/>
	<path class="st0" d="M8.3,30.1H20v-8.3H8.3V30.1z M9.5,22.9h9.3V29H9.5V22.9z"/>
</g>
</svg>
