<?xml version="1.0" encoding="utf-8"?>
<!-- Generator: Adobe Illustrator 21.1.0, SVG Export Plug-In . SVG Version: 6.00 Build 0)  -->
<svg version="1.1" id="Слой_1" xmlns="http://www.w3.org/2000/svg" xmlns:xlink="http://www.w3.org/1999/xlink" x="0px" y="0px"
	 viewBox="0 0 30 43" style="enable-background:new 0 0 30 43;" xml:space="preserve">
<style type="text/css">
	.st0{fill:#1D8F7F;}
</style>
<g>
	<path class="st0" d="M15,39.5H3.4c-0.4,0-0.8-0.3-1-0.9c-0.2-0.6-0.3-1.6-0.3-2.9c0-1.2,0.2-2.7,0.6-4.3c0.9-3.9,3.2-8.1,7.8-10
		c-4.9-1.9-7-6.3-7.8-10.2C2.3,9.7,2.2,8.1,2.2,6.9c0-1.3,0.1-2.3,0.3-2.7c0.1-0.4,0.4-0.7,0.8-0.7H15h11.8c0.4,0,0.6,0.2,0.8,0.7
		c0.1,0.4,0.3,1.4,0.3,2.7c0,1.3-0.1,2.8-0.5,4.5c-0.8,3.9-3,8.2-7.8,10.2c4.6,1.9,6.9,6.2,7.8,10c0.4,1.5,0.5,3,0.6,4.3
		c0,1.3-0.1,2.3-0.3,2.9c-0.2,0.6-0.5,0.9-1,0.9L15,39.5L15,39.5z M3.7,38.2H15h11.3c0.1-0.4,0.2-1.3,0.2-2.3c0-1.1-0.2-2.5-0.5-4
		c-1-4-3.5-8.5-8.9-9.7c-0.3,0-0.5-0.2-0.6-0.5c-0.1-0.4,0.1-0.7,0.5-0.8l0.1,0.7l-0.1-0.7c5.7-1.3,8-5.8,8.9-9.8
		c0.3-1.6,0.5-3,0.5-4.2c0-0.9-0.1-1.6-0.1-2H15H3.7C3.6,5.2,3.5,6,3.5,6.9C3.6,8,3.7,9.5,4,11.1c0.9,4,3.2,8.5,8.9,9.8
		c0.3,0,0.5,0.2,0.6,0.5c0.1,0.4-0.1,0.7-0.5,0.8l-0.1-0.7l0.1,0.7C7.5,23.4,5,27.9,4,31.9c-0.4,1.4-0.5,2.8-0.5,4
		C3.5,36.9,3.5,37.7,3.7,38.2L3.7,38.2z"/>
	<path class="st0" d="M1.3,3.5h27.3V1.3H1.3L1.3,3.5z M29.3,4.8H0.7C0.3,4.8,0,4.5,0,4.2V0.7C0,0.3,0.3,0,0.7,0h28.7
		C29.7,0,30,0.3,30,0.7v3.5C30,4.5,29.7,4.8,29.3,4.8z"/>
	<path class="st0" d="M0.7,38.2h28.7c0.4,0,0.7,0.3,0.7,0.7v3.5c0,0.4-0.3,0.7-0.7,0.7H0.7C0.3,43,0,42.7,0,42.3v-3.5
		C0,38.5,0.3,38.2,0.7,38.2z M28.7,39.5H1.3v2.1h27.3V39.5z"/>
</g>
</svg>
