<?xml version="1.0" encoding="utf-8"?>
<!-- Generator: Adobe Illustrator 21.1.0, SVG Export Plug-In . SVG Version: 6.00 Build 0)  -->
<svg version="1.1" id="Слой_1" xmlns="http://www.w3.org/2000/svg" xmlns:xlink="http://www.w3.org/1999/xlink" x="0px" y="0px"
	 viewBox="0 0 37 46" style="enable-background:new 0 0 37 46;" xml:space="preserve">
<style type="text/css">
	.st0{fill:#1D8F7F;}
</style>
<g>
	<path class="st0" d="M34.9,13.3L23.3,2.2c-2.7-2.6-6.9-2.6-9.6,0L2.1,13.3c-1.4,1.3-2.1,3.1-2.1,5v20.5c0,3.8,3.1,6.9,6.9,6.9h23.2
		c3.8,0,6.9-3.1,6.9-6.9V18.3C37,16.4,36.2,14.6,34.9,13.3z M35.5,38.8c0,3-2.4,5.4-5.4,5.4H6.9c-3,0-5.4-2.4-5.4-5.4V18.3
		c0-1.5,0.6-2.9,1.7-3.9L14.7,3.3c1.1-1,2.4-1.5,3.8-1.5s2.7,0.5,3.8,1.5l11.6,11.1c1.1,1,1.7,2.5,1.7,3.9V38.8z"/>
	<path class="st0" d="M19.9,13.7h-1.1c-3.2,0-5.8,2.6-5.8,5.8v4.7h-2.8c-0.4,0-0.7,0.3-0.7,0.7c0,0.4,0.3,0.7,0.7,0.7H13v5.1h-2.8
		c-0.4,0-0.7,0.3-0.7,0.7c0,0.4,0.3,0.7,0.7,0.7H13v3.5c0,0.4,0.3,0.7,0.7,0.7c0.4,0,0.7-0.3,0.7-0.7v-3.5h5.5
		c0.4,0,0.7-0.3,0.7-0.7c0-0.4-0.3-0.7-0.7-0.7h-5.5v-5.1h5.5c3.1,0,5.5-2.5,5.5-5.5v-0.9C25.4,16.1,22.9,13.7,19.9,13.7z M24,20.1
		c0,2.2-1.8,4.1-4.1,4.1h-5.5v-4.7c0-2.4,1.9-4.3,4.3-4.3h1.1c2.2,0,4.1,1.8,4.1,4.1L24,20.1L24,20.1z"/>
</g>
</svg>
