<?xml version="1.0" encoding="utf-8"?>
<!-- Generator: Adobe Illustrator 21.1.0, SVG Export Plug-In . SVG Version: 6.00 Build 0)  -->
<svg version="1.1" id="Слой_1" xmlns="http://www.w3.org/2000/svg" xmlns:xlink="http://www.w3.org/1999/xlink" x="0px" y="0px"
	 viewBox="0 0 36 36" style="enable-background:new 0 0 36 36;" xml:space="preserve">
<style type="text/css">
	.st0{fill:#999999;}
</style>
<g>
	<path class="st0" d="M18,36c-0.4,0-0.7,0-1.1,0c-0.2,0-0.3-0.1-0.4-0.2l-1.7-3.3c-0.4-0.1-0.9-0.2-1.3-0.3l-3.2,2
		c-0.1,0.1-0.3,0.1-0.4,0c-0.6-0.3-1.3-0.7-1.9-1.1c-0.1-0.1-0.2-0.2-0.2-0.4L8,28.9c-0.3-0.3-0.7-0.6-0.9-0.9l-3.7,0.1
		c-0.1,0-0.3-0.1-0.4-0.2c-0.4-0.6-0.7-1.2-1.1-1.9c-0.1-0.1-0.1-0.3,0-0.4l2-3.2c-0.1-0.4-0.2-0.8-0.3-1.3l-3.3-1.7
		C0.1,19.4,0,19.2,0,19.1c0-0.7,0-1.4,0-2.1c0-0.2,0.1-0.3,0.2-0.4l3.3-1.7c0.1-0.4,0.2-0.9,0.3-1.3l-2-3.2c-0.1-0.1-0.1-0.3,0-0.4
		C2.2,9.3,2.6,8.7,3,8.1C3.1,8,3.2,7.9,3.4,7.9L7.1,8C7.4,7.7,7.7,7.4,8,7.1L7.9,3.4C7.9,3.2,8,3.1,8.1,3c0.6-0.4,1.2-0.7,1.9-1.1
		c0.1-0.1,0.3-0.1,0.4,0l3.2,2c0.4-0.1,0.8-0.2,1.3-0.3l1.7-3.3C16.6,0.1,16.8,0,16.9,0c0.7,0,1.4,0,2.1,0c0.2,0,0.3,0.1,0.4,0.2
		l1.7,3.3c0.4,0.1,0.9,0.2,1.3,0.3l3.2-2c0.1-0.1,0.3-0.1,0.4,0c0.6,0.3,1.3,0.7,1.9,1.1c0.1,0.1,0.2,0.2,0.2,0.4L28,7.1
		c0.3,0.3,0.6,0.6,0.9,0.9l3.7-0.1c0.2,0,0.3,0.1,0.4,0.2c0.4,0.6,0.7,1.2,1.1,1.9c0.1,0.1,0.1,0.3,0,0.4l-2,3.2
		c0.1,0.4,0.2,0.8,0.3,1.3l3.3,1.7c0.1,0.1,0.2,0.2,0.2,0.4c0,0.7,0,1.4,0,2.1c0,0.2-0.1,0.3-0.2,0.4l-3.3,1.7
		c-0.1,0.4-0.2,0.9-0.3,1.3l2,3.2c0.1,0.1,0.1,0.3,0,0.4c-0.3,0.6-0.7,1.3-1.1,1.9c-0.1,0.1-0.2,0.2-0.4,0.2c0,0,0,0,0,0L28.9,28
		c-0.3,0.3-0.6,0.6-0.9,0.9l0.1,3.7c0,0.2-0.1,0.3-0.2,0.4c-0.6,0.4-1.2,0.7-1.9,1.1c-0.1,0.1-0.3,0.1-0.4,0l-3.2-2
		c-0.4,0.1-0.8,0.2-1.3,0.3l-1.7,3.3c-0.1,0.1-0.2,0.2-0.4,0.2C18.7,36,18.4,36,18,36z M17.2,35.1c0.5,0,1,0,1.5,0l1.7-3.3
		c0.1-0.1,0.2-0.2,0.3-0.2c0.5-0.1,1.1-0.3,1.6-0.4c0.1,0,0.3,0,0.4,0l3.1,2c0.5-0.2,0.9-0.5,1.3-0.8l-0.1-3.7c0-0.1,0-0.3,0.1-0.3
		c0.4-0.4,0.8-0.8,1.2-1.2c0.1-0.1,0.2-0.1,0.3-0.1c0,0,0,0,0,0l3.7,0.1c0.3-0.4,0.5-0.9,0.8-1.3l-2-3.1c-0.1-0.1-0.1-0.3,0-0.4
		c0.2-0.5,0.3-1,0.4-1.6c0-0.1,0.1-0.2,0.2-0.3l3.3-1.7c0-0.5,0-1,0-1.5l-3.3-1.7c-0.1-0.1-0.2-0.2-0.2-0.3
		c-0.1-0.6-0.3-1.1-0.4-1.6c0-0.1,0-0.3,0-0.4l2-3.1c-0.2-0.5-0.5-0.9-0.8-1.3l-3.7,0.1c-0.2,0-0.3,0-0.3-0.1
		C28,8.4,27.6,8,27.2,7.6c-0.1-0.1-0.2-0.2-0.1-0.3l0.1-3.7c-0.4-0.3-0.9-0.5-1.3-0.8l-3.1,2c-0.1,0.1-0.2,0.1-0.4,0
		c-0.5-0.2-1-0.3-1.6-0.4c-0.1,0-0.2-0.1-0.3-0.2l-1.7-3.3c-0.5,0-1,0-1.5,0l-1.7,3.3c-0.1,0.1-0.2,0.2-0.3,0.2
		c-0.6,0.1-1.1,0.3-1.6,0.4c-0.1,0-0.3,0-0.4,0l-3.1-2C9.7,3,9.2,3.3,8.8,3.6l0.1,3.7c0,0.1,0,0.3-0.1,0.3C8.4,8,8,8.4,7.6,8.8
		C7.5,8.9,7.4,8.9,7.3,8.9L3.6,8.8C3.3,9.2,3,9.7,2.8,10.1l2,3.1c0.1,0.1,0.1,0.2,0,0.4c-0.2,0.5-0.3,1-0.4,1.6
		c0,0.1-0.1,0.2-0.2,0.3l-3.3,1.7c0,0.5,0,1,0,1.5l3.3,1.7c0.1,0.1,0.2,0.2,0.2,0.3c0.1,0.6,0.3,1.1,0.4,1.6c0,0.1,0,0.3,0,0.4
		l-2,3.1c0.2,0.5,0.5,0.9,0.8,1.3l3.7-0.1c0.2,0,0.3,0.1,0.3,0.1C8,27.6,8.4,28,8.8,28.4c0.1,0.1,0.2,0.2,0.1,0.3l-0.1,3.7
		c0.4,0.3,0.9,0.5,1.3,0.8l3.1-2c0.1-0.1,0.3-0.1,0.4,0c0.5,0.2,1,0.3,1.6,0.4c0.1,0,0.2,0.1,0.3,0.2L17.2,35.1z M18,27.3
		c-5.1,0-9.3-4.2-9.3-9.3s4.2-9.3,9.3-9.3c5.1,0,9.3,4.2,9.3,9.3S23.1,27.3,18,27.3z M18,9.6c-4.6,0-8.4,3.8-8.4,8.4
		s3.8,8.4,8.4,8.4s8.4-3.8,8.4-8.4S22.6,9.6,18,9.6z"/>
</g>
</svg>
