<?xml version="1.0" encoding="utf-8"?>
<!-- Generator: Adobe Illustrator 21.1.0, SVG Export Plug-In . SVG Version: 6.00 Build 0)  -->
<svg version="1.1" id="Слой_1" xmlns="http://www.w3.org/2000/svg" xmlns:xlink="http://www.w3.org/1999/xlink" x="0px" y="0px"
	 viewBox="0 0 38 38" style="enable-background:new 0 0 38 38;" xml:space="preserve">
<style type="text/css">
	.st0{fill:#1D8F7F;}
</style>
<g>
	<path class="st0" d="M38,7.9V0h-7.9v3.2H7.9V0H0v7.9h3.2v22.2H0V38h7.9v-3.2h22.2V38H38v-7.9h-3.2V7.9H38z M31.7,1.6h4.8v4.8h-4.8
		V1.6z M1.6,6.3V1.6h4.8v4.8H1.6z M6.3,36.4H1.6v-4.8h4.8V36.4z M36.4,31.7v4.8h-4.8v-4.8H36.4z M33.2,30.1h-3.2v3.2H7.9v-3.2H4.8
		V7.9h3.2V4.8h22.2v3.2h3.2V30.1z"/>
</g>
</svg>
