<?xml version="1.0" encoding="utf-8"?>
<!-- Generator: Adobe Illustrator 21.1.0, SVG Export Plug-In . SVG Version: 6.00 Build 0)  -->
<svg version="1.1" id="Слой_1" xmlns="http://www.w3.org/2000/svg" xmlns:xlink="http://www.w3.org/1999/xlink" x="0px" y="0px"
	 viewBox="0 0 33 43" style="enable-background:new 0 0 33 43;" xml:space="preserve">
<style type="text/css">
	.st0{fill:#1D8F7F;}
</style>
<g transform="translate(0,-952.36218)">
	<g>
		<path class="st0" d="M1.8,952.7c-0.8,0-1.5,0.7-1.5,1.5v39.4c0,0.8,0.7,1.5,1.5,1.5h29.5c0.8,0,1.5-0.7,1.5-1.5v-39.4
			c0-0.8-0.7-1.5-1.5-1.5H1.8z M1.8,953.6h29.5c0.3,0,0.6,0.2,0.6,0.5v39.4c0,0.3-0.2,0.5-0.6,0.5H1.8c-0.3,0-0.6-0.2-0.6-0.5v-39.4
			C1.2,953.9,1.4,953.6,1.8,953.6z M12.1,962.5c-0.3,0-0.5,0.2-0.5,0.5c0,0.3,0.2,0.5,0.5,0.5h14.3c0.3,0,0.5-0.2,0.5-0.5
			c0-0.3-0.2-0.5-0.5-0.5H12.1z M12.1,967.9c-0.3,0-0.5,0.2-0.5,0.5s0.2,0.5,0.5,0.5h14.3c0.3,0,0.5-0.2,0.5-0.5s-0.2-0.5-0.5-0.5
			H12.1z M6.6,973.4c-0.3,0-0.5,0.2-0.5,0.5s0.2,0.5,0.5,0.5h19.7c0.3,0,0.5-0.2,0.5-0.5s-0.2-0.5-0.5-0.5H6.6z M6.6,978.8
			c-0.3,0-0.5,0.2-0.5,0.5c0,0.3,0.2,0.5,0.5,0.5h19.7c0.3,0,0.5-0.2,0.5-0.5c0-0.3-0.2-0.5-0.5-0.5H6.6z M17.9,983.2
			c-0.2,0-0.3,0.1-0.4,0.3l-2.4,5.7l-1.7,0.4c-0.3,0.1-0.4,0.4-0.4,0.6c0.1,0.3,0.4,0.4,0.6,0.4l2-0.5c0.2,0,0.3-0.1,0.3-0.3l2-4.7
			l1.5,4.2c0.1,0.4,0.7,0.4,0.9,0.1l2-3.6l1.6,3.5c0.1,0.2,0.3,0.3,0.6,0.3l2-0.5c0.3-0.1,0.4-0.4,0.4-0.6c-0.1-0.3-0.4-0.4-0.6-0.4
			l-1.6,0.4l-1.8-4.1c-0.1-0.3-0.7-0.4-0.9,0L20,988l-1.6-4.4C18.3,983.3,18.1,983.2,17.9,983.2z"/>
		<path class="st0" d="M31.2,995.3H1.8c-1,0-1.8-0.8-1.8-1.7v-39.4c0-0.9,0.8-1.7,1.8-1.7h29.5c1,0,1.8,0.8,1.8,1.7v39.4
			C33,994.5,32.2,995.3,31.2,995.3z M1.8,952.9c-0.7,0-1.3,0.6-1.3,1.3v39.4c0,0.7,0.6,1.3,1.3,1.3h29.5c0.7,0,1.3-0.6,1.3-1.3
			v-39.4c0-0.7-0.6-1.3-1.3-1.3H1.8z M31.2,994.3H1.8c-0.4,0-0.8-0.3-0.8-0.7v-39.4c0-0.4,0.3-0.7,0.8-0.7h29.5
			c0.4,0,0.8,0.3,0.8,0.7v39.4C32,994,31.7,994.3,31.2,994.3z M1.8,953.9c-0.2,0-0.3,0.1-0.3,0.3v39.4c0,0.1,0.1,0.3,0.3,0.3h29.5
			c0.2,0,0.3-0.1,0.3-0.3v-39.4c0-0.1-0.1-0.3-0.3-0.3H1.8z M13.6,990.9c-0.3,0-0.6-0.2-0.7-0.5c0-0.2,0-0.4,0.1-0.5
			c0.1-0.2,0.3-0.3,0.4-0.3L15,989l2.3-5.6c0.1-0.2,0.3-0.4,0.5-0.4h0c0.2,0,0.6,0,0.8,0.4l1.4,4l1.7-3.1c0.1-0.2,0.4-0.3,0.7-0.3
			c0.3,0,0.5,0.2,0.6,0.4l1.7,3.9l1.4-0.3c0.2,0,0.4,0,0.5,0.1c0.2,0.1,0.3,0.3,0.3,0.4c0,0.2,0,0.4-0.1,0.5
			c-0.1,0.2-0.3,0.3-0.4,0.3l-2,0.5c-0.3,0.1-0.7-0.1-0.8-0.4l-1.4-3.1l-1.8,3.2c-0.1,0.2-0.4,0.4-0.7,0.3c-0.3,0-0.5-0.2-0.6-0.4
			l-1.3-3.7l-1.7,4.2c-0.1,0.2-0.3,0.4-0.5,0.4l-2,0.5C13.7,990.8,13.6,990.9,13.6,990.9z M17.9,983.5c-0.1,0-0.2,0.1-0.2,0.2
			l-2.4,5.8l-1.8,0.5c-0.1,0-0.1,0.1-0.2,0.1c0,0.1-0.1,0.1,0,0.2c0,0.1,0.2,0.2,0.3,0.2l2-0.5c0.1,0,0.2-0.1,0.2-0.2l2.2-5.3
			l1.7,4.8c0,0.1,0.1,0.1,0.2,0.1c0.1,0,0.2,0,0.2-0.1l2.2-4l1.8,4c0,0.1,0.2,0.2,0.3,0.1l2-0.5c0.1,0,0.1-0.1,0.2-0.1
			c0-0.1,0.1-0.1,0-0.2s-0.1-0.1-0.1-0.2c-0.1,0-0.1-0.1-0.2,0l-1.8,0.4l-1.9-4.2c0-0.1-0.1-0.1-0.2-0.1c-0.1,0-0.2,0-0.2,0.1
			l-2.2,3.9l-1.8-4.9C18.1,983.4,18,983.4,17.9,983.5z M26.4,980H6.6c-0.4,0-0.7-0.3-0.7-0.7c0-0.4,0.3-0.7,0.7-0.7h19.7
			c0.4,0,0.7,0.3,0.7,0.7C27.1,979.7,26.8,980,26.4,980z M6.6,979c-0.1,0-0.3,0.1-0.3,0.3c0,0.1,0.1,0.3,0.3,0.3h19.7
			c0.1,0,0.3-0.1,0.3-0.3c0-0.1-0.1-0.3-0.3-0.3H6.6z M26.4,974.6H6.6c-0.4,0-0.7-0.3-0.7-0.7c0-0.4,0.3-0.7,0.7-0.7h19.7
			c0.4,0,0.7,0.3,0.7,0.7C27.1,974.3,26.8,974.6,26.4,974.6z M6.6,973.6c-0.1,0-0.3,0.1-0.3,0.3c0,0.1,0.1,0.3,0.3,0.3h19.7
			c0.1,0,0.3-0.1,0.3-0.3c0-0.1-0.1-0.3-0.3-0.3H6.6z M26.4,969.2H12.1c-0.4,0-0.7-0.3-0.7-0.7c0-0.4,0.3-0.7,0.7-0.7h14.3
			c0.4,0,0.7,0.3,0.7,0.7C27.1,968.8,26.8,969.2,26.4,969.2z M12.1,968.2c-0.1,0-0.3,0.1-0.3,0.3c0,0.1,0.1,0.3,0.3,0.3h14.3
			c0.1,0,0.3-0.1,0.3-0.3c0-0.1-0.1-0.3-0.3-0.3H12.1z M26.4,963.7H12.1c-0.4,0-0.7-0.3-0.7-0.7s0.3-0.7,0.7-0.7h14.3
			c0.4,0,0.7,0.3,0.7,0.7S26.8,963.7,26.4,963.7z M12.1,962.7c-0.1,0-0.3,0.1-0.3,0.3s0.1,0.3,0.3,0.3h14.3c0.1,0,0.3-0.1,0.3-0.3
			s-0.1-0.3-0.3-0.3H12.1z"/>
	</g>
</g>
</svg>
