<?xml version="1.0" encoding="utf-8"?>
<!-- Generator: Adobe Illustrator 21.1.0, SVG Export Plug-In . SVG Version: 6.00 Build 0)  -->
<svg version="1.1" id="Слой_1" xmlns="http://www.w3.org/2000/svg" xmlns:xlink="http://www.w3.org/1999/xlink" x="0px" y="0px"
	 viewBox="0 0 38 32.5" style="enable-background:new 0 0 38 32.5;" xml:space="preserve">
<style type="text/css">
	.st0{fill:#1D8F7F;}
</style>
<g>
	<g>
		<g>
			<path class="st0" d="M37.6,16.1H0.4c-0.1,0-0.1,0.1-0.1,0.1v15.9c0,0.1,0.1,0.1,0.1,0.1h37.3c0.1,0,0.1-0.1,0.1-0.1V16.3
				C37.8,16.2,37.7,16.1,37.6,16.1z M30.6,32h-5.1c-0.1-0.4,0.2-1,0.8-1.6c1.7-1.7,6.2-3.9,11.2-2.4v2.1c-3.6-1.1-5.9,0-6.7,1
				C30.6,31.4,30.5,31.8,30.6,32z M0.5,19.9c1.3-0.8,2.3-1.6,2.2-3.4h25.4c-2.3,4.1-5.4,3.2-9.2,2.1c-3.1-0.9-6.6-2-10.8-0.8
				c-1.6,0.5-3,1.8-4.2,3c-1.2,1.2-2.3,2.3-3.4,2.4L0.5,19.9L0.5,19.9z M0.5,23.4c1.3-0.1,2.4-1.2,3.6-2.4c1.2-1.2,2.5-2.5,4.1-3
				c4-1.2,7.5-0.1,10.6,0.8c4,1.2,7.2,2.1,9.6-2.4h3.2c-0.4,0.6-1,1.6-0.5,2.5c0.6,1.2,2.7,1.8,6.4,1.8v1.8
				c-10.5-0.9-13.9,1.7-16.9,4c-1.3,1-2.6,2-4.4,2.5c-3.6,1.1-8.2,0.6-11.5,0.2c-1.9-0.2-3.4-0.4-4.2-0.2L0.5,23.4L0.5,23.4z
				 M36,16.4c-0.3,0.4-0.4,0.9-0.2,1.4c0.2,0.4,0.6,0.8,1.7,0.8v1.9c-4.4-0.1-5.8-0.9-6.1-1.7C31,18,31.5,17.1,32,16.4H36z
				 M37.5,27.7c-5.1-1.4-9.7,0.8-11.4,2.5c-0.6,0.7-1,1.3-0.9,1.8h-5.8c0.4-0.4,0.8-0.8,1.2-1.3c2.5-2.8,6-6.7,16.9-5.7L37.5,27.7
				L37.5,27.7z M37.5,18.3c-0.8,0-1.3-0.2-1.5-0.6c-0.2-0.4,0-0.9,0.3-1.3h1.2L37.5,18.3L37.5,18.3z M2.4,16.4
				c0.1,1.7-0.7,2.3-1.9,3.1v-3.1H2.4z M0.5,29.4c0.7-0.2,2.3,0,4.2,0.2c1.9,0.2,4.1,0.5,6.4,0.5c1.8,0,3.6-0.2,5.2-0.7
				c1.8-0.6,3.1-1.5,4.5-2.6c3-2.3,6.3-4.9,16.8-4v1.9c-11.1-1-14.7,3.1-17.2,5.8c-0.5,0.5-0.9,1.1-1.4,1.5H0.5V29.4z M30.9,32
				c-0.1-0.2-0.1-0.5,0.2-0.7c0.7-0.9,3-1.9,6.5-0.9V32H30.9z"/>
			<path class="st0" d="M37.6,32.5H0.4c-0.2,0-0.4-0.2-0.4-0.4V16.3c0-0.2,0.2-0.4,0.4-0.4h37.3c0.2,0,0.4,0.2,0.4,0.4v15.9
				C38,32.4,37.8,32.5,37.6,32.5z M19.9,31.8H25c0-0.5,0.4-1.1,1-1.7c1.7-1.7,6.3-4,11.3-2.7l0-2.1c-10.7-1-14.1,2.8-16.6,5.6
				C20.4,31.2,20.1,31.5,19.9,31.8z M31.1,31.8h6.2v-1.2c-3.3-1-5.5,0-6.1,0.8C31.1,31.6,31,31.7,31.1,31.8z M25.7,31.8h4.6
				c0-0.3,0.1-0.6,0.3-0.8c0.8-1,3.1-2.1,6.6-1.1v-1.7c-4.9-1.3-9.2,0.8-10.8,2.4C26,31,25.7,31.5,25.7,31.8z M0.7,31.8h18.2
				c0.4-0.4,0.9-0.9,1.3-1.4c2.4-2.7,6.1-6.8,17.1-5.9v-1.5c-10.2-0.9-13.5,1.7-16.4,3.9c-1.4,1.1-2.7,2.1-4.5,2.6
				c-1.5,0.5-3.2,0.7-5.3,0.7c-2.3,0-4.6-0.3-6.4-0.5c-1.7-0.2-3.2-0.4-3.9-0.2V31.8z M1.4,28.8c0.9,0,2,0.1,3.4,0.3
				c3.3,0.4,7.9,0.9,11.4-0.2c1.7-0.5,3-1.5,4.3-2.5c3-2.3,6.4-5,16.9-4.1V21c-3.7-0.1-5.8-0.7-6.4-2c-0.3-0.7-0.2-1.5,0.3-2.4h-2.7
				c-2.5,4.5-5.9,3.5-9.8,2.3c-3-0.9-6.5-1.9-10.5-0.8c-1.5,0.4-2.8,1.7-4,2.9c-1.1,1.1-2.3,2.3-3.6,2.5l0,5.3
				C0.9,28.9,1.1,28.8,1.4,28.8z M0.7,20l0,2.9c1-0.2,2.1-1.3,3.1-2.3C5,19.4,6.4,18,8.1,17.5c4.2-1.2,7.7-0.2,10.9,0.8
				c3.6,1.1,6.5,2,8.8-1.7H2.9C2.9,18.5,1.9,19.2,0.7,20z M32.1,16.6c-0.5,0.6-0.9,1.4-0.6,2.1c0.3,0.6,1.4,1.5,5.7,1.6v-1.5
				c-1.1-0.1-1.6-0.5-1.7-0.9c-0.2-0.4-0.1-0.8,0.1-1.2H32.1z M0.7,16.6v2.5c1-0.7,1.5-1.2,1.5-2.5H0.7z M36.4,16.6
				c-0.2,0.3-0.4,0.7-0.2,1c0.2,0.4,0.6,0.5,1.1,0.5l0-1.5H36.4z"/>
		</g>
		<g>
			<path class="st0" d="M8.5,28c1.6,0,3.3-0.4,4.4-0.7c0.2,0,0.4-0.1,0.5-0.1c1.1-0.3,6.6-2,6.8-4c0.1-0.9-0.9-1.6-2.7-2.3
				c-1.7-0.6-3.4-0.9-4.9-0.9c-4.6,0-7.2,2.7-7.3,5.4c0,0.8,0.2,1.4,0.6,1.8C6.3,27.8,7.2,28,8.5,28z M12.5,20.2
				c1.5,0,3.2,0.3,4.9,0.9c1.7,0.6,2.6,1.3,2.5,2c-0.1,1.7-5.1,3.4-6.5,3.8c-0.1,0-0.3,0.1-0.5,0.1c-1,0.3-2.8,0.7-4.3,0.7
				c-1.2,0-2-0.3-2.5-0.8c-0.4-0.4-0.5-0.9-0.5-1.6C5.6,22.8,8,20.2,12.5,20.2z"/>
			<path class="st0" d="M8.5,28.2c-1.3,0-2.3-0.3-2.8-0.9c-0.5-0.5-0.7-1.2-0.6-2c0.1-2.8,2.7-5.6,7.5-5.6c1.6,0,3.3,0.3,5,1
				c1.9,0.7,2.9,1.6,2.8,2.5c-0.1,2.4-6.8,4.2-6.9,4.2c-0.1,0-0.2,0.1-0.4,0.1l-0.1,0C11.8,27.8,10.1,28.2,8.5,28.2z M12.5,20.4
				c-4.3,0-6.7,2.5-6.8,5c0,0.6,0.1,1.1,0.5,1.5c0.4,0.5,1.2,0.7,2.3,0.7c1.5,0,3.3-0.4,4.3-0.7l0.1,0c0.1,0,0.3-0.1,0.4-0.1
				c1.7-0.4,6.3-2.1,6.4-3.6c0-0.6-0.8-1.2-2.4-1.8C15.6,20.7,14,20.4,12.5,20.4z"/>
		</g>
		<g>
			<path class="st0" d="M11,25.8c0.9,0,2-0.3,2.7-0.6c0.5-0.3,0.9-0.7,0.9-1.3c0-0.7-0.5-1.4-1.2-1.8c-0.2-0.1-0.4-0.1-0.7-0.1
				c-1,0-2.4,0.7-3.2,1.5c-0.3,0.4-0.5,0.7-0.4,1C9.2,25.3,9.9,25.8,11,25.8z M9.8,23.6c0.7-0.8,2-1.4,2.9-1.4c0.2,0,0.4,0,0.6,0.1
				c0.6,0.3,1,0.9,1,1.5c0,0.5-0.3,0.8-0.7,1c-0.6,0.3-1.6,0.6-2.5,0.6c-1,0-1.5-0.3-1.6-1C9.4,24.2,9.5,23.9,9.8,23.6z"/>
			<path class="st0" d="M11,26c-1.2,0-2-0.5-2.1-1.4c-0.1-0.4,0.1-0.8,0.5-1.2c0.7-0.9,2.3-1.6,3.3-1.6c0.3,0,0.6,0.1,0.8,0.2
				c0.8,0.4,1.3,1.2,1.3,2c0,0.6-0.4,1.2-1,1.5C13.1,25.6,12,26,11,26z M9.9,23.8c-0.2,0.2-0.3,0.5-0.3,0.6c0,0.2,0.1,0.8,1.4,0.8
				c0.9,0,1.8-0.3,2.4-0.6c0.4-0.2,0.6-0.5,0.6-0.9c0-0.5-0.4-1-0.9-1.3c-0.1-0.1-0.3-0.1-0.5-0.1C11.8,22.4,10.5,23.1,9.9,23.8
				L9.9,23.8z"/>
		</g>
	</g>
	<g>
		<g>
			<path class="st0" d="M37.6,0.2H0.4c-0.1,0-0.1,0.1-0.1,0.1v15.9c0,0.1,0.1,0.1,0.1,0.1h37.3c0.1,0,0.1-0.1,0.1-0.1V0.4
				C37.8,0.3,37.7,0.2,37.6,0.2z M30.6,16.1h-5.1c-0.1-0.4,0.2-1,0.8-1.6c1.7-1.7,6.2-3.9,11.2-2.4v2.1c-3.6-1.1-5.9,0-6.7,1
				C30.6,15.5,30.5,15.8,30.6,16.1z M0.5,3.9c1.3-0.8,2.3-1.6,2.2-3.4h25.4c-2.3,4.1-5.4,3.2-9.2,2.1c-3.1-0.9-6.6-2-10.8-0.8
				c-1.6,0.5-3,1.8-4.2,3C2.7,6,1.6,7.1,0.5,7.2L0.5,3.9L0.5,3.9z M0.5,7.5C1.8,7.4,2.9,6.3,4.1,5c1.2-1.2,2.5-2.5,4.1-3
				c4-1.2,7.5-0.1,10.6,0.8C22.8,4,26,5,28.4,0.5h3.2c-0.4,0.6-1,1.6-0.5,2.5c0.6,1.2,2.7,1.8,6.4,1.8v1.8
				c-10.5-0.9-13.9,1.7-16.9,4c-1.3,1-2.6,2-4.4,2.5c-3.6,1.1-8.2,0.6-11.5,0.2c-1.9-0.2-3.4-0.4-4.2-0.2L0.5,7.5L0.5,7.5z M36,0.5
				c-0.3,0.4-0.4,0.9-0.2,1.4c0.2,0.4,0.6,0.8,1.7,0.8v1.9c-4.4-0.1-5.8-0.9-6.1-1.7C31,2.1,31.5,1.2,32,0.5H36z M37.5,11.8
				c-5.1-1.4-9.7,0.8-11.4,2.5c-0.6,0.7-1,1.3-0.9,1.8h-5.8c0.4-0.4,0.8-0.8,1.2-1.3c2.5-2.8,6-6.7,16.9-5.7L37.5,11.8L37.5,11.8z
				 M37.5,2.4c-0.8,0-1.3-0.2-1.5-0.6c-0.2-0.4,0-0.9,0.3-1.3h1.2L37.5,2.4L37.5,2.4z M2.4,0.5c0.1,1.7-0.7,2.3-1.9,3.1V0.5L2.4,0.5
				z M0.5,13.5c0.7-0.2,2.3,0,4.2,0.2c1.9,0.2,4.1,0.5,6.4,0.5c1.8,0,3.6-0.2,5.2-0.7c1.8-0.6,3.1-1.5,4.5-2.6c3-2.3,6.3-4.9,16.8-4
				v1.9c-11.1-1-14.7,3.1-17.2,5.8c-0.5,0.5-0.9,1.1-1.4,1.5H0.5V13.5z M30.9,16.1c-0.1-0.2-0.1-0.5,0.2-0.7c0.7-0.9,3-1.9,6.5-0.9
				v1.6H30.9z"/>
			<path class="st0" d="M37.6,16.6H0.4c-0.2,0-0.4-0.2-0.4-0.4V0.4C0,0.2,0.2,0,0.4,0h37.3C37.8,0,38,0.2,38,0.4v15.9
				C38,16.4,37.8,16.6,37.6,16.6z M19.9,15.9H25c0-0.5,0.4-1.1,1-1.7c1.7-1.7,6.3-4,11.3-2.7l0-2.1c-10.7-1-14.1,2.8-16.6,5.6
				C20.4,15.3,20.1,15.6,19.9,15.9z M31.1,15.9h6.2v-1.2c-3.3-1-5.5,0-6.1,0.8C31.1,15.6,31,15.8,31.1,15.9z M25.7,15.9h4.6
				c0-0.3,0.1-0.6,0.3-0.8c0.8-1,3.1-2.1,6.6-1.1v-1.7c-4.9-1.3-9.2,0.8-10.8,2.4C26,15.1,25.7,15.6,25.7,15.9z M0.7,15.9h18.2
				c0.4-0.4,0.9-0.9,1.3-1.4c2.4-2.7,6.1-6.8,17.1-5.9V7.2c-10.2-0.9-13.5,1.7-16.4,3.9c-1.4,1.1-2.7,2.1-4.5,2.6
				c-1.5,0.5-3.2,0.7-5.3,0.7c-2.3,0-4.6-0.3-6.4-0.5c-1.7-0.2-3.2-0.4-3.9-0.2V15.9z M1.4,12.9c0.9,0,2,0.1,3.4,0.3
				c3.3,0.4,7.9,0.9,11.4-0.2c1.7-0.5,3-1.5,4.3-2.5c3-2.3,6.4-5,16.9-4.1V5.1c-3.7-0.1-5.8-0.7-6.4-2c-0.3-0.7-0.2-1.5,0.3-2.4
				h-2.7c-2.5,4.5-5.9,3.5-9.8,2.3c-3-0.9-6.5-1.9-10.5-0.8C6.7,2.7,5.5,4,4.3,5.2C3.1,6.3,2,7.5,0.7,7.7l0,5.3
				C0.9,12.9,1.1,12.9,1.4,12.9z M0.7,4l0,2.9c1-0.2,2.1-1.3,3.1-2.3C5,3.5,6.4,2.1,8.1,1.6c4.2-1.2,7.7-0.2,10.9,0.8
				c3.6,1.1,6.5,2,8.8-1.7H2.9C2.9,2.5,1.9,3.3,0.7,4z M32.1,0.7c-0.5,0.6-0.9,1.4-0.6,2.1c0.3,0.6,1.4,1.5,5.7,1.6V2.9
				c-1.1-0.1-1.6-0.5-1.7-0.9c-0.2-0.4-0.1-0.8,0.1-1.2H32.1z M0.7,0.7v2.5c1-0.7,1.5-1.2,1.5-2.5H0.7z M36.4,0.7
				c-0.2,0.3-0.4,0.7-0.2,1c0.2,0.4,0.6,0.5,1.1,0.5l0-1.5H36.4z"/>
		</g>
		<g>
			<path class="st0" d="M8.5,12.1c1.6,0,3.3-0.4,4.4-0.7c0.2,0,0.4-0.1,0.5-0.1c1.1-0.3,6.6-2,6.8-4c0.1-0.9-0.9-1.6-2.7-2.3
				C15.7,4.3,14,4,12.5,4C7.8,4,5.3,6.7,5.2,9.4c0,0.8,0.2,1.4,0.6,1.8C6.3,11.8,7.2,12.1,8.5,12.1z M12.5,4.3
				c1.5,0,3.2,0.3,4.9,0.9c1.7,0.6,2.6,1.3,2.5,2c-0.1,1.7-5.1,3.4-6.5,3.8c-0.1,0-0.3,0.1-0.5,0.1c-1,0.3-2.8,0.7-4.3,0.7
				c-1.2,0-2-0.3-2.5-0.8c-0.4-0.4-0.5-0.9-0.5-1.6C5.6,6.9,8,4.3,12.5,4.3z"/>
			<path class="st0" d="M8.5,12.3c-1.3,0-2.3-0.3-2.8-0.9c-0.5-0.5-0.7-1.2-0.6-2c0.1-2.8,2.7-5.6,7.5-5.6c1.6,0,3.3,0.3,5,1
				c1.9,0.7,2.9,1.6,2.8,2.5c-0.1,2.4-6.8,4.2-6.9,4.2c-0.1,0-0.2,0.1-0.4,0.1l-0.1,0C11.8,11.9,10.1,12.3,8.5,12.3z M12.5,4.5
				c-4.3,0-6.7,2.5-6.8,5c0,0.6,0.1,1.1,0.5,1.5c0.4,0.5,1.2,0.7,2.3,0.7c1.5,0,3.3-0.4,4.3-0.7l0.1,0c0.1,0,0.3-0.1,0.4-0.1
				c1.7-0.4,6.3-2.1,6.4-3.6c0-0.6-0.8-1.2-2.4-1.8C15.6,4.8,14,4.5,12.5,4.5z"/>
		</g>
		<g>
			<path class="st0" d="M11,9.8c0.9,0,2-0.3,2.7-0.6c0.5-0.3,0.9-0.7,0.9-1.3c0-0.7-0.5-1.4-1.2-1.8C13.2,6.1,13,6,12.7,6
				c-1,0-2.4,0.7-3.2,1.5c-0.3,0.4-0.5,0.7-0.4,1C9.2,9.4,9.9,9.8,11,9.8z M9.8,7.7c0.7-0.8,2-1.4,2.9-1.4c0.2,0,0.4,0,0.6,0.1
				c0.6,0.3,1,0.9,1,1.5c0,0.5-0.3,0.8-0.7,1c-0.6,0.3-1.6,0.6-2.5,0.6c-1,0-1.5-0.3-1.6-1C9.4,8.3,9.5,8,9.8,7.7z"/>
			<path class="st0" d="M11,10.1c-1.2,0-2-0.5-2.1-1.4C8.9,8.2,9,7.8,9.4,7.4c0.7-0.9,2.3-1.6,3.3-1.6c0.3,0,0.6,0.1,0.8,0.2
				c0.8,0.4,1.3,1.2,1.3,2c0,0.6-0.4,1.2-1,1.5C13.1,9.7,12,10.1,11,10.1z M9.9,7.9C9.7,8.1,9.6,8.3,9.6,8.5c0,0.2,0.1,0.8,1.4,0.8
				c0.9,0,1.8-0.3,2.4-0.6c0.4-0.2,0.6-0.5,0.6-0.9c0-0.5-0.4-1-0.9-1.3c-0.1-0.1-0.3-0.1-0.5-0.1C11.8,6.5,10.5,7.1,9.9,7.9
				L9.9,7.9z"/>
		</g>
	</g>
</g>
</svg>
