<?xml version="1.0" encoding="utf-8"?>
<!-- Generator: Adobe Illustrator 21.1.0, SVG Export Plug-In . SVG Version: 6.00 Build 0)  -->
<svg version="1.1" id="Слой_1" xmlns="http://www.w3.org/2000/svg" xmlns:xlink="http://www.w3.org/1999/xlink" x="0px" y="0px"
	 viewBox="0 0 37 28" style="enable-background:new 0 0 37 28;" xml:space="preserve">
<style type="text/css">
	.st0{fill:#1D8F7F;}
</style>
<path class="st0" d="M0.1,5.1L0.1,5.1C0,5.2,0,5.2,0,5.3v17c0,3.3,8.4,5.4,16.5,5.7l0,0l0,0h0.1h3.7h0.1l0,0l0,0
	c8.3-0.3,16.5-2.3,16.5-5.7v-17c0-0.1,0-0.1-0.1-0.2l0,0l0,0C36,1.8,26.6,0,18.3,0C10.4,0,1,1.8,0.1,5.1L0.1,5.1z M10.7,22.4v4.2
	v0.3h-0.3c-1.7-0.2-3.4-0.6-5-1.1l-0.2-0.1v-0.3v-4.1V21l0.3,0.1c1.6,0.5,3.3,0.8,5,1.1h0.2V22.4z M10.7,16.6v4.6v0.3h-0.3
	c-1.7-0.2-3.4-0.6-5-1.1l-0.2-0.1v-0.2v-4.5v-0.3l0.3,0.1c1.6,0.5,3.3,0.8,5,1.1h0.2V16.6z M10.7,11v4.3v0.3h-0.3
	c-1.7-0.2-3.4-0.6-5-1.1l-0.2-0.1v-0.2V10V9.7l0.3,0.1c1.6,0.5,3.3,0.8,5,1.1h0.2V11z M8.4,9.7L9,9.4c1.3-0.8,4.8-1.6,9.7-1.6
	c0.4,0,0.7,0,1.1,0c4.6,0.1,7.5,0.9,8.7,1.6l0.5,0.3l-0.6,0.1c-3,0.5-6.1,0.8-9.3,0.8h-0.3h-0.3c-3.1,0-6.3-0.3-9.3-0.8L8.4,9.7z
	 M13.8,22.8V27v0.3h-0.3c-0.6-0.1-1.3-0.1-1.9-0.2h-0.2v-0.2v-4.2v-0.3h0.3c0.6,0.1,1.2,0.1,1.9,0.2h0.2V22.8z M13.8,19.4v2.2v0.3
	h-0.3c-0.7-0.1-1.3-0.1-1.9-0.2h-0.2v-0.3v-4.6v-0.3h0.3c0.8,0.1,1.7,0.2,2.5,0.2h0.4L14.4,17C14.1,17.8,13.8,18.6,13.8,19.4z
	 M20.2,23v4.1v0.2H20c-0.4,0-0.8,0-1.3,0s-0.8,0-1.3,0h-0.2v-0.2V23v-0.2h0.2h2.5h0.2V23H20.2z M22.7,27v0.2h-0.2
	c-0.4,0-0.8,0-1.3,0.1h-0.3V27v-4.6c0-0.1,0-0.2-0.1-0.2c-0.1-0.1-0.2-0.1-0.3-0.1h-3.7c-0.2,0-0.4,0.2-0.4,0.3v4.7v0.3H16
	c-0.4,0-0.8,0-1.3-0.1h-0.2v-0.2v-7.7c0-2.1,1.8-3.8,4-3.8s4,1.7,4,3.8V27H22.7z M25.8,22.6v4.1v0.2h-0.2C25,27,24.4,27,23.7,27.1
	h-0.3v-0.3v-4.2v-0.2h0.2c0.6-0.1,1.3-0.1,1.9-0.2h0.3V22.6z M25.8,16.8v4.6v0.2h-0.2c-0.6,0.1-1.2,0.1-1.9,0.2h-0.3v-0.3v-2.1
	c0-0.8-0.2-1.6-0.6-2.3l-0.2-0.3H23c1-0.1,1.8-0.1,2.5-0.2h0.3V16.8z M25.8,11.2v4.3v0.2h-0.2c-1.2,0.1-2.3,0.2-3.5,0.3H22L21.9,16
	c-0.9-0.8-2-1.2-3.2-1.2s-2.3,0.4-3.2,1.2l-0.1,0.1h-0.1c-1.2-0.1-2.4-0.2-3.5-0.3h-0.2v-0.2v-4.3v-0.3h0.3c2.3,0.3,4.5,0.4,6.9,0.4
	l0,0c2.3,0,4.6-0.1,6.9-0.4h0.3V11.2z M32.2,21.4v4v0.2L32,25.7c-1.6,0.5-3.3,0.9-5,1.1h-0.3v-0.3v-4.1v-0.2h0.2
	c1.7-0.2,3.3-0.6,5-1l0.3-0.1V21.4z M32.2,15.6v4.5v0.2L32,20.4c-1.6,0.5-3.3,0.9-5,1.1h-0.3v-0.3v-4.6v-0.2h0.2
	c1.7-0.2,3.3-0.6,5-1.1l0.3-0.1V15.6z M32.2,10v4.2v0.2L32,14.6c-1.6,0.5-3.3,0.9-5,1.1h-0.3v-0.3V11v-0.2h0.2
	c1.7-0.2,3.3-0.6,5-1.1l0.3-0.1V10z M36.5,19.2v3.2c0,1-1.1,2-3.3,2.8l-0.3,0.2V25v-4v-0.2l0.2-0.1c1.1-0.4,2.1-0.9,3.1-1.7l0.4-0.3
	v0.5H36.5z M36.5,13.3V17c0,1-1.2,2-3.3,2.8l-0.3,0.1v-0.4V15v-0.2l0.2-0.1c1.1-0.4,2.1-1,3.1-1.7l0.4-0.3v0.7H36.5z M36.5,7.9v3.2
	c0,1-1.2,2-3.3,2.8l-0.3,0.1v-0.4V9.4V9.2l0.2-0.1c1.1-0.4,2.1-0.9,3.1-1.6l0.4-0.3v0.7H36.5z M18.7,0.7c9.7,0,17.8,2.3,17.8,5
	c0,1.5-2.5,2.9-6.8,3.9h-0.1l-0.1-0.1c-0.6-0.7-1.4-1.1-2.3-1.3L26.7,8L27,7.7l3.8-3.6C31,4,31,3.9,31,3.9c0-0.1,0-0.2-0.1-0.2
	c-0.1-0.1-0.2-0.1-0.3-0.1s-0.2,0-0.3,0.1l-4.3,4.1l-0.1,0.1h-0.1c-1.4-0.3-2.8-0.5-4.2-0.6h-0.4l0.2-0.4L23.9,3
	c0.1-0.1,0.1-0.2,0-0.3c0-0.1-0.1-0.2-0.2-0.2c-0.1,0-0.1-0.1-0.2-0.1c-0.1,0-0.3,0.1-0.3,0.2l-3,4.5l-0.1,0.1H20h-0.1h-0.3
	c-0.4,0-0.7,0-1.1,0c-0.5,0-1,0-1.5,0h-0.1l-0.1-0.1l-3-4.5c0.2-0.2,0-0.3-0.1-0.3s-0.1,0-0.2,0.1c-0.1,0.1-0.1,0.1-0.2,0.2
	c0,0.1,0,0.2,0,0.3l2.6,3.9L16,7.2h-0.4c-1.4,0.1-2.8,0.3-4.2,0.6h-0.1l-0.1-0.1L6.9,3.6C6.8,3.5,6.7,3.5,6.6,3.5s-0.2,0-0.3,0.1
	C6.1,3.7,6.1,3.8,6.1,3.8S6.1,4,6.3,4l3.8,3.6l0.3,0.3L10,8C9.1,8.2,8.3,8.7,7.7,9.3L7.6,9.4H7.5C3.2,8.4,0.7,7,0.7,5.5
	C0.8,2.9,9,0.7,18.7,0.7z M0.8,7.9V7.4l0.4,0.3c0.9,0.7,1.9,1.2,3.1,1.6l0.2,0.1v0.2v4.2v0.4l-0.3-0.1c-0.4-0.2-0.9-0.4-1.3-0.6
	c-1.3-0.7-2-1.5-2-2.2V7.9H0.8z M0.8,13.4v-0.5l0.4,0.3c0.4,0.3,0.8,0.6,1.2,0.8c0.6,0.3,1.2,0.6,1.8,0.8L4.4,15v0.2v4.5v0.4L4.1,20
	c-0.4-0.2-0.9-0.4-1.3-0.6c-1.3-0.7-2-1.5-2-2.2C0.8,17.2,0.8,13.4,0.8,13.4z M0.8,19.2v-0.5L1.2,19c0.4,0.3,0.8,0.6,1.2,0.8
	c0.6,0.3,1.2,0.6,1.8,0.8l0.2,0.1v0.2V25v0.4l-0.3-0.1c-2.2-0.9-3.3-1.9-3.3-2.9V19.2z"/>
<path class="st0" d="M18.6,12.8c-0.6,0-1.2,0.2-1.6,0.6c-0.4,0.4-0.7,1-0.7,1.5c0,0.2,0.2,0.3,0.4,0.3S17,15,17,14.9
	c0-0.4,0.2-0.8,0.4-1c0.3-0.3,0.7-0.4,1-0.4c0.4,0,0.8,0.2,1.1,0.4c0.3,0.3,0.4,0.6,0.4,1c0,0.2,0.2,0.3,0.4,0.3s0.4-0.2,0.4-0.3
	c0-0.6-0.2-1.1-0.6-1.5C19.8,13,19.2,12.8,18.6,12.8z"/>
</svg>
