<?xml version="1.0" encoding="utf-8"?>
<!-- Generator: Adobe Illustrator 21.1.0, SVG Export Plug-In . SVG Version: 6.00 Build 0)  -->
<svg version="1.1" id="Слой_1" xmlns="http://www.w3.org/2000/svg" xmlns:xlink="http://www.w3.org/1999/xlink" x="0px" y="0px"
	 viewBox="0 0 35 31" style="enable-background:new 0 0 35 31;" xml:space="preserve">
<style type="text/css">
	.st0{fill:#FFFFFF;}
</style>
<g>
	<path class="st0" d="M33.6,8l-0.2-0.1c-1.2-0.7-2.6-1.3-4.2-1.8c-2.7-3.4-7-5.6-11.7-5.6c-4.7,0-9,2.2-11.7,5.6
		c-1.6,0.5-3,1.1-4.2,1.8L1.3,8l0,0.1C0.5,9.4,0,12.2,0,15.5s0.5,6.1,1.3,7.3L1.4,23l0.2,0.1c1.2,0.7,2.6,1.3,4.2,1.8
		c2.7,3.4,7,5.6,11.7,5.6c4.7,0,9-2.2,11.7-5.6c1.6-0.5,3-1.1,4.2-1.8l0.2-0.1l0.1-0.2c0.8-1.2,1.3-4,1.3-7.3s-0.5-6.1-1.3-7.3
		L33.6,8z M17.5,24.8c-6,0-11.5-1.1-14.9-3.1c-0.5-0.9-0.9-3.1-0.9-6.3s0.5-5.4,0.9-6.3c3.4-1.9,9-3.1,14.9-3.1S29,7.3,32.4,9.2
		c0.5,0.9,0.9,3.1,0.9,6.3s-0.5,5.4-0.9,6.3C29,23.7,23.5,24.8,17.5,24.8z M17.5,2.1c3.3,0,6.4,1.2,8.7,3.3
		c-2.7-0.5-5.6-0.9-8.7-0.9s-6,0.3-8.7,0.9C11.1,3.3,14.2,2.1,17.5,2.1z M17.5,28.9c-3.3,0-6.4-1.2-8.7-3.3c2.7,0.5,5.6,0.9,8.7,0.9
		s6-0.3,8.7-0.9C23.9,27.6,20.8,28.9,17.5,28.9z"/>
	<path class="st0" d="M17.5,10.1c-5.5,0-9.6,2-9.6,4.5c0,1.5,1.3,2.8,3.8,3.7c0.4,0.1,0.9-0.1,1.1-0.5c0.1-0.4-0.1-0.9-0.5-1.1
		c-1.6-0.5-2.7-1.4-2.7-2.1c0-1.2,3-2.9,7.9-2.9s7.9,1.7,7.9,2.9c0,0.9-1.5,1.9-4,2.5l1.3-1.1c0.3-0.3,0.4-0.8,0.1-1.1
		c-0.3-0.3-0.8-0.4-1.1-0.1l-3.5,3c-0.2,0.2-0.3,0.5-0.3,0.8c0,0.3,0.2,0.5,0.5,0.6l4.3,1.6c0.1,0,0.2,0,0.3,0
		c0.3,0,0.6-0.2,0.8-0.5c0.2-0.4,0-0.9-0.5-1.1l-1.5-0.5C25,18,27,16.5,27,14.7C27.1,12,23,10.1,17.5,10.1z"/>
</g>
</svg>
