<?xml version="1.0" encoding="utf-8"?>
<!-- Generator: Adobe Illustrator 21.1.0, SVG Export Plug-In . SVG Version: 6.00 Build 0)  -->
<svg version="1.1" id="Слой_1" xmlns="http://www.w3.org/2000/svg" xmlns:xlink="http://www.w3.org/1999/xlink" x="0px" y="0px"
	 viewBox="0 0 46 36" style="enable-background:new 0 0 46 36;" xml:space="preserve">
<style type="text/css">
	.st0{fill:#1D8F7F;}
</style>
<path class="st0" d="M46,15.7c0-1.6-1.3-2.8-2.8-2.8s-2.8,1.3-2.8,2.8c0,1,0.5,1.8,1.3,2.4l0.4,0.2L42,18.7
	C39.1,28,30.5,34.3,20.7,34.3c-2,0-4-0.3-6-0.8c-4.6-1.3-8.3-4.2-10.7-8.3c-2.3-4.1-2.9-8.8-1.6-13.4c1.7-6,7.2-10.2,13.5-10.2
	c1.3,0,2.5,0.2,3.7,0.5c2.9,0.8,5.2,2.7,6.7,5.2c1.4,2.5,1.8,5.5,1,8.3c-1,3.7-4.5,6.3-8.3,6.3c-0.8,0-1.6-0.1-2.3-0.3
	c-1.7-0.5-3.2-1.6-4.1-3.2c-0.6-1-0.9-2-0.9-3.1v-0.4l0.4-0.1c1.3-0.3,2.1-1.5,2.1-2.7c0-1.6-1.3-2.8-2.8-2.8
	c-1.6,0-2.8,1.3-2.8,2.8c0,0.9,0.5,1.8,1.2,2.3l0.3,0.2v0.3c-0.1,1.6,0.3,3.2,1.1,4.6c1.1,1.9,2.9,3.3,5,4c0.9,0.2,1.8,0.4,2.8,0.4
	c4.6,0,8.7-3.1,9.9-7.5c0.9-3.3,0.5-6.7-1.2-9.6c-1.6-3-4.2-5.1-7.6-6c-1.4-0.4-2.8-0.6-4.2-0.6c-7,0-13.2,4.7-15.1,11.4
	c-1.4,5-0.7,10.1,1.8,14.6c2.6,4.5,6.7,7.7,11.6,9.1c2.1,0.6,4.3,0.9,6.4,0.9c10.5,0,20-7.1,22.9-17.2l0.1-0.3l0.3-0.1
	C45.1,18.1,46,17,46,15.7z M11,13.7L11,13.7c-0.9-0.2-1.4-0.9-1.4-1.7c0-1,0.8-1.7,1.7-1.7c1,0,1.7,0.8,1.7,1.7c0,1-0.8,1.7-1.7,1.7
	C11.2,13.7,11.1,13.7,11,13.7z M43.2,17.4c-0.1,0-0.2,0-0.3,0l0,0l0,0c-0.8-0.2-1.4-0.9-1.4-1.7c0-1,0.8-1.7,1.7-1.7
	c1,0,1.7,0.8,1.7,1.7C44.9,16.7,44.1,17.4,43.2,17.4z"/>
</svg>
