<?xml version="1.0" encoding="utf-8"?>
<!-- Generator: Adobe Illustrator 21.1.0, SVG Export Plug-In . SVG Version: 6.00 Build 0)  -->
<svg version="1.1" id="Слой_1" xmlns="http://www.w3.org/2000/svg" xmlns:xlink="http://www.w3.org/1999/xlink" x="0px" y="0px"
	 viewBox="0 0 36 37.4" style="enable-background:new 0 0 36 37.4;" xml:space="preserve">
<style type="text/css">
	.st0{fill:none;}
	.st1{fill:#999999;}
</style>
<path class="st0" d="M32.6-11.7H9c-1.4,0-2.6,1.2-2.6,2.6v1.5c0,0.2-0.2,0.4-0.4,0.4H5c-2.3,0-4.2,1.9-4.2,4.2v2.4
	c0,2.3,1.9,4.2,4.2,4.2h12.4c0.9,0,1.8,0.4,2.3,1.1c0.4,0.5,0.7,1.2,0.7,1.9v3.9c0,0.2-0.1,0.4-0.3,0.4c-0.3,0.1-0.6,0.2-0.9,0.4
	c-0.1,0.1-0.3,0.2-0.4,0.3c-0.6,0.6-1,1.4-1,2.2v7.2c0,1.6,1.3,3,3,3s3-1.3,3-3v-7.2c0-0.6-0.2-1.2-0.5-1.7
	c-0.3-0.5-0.8-0.9-1.4-1.1c-0.2-0.1-0.3-0.2-0.3-0.4v-4c0-2.3-1.9-4.2-4.2-4.2H5c-0.8,0-1.6-0.3-2.1-0.9C2.3,1.1,2,0.4,2-0.5v-2.4
	c0-1.7,1.4-3,3-3h0.9c0.2,0,0.4,0.2,0.4,0.4V-4c0,0.2,0,0.4,0.1,0.5c0.1,0.3,0.2,0.7,0.4,0.9C6.9-2.4,7-2.3,7.1-2.1
	C7.2-2.1,7.2-2,7.3-2c0.1,0.1,0.3,0.2,0.4,0.3C8.1-1.5,8.5-1.4,9-1.4h23.6c0.4,0,0.9-0.1,1.2-0.3C34-1.8,34.1-1.9,34.2-2
	c0.1-0.1,0.1-0.1,0.2-0.2c0.1-0.1,0.2-0.3,0.3-0.4c0.2-0.3,0.3-0.6,0.4-0.9c0-0.2,0.1-0.4,0.1-0.5v-5C35.2-10.5,34-11.7,32.6-11.7z"
	/>
<path class="st1" d="M32.6,0H9C7.1,0,5.5,1.6,5.5,3.5v1.1H5c-2.8,0-5,2.3-5,5V12c0,2.8,2.3,5,5,5h12.4c0.7,0,1.3,0.3,1.7,0.8
	c0.3,0.4,0.5,0.9,0.5,1.4v3.6c-0.3,0.1-0.6,0.2-0.8,0.4c-0.2,0.1-0.3,0.2-0.5,0.4c-0.8,0.7-1.3,1.7-1.3,2.8v7.2
	c0,2.1,1.7,3.8,3.8,3.8s3.8-1.7,3.8-3.8v-7.2c0-0.8-0.2-1.5-0.7-2.1c-0.4-0.5-0.9-1-1.5-1.2v-3.7c0-2.8-2.3-5-5-5H5
	c-0.6,0-1.2-0.2-1.6-0.7c-0.4-0.4-0.7-1-0.7-1.6V9.6c0-1.2,1-2.2,2.2-2.2h0.5v1.1c0,0.2,0,0.5,0.1,0.7c0.1,0.4,0.3,0.9,0.5,1.2
	c0.1,0.2,0.3,0.4,0.4,0.5c0.1,0.1,0.2,0.2,0.2,0.2c0.2,0.1,0.4,0.3,0.5,0.4c0.5,0.3,1.1,0.4,1.6,0.4h23.6c0.6,0,1.1-0.1,1.6-0.4
	c0.2-0.1,0.4-0.2,0.5-0.4c0.1-0.1,0.2-0.1,0.2-0.2c0.2-0.2,0.3-0.3,0.4-0.5c0.3-0.4,0.4-0.8,0.5-1.2C36,9,36,8.7,36,8.5v-5
	C36,1.6,34.5,0,32.6,0z M35.2,8.5c0,0.2,0,0.4-0.1,0.5c-0.1,0.3-0.2,0.7-0.4,0.9c-0.1,0.1-0.2,0.3-0.3,0.4c-0.1,0.1-0.1,0.1-0.2,0.2
	c-0.1,0.1-0.3,0.2-0.4,0.3c-0.4,0.2-0.8,0.3-1.2,0.3H9c-0.4,0-0.9-0.1-1.2-0.3c-0.1-0.1-0.3-0.2-0.4-0.3c-0.1-0.1-0.1-0.1-0.2-0.2
	C7,10.2,6.9,10.1,6.8,10C6.6,9.7,6.4,9.4,6.4,9c0-0.2-0.1-0.4-0.1-0.5V7c0-0.2-0.2-0.4-0.4-0.4H5c-1.7,0-3,1.4-3,3V12
	c0,0.8,0.3,1.6,0.9,2.1c0.6,0.6,1.3,0.9,2.1,0.9h12.4c2.3,0,4.2,1.9,4.2,4.2v4c0,0.2,0.1,0.3,0.3,0.4c0.6,0.2,1,0.6,1.4,1.1
	c0.3,0.5,0.5,1.1,0.5,1.7v7.2c0,1.6-1.3,3-3,3c-1.6,0-3-1.3-3-3v-7.2c0-0.8,0.4-1.6,1-2.2c0.1-0.1,0.3-0.2,0.4-0.3
	c0.3-0.2,0.6-0.3,0.9-0.4c0.2,0,0.3-0.2,0.3-0.4v-3.9c0-0.7-0.2-1.4-0.7-1.9c-0.6-0.7-1.4-1.1-2.3-1.1H5c-2.3,0-4.2-1.9-4.2-4.2V9.6
	c0-2.3,1.9-4.2,4.2-4.2h0.9c0.2,0,0.4-0.2,0.4-0.4V3.5C6.3,2,7.5,0.8,9,0.8h23.6c1.4,0,2.6,1.2,2.6,2.6V8.5z"/>
</svg>
