<?xml version="1.0" encoding="utf-8"?>
<!-- Generator: Adobe Illustrator 21.1.0, SVG Export Plug-In . SVG Version: 6.00 Build 0)  -->
<svg version="1.1" id="Слой_1" xmlns="http://www.w3.org/2000/svg" xmlns:xlink="http://www.w3.org/1999/xlink" x="0px" y="0px"
	 viewBox="0 0 38 41" style="enable-background:new 0 0 38 41;" xml:space="preserve">
<style type="text/css">
	.st0{fill:#1D8F7F;}
</style>
<path class="st0" d="M38,39.3l-5.9-25c-0.1-0.7-0.7-1.1-1.3-1.1H19.9V9.2c2-0.4,3.6-2.4,3.6-4.5c0-2.4-2.1-4.5-4.5-4.5
	c-2.4,0-4.5,2.1-4.5,4.5c0,2.1,1.6,4.1,3.6,4.5v4.1H7.2c-0.7,0-1.2,0.4-1.3,1.1L0,39.3c-0.1,0.4,0,0.8,0.2,1.1
	c0.2,0.3,0.6,0.5,1,0.5h35.5c0.4,0,0.8-0.2,1-0.5C38,40.1,38.1,39.7,38,39.3z M16.3,4.7C16.3,3.2,17.5,2,19,2s2.7,1.2,2.7,2.7
	S20.5,7.4,19,7.4S16.3,6.2,16.3,4.7z M1.8,39l5.9-24h22.6l5.9,24H1.8z"/>
</svg>
