<?xml version="1.0" encoding="utf-8"?>
<!-- Generator: Adobe Illustrator 21.1.0, SVG Export Plug-In . SVG Version: 6.00 Build 0)  -->
<svg version="1.1" id="Слой_1" xmlns="http://www.w3.org/2000/svg" xmlns:xlink="http://www.w3.org/1999/xlink" x="0px" y="0px"
	 viewBox="0 0 36 36" style="enable-background:new 0 0 36 36;" xml:space="preserve">
<style type="text/css">
	.st0{fill:#999999;}
</style>
<g>
	<path class="st0" d="M0.6,18.9c-0.3,0-0.4,0.2-0.4,0.4s0.2,0.4,0.4,0.4h34.9c0.3,0,0.4-0.2,0.4-0.4s-0.2-0.4-0.4-0.4h-2.9v-3
		c1.8-0.2,3.3-1.8,3.3-3.7c0-1.5-0.9-2.8-2.2-3.4c0.5-0.4,0.9-1.1,0.9-1.8c0-1.3-1-2.3-2.3-2.3c-1.3,0-2.3,1-2.3,2.3
		c0,0.7,0.4,1.4,0.9,1.8c-1.3,0.6-2.2,1.9-2.2,3.4c0,1.9,1.4,3.4,3.3,3.7v3h-8.2v-3.3c1.5-0.4,2.6-3.3,2.6-7c0-4-1.3-7.1-3.1-7.1
		c-1.7,0-3.1,3-3.1,7.1c0,3.7,1.1,6.5,2.6,7v3.3H14v-4.3c1.8-0.4,3.2-3.4,3.2-7.2c0-4.1-1.6-7.3-3.6-7.3c-2,0-3.6,3.2-3.6,7.3
		c0,3.8,1.3,6.8,3.2,7.2v4.3H4.5v-3.3c2-0.2,3.6-1.9,3.6-4c0-1.7-1-3.1-2.5-3.7c0.6-0.4,1-1.2,1-2c0-1.4-1.1-2.5-2.5-2.5
		S1.6,4.6,1.6,6c0,0.8,0.4,1.5,1,2c-1.4,0.6-2.5,2-2.5,3.7c0,2.1,1.5,3.8,3.5,4v3.3H0.6z M32.2,5.6c0.8,0,1.4,0.6,1.4,1.4
		S33,8.5,32.2,8.5s-1.4-0.6-1.4-1.4S31.4,5.6,32.2,5.6z M29.4,12.3c0-1.6,1.3-2.8,2.8-2.8c1.6,0,2.8,1.3,2.8,2.8
		c0,1.6-1.3,2.8-2.8,2.8C30.6,15.1,29.4,13.8,29.4,12.3z M20.8,8.7c0-3.6,1.2-6.2,2.2-6.2s2.2,2.5,2.2,6.2c0,3.1-0.9,5.4-1.7,6l0-9
		c0-0.3-0.2-0.4-0.4-0.4s-0.4,0.2-0.4,0.4l0,9C21.6,14.1,20.8,11.8,20.8,8.7z M10.8,7.4c0-3,1.1-6.4,2.7-6.4s2.7,3.4,2.7,6.4
		c0,2.7-0.9,5.7-2.3,6.3l0-8.5c0-0.3-0.2-0.4-0.4-0.4S13.1,5,13.1,5.2l0,8.5C11.8,13.1,10.8,10.1,10.8,7.4z M2.4,6
		c0-0.9,0.7-1.6,1.6-1.6c0.9,0,1.6,0.7,1.6,1.6c0,0.9-0.7,1.6-1.6,1.6C3.2,7.6,2.4,6.9,2.4,6z M0.9,11.7c0-1.7,1.4-3.1,3.1-3.1
		c1.7,0,3.1,1.4,3.1,3.1s-1.4,3.1-3.1,3.1C2.3,14.8,0.9,13.4,0.9,11.7z"/>
	<path class="st0" d="M3,26.6c1,0,2-0.5,2.5-1.4C6,26,6.9,26.6,8,26.6s2-0.5,2.5-1.4c0.5,0.9,1.4,1.4,2.5,1.4c1.1,0,2-0.5,2.5-1.4
		c0.5,0.9,1.4,1.4,2.5,1.4s2-0.5,2.5-1.4c0.5,0.9,1.4,1.4,2.5,1.4c1.1,0,2-0.5,2.5-1.4c0.5,0.9,1.4,1.4,2.5,1.4s2-0.5,2.5-1.4
		c0.5,0.9,1.4,1.4,2.5,1.4c1.6,0,3-1.3,3-3c0-0.3-0.2-0.4-0.4-0.4s-0.4,0.2-0.4,0.4c0,1.1-0.9,2.1-2.1,2.1c-1.1,0-2.1-0.9-2.1-2.1
		c0-0.3-0.2-0.4-0.4-0.4c-0.3,0-0.4,0.2-0.4,0.4c0,1.1-0.9,2.1-2.1,2.1S26,24.7,26,23.6c0-0.3-0.2-0.4-0.4-0.4
		c-0.3,0-0.4,0.2-0.4,0.4c0,1.1-0.9,2.1-2.1,2.1c-1.1,0-2.1-0.9-2.1-2.1c0-0.3-0.2-0.4-0.4-0.4c-0.3,0-0.4,0.2-0.4,0.4
		c0,1.1-0.9,2.1-2.1,2.1s-2.1-0.9-2.1-2.1c0-0.3-0.2-0.4-0.4-0.4c-0.3,0-0.4,0.2-0.4,0.4c0,1.1-0.9,2.1-2.1,2.1
		c-1.1,0-2.1-0.9-2.1-2.1c0-0.3-0.2-0.4-0.4-0.4c-0.3,0-0.4,0.2-0.4,0.4c0,1.1-0.9,2.1-2.1,2.1s-2.1-0.9-2.1-2.1
		c0-0.3-0.2-0.4-0.4-0.4c-0.3,0-0.4,0.2-0.4,0.4c0,1.1-0.9,2.1-2.1,2.1c-1.1,0-2.1-0.9-2.1-2.1c0-0.3-0.2-0.4-0.4-0.4S0,23.3,0,23.6
		C0,25.2,1.3,26.6,3,26.6z"/>
	<path class="st0" d="M35.6,27.9c-0.3,0-0.4,0.2-0.4,0.4c0,1.1-0.9,2.1-2.1,2.1c-1.1,0-2.1-0.9-2.1-2.1c0-0.3-0.2-0.4-0.4-0.4
		c-0.3,0-0.4,0.2-0.4,0.4c0,1.1-0.9,2.1-2.1,2.1S26,29.4,26,28.3c0-0.3-0.2-0.4-0.4-0.4c-0.3,0-0.4,0.2-0.4,0.4
		c0,1.1-0.9,2.1-2.1,2.1c-1.1,0-2.1-0.9-2.1-2.1c0-0.3-0.2-0.4-0.4-0.4c-0.3,0-0.4,0.2-0.4,0.4c0,1.1-0.9,2.1-2.1,2.1
		s-2.1-0.9-2.1-2.1c0-0.3-0.2-0.4-0.4-0.4c-0.3,0-0.4,0.2-0.4,0.4c0,1.1-0.9,2.1-2.1,2.1c-1.1,0-2.1-0.9-2.1-2.1
		c0-0.3-0.2-0.4-0.4-0.4c-0.3,0-0.4,0.2-0.4,0.4c0,1.1-0.9,2.1-2.1,2.1s-2.1-0.9-2.1-2.1c0-0.3-0.2-0.4-0.4-0.4
		C5.2,27.9,5,28,5,28.3c0,1.1-0.9,2.1-2.1,2.1c-1.1,0-2.1-0.9-2.1-2.1c0-0.3-0.2-0.4-0.4-0.4S0,28,0,28.3c0,1.6,1.3,3,3,3
		c1,0,2-0.5,2.5-1.4C6,30.7,6.9,31.3,8,31.3s2-0.5,2.5-1.4c0.5,0.9,1.4,1.4,2.5,1.4c1.1,0,2-0.5,2.5-1.4c0.5,0.9,1.4,1.4,2.5,1.4
		s2-0.5,2.5-1.4c0.5,0.9,1.4,1.4,2.5,1.4c1.1,0,2-0.5,2.5-1.4c0.5,0.9,1.4,1.4,2.5,1.4s2-0.5,2.5-1.4c0.5,0.9,1.4,1.4,2.5,1.4
		c1.6,0,3-1.3,3-3C36,28,35.8,27.9,35.6,27.9z"/>
	<path class="st0" d="M35.6,32.5c-0.3,0-0.4,0.2-0.4,0.4c0,1.1-0.9,2.1-2.1,2.1C31.9,35,31,34.1,31,33c0-0.3-0.2-0.4-0.4-0.4
		c-0.3,0-0.4,0.2-0.4,0.4c0,1.1-0.9,2.1-2.1,2.1S26,34.1,26,33c0-0.3-0.2-0.4-0.4-0.4c-0.3,0-0.4,0.2-0.4,0.4c0,1.1-0.9,2.1-2.1,2.1
		C21.9,35,21,34.1,21,33c0-0.3-0.2-0.4-0.4-0.4c-0.3,0-0.4,0.2-0.4,0.4c0,1.1-0.9,2.1-2.1,2.1s-2.1-0.9-2.1-2.1
		c0-0.3-0.2-0.4-0.4-0.4c-0.3,0-0.4,0.2-0.4,0.4c0,1.1-0.9,2.1-2.1,2.1c-1.1,0-2.1-0.9-2.1-2.1c0-0.3-0.2-0.4-0.4-0.4
		c-0.3,0-0.4,0.2-0.4,0.4C10,34.1,9.1,35,8,35S5.9,34.1,5.9,33c0-0.3-0.2-0.4-0.4-0.4C5.2,32.5,5,32.7,5,33C5,34.1,4.1,35,3,35
		c-1.1,0-2.1-0.9-2.1-2.1c0-0.3-0.2-0.4-0.4-0.4S0,32.7,0,33c0,1.6,1.3,3,3,3c1,0,2-0.5,2.5-1.4C6,35.4,6.9,35.9,8,35.9
		s2-0.5,2.5-1.4c0.5,0.9,1.4,1.4,2.5,1.4c1.1,0,2-0.5,2.5-1.4c0.5,0.9,1.4,1.4,2.5,1.4s2-0.5,2.5-1.4c0.5,0.9,1.4,1.4,2.5,1.4
		c1.1,0,2-0.5,2.5-1.4c0.5,0.9,1.4,1.4,2.5,1.4s2-0.5,2.5-1.4c0.5,0.9,1.4,1.4,2.5,1.4c1.6,0,3-1.3,3-3C36,32.7,35.8,32.5,35.6,32.5
		z"/>
</g>
</svg>
