<?xml version="1.0" encoding="utf-8"?>
<!-- Generator: Adobe Illustrator 21.1.0, SVG Export Plug-In . SVG Version: 6.00 Build 0)  -->
<svg version="1.1" id="Слой_1" xmlns="http://www.w3.org/2000/svg" xmlns:xlink="http://www.w3.org/1999/xlink" x="0px" y="0px"
	 viewBox="0 0 34 28" style="enable-background:new 0 0 34 28;" xml:space="preserve">
<style type="text/css">
	.st0{fill:#1D8F7F;}
</style>
<g>
	<path class="st0" d="M33.4,27.3h-4.1V12.7l0.1,0.1c0.2,0.2,0.5,0.2,0.8,0.2s0.5-0.2,0.7-0.4l1-1.4c0.2-0.2,0.2-0.5,0.2-0.8
		s-0.2-0.5-0.4-0.7L17.8,0.3c-0.7-0.4-1.5-0.4-2.1,0L10.2,4V2.3c0-0.6-0.5-1.1-1.1-1.1H7.2c-0.6,0-1.1,0.5-1.1,1.1v4.6l-4,2.7
		C1.9,9.8,1.7,10,1.7,10.3s0,0.5,0.2,0.8l1,1.4l0,0c0.2,0.2,0.4,0.4,0.7,0.4c0,0,0.1,0,0.2,0c0.2,0,0.4,0,0.6-0.2h0.1v14.5H0.4
		c-0.3,0-0.4,0.2-0.4,0.4S0.2,28,0.4,28h33.2c0.3,0,0.4-0.2,0.4-0.4S33.6,27.3,33.4,27.3z M6.8,2.3C6.8,2.2,6.9,2,7.1,2H9
		c0.1,0,0.3,0.1,0.3,0.3v2.3L6.9,6.2V2.3H6.8z M3.6,12H3.5c0,0-0.1,0-0.1-0.1l-1-1.4v-0.1c0,0,0-0.1,0.1-0.1l13.6-9.2
		c0.4-0.3,0.8-0.3,1.2,0l13.7,9.2c0,0,0,0.1,0.1,0.1v0.1l-1,1.4c0,0.1,0,0.1-0.1,0.1H30L17.1,3.3c-0.1-0.1-0.4-0.1-0.5,0L3.6,12z
		 M16.6,4.2l11.7,7.9v15.1h-7.9V20c0-1.1-0.9-1.9-1.9-1.9h-3.3c-1.1,0-1.9,0.9-1.9,1.9v7.2h-8V12.1L16.6,4.2z M14,27.2V20
		c0-0.6,0.5-1.1,1.1-1.1h3.3c0.6,0,1.1,0.5,1.1,1.1v7.1L14,27.2L14,27.2z"/>
	<path class="st0" d="M19.1,22.9c0-0.3-0.2-0.4-0.4-0.4h-0.2c-0.5,0-0.9,0.4-0.9,0.9v0.3c0,0.5,0.4,0.9,0.9,0.9h0.2
		c0.3,0,0.4-0.2,0.4-0.4c0-0.3-0.2-0.4-0.4-0.4h-0.1v-0.3h0.2C18.9,23.4,19.1,23.2,19.1,22.9z"/>
	<path class="st0" d="M8.3,22.8h1.5c0.9,0,1.6-0.7,1.6-1.6v-1.5c0-0.9-0.7-1.6-1.6-1.6H8.3c-0.9,0-1.6,0.7-1.6,1.6v1.5
		C6.7,22.1,7.4,22.8,8.3,22.8z M7.6,19.7c0-0.4,0.3-0.7,0.7-0.7h1.5c0.4,0,0.7,0.3,0.7,0.7v1.5c0,0.4-0.3,0.7-0.7,0.7H8.3
		c-0.4,0-0.7-0.3-0.7-0.7V19.7z"/>
	<path class="st0" d="M23.7,22.8h1.5c0.9,0,1.6-0.7,1.6-1.6v-1.5c0-0.9-0.7-1.6-1.6-1.6h-1.5c-0.9,0-1.6,0.7-1.6,1.6v1.5
		C22.1,22.1,22.8,22.8,23.7,22.8z M23,19.7c0-0.4,0.3-0.7,0.7-0.7h1.5c0.4,0,0.7,0.3,0.7,0.7v1.5c0,0.4-0.3,0.7-0.7,0.7h-1.5
		c-0.4,0-0.7-0.3-0.7-0.7V19.7z"/>
	<path class="st0" d="M8.3,16.5h1.5c0.9,0,1.6-0.7,1.6-1.6v-1.5c0-0.9-0.7-1.6-1.6-1.6H8.3c-0.9,0-1.6,0.7-1.6,1.6v1.5
		C6.7,15.8,7.4,16.5,8.3,16.5z M7.6,13.4c0-0.4,0.3-0.7,0.7-0.7h1.5c0.4,0,0.7,0.3,0.7,0.7v1.5c0,0.4-0.3,0.7-0.7,0.7H8.3
		c-0.4,0-0.7-0.3-0.7-0.7V13.4z"/>
	<path class="st0" d="M17.5,11.9h-1.5c-0.9,0-1.6,0.7-1.6,1.6V15c0,0.9,0.7,1.6,1.6,1.6h1.5c0.9,0,1.6-0.7,1.6-1.6v-1.5
		C19.1,12.6,18.4,11.9,17.5,11.9z M18.2,14.9c0,0.4-0.3,0.7-0.7,0.7h-1.5c-0.4,0-0.7-0.3-0.7-0.7v-1.5c0-0.4,0.3-0.7,0.7-0.7h1.5
		c0.4,0,0.7,0.3,0.7,0.7V14.9z"/>
	<path class="st0" d="M23.7,16.5h1.5c0.9,0,1.6-0.7,1.6-1.6v-1.5c0-0.9-0.7-1.6-1.6-1.6h-1.5c-0.9,0-1.6,0.7-1.6,1.6v1.5
		C22.1,15.8,22.8,16.5,23.7,16.5z M23,13.4c0-0.4,0.3-0.7,0.7-0.7h1.5c0.4,0,0.7,0.3,0.7,0.7v1.5c0,0.4-0.3,0.7-0.7,0.7h-1.5
		c-0.4,0-0.7-0.3-0.7-0.7V13.4z"/>
	<path class="st0" d="M14.8,9.8h3.8c0.1,0,0.3,0,0.4-0.1c0.1-0.1,0.1-0.2,0.1-0.4V9.2c-0.2-1.1-1.1-2-2.3-2s-2.1,0.8-2.3,2v0.1
		c0,0.1,0,0.3,0.1,0.4C14.6,9.7,14.7,9.8,14.8,9.8z M16.7,8.1c0.6,0,1.1,0.3,1.3,0.8h-2.6C15.6,8.4,16.1,8.1,16.7,8.1z"/>
</g>
</svg>
