<?xml version="1.0" encoding="utf-8"?>
<!-- Generator: Adobe Illustrator 21.1.0, SVG Export Plug-In . SVG Version: 6.00 Build 0)  -->
<svg version="1.1" id="Слой_1" xmlns="http://www.w3.org/2000/svg" xmlns:xlink="http://www.w3.org/1999/xlink" x="0px" y="0px"
	 viewBox="0 0 38 38" style="enable-background:new 0 0 38 38;" xml:space="preserve">
<style type="text/css">
	.st0{fill:#1D8F7F;}
</style>
<g>
	<path class="st0" d="M19,0C8.5,0,0,8.5,0,19c0,10.5,8.5,19,19,19c10.5,0,19-8.5,19-19C38,8.5,29.5,0,19,0z M19,36.7
		C9.3,36.7,1.4,28.8,1.4,19S9.3,1.3,19,1.3S36.6,9.2,36.6,19S28.7,36.7,19,36.7z"/>
	<path class="st0" d="M30.9,10.3c-0.1-0.2-0.4-0.3-0.6-0.3c-0.1,0-0.3,0.1-0.4,0.2L10.2,29.9c-0.3,0.3-0.2,0.7,0,0.9
		c0,0,0,0,0.1,0.1c2.4,1.8,5.5,2.7,8.7,2.7c8.1,0,14.6-6.6,14.6-14.6C33.6,15.8,32.6,12.7,30.9,10.3z M19,32.3
		c-2.6,0-5.1-0.7-7.2-2.1l18.5-18.5c1.4,2.1,2.1,4.6,2.1,7.3C32.3,26.3,26.3,32.3,19,32.3z"/>
	<path class="st0" d="M27.7,7.2C27.7,7.1,27.7,7.1,27.7,7.2c-2.5-1.8-5.6-2.8-8.7-2.8C10.9,4.4,4.4,10.9,4.4,19c0,3.2,1,6.2,2.7,8.7
		c0.1,0.1,0.3,0.2,0.4,0.3c0,0,0.1,0,0.1,0c0.1,0,0.3,0,0.4-0.1c0,0,0.1,0,0.1-0.1L27.8,8.1C28,7.8,28,7.4,27.7,7.2z M19,5.7
		c2.6,0,5.1,0.7,7.2,2.1L7.8,26.2c-1.4-2.1-2.1-4.6-2.1-7.2C5.7,11.6,11.7,5.7,19,5.7z"/>
</g>
</svg>
