<?xml version="1.0" encoding="utf-8"?>
<!-- Generator: Adobe Illustrator 21.1.0, SVG Export Plug-In . SVG Version: 6.00 Build 0)  -->
<svg version="1.1" id="Слой_1" xmlns="http://www.w3.org/2000/svg" xmlns:xlink="http://www.w3.org/1999/xlink" x="0px" y="0px"
	 viewBox="0 0 38 46" style="enable-background:new 0 0 38 46;" xml:space="preserve">
<style type="text/css">
	.st0{fill:#1D8F7F;}
</style>
<g>
	<path class="st0" d="M19,28c4.9,0,8.9-4,8.9-8.9s-4-8.9-8.9-8.9s-8.9,4-8.9,8.9S14.1,28,19,28z M19,11.3c4.3,0,7.8,3.5,7.8,7.8
		s-3.5,7.8-7.8,7.8s-7.8-3.5-7.8-7.8C11.2,14.8,14.7,11.3,19,11.3z"/>
	<path class="st0" d="M19,29.8c5.9,0,10.7-4.8,10.7-10.7c0-5.9-4.8-10.7-10.7-10.7S8.3,13.2,8.3,19.1C8.3,25,13.1,29.8,19,29.8z
		 M19,9.5c5.3,0,9.6,4.3,9.6,9.6c0,5.3-4.3,9.6-9.6,9.6c-5.3,0-9.6-4.3-9.6-9.6S13.7,9.5,19,9.5z"/>
	<path class="st0" d="M19,38.1c10.5,0,19-8.5,19-19s-8.5-19-19-19S0,8.6,0,19.1S8.5,38.1,19,38.1z M19,1.2c9.9,0,17.9,8,17.9,17.9
		S28.9,37,19,37S1.1,29,1.1,19.1C1.1,9.2,9.1,1.2,19,1.2z"/>
	<path class="st0" d="M29,36c-3,2-6.4,3-10,3c-3.6,0-7-1.1-10-3l-0.6-0.4L4.7,45.9h28.6l-3.7-10.2L29,36z M6.3,44.8L9,37.3
		c3,1.9,6.5,2.9,10,2.9c3.6,0,7-1,10-2.8l2.7,7.5H6.3z"/>
	<path class="st0" d="M14.5,19.1c0.1-2.5,2-4.5,4.5-4.5c1,0,1-1.5,0-1.5c-3.4,0.1-6,2.7-6.1,6.1C12.9,20.1,14.4,20.1,14.5,19.1z"/>
</g>
</svg>
