<?xml version="1.0" encoding="utf-8"?>
<!-- Generator: Adobe Illustrator 21.1.0, SVG Export Plug-In . SVG Version: 6.00 Build 0)  -->
<svg version="1.1" id="Слой_1" xmlns="http://www.w3.org/2000/svg" xmlns:xlink="http://www.w3.org/1999/xlink" x="0px" y="0px"
	 viewBox="0 0 33.7 31.1" style="enable-background:new 0 0 33.7 31.1;" xml:space="preserve">
<style type="text/css">
	.st0{fill:#1D8F7F;}
</style>
<g>
	<path class="st0" d="M32.9,14.8c0.2,0,0.4-0.1,0.4-0.3l0.4-1.6c0-0.1,0-0.2-0.1-0.4c-0.1-0.1-0.2-0.2-0.3-0.2H28v-2.2h1.4
		c0.2,0,0.4-0.1,0.4-0.3l0.5-1.6c0-0.1,0-0.2-0.1-0.4c-0.1-0.1-0.2-0.2-0.3-0.2H16.6V3.7c0.1,0,0.2,0,0.4,0c0.4,0,0.7,0,1.1-0.1
		c0.6-0.1,1.1-0.2,1.7,0c0.1,0,0.2,0,0.4-0.1c0.1-0.1,0.2-0.2,0.2-0.3V0.9c0-0.2-0.1-0.3-0.3-0.4c-0.7-0.2-1.4-0.1-2,0
		c-0.5,0.1-0.9,0.1-1.4,0.1V0.4c0-0.2-0.2-0.4-0.4-0.4s-0.4,0.2-0.4,0.4V1v2.3v4.3h-12c-0.1,0-0.2,0-0.3,0.2
		C3.5,7.9,3.5,8.1,3.5,8.3l0.4,1.6c0,0.2,0.2,0.3,0.4,0.3h1.4v2.2H0.4c-0.1,0-0.2,0-0.3,0.2C0,12.7,0,12.8,0,13l0.4,1.6
		c0,0.2,0.2,0.3,0.4,0.3h1.6v15.4H0.1c-0.2,0-0.4,0.2-0.4,0.4s0.2,0.4,0.4,0.4h2.7h2h2.9h2.2h2.9h1.7h4.4h1.8h2.9h2.2h2.9h2h2.4
		c0.2,0,0.4-0.2,0.4-0.4s-0.2-0.4-0.4-0.4h-2V14.8H32.9z M18.1,1.4c0.5-0.1,0.9-0.1,1.4-0.1v1.5c-0.5,0-1,0-1.5,0.1S17.1,3,16.6,3
		V1.5C17.2,1.6,17.7,1.5,18.1,1.4z M4.4,8.5h24.9l-0.2,0.8h-1.5H6.1H4.6L4.4,8.5z M6.5,10.2h20.7v2.2H6.5V10.2z M0.9,13.2h5.2h21.5
		h5.2L32.6,14h-1.7h-2.6h-1.8h-3.4h-1.8h-9h-1.8H7.1H5.3H2.7H1L0.9,13.2z M26.1,14.8l-0.5,15.5h-1.4l-0.5-15.4L26.1,14.8L26.1,14.8z
		 M17.9,24h-2.2c-0.9,0-1.6,0.7-1.6,1.6v4.7h-0.8l-0.5-15.4h8.3l-0.5,15.4h-1.1v-4.7C19.4,24.7,18.7,24,17.9,24z M10.1,14.8
		L9.6,30.2H8.2L7.7,14.8H10.1z M3.2,14.8H5L4.5,30.2H3.3L3.2,14.8L3.2,14.8z M5.2,30.3l0.5-15.4h1l0.6,15.4H5.2z M10.4,30.3
		l0.5-15.4h1l0.5,15.4H10.4z M15,30.3v-4.7c0-0.4,0.3-0.7,0.7-0.7h2.2c0.4,0,0.7,0.3,0.7,0.7v4.7H15z M21.3,30.3l0.5-15.4h1
		l0.5,15.4H21.3z M26.4,30.3l0.5-15.4h1l0.5,15.4H26.4z M30.4,30.3h-1.2l-0.5-15.4h1.8L30.4,30.3L30.4,30.3z"/>
	<path class="st0" d="M17.8,16.1h-2.1c-0.6,0-1.1,0.5-1.1,1.1v0.7c0,0.6,0.5,1.1,1.1,1.1h2.1c0.6,0,1.1-0.5,1.1-1.1v-0.7
		C19,16.6,18.4,16.1,17.8,16.1z M18.1,17.9c0,0.2-0.1,0.3-0.3,0.3h-2.1c-0.2,0-0.3-0.1-0.3-0.3v-0.7c0-0.2,0.1-0.3,0.3-0.3h2.1
		c0.2,0,0.3,0.1,0.3,0.3V17.9z"/>
	<path class="st0" d="M17.8,20.1h-2.1c-0.6,0-1.1,0.5-1.1,1.1v0.7c0,0.6,0.5,1.1,1.1,1.1h2.1c0.6,0,1.1-0.5,1.1-1.1v-0.7
		C19,20.6,18.4,20.1,17.8,20.1z M18.1,21.9c0,0.2-0.1,0.3-0.3,0.3h-2.1c-0.2,0-0.3-0.1-0.3-0.3v-0.7c0-0.2,0.1-0.3,0.3-0.3h2.1
		c0.2,0,0.3,0.1,0.3,0.3V21.9z"/>
</g>
</svg>
