<svg xmlns="http://www.w3.org/2000/svg" width="28.531" height="16.5" viewBox="0 0 28.531 16.5">
  <metadata><?xpacket begin="﻿" id="W5M0MpCehiHzreSzNTczkc9d"?>
<x:xmpmeta xmlns:x="adobe:ns:meta/" x:xmptk="Adobe XMP Core 5.6-c138 79.159824, 2016/09/14-01:09:01        ">
   <rdf:RDF xmlns:rdf="http://www.w3.org/1999/02/22-rdf-syntax-ns#">
      <rdf:Description rdf:about=""/>
   </rdf:RDF>
</x:xmpmeta>
                                                                                                    
                                                                                                    
                                                                                                    
                                                                                                    
                                                                                                    
                                                                                                    
                                                                                                    
                                                                                                    
                                                                                                    
                                                                                                    
                                                                                                    
                                                                                                    
                                                                                                    
                                                                                                    
                                                                                                    
                                                                                                    
                                                                                                    
                                                                                                    
                                                                                                    
                                                                                                    
                           
<?xpacket end="w"?></metadata>
<defs>
    <style>
      .cls-1 {
        fill: #1d8f7f;
        fill-rule: evenodd;
      }
    </style>
  </defs>
  <path id="Фигура_596" data-name="Фигура 596" class="cls-1" d="M615.574,12786.1a1.686,1.686,0,0,1,.692-0.7,4.085,4.085,0,0,1,1.878-.4c0.919,0.1,1.838.1,2.756,0.2a4.9,4.9,0,0,1,1.215.1,1.431,1.431,0,0,1,.908,1.3c0.011,0.5-.06,1-0.077,1.5-0.037,1.1-.083,2.2-0.08,3.2a3.253,3.253,0,0,0,.232,1,1.294,1.294,0,0,0,.146.3c0.22,0.3.3,0.3,0.612,0.1a4.837,4.837,0,0,0,1.414-1.4,21.6,21.6,0,0,0,1.413-2.4c0.395-.8.794-1.7,1.166-2.5a0.932,0.932,0,0,1,.928-0.6h5.172a0.822,0.822,0,0,1,.824,1,5.168,5.168,0,0,1-.694,1.6,26.11,26.11,0,0,1-2.89,3.9,3.722,3.722,0,0,0-.9,1.5,1.313,1.313,0,0,0,.384,1.5c0.8,0.8,1.625,1.6,2.406,2.4,0.462,0.5.87,1.1,1.275,1.6a1.55,1.55,0,0,1,.38,1.2,0.767,0.767,0,0,1-.808.8c-0.971,0-1.945.1-2.917,0.1-0.566,0-1.131.1-1.7,0.1a2.707,2.707,0,0,1-1.238-.4,6.46,6.46,0,0,1-1.621-1.3,9.081,9.081,0,0,1-1.388-1.6,1.414,1.414,0,0,0-1.361-.5,0.916,0.916,0,0,0-.527.8c-0.057.5-.087,1.1-0.14,1.6a1.254,1.254,0,0,1-1.178,1.2,10.83,10.83,0,0,1-4.013-.1,8.107,8.107,0,0,1-2.621-1.2,18.2,18.2,0,0,1-2.908-2.8c-0.453-.5-0.851-1.1-1.241-1.6a63.093,63.093,0,0,1-3.454-5.7,13.158,13.158,0,0,1-1.25-2.9c-0.059-.3-0.089-0.5-0.137-0.7a0.252,0.252,0,0,1,.128-0.3,2.57,2.57,0,0,1,.845-0.2h3.928a1.023,1.023,0,0,1,1.113.6c0.228,0.5.425,0.9,0.643,1.4a25.464,25.464,0,0,0,2.717,4.6,1.805,1.805,0,0,0,.639.5,0.44,0.44,0,0,0,.7-0.2,1.972,1.972,0,0,0,.3-1c0.017-1.1.049-2.2,0.037-3.3a2.222,2.222,0,0,0-1.613-2.2A0.538,0.538,0,0,0,615.574,12786.1Z" transform="translate(-606.25 -12785)"/>
</svg>
