<?xml version="1.0" encoding="utf-8"?>
<!-- Generator: Adobe Illustrator 21.1.0, SVG Export Plug-In . SVG Version: 6.00 Build 0)  -->
<svg version="1.1" id="Слой_1" xmlns="http://www.w3.org/2000/svg" xmlns:xlink="http://www.w3.org/1999/xlink" x="0px" y="0px"
	 viewBox="0 0 40 48" style="enable-background:new 0 0 40 48;" xml:space="preserve">
<style type="text/css">
	.st0{fill:#1D8F7F;}
</style>
<g>
	<g>
		<g>
			<path class="st0" d="M23.8,39.5c-0.7,0-1.4-0.2-2-0.4c-0.6-0.2-1.2-0.4-1.8-0.4s-1.1,0.2-1.8,0.4c-0.7,0.2-1.3,0.4-2,0.4
				c-0.2,0-0.5,0-0.7-0.1c-0.9-0.2-1.7-0.9-2.4-1.5c-0.5-0.4-0.9-0.8-1.4-1.1c-0.5-0.2-1.1-0.3-1.7-0.4c-0.9-0.1-1.9-0.3-2.6-0.9
				c-0.7-0.6-1.1-1.5-1.4-2.4c-0.2-0.6-0.5-1.2-0.8-1.6C5,31.2,4.5,30.9,4,30.5c-0.8-0.5-1.6-1.1-2-1.9c-0.4-0.9-0.3-1.8-0.3-2.7
				c0-0.6,0.1-1.3,0-1.8c-0.1-0.5-0.4-1-0.7-1.6C0.5,21.7,0,20.8,0,19.9c0-1,0.5-1.8,0.9-2.6c0.3-0.5,0.6-1.1,0.7-1.6
				c0.1-0.5,0.1-1.1,0-1.8C1.6,13,1.6,12,2,11.2c0.4-0.9,1.2-1.4,2-1.9c0.5-0.4,1-0.7,1.3-1.1c0.3-0.4,0.5-1,0.8-1.6
				c0.3-0.9,0.7-1.8,1.4-2.4c0.7-0.6,1.7-0.7,2.6-0.9c0.6-0.1,1.2-0.2,1.7-0.4c0.5-0.2,0.9-0.6,1.4-1.1c0.7-0.6,1.4-1.3,2.3-1.5
				c0.2,0,0.4-0.1,0.7-0.1c0.7,0,1.4,0.2,2,0.4C18.9,0.8,19.5,1,20,1s1.1-0.2,1.8-0.4c0.7-0.2,1.3-0.4,2-0.4c0.2,0,0.5,0,0.7,0.1
				c0.9,0.2,1.7,0.9,2.4,1.5c0.5,0.4,0.9,0.8,1.4,1.1c0.5,0.2,1.1,0.3,1.7,0.4c0.9,0.1,1.9,0.3,2.6,0.9c0.7,0.6,1.1,1.5,1.4,2.4
				c0.2,0.6,0.5,1.2,0.8,1.6C35,8.5,35.5,8.9,36,9.2c0.8,0.5,1.6,1.1,2,1.9c0.4,0.9,0.3,1.8,0.3,2.7c0,0.6-0.1,1.3,0,1.8
				c0.1,0.5,0.4,1,0.7,1.6c0.5,0.8,0.9,1.7,0.9,2.6c0,1-0.5,1.8-0.9,2.6c-0.3,0.5-0.6,1.1-0.7,1.6c-0.1,0.5-0.1,1.1,0,1.8
				c0.1,0.9,0.1,1.9-0.3,2.7c-0.4,0.9-1.2,1.4-2,1.9c-0.5,0.4-1,0.7-1.3,1.1c-0.3,0.4-0.5,1-0.8,1.6c-0.3,0.9-0.7,1.8-1.4,2.4
				c-0.7,0.6-1.7,0.7-2.6,0.9c-0.6,0.1-1.2,0.2-1.7,0.4c-0.5,0.2-0.9,0.6-1.4,1.1c-0.7,0.6-1.4,1.3-2.3,1.5
				C24.2,39.5,24,39.5,23.8,39.5z M20,37.5c0.7,0,1.4,0.2,2.1,0.4c0.8,0.2,1.5,0.4,2.1,0.3c0.6-0.1,1.2-0.7,1.8-1.2
				c0.5-0.5,1-1,1.6-1.2c0.6-0.3,1.3-0.4,2-0.5c0.8-0.1,1.6-0.2,2.1-0.6c0.5-0.4,0.8-1.1,1.1-1.9c0.3-0.6,0.5-1.3,1-1.9
				c0.4-0.5,1-1,1.6-1.3c0.7-0.5,1.3-0.9,1.6-1.5c0.3-0.6,0.2-1.3,0.2-2.1c0-0.7-0.1-1.4,0.1-2.1c0.2-0.7,0.5-1.3,0.8-1.9
				c0.4-0.7,0.8-1.4,0.8-2.1s-0.4-1.3-0.8-2.1c-0.3-0.6-0.7-1.2-0.8-1.9c-0.2-0.7-0.1-1.4-0.1-2.1c0.1-0.8,0.1-1.6-0.2-2.1
				c-0.3-0.6-0.9-1-1.6-1.5c-0.6-0.4-1.2-0.8-1.6-1.3c-0.4-0.5-0.7-1.2-1-1.9c-0.3-0.8-0.6-1.5-1.1-1.9c-0.5-0.4-1.3-0.5-2-0.6
				c-0.7-0.1-1.4-0.2-2-0.5C27,3.6,26.5,3.2,26,2.7c-0.6-0.6-1.2-1.1-1.8-1.2c-0.6-0.1-1.3,0.1-2.1,0.3C21.4,2,20.7,2.2,20,2.2
				S18.6,2,17.9,1.8c-0.8-0.2-1.5-0.4-2.1-0.3c-0.6,0.1-1.2,0.7-1.8,1.2c-0.5,0.5-1,1-1.6,1.2c-0.6,0.3-1.3,0.4-2,0.5
				c-0.8,0.1-1.6,0.2-2,0.6C7.8,5.5,7.5,6.2,7.2,7c-0.3,0.6-0.5,1.3-1,1.9c-0.4,0.5-1,1-1.6,1.3C4,10.7,3.3,11.1,3,11.7
				c-0.3,0.6-0.2,1.3-0.2,2.1c0,0.7,0.1,1.4-0.1,2.1c-0.2,0.7-0.5,1.3-0.8,1.9c-0.4,0.7-0.8,1.4-0.8,2.1s0.4,1.3,0.8,2.1
				c0.3,0.6,0.7,1.2,0.8,1.9c0.2,0.7,0.1,1.4,0.1,2.1c-0.1,0.8-0.1,1.6,0.2,2.1c0.3,0.6,0.9,1,1.6,1.5c0.6,0.4,1.2,0.8,1.6,1.3
				c0.4,0.5,0.7,1.2,1,1.9c0.3,0.8,0.6,1.5,1.1,1.9c0.5,0.4,1.3,0.5,2,0.6c0.7,0.1,1.4,0.2,2,0.5c0.6,0.3,1.1,0.8,1.6,1.2
				c0.6,0.6,1.2,1.1,1.8,1.2c0.6,0.1,1.3-0.1,2.1-0.3C18.6,37.8,19.3,37.5,20,37.5z"/>
		</g>
		<g>
			<path class="st0" d="M20,35.8c-8.7,0-15.8-7.1-15.8-15.9C4.2,11.1,11.3,4,20,4s15.8,7.1,15.8,15.9C35.8,28.6,28.7,35.8,20,35.8z
				 M20,5.2c-8.1,0-14.7,6.6-14.7,14.7S11.9,34.6,20,34.6S34.7,28,34.7,19.9S28.1,5.2,20,5.2z"/>
		</g>
	</g>
	<g>
		<path class="st0" d="M19,26.6l-5.7-6.3c-0.2-0.2-0.2-0.6,0-0.8c0.2-0.2,0.6-0.2,0.8,0l4.6,5.1L25.7,14c0.2-0.3,0.5-0.4,0.8-0.2
			c0.3,0.2,0.4,0.5,0.2,0.8L19,26.6z"/>
	</g>
	<g>
		<path class="st0" d="M15.5,46l-2.7-2.2l-3.5,0.1l2-7.3c0.1-0.3,0.4-0.5,0.7-0.4c0.3,0.1,0.5,0.4,0.4,0.7l-1.6,5.8l2.3-0.1L15,44
			l2.2-5.4c0.1-0.3,0.5-0.5,0.8-0.3c0.3,0.1,0.5,0.5,0.3,0.8L15.5,46z"/>
	</g>
	<g>
		<path class="st0" d="M27.4,47.8l-4.7-8.1c-0.2-0.3-0.1-0.6,0.2-0.8c0.3-0.2,0.6-0.1,0.8,0.2l3.9,6.7l1.6-1.7l2.3-0.3l-3.4-7.2
			c-0.1-0.3,0-0.7,0.3-0.8c0.3-0.1,0.7,0,0.8,0.3l4.1,8.7l-3.5,0.4L27.4,47.8z"/>
	</g>
</g>
</svg>
