<?xml version="1.0" encoding="utf-8"?>
<!-- Generator: Adobe Illustrator 21.1.0, SVG Export Plug-In . SVG Version: 6.00 Build 0)  -->
<svg version="1.1" id="Слой_1" xmlns="http://www.w3.org/2000/svg" xmlns:xlink="http://www.w3.org/1999/xlink" x="0px" y="0px"
	 viewBox="0 0 36 29" style="enable-background:new 0 0 36 29;" xml:space="preserve">
<style type="text/css">
	.st0{fill:#999999;}
</style>
<path class="st0" d="M24.5,5.2l-6.2-4.9c-0.2-0.1-0.5-0.1-0.6,0L0.2,14.1c-0.2,0.1-0.2,0.5-0.1,0.7C0.2,15,0.6,15,0.8,14.9L18,1.2
	l17.2,13.6c0.2,0.2,0.5,0.1,0.7-0.1c0.2-0.2,0.1-0.5-0.1-0.7L24.5,5.2z M6,11.8l-0.9,0.7v15.8c0,0.3,0.2,0.5,0.5,0.5h8.3
	c0.3,0,0.5-0.2,0.5-0.5v-8.8h7.4v8.8c0,0.3,0.2,0.5,0.5,0.5h8.3c0.3,0,0.5-0.2,0.5-0.5V12.5L30,11.8v16.1h-7.4v-8.8
	c0-0.3-0.2-0.5-0.5-0.5h-8.3c-0.3,0-0.5,0.2-0.5,0.5v8.8H6V11.8L6,11.8z"/>
</svg>
