<?xml version="1.0" encoding="utf-8"?>
<!-- Generator: Adobe Illustrator 21.1.0, SVG Export Plug-In . SVG Version: 6.00 Build 0)  -->
<svg version="1.1" id="Слой_1" xmlns="http://www.w3.org/2000/svg" xmlns:xlink="http://www.w3.org/1999/xlink" x="0px" y="0px"
	 viewBox="0 0 39 44" style="enable-background:new 0 0 39 44;" xml:space="preserve">
<style type="text/css">
	.st0{fill:#1D8F7F;}
</style>
<path class="st0" d="M38.6,0.6c-0.2-0.2-0.5-0.2-0.8-0.1c-0.1,0.1-0.2,0.2-0.2,0.2c-0.2,0.2-1,0.8-1.9,1.5l-2.1,1.6
	C28.5,7.7,19.8,14.3,13.5,20l-0.1,0.2c-0.7,1.2-1.4,2.6-1.9,3.8c0-0.2-0.1-0.3-0.1-0.5c0-0.2-0.1-0.5-0.4-0.7l-0.1-0.1
	c-0.5-0.1-0.8,0.1-0.8,0.2c-6.5,6.9-8.3,11.9-5.7,16C3,40,1.7,41,0.4,42c-0.4,0.2-0.5,0.7-0.2,1.2c0.2,0.2,0.4,0.3,0.7,0.3
	c0.2,0,0.4-0.1,0.4-0.2c1.2-0.9,2.5-1.9,4.1-3.1c1.1,1.1,2.4,1.7,4,1.9h0.6c3.9,0,8.8-3,14.6-8.8c4.1-4.3,7.5-9.5,9.8-15.1
	c0.1-0.3,0.1-0.7-0.1-0.9C34,17.1,33.8,17,33.6,17c0.7-0.8,1.4-1.7,1.9-2.5l0.1-0.1l0-0.1c2-5.5,2.9-10.3,3.3-12.7
	C39,1.5,39,1.4,39,1.3C39,1,38.9,0.7,38.6,0.6z M34.2,13.7c-1.1,1.8-3.2,4-3.8,4.3c-0.3,0.2-0.5,0.6-0.4,0.9
	c0.1,0.4,0.4,0.6,0.8,0.6c0,0,0.6,0,1.3-0.2c-2.2,4.8-5.2,9.2-8.7,12.7c-7.2,7.2-11.6,8.5-14,8.3c-1.1-0.1-2-0.5-2.8-1.2
	c1.6-1.3,3.5-2.9,5.3-4.5l6.4,0c0.4,0,0.8-0.4,0.8-0.8s-0.4-0.8-0.8-0.8l-4.5,0c3.8-3.5,7.5-7.4,11-11.5l2.5-0.6
	c0.2,0,0.4-0.2,0.5-0.4c0.1-0.2,0.1-0.4,0.1-0.6c0-0.2-0.2-0.5-0.4-0.6c-0.2-0.1-0.4-0.1-0.6-0.1l-0.3,0.1c2.7-3.4,5.3-6.8,7.7-10.3
	c0.2-0.3,0.2-0.8-0.2-1.2C33.8,7.6,33.3,7.7,33,8c-3.8,5.8-8.3,11.4-13.3,16.8l1.2-4.7c0.1-0.4-0.1-0.9-0.6-1c-0.2,0-0.4,0-0.6,0.1
	c-0.2,0.1-0.3,0.3-0.3,0.5l-1.8,7.5C13.8,31,9.9,34.6,5.7,38c-1.9-3.2-0.4-7.2,4.6-12.7c0.3,0.8,0.8,2.2,1.5,2.2
	c0.2,0,0.4-0.1,0.6-0.3c0.1-0.2,0.2-0.4,0.2-0.6c0-0.7,0.7-2.9,2.1-5.3c5.8-5.3,13.8-11.4,19.1-15.4l1.5-1.1c0.8-0.6,1.4-1,1.8-1.4
	C36.6,5.7,35.7,9.5,34.2,13.7z"/>
</svg>
