<?xml version="1.0" encoding="utf-8"?>
<!-- Generator: Adobe Illustrator 21.1.0, SVG Export Plug-In . SVG Version: 6.00 Build 0)  -->
<svg version="1.1" id="Слой_1" xmlns="http://www.w3.org/2000/svg" xmlns:xlink="http://www.w3.org/1999/xlink" x="0px" y="0px"
	 viewBox="0 0 40 40" style="enable-background:new 0 0 40 40;" xml:space="preserve">
<style type="text/css">
	.st0{fill:#1D8F7F;}
</style>
<g>
	<path class="st0" d="M11.5,12.4c0.1,0.1,0.3,0.2,0.5,0.2s0.3-0.1,0.5-0.2c0.3-0.3,0.3-0.7,0-1L6.8,5.9c-0.3-0.3-0.7-0.2-1,0
		c-0.3,0.3-0.3,0.7,0,1L11.5,12.4z"/>
	<path class="st0" d="M9.3,20c0-0.4-0.3-0.7-0.7-0.7H0.7C0.3,19.3,0,19.6,0,20s0.3,0.7,0.7,0.7h7.9C9,20.7,9.3,20.4,9.3,20z"/>
	<path class="st0" d="M28.1,12.6c0.2,0,0.3-0.1,0.5-0.2l5.6-5.6c0.3-0.3,0.3-0.7,0-1c-0.2-0.2-0.7-0.3-1,0l-5.6,5.6
		c-0.3,0.3-0.3,0.7,0,1C27.7,12.6,27.9,12.6,28.1,12.6z"/>
	<path class="st0" d="M20,9.3c0.4,0,0.7-0.3,0.7-0.7V0.7C20.7,0.3,20.4,0,20,0s-0.7,0.3-0.7,0.7v7.9C19.3,9,19.6,9.3,20,9.3z"/>
	<path class="st0" d="M11.5,27.6l-5.6,5.6c-0.3,0.3-0.3,0.7,0,1c0.1,0.1,0.3,0.2,0.5,0.2s0.3-0.1,0.5-0.2l5.6-5.6
		c0.3-0.3,0.3-0.7,0-1C12.1,27.3,11.7,27.3,11.5,27.6z"/>
	<path class="st0" d="M20,30.7c-0.4,0-0.7,0.3-0.7,0.7v7.9c0,0.4,0.3,0.7,0.7,0.7s0.7-0.3,0.7-0.7v-7.9C20.7,31,20.4,30.7,20,30.7z"
		/>
	<path class="st0" d="M39.3,19.3h-7.9c-0.4,0-0.7,0.3-0.7,0.7s0.3,0.7,0.7,0.7h7.9c0.4,0,0.7-0.3,0.7-0.7S39.7,19.3,39.3,19.3z"/>
	<path class="st0" d="M28.5,27.6c-0.3-0.3-0.7-0.3-1,0s-0.3,0.7,0,1l5.6,5.6c0.1,0.1,0.3,0.2,0.5,0.2s0.3-0.1,0.5-0.2
		c0.3-0.3,0.3-0.7,0-1L28.5,27.6z"/>
	<path class="st0" d="M20,11.9c-4.5,0-8.1,3.6-8.1,8.1s3.6,8.1,8.1,8.1s8.1-3.6,8.1-8.1S24.5,11.9,20,11.9z M20,26.7
		c-3.7,0-6.7-3-6.7-6.7s3-6.7,6.7-6.7s6.7,3,6.7,6.7S23.7,26.7,20,26.7z"/>
</g>
</svg>
