<?xml version="1.0" encoding="utf-8"?>
<!-- Generator: Adobe Illustrator 21.1.0, SVG Export Plug-In . SVG Version: 6.00 Build 0)  -->
<svg version="1.1" id="_x2014_лой_x5F_1" xmlns="http://www.w3.org/2000/svg" xmlns:xlink="http://www.w3.org/1999/xlink"
	 x="0px" y="0px" viewBox="0 0 127 51.3" style="enable-background:new 0 0 127 51.3;" xml:space="preserve">
<style type="text/css">
	.st0{fill:#F04E45;}
</style>
<g>
	<polygon class="st0" points="25.8,7.7 4.7,42.3 0,34.7 21.1,0 	"/>
	<polygon class="st0" points="31.3,16.7 10.2,51.3 5.5,43.7 26.6,8.9 	"/>
	<polygon class="st0" points="42.3,16.7 26.6,42.3 21.9,34.7 37.6,8.9 	"/>
	<polygon class="st0" points="42.3,34.7 32.1,51.2 27.4,43.6 37.6,27 	"/>
	<g>
		<path class="st0" d="M59.4,14.9h4.8l4.2,16.6h-2.3L65,27.8h-6.5l-1,3.7h-2.3L59.4,14.9z M59,25.6h5.5l-2.1-8.5h-1.2L59,25.6z"/>
		<path class="st0" d="M71.1,14.5h2.3v17.1h-2.3V14.5z"/>
		<path class="st0" d="M77.8,19.6h2.3v0.7c0,0,1.7-1,3.3-1c3.1,0,4.5,1.7,4.5,6.1c0,4.8-1.6,6.4-5.3,6.4c-1.1,0-2.3-0.2-2.5-0.3v5.2
			h-2.3V19.6z M80,22.2v7.4c0.2,0,1.4,0.2,2.3,0.2c2.4,0,3.1-1.2,3.1-4.3c0-3-0.9-4-2.5-4C81.6,21.4,80,22.2,80,22.2z"/>
		<path class="st0" d="M101.1,25.4c0,4.9-1.5,6.4-5.8,6.4c-1.3,0-4.2-0.3-4.2-0.3v-17h2.3v5.6c0,0,1.7-0.7,3.2-0.7
			C99.8,19.3,101.1,21,101.1,25.4z M98.8,25.4c0-2.9-0.7-4-2.5-4c-1.3,0-2.9,0.5-2.9,0.5v7.7c0,0,1.4,0.1,2,0.1
			C98.2,29.7,98.8,28.4,98.8,25.4z"/>
		<path class="st0" d="M113.2,28.7c0,0.8,0.5,1.1,1.2,1.2l-0.1,1.9c-1.7,0-2.4-0.3-3-0.9c0,0-2.1,0.9-4.2,0.9
			c-2.2,0-3.4-1.4-3.4-3.8s1.3-3.4,3.8-3.6l3.4-0.3v-0.9c0-1.2-0.6-1.8-1.8-1.8c-1.8,0-4.6,0.3-4.6,0.3l-0.1-2c0,0,3-0.5,4.8-0.5
			c2.6,0,3.9,1.1,3.9,4v5.5H113.2z M107.8,26.2c-1.2,0.1-1.8,0.7-1.8,1.8c0,1.2,0.5,1.8,1.5,1.8c1.5,0,3.4-0.6,3.4-0.6v-3.3
			L107.8,26.2z"/>
		<path class="st0" d="M127,19.6v12h-2.3v-0.7c0,0-1.9,1-3.4,1c-3.4,0-4.1-1.7-4.1-6v-6.2h2.3v6.2c0,2.9,0.2,4,2.2,4
			c1.3,0,2.9-0.7,2.9-0.7v-9.4h2.4V19.6z"/>
	</g>
</g>
</svg>
