<?xml version="1.0" encoding="utf-8"?>
<!-- Generator: Adobe Illustrator 21.1.0, SVG Export Plug-In . SVG Version: 6.00 Build 0)  -->
<svg version="1.1" id="Слой_1" xmlns="http://www.w3.org/2000/svg" xmlns:xlink="http://www.w3.org/1999/xlink" x="0px" y="0px"
	 viewBox="0 0 31 40.2" style="enable-background:new 0 0 31 40.2;" xml:space="preserve">
<style type="text/css">
	.st0{fill:#999999;}
</style>
<g transform="translate(0,-952.36218)">
	<path class="st0" d="M2.9,952.4c-1.6,0-2.9,1.3-2.9,2.9v34.4c0,1.6,1.3,2.9,2.9,2.9h25.3c1.6,0,2.9-1.3,2.9-2.9v-26.4
		c0-0.2-0.1-0.3-0.2-0.4l-10.3-10.3c-0.1-0.1-0.3-0.2-0.4-0.2H2.9z M2.9,953.5h16.6v9.8c0,0.3,0.3,0.6,0.6,0.6h9.8v25.8
		c0,1-0.8,1.7-1.7,1.7H2.9c-1,0-1.7-0.8-1.7-1.7v-34.4C1.1,954.3,1.9,953.5,2.9,953.5z M20.7,954.4l8.4,8.4h-8.4V954.4z M6.9,968.5
		c-0.3,0-0.5,0.3-0.5,0.6v4.6c0,0.3,0.3,0.6,0.6,0.6h1.7v6.9H6.9c-0.3,0-0.6,0.3-0.6,0.6v4.6c0,0.3,0.3,0.6,0.6,0.6h4.6
		c0.3,0,0.6-0.3,0.6-0.6v-4.6c0,0,0,0,0-0.1c0-0.3-0.3-0.5-0.6-0.5H9.8v-6.9h1.7c0.3,0,0.5-0.2,0.6-0.5c0,0,0,0,0-0.1v-1.7h6.9v1.7
		c0,0,0,0,0,0.1c0,0.3,0.3,0.5,0.6,0.5h4.6c0.3,0,0.6-0.3,0.6-0.6V969c0-0.3-0.3-0.6-0.6-0.6h-4.6c-0.3,0-0.6,0.3-0.6,0.6v1.7h-6.9
		V969c0-0.3-0.3-0.6-0.6-0.6H6.9C6.9,968.5,6.9,968.5,6.9,968.5z M7.5,969.6h3.4v3.4H7.5V969.6z M20.1,969.6h3.4v3.4h-3.4V969.6z
		 M14.9,976.5c-0.3,0-0.5,0.3-0.5,0.6c0,0.1,0,0.1,0.1,0.2l4.6,9.2c0.1,0.3,0.5,0.4,0.8,0.3c0.1,0,0.1-0.1,0.2-0.1l4.6-4.6
		c0.2-0.2,0.2-0.6,0-0.8c0-0.1-0.1-0.1-0.2-0.1l-9.2-4.6C15.1,976.5,15,976.5,14.9,976.5z M16.2,978.4l6.9,3.5l-3.4,3.4L16.2,978.4z
		 M7.5,982.2h3.4v3.4H7.5V982.2z"/>
</g>
</svg>
