<?xml version="1.0" encoding="utf-8"?>
<!-- Generator: Adobe Illustrator 21.1.0, SVG Export Plug-In . SVG Version: 6.00 Build 0)  -->
<svg version="1.1" id="Слой_1" xmlns="http://www.w3.org/2000/svg" xmlns:xlink="http://www.w3.org/1999/xlink" x="0px" y="0px"
	 viewBox="0 0 44 27" style="enable-background:new 0 0 44 27;" xml:space="preserve">
<g>
	<g>
		<g>
			<g>
				<path d="M3.1,27L3.1,27c-0.2-0.1-0.3-0.2-0.3-0.3V14.6c0-0.2,0.2-0.3,0.3-0.3h7.8c0.1,0,0.2,0.1,0.3,0.2c0.1,0.1,0.1,0.2,0,0.3
					L3.4,26.9C3.3,26.9,3.2,27,3.1,27z M3.5,14.9v10.6l6.8-10.6H3.5z"/>
			</g>
			<g>
				<path d="M10.9,14.9H3.1c-0.1,0-0.3-0.1-0.3-0.2c-0.1-0.1,0-0.3,0.1-0.4l8.6-8.7c0.1-0.1,0.3-0.1,0.4-0.1c0.1,0,0.2,0.2,0.2,0.3
					l-0.9,8.7C11.2,14.8,11.1,14.9,10.9,14.9z M3.9,14.2h6.7l0.7-7.4L3.9,14.2z"/>
			</g>
			<g>
				<path d="M3.1,14.9H3c-0.1-0.1-0.2-0.2-0.2-0.3v-4.4c0-0.1,0.1-0.3,0.2-0.3l8.6-4.2c0.1-0.1,0.3,0,0.4,0.1c0.1,0.1,0.1,0.3,0,0.4
					l-8.6,8.7C3.3,14.9,3.2,14.9,3.1,14.9z M3.5,10.4v3.4l6.6-6.6L3.5,10.4z"/>
			</g>
			<g>
				<path d="M3.1,10.5c-0.1,0-0.2-0.1-0.3-0.2C2.7,10.2,2.7,10,2.9,9.9l8.9-7.2c0.1-0.1,0.3-0.1,0.4,0c0.1,0.1,0.2,0.2,0.2,0.3
					l-0.2,2.9c0,0.1-0.1,0.2-0.2,0.3l-8.7,4.3C3.2,10.5,3.2,10.5,3.1,10.5z M11.6,3.7L5.7,8.5l5.8-2.8L11.6,3.7z"/>
			</g>
			<g>
				<path d="M11.8,6.2c-0.1,0-0.2,0-0.2-0.1c-0.1-0.1-0.1-0.2-0.1-0.3l0.2-2.9c0-0.2,0.2-0.3,0.3-0.3h10c0.2,0,0.3,0.1,0.3,0.3
					s-0.1,0.3-0.2,0.4L11.8,6.2L11.8,6.2z M12.3,3.3l-0.2,2.1l7.4-2.1H12.3z"/>
			</g>
			<g>
				<path d="M22.1,3.3H12c-0.2,0-0.3-0.1-0.3-0.3s0.1-0.3,0.2-0.4l10-2.6c0.1,0,0.2,0,0.3,0.1c0.1,0.1,0.1,0.2,0.1,0.3V3
					C22.4,3.2,22.3,3.3,22.1,3.3z M14.7,2.6h7V0.8L14.7,2.6z"/>
			</g>
			<g>
				<path d="M22.1,10.5h-0.1L11.7,6.3c-0.1-0.1-0.2-0.2-0.2-0.3s0.1-0.3,0.2-0.3l10.2-2.9c0.1,0,0.2,0,0.3,0.1
					c0.1,0.1,0.1,0.2,0.1,0.3v7.2c0,0.1-0.1,0.2-0.1,0.3C22.2,10.5,22.2,10.5,22.1,10.5z M12.8,6l8.9,3.7V3.5L12.8,6z"/>
			</g>
			<g>
				<path d="M10.9,14.9c-0.1,0-0.1,0-0.2-0.1c-0.1-0.1-0.1-0.2-0.1-0.3l0.9-8.7c0-0.1,0.1-0.2,0.2-0.3c0.1-0.1,0.2-0.1,0.3,0
					l10.2,4.2c0.1,0.1,0.2,0.2,0.2,0.3s-0.1,0.3-0.2,0.3l-11.1,4.4C11,14.9,11,14.9,10.9,14.9z M12.1,6.4l-0.8,7.7l9.8-3.9L12.1,6.4
					z"/>
			</g>
		</g>
		<g>
			<g>
				<path d="M41,27c-0.1,0-0.2-0.1-0.3-0.2l-7.8-12.1c-0.1-0.1-0.1-0.2,0-0.3s0.2-0.2,0.3-0.2H41c0.2,0,0.3,0.2,0.3,0.3v12.1
					C41.3,26.8,41.2,26.9,41,27L41,27z M33.8,14.9l6.8,10.6V14.9H33.8z"/>
			</g>
			<g>
				<path d="M41,14.9h-7.8c-0.2,0-0.3-0.1-0.3-0.3L32,5.9c0-0.1,0.1-0.3,0.2-0.3c0.1-0.1,0.3,0,0.4,0.1l8.6,8.7
					c0.1,0.1,0.1,0.2,0.1,0.4C41.2,14.8,41.1,14.9,41,14.9z M33.5,14.2h6.7l-7.4-7.4L33.5,14.2z"/>
			</g>
			<g>
				<path d="M41,14.9c-0.1,0-0.2,0-0.2-0.1l-8.6-8.7c-0.1-0.1-0.1-0.3,0-0.4c0.1-0.1,0.3-0.2,0.4-0.1l8.6,4.2
					c0.1,0.1,0.2,0.2,0.2,0.3v4.4c0,0.1-0.1,0.3-0.2,0.3C41.1,14.9,41,14.9,41,14.9z M34,7.1l6.6,6.6v-3.4L34,7.1z"/>
			</g>
			<g>
				<path d="M41,10.5h-0.1l-8.6-4.2c-0.1-0.1-0.2-0.2-0.2-0.3l-0.2-2.9c0-0.1,0.1-0.3,0.2-0.3c0.1-0.1,0.3-0.1,0.4,0l8.9,7.2
					c0.1,0.1,0.2,0.3,0.1,0.4C41.2,10.4,41.1,10.5,41,10.5z M32.6,5.7l5.8,2.8l-5.9-4.8L32.6,5.7z"/>
			</g>
			<g>
				<path d="M32.3,6.2L32.3,6.2l-10.3-3c-0.2,0-0.3-0.2-0.2-0.4c0-0.2,0.2-0.3,0.3-0.3h10c0.2,0,0.3,0.1,0.3,0.3l0.2,2.9
					c0,0.1,0,0.2-0.1,0.3C32.5,6.2,32.4,6.2,32.3,6.2z M24.5,3.3l7.4,2.1l-0.2-2.1H24.5z"/>
			</g>
			<g>
				<path d="M32.1,3.3h-10c-0.2,0-0.3-0.2-0.3-0.3V0.4c0-0.1,0-0.2,0.1-0.3C21.9,0,22.1,0,22.2,0l10,2.6c0.2,0,0.3,0.2,0.2,0.4
					C32.4,3.2,32.3,3.3,32.1,3.3z M22.4,2.6h7l-7-1.8V2.6z"/>
			</g>
			<g>
				<path d="M22.1,10.5c-0.1,0-0.1,0-0.2-0.1c-0.1-0.1-0.1-0.2-0.1-0.3V2.9c0-0.1,0-0.2,0.1-0.3c0.1-0.1,0.2-0.1,0.3-0.1l10.2,2.9
					c0.1,0,0.2,0.2,0.2,0.3S32.5,6,32.4,6l-10.2,4.5H22.1z M22.4,3.4v6.2l8.9-3.7L22.4,3.4z"/>
			</g>
			<g>
				<path d="M33.2,14.9h-0.1l-11.1-4.4c-0.1-0.1-0.2-0.2-0.2-0.3s0.1-0.3,0.2-0.3l10.2-4.2c0.1,0,0.2,0,0.3,0
					c0.1,0.1,0.2,0.2,0.2,0.3l0.9,8.7c0,0.1,0,0.2-0.1,0.3C33.3,14.9,33.2,14.9,33.2,14.9z M23,10.1l9.8,3.9L32,6.3L23,10.1z"/>
			</g>
		</g>
	</g>
	<g>
		<path d="M43.8,27H0.3C0.1,27,0,26.8,0,26.7s0.2-0.3,0.3-0.3h43.4c0.2,0,0.3,0.2,0.3,0.3S43.9,27,43.8,27z"/>
	</g>
</g>
</svg>
