<svg xmlns="http://www.w3.org/2000/svg" width="26" height="26" viewBox="0 0 26 26">
  <metadata><?xpacket begin="﻿" id="W5M0MpCehiHzreSzNTczkc9d"?>
<x:xmpmeta xmlns:x="adobe:ns:meta/" x:xmptk="Adobe XMP Core 5.6-c138 79.159824, 2016/09/14-01:09:01        ">
   <rdf:RDF xmlns:rdf="http://www.w3.org/1999/02/22-rdf-syntax-ns#">
      <rdf:Description rdf:about=""/>
   </rdf:RDF>
</x:xmpmeta>
                                                                                                    
                                                                                                    
                                                                                                    
                                                                                                    
                                                                                                    
                                                                                                    
                                                                                                    
                                                                                                    
                                                                                                    
                                                                                                    
                                                                                                    
                                                                                                    
                                                                                                    
                                                                                                    
                                                                                                    
                                                                                                    
                                                                                                    
                                                                                                    
                                                                                                    
                                                                                                    
                           
<?xpacket end="w"?></metadata>
<defs>
    <style>
      .cls-1 {
        fill: #1d8f7f;
        fill-rule: evenodd;
      }
    </style>
  </defs>
  <path id="Фигура_598" data-name="Фигура 598" class="cls-1" d="M715,12786.2a6.75,6.75,0,1,0,6.71,6.7A6.729,6.729,0,0,0,715,12786.2Zm0,11a4.293,4.293,0,0,1-4.3-4.3,4.3,4.3,0,1,1,8.6,0A4.292,4.292,0,0,1,715,12797.2Zm6.972-12.6a1.466,1.466,0,0,1,1.52,1.5,1.52,1.52,0,0,1-3.04,0A1.466,1.466,0,0,1,721.972,12784.6Zm3.932-2.5a7.493,7.493,0,0,0-5.5-2.1H709.6c-4.561,0-7.6,3-7.6,7.6v10.7a7.813,7.813,0,0,0,2.2,5.7,7.9,7.9,0,0,0,5.452,2h10.694a7.759,7.759,0,0,0,5.5-2,7.59,7.59,0,0,0,2.149-5.6v-10.8A7.694,7.694,0,0,0,725.9,12782.1Zm-0.21,16.3a5.116,5.116,0,0,1-1.52,3.8,5.4,5.4,0,0,1-3.827,1.4H709.653a5.4,5.4,0,0,1-3.827-1.4,5.139,5.139,0,0,1-1.415-3.9v-10.7a5.054,5.054,0,0,1,1.415-3.8,5.312,5.312,0,0,1,3.827-1.4h10.8a5.4,5.4,0,0,1,3.826,1.4,5.61,5.61,0,0,1,1.416,3.8v10.8h0Z" transform="translate(-702 -12780)"/>
</svg>
