<?xml version="1.0" encoding="utf-8"?>
<!-- Generator: Adobe Illustrator 21.1.0, SVG Export Plug-In . SVG Version: 6.00 Build 0)  -->
<svg version="1.1" id="Слой_1" xmlns="http://www.w3.org/2000/svg" xmlns:xlink="http://www.w3.org/1999/xlink" x="0px" y="0px"
	 viewBox="0 0 13 13" style="enable-background:new 0 0 13 13;" xml:space="preserve">
<style type="text/css">
	.st0{fill:#BEC6C5;}
</style>
<path class="st0" d="M12.6,9.6L12,9.4L9.6,8.5c-0.2,0-0.5,0-0.6,0.2L8.2,9.4C8,9.5,7.8,9.6,7.5,9.5c-1.8-0.8-3.2-2.2-4-4
	C3.4,5.3,3.5,5,3.6,4.8L4.3,4c0.1-0.2,0.2-0.4,0.1-0.6L3.6,1L3.4,0.4l0,0c0-0.1-0.1-0.2-0.1-0.2C3.2,0.1,3,0,2.9,0
	C2-0.1,1.2,0.3,0.7,1C0.6,1,0.6,1.1,0.6,1.1L0.5,1.2L0.4,1.3L0.3,1.4l0,0c-1,1.7,0.2,4.9,2.8,7.7l0,0c0.1,0.1,0.2,0.2,0.3,0.3
	l0.1,0.1l0.1,0.1c0.1,0.1,0.2,0.2,0.3,0.3l0,0c2.8,2.6,6,3.7,7.7,2.8l0,0l0.1-0.1l0.1-0.1l0.1-0.1l0.2-0.1c0.7-0.5,1-1.4,1-2.2
	c0-0.2-0.1-0.3-0.2-0.4C12.8,9.6,12.7,9.6,12.6,9.6L12.6,9.6z"/>
<path class="st0" d="M10.7,2.1L9.1,2.3L7.7,2.5c-0.1,0-0.2,0.1-0.2,0.3c0,0.1,0,0.1,0.1,0.1l0.5,0.6L6.3,5.4c-0.1,0.1-0.1,0.2,0,0.3
	l0,0l1.1,1.1c0.1,0.1,0.2,0.1,0.3,0l0,0L9.6,5l0.6,0.6c0.1,0.1,0.2,0.1,0.3,0l0.1-0.1L10.8,4L11,2.4C11,2.2,10.9,2.1,10.7,2.1
	C10.8,2.1,10.8,2.1,10.7,2.1z"/>
</svg>
