<?xml version="1.0" encoding="utf-8"?>
<!-- Generator: Adobe Illustrator 21.1.0, SVG Export Plug-In . SVG Version: 6.00 Build 0)  -->
<svg version="1.1" id="Слой_1" xmlns="http://www.w3.org/2000/svg" xmlns:xlink="http://www.w3.org/1999/xlink" x="0px" y="0px"
	 viewBox="0 0 57 47" style="enable-background:new 0 0 57 47;" xml:space="preserve">
<style type="text/css">
	.st0{fill:#1D8F7F;}
</style>
<g transform="translate(0,-952.36218)">
	<g>
		<path class="st0" d="M31.2,953.1c-4.8,0-8.7,3.9-8.7,8.7c0,3.4,1.9,6.3,4.7,7.7v3.7c0,2.2,1.8,4,4,4s4-1.8,4-4v-3.7
			c2.8-1.5,4.7-4.4,4.7-7.7C39.9,957,36,953.1,31.2,953.1z M31.2,954.4c4.1,0,7.4,3.3,7.4,7.4c0,3.9-3,7-6.7,7.3v-5.7l2.5-2.5
			c0.3-0.3,0.3-0.7,0-1c-0.3-0.3-0.7-0.3-1,0l0,0l-2.2,2.2L29,960c-0.1-0.2-0.4-0.2-0.6-0.2c-0.4,0-0.6,0.4-0.6,0.7
			c0,0.2,0.1,0.3,0.2,0.4l2.5,2.5v5.7c-3.8-0.3-6.7-3.5-6.7-7.3C23.8,957.7,27.1,954.4,31.2,954.4z M28.5,970.1
			c0.8,0.3,1.8,0.4,2.7,0.4s1.8-0.1,2.7-0.4v3.1c0,1.5-1.2,2.7-2.7,2.7c-1.5,0-2.7-1.2-2.7-2.7V970.1z M20.4,977.9
			c-4.1,0-7.5,2.1-10.8,4.6v-0.6c0-1.1-0.9-2-2-2H2.3c-1.1,0-2,0.9-2,2v14.7c0,1.1,0.9,2,2,2h5.4c1.1,0,2-0.9,2-2v-0.2l10-3.8
			c3.9,2.3,6.9,4.6,14.2,4.6c0.1,0,0.3,0,0.4-0.1l21.5-13.6c0.1,0,0.1-0.1,0.1-0.1c0.5-0.6,0.8-1.4,0.8-2.2c0-1.8-1.5-3.4-3.4-3.4
			c-0.5,0-1,0.1-1.5,0.3h0l-11.3,4.7c-0.2-1.7-1.6-3-3.3-3h-8.7c0,0,0,0,0,0c-1,0.1-2-0.4-3.3-0.9C23.9,978.5,22.3,977.9,20.4,977.9
			z M20.4,979.2c1.6,0,3,0.5,4.2,1c1.3,0.5,2.5,1.1,3.8,1v0h8.7c1.1,0,2,0.9,2,2s-0.9,2-2,2h-8.7c-0.4,0-0.7,0.3-0.7,0.7
			c0,0.4,0.3,0.7,0.7,0.7c0,0,0,0,0,0h8.7c1.4,0,2.7-0.9,3.1-2.2l12.1-5c0,0,0,0,0,0c0.3-0.1,0.6-0.2,0.9-0.2c1.1,0,2,0.9,2,2
			c0,0.5-0.2,0.9-0.5,1.3c0,0,0,0,0,0l-21.2,13.4c-7.1,0-9.5-2.2-13.6-4.6c-0.2-0.1-0.4-0.1-0.6,0l-9.9,3.7v-10.9
			C13.2,981.4,16.5,979.2,20.4,979.2z M2.3,981.2h5.4c0.4,0,0.7,0.3,0.7,0.7v14.7c0,0.4-0.3,0.7-0.7,0.7H2.3c-0.4,0-0.7-0.3-0.7-0.7
			v-14.7C1.6,981.5,1.9,981.2,2.3,981.2z"/>
		<path class="st0" d="M7.6,998.9H2.3c-1.3,0-2.3-1-2.3-2.3v-14.7c0-1.2,1-2.3,2.3-2.3h5.4c1.3,0,2.3,1,2.3,2.3v0.1
			c3.1-2.3,6.4-4.4,10.5-4.4c1.9,0,3.4,0.6,4.8,1.1l0.1,0c1.2,0.5,2.2,0.9,3.1,0.8l0,0l0.1,0h8.7c1.7,0,3.2,1.2,3.5,2.9l11.1-4.6
			c0.5-0.2,1-0.3,1.5-0.3c2,0,3.6,1.6,3.6,3.6c0,0.9-0.3,1.7-0.9,2.4c-0.1,0.1-0.1,0.1-0.2,0.2l-21.5,13.6c-0.1,0.1-0.3,0.1-0.5,0.1
			c-6.7,0-9.8-1.9-13.2-4c-0.4-0.2-0.7-0.4-1.1-0.6l-9.7,3.7C9.9,997.9,8.9,998.9,7.6,998.9z M2.3,980.1c-1,0-1.8,0.8-1.8,1.8v14.7
			c0,1,0.8,1.8,1.8,1.8h5.4c1,0,1.8-0.8,1.8-1.8v-0.3l0.2-0.1l10.1-3.8l0.1,0.1c0.4,0.2,0.8,0.5,1.2,0.7c3.4,2.1,6.4,3.9,12.9,3.9
			c0.1,0,0.2,0,0.2-0.1l21.5-13.6c0,0,0.1,0,0.1-0.1c0.5-0.6,0.8-1.3,0.8-2.1c0-1.7-1.4-3.1-3.1-3.1c-0.5,0-0.9,0.1-1.3,0.3l-0.1,0
			l-11.6,4.8l0-0.3c-0.2-1.6-1.5-2.8-3.1-2.8h-8.7c-1,0.1-2.1-0.4-3.3-0.9l-0.1,0c-1.4-0.6-2.8-1.1-4.6-1.1c-4.1,0-7.5,2.2-10.6,4.6
			L9.4,983v-1.1c0-1-0.8-1.8-1.8-1.8H2.3z M7.6,997.6H2.3c-0.5,0-0.9-0.4-0.9-0.9v-14.7c0-0.5,0.4-0.9,0.9-0.9h5.4
			c0.5,0,0.9,0.4,0.9,0.9v14.7C8.6,997.2,8.2,997.6,7.6,997.6z M2.3,981.5c-0.2,0-0.4,0.2-0.4,0.4v14.7c0,0.2,0.2,0.4,0.4,0.4h5.4
			c0.2,0,0.4-0.2,0.4-0.4v-14.7c0-0.2-0.2-0.4-0.4-0.4H2.3z M33.8,996.2L33.8,996.2c-6.3,0-8.9-1.6-12.3-3.7c-0.5-0.3-1-0.6-1.6-0.9
			c-0.1-0.1-0.2-0.1-0.4,0l-10.2,3.9v-11.4l0.1-0.1c3.8-3,7.1-5,10.9-5c1.7,0,3.1,0.5,4.3,1l0.3,0.1c1.1,0.5,2.2,0.9,3.4,0.8l0.3,0
			v0h8.5c1.3,0,2.3,1,2.3,2.3s-1,2.3-2.3,2.3h-8.7c-0.2,0-0.4,0.2-0.4,0.4c0,0.1,0,0.2,0.1,0.3s0.2,0.1,0.3,0.1h8.8
			c1.3,0,2.4-0.8,2.9-2l0-0.1l12.2-5c0.3-0.2,0.6-0.2,1-0.2c1.2,0,2.3,1,2.3,2.3c0,0.5-0.2,1-0.5,1.4l0,0l-0.1,0.2L33.8,996.2z
			 M19.8,991c0.2,0,0.3,0,0.5,0.1c0.5,0.3,1.1,0.6,1.6,0.9c3.3,2,5.8,3.6,11.9,3.6l21.1-13.3c0.3-0.4,0.5-0.7,0.5-1.2
			c0-1-0.8-1.8-1.8-1.8c-0.3,0-0.5,0.1-0.8,0.2l-12,5c-0.6,1.4-1.9,2.2-3.3,2.2h-8.7c-0.3,0-0.5-0.1-0.7-0.3s-0.3-0.4-0.3-0.7
			c0-0.5,0.4-0.9,0.9-0.9h8.7c1,0,1.8-0.8,1.8-1.8s-0.8-1.8-1.8-1.8l-9,0c0,0,0,0,0,0c-1.2,0-2.3-0.4-3.3-0.9l-0.3-0.1
			c-1.2-0.5-2.5-1-4.1-1c-3.6,0-6.8,1.9-10.5,4.9v10.4l9.5-3.6C19.5,991,19.7,991,19.8,991z M31.2,977.5c-2.4,0-4.3-1.9-4.3-4.3
			v-3.5c-2.9-1.6-4.7-4.6-4.7-7.9c0-4.9,4-9,9-9c5,0,9,4,9,9c0,3.3-1.8,6.3-4.7,7.9v3.5C35.5,975.5,33.6,977.5,31.2,977.5z
			 M31.2,953.3c-4.7,0-8.5,3.8-8.5,8.5c0,3.2,1.8,6,4.6,7.5l0.1,0.1v3.8c0,2.1,1.7,3.8,3.8,3.8c2.1,0,3.8-1.7,3.8-3.8v-3.8l0.1-0.1
			c2.8-1.5,4.6-4.3,4.6-7.5C39.7,957.1,35.9,953.3,31.2,953.3z M31.2,976.1c-1.6,0-2.9-1.3-2.9-2.9v-3.4l0.3,0.1
			c1.7,0.5,3.6,0.5,5.2,0l0.3-0.1v3.4C34.1,974.8,32.8,976.1,31.2,976.1z M28.8,970.4v2.8c0,1.4,1.1,2.4,2.4,2.4s2.4-1.1,2.4-2.4
			v-2.8C32.1,970.9,30.3,970.9,28.8,970.4z M31.6,969.4v-6.1l2.6-2.6c0.1-0.1,0.1-0.2,0.1-0.3c0-0.1,0-0.2-0.1-0.3
			c-0.2-0.2-0.4-0.2-0.6,0l-2.4,2.4l-2.4-2.4c-0.1-0.1-0.2-0.2-0.4-0.1c-0.1,0-0.2,0.1-0.3,0.2c-0.1,0.1-0.1,0.2-0.1,0.3
			c0,0.1,0.1,0.2,0.1,0.3l2.6,2.6v6.1l-0.3,0c-4-0.4-7-3.6-7-7.6c0-4.2,3.4-7.6,7.6-7.6s7.6,3.4,7.6,7.6c0,4-3,7.2-7,7.6L31.6,969.4
			z M32.1,963.5v5.3c3.6-0.5,6.2-3.4,6.2-7.1c0-3.9-3.2-7.1-7.1-7.1c-3.9,0-7.1,3.2-7.1,7.1c0,3.6,2.7,6.6,6.2,7.1v-5.3l-2.4-2.4
			c-0.2-0.1-0.3-0.4-0.3-0.6c0-0.2,0-0.5,0.2-0.7c0.2-0.2,0.4-0.3,0.6-0.3c0.3,0,0.6,0.1,0.8,0.3l2,2l2-2c0.4-0.4,0.9-0.4,1.3,0
			c0.2,0.2,0.3,0.4,0.3,0.7s-0.1,0.5-0.3,0.7L32.1,963.5z"/>
	</g>
</g>
</svg>
