<?xml version="1.0" encoding="UTF-8" standalone="no"?>
<svg width="150px" height="150px" viewBox="0 0 150 150" version="1.1" xmlns="http://www.w3.org/2000/svg" xmlns:xlink="http://www.w3.org/1999/xlink">
    <!-- Generator: Sketch 3.7.2 (28276) - http://www.bohemiancoding.com/sketch -->
    <title>icon-point</title>
    <desc>Created with Sketch.</desc>
    <defs></defs>
    <g id="Page-1" stroke="none" stroke-width="1" fill="none" fill-rule="evenodd">
        <g id="icon-point" fill="#2E71F2">
            <g id="Group-6">
                <g id="Page-1">
                    <g id="Group-6">
                        <path d="M75.13,109.51 C58.75,93.98 49.4,79.614 49.4,69.927 C49.4,55.717 60.96,44.157 75.17,44.157 C89.38,44.157 100.94,55.717 100.94,69.927 C100.94,83.541 82.58,102.084 75.13,109.51 L75.13,109.51 L75.13,109.51 Z M75.17,40.157 C58.76,40.157 45.4,53.512 45.4,69.927 C45.4,85.077 63.19,103.885 73.8,113.751 C74.07,114.004 74.4,114.169 74.73,114.245 L74.74,114.245 C74.74,114.245 74.74,114.245 74.74,114.246 C74.87,114.276 75.01,114.292 75.15,114.293 L75.17,114.293 C75.68,114.293 76.19,114.099 76.58,113.711 C76.58,113.71 76.58,113.708 76.59,113.707 L77.56,112.74 C85.75,104.574 104.94,85.451 104.94,69.927 C104.94,53.512 91.59,40.157 75.17,40.157 L75.17,40.157 L75.17,40.157 Z" id="Fill-253"></path>
                        <path d="M75.17,64.63 C78.09,64.63 80.47,67.006 80.47,69.927 C80.47,72.848 78.09,75.225 75.17,75.225 C72.25,75.225 69.87,72.848 69.87,69.927 C69.87,67.006 72.25,64.63 75.17,64.63 L75.17,64.63 L75.17,64.63 Z M75.17,79.225 C80.3,79.225 84.47,75.054 84.47,69.927 C84.47,64.801 80.3,60.63 75.17,60.63 C70.05,60.63 65.87,64.801 65.87,69.927 C65.87,75.054 70.05,79.225 75.17,79.225 L75.17,79.225 L75.17,79.225 Z" id="Fill-254"></path>
                        <path d="M93.15,73.979 C92.1,73.621 90.96,74.177 90.61,75.222 C88.35,81.812 82.14,86.24 75.17,86.24 C68.16,86.24 61.95,81.78 59.71,75.142 C59.36,74.095 58.22,73.53 57.18,73.886 C56.13,74.239 55.57,75.373 55.92,76.42 C58.71,84.686 66.44,90.24 75.17,90.24 C83.85,90.24 91.58,84.727 94.39,76.52 C94.75,75.475 94.19,74.338 93.15,73.979" id="Fill-255"></path>
                        <path d="M75,146 C35.85,146 4,114.149 4,75 C4,35.85 35.85,4 75,4 C114.15,4 146,35.85 146,75 C146,114.15 114.15,146 75,146 L75,146 L75,146 Z M75,0 L75,0 C33.58,0 0,33.579 0,75 C0,116.421 33.58,150 75,150 C116.42,150 150,116.421 150,75 C150,33.579 116.42,0 75,0 L75,0 L75,0 Z" id="Fill-256"></path>
                    </g>
                </g>
            </g>
        </g>
    </g>
</svg>