<?xml version="1.0" encoding="utf-8"?>
<!-- Generator: Avocode 2.6.0 - http://avocode.com -->
<svg height="20" width="20" xmlns:xlink="http://www.w3.org/1999/xlink" xmlns="http://www.w3.org/2000/svg" viewBox="0 0 20 20">
    <path fill="#2e71f0" fill-rule="evenodd" d="M 11.36 10 C 11.36 10 19.32 17.96 19.32 17.96 C 19.32 17.96 20 18.64 20 18.64 C 20 18.64 18.64 20 18.64 20 C 18.64 20 17.96 19.32 17.96 19.32 C 17.96 19.32 10 11.36 10 11.36 C 10 11.36 2.04 19.32 2.04 19.32 C 2.04 19.32 1.36 20 1.36 20 C 1.36 20 0 18.64 0 18.64 C 0 18.64 0.68 17.96 0.68 17.96 C 0.68 17.96 8.64 10 8.64 10 C 8.64 10 0.68 2.04 0.68 2.04 C 0.68 2.04 0 1.36 0 1.36 C 0 1.36 1.36 0 1.36 0 C 1.36 0 2.04 0.68 2.04 0.68 C 2.04 0.68 10 8.64 10 8.64 C 10 8.64 17.96 0.68 17.96 0.68 C 17.96 0.68 18.64 0 18.64 0 C 18.64 0 20 1.36 20 1.36 C 20 1.36 19.32 2.04 19.32 2.04 C 19.32 2.04 11.36 10 11.36 10 Z" />
</svg>