<?xml version="1.0" encoding="UTF-8" standalone="no"?>
<svg width="150px" height="151px" viewBox="0 0 150 151" version="1.1" xmlns="http://www.w3.org/2000/svg" xmlns:xlink="http://www.w3.org/1999/xlink">
    <!-- Generator: Sketch 3.7.2 (28276) - http://www.bohemiancoding.com/sketch -->
    <title>icon-heart-in-circle</title>
    <desc>Created with Sketch.</desc>
    <defs></defs>
    <g id="Page-1" stroke="none" stroke-width="1" fill="none" fill-rule="evenodd">
        <g id="icon-heart-in-circle" fill="#2E71F2">
            <g id="Group">
                <g id="Page-1">
                    <g id="Group">
                        <path d="M75,146.297 C35.85,146.297 4,114.446 4,75.297 C4,36.147 35.85,4.297 75,4.297 C114.15,4.297 146,36.147 146,75.297 C146,114.447 114.149,146.297 75,146.297 L75,146.297 L75,146.297 Z M75,0.297 L75,0.297 C33.578,0.297 0,33.876 0,75.297 C0,116.718 33.578,150.297 75,150.297 C116.421,150.297 150,116.718 150,75.297 C150,33.876 116.421,0.297 75,0.297 L75,0.297 L75,0.297 Z" id="Fill-303"></path>
                        <path d="M79.746,112.976 L75,116.925 L70.3,113.015 C49.046,94.209 34,79.688 34,64.038 C34,51.901 43.505,42.393 55.639,42.393 C62.297,42.393 69.13,45.583 73.473,50.717 C74.233,51.615 75.767,51.615 76.527,50.717 C80.87,45.583 87.703,42.393 94.361,42.393 C106.495,42.393 116,51.901 116,64.038 C116,79.688 100.955,94.209 79.746,112.976 L79.746,112.976 L79.746,112.976 Z M94.361,38.393 C87.186,38.393 80.104,41.38 75,46.476 C69.896,41.38 62.813,38.393 55.639,38.393 C41.262,38.393 30,49.658 30,64.038 C30,81.401 44.907,95.889 67.695,116.05 L73.721,121.064 C74.091,121.372 74.546,121.526 75,121.526 C75.454,121.526 75.909,121.372 76.28,121.064 L82.35,116.011 C105.092,95.889 120,81.401 120,64.038 C120,49.658 108.738,38.393 94.361,38.393 L94.361,38.393 L94.361,38.393 Z" id="Fill-305"></path>
                        <path d="M55.779,47.631 C46.457,47.631 39.154,54.936 39.154,64.26 C39.154,65.364 40.049,66.26 41.154,66.26 C42.258,66.26 43.154,65.364 43.154,64.26 C43.154,57.178 48.699,51.631 55.779,51.631 C56.883,51.631 57.779,50.736 57.779,49.631 C57.779,48.527 56.883,47.631 55.779,47.631" id="Fill-306"></path>
                    </g>
                </g>
            </g>
        </g>
    </g>
</svg>