<?xml version="1.0" encoding="UTF-8" standalone="no"?>
<svg width="150px" height="151px" viewBox="0 0 150 151" version="1.1" xmlns="http://www.w3.org/2000/svg" xmlns:xlink="http://www.w3.org/1999/xlink">
    <!-- Generator: Sketch 3.7.2 (28276) - http://www.bohemiancoding.com/sketch -->
    <title>icon-success</title>
    <desc>Created with Sketch.</desc>
    <defs></defs>
    <g id="Page-1" stroke="none" stroke-width="1" fill="none" fill-rule="evenodd">
        <g id="icon-success" fill="#2E71F2">
            <g id="Group-4">
                <g id="Page-1">
                    <g id="Group-4">
                        <path d="M75,146.297 C35.85,146.297 4,114.446 4,75.297 C4,36.147 35.851,4.297 75,4.297 C114.15,4.297 146,36.147 146,75.297 C146,114.447 114.149,146.297 75,146.297 L75,146.297 L75,146.297 Z M75,0.297 L75,0.297 C33.579,0.297 0,33.876 0,75.297 C0,116.718 33.579,150.297 75,150.297 C116.421,150.297 150,116.718 150,75.297 C150,33.876 116.421,0.297 75,0.297 L75,0.297 L75,0.297 Z" id="Fill-296"></path>
                        <path d="M109.273,49.43 L67.921,101.07 C66.585,102.738 64.592,103.694 62.456,103.694 C60.409,103.694 58.471,102.803 57.14,101.248 L39.85,81.059 C39.291,80.405 38.982,79.571 38.982,78.711 L38.982,77.962 C38.982,75.695 40.842,74.34 42.642,74.34 C43.373,74.34 44.433,74.561 45.336,75.613 L58.815,91.354 C59.766,92.464 61.15,93.101 62.613,93.101 C64.138,93.101 65.56,92.418 66.514,91.229 L103.638,44.915 C104.542,43.788 105.64,43.551 106.403,43.551 C107.396,43.551 108.364,43.95 109.058,44.646 C109.52,45.109 110.07,45.925 110.066,47.182 C110.063,47.997 109.782,48.795 109.273,49.43 L109.273,49.43 L109.273,49.43 Z M106.403,39.551 C104.087,39.551 101.997,40.568 100.517,42.413 L63.393,88.727 C63.132,89.053 62.792,89.101 62.612,89.101 C62.441,89.101 62.114,89.056 61.854,88.752 L48.373,73.011 C46.898,71.289 44.862,70.34 42.642,70.34 C38.877,70.34 34.982,73.191 34.982,77.962 L34.982,78.711 C34.982,80.526 35.632,82.284 36.812,83.661 L54.102,103.85 C56.194,106.293 59.239,107.694 62.455,107.694 L62.456,107.694 C65.814,107.694 68.944,106.192 71.044,103.57 L112.395,51.931 C113.467,50.592 114.061,48.91 114.066,47.194 C114.072,45.142 113.299,43.234 111.89,41.821 C110.452,40.379 108.452,39.551 106.403,39.551 L106.403,39.551 L106.403,39.551 Z" id="Fill-297"></path>
                    </g>
                </g>
            </g>
        </g>
    </g>
</svg>