<?xml version="1.0" encoding="UTF-8" standalone="no"?>
<svg width="150px" height="151px" viewBox="0 0 150 151" version="1.1" xmlns="http://www.w3.org/2000/svg" xmlns:xlink="http://www.w3.org/1999/xlink">
    <!-- Generator: Sketch 3.7.2 (28276) - http://www.bohemiancoding.com/sketch -->
    <title>icon-magic-wand</title>
    <desc>Created with Sketch.</desc>
    <defs></defs>
    <g id="Page-1" stroke="none" stroke-width="1" fill="none" fill-rule="evenodd">
        <g id="icon-magic-wand" fill="#2E71F2">
            <g id="Group-3">
                <g id="Page-1">
                    <g id="Group-3">
                        <path d="M75,146.297 C35.85,146.297 4,114.446 4,75.297 C4,36.147 35.851,4.297 75,4.297 C114.15,4.297 146,36.147 146,75.297 C146,114.447 114.149,146.297 75,146.297 L75,146.297 L75,146.297 Z M75,0.297 L75,0.297 C33.579,0.297 0,33.876 0,75.297 C0,116.718 33.579,150.297 75,150.297 C116.421,150.297 150,116.718 150,75.297 C150,33.876 116.421,0.297 75,0.297 L75,0.297 L75,0.297 Z" id="Fill-291"></path>
                        <path d="M45.315,61.255 L50.613,66.551 L45.315,71.848 L40.018,66.551 L45.315,61.255 L45.315,61.255 L45.315,61.255 Z M43.901,76.091 C44.276,76.466 44.785,76.677 45.315,76.677 C45.845,76.677 46.354,76.466 46.729,76.091 L54.855,67.966 C55.23,67.591 55.441,67.082 55.441,66.551 C55.441,66.021 55.23,65.512 54.855,65.137 L46.729,57.012 C45.979,56.261 44.651,56.262 43.901,57.012 L35.776,65.137 C34.995,65.918 34.995,67.185 35.776,67.966 L43.901,76.091 L43.901,76.091 L43.901,76.091 Z" id="Fill-292"></path>
                        <path d="M109.631,92.227 L105.987,88.582 L109.631,84.938 L113.276,88.582 L109.631,92.227 L109.631,92.227 L109.631,92.227 Z M111.046,80.695 C110.264,79.914 108.999,79.914 108.217,80.695 L101.745,87.168 C100.964,87.949 100.964,89.215 101.745,89.996 L108.217,96.469 C108.608,96.859 109.12,97.055 109.631,97.055 C110.143,97.055 110.655,96.859 111.046,96.469 L117.519,89.996 C117.894,89.621 118.105,89.112 118.105,88.582 C118.105,88.052 117.894,87.543 117.519,87.168 L111.046,80.695 L111.046,80.695 L111.046,80.695 Z" id="Fill-293"></path>
                        <path d="M60.315,38.255 L64.715,42.654 L60.315,47.054 L55.916,42.654 L60.315,38.255 L60.315,38.255 L60.315,38.255 Z M58.901,51.297 C59.276,51.672 59.785,51.883 60.315,51.883 C60.845,51.883 61.354,51.672 61.729,51.297 L68.958,44.068 C69.739,43.288 69.739,42.021 68.958,41.24 L61.729,34.012 C60.979,33.262 59.651,33.262 58.901,34.012 L51.673,41.24 C50.892,42.021 50.892,43.288 51.673,44.068 L58.901,51.297 L58.901,51.297 L58.901,51.297 Z" id="Fill-294"></path>
                        <path d="M117.395,68.996 C117.079,69.762 116.214,70.575 114.951,70.368 L104.287,68.622 C103.953,68.568 103.613,68.54 103.276,68.54 C100.913,68.54 98.78,69.849 97.709,71.956 L92.775,81.664 C92.231,82.734 91.304,82.895 90.8,82.895 C89.831,82.895 88.759,82.308 88.552,80.994 L86.843,70.112 C86.422,67.428 84.337,65.339 81.654,64.912 L70.789,63.184 C69.292,62.945 68.981,61.693 68.922,61.314 C68.863,60.935 68.773,59.647 70.125,58.962 L79.794,54.059 C82.231,52.821 83.573,50.178 83.131,47.481 L81.387,36.805 C81.247,35.945 81.564,35.356 81.855,35.014 C82.298,34.492 82.967,34.181 83.644,34.181 C84.226,34.181 84.747,34.407 85.194,34.854 L92.925,42.586 C94.105,43.766 95.674,44.415 97.343,44.415 C98.324,44.415 99.304,44.18 100.178,43.734 L110.019,38.72 C111.12,38.161 112.362,38.572 112.978,39.578 C113.215,39.966 113.54,40.762 113.04,41.742 L108.026,51.583 C106.795,54.001 107.255,56.916 109.175,58.835 L116.902,66.562 C117.86,67.52 117.566,68.583 117.395,68.996 L117.395,68.996 L117.395,68.996 Z M83.036,75.704 L77.389,81.276 L70.889,74.42 L77.137,68.244 L81.025,68.862 C81.991,69.016 82.741,69.767 82.892,70.732 L83.612,75.314 C83.404,75.409 83.207,75.534 83.036,75.704 L83.036,75.704 L83.036,75.704 Z M44.366,113.862 C42.897,115.289 40.961,115.599 39.186,114.694 C37.73,113.951 36.307,112.241 36.679,109.669 C36.838,108.576 37.352,107.558 38.142,106.79 L68.044,77.233 L74.542,84.085 L44.366,113.862 L44.366,113.862 L44.366,113.862 Z M119.73,63.734 L112.004,56.007 C111.313,55.317 111.147,54.268 111.59,53.399 L116.604,43.559 C117.6,41.604 117.52,39.335 116.388,37.488 C115.243,35.618 113.201,34.457 111.058,34.457 C110.075,34.457 109.114,34.693 108.203,35.156 L98.362,40.171 C98.043,40.333 97.701,40.415 97.343,40.415 C96.743,40.415 96.178,40.182 95.754,39.757 L88.022,32.026 C86.833,30.836 85.278,30.181 83.644,30.181 C81.809,30.181 80.001,31.019 78.807,32.423 C77.624,33.817 77.138,35.601 77.44,37.449 L79.184,48.126 C79.342,49.096 78.86,50.047 77.984,50.491 L68.316,55.394 C65.855,56.642 64.543,59.209 64.97,61.935 C65.399,64.66 67.436,66.701 70.16,67.134 L72.236,67.464 L35.341,103.934 C33.935,105.301 33.005,107.135 32.72,109.097 C32.166,112.938 33.99,116.533 37.368,118.257 C38.598,118.885 39.909,119.192 41.209,119.192 C43.365,119.192 45.49,118.347 47.165,116.721 L78.377,85.92 C78.515,85.841 78.649,85.751 78.769,85.637 C78.908,85.506 79.015,85.356 79.107,85.199 L84.351,80.024 L84.601,81.615 C85.082,84.675 87.689,86.895 90.8,86.895 C93.182,86.895 95.254,85.617 96.341,83.477 L101.275,73.769 C101.714,72.903 102.657,72.408 103.64,72.569 L114.304,74.315 C114.659,74.373 115.015,74.402 115.366,74.402 L115.367,74.402 C117.869,74.402 120.116,72.88 121.09,70.526 C122.072,68.157 121.55,65.554 119.73,63.734 L119.73,63.734 L119.73,63.734 Z" id="Fill-295"></path>
                    </g>
                </g>
            </g>
        </g>
    </g>
</svg>