<?xml version="1.0" encoding="UTF-8" standalone="no"?>
<svg width="150px" height="150px" viewBox="0 0 150 150" version="1.1" xmlns="http://www.w3.org/2000/svg" xmlns:xlink="http://www.w3.org/1999/xlink">
    <!-- Generator: Sketch 3.7.2 (28276) - http://www.bohemiancoding.com/sketch -->
    <title>icon-car</title>
    <desc>Created with Sketch.</desc>
    <defs></defs>
    <g id="Page-1" stroke="none" stroke-width="1" fill="none" fill-rule="evenodd">
        <g id="icon-car" fill="#2E71F2">
            <g id="Group-2">
                <g id="Page-1">
                    <g id="Group-2">
                        <path d="M75,146 C35.85,146 4,114.149 4,75 C4,35.85 35.85,4 75,4 C114.15,4 146,35.85 146,75 C146,114.15 114.15,146 75,146 L75,146 L75,146 Z M75,0 L75,0 C33.58,0 0,33.579 0,75 C0,116.421 33.58,150 75,150 C116.42,150 150,116.421 150,75 C150,33.579 116.42,0 75,0 L75,0 L75,0 Z" id="Fill-276"></path>
                        <path d="M116.42,90.333 L111.52,90.333 C110.6,86.025 106.77,82.783 102.19,82.783 C97.61,82.783 93.77,86.025 92.85,90.333 L75,90.333 C74.08,86.025 70.24,82.783 65.67,82.783 C61.08,82.783 57.25,86.025 56.33,90.333 L50.75,90.333 L50.75,65.386 C50.75,58.005 56.76,52 64.14,52 L86.09,52 L86.09,63.429 C86.09,68.798 90.45,73.167 95.82,73.167 L116.01,73.167 C116.28,73.995 116.42,74.866 116.42,75.758 L116.42,90.333 L116.42,90.333 L116.42,90.333 Z M102.19,97.884 C99.13,97.884 96.64,95.394 96.64,92.333 C96.64,89.273 99.13,86.783 102.19,86.783 C105.25,86.783 107.74,89.273 107.74,92.333 C107.74,95.394 105.25,97.884 102.19,97.884 L102.19,97.884 L102.19,97.884 Z M65.67,97.884 C62.6,97.884 60.11,95.394 60.11,92.333 C60.11,89.273 62.6,86.783 65.67,86.783 C68.73,86.783 71.21,89.273 71.21,92.333 C71.21,95.394 68.73,97.884 65.67,97.884 L65.67,97.884 L65.67,97.884 Z M100.53,55.913 L113.37,69.167 L95.82,69.167 C92.66,69.167 90.09,66.593 90.09,63.429 L90.09,52 L91.29,52 C94.75,52 98.12,53.426 100.53,55.913 L100.53,55.913 L100.53,55.913 Z M116.89,67.051 L103.4,53.13 C100.24,49.87 95.83,48 91.29,48 L64.14,48 C54.55,48 46.75,55.799 46.75,65.386 L46.75,92.333 C46.75,93.438 47.65,94.333 48.75,94.333 L56.33,94.333 C57.25,98.642 61.08,101.884 65.67,101.884 C70.24,101.884 74.08,98.642 75,94.333 L92.85,94.333 C93.77,98.642 97.61,101.884 102.19,101.884 C106.77,101.884 110.6,98.642 111.52,94.333 L118.42,94.333 C119.52,94.333 120.42,93.438 120.42,92.333 L120.42,75.758 C120.42,72.489 119.17,69.397 116.89,67.051 L116.89,67.051 L116.89,67.051 Z" id="Fill-277"></path>
                        <path d="M65.59,60 C64.48,60 63.59,60.896 63.59,62 L63.59,72.899 C63.59,74.004 64.48,74.899 65.59,74.899 C66.69,74.899 67.59,74.004 67.59,72.899 L67.59,62 C67.59,60.896 66.69,60 65.59,60" id="Fill-278"></path>
                        <path d="M75.59,60 C74.48,60 73.59,60.896 73.59,62 L73.59,72.899 C73.59,74.004 74.48,74.899 75.59,74.899 C76.69,74.899 77.59,74.004 77.59,72.899 L77.59,62 C77.59,60.896 76.69,60 75.59,60" id="Fill-279"></path>
                        <path d="M40.62,82.167 L31.13,82.167 C30.03,82.167 29.13,83.062 29.13,84.167 C29.13,85.271 30.03,86.167 31.13,86.167 L40.62,86.167 C41.73,86.167 42.62,85.271 42.62,84.167 C42.62,83.062 41.73,82.167 40.62,82.167" id="Fill-280"></path>
                        <path d="M40.62,65.167 L31.13,65.167 C30.03,65.167 29.13,66.062 29.13,67.167 C29.13,68.271 30.03,69.167 31.13,69.167 L40.62,69.167 C41.73,69.167 42.62,68.271 42.62,67.167 C42.62,66.062 41.73,65.167 40.62,65.167" id="Fill-281"></path>
                        <path d="M40.62,73.667 L21.67,73.667 C20.56,73.667 19.67,74.562 19.67,75.667 C19.67,76.771 20.56,77.667 21.67,77.667 L40.62,77.667 C41.73,77.667 42.62,76.771 42.62,75.667 C42.62,74.562 41.73,73.667 40.62,73.667" id="Fill-282"></path>
                    </g>
                </g>
            </g>
        </g>
    </g>
</svg>