<?xml version="1.0" encoding="UTF-8" standalone="no"?>
<svg width="150px" height="150px" viewBox="0 0 150 150" version="1.1" xmlns="http://www.w3.org/2000/svg" xmlns:xlink="http://www.w3.org/1999/xlink">
    <!-- Generator: Sketch 3.7.2 (28276) - http://www.bohemiancoding.com/sketch -->
    <title>icon-flag</title>
    <desc>Created with Sketch.</desc>
    <defs></defs>
    <g id="Page-1" stroke="none" stroke-width="1" fill="none" fill-rule="evenodd">
        <g id="icon-flag" fill="#2E71F2">
            <g id="Group-5">
                <g id="Page-1">
                    <g id="Group-5">
                        <path d="M75,146 C35.85,146 4,114.149 4,75 C4,35.85 35.85,4 75,4 C114.15,4 146,35.85 146,75 C146,114.15 114.15,146 75,146 L75,146 L75,146 Z M75,0 L75,0 C33.58,0 0,33.579 0,75 C0,116.421 33.58,150 75,150 C116.42,150 150,116.421 150,75 C150,33.579 116.42,0 75,0 L75,0 L75,0 Z" id="Fill-270"></path>
                        <path d="M104.37,88.504 C104.25,88.763 103.87,89.366 103.01,89.366 L71.25,89.366 L70.15,83.922 L70.15,83.915 L64.74,57.037 L103.01,57.037 C103.87,57.037 104.25,57.639 104.37,57.898 C104.49,58.157 104.72,58.831 104.18,59.5 L97.17,68.125 C94.78,71.066 94.78,75.336 97.17,78.277 L104.18,86.903 C104.72,87.571 104.49,88.246 104.37,88.504 L104.37,88.504 L104.37,88.504 Z M69.93,111.403 C69.09,112.655 67.82,113.508 66.35,113.805 C65.98,113.879 65.6,113.917 65.23,113.917 C62.56,113.917 60.25,112.017 59.72,109.398 L55.07,86.321 L66.56,86.321 L67.65,91.762 L67.65,91.775 L70.76,107.175 C71.05,108.649 70.76,110.15 69.93,111.403 L69.93,111.403 L69.93,111.403 Z M48.31,52.772 L59.8,52.772 L65.75,82.321 L54.27,82.321 L48.31,52.772 L48.31,52.772 L48.31,52.772 Z M47.49,48.704 C46.88,45.661 48.86,42.687 51.9,42.073 C52.27,41.999 52.65,41.961 53.02,41.961 C55.69,41.961 58,43.862 58.53,46.48 L58.99,48.772 L47.51,48.772 L47.49,48.704 L47.49,48.704 L47.49,48.704 Z M100.27,75.755 C99.07,74.275 99.07,72.127 100.27,70.648 L107.28,62.022 C108.64,60.356 108.9,58.118 107.98,56.179 C107.06,54.241 105.15,53.037 103.01,53.037 L63.93,53.037 L63.39,50.372 L63.39,50.367 L62.45,45.69 C61.55,41.212 57.58,37.961 53.02,37.961 C52.38,37.961 51.74,38.025 51.11,38.152 C45.91,39.201 42.52,44.288 43.57,49.494 L43.91,51.173 L43.91,51.178 L50.67,84.723 L50.67,84.726 L55.8,110.188 C56.7,114.667 60.67,117.917 65.23,117.917 C65.87,117.917 66.51,117.853 67.14,117.726 C69.66,117.218 71.83,115.759 73.26,113.617 C74.68,111.475 75.19,108.906 74.68,106.385 L72.05,93.366 L103.01,93.366 C105.15,93.366 107.06,92.162 107.98,90.223 C108.9,88.285 108.64,86.046 107.28,84.38 L100.27,75.755 L100.27,75.755 L100.27,75.755 Z" id="Fill-271"></path>
                        <path d="M82.6,76.716 C81.01,76.716 79.72,75.423 79.72,73.834 C79.72,72.245 81.01,70.952 82.6,70.952 C84.19,70.952 85.48,72.245 85.48,73.834 C85.48,75.423 84.19,76.716 82.6,76.716 L82.6,76.716 L82.6,76.716 Z M82.6,66.952 C78.81,66.952 75.72,70.039 75.72,73.834 C75.72,77.629 78.81,80.716 82.6,80.716 C86.4,80.716 89.48,77.629 89.48,73.834 C89.48,70.039 86.4,66.952 82.6,66.952 L82.6,66.952 L82.6,66.952 Z" id="Fill-272"></path>
                    </g>
                </g>
            </g>
        </g>
    </g>
</svg>