<?xml version="1.0" encoding="utf-8"?>
<!-- Generator: Avocode 2.6.0 - http://avocode.com -->
<svg height="16" width="24" xmlns:xlink="http://www.w3.org/1999/xlink" xmlns="http://www.w3.org/2000/svg" viewBox="0 0 24 16">
    <path fill="#3b3d40" fill-rule="evenodd" d="M 0 14 C 0 14 0 16 0 16 C 0 16 24 16 24 16 C 24 16 24 14 24 14 C 24 14 0 14 0 14 Z M 0 7 C 0 7 0 9 0 9 C 0 9 24 9 24 9 C 24 9 24 7 24 7 C 24 7 0 7 0 7 Z M 0 0 C 0 0 0 2 0 2 C 0 2 24 2 24 2 C 24 2 24 0 24 0 C 24 0 0 0 0 0 Z" />
</svg>