<?xml version="1.0" encoding="UTF-8" standalone="no"?>
<svg width="150px" height="150px" viewBox="0 0 150 150" version="1.1" xmlns="http://www.w3.org/2000/svg" xmlns:xlink="http://www.w3.org/1999/xlink">
    <!-- Generator: Sketch 3.7.2 (28276) - http://www.bohemiancoding.com/sketch -->
    <title>icon-hand</title>
    <desc>Created with Sketch.</desc>
    <defs></defs>
    <g id="Page-1" stroke="none" stroke-width="1" fill="none" fill-rule="evenodd">
        <g id="icon-hand" fill="#2E71F2">
            <g id="Group-7">
                <g id="Page-1">
                    <g id="Group-7">
                        <path d="M75,146 C35.85,146 4,114.149 4,75 C4,35.85 35.85,4 75,4 C114.15,4 146,35.85 146,75 C146,114.15 114.15,146 75,146 L75,146 L75,146 Z M75,0 L75,0 C33.58,0 0,33.579 0,75 C0,116.421 33.58,150 75,150 C116.43,150 150,116.421 150,75 C150,33.579 116.43,0 75,0 L75,0 L75,0 Z" id="Fill-248"></path>
                        <path d="M101.78,97.271 C101.78,97.958 101.23,98.516 100.54,98.516 L90.71,98.516 C90.03,98.516 89.47,97.958 89.47,97.271 L89.47,66.828 C89.47,66.142 90.03,65.583 90.71,65.583 L100.54,65.583 C101.23,65.583 101.78,66.142 101.78,66.828 L101.78,97.271 L101.78,97.271 L101.78,97.271 Z M85.47,93.204 L79.96,96.514 C78.35,97.484 76.5,97.998 74.62,97.998 L49.9,97.998 C48.04,97.998 46.53,96.488 46.53,94.633 L46.53,94.326 C46.53,93.498 46.85,92.703 47.41,92.088 C48.64,90.75 48.64,88.652 47.41,87.315 C46.85,86.7 46.53,85.904 46.53,85.076 L46.53,84.769 C46.53,83.94 46.85,83.146 47.41,82.531 C48.64,81.192 48.64,79.095 47.41,77.758 C46.85,77.142 46.53,76.347 46.53,75.519 L46.53,75.211 C46.53,74.383 46.85,73.588 47.41,72.974 C48.64,71.635 48.64,69.538 47.41,68.201 C46.85,67.585 46.53,66.79 46.53,65.961 L46.53,65.654 C46.53,63.799 48.04,62.29 49.9,62.29 L64.36,62.29 C65.46,62.29 66.36,61.395 66.36,60.29 C66.36,59.185 65.46,58.29 64.36,58.29 L62.84,58.29 L66.32,46.006 C66.71,44.628 67.98,43.667 69.41,43.667 L71.68,43.667 C72.33,43.667 72.86,44.182 72.88,44.841 L72.96,48.015 C72.99,49.57 73.27,51.104 73.77,52.574 L75.68,58.125 C77.06,62.13 79.81,65.542 83.43,67.732 L85.47,68.962 L85.47,93.204 L85.47,93.204 L85.47,93.204 Z M100.54,61.583 L90.71,61.583 C88.62,61.583 86.83,62.823 85.98,64.6 L85.5,64.309 C82.68,62.603 80.53,59.946 79.46,56.826 L77.56,51.275 C77.18,50.192 76.98,49.062 76.95,47.917 L76.88,44.744 C76.81,41.896 74.52,39.667 71.68,39.667 L69.41,39.667 C66.2,39.667 63.34,41.826 62.47,44.917 L58.69,58.29 L49.9,58.29 C45.84,58.29 42.53,61.594 42.53,65.654 L42.53,65.961 C42.53,67.653 43.12,69.279 44.19,70.586 C43.12,71.893 42.53,73.52 42.53,75.211 L42.53,75.519 C42.53,77.21 43.12,78.836 44.19,80.144 C43.12,81.451 42.53,83.077 42.53,84.769 L42.53,85.076 C42.53,86.768 43.12,88.394 44.19,89.701 C43.12,91.008 42.53,92.634 42.53,94.326 L42.53,94.633 C42.53,98.694 45.84,101.998 49.9,101.998 L74.62,101.998 C77.23,101.998 79.79,101.287 82.02,99.942 L85.53,97.837 C85.81,100.46 88.02,102.516 90.71,102.516 L100.54,102.516 C103.43,102.516 105.78,100.163 105.78,97.271 L105.78,66.828 C105.78,63.936 103.43,61.583 100.54,61.583 L100.54,61.583 L100.54,61.583 Z" id="Fill-249"></path>
                        <path d="M72.14,72.518 L60.47,72.518 C59.36,72.518 58.47,73.413 58.47,74.518 C58.47,75.622 59.36,76.518 60.47,76.518 L72.14,76.518 C73.24,76.518 74.14,75.622 74.14,74.518 C74.14,73.413 73.24,72.518 72.14,72.518" id="Fill-250"></path>
                        <path d="M72.14,82.518 L60.47,82.518 C59.36,82.518 58.47,83.413 58.47,84.518 C58.47,85.622 59.36,86.518 60.47,86.518 L72.14,86.518 C73.24,86.518 74.14,85.622 74.14,84.518 C74.14,83.413 73.24,82.518 72.14,82.518" id="Fill-251"></path>
                        <path d="M95.63,82 C94.52,82 93.63,82.896 93.63,84 L93.63,92.417 C93.63,93.521 94.52,94.417 95.63,94.417 C96.73,94.417 97.63,93.521 97.63,92.417 L97.63,84 C97.63,82.896 96.73,82 95.63,82" id="Fill-252"></path>
                    </g>
                </g>
            </g>
        </g>
    </g>
</svg>