<?xml version="1.0" encoding="UTF-8" standalone="no"?>
<svg width="64px" height="62px" viewBox="0 0 64 62" version="1.1" xmlns="http://www.w3.org/2000/svg" xmlns:xlink="http://www.w3.org/1999/xlink">
    <!-- Generator: Sketch 3.7.2 (28276) - http://www.bohemiancoding.com/sketch -->
    <title>icon-heart</title>
    <desc>Created with Sketch.</desc>
    <defs></defs>
    <g id="Page-1" stroke="none" stroke-width="1" fill="none" fill-rule="evenodd">
        <g id="icon-heart" fill="#2E71F2">
            <g id="Group-8">
                <g id="Page-1">
                    <g id="Group-8">
                        <path d="M34.89,54.819 L32,57.343 L29.16,54.86 C14.43,41.168 4,30.603 4,19.33 C4,10.733 10.37,4 18.49,4 C22.95,4 27.52,6.251 30.44,9.873 C30.82,10.344 31.39,10.619 32,10.619 C32.6,10.619 33.18,10.344 33.56,9.874 C36.47,6.251 41.05,4 45.51,4 C53.63,4 60,10.733 60,19.33 C60,30.603 49.57,41.167 34.89,54.819 L34.89,54.819 L34.89,54.819 Z M45.51,0 C40.54,0 35.64,2.077 32,5.646 C28.36,2.077 23.46,0 18.49,0 C8.12,0 0,8.491 0,19.33 C0,32.221 10.96,43.402 26.48,57.831 L30.68,61.506 C31.06,61.835 31.53,62 32,62 C32.47,62 32.94,61.835 33.32,61.506 L37.56,57.79 C53.04,43.402 64,32.221 64,19.33 C64,8.491 55.88,0 45.51,0 L45.51,0 L45.51,0 Z" id="Fill-6"></path>
                        <path d="M18.95,9.307 C13.07,9.307 8.47,14.096 8.47,20.211 C8.47,21.315 9.37,22.211 10.47,22.211 C11.58,22.211 12.47,21.315 12.47,20.211 C12.47,16.275 15.25,13.307 18.95,13.307 C20.05,13.307 20.95,12.412 20.95,11.307 C20.95,10.203 20.05,9.307 18.95,9.307" id="Fill-7"></path>
                    </g>
                </g>
            </g>
        </g>
    </g>
</svg>