<?xml version="1.0" encoding="UTF-8"?>
<svg width="50px" height="50px" viewBox="0 0 50 50" version="1.1" xmlns="http://www.w3.org/2000/svg" xmlns:xlink="http://www.w3.org/1999/xlink">
    <!-- Generator: Sketch 44.1 (41455) - http://www.bohemiancoding.com/sketch -->
    <title>icon-google-plus</title>
    <desc>Created with Sketch.</desc>
    <defs></defs>
    <g id="Page-1" stroke="none" stroke-width="1" fill="none" fill-rule="evenodd">
        <g id="icon-google-plus" fill-rule="nonzero">
            <path d="M50,43.0555556 C50,46.8912764 46.8912764,50 43.0555556,50 L6.94444444,50 C3.10872361,50 0,46.8912764 0,43.0555556 L0,6.94444444 C0,3.10872361 3.10872361,0 6.94444444,0 L43.0555556,0 C46.8912764,0 50,3.10872361 50,6.94444444 L50,43.0555556 Z" id="Shape" fill="#FF3D00"></path>
            <path d="M23.6924917,27.6963972 L22.2927514,26.6221792 C21.8587236,26.2858069 21.2673611,25.8246528 21.2673611,24.9837236 C21.2673611,24.1427958 21.8587236,23.6002611 22.3632819,23.1011292 C24.0017361,21.8478736 25.6456167,20.4372833 25.6456167,17.6106778 C25.6456167,14.7026917 23.7630208,13.2269972 22.8678389,12.3752167 L25.2821181,12.3752167 L27.7777778,11.1111111 L19.7482639,11.1111111 C17.6486542,11.1111111 14.9902347,11.4312069 12.7766931,13.2324222 C11.0948347,14.6375875 10.2756083,16.5961375 10.2756083,18.35395 C10.2756083,21.3378903 12.6193583,24.3706597 16.7480472,24.3706597 C17.1386722,24.3706597 17.567275,24.3272569 18.0013028,24.2892792 C17.8059903,24.7558597 17.6052514,25.1410597 17.6052514,25.775825 C17.6052514,26.9639764 18.2345917,27.6909722 18.7771264,28.3745667 C17.0247403,28.4939236 13.7478306,28.6892361 11.3389764,30.1432292 C9.03320278,31.4887153 8.33333333,33.4364153 8.33333333,34.8090278 C8.33333333,37.6410597 11.0568583,40.2777778 16.7100694,40.2777778 C23.4103736,40.2777778 26.95855,36.6482208 26.95855,33.0512153 C26.95855,30.4199222 25.4069014,29.1124139 23.6924917,27.6963972 Z M18.5818139,23.2964417 C15.234375,23.2964417 13.7044278,19.0483944 13.7044278,16.4876306 C13.7044278,15.4947917 13.9051653,14.4639764 14.5670569,13.66645 C15.1963972,12.89605 16.2868931,12.3969181 17.2960069,12.3969181 C20.5295139,12.3969181 22.2059458,16.6829431 22.2059458,19.4390194 C22.2059458,20.1171875 22.1299917,21.3378903 21.2402347,22.2222222 C20.6108944,22.8352861 19.5638028,23.2964417 18.5818139,23.2964417 Z M18.6197917,38.6773 C14.453125,38.6773 11.7675778,36.724175 11.7675778,34.0115014 C11.7675778,31.2934028 14.2523875,30.3765194 15.1150181,30.067275 C16.7534722,29.5301653 18.8530819,29.4596361 19.2057292,29.4596361 C19.6017792,29.4596361 19.7970917,29.4596361 20.1063375,29.4976125 C23.0685764,31.5592444 24.3489583,32.5900611 24.3489583,34.5431861 C24.3489583,36.9086375 22.3632819,38.6773 18.6197917,38.6773 Z" id="Shape" fill="#FFFFFF"></path>
            <polygon id="Shape" fill="#FFFFFF" points="34.7222222 19.4444444 37.5 19.4444444 37.5 30.5555556 34.7222222 30.5555556"></polygon>
            <polygon id="Shape" fill="#FFFFFF" points="30.5555556 23.6111111 41.6666667 23.6111111 41.6666667 26.3888889 30.5555556 26.3888889"></polygon>
        </g>
    </g>
</svg>