<?xml version="1.0" encoding="UTF-8"?>
<svg width="50px" height="50px" viewBox="0 0 50 50" version="1.1" xmlns="http://www.w3.org/2000/svg" xmlns:xlink="http://www.w3.org/1999/xlink">
    <!-- Generator: Sketch 44.1 (41455) - http://www.bohemiancoding.com/sketch -->
    <title>icon-vk</title>
    <desc>Created with Sketch.</desc>
    <defs></defs>
    <g id="Page-1" stroke="none" stroke-width="1" fill="none" fill-rule="evenodd">
        <g id="icon-vk" fill-rule="nonzero">
            <path d="M50,43.0555556 C50,46.8912764 46.8912764,50 43.0555556,50 L6.94444444,50 C3.10872361,50 0,46.8912764 0,43.0555556 L0,6.94444444 C0,3.10872361 3.10872361,0 6.94444444,0 L43.0555556,0 C46.8912764,0 50,3.10872361 50,6.94444444 L50,43.0555556 Z" id="Shape" fill="#0288D1"></path>
            <path d="M37.7549917,29.6657986 C40.6467014,32.3730472 41.2489153,33.6968319 41.3465708,33.8595917 C42.5401472,35.8669708 40.0227861,36.0243056 40.0227861,36.0243056 L35.1996528,36.0948347 C35.1996528,36.0948347 34.1579861,36.3009986 32.7962236,35.3515625 C30.9895833,34.1037333 28.52105,30.848525 27.1972653,31.2717014 C25.8517792,31.7003042 26.2803819,35.1128472 26.2803819,35.1128472 C26.2803819,35.1128472 26.2912333,35.5305986 25.9874139,35.8669708 C25.6510417,36.2196181 25,36.0839847 25,36.0839847 L23.6111111,36.0839847 C23.6111111,36.0839847 18.4624569,36.1056861 14.2632375,31.6894528 C9.68967083,26.8771708 5.8648,17.8765194 5.8648,17.8765194 C5.8648,17.8765194 5.63151111,17.3068583 5.88107639,17.0030389 C6.16861944,16.6612417 6.94444444,16.6666667 6.94444444,16.6666667 L12.10395,16.6666667 C12.10395,16.6666667 12.5868056,16.7317708 12.9340278,16.9921875 C13.2269972,17.2037764 13.3843319,17.6052514 13.3843319,17.6052514 C13.3843319,17.6052514 14.0082472,19.2816847 15.1150181,21.2131083 C17.2688806,24.9782986 18.2725694,25.8029514 19.0049917,25.39605 C20.0683597,24.8046875 19.7482639,20.0737847 19.7482639,20.0737847 C19.7482639,20.0737847 19.7699653,18.35395 19.2111542,17.5889764 C18.7771264,16.9921875 17.96875,16.8185764 17.6106778,16.7697486 C17.3177083,16.7371958 17.7951389,16.0536028 18.4136292,15.7497833 C19.3413625,15.2940542 20.9852431,15.2615014 22.9220917,15.2832028 C24.4303389,15.2994792 25,15.2777778 25,15.2777778 C26.7795139,15.7118056 26.1773,17.3936639 26.1773,21.4084208 C26.1773,22.6996528 25.9440111,24.5117194 26.8663194,25.1085069 C27.2623694,25.3743486 28.6838111,25.4123264 31.0980903,21.2619361 C32.2482639,19.2925347 33.1542972,17.4424917 33.1542972,17.4424917 C33.1542972,17.4424917 33.3496097,17.0247403 33.6371528,16.8511292 C33.9409722,16.6666667 34.3424486,16.6666667 34.3424486,16.6666667 L39.7732208,16.6937931 C39.7732208,16.6937931 41.40625,16.4876306 41.6666667,17.2363278 C41.9433597,18.0175778 40.9993486,19.3847653 38.7858069,22.3741319 C35.1399736,27.2840708 34.7330736,26.8283417 37.7549917,29.6657986 Z" id="Shape" fill="#FFFFFF"></path>
        </g>
    </g>
</svg>