<?xml version="1.0" encoding="UTF-8"?>
<svg width="50px" height="50px" viewBox="0 0 50 50" version="1.1" xmlns="http://www.w3.org/2000/svg" xmlns:xlink="http://www.w3.org/1999/xlink">
    <!-- Generator: Sketch 44.1 (41455) - http://www.bohemiancoding.com/sketch -->
    <title>icon-yandex</title>
    <desc>Created with Sketch.</desc>
    <defs></defs>
    <g id="Page-1" stroke="none" stroke-width="1" fill="none" fill-rule="evenodd">
        <g id="icon-yandex" fill-rule="nonzero">
            <path d="M50,43.0555556 C50,46.8912764 46.8912764,50 43.0555556,50 L6.94444444,50 C3.10872361,50 0,46.8912764 0,43.0555556 L0,6.94444444 C0,3.10872361 3.10872361,0 6.94444444,0 L43.0555556,0 C46.8912764,0 50,3.10872361 50,6.94444444 L50,43.0555556 Z" id="Shape-Copy" fill="#ED1F24"></path>
            <path d="M30.6348039,10.2319608 L26.1595098,10.2319608 C21.7620588,10.2319608 18.0328431,13.5792157 18.0328431,20.0777451 C18.0328431,23.9762745 19.8387255,26.8506863 23.0573529,28.2686275 L17.0512745,39.1381373 C16.8547059,39.4929412 17.0512745,39.7681373 17.3651961,39.7681373 L20.1527451,39.7681373 C20.3880392,39.7681373 20.5458824,39.6896078 20.6243137,39.4929412 L26.0810784,28.820098 L28.0439216,28.820098 L28.0439216,39.4929412 C28.0439216,39.6102941 28.1612745,39.7681373 28.3183333,39.7681373 L30.7528431,39.7681373 C30.9881373,39.7681373 31.0668627,39.65 31.0668627,39.4539216 L31.0668627,10.6257843 C31.0667647,10.350098 30.9097059,10.2319608 30.6348039,10.2319608 Z M28.0438235,26.3 L26.395,26.3 C23.8041176,26.3 21.2917647,24.4097059 21.2917647,19.6840196 C21.2917647,14.7604902 23.6470588,12.7521569 26.0415686,12.7521569 L28.0439216,12.7521569 L28.0439216,26.3 L28.0438235,26.3 Z" id="path40" fill="#FFFFFF"></path>
        </g>
    </g>
</svg>