<?xml version="1.0" encoding="UTF-8"?>
<svg width="60px" height="71px" viewBox="0 0 60 71" version="1.1" xmlns="http://www.w3.org/2000/svg" xmlns:xlink="http://www.w3.org/1999/xlink">
    <!-- Generator: Sketch 49.1 (51147) - http://www.bohemiancoding.com/sketch -->
    <title>icon-rock</title>
    <desc>Created with Sketch.</desc>
    <defs></defs>
    <g id="Page-1" stroke="none" stroke-width="1" fill="none" fill-rule="evenodd">
        <g id="icon-rock" transform="translate(0.000000, -1.000000)" fill="#FFFFFF" fill-rule="nonzero">
            <path d="M22.96,65.33 L21.34,63.18 L1.44,36.73 C-0.0959255854,34.8722248 -0.430853045,32.2984315 0.578467665,30.1094437 C1.58778838,27.9204558 3.76262997,26.5038923 6.17280251,26.4656241 C8.58297505,26.4273558 10.8016929,27.7741591 11.88,29.93 L18.38,37.25 L18.38,7.45 C18.3744508,3.89002263 21.2500567,0.996528098 24.81,0.98 C28.3699465,0.991021559 31.2500171,3.88003643 31.25,7.44 L31.26,22.33 C32.7775647,21.4909733 34.5719187,21.3079748 36.2276156,21.8233742 C37.8833124,22.3387735 39.2567729,23.5078762 40.03,25.06 C42.0215599,23.5816455 44.6952134,23.4094042 46.86,24.62 L46.86,10.41 C46.86,6.9 49.92,3.93 53.53,3.93 C57.08,3.93 59.96,6.83 59.96,10.41 L59.96,52.77 C59.96,63.37 51.4,71.98 40.86,71.98 L37.47,71.98 C32.0779655,71.9734789 26.9407108,69.6846031 23.33,65.68 C23.18877,65.5838374 23.0638544,65.465674 22.96,65.33 Z M27.99,26.05 L27.97,7.45 C27.9700087,5.70315516 26.5568361,4.28551055 24.81,4.28 C23.0670591,4.28548962 21.6554896,5.69705913 21.65,7.44 L21.65,42.25 L21.44,42.25 C21.34,42.43 21.22,42.6 21.06,42.74 C20.39,43.34 19.36,43.29 18.76,42.61 L18.43,42.25 L18.38,42.25 L18.38,42.19 L9.38,32.07 C8.50060039,31.0354614 7.03452539,30.7233557 5.81,31.31 C4.373843,32.0084242 3.72969662,33.7042381 4.34,35.18 L24.21,61.53 C24.29,61.61 24.37,61.7 24.44,61.8 C27.382764,66.1033141 32.2567205,68.6805635 37.47,68.69 L40.87,68.69 C49.59,68.69 56.69,61.55 56.69,52.77 L56.69,10.41 C56.6926564,9.56926246 56.3612201,8.76190456 55.7686042,8.16553797 C55.1759883,7.56917137 54.3707376,7.23264799 53.53,7.23 C51.73,7.23 50.13,8.71 50.13,10.41 L50.13,29.87 L50.15,30.21 L50.15,40.45 C50.15,41.35 49.41,42.11 48.51,42.11 C47.61,42.11 46.87,41.36 46.87,40.45 L46.87,35.43 L46.87,30.06 C46.7901014,28.4106233 45.4313073,27.1133927 43.78,27.11 C42.147404,27.1230483 40.8047468,28.4001034 40.71,30.03 L40.71,38.35 C40.6989542,39.2585084 39.9535084,39.9860456 39.045,39.9749999 C38.1364916,39.9639542 37.4089544,39.2185084 37.42,38.31 L37.42,30.21 L37.43,29.86 L37.43,27.92 C37.5459912,26.7451979 36.9846655,25.6064851 35.9822199,24.9830137 C34.9797743,24.3595423 33.7102257,24.3595423 32.7077801,24.9830137 C31.7053345,25.6064851 31.1440088,26.7451979 31.26,27.92 L31.26,37.12 C31.3081065,37.7346537 31.0074234,38.3243565 30.4816958,38.6464184 C29.9559681,38.9684803 29.2940319,38.9684803 28.7683042,38.6464184 C28.2425766,38.3243565 27.9418935,37.7346537 27.99,37.12 L27.99,27.92 L27.99,27.66 L27.99,26.05 Z" id="699ha"></path>
        </g>
    </g>
</svg>